<?xml version="1.0" encoding="UTF-8"?>
<!DOCTYPE svg PUBLIC "-//W3C//DTD SVG 1.1//EN" "http://www.w3.org/Graphics/SVG/1.1/DTD/svg11.dtd">
<!-- Creator: CorelDRAW X8 -->
<svg xmlns="http://www.w3.org/2000/svg" xml:space="preserve" width="2.0318mm" height="2.0318mm" version="1.1" style="shape-rendering:geometricPrecision; text-rendering:geometricPrecision; image-rendering:optimizeQuality; fill-rule:evenodd; clip-rule:evenodd"
viewBox="0 0 203 203"
 xmlns:xlink="http://www.w3.org/1999/xlink">
 <defs>
  <style type="text/css">
   <![CDATA[
    .fil0 {fill:black}
   ]]>
  </style>
 </defs>
 <g id="Layer_x0020_1">
  <metadata id="CorelCorpID_0Corel-Layer"/>
  <g id="_2025684151200">
   <path class="fil0" d="M140 75c0,-4 1,-9 3,-12 1,-2 1,-3 3,-5 1,1 3,5 3,7 2,6 2,12 0,19 0,2 -1,3 -2,5 -1,0 -1,1 -1,1 -3,-3 -4,-6 -5,-11 0,-1 -1,-3 -1,-4zm26 -36l3 0c3,0 5,0 7,1 3,0 5,1 7,2 1,0 2,1 3,1 1,1 3,3 5,4l1 1c1,1 2,2 3,3l2 3c0,0 0,0 1,1 1,2 2,4 3,7 0,1 1,2 1,3 1,4 1,7 1,11l0 0c0,4 -1,8 -2,11l-1 2c0,0 0,1 0,1 -1,2 -2,4 -4,5 0,1 -1,2 -2,3l-3 3c-2,2 -5,4 -8,5 -1,1 -3,2 -4,2 -1,0 -2,1 -4,1 -7,2 -13,1 -20,-1l-6 -3c-1,-1 -2,-2 -3,-3 -1,1 -1,1 -1,1 -3,2 -6,4 -9,5 -4,1 -8,2 -12,2 -6,0 -13,-2 -18,-5 -2,-1 -3,-2 -4,-3l-3 2c-2,1 -4,3 -7,4 -9,3 -19,3 -28,-1 -1,-1 -3,-2 -4,-3l-2 -2c-1,1 -1,1 -2,1 -2,2 -5,4 -8,5 -7,2 -13,3 -20,1 -3,-1 -6,-2 -8,-3 -2,0 -3,-1 -4,-2 -1,-1 -2,-1 -3,-2l-1 -1c-1,-1 -1,-1 -1,-1 -1,-1 -1,-1 -1,-1 -1,-1 -1,-1 -1,-1 -2,-2 -3,-4 -4,-6 -1,-1 -2,-2 -2,-4l-1 -2c0,-1 0,-1 0,-1 -2,-4 -2,-7 -2,-12 0,-6 2,-12 5,-17 0,0 0,-1 1,-1l1 -3c1,-1 2,-2 3,-2l2 -3c3,-2 5,-3 9,-5 2,-1 4,-2 6,-2 3,-1 6,-1 10,-1 4,0 8,1 12,2 2,1 6,3 8,5 0,0 0,0 1,0l3 -2c2,-1 3,-2 6,-3 5,-2 8,-2 14,-2 4,0 8,1 12,2 0,0 0,0 1,1l2 1c2,1 3,2 5,2 0,1 0,1 1,1 0,0 1,-1 2,-1 1,-1 3,-2 4,-3 1,0 2,-1 3,-1 4,-2 8,-2 14,-2 6,0 12,2 16,4l5 3c0,0 1,-1 2,-1 2,-2 4,-3 7,-4 1,-1 3,-1 5,-2 2,0 4,0 6,0zm-64 19c0,1 0,1 1,2 2,3 3,6 3,9 1,5 1,10 -1,14 0,2 -1,3 -1,4 -1,1 -2,3 -3,3l-1 -3c-2,-2 -3,-6 -3,-8 0,-1 0,-1 -1,-2l0 -3c0,0 0,-1 0,-1 0,-1 0,-1 0,-1 1,-3 1,-6 3,-9 0,-1 0,-1 1,-2 0,-1 0,-1 1,-1 0,-1 0,-2 1,-2zm-44 32c-1,0 -4,-5 -4,-6 0,-1 0,-1 0,-1 -1,-1 -1,-1 -1,-1 0,-1 0,-2 0,-3 -1,-5 -1,-9 1,-14 0,-1 0,-1 1,-2l1 -2c0,0 0,-1 0,-1 1,-1 1,-2 2,-2 2,4 4,7 4,11l1 4c0,0 0,1 0,1 0,1 0,1 0,1l-1 4c0,3 -2,7 -3,10l-1 1zm94 -38c0,-1 5,-3 7,-3 1,-1 3,-1 4,-2 1,0 1,0 1,0 3,0 5,0 8,0 3,1 5,1 7,3 2,0 5,3 7,4 0,0 0,0 1,1 0,0 0,0 1,1l2 2c1,2 3,5 4,8 1,5 1,9 0,14 0,4 -2,7 -4,10l-3 4c0,0 0,0 0,0 0,0 0,0 0,0l-1 1c-2,1 -5,3 -6,4 -2,1 -4,1 -6,2 -4,1 -9,1 -12,0 -2,0 -3,-1 -4,-1 -2,-1 -3,-1 -5,-3 0,0 -1,0 -1,-1 0,0 1,-1 1,-2 1,-1 1,-1 2,-2 2,-3 3,-8 4,-12 1,-5 0,-11 -1,-16 -1,-4 -3,-7 -6,-11 0,0 0,0 0,-1zm-44 0l1 -1c1,0 1,0 2,-1 1,0 2,-1 3,-1 6,-3 13,-3 19,0 1,0 2,1 4,1 0,0 1,1 1,1l2 1c-1,1 -1,1 -1,1 -1,2 -2,3 -3,5l-1 3c-1,2 -2,4 -2,6l-1 4c0,6 0,11 2,16l2 3c1,2 1,3 3,5 0,1 1,1 1,1 -1,1 -3,2 -3,2 -1,1 -3,1 -4,2 -1,0 -2,1 -3,1 -1,0 -2,0 -3,0 -6,1 -11,0 -16,-3l-3 -2c0,0 0,0 0,-1 7,-8 9,-20 6,-30 -1,-4 -3,-8 -5,-11l-1 -2zm-12 44l-3 2c-1,1 -1,1 -2,1 -3,1 -5,2 -8,2 -3,1 -6,1 -9,0 -4,-1 -7,-2 -10,-4 0,0 0,-1 0,-1 0,0 0,0 0,-1 2,-2 3,-5 5,-7 1,-3 1,-6 2,-9 0,-2 0,-6 0,-8l-1 -5c-1,-4 -2,-8 -5,-12 0,0 -1,-2 -1,-2 0,0 0,0 0,0 1,-1 1,-1 1,-1 4,-2 9,-4 14,-4 1,0 2,0 4,0 3,0 7,2 10,4l3 1c0,0 -1,0 -1,1l-1 1c0,1 -1,2 -1,3 -2,3 -3,6 -4,10 -1,1 -1,3 -1,4 0,0 0,1 0,1 0,1 0,2 0,2l0 4c1,3 1,6 2,9 1,3 2,5 4,7 0,1 2,2 2,2zm-52 -22c0,5 1,9 2,13 1,3 2,5 4,7l2 2c-2,1 -3,2 -5,3 -3,1 -7,2 -10,2 -2,0 -5,1 -7,0 -3,-1 -6,-2 -9,-3 0,-1 -2,-2 -3,-2 -1,-2 -1,-1 -2,-3 -3,-2 -4,-5 -5,-8 -1,0 -1,-1 -1,-2 -1,-3 -2,-7 -2,-10 0,0 0,-1 0,-1l1 -2c0,-1 0,-3 1,-4 0,-2 1,-3 2,-5 0,-1 2,-3 3,-4l4 -4c0,0 0,-1 0,-1 3,-1 3,-1 5,-2 2,-1 3,-2 5,-2 2,-1 6,-1 9,-1 0,0 0,0 1,0 2,0 4,1 6,2 3,1 5,2 7,3l-2 2c-3,4 -4,9 -5,13 -1,2 -1,5 -1,7z"/>
   <path class="fil0" d="M44 150c0,0 1,0 1,-1 1,-2 4,-7 6,-9 0,-1 0,-2 1,-2 0,1 6,11 6,12 1,0 1,0 1,0 -1,0 -1,0 -2,0l-11 0c-1,0 -1,0 -2,0zm1 -19l-19 29c0,0 -1,1 -1,2 0,0 -1,1 -1,2l12 0 2 -3c0,-1 1,-1 1,-2l1 -2c0,1 0,1 1,1l22 0c0,0 0,0 0,-1 0,1 4,6 4,7l13 0c0,-1 -3,-4 -3,-5 -1,-2 -2,-3 -3,-5 -2,-3 -4,-6 -6,-9l-11 -16c0,0 -1,-1 -1,-1 0,-1 0,-1 -1,-1l-14 0c1,0 1,0 1,1l3 3z"/>
   <path class="fil0" d="M126 150c0,-1 0,-2 1,-3 1,-1 1,-2 2,-2 4,-3 10,-3 14,0 1,0 2,1 2,2 3,3 1,8 -4,10 -4,1 -9,0 -12,-2 -1,-1 -3,-3 -3,-5zm12 14l-3 0c-5,0 -9,-1 -13,-2 -3,-2 -5,-5 -6,-8 -2,-5 -1,-10 3,-13 1,0 1,-1 1,-1 1,-1 4,-2 5,-3 3,-1 7,-1 10,-1 1,0 2,0 3,1 0,0 1,0 1,0l-5 -6c0,0 -1,0 -1,-1 0,0 0,0 0,0l-3 -3c0,0 0,0 0,0l13 0c0,0 2,2 2,2 1,1 1,2 2,3l3 4c1,2 3,3 4,5 1,2 2,3 2,5 2,3 1,8 -1,11 -1,2 -4,4 -7,5 0,1 0,1 -1,1 -2,1 -6,1 -9,1zm1 -27l0 0z"/>
   <path class="fil0" d="M78 153c0,2 0,4 1,5 1,2 2,3 3,4 4,2 9,2 15,2 3,0 5,0 8,-1 1,0 2,-1 2,-1 3,-2 5,-5 5,-9l0 -16 -11 0c0,3 1,14 0,17 0,1 -1,2 -3,3 -3,1 -8,1 -9,-3 0,-1 0,-2 0,-3l0 -14 -11 0 0 16z"/>
   <polygon class="fil0" points="160,164 171,164 171,136 160,136 "/>
  </g>
 </g>
</svg>
