<?xml version="1.0" encoding="UTF-8"?>
<!DOCTYPE svg PUBLIC "-//W3C//DTD SVG 1.1//EN" "http://www.w3.org/Graphics/SVG/1.1/DTD/svg11.dtd">
<svg xmlns="http://www.w3.org/2000/svg" version="1.1" width="1200px" height="675px" style="shape-rendering:geometricPrecision; text-rendering:geometricPrecision; image-rendering:optimizeQuality; fill-rule:evenodd; clip-rule:evenodd" xmlns:xlink="http://www.w3.org/1999/xlink">
<g><path style="opacity:0.992" fill="#181818" d="M 438.5,44.5 C 545.5,44.5 652.5,44.5 759.5,44.5C 759.5,46.5 760.5,47.5 762.5,47.5C 762.833,243.667 762.5,439.667 761.5,635.5C 761.667,440.166 761.5,244.833 761,49.5C 760.832,244.873 760.332,440.206 759.5,635.5C 759.624,636.107 759.957,636.44 760.5,636.5C 652.668,637.499 544.668,637.833 436.5,637.5C 435.833,637.5 435.5,637.167 435.5,636.5C 434.336,441.206 434.169,245.873 435,50.5C 435.979,48.6797 437.479,47.513 439.5,47C 438.748,46.3292 438.414,45.4959 438.5,44.5 Z M 449.5,57.5 C 548.833,57.5 648.167,57.5 747.5,57.5C 748.043,57.56 748.376,57.8933 748.5,58.5C 746.893,60.9174 745.893,63.584 745.5,66.5C 742.07,77.1151 738.736,87.4484 735.5,97.5C 735.5,97.8333 735.5,98.1667 735.5,98.5C 733.985,103.565 732.318,108.565 730.5,113.5C 729.494,114.396 729.494,115.062 730.5,115.5C 728.795,120.186 727.128,124.853 725.5,129.5C 725.5,129.833 725.5,130.167 725.5,130.5C 719.787,149.592 713.787,168.592 707.5,187.5C 707.5,187.833 707.5,188.167 707.5,188.5C 707.443,189.609 707.11,190.609 706.5,191.5C 706.5,191.833 706.5,192.167 706.5,192.5C 703.791,199.379 701.458,206.379 699.5,213.5C 699.5,213.833 699.5,214.167 699.5,214.5C 693.171,231.172 687.837,248.172 683.5,265.5C 683.5,265.833 683.5,266.167 683.5,266.5C 680.163,276.521 676.83,286.521 673.5,296.5C 673.5,296.833 673.5,297.167 673.5,297.5C 671.821,301.241 670.821,305.574 670.5,310.5C 669.351,310.791 668.684,311.624 668.5,313C 665.987,321.629 663.321,330.129 660.5,338.5C 660.5,338.833 660.5,339.167 660.5,339.5C 658.283,347.692 655.616,355.692 652.5,363.5C 652.5,364.167 652.5,364.833 652.5,365.5C 650.207,371.339 648.541,377.339 647.5,383.5C 643.6,392.396 640.6,401.73 638.5,411.5C 635.755,420.168 632.755,428.835 629.5,437.5C 629.5,437.833 629.5,438.167 629.5,438.5C 627.138,446.901 624.471,455.234 621.5,463.5C 621.5,464.167 621.5,464.833 621.5,465.5C 615.481,483.843 609.481,502.176 603.5,520.5C 603.5,520.833 603.5,521.167 603.5,521.5C 601.978,526.912 600.145,532.245 598,537.5C 594.798,526.014 591.298,514.681 587.5,503.5C 587.5,503.167 587.5,502.833 587.5,502.5C 584.833,494.167 582.167,485.833 579.5,477.5C 579.5,477.167 579.5,476.833 579.5,476.5C 571.171,450.506 562.838,424.506 554.5,398.5C 547.775,374.325 540.442,350.325 532.5,326.5C 532.5,326.167 532.5,325.833 532.5,325.5C 530.981,320.411 529.314,315.411 527.5,310.5C 527.5,310.167 527.5,309.833 527.5,309.5C 523.852,298.582 520.352,287.582 517,276.5C 516.617,275.944 516.117,275.611 515.5,275.5C 515.206,269.313 513.539,263.647 510.5,258.5C 510.5,257.833 510.5,257.167 510.5,256.5C 506.133,241.427 501.467,226.427 496.5,211.5C 496.5,211.167 496.5,210.833 496.5,210.5C 495.918,206.468 494.584,202.801 492.5,199.5C 491.368,192.454 489.368,185.788 486.5,179.5C 486.5,179.167 486.5,178.833 486.5,178.5C 481.162,161.805 475.828,145.139 470.5,128.5C 470.5,127.833 470.5,127.167 470.5,126.5C 468.827,121.792 467.16,117.125 465.5,112.5C 465.5,112.167 465.5,111.833 465.5,111.5C 464.958,108.327 463.958,105.327 462.5,102.5C 462.5,102.167 462.5,101.833 462.5,101.5C 457.546,87.0197 453.213,72.353 449.5,57.5 Z M 750.5,622.5 C 750.167,622.5 749.833,622.5 749.5,622.5C 748.833,622.5 748.167,622.5 747.5,622.5C 747.158,621.662 746.492,621.328 745.5,621.5C 745.167,621.5 744.833,621.5 744.5,621.5C 744.5,620.167 743.833,619.5 742.5,619.5C 742.167,619.5 741.833,619.5 741.5,619.5C 737.21,617.509 732.876,615.509 728.5,613.5C 727.833,613.167 727.167,612.833 726.5,612.5C 726.158,611.662 725.492,611.328 724.5,611.5C 719.599,609.716 714.932,607.383 710.5,604.5C 708.883,603.962 707.216,603.629 705.5,603.5C 700.503,600.272 695.17,597.605 689.5,595.5C 689.167,595.5 688.833,595.5 688.5,595.5C 688.027,594.094 687.027,593.427 685.5,593.5C 685.167,593.5 684.833,593.5 684.5,593.5C 680.225,591.513 675.891,589.513 671.5,587.5C 671.158,586.662 670.492,586.328 669.5,586.5C 665.697,584.329 661.697,582.329 657.5,580.5C 657.167,580.5 656.833,580.5 656.5,580.5C 654.711,579.123 652.711,578.123 650.5,577.5C 649.833,577.5 649.167,577.5 648.5,577.5C 648.167,576.5 647.5,575.833 646.5,575.5C 646.167,575.5 645.833,575.5 645.5,575.5C 641.225,573.513 636.891,571.513 632.5,569.5C 631.486,568.326 630.153,567.66 628.5,567.5C 628.167,567.5 627.833,567.5 627.5,567.5C 626.71,566.599 625.71,565.932 624.5,565.5C 624.167,565.5 623.833,565.5 623.5,565.5C 619.662,563.322 615.662,561.322 611.5,559.5C 610.833,559.5 610.167,559.5 609.5,559.5C 609.631,558.761 609.464,558.094 609,557.5C 608.31,558.738 607.81,558.738 607.5,557.5C 610.783,545.107 614.45,532.773 618.5,520.5C 618.5,520.167 618.5,519.833 618.5,519.5C 641.601,444.997 664.935,370.664 688.5,296.5C 688.5,295.833 688.5,295.167 688.5,294.5C 691.963,284.983 694.963,275.316 697.5,265.5C 699.242,260.292 700.909,254.958 702.5,249.5C 710.818,223.584 719.151,197.584 727.5,171.5C 727.5,171.167 727.5,170.833 727.5,170.5C 734.765,145.958 742.432,121.458 750.5,97C 750.167,96.6667 749.833,96.3333 749.5,96C 750.483,95.4092 751.15,95.7425 751.5,97C 750.502,272.139 750.169,447.305 750.5,622.5 Z M 450.5,109.5 C 450.5,109.833 450.5,110.167 450.5,110.5C 452.681,115.341 454.348,120.341 455.5,125.5C 455.5,125.833 455.5,126.167 455.5,126.5C 456.067,128.03 456.733,129.53 457.5,131C 457.167,131.333 456.833,131.667 456.5,132C 457.781,133.409 458.781,134.909 459.5,136.5C 474.46,186.304 489.46,234.97 504.5,282.5C 503.167,282.833 503.167,283.167 504.5,283.5C 514.585,315.814 524.918,348.48 535.5,381.5C 535.5,381.833 535.5,382.167 535.5,382.5C 537.757,390.712 540.423,398.712 543.5,406.5C 543.5,406.833 543.5,407.167 543.5,407.5C 546.636,415.99 549.303,424.656 551.5,433.5C 551.5,433.833 551.5,434.167 551.5,434.5C 559.278,458.46 566.945,482.793 574.5,507.5C 579.805,524.197 585.138,541.197 590.5,558.5C 589.883,558.389 589.383,558.056 589,557.5C 587.417,558.971 585.583,559.971 583.5,560.5C 583.167,560.5 582.833,560.5 582.5,560.5C 580.887,561.692 579.22,562.692 577.5,563.5C 576.833,563.833 576.167,564.167 575.5,564.5C 571.077,566.519 566.744,568.519 562.5,570.5C 562.167,570.5 561.833,570.5 561.5,570.5C 559.973,570.427 558.973,571.094 558.5,572.5C 557.167,572.833 555.833,573.167 554.5,573.5C 551.147,575.201 547.814,576.868 544.5,578.5C 544.167,578.5 543.833,578.5 543.5,578.5C 541.887,579.692 540.22,580.692 538.5,581.5C 537.391,581.557 536.391,581.89 535.5,582.5C 533.289,583.123 531.289,584.123 529.5,585.5C 529.167,585.5 528.833,585.5 528.5,585.5C 526.435,585.953 524.768,586.953 523.5,588.5C 521.62,588.229 520.287,588.896 519.5,590.5C 518.209,590.263 517.209,590.596 516.5,591.5C 515.833,591.5 515.167,591.5 514.5,591.5C 511.549,593.362 508.549,595.028 505.5,596.5C 505.167,596.5 504.833,596.5 504.5,596.5C 503.29,596.932 502.29,597.599 501.5,598.5C 500.391,598.557 499.391,598.89 498.5,599.5C 498.167,599.5 497.833,599.5 497.5,599.5C 491.669,602.322 486.002,605.322 480.5,608.5C 480.167,608.5 479.833,608.5 479.5,608.5C 478.508,608.328 477.842,608.662 477.5,609.5C 476.833,609.5 476.167,609.5 475.5,609.5C 472.333,610.989 469.333,612.655 466.5,614.5C 466.167,614.5 465.833,614.5 465.5,614.5C 463.517,615.471 461.517,616.471 459.5,617.5C 459.167,617.5 458.833,617.5 458.5,617.5C 456.001,618.301 454.001,619.634 452.5,621.5C 452.167,621.5 451.833,621.5 451.5,621.5C 449.847,621.66 448.514,622.326 447.5,623.5C 446.662,623.158 446.328,622.492 446.5,621.5C 446.5,447.833 446.5,274.167 446.5,100.5C 446.351,99.448 446.517,98.448 447,97.5C 448.381,101.403 449.548,105.403 450.5,109.5 Z M 599.5,568.5 C 599.842,569.338 600.508,569.672 601.5,569.5C 601.842,570.338 602.508,570.672 603.5,570.5C 603.833,570.5 604.167,570.5 604.5,570.5C 604.833,571.5 605.5,572.167 606.5,572.5C 606.833,572.5 607.167,572.5 607.5,572.5C 610.814,574.132 614.147,575.799 617.5,577.5C 617.833,577.5 618.167,577.5 618.5,577.5C 619.209,578.404 620.209,578.737 621.5,578.5C 621.833,578.5 622.167,578.5 622.5,578.5C 622.5,579.833 623.167,580.5 624.5,580.5C 627.146,582.253 630.146,583.253 633.5,583.5C 635.034,585.369 637.034,586.702 639.5,587.5C 639.833,587.5 640.167,587.5 640.5,587.5C 645.755,590.163 651.089,592.83 656.5,595.5C 657.167,595.5 657.833,595.5 658.5,595.5C 658.842,596.338 659.508,596.672 660.5,596.5C 660.833,596.5 661.167,596.5 661.5,596.5C 661.5,597.833 662.167,598.5 663.5,598.5C 663.833,598.5 664.167,598.5 664.5,598.5C 665.29,599.401 666.29,600.068 667.5,600.5C 667.833,600.5 668.167,600.5 668.5,600.5C 671.497,601.828 674.497,603.161 677.5,604.5C 678.514,605.674 679.847,606.34 681.5,606.5C 684.795,608.159 688.128,609.826 691.5,611.5C 691.833,611.5 692.167,611.5 692.5,611.5C 693.391,612.11 694.391,612.443 695.5,612.5C 695.842,613.338 696.508,613.672 697.5,613.5C 697.842,614.338 698.508,614.672 699.5,614.5C 699.833,614.5 700.167,614.5 700.5,614.5C 700.5,615.833 701.167,616.5 702.5,616.5C 702.833,616.5 703.167,616.5 703.5,616.5C 705.216,618.025 707.216,619.025 709.5,619.5C 709.833,619.5 710.167,619.5 710.5,619.5C 712.216,621.025 714.216,622.025 716.5,622.5C 716.833,622.5 717.167,622.5 717.5,622.5C 717.973,623.906 718.973,624.573 720.5,624.5C 722.371,625.797 724.371,626.797 726.5,627.5C 641.167,627.5 555.833,627.5 470.5,627.5C 475.627,625.103 480.627,622.436 485.5,619.5C 486.167,619.5 486.833,619.5 487.5,619.5C 488.71,619.068 489.71,618.401 490.5,617.5C 493.119,617.075 495.453,616.075 497.5,614.5C 497.833,614.5 498.167,614.5 498.5,614.5C 500.75,613.87 502.75,612.87 504.5,611.5C 504.833,611.5 505.167,611.5 505.5,611.5C 506.5,611.167 507.167,610.5 507.5,609.5C 507.833,609.5 508.167,609.5 508.5,609.5C 513.022,607.736 517.355,605.736 521.5,603.5C 521.833,603.5 522.167,603.5 522.5,603.5C 523.5,603.167 524.167,602.5 524.5,601.5C 526.216,601.371 527.883,601.038 529.5,600.5C 532.853,598.799 536.186,597.132 539.5,595.5C 539.833,595.5 540.167,595.5 540.5,595.5C 542.304,594.284 543.971,593.284 545.5,592.5C 546.167,592.167 546.833,591.833 547.5,591.5C 551.991,589.753 556.325,587.753 560.5,585.5C 561.167,585.5 561.833,585.5 562.5,585.5C 564.029,584.716 565.696,583.716 567.5,582.5C 567.833,582.5 568.167,582.5 568.5,582.5C 569.721,581.972 570.887,581.305 572,580.5C 572.333,580.833 572.667,581.167 573,581.5C 574.087,579.186 575.921,577.852 578.5,577.5C 580.017,577.489 581.184,576.823 582,575.5C 583.159,576.566 583.992,576.233 584.5,574.5C 586.5,573.833 588.5,573.167 590.5,572.5C 593.299,570.786 596.299,569.453 599.5,568.5 Z"/></g>
<g><path style="opacity:0.502" fill="#828282" d="M 437.5,44.5 C 437.5,45.8333 436.833,46.5 435.5,46.5C 435.5,45.1667 436.167,44.5 437.5,44.5 Z"/></g>
<g><path style="opacity:0.137" fill="#898989" d="M 759.5,44.5 C 761.144,44.8102 762.144,45.8102 762.5,47.5C 760.5,47.5 759.5,46.5 759.5,44.5 Z"/></g>
<g><path style="opacity:0.137" fill="#999999" d="M 435.5,46.5 C 435.672,47.4916 435.338,48.1583 434.5,48.5C 433.833,48.5 433.167,48.5 432.5,48.5C 432.973,47.0937 433.973,46.427 435.5,46.5 Z"/></g>
<g><path style="opacity:0.251" fill="#1b1b1b" d="M 432.5,48.5 C 433.167,48.5 433.833,48.5 434.5,48.5C 433.501,244.097 433.168,439.764 433.5,635.5C 433.5,636.167 433.167,636.5 432.5,636.5C 432.5,440.5 432.5,244.5 432.5,48.5 Z"/></g>
<g><path style="opacity:0.443" fill="#252525" d="M 437.5,44.5 C 437.833,44.5 438.167,44.5 438.5,44.5C 438.414,45.4959 438.748,46.3292 439.5,47C 437.479,47.513 435.979,48.6797 435,50.5C 434.169,245.873 434.336,441.206 435.5,636.5C 434.833,636.167 434.167,635.833 433.5,635.5C 433.168,439.764 433.501,244.097 434.5,48.5C 435.338,48.1583 435.672,47.4916 435.5,46.5C 436.833,46.5 437.5,45.8333 437.5,44.5 Z"/></g>
<g><path style="opacity:0.043" fill="#8c8c8c" d="M 762.5,47.5 C 763.315,48.4293 764.148,49.4293 765,50.5C 765.667,245.167 765.667,439.833 765,634.5C 764.148,635.571 763.315,636.571 762.5,637.5C 761.833,637.5 761.5,637.167 761.5,636.5C 761.5,636.167 761.5,635.833 761.5,635.5C 762.5,439.667 762.833,243.667 762.5,47.5 Z"/></g>
<g><path style="opacity:1" fill="#090909" d="M 761.5,635.5 C 761.5,635.833 761.5,636.167 761.5,636.5C 761.167,636.5 760.833,636.5 760.5,636.5C 759.957,636.44 759.624,636.107 759.5,635.5C 760.332,440.206 760.832,244.873 761,49.5C 761.5,244.833 761.667,440.166 761.5,635.5 Z"/></g>
<g><path style="opacity:0.094" fill="#393939" d="M 447.5,56.5 C 548.167,55.1667 648.833,55.1667 749.5,56.5C 748.508,56.3284 747.842,56.6618 747.5,57.5C 648.167,57.5 548.833,57.5 449.5,57.5C 448.833,57.1667 448.167,56.8333 447.5,56.5 Z"/></g>
<g><path style="opacity:0.255" fill="#a1a1a1" d="M 747.5,57.5 C 747.842,56.6618 748.508,56.3284 749.5,56.5C 749.483,58.5648 749.15,60.5648 748.5,62.5C 747.857,64.0764 746.857,65.4097 745.5,66.5C 745.893,63.584 746.893,60.9174 748.5,58.5C 748.376,57.8933 748.043,57.56 747.5,57.5 Z"/></g>
<g><path style="opacity:0.255" fill="#828282" d="M 748.5,62.5 C 745.314,73.9055 741.814,85.2388 738,96.5C 737.329,97.2524 736.496,97.5858 735.5,97.5C 738.736,87.4484 742.07,77.1151 745.5,66.5C 746.857,65.4097 747.857,64.0764 748.5,62.5 Z"/></g>
<g><path style="opacity:0.043" fill="#8d8d8d" d="M 447.5,56.5 C 448.167,56.8333 448.833,57.1667 449.5,57.5C 453.213,72.353 457.546,87.0197 462.5,101.5C 461.504,101.586 460.671,101.252 460,100.5C 456.125,86.1164 451.625,71.9498 446.5,58C 446.57,57.2352 446.903,56.7352 447.5,56.5 Z"/></g>
<g><path style="opacity:0.851" fill="#323232" d="M 750.5,89.5 C 751.209,88.596 752.209,88.2627 753.5,88.5C 753.833,267.334 753.5,446.001 752.5,624.5C 753.165,445.83 752.499,267.497 750.5,89.5 Z"/></g>
<g><path style="opacity:0.423" fill="#8e8e8e" d="M 750.5,89.5 C 752.499,267.497 753.165,445.83 752.5,624.5C 751.791,625.404 750.791,625.737 749.5,625.5C 749.5,624.5 749.5,623.5 749.5,622.5C 749.833,622.5 750.167,622.5 750.5,622.5C 750.169,447.305 750.502,272.139 751.5,97C 751.15,95.7425 750.483,95.4092 749.5,96C 749.833,96.3333 750.167,96.6667 750.5,97C 742.432,121.458 734.765,145.958 727.5,170.5C 726.535,164.832 727.702,159.499 731,154.5C 736.742,132.516 743.242,110.85 750.5,89.5 Z"/></g>
<g><path style="opacity:0.851" fill="#323232" d="M 447.5,91.5 C 446.778,91.0825 446.278,90.4158 446,89.5C 444.608,92.2784 444.108,95.2784 444.5,98.5C 444.5,272.833 444.5,447.167 444.5,621.5C 443.833,444.098 443.166,266.598 442.5,89C 445.356,87.0936 447.023,87.927 447.5,91.5 Z"/></g>
<g><path style="opacity:0.443" fill="#2d2d2d" d="M 444.5,98.5 C 445.167,99.1667 445.833,99.8333 446.5,100.5C 446.5,274.167 446.5,447.833 446.5,621.5C 445.833,621.5 445.167,621.5 444.5,621.5C 444.5,447.167 444.5,272.833 444.5,98.5 Z"/></g>
<g><path style="opacity:0.043" fill="#919191" d="M 447.5,91.5 C 448.129,96.8477 449.462,102.014 451.5,107C 451.472,108.07 451.139,108.903 450.5,109.5C 449.548,105.403 448.381,101.403 447,97.5C 446.517,98.448 446.351,99.448 446.5,100.5C 445.833,99.8333 445.167,99.1667 444.5,98.5C 444.108,95.2784 444.608,92.2784 446,89.5C 446.278,90.4158 446.778,91.0825 447.5,91.5 Z"/></g>
<g><path style="opacity:0.043" fill="#919191" d="M 462.5,102.5 C 463.958,105.327 464.958,108.327 465.5,111.5C 462.259,109.111 461.259,106.111 462.5,102.5 Z"/></g>
<g><path style="opacity:0.39" fill="#929292" d="M 735.5,98.5 C 736.124,98.9169 736.457,99.5836 736.5,100.5C 735.526,104.608 734.359,108.608 733,112.5C 732.329,113.252 731.496,113.586 730.5,113.5C 732.318,108.565 733.985,103.565 735.5,98.5 Z"/></g>
<g><path style="opacity:0.043" fill="#8c8c8c" d="M 450.5,110.5 C 451.5,110.5 452.5,110.5 453.5,110.5C 454.488,114.806 455.488,119.139 456.5,123.5C 456.457,124.416 456.124,125.083 455.5,125.5C 454.348,120.341 452.681,115.341 450.5,110.5 Z"/></g>
<g><path style="opacity:0.043" fill="#939393" d="M 465.5,112.5 C 467.16,117.125 468.827,121.792 470.5,126.5C 469.883,126.611 469.383,126.944 469,127.5C 467.876,122.822 466.376,118.322 464.5,114C 464.57,113.235 464.903,112.735 465.5,112.5 Z"/></g>
<g><path style="opacity:0.137" fill="#8f8f8f" d="M 730.5,115.5 C 731.582,117.327 731.582,119.327 730.5,121.5C 729.257,123.691 728.424,126.024 728,128.5C 727.329,129.252 726.496,129.586 725.5,129.5C 727.128,124.853 728.795,120.186 730.5,115.5 Z"/></g>
<g><path style="opacity:0.39" fill="#909090" d="M 455.5,126.5 C 457.5,126.5 458.5,127.5 458.5,129.5C 458.993,131.806 459.326,134.139 459.5,136.5C 458.781,134.909 457.781,133.409 456.5,132C 456.833,131.667 457.167,131.333 457.5,131C 456.733,129.53 456.067,128.03 455.5,126.5 Z"/></g>
<g><path style="opacity:0.39" fill="#939393" d="M 725.5,130.5 C 726.598,131.601 726.765,132.934 726,134.5C 720.867,150.066 716.034,165.732 711.5,181.5C 711.023,184.025 709.69,186.025 707.5,187.5C 713.787,168.592 719.787,149.592 725.5,130.5 Z"/></g>
<g><path style="opacity:0.043" fill="#919191" d="M 470.5,128.5 C 475.828,145.139 481.162,161.805 486.5,178.5C 484.665,177.878 483.498,176.544 483,174.5C 478.94,159.697 474.44,145.03 469.5,130.5C 469.543,129.584 469.876,128.917 470.5,128.5 Z"/></g>
<g><path style="opacity:0.612" fill="#474747" d="M 711.5,181.5 C 711.396,185.207 710.396,188.54 708.5,191.5C 708.737,190.209 708.404,189.209 707.5,188.5C 707.5,188.167 707.5,187.833 707.5,187.5C 709.69,186.025 711.023,184.025 711.5,181.5 Z"/></g>
<g><path style="opacity:0.424" fill="#838383" d="M 486.5,179.5 C 489.368,185.788 491.368,192.454 492.5,199.5C 491.833,199.167 491.167,198.833 490.5,198.5C 488.678,192.774 487.011,186.941 485.5,181C 485.57,180.235 485.903,179.735 486.5,179.5 Z"/></g>
<g><path style="opacity:0.424" fill="#9d9d9d" d="M 707.5,188.5 C 708.404,189.209 708.737,190.209 708.5,191.5C 707.833,191.5 707.167,191.5 706.5,191.5C 707.11,190.609 707.443,189.609 707.5,188.5 Z"/></g>
<g><path style="opacity:0.999" fill="#1a1a1a" d="M 479.5,197.5 C 481.825,198.655 482.992,200.655 483,203.5C 483.157,198.177 485.657,196.51 490.5,198.5C 491.167,198.833 491.833,199.167 492.5,199.5C 492.457,202.91 492.957,206.243 494,209.5C 494.671,210.252 495.504,210.586 496.5,210.5C 496.5,210.833 496.5,211.167 496.5,211.5C 495.903,211.735 495.57,212.235 495.5,213C 499.595,227.539 503.928,242.039 508.5,256.5C 508.887,259.206 509.887,261.539 511.5,263.5C 512.712,267.583 514.045,271.583 515.5,275.5C 518.208,286.671 521.375,297.671 525,308.5C 525.671,309.252 526.504,309.586 527.5,309.5C 527.5,309.833 527.5,310.167 527.5,310.5C 526.876,310.917 526.543,311.584 526.5,312.5C 527.378,316.689 528.711,320.689 530.5,324.5C 530.957,325.298 531.624,325.631 532.5,325.5C 532.5,325.833 532.5,326.167 532.5,326.5C 531.876,326.917 531.543,327.584 531.5,328.5C 537.842,349.959 544.342,371.293 551,392.5C 551.739,394.889 552.905,396.889 554.5,398.5C 554.89,401.839 555.39,405.173 556,408.5C 562.826,430.642 569.826,452.642 577,474.5C 577.417,475.756 578.25,476.423 579.5,476.5C 579.5,476.833 579.5,477.167 579.5,477.5C 578.876,477.917 578.543,478.584 578.5,479.5C 580.972,486.749 583.139,494.082 585,501.5C 585.671,502.252 586.504,502.586 587.5,502.5C 587.5,502.833 587.5,503.167 587.5,503.5C 586.903,503.735 586.57,504.235 586.5,505C 589.897,515.754 593.064,526.587 596,537.5C 596.833,538.5 597.667,539.5 598.5,540.5C 599.298,540.043 599.631,539.376 599.5,538.5C 600.188,541.02 601.188,543.52 602.5,546C 601.5,547 600.5,548 599.5,549C 600.289,551.709 601.955,554.209 604.5,556.5C 605.098,559.821 606.765,560.821 609.5,559.5C 610.167,559.5 610.833,559.5 611.5,559.5C 611.389,560.117 611.056,560.617 610.5,561C 614.577,562.744 618.577,564.577 622.5,566.5C 623.107,566.376 623.44,566.043 623.5,565.5C 623.833,565.5 624.167,565.5 624.5,565.5C 624.668,568.051 625.668,568.718 627.5,567.5C 627.833,567.5 628.167,567.5 628.5,567.5C 628.5,568.5 628.5,569.5 628.5,570.5C 629.959,570.567 631.292,570.234 632.5,569.5C 632.369,570.376 632.702,571.043 633.5,571.5C 637.285,572.981 640.952,574.647 644.5,576.5C 645.107,576.376 645.44,576.043 645.5,575.5C 645.833,575.5 646.167,575.5 646.5,575.5C 646.281,576.675 646.614,577.675 647.5,578.5C 648.107,578.376 648.44,578.043 648.5,577.5C 649.167,577.5 649.833,577.5 650.5,577.5C 650.389,578.117 650.056,578.617 649.5,579C 651.536,579.454 653.37,580.287 655,581.5C 655.765,581.43 656.265,581.097 656.5,580.5C 656.833,580.5 657.167,580.5 657.5,580.5C 657.5,581.5 657.5,582.5 657.5,583.5C 661.471,584.045 665.138,585.379 668.5,587.5C 669.107,587.376 669.44,587.043 669.5,586.5C 670.492,586.328 671.158,586.662 671.5,587.5C 671.414,588.496 671.748,589.329 672.5,590C 676.01,591.518 679.51,593.018 683,594.5C 683.765,594.43 684.265,594.097 684.5,593.5C 684.833,593.5 685.167,593.5 685.5,593.5C 685.821,595.048 686.821,595.715 688.5,595.5C 688.833,595.5 689.167,595.5 689.5,595.5C 689.557,596.609 689.89,597.609 690.5,598.5C 689.957,598.56 689.624,598.893 689.5,599.5C 690.167,600.167 690.833,600.833 691.5,601.5C 690.067,603.122 688.401,604.455 686.5,605.5C 687.77,606.288 688.77,607.288 689.5,608.5C 687.243,608.038 685.243,607.038 683.5,605.5C 682.817,605.863 682.15,606.196 681.5,606.5C 680.713,604.896 679.38,604.229 677.5,604.5C 676.475,602.799 674.975,601.465 673,600.5C 671.323,599.392 669.823,599.392 668.5,600.5C 668.167,600.5 667.833,600.5 667.5,600.5C 667.5,599.5 667.5,598.5 667.5,597.5C 666.209,597.263 665.209,597.596 664.5,598.5C 664.167,598.5 663.833,598.5 663.5,598.5C 662.167,598.5 661.5,597.833 661.5,596.5C 661.167,596.5 660.833,596.5 660.5,596.5C 660.289,594.576 659.623,594.243 658.5,595.5C 657.833,595.5 657.167,595.5 656.5,595.5C 656.5,594.5 656.5,593.5 656.5,592.5C 651.376,590.901 646.376,588.901 641.5,586.5C 640.893,586.624 640.56,586.957 640.5,587.5C 640.167,587.5 639.833,587.5 639.5,587.5C 637.034,586.702 635.034,585.369 633.5,583.5C 630.86,580.993 627.86,579.993 624.5,580.5C 623.167,580.5 622.5,579.833 622.5,578.5C 622.167,578.5 621.833,578.5 621.5,578.5C 621.196,576.204 620.196,575.871 618.5,577.5C 618.167,577.5 617.833,577.5 617.5,577.5C 617.5,576.5 617.5,575.5 617.5,574.5C 614.538,573.939 611.705,572.939 609,571.5C 608.235,571.57 607.735,571.903 607.5,572.5C 607.167,572.5 606.833,572.5 606.5,572.5C 606.719,571.325 606.386,570.325 605.5,569.5C 604.893,569.624 604.56,569.957 604.5,570.5C 604.167,570.5 603.833,570.5 603.5,570.5C 603.289,568.576 602.623,568.243 601.5,569.5C 600.508,569.672 599.842,569.338 599.5,568.5C 600.478,567.703 600.145,567.036 598.5,566.5C 595.793,567.578 593.126,568.578 590.5,569.5C 590.5,570.5 590.5,571.5 590.5,572.5C 588.5,573.167 586.5,573.833 584.5,574.5C 584.631,573.624 584.298,572.957 583.5,572.5C 581.291,574.219 578.957,575.553 576.5,576.5C 574.202,578.461 571.535,579.461 568.5,579.5C 568.5,580.5 568.5,581.5 568.5,582.5C 568.167,582.5 567.833,582.5 567.5,582.5C 565.983,581.265 564.316,581.265 562.5,582.5C 561.438,583.425 561.438,584.425 562.5,585.5C 561.833,585.5 561.167,585.5 560.5,585.5C 559.388,584.628 558.054,584.628 556.5,585.5C 552.873,586.835 549.873,588.835 547.5,591.5C 546.833,591.833 546.167,592.167 545.5,592.5C 545.631,591.624 545.298,590.957 544.5,590.5C 543.476,591.853 542.143,592.52 540.5,592.5C 540.5,593.5 540.5,594.5 540.5,595.5C 540.167,595.5 539.833,595.5 539.5,595.5C 539.265,594.903 538.765,594.57 538,594.5C 534.116,595.246 531.283,597.246 529.5,600.5C 527.883,601.038 526.216,601.371 524.5,601.5C 524.44,600.957 524.107,600.624 523.5,600.5C 522.614,601.325 522.281,602.325 522.5,603.5C 522.167,603.5 521.833,603.5 521.5,603.5C 516.502,603.49 512.168,605.49 508.5,609.5C 508.167,609.5 507.833,609.5 507.5,609.5C 505.007,609.131 504.34,609.797 505.5,611.5C 505.167,611.5 504.833,611.5 504.5,611.5C 503.85,611.196 503.183,610.863 502.5,610.5C 500.8,611.61 499.466,612.943 498.5,614.5C 498.167,614.5 497.833,614.5 497.5,614.5C 496.749,613.427 495.749,613.26 494.5,614C 492.681,614.74 491.348,615.907 490.5,617.5C 487.506,615.934 486.506,616.601 487.5,619.5C 486.833,619.5 486.167,619.5 485.5,619.5C 484.652,618.375 483.652,618.375 482.5,619.5C 481.923,617.348 480.756,617.015 479,618.5C 477.833,617.333 476.667,616.167 475.5,615C 475.833,614.667 476.167,614.333 476.5,614C 474.866,613.506 473.199,613.34 471.5,613.5C 473.019,612.59 474.685,611.757 476.5,611C 475.944,610.617 475.611,610.117 475.5,609.5C 476.167,609.5 476.833,609.5 477.5,609.5C 478.623,610.757 479.289,610.424 479.5,608.5C 479.833,608.5 480.167,608.5 480.5,608.5C 487.341,607.252 493.008,604.252 497.5,599.5C 497.833,599.5 498.167,599.5 498.5,599.5C 499.947,600.885 500.947,600.552 501.5,598.5C 503.179,598.715 504.179,598.048 504.5,596.5C 504.833,596.5 505.167,596.5 505.5,596.5C 505.735,597.097 506.235,597.43 507,597.5C 510.737,596.753 513.237,594.753 514.5,591.5C 515.167,591.5 515.833,591.5 516.5,591.5C 517.947,592.885 518.947,592.552 519.5,590.5C 521.081,591.579 522.747,591.579 524.5,590.5C 526.786,589.421 528.786,588.087 530.5,586.5C 532.677,585.721 534.344,584.387 535.5,582.5C 536.391,581.89 537.391,581.557 538.5,581.5C 539.935,582.096 541.602,582.096 543.5,581.5C 543.5,580.5 543.5,579.5 543.5,578.5C 543.833,578.5 544.167,578.5 544.5,578.5C 545.612,579.372 546.946,579.372 548.5,578.5C 550.13,577.579 551.797,576.745 553.5,576C 554.252,575.329 554.586,574.496 554.5,573.5C 555.833,573.167 557.167,572.833 558.5,572.5C 560.179,572.715 561.179,572.048 561.5,570.5C 561.833,570.5 562.167,570.5 562.5,570.5C 563.566,571.692 564.399,571.359 565,569.5C 565.414,569.957 565.914,570.291 566.5,570.5C 568.22,569.066 570.22,568.233 572.5,568C 574.063,567.241 575.063,566.074 575.5,564.5C 576.167,564.167 576.833,563.833 577.5,563.5C 580.373,564.89 582.039,563.89 582.5,560.5C 582.833,560.5 583.167,560.5 583.5,560.5C 583.369,561.376 583.702,562.043 584.5,562.5C 586.711,561.34 588.711,560.007 590.5,558.5C 591.613,557.054 591.78,555.387 591,553.5C 586.486,538.909 581.819,524.242 577,509.5C 576.583,508.244 575.75,507.577 574.5,507.5C 575.615,504.184 575.448,500.851 574,497.5C 568.882,481.813 563.548,466.146 558,450.5C 557.058,445.027 555.891,439.694 554.5,434.5C 553.5,434.5 552.5,434.5 551.5,434.5C 551.5,434.167 551.5,433.833 551.5,433.5C 552.139,432.903 552.472,432.07 552.5,431C 550.313,423.239 548.313,415.405 546.5,407.5C 545.5,407.5 544.5,407.5 543.5,407.5C 543.5,407.167 543.5,406.833 543.5,406.5C 544.124,406.083 544.457,405.416 544.5,404.5C 542.486,397.442 540.319,390.442 538,383.5C 537.329,382.748 536.496,382.414 535.5,382.5C 535.5,382.167 535.5,381.833 535.5,381.5C 536.613,380.054 536.78,378.387 536,376.5C 525.905,346.647 516.572,316.647 508,286.5C 507.578,284.574 506.411,283.574 504.5,283.5C 503.167,283.167 503.167,282.833 504.5,282.5C 505.124,282.083 505.457,281.416 505.5,280.5C 504.892,277.855 504.392,275.188 504,272.5C 495.949,247.512 487.782,222.512 479.5,197.5 Z"/></g>
<g><path style="opacity:0.137" fill="#8d8d8d" d="M 706.5,192.5 C 707.124,192.917 707.457,193.584 707.5,194.5C 705.655,200.562 703.821,206.562 702,212.5C 701.329,213.252 700.496,213.586 699.5,213.5C 701.458,206.379 703.791,199.379 706.5,192.5 Z"/></g>
<g><path style="opacity:0.043" fill="#8c8c8c" d="M 492.5,199.5 C 494.584,202.801 495.918,206.468 496.5,210.5C 495.504,210.586 494.671,210.252 494,209.5C 492.957,206.243 492.457,202.91 492.5,199.5 Z"/></g>
<g><path style="opacity:0.137" fill="#909090" d="M 727.5,171.5 C 719.151,197.584 710.818,223.584 702.5,249.5C 702.5,247.5 702.5,245.5 702.5,243.5C 710.441,219.751 717.774,195.751 724.5,171.5C 725.5,171.5 726.5,171.5 727.5,171.5 Z"/></g>
<g><path style="opacity:0.255" fill="#8c8c8c" d="M 699.5,214.5 C 700.124,214.917 700.457,215.584 700.5,216.5C 695.866,233.464 690.199,249.797 683.5,265.5C 687.837,248.172 693.171,231.172 699.5,214.5 Z"/></g>
<g><path style="opacity:0.255" fill="#8c8c8c" d="M 496.5,211.5 C 501.467,226.427 506.133,241.427 510.5,256.5C 509.833,256.5 509.167,256.5 508.5,256.5C 503.928,242.039 499.595,227.539 495.5,213C 495.57,212.235 495.903,211.735 496.5,211.5 Z"/></g>
<g><path style="opacity:0.271" fill="#858585" d="M 458.5,129.5 C 465.784,151.939 472.784,174.606 479.5,197.5C 487.782,222.512 495.949,247.512 504,272.5C 504.392,275.188 504.892,277.855 505.5,280.5C 505.457,281.416 505.124,282.083 504.5,282.5C 489.46,234.97 474.46,186.304 459.5,136.5C 459.326,134.139 458.993,131.806 458.5,129.5 Z"/></g>
<g><path style="opacity:0.502" fill="#626262" d="M 702.5,243.5 C 702.5,245.5 702.5,247.5 702.5,249.5C 701.833,249.833 701.167,250.167 700.5,250.5C 700.927,247.99 701.593,245.657 702.5,243.5 Z"/></g>
<g><path style="opacity:0.043" fill="#999999" d="M 702.5,249.5 C 700.909,254.958 699.242,260.292 697.5,265.5C 697.5,263.5 697.5,261.5 697.5,259.5C 698.921,256.706 699.921,253.706 700.5,250.5C 701.167,250.167 701.833,249.833 702.5,249.5 Z"/></g>
<g><path style="opacity:0.706" fill="#575757" d="M 508.5,256.5 C 509.167,256.5 509.833,256.5 510.5,256.5C 510.5,257.167 510.5,257.833 510.5,258.5C 510.629,260.216 510.962,261.883 511.5,263.5C 509.887,261.539 508.887,259.206 508.5,256.5 Z"/></g>
<g><path style="opacity:0.043" fill="#959595" d="M 510.5,258.5 C 513.539,263.647 515.206,269.313 515.5,275.5C 514.045,271.583 512.712,267.583 511.5,263.5C 510.962,261.883 510.629,260.216 510.5,258.5 Z"/></g>
<g><path style="opacity:0.379" fill="#898989" d="M 683.5,266.5 C 684.124,266.917 684.457,267.584 684.5,268.5C 681.654,277.518 678.821,286.518 676,295.5C 675.329,296.252 674.496,296.586 673.5,296.5C 676.83,286.521 680.163,276.521 683.5,266.5 Z"/></g>
<g><path style="opacity:0.043" fill="#8c8c8c" d="M 515.5,275.5 C 516.117,275.611 516.617,275.944 517,276.5C 520.352,287.582 523.852,298.582 527.5,309.5C 526.504,309.586 525.671,309.252 525,308.5C 521.375,297.671 518.208,286.671 515.5,275.5 Z"/></g>
<g><path style="opacity:0.137" fill="#878787" d="M 697.5,259.5 C 697.5,261.5 697.5,263.5 697.5,265.5C 694.963,275.316 691.963,284.983 688.5,294.5C 687.876,294.083 687.543,293.416 687.5,292.5C 689.024,287.074 690.858,281.741 693,276.5C 694.239,270.64 695.739,264.973 697.5,259.5 Z"/></g>
<g><path style="opacity:0.357" fill="#8e8e8e" d="M 673.5,297.5 C 674.41,302.14 673.41,306.473 670.5,310.5C 670.821,305.574 671.821,301.241 673.5,297.5 Z"/></g>
<g><path style="opacity:0.255" fill="#999999" d="M 527.5,310.5 C 529.314,315.411 530.981,320.411 532.5,325.5C 531.624,325.631 530.957,325.298 530.5,324.5C 528.711,320.689 527.378,316.689 526.5,312.5C 526.543,311.584 526.876,310.917 527.5,310.5 Z"/></g>
<g><path style="opacity:0.043" fill="#8a8a8a" d="M 504.5,283.5 C 506.411,283.574 507.578,284.574 508,286.5C 516.572,316.647 525.905,346.647 536,376.5C 536.78,378.387 536.613,380.054 535.5,381.5C 524.918,348.48 514.585,315.814 504.5,283.5 Z"/></g>
<g><path style="opacity:0.043" fill="#929292" d="M 670.5,310.5 C 667.548,319.64 665.215,328.974 663.5,338.5C 662.5,338.5 661.5,338.5 660.5,338.5C 663.321,330.129 665.987,321.629 668.5,313C 668.684,311.624 669.351,310.791 670.5,310.5 Z"/></g>
<g><path style="opacity:0.39" fill="#868686" d="M 688.5,296.5 C 664.935,370.664 641.601,444.997 618.5,519.5C 617.434,517.171 617.434,514.671 618.5,512C 640.932,441.048 663.099,370.215 685,299.5C 685.667,298.167 686.333,296.833 687,295.5C 687.383,296.056 687.883,296.389 688.5,296.5 Z"/></g>
<g><path style="opacity:0.255" fill="#989898" d="M 660.5,339.5 C 661.124,339.917 661.457,340.584 661.5,341.5C 659.163,349.168 656.663,356.835 654,364.5C 653.617,363.944 653.117,363.611 652.5,363.5C 655.616,355.692 658.283,347.692 660.5,339.5 Z"/></g>
<g><path style="opacity:0.255" fill="#989898" d="M 652.5,365.5 C 653.097,365.735 653.43,366.235 653.5,367C 652.173,372.854 650.173,378.354 647.5,383.5C 648.541,377.339 650.207,371.339 652.5,365.5 Z"/></g>
<g><path style="opacity:0.137" fill="#939393" d="M 532.5,326.5 C 540.442,350.325 547.775,374.325 554.5,398.5C 552.905,396.889 551.739,394.889 551,392.5C 544.342,371.293 537.842,349.959 531.5,328.5C 531.543,327.584 531.876,326.917 532.5,326.5 Z"/></g>
<g><path style="opacity:0.357" fill="#858585" d="M 535.5,382.5 C 536.496,382.414 537.329,382.748 538,383.5C 540.319,390.442 542.486,397.442 544.5,404.5C 544.457,405.416 544.124,406.083 543.5,406.5C 540.423,398.712 537.757,390.712 535.5,382.5 Z"/></g>
<g><path style="opacity:0.39" fill="#8f8f8f" d="M 647.5,383.5 C 646.083,393.414 643.083,402.748 638.5,411.5C 640.6,401.73 643.6,392.396 647.5,383.5 Z"/></g>
<g><path style="opacity:0.043" fill="#929292" d="M 638.5,411.5 C 637.317,417.874 635.817,424.208 634,430.5C 632.868,432.339 632.035,434.339 631.5,436.5C 631.043,437.298 630.376,437.631 629.5,437.5C 632.755,428.835 635.755,420.168 638.5,411.5 Z"/></g>
<g><path style="opacity:0.255" fill="#8e8e8e" d="M 554.5,398.5 C 562.838,424.506 571.171,450.506 579.5,476.5C 578.25,476.423 577.417,475.756 577,474.5C 569.826,452.642 562.826,430.642 556,408.5C 555.39,405.173 554.89,401.839 554.5,398.5 Z"/></g>
<g><path style="opacity:0.424" fill="#7d7d7d" d="M 543.5,407.5 C 544.5,407.5 545.5,407.5 546.5,407.5C 548.313,415.405 550.313,423.239 552.5,431C 552.472,432.07 552.139,432.903 551.5,433.5C 549.303,424.656 546.636,415.99 543.5,407.5 Z"/></g>
<g><path style="opacity:0.043" fill="#969696" d="M 629.5,438.5 C 630.124,438.917 630.457,439.584 630.5,440.5C 628.367,447.195 626.367,453.862 624.5,460.5C 623.9,461.9 622.9,462.9 621.5,463.5C 624.471,455.234 627.138,446.901 629.5,438.5 Z"/></g>
<g><path style="opacity:0.851" fill="#4c4c4c" d="M 624.5,460.5 C 624.88,462.698 624.213,464.365 622.5,465.5C 622.167,465.5 621.833,465.5 621.5,465.5C 621.5,464.833 621.5,464.167 621.5,463.5C 622.9,462.9 623.9,461.9 624.5,460.5 Z"/></g>
<g><path style="opacity:0.137" fill="#8b8b8b" d="M 551.5,434.5 C 552.5,434.5 553.5,434.5 554.5,434.5C 555.891,439.694 557.058,445.027 558,450.5C 563.548,466.146 568.882,481.813 574,497.5C 575.448,500.851 575.615,504.184 574.5,507.5C 566.945,482.793 559.278,458.46 551.5,434.5 Z"/></g>
<g><path style="opacity:0.043" fill="#909090" d="M 621.5,465.5 C 621.833,465.5 622.167,465.5 622.5,465.5C 617.019,483.941 611.352,502.274 605.5,520.5C 604.833,520.5 604.167,520.5 603.5,520.5C 609.481,502.176 615.481,483.843 621.5,465.5 Z"/></g>
<g><path style="opacity:0.255" fill="#949494" d="M 579.5,477.5 C 582.167,485.833 584.833,494.167 587.5,502.5C 586.504,502.586 585.671,502.252 585,501.5C 583.139,494.082 580.972,486.749 578.5,479.5C 578.543,478.584 578.876,477.917 579.5,477.5 Z"/></g>
<g><path style="opacity:0.784" fill="#454545" d="M 603.5,521.5 C 603.5,521.167 603.5,520.833 603.5,520.5C 604.167,520.5 604.833,520.5 605.5,520.5C 605.662,522.527 605.495,524.527 605,526.5C 604.617,527.056 604.117,527.389 603.5,527.5C 604.573,525.347 604.573,523.347 603.5,521.5 Z"/></g>
<g><path style="opacity:0.043" fill="#919191" d="M 587.5,503.5 C 591.298,514.681 594.798,526.014 598,537.5C 600.145,532.245 601.978,526.912 603.5,521.5C 604.573,523.347 604.573,525.347 603.5,527.5C 602.412,531.315 601.079,534.982 599.5,538.5C 599.631,539.376 599.298,540.043 598.5,540.5C 597.667,539.5 596.833,538.5 596,537.5C 593.064,526.587 589.897,515.754 586.5,505C 586.57,504.235 586.903,503.735 587.5,503.5 Z"/></g>
<g><path style="opacity:0.043" fill="#8a8a8a" d="M 618.5,520.5 C 614.45,532.773 610.783,545.107 607.5,557.5C 606.167,557.5 605.5,556.833 605.5,555.5C 608.978,543.928 612.311,532.262 615.5,520.5C 616.5,520.5 617.5,520.5 618.5,520.5 Z"/></g>
<g><path style="opacity:0.271" fill="#898989" d="M 574.5,507.5 C 575.75,507.577 576.583,508.244 577,509.5C 581.819,524.242 586.486,538.909 591,553.5C 591.78,555.387 591.613,557.054 590.5,558.5C 585.138,541.197 579.805,524.197 574.5,507.5 Z"/></g>
<g><path style="opacity:0.732" fill="#494949" d="M 605.5,555.5 C 605.5,556.833 606.167,557.5 607.5,557.5C 607.81,558.738 608.31,558.738 609,557.5C 609.464,558.094 609.631,558.761 609.5,559.5C 606.765,560.821 605.098,559.821 604.5,556.5C 604.5,555.833 604.833,555.5 605.5,555.5 Z"/></g>
<g><path style="opacity:0.357" fill="#808080" d="M 590.5,558.5 C 588.711,560.007 586.711,561.34 584.5,562.5C 583.702,562.043 583.369,561.376 583.5,560.5C 585.583,559.971 587.417,558.971 589,557.5C 589.383,558.056 589.883,558.389 590.5,558.5 Z"/></g>
<g><path style="opacity:0.043" fill="#8a8a8a" d="M 611.5,559.5 C 615.662,561.322 619.662,563.322 623.5,565.5C 623.44,566.043 623.107,566.376 622.5,566.5C 618.577,564.577 614.577,562.744 610.5,561C 611.056,560.617 611.389,560.117 611.5,559.5 Z"/></g>
<g><path style="opacity:0.706" fill="#696969" d="M 582.5,560.5 C 582.039,563.89 580.373,564.89 577.5,563.5C 579.22,562.692 580.887,561.692 582.5,560.5 Z"/></g>
<g><path style="opacity:0.043" fill="#8c8c8c" d="M 624.5,565.5 C 625.71,565.932 626.71,566.599 627.5,567.5C 625.668,568.718 624.668,568.051 624.5,565.5 Z"/></g>
<g><path style="opacity:0.043" fill="#7f7f7f" d="M 575.5,564.5 C 575.063,566.074 574.063,567.241 572.5,568C 570.22,568.233 568.22,569.066 566.5,570.5C 565.914,570.291 565.414,569.957 565,569.5C 564.399,571.359 563.566,571.692 562.5,570.5C 566.744,568.519 571.077,566.519 575.5,564.5 Z"/></g>
<g><path style="opacity:0.043" fill="#8f8f8f" d="M 603.5,570.5 C 602.508,570.672 601.842,570.338 601.5,569.5C 602.623,568.243 603.289,568.576 603.5,570.5 Z"/></g>
<g><path style="opacity:0.443" fill="#565656" d="M 628.5,567.5 C 630.153,567.66 631.486,568.326 632.5,569.5C 631.292,570.234 629.959,570.567 628.5,570.5C 628.5,569.5 628.5,568.5 628.5,567.5 Z"/></g>
<g><path style="opacity:0.043" fill="#828282" d="M 599.5,568.5 C 596.299,569.453 593.299,570.786 590.5,572.5C 590.5,571.5 590.5,570.5 590.5,569.5C 593.126,568.578 595.793,567.578 598.5,566.5C 600.145,567.036 600.478,567.703 599.5,568.5 Z"/></g>
<g><path style="opacity:0.255" fill="#909090" d="M 606.5,572.5 C 605.5,572.167 604.833,571.5 604.5,570.5C 604.56,569.957 604.893,569.624 605.5,569.5C 606.386,570.325 606.719,571.325 606.5,572.5 Z"/></g>
<g><path style="opacity:0.137" fill="#919191" d="M 632.5,569.5 C 636.891,571.513 641.225,573.513 645.5,575.5C 645.44,576.043 645.107,576.376 644.5,576.5C 640.952,574.647 637.285,572.981 633.5,571.5C 632.702,571.043 632.369,570.376 632.5,569.5 Z"/></g>
<g><path style="opacity:0.137" fill="#9d9d9d" d="M 561.5,570.5 C 561.179,572.048 560.179,572.715 558.5,572.5C 558.973,571.094 559.973,570.427 561.5,570.5 Z"/></g>
<g><path style="opacity:0.706" fill="#636363" d="M 584.5,574.5 C 583.992,576.233 583.159,576.566 582,575.5C 581.184,576.823 580.017,577.489 578.5,577.5C 578.158,576.662 577.492,576.328 576.5,576.5C 578.957,575.553 581.291,574.219 583.5,572.5C 584.298,572.957 584.631,573.624 584.5,574.5 Z"/></g>
<g><path style="opacity:0.271" fill="#7d7d7d" d="M 607.5,572.5 C 607.735,571.903 608.235,571.57 609,571.5C 611.705,572.939 614.538,573.939 617.5,574.5C 617.5,575.5 617.5,576.5 617.5,577.5C 614.147,575.799 610.814,574.132 607.5,572.5 Z"/></g>
<g><path style="opacity:0.255" fill="#919191" d="M 554.5,573.5 C 554.586,574.496 554.252,575.329 553.5,576C 551.797,576.745 550.13,577.579 548.5,578.5C 546.946,579.372 545.612,579.372 544.5,578.5C 547.814,576.868 551.147,575.201 554.5,573.5 Z"/></g>
<g><path style="opacity:0.271" fill="#7f7f7f" d="M 621.5,578.5 C 620.209,578.737 619.209,578.404 618.5,577.5C 620.196,575.871 621.196,576.204 621.5,578.5 Z"/></g>
<g><path style="opacity:0.612" fill="#6d6d6d" d="M 646.5,575.5 C 647.5,575.833 648.167,576.5 648.5,577.5C 648.44,578.043 648.107,578.376 647.5,578.5C 646.614,577.675 646.281,576.675 646.5,575.5 Z"/></g>
<g><path style="opacity:0.043" fill="#909090" d="M 650.5,577.5 C 652.711,578.123 654.711,579.123 656.5,580.5C 656.265,581.097 655.765,581.43 655,581.5C 653.37,580.287 651.536,579.454 649.5,579C 650.056,578.617 650.389,578.117 650.5,577.5 Z"/></g>
<g><path style="opacity:0.043" fill="#8e8e8e" d="M 576.5,576.5 C 577.492,576.328 578.158,576.662 578.5,577.5C 575.921,577.852 574.087,579.186 573,581.5C 572.667,581.167 572.333,580.833 572,580.5C 570.887,581.305 569.721,581.972 568.5,582.5C 568.5,581.5 568.5,580.5 568.5,579.5C 571.535,579.461 574.202,578.461 576.5,576.5 Z"/></g>
<g><path style="opacity:0.043" fill="#979797" d="M 622.5,578.5 C 623.833,578.5 624.5,579.167 624.5,580.5C 624.5,579.167 623.833,578.5 622.5,578.5 Z"/></g>
<g><path style="opacity:0.043" fill="#838383" d="M 633.5,583.5 C 630.146,583.253 627.146,582.253 624.5,580.5C 627.86,579.993 630.86,580.993 633.5,583.5 Z"/></g>
<g><path style="opacity:0.612" fill="#6e6e6e" d="M 543.5,578.5 C 543.5,579.5 543.5,580.5 543.5,581.5C 541.602,582.096 539.935,582.096 538.5,581.5C 540.22,580.692 541.887,579.692 543.5,578.5 Z"/></g>
<g><path style="opacity:0.251" fill="#616161" d="M 567.5,582.5 C 565.696,583.716 564.029,584.716 562.5,585.5C 561.438,584.425 561.438,583.425 562.5,582.5C 564.316,581.265 565.983,581.265 567.5,582.5 Z"/></g>
<g><path style="opacity:0.502" fill="#7f7f7f" d="M 657.5,580.5 C 661.697,582.329 665.697,584.329 669.5,586.5C 669.44,587.043 669.107,587.376 668.5,587.5C 665.138,585.379 661.471,584.045 657.5,583.5C 657.5,582.5 657.5,581.5 657.5,580.5 Z"/></g>
<g><path style="opacity:0.424" fill="#8a8a8a" d="M 535.5,582.5 C 534.344,584.387 532.677,585.721 530.5,586.5C 529.833,586.5 529.5,586.167 529.5,585.5C 531.289,584.123 533.289,583.123 535.5,582.5 Z"/></g>
<g><path style="opacity:0.502" fill="#818181" d="M 560.5,585.5 C 556.325,587.753 551.991,589.753 547.5,591.5C 549.873,588.835 552.873,586.835 556.5,585.5C 558.054,584.628 559.388,584.628 560.5,585.5 Z"/></g>
<g><path style="opacity:0.255" fill="#999999" d="M 528.5,585.5 C 527.534,587.057 526.2,588.39 524.5,589.5C 523.893,589.376 523.56,589.043 523.5,588.5C 524.768,586.953 526.435,585.953 528.5,585.5 Z"/></g>
<g><path style="opacity:0.043" fill="#979797" d="M 633.5,583.5 C 636.366,583.633 638.366,584.966 639.5,587.5C 638.366,584.966 636.366,583.633 633.5,583.5 Z"/></g>
<g><path style="opacity:0.98" fill="#3f3f3f" d="M 528.5,585.5 C 528.833,585.5 529.167,585.5 529.5,585.5C 529.5,586.167 529.833,586.5 530.5,586.5C 528.786,588.087 526.786,589.421 524.5,590.5C 522.747,591.579 521.081,591.579 519.5,590.5C 520.287,588.896 521.62,588.229 523.5,588.5C 523.56,589.043 523.893,589.376 524.5,589.5C 526.2,588.39 527.534,587.057 528.5,585.5 Z"/></g>
<g><path style="opacity:0.706" fill="#737373" d="M 545.5,592.5 C 543.971,593.284 542.304,594.284 540.5,595.5C 540.5,594.5 540.5,593.5 540.5,592.5C 542.143,592.52 543.476,591.853 544.5,590.5C 545.298,590.957 545.631,591.624 545.5,592.5 Z"/></g>
<g><path style="opacity:0.502" fill="#777777" d="M 519.5,590.5 C 518.947,592.552 517.947,592.885 516.5,591.5C 517.209,590.596 518.209,590.263 519.5,590.5 Z"/></g>
<g><path style="opacity:0.255" fill="#8d8d8d" d="M 656.5,595.5 C 651.089,592.83 645.755,590.163 640.5,587.5C 640.56,586.957 640.893,586.624 641.5,586.5C 646.376,588.901 651.376,590.901 656.5,592.5C 656.5,593.5 656.5,594.5 656.5,595.5 Z"/></g>
<g><path style="opacity:0.502" fill="#6f6f6f" d="M 671.5,587.5 C 675.891,589.513 680.225,591.513 684.5,593.5C 684.265,594.097 683.765,594.43 683,594.5C 679.51,593.018 676.01,591.518 672.5,590C 671.748,589.329 671.414,588.496 671.5,587.5 Z"/></g>
<g><path style="opacity:0.424" fill="#848484" d="M 514.5,591.5 C 513.237,594.753 510.737,596.753 507,597.5C 506.235,597.43 505.735,597.097 505.5,596.5C 508.549,595.028 511.549,593.362 514.5,591.5 Z"/></g>
<g><path style="opacity:0.043" fill="#989898" d="M 685.5,593.5 C 687.027,593.427 688.027,594.094 688.5,595.5C 686.821,595.715 685.821,595.048 685.5,593.5 Z"/></g>
<g><path style="opacity:0.271" fill="#797979" d="M 660.5,596.5 C 659.508,596.672 658.842,596.338 658.5,595.5C 659.623,594.243 660.289,594.576 660.5,596.5 Z"/></g>
<g><path style="opacity:0.357" fill="#8c8c8c" d="M 539.5,595.5 C 536.186,597.132 532.853,598.799 529.5,600.5C 531.283,597.246 534.116,595.246 538,594.5C 538.765,594.57 539.265,594.903 539.5,595.5 Z"/></g>
<g><path style="opacity:0.357" fill="#949494" d="M 504.5,596.5 C 504.179,598.048 503.179,598.715 501.5,598.5C 502.29,597.599 503.29,596.932 504.5,596.5 Z"/></g>
<g><path style="opacity:0.043" fill="#969696" d="M 661.5,596.5 C 662.833,596.5 663.5,597.167 663.5,598.5C 663.5,597.167 662.833,596.5 661.5,596.5 Z"/></g>
<g><path style="opacity:0.424" fill="#878787" d="M 667.5,600.5 C 666.29,600.068 665.29,599.401 664.5,598.5C 665.209,597.596 666.209,597.263 667.5,597.5C 667.5,598.5 667.5,599.5 667.5,600.5 Z"/></g>
<g><path style="opacity:0.612" fill="#757575" d="M 689.5,595.5 C 695.17,597.605 700.503,600.272 705.5,603.5C 705.44,604.043 705.107,604.376 704.5,604.5C 700.074,601.954 695.408,599.954 690.5,598.5C 689.89,597.609 689.557,596.609 689.5,595.5 Z"/></g>
<g><path style="opacity:0.357" fill="#868686" d="M 501.5,598.5 C 500.947,600.552 499.947,600.885 498.5,599.5C 499.391,598.89 500.391,598.557 501.5,598.5 Z"/></g>
<g><path style="opacity:0.043" fill="#888888" d="M 524.5,601.5 C 524.167,602.5 523.5,603.167 522.5,603.5C 522.281,602.325 522.614,601.325 523.5,600.5C 524.107,600.624 524.44,600.957 524.5,601.5 Z"/></g>
<g><path style="opacity:0.255" fill="#8e8e8e" d="M 668.5,600.5 C 669.823,599.392 671.323,599.392 673,600.5C 674.975,601.465 676.475,602.799 677.5,604.5C 674.497,603.161 671.497,601.828 668.5,600.5 Z"/></g>
<g><path style="opacity:0.271" fill="#7f7f7f" d="M 497.5,599.5 C 493.008,604.252 487.341,607.252 480.5,608.5C 486.002,605.322 491.669,602.322 497.5,599.5 Z"/></g>
<g><path style="opacity:0.357" fill="#868686" d="M 521.5,603.5 C 517.355,605.736 513.022,607.736 508.5,609.5C 512.168,605.49 516.502,603.49 521.5,603.5 Z"/></g>
<g><path style="opacity:0.043" fill="#898989" d="M 677.5,604.5 C 679.38,604.229 680.713,604.896 681.5,606.5C 679.847,606.34 678.514,605.674 677.5,604.5 Z"/></g>
<g><path style="opacity:0.271" fill="#828282" d="M 710.5,604.5 C 714.932,607.383 719.599,609.716 724.5,611.5C 723.85,611.804 723.183,612.137 722.5,612.5C 719.798,610.653 716.798,609.487 713.5,609C 711.561,608.092 710.561,606.592 710.5,604.5 Z"/></g>
<g><path style="opacity:0.502" fill="#828282" d="M 479.5,608.5 C 479.289,610.424 478.623,610.757 477.5,609.5C 477.842,608.662 478.508,608.328 479.5,608.5 Z"/></g>
<g><path style="opacity:0.255" fill="#949494" d="M 507.5,609.5 C 507.167,610.5 506.5,611.167 505.5,611.5C 504.34,609.797 505.007,609.131 507.5,609.5 Z"/></g>
<g><path style="opacity:0.255" fill="#949494" d="M 689.5,608.5 C 691.048,608.821 691.715,609.821 691.5,611.5C 688.128,609.826 684.795,608.159 681.5,606.5C 682.15,606.196 682.817,605.863 683.5,605.5C 685.243,607.038 687.243,608.038 689.5,608.5 Z"/></g>
<g><path style="opacity:0.271" fill="#7e7e7e" d="M 692.5,611.5 C 693.947,610.115 694.947,610.448 695.5,612.5C 694.391,612.443 693.391,612.11 692.5,611.5 Z"/></g>
<g><path style="opacity:0.043" fill="#9b9b9b" d="M 724.5,611.5 C 725.492,611.328 726.158,611.662 726.5,612.5C 725.377,613.757 724.711,613.424 724.5,611.5 Z"/></g>
<g><path style="opacity:0.255" fill="#979797" d="M 475.5,609.5 C 475.611,610.117 475.944,610.617 476.5,611C 474.685,611.757 473.019,612.59 471.5,613.5C 470.359,614.339 469.026,615.006 467.5,615.5C 466.893,615.376 466.56,615.043 466.5,614.5C 469.333,612.655 472.333,610.989 475.5,609.5 Z"/></g>
<g><path style="opacity:0.043" fill="#9a9a9a" d="M 504.5,611.5 C 502.75,612.87 500.75,613.87 498.5,614.5C 499.466,612.943 500.8,611.61 502.5,610.5C 503.183,610.863 503.85,611.196 504.5,611.5 Z"/></g>
<g><path style="opacity:0.271" fill="#797979" d="M 699.5,614.5 C 698.508,614.672 697.842,614.338 697.5,613.5C 698.623,612.243 699.289,612.576 699.5,614.5 Z"/></g>
<g><path style="opacity:0.043" fill="#8a8a8a" d="M 702.5,616.5 C 701.167,616.5 700.5,615.833 700.5,614.5C 700.56,613.957 700.893,613.624 701.5,613.5C 702.386,614.325 702.719,615.325 702.5,616.5 Z"/></g>
<g><path style="opacity:0.043" fill="#8c8c8c" d="M 497.5,614.5 C 495.453,616.075 493.119,617.075 490.5,617.5C 491.348,615.907 492.681,614.74 494.5,614C 495.749,613.26 496.749,613.427 497.5,614.5 Z"/></g>
<g><path style="opacity:0.357" fill="#8b8b8b" d="M 465.5,614.5 C 465.586,615.496 465.252,616.329 464.5,617C 463.128,617.402 461.795,617.902 460.5,618.5C 459.893,618.376 459.56,618.043 459.5,617.5C 461.517,616.471 463.517,615.471 465.5,614.5 Z"/></g>
<g><path style="opacity:0.271" fill="#7e7e7e" d="M 703.5,616.5 C 705.309,615.709 707.309,615.709 709.5,616.5C 709.5,617.5 709.5,618.5 709.5,619.5C 707.216,619.025 705.216,618.025 703.5,616.5 Z"/></g>
<g><path style="opacity:0.357" fill="#838383" d="M 728.5,613.5 C 732.876,615.509 737.21,617.509 741.5,619.5C 741.44,620.043 741.107,620.376 740.5,620.5C 735.748,619.135 731.748,616.802 728.5,613.5 Z"/></g>
<g><path style="opacity:0.094" fill="#595959" d="M 490.5,617.5 C 489.71,618.401 488.71,619.068 487.5,619.5C 486.506,616.601 487.506,615.934 490.5,617.5 Z"/></g>
<g><path style="opacity:0.043" fill="#969696" d="M 742.5,619.5 C 743.833,619.5 744.5,620.167 744.5,621.5C 743.167,621.5 742.5,620.833 742.5,619.5 Z"/></g>
<g><path style="opacity:0.357" fill="#808080" d="M 458.5,617.5 C 457.525,619.193 456.192,620.693 454.5,622C 453.563,622.692 452.897,622.525 452.5,621.5C 454.001,619.634 456.001,618.301 458.5,617.5 Z"/></g>
<g><path style="opacity:0.137" fill="#8b8b8b" d="M 485.5,619.5 C 480.627,622.436 475.627,625.103 470.5,627.5C 469.142,628.626 467.808,628.626 466.5,627.5C 471.855,624.822 477.189,622.156 482.5,619.5C 483.652,618.375 484.652,618.375 485.5,619.5 Z"/></g>
<g><path style="opacity:0.043" fill="#8f8f8f" d="M 710.5,619.5 C 710.56,618.957 710.893,618.624 711.5,618.5C 713.858,619.154 715.525,620.487 716.5,622.5C 714.216,622.025 712.216,621.025 710.5,619.5 Z"/></g>
<g><path style="opacity:0.424" fill="#858585" d="M 444.5,621.5 C 445.167,621.5 445.833,621.5 446.5,621.5C 446.328,622.492 446.662,623.158 447.5,623.5C 447.5,623.833 447.5,624.167 447.5,624.5C 446.791,625.404 445.791,625.737 444.5,625.5C 444.5,624.167 444.5,622.833 444.5,621.5 Z"/></g>
<g><path style="opacity:0.357" fill="#7f7f7f" d="M 745.5,621.5 C 746.492,621.328 747.158,621.662 747.5,622.5C 746.377,623.757 745.711,623.424 745.5,621.5 Z"/></g>
<g><path style="opacity:0.784" fill="#505050" d="M 451.5,621.5 C 451.306,623.912 449.973,624.912 447.5,624.5C 447.5,624.167 447.5,623.833 447.5,623.5C 448.514,622.326 449.847,621.66 451.5,621.5 Z"/></g>
<g><path style="opacity:0.043" fill="#979797" d="M 717.5,622.5 C 719.179,622.285 720.179,622.952 720.5,624.5C 718.973,624.573 717.973,623.906 717.5,622.5 Z"/></g>
<g><path style="opacity:0.043" fill="#8a8a8a" d="M 726.5,627.5 C 724.371,626.797 722.371,625.797 720.5,624.5C 722.452,623.592 724.452,623.759 726.5,625C 727.774,625.977 727.774,626.811 726.5,627.5 Z"/></g>
<g><path style="opacity:0.424" fill="#909090" d="M 728.5,626.5 C 730.337,626.639 730.67,627.306 729.5,628.5C 728.702,628.043 728.369,627.376 728.5,626.5 Z"/></g>
<g><path style="opacity:0.043" fill="#8c8c8c" d="M 433.5,635.5 C 434.167,635.833 434.833,636.167 435.5,636.5C 435.5,637.167 435.833,637.5 436.5,637.5C 436.5,638.167 436.5,638.833 436.5,639.5C 435.128,638.488 433.795,637.488 432.5,636.5C 433.167,636.5 433.5,636.167 433.5,635.5 Z"/></g>
<g><path style="opacity:0.871" fill="#242424" d="M 760.5,636.5 C 760.833,636.5 761.167,636.5 761.5,636.5C 761.5,637.167 761.833,637.5 762.5,637.5C 762.5,638.167 762.167,638.5 761.5,638.5C 653.332,638.167 545.332,638.501 437.5,639.5C 437.167,639.5 436.833,639.5 436.5,639.5C 436.5,638.833 436.5,638.167 436.5,637.5C 544.668,637.833 652.668,637.499 760.5,636.5 Z"/></g>
<g><path style="opacity:0.561" fill="#515151" d="M 761.5,638.5 C 760.909,639.151 760.243,639.818 759.5,640.5C 653.169,641.5 546.835,641.833 440.5,641.5C 545.999,640.667 651.666,640.167 757.5,640C 651.167,639.333 544.833,639.333 438.5,640C 439.056,640.383 439.389,640.883 439.5,641.5C 438.167,641.5 437.5,640.833 437.5,639.5C 545.332,638.501 653.332,638.167 761.5,638.5 Z"/></g>
<g><path style="opacity:0.18" fill="#2b2b2b" d="M 440.5,641.5 C 440.167,641.5 439.833,641.5 439.5,641.5C 439.389,640.883 439.056,640.383 438.5,640C 544.833,639.333 651.167,639.333 757.5,640C 651.666,640.167 545.999,640.667 440.5,641.5 Z"/></g>
</svg>
