<?xml version="1.0" encoding="iso-8859-1"?>
<!-- Generator: Adobe Illustrator 25.2.0, SVG Export Plug-In . SVG Version: 6.00 Build 0)  -->
<svg version="1.1" id="Layer_1" xmlns="http://www.w3.org/2000/svg" xmlns:xlink="http://www.w3.org/1999/xlink" x="0px" y="0px"
	 viewBox="0 0 1000 1000" style="enable-background:new 0 0 1000 1000;" xml:space="preserve">
<g id="watermark_1_">
	<g>
		<g id="watermark" style="opacity:0.61;">
			<g>
				<g>
					<g>
						<g>
							<polygon style="fill:#606060;" points="421.112,924.528 409.007,952.493 402.615,952.493 390.55,924.528 397.541,924.528 
								406.051,944.503 414.68,924.528 							"/>
						</g>
						<g>
							<path style="fill:#606060;" d="M442.323,943.185h-16.26c0.599,2.677,2.876,4.315,6.153,4.315
								c2.277,0,3.915-0.679,5.393-2.077l3.316,3.595c-1.997,2.278-4.994,3.476-8.868,3.476c-7.431,0-12.265-4.674-12.265-11.067
								c0-6.432,4.914-11.066,11.466-11.066c6.312,0,11.186,4.235,11.186,11.146C442.443,941.987,442.363,942.666,442.323,943.185
								 M425.983,939.55h10.587c-0.44-2.717-2.478-4.475-5.274-4.475C428.46,935.075,426.422,936.793,425.983,939.55"/>
						</g>
						<g>
							<path style="fill:#606060;" d="M444.997,941.427c0-6.471,4.994-11.066,11.985-11.066c4.514,0,8.07,1.958,9.628,5.473
								l-4.834,2.597c-1.159-2.038-2.877-2.956-4.834-2.956c-3.156,0-5.633,2.198-5.633,5.952c0,3.756,2.477,5.953,5.633,5.953
								c1.958,0,3.675-0.879,4.834-2.956l4.834,2.637c-1.558,3.436-5.114,5.433-9.628,5.433
								C449.991,952.493,444.997,947.899,444.997,941.427"/>
						</g>
						<g>
							<path style="fill:#606060;" d="M484.386,951.135c-1.279,0.919-3.157,1.358-5.074,1.358c-5.073,0-8.03-2.597-8.03-7.711
								v-8.829h-3.316v-4.794h3.316v-5.233h6.232v5.233h5.353v4.794h-5.353v8.749c0,1.837,0.998,2.836,2.677,2.836
								c0.918,0,1.837-0.279,2.517-0.799L484.386,951.135z"/>
						</g>
					</g>
					<g>
						<path style="fill:#606060;" d="M527.157,930.68v5.753c-0.519-0.04-0.918-0.08-1.398-0.08c-3.435,0-5.713,1.877-5.713,5.993
							v10.147h-6.232V931h5.953v2.836C521.284,931.759,523.841,930.68,527.157,930.68"/>
					</g>
					<g>
						<path style="fill:#606060;" d="M528.954,949.257l2.197-4.874c2.357,1.718,5.873,2.916,9.229,2.916
							c3.836,0,5.393-1.278,5.393-2.996c0-5.233-16.26-1.638-16.26-12.025c0-4.754,3.835-8.709,11.785-8.709
							c3.516,0,7.112,0.839,9.708,2.477l-1.998,4.914c-2.597-1.478-5.273-2.197-7.75-2.197c-3.835,0-5.313,1.438-5.313,3.196
							c0,5.154,16.259,1.598,16.259,11.865c0,4.675-3.875,8.67-11.865,8.67C535.905,952.493,531.43,951.175,528.954,949.257"/>
					</g>
					<g>
						<path style="fill:#606060;" d="M577.131,943.185h-16.26c0.599,2.677,2.876,4.315,6.153,4.315c2.277,0,3.915-0.679,5.393-2.077
							l3.316,3.595c-1.998,2.278-4.994,3.476-8.869,3.476c-7.431,0-12.265-4.674-12.265-11.067c0-6.432,4.914-11.066,11.466-11.066
							c6.312,0,11.187,4.235,11.187,11.146C577.251,941.987,577.171,942.666,577.131,943.185 M560.791,939.55h10.587
							c-0.439-2.717-2.477-4.475-5.273-4.475C563.268,935.075,561.231,936.793,560.791,939.55"/>
					</g>
					<g>
						<path style="fill:#606060;" d="M602.337,943.185h-16.26c0.599,2.677,2.876,4.315,6.152,4.315c2.277,0,3.915-0.679,5.393-2.077
							l3.316,3.595c-1.998,2.278-4.994,3.476-8.869,3.476c-7.431,0-12.265-4.674-12.265-11.067c0-6.432,4.914-11.066,11.466-11.066
							c6.312,0,11.186,4.235,11.186,11.146C602.457,941.987,602.377,942.666,602.337,943.185 M585.997,939.55h10.587
							c-0.439-2.717-2.477-4.475-5.273-4.475C588.474,935.075,586.437,936.793,585.997,939.55"/>
					</g>
					<g>
						<polygon style="fill:#606060;" points="615.838,944.064 612.841,947.02 612.841,952.493 606.61,952.493 606.61,922.85 
							612.841,922.85 612.841,939.629 621.95,931 629.381,931 620.432,940.108 630.18,952.493 622.63,952.493 						"/>
					</g>
					<g>
						<path style="fill:#606060;" d="M514.371,955.416L514.371,955.416l-6.226-6.226c-0.947,1.107-2.075,2.054-3.339,2.796
							c-0.201,0.15-0.406,0.296-0.616,0.433l6.589,6.589c0.992,0.992,2.601,0.992,3.592,0
							C515.363,958.017,515.363,956.408,514.371,955.416"/>
					</g>
					<g>
						<path style="fill:#F84D10;" d="M499.965,929.04c0.48-0.377,1.077-0.612,1.735-0.612c0.091,0,0.181,0.005,0.27,0.013
							c-0.466-0.34-1.041-0.542-1.663-0.542c-0.859,0-1.619,0.392-2.137,0.998c-0.111,0-0.218,0.013-0.328,0.016
							c0.086-0.167,0.139-0.354,0.139-0.555c0-0.509-0.311-0.945-0.752-1.13c0.19,0.275,0.301,0.608,0.301,0.968
							c0,0.267-0.066,0.517-0.176,0.742c-6.119,0.437-10.95,5.527-10.95,11.757c0,6.516,5.283,11.799,11.799,11.799
							c6.517,0,11.8-5.283,11.8-11.799C510.004,934.777,505.644,929.892,499.965,929.04 M495.61,932.114
							c0.947,0,1.837,0.244,2.611,0.674c0.813-0.532,1.785-0.842,2.828-0.842c1.547,0,2.934,0.68,3.883,1.756
							c-0.948-0.826-2.186-1.328-3.541-1.328c-0.977,0-1.895,0.261-2.686,0.716c-0.172,0.1-0.34,0.208-0.499,0.326
							c-0.142-0.104-0.29-0.203-0.444-0.292c-0.803-0.476-1.741-0.749-2.743-0.749c-0.653,0-1.279,0.117-1.86,0.331
							C493.895,932.328,494.727,932.114,495.61,932.114 M503.858,941.785c0.25,0.664,0.394,1.38,0.394,2.131
							c0,3.34-2.707,6.047-6.047,6.047c-3.339,0-6.047-2.707-6.047-6.047c0-0.751,0.143-1.467,0.394-2.131
							c-1.35-0.831-2.253-2.317-2.253-4.019c0-2.607,2.114-4.72,4.72-4.72c1.23,0,2.346,0.474,3.186,1.244
							c0.84-0.77,1.956-1.244,3.186-1.244c2.607,0,4.72,2.113,4.72,4.72C506.111,939.467,505.208,940.954,503.858,941.785"/>
					</g>
					<g>
						<path style="fill:#444444;" d="M503.627,937.351c0,1.082-0.879,1.961-1.961,1.961c-1.082,0-1.961-0.879-1.961-1.961
							s0.879-1.961,1.961-1.961c0.22,0,0.428,0.037,0.625,0.102c-0.065,0.135-0.099,0.287-0.099,0.445
							c0,0.595,0.482,1.076,1.077,1.076c0.11,0,0.217-0.017,0.318-0.048C503.613,937.089,503.627,937.218,503.627,937.351"/>
					</g>
					<g>
						<path style="fill:#444444;" d="M496.201,937.351c0,0.818-0.665,1.482-1.483,1.482c-0.818,0-1.483-0.664-1.483-1.482
							s0.665-1.483,1.483-1.483c0.166,0,0.324,0.027,0.473,0.077c-0.049,0.102-0.075,0.217-0.075,0.337
							c0,0.449,0.364,0.814,0.814,0.814c0.083,0,0.164-0.013,0.241-0.036C496.191,937.153,496.201,937.251,496.201,937.351"/>
					</g>
					<g>
						<g>
							<g>
								<rect x="484.56" y="939.024" style="fill:#606060;" width="1.34" height="1.34"/>
							</g>
							<g>
								<rect x="510.51" y="939.024" style="fill:#606060;" width="1.34" height="1.34"/>
							</g>
							<g>
								<path style="fill:#606060;" d="M511.332,939.572h-0.304c0-7.07-5.752-12.823-12.823-12.823
									c-7.07,0-12.823,5.753-12.823,12.823h-0.305c0-3.506,1.365-6.803,3.845-9.282c2.479-2.48,5.776-3.845,9.282-3.845
									c3.507,0,6.803,1.365,9.283,3.845C509.966,932.769,511.332,936.065,511.332,939.572"/>
							</g>
						</g>
						<g>
							<rect x="497.534" y="925.927" style="fill:#606060;" width="1.34" height="1.34"/>
						</g>
						<g>
							<rect x="489.006" y="926.445" style="fill:#606060;" width="18.397" height="0.304"/>
						</g>
						<g>
							<path style="fill:#606060;" d="M489.494,926.658c0,0.235-0.191,0.427-0.427,0.427c-0.235,0-0.426-0.191-0.426-0.427
								s0.191-0.427,0.426-0.427C489.303,926.231,489.494,926.422,489.494,926.658"/>
						</g>
						<g>
							<path style="fill:#606060;" d="M507.829,926.658c0,0.235-0.191,0.427-0.427,0.427c-0.235,0-0.426-0.191-0.426-0.427
								s0.191-0.427,0.426-0.427C507.639,926.231,507.829,926.422,507.829,926.658"/>
						</g>
					</g>
				</g>
				<g>
					<path style="fill:#606060;" d="M640.109,951.171c0,3.395-5.146,3.395-5.146,0C634.963,947.779,640.109,947.779,640.109,951.171
						z"/>
				</g>
				<g>
					<g>
						<g>
							<path style="fill:#606060;" d="M307.849,936.236l3.859,13.253l4.038-13.253h4.823l-6.145,17.721h-5.073l-1.822-5.216
								l-1.572-5.896l-1.571,5.896l-1.822,5.216h-5.073l-6.18-17.721h4.858l4.038,13.253l3.822-13.253H307.849z"/>
						</g>
						<g>
							<path style="fill:#606060;" d="M340.449,936.236l3.859,13.253l4.038-13.253h4.823l-6.145,17.721h-5.073l-1.822-5.216
								l-1.571-5.896l-1.572,5.896l-1.822,5.216h-5.073l-6.18-17.721h4.858l4.038,13.253l3.822-13.253H340.449z"/>
						</g>
						<g>
							<path style="fill:#606060;" d="M373.048,936.236l3.859,13.253l4.038-13.253h4.823l-6.145,17.721h-5.073l-1.822-5.216
								l-1.572-5.896l-1.571,5.896l-1.822,5.216h-5.073l-6.18-17.721h4.858l4.038,13.253l3.822-13.253H373.048z"/>
						</g>
					</g>
					<g>
						<path style="fill:#606060;" d="M393.123,951.412c0,3.395-5.146,3.395-5.146,0C387.977,948.02,393.123,948.02,393.123,951.412z
							"/>
					</g>
					<g>
						<path style="fill:#606060;" d="M658.296,951.171c-2.036,2.001-4.177,2.787-6.787,2.787c-5.108,0-9.361-3.072-9.361-9.323
							c0-6.251,4.253-9.326,9.361-9.326c2.502,0,4.43,0.716,6.359,2.609l-2.752,2.894c-1.036-0.931-2.321-1.393-3.534-1.393
							c-2.929,0-5.073,2.144-5.073,5.216c0,3.357,2.286,5.143,5,5.143c1.393,0,2.787-0.393,3.857-1.463L658.296,951.171z"/>
					</g>
					<g>
						<path style="fill:#606060;" d="M678.097,944.777c0,5.073-3.465,9.181-9.181,9.181c-5.716,0-9.146-4.107-9.146-9.181
							c0-5.038,3.502-9.181,9.111-9.181S678.097,939.739,678.097,944.777z M664.128,944.777c0,2.679,1.609,5.181,4.788,5.181
							c3.179,0,4.788-2.502,4.788-5.181c0-2.644-1.859-5.216-4.788-5.216C665.772,939.561,664.128,942.133,664.128,944.777z"/>
					</g>
					<g>
						<path style="fill:#606060;" d="M692.828,953.958v-9.431c0-2.324-1.216-4.43-3.61-4.43c-2.356,0-3.75,2.106-3.75,4.43v9.431
							h-4.36v-17.649h4.038l0.323,2.144c0.928-1.786,2.964-2.429,4.643-2.429c2.109,0,4.218,0.858,5.216,3.287
							c1.574-2.502,3.61-3.217,5.896-3.217c5,0,7.467,3.075,7.467,8.36v9.504h-4.361v-9.504c0-2.321-0.963-4.288-3.322-4.288
							c-2.356,0-3.822,2.036-3.822,4.36v9.431H692.828z"/>
					</g>
				</g>
			</g>
		</g>
		<g style="opacity:0.61;">
			<g>
				<g>
					<path style="fill:#606060;" d="M708.973,859.493c-0.013-2.665-2.087-4.618-4.766-4.659c-2.011-0.031-1.81,0.261-1.815-1.887
						c-0.006-2.389-0.015-4.778,0.006-7.166c0.007-0.824-0.243-1.505-0.787-2.125c-5.098-5.81-10.184-11.63-15.281-17.441
						c-0.262-0.299-0.599-0.532-0.901-0.796c-13.528,0-27.055,0-40.583,0c-1.729,0.639-2.482,1.889-2.478,3.72
						c0.021,8.159,0.009,16.318,0.008,24.478c0,1.21-0.007,1.281-1.197,1.201c-3.258-0.221-5.477,2.147-5.436,5.426
						c0.096,7.568,0.028,15.137,0.031,22.706c0.001,3.44,1.887,5.32,5.333,5.331c1.267,0.004,1.268,0.004,1.268,1.306
						c0.001,4.831-0.002,9.662,0.002,14.493c0.002,2.595,1.262,3.855,3.85,3.855c17.446,0.001,34.891,0.001,52.337,0
						c2.543,0,3.822-1.268,3.824-3.799c0.005-4.912,0.001-9.823,0.003-14.735c0-1.115,0.005-1.112,1.131-1.121
						c0.589-0.005,1.177,0.017,1.761-0.127c2.169-0.535,3.68-2.273,3.689-4.503C709.007,875.597,709.011,867.545,708.973,859.493z
						 M647.034,828.716c11.619-0.001,23.237-0.001,34.856,0c1.193,0,1.206,0.015,1.207,1.222c0.001,4.884-0.002,9.767,0.002,14.651
						c0.001,1.765,0.543,2.305,2.307,2.306c4.159,0.003,8.318,0,12.477,0.003c0.997,0.001,1.044,0.046,1.046,1.052
						c0.006,1.932,0.005,3.864,0,5.796c-0.003,1.038-0.051,1.085-1.098,1.085c-8.479,0.002-16.958,0.001-25.438,0.001
						c-8.452,0-16.905,0-25.357,0c-1.198,0-1.202-0.003-1.202-1.221c-0.001-7.889-0.001-15.778,0-23.667
						C645.835,828.724,645.844,828.716,647.034,828.716z M697.728,903.645c-8.454,0.001-16.908,0.001-25.362,0.001
						c-8.427,0-16.854,0.001-25.281,0c-1.245,0-1.249-0.003-1.249-1.262c-0.001-4.348-0.003-8.696,0.001-13.043
						c0.001-1.01,0.051-1.059,1.041-1.059c16.989-0.002,33.977-0.002,50.966,0c1.041,0,1.086,0.044,1.087,1.094
						c0.003,4.348,0.003,8.696,0.001,13.043C698.931,903.634,698.92,903.645,697.728,903.645z"/>
				</g>
				<g>
					<g>
						<rect x="668.546" y="828.478" style="fill:#606060;" width="3.825" height="2.295"/>
					</g>
					<g>
						<rect x="664.722" y="830.773" style="fill:#606060;" width="3.825" height="2.295"/>
					</g>
					<g>
						<rect x="668.546" y="833.068" style="fill:#606060;" width="3.825" height="2.295"/>
					</g>
					<g>
						<rect x="664.722" y="835.363" style="fill:#606060;" width="3.825" height="2.295"/>
					</g>
					<g>
						<rect x="668.546" y="837.658" style="fill:#606060;" width="3.825" height="2.295"/>
					</g>
					<g>
						<rect x="664.722" y="839.953" style="fill:#606060;" width="3.825" height="2.295"/>
					</g>
					<g>
						<rect x="668.546" y="842.247" style="fill:#606060;" width="3.825" height="2.295"/>
					</g>
					<g>
						<rect x="664.722" y="844.542" style="fill:#606060;" width="3.825" height="2.295"/>
					</g>
					<g>
						<rect x="668.546" y="846.837" style="fill:#606060;" width="3.825" height="2.295"/>
					</g>
					<g>
						<rect x="664.722" y="849.132" style="fill:#606060;" width="3.825" height="2.295"/>
					</g>
					<g>
						<rect x="668.546" y="851.427" style="fill:#606060;" width="3.825" height="2.295"/>
					</g>
					<g>
						<rect x="664.722" y="853.722" style="fill:#606060;" width="3.825" height="2.295"/>
					</g>
				</g>
			</g>
			<g>
				<path style="fill:#606060;" d="M364.231,859.493c-0.013-2.665-2.087-4.618-4.766-4.659c-2.011-0.031-1.81,0.261-1.815-1.887
					c-0.006-2.389-0.015-4.778,0.006-7.166c0.007-0.824-0.243-1.505-0.787-2.125c-5.098-5.81-10.184-11.63-15.281-17.441
					c-0.262-0.299-0.599-0.532-0.901-0.796c-13.528,0-27.055,0-40.583,0c-1.729,0.639-2.482,1.889-2.478,3.72
					c0.021,8.159,0.009,16.318,0.008,24.478c0,1.21-0.007,1.281-1.197,1.201c-3.258-0.221-5.477,2.147-5.436,5.426
					c0.096,7.568,0.028,15.137,0.031,22.706c0.001,3.44,1.887,5.32,5.333,5.331c1.267,0.004,1.268,0.004,1.268,1.306
					c0.001,4.831-0.002,9.662,0.002,14.493c0.002,2.595,1.262,3.855,3.85,3.855c17.446,0.001,34.891,0.001,52.337,0
					c2.543,0,3.822-1.268,3.824-3.799c0.005-4.912,0.001-9.823,0.003-14.735c0-1.115,0.004-1.112,1.131-1.121
					c0.589-0.005,1.177,0.017,1.761-0.127c2.169-0.535,3.68-2.273,3.689-4.503C364.264,875.597,364.269,867.545,364.231,859.493z
					 M302.292,828.716c11.619-0.001,23.237-0.001,34.856,0c1.192,0,1.206,0.015,1.207,1.222c0.001,4.884-0.001,9.767,0.002,14.651
					c0.001,1.765,0.543,2.305,2.307,2.306c4.159,0.003,8.318,0,12.477,0.003c0.997,0.001,1.044,0.046,1.046,1.052
					c0.006,1.932,0.005,3.864,0,5.796c-0.003,1.038-0.051,1.085-1.098,1.085c-8.479,0.002-16.958,0.001-25.438,0.001
					c-8.452,0-16.905,0-25.357,0c-1.198,0-1.202-0.003-1.202-1.221c-0.001-7.889-0.001-15.778,0-23.667
					C301.093,828.724,301.102,828.716,302.292,828.716z M352.985,903.645c-8.454,0.001-16.908,0.001-25.362,0.001
					c-8.427,0-16.854,0.001-25.281,0c-1.245,0-1.249-0.003-1.249-1.262c-0.001-4.348-0.003-8.696,0.001-13.043
					c0.001-1.01,0.051-1.059,1.041-1.059c16.989-0.002,33.977-0.002,50.966,0c1.041,0,1.086,0.044,1.087,1.094
					c0.003,4.348,0.003,8.696,0.001,13.043C354.188,903.634,354.177,903.645,352.985,903.645z"/>
			</g>
			<g>
				<path style="fill:#FFFFFF;" d="M303.581,879.891v-17.193h6.051c0.816,0,1.581,0.132,2.293,0.396
					c0.712,0.264,1.333,0.636,1.861,1.117c0.527,0.48,0.944,1.053,1.248,1.717c0.304,0.665,0.456,1.397,0.456,2.198
					c0,0.816-0.152,1.557-0.456,2.221s-0.721,1.236-1.248,1.717c-0.529,0.48-1.149,0.852-1.861,1.117
					c-0.713,0.264-1.477,0.396-2.293,0.396h-2.809v6.315H303.581z M309.68,870.503c0.848,0,1.489-0.241,1.921-0.721
					c0.432-0.48,0.648-1.032,0.648-1.656c0-0.304-0.052-0.601-0.156-0.889c-0.105-0.288-0.264-0.54-0.48-0.756
					c-0.216-0.217-0.484-0.388-0.805-0.516c-0.32-0.129-0.696-0.193-1.128-0.193h-2.857v4.731H309.68z"/>
				<path style="fill:#FFFFFF;" d="M317.796,862.699h3.77l6.916,11.526h0.191l-0.191-3.314v-8.212h3.217v17.193h-3.409l-7.3-12.174
					h-0.191l0.191,3.314v8.86h-3.193V862.699z"/>
				<path style="fill:#FFFFFF;" d="M343.08,870.454h8.429c0.048,0.193,0.087,0.425,0.12,0.697c0.031,0.272,0.048,0.544,0.048,0.816
					c0,1.104-0.167,2.145-0.504,3.121c-0.336,0.977-0.865,1.849-1.585,2.618c-0.768,0.817-1.69,1.449-2.761,1.897
					c-1.073,0.448-2.298,0.672-3.674,0.672c-1.249,0-2.426-0.224-3.53-0.672c-1.104-0.447-2.065-1.072-2.881-1.873
					c-0.816-0.8-1.465-1.749-1.945-2.845c-0.48-1.097-0.72-2.293-0.72-3.59c0-1.296,0.24-2.493,0.72-3.589s1.129-2.045,1.945-2.845
					c0.816-0.8,1.777-1.425,2.881-1.873c1.104-0.448,2.281-0.672,3.53-0.672c1.392,0,2.637,0.24,3.734,0.72
					c1.097,0.48,2.036,1.144,2.821,1.993l-2.232,2.185c-0.562-0.592-1.185-1.044-1.874-1.357s-1.513-0.468-2.473-0.468
					c-0.786,0-1.53,0.14-2.234,0.421c-0.705,0.28-1.321,0.676-1.85,1.188c-0.527,0.512-0.949,1.133-1.259,1.861
					c-0.312,0.728-0.469,1.541-0.469,2.437c0,0.897,0.157,1.709,0.469,2.438c0.311,0.728,0.735,1.349,1.271,1.861
					c0.536,0.512,1.156,0.909,1.862,1.188c0.704,0.281,1.457,0.421,2.258,0.421c0.911,0,1.684-0.132,2.317-0.396
					c0.632-0.264,1.171-0.604,1.62-1.021c0.321-0.288,0.598-0.652,0.829-1.092s0.412-0.932,0.541-1.477h-5.404V870.454z"/>
			</g>
			<g>
				<path style="fill:#606060;" d="M443.437,859.493c-0.013-2.665-2.087-4.618-4.766-4.659c-2.011-0.031-1.81,0.261-1.815-1.887
					c-0.006-2.389-0.015-4.778,0.006-7.166c0.007-0.824-0.243-1.505-0.787-2.125c-5.098-5.81-10.184-11.63-15.281-17.441
					c-0.262-0.299-0.599-0.532-0.901-0.796c-13.528,0-27.055,0-40.583,0c-1.729,0.639-2.482,1.889-2.478,3.72
					c0.021,8.159,0.009,16.318,0.008,24.478c0,1.21-0.007,1.281-1.197,1.201c-3.258-0.221-5.477,2.147-5.436,5.426
					c0.096,7.568,0.028,15.137,0.031,22.706c0.001,3.44,1.887,5.32,5.333,5.331c1.267,0.004,1.268,0.004,1.268,1.306
					c0.001,4.831-0.002,9.662,0.002,14.493c0.002,2.595,1.262,3.855,3.85,3.855c17.446,0.001,34.891,0.001,52.337,0
					c2.543,0,3.822-1.268,3.824-3.799c0.005-4.912,0.001-9.823,0.003-14.735c0-1.115,0.004-1.112,1.131-1.121
					c0.589-0.005,1.177,0.017,1.761-0.127c2.169-0.535,3.68-2.273,3.689-4.503C443.47,875.597,443.475,867.545,443.437,859.493z
					 M381.498,828.716c11.619-0.001,23.237-0.001,34.856,0c1.192,0,1.206,0.015,1.207,1.222c0.001,4.884-0.001,9.767,0.002,14.651
					c0.001,1.765,0.543,2.305,2.307,2.306c4.159,0.003,8.318,0,12.477,0.003c0.997,0.001,1.044,0.046,1.046,1.052
					c0.006,1.932,0.005,3.864,0,5.796c-0.003,1.038-0.051,1.085-1.098,1.085c-8.479,0.002-16.958,0.001-25.438,0.001
					c-8.452,0-16.905,0-25.357,0c-1.198,0-1.202-0.003-1.202-1.221c-0.001-7.889-0.001-15.778,0-23.667
					C380.299,828.724,380.308,828.716,381.498,828.716z M432.192,903.645c-8.454,0.001-16.908,0.001-25.362,0.001
					c-8.427,0-16.854,0.001-25.281,0c-1.245,0-1.249-0.003-1.249-1.262c-0.001-4.348-0.002-8.696,0.001-13.043
					c0.001-1.01,0.051-1.059,1.041-1.059c16.989-0.002,33.977-0.002,50.966,0c1.041,0,1.086,0.044,1.087,1.094
					c0.003,4.348,0.003,8.696,0.001,13.043C433.394,903.634,433.384,903.645,432.192,903.645z"/>
			</g>
			<g>
				<path style="fill:#FFFFFF;" d="M402.272,862.699h3.698l6.46,17.193h-3.578l-1.416-4.106h-6.628l-1.417,4.106h-3.578
					L402.272,862.699z M406.379,872.808l-1.537-4.298l-0.625-2.089h-0.192l-0.625,2.089l-1.537,4.298H406.379z"/>
				<path style="fill:#FFFFFF;" d="M415.815,866.541c-0.273,0-0.533-0.052-0.781-0.156c-0.248-0.104-0.465-0.248-0.648-0.432
					c-0.184-0.184-0.328-0.396-0.432-0.636c-0.105-0.241-0.156-0.504-0.156-0.793s0.052-0.552,0.156-0.793
					c0.104-0.24,0.248-0.452,0.432-0.636c0.184-0.184,0.4-0.328,0.648-0.432c0.248-0.104,0.508-0.156,0.781-0.156
					c0.56,0,1.041,0.196,1.441,0.588c0.4,0.393,0.601,0.869,0.601,1.429c0,0.56-0.201,1.037-0.601,1.428
					C416.856,866.345,416.375,866.541,415.815,866.541z M414.255,879.891v-11.766h3.145v11.766H414.255z"/>
			</g>
			<g>
				<path style="fill:#606060;" d="M524.043,859.493c-0.013-2.665-2.087-4.618-4.766-4.659c-2.011-0.031-1.81,0.261-1.815-1.887
					c-0.006-2.389-0.015-4.778,0.006-7.166c0.007-0.824-0.243-1.505-0.787-2.125c-5.098-5.81-10.184-11.63-15.281-17.441
					c-0.262-0.299-0.599-0.532-0.901-0.796c-13.528,0-27.055,0-40.583,0c-1.729,0.639-2.482,1.889-2.478,3.72
					c0.021,8.159,0.009,16.318,0.008,24.478c0,1.21-0.007,1.281-1.197,1.201c-3.258-0.221-5.477,2.147-5.436,5.426
					c0.096,7.568,0.028,15.137,0.031,22.706c0.001,3.44,1.887,5.32,5.333,5.331c1.267,0.004,1.268,0.004,1.268,1.306
					c0.001,4.831-0.002,9.662,0.002,14.493c0.002,2.595,1.262,3.855,3.85,3.855c17.446,0.001,34.891,0.001,52.337,0
					c2.543,0,3.822-1.268,3.824-3.799c0.005-4.912,0.001-9.823,0.003-14.735c0-1.115,0.004-1.112,1.131-1.121
					c0.589-0.005,1.177,0.017,1.761-0.127c2.169-0.535,3.68-2.273,3.689-4.503C524.076,875.597,524.081,867.545,524.043,859.493z
					 M462.104,828.716c11.619-0.001,23.237-0.001,34.856,0c1.192,0,1.206,0.015,1.207,1.222c0.001,4.884-0.001,9.767,0.002,14.651
					c0.001,1.765,0.543,2.305,2.307,2.306c4.159,0.003,8.318,0,12.477,0.003c0.997,0.001,1.044,0.046,1.046,1.052
					c0.006,1.932,0.005,3.864,0,5.796c-0.003,1.038-0.051,1.085-1.098,1.085c-8.479,0.002-16.958,0.001-25.438,0.001
					c-8.452,0-16.905,0-25.357,0c-1.198,0-1.202-0.003-1.202-1.221c-0.001-7.889-0.001-15.778,0-23.667
					C460.905,828.724,460.914,828.716,462.104,828.716z M512.798,903.645c-8.454,0.001-16.908,0.001-25.362,0.001
					c-8.427,0-16.854,0.001-25.281,0c-1.245,0-1.249-0.003-1.249-1.262c-0.001-4.348-0.002-8.696,0.001-13.043
					c0.001-1.01,0.051-1.059,1.041-1.059c16.989-0.002,33.977-0.002,50.966,0c1.041,0,1.086,0.044,1.087,1.094
					c0.003,4.348,0.003,8.696,0.001,13.043C514,903.634,513.989,903.645,512.798,903.645z"/>
			</g>
			<g>
				<path style="fill:#FFFFFF;" d="M470.308,880.275c-0.737,0-1.441-0.104-2.113-0.312c-0.672-0.208-1.289-0.52-1.849-0.936
					c-0.56-0.416-1.048-0.925-1.464-1.525c-0.417-0.601-0.745-1.301-0.985-2.101l3.049-1.2c0.224,0.864,0.616,1.581,1.177,2.149
					s1.297,0.852,2.209,0.852c0.336,0,0.66-0.044,0.973-0.132c0.312-0.087,0.592-0.216,0.84-0.384
					c0.248-0.168,0.444-0.38,0.589-0.636c0.144-0.256,0.216-0.552,0.216-0.888c0-0.32-0.056-0.608-0.168-0.865
					c-0.112-0.255-0.3-0.495-0.564-0.72c-0.264-0.224-0.609-0.44-1.033-0.648c-0.424-0.208-0.948-0.424-1.572-0.648l-1.056-0.384
					c-0.465-0.16-0.933-0.376-1.405-0.648c-0.472-0.272-0.9-0.6-1.284-0.985c-0.385-0.384-0.701-0.836-0.949-1.357
					c-0.249-0.52-0.372-1.108-0.372-1.765c0-0.672,0.132-1.301,0.396-1.885c0.264-0.584,0.64-1.096,1.129-1.537
					c0.488-0.44,1.072-0.784,1.753-1.032c0.681-0.248,1.437-0.372,2.269-0.372c0.864,0,1.612,0.116,2.245,0.348
					c0.633,0.232,1.168,0.528,1.609,0.888c0.44,0.36,0.796,0.757,1.068,1.188c0.272,0.433,0.472,0.84,0.601,1.225l-2.857,1.2
					c-0.161-0.48-0.453-0.913-0.876-1.297c-0.425-0.384-1.005-0.576-1.741-0.576c-0.704,0-1.289,0.164-1.753,0.492
					c-0.465,0.329-0.697,0.757-0.697,1.285c0,0.512,0.224,0.949,0.672,1.309c0.448,0.36,1.161,0.708,2.137,1.044l1.081,0.36
					c0.688,0.241,1.316,0.517,1.885,0.828c0.568,0.312,1.056,0.684,1.465,1.117c0.408,0.433,0.72,0.925,0.936,1.477
					c0.217,0.552,0.324,1.189,0.324,1.909c0,0.897-0.18,1.669-0.54,2.317c-0.36,0.648-0.82,1.181-1.38,1.597
					c-0.561,0.416-1.193,0.728-1.897,0.936C471.668,880.172,470.98,880.275,470.308,880.275z"/>
				<path style="fill:#FFFFFF;" d="M477.175,862.699h3.506l3.554,10.349l0.625,2.209h0.192l0.672-2.209l3.698-10.349h3.506
					l-6.268,17.193h-3.409L477.175,862.699z"/>
				<path style="fill:#FFFFFF;" d="M502.388,870.454h8.428c0.048,0.193,0.088,0.425,0.12,0.697c0.033,0.272,0.049,0.544,0.049,0.816
					c0,1.104-0.169,2.145-0.505,3.121c-0.336,0.977-0.864,1.849-1.585,2.618c-0.768,0.817-1.688,1.449-2.761,1.897
					c-1.073,0.448-2.298,0.672-3.674,0.672c-1.249,0-2.425-0.224-3.529-0.672c-1.105-0.447-2.066-1.072-2.882-1.873
					c-0.816-0.8-1.465-1.749-1.945-2.845c-0.48-1.097-0.72-2.293-0.72-3.59c0-1.296,0.241-2.493,0.72-3.589
					c0.48-1.097,1.129-2.045,1.945-2.845c0.816-0.8,1.777-1.425,2.882-1.873c1.104-0.448,2.28-0.672,3.529-0.672
					c1.392,0,2.637,0.24,3.734,0.72c1.097,0.48,2.038,1.144,2.822,1.993l-2.234,2.185c-0.56-0.592-1.185-1.044-1.874-1.357
					c-0.687-0.312-1.512-0.468-2.473-0.468c-0.784,0-1.528,0.14-2.234,0.421c-0.704,0.28-1.321,0.676-1.848,1.188
					c-0.528,0.512-0.949,1.133-1.261,1.861c-0.312,0.728-0.468,1.541-0.468,2.437c0,0.897,0.156,1.709,0.468,2.438
					c0.312,0.728,0.737,1.349,1.273,1.861c0.536,0.512,1.156,0.909,1.86,1.188c0.705,0.281,1.457,0.421,2.258,0.421
					c0.913,0,1.685-0.132,2.317-0.396c0.632-0.264,1.173-0.604,1.621-1.021c0.32-0.288,0.596-0.652,0.828-1.092
					c0.233-0.44,0.412-0.932,0.541-1.477h-5.402V870.454z"/>
			</g>
			<g>
				<path style="fill:#606060;" d="M602.976,859.493c-0.013-2.665-2.087-4.618-4.766-4.659c-2.011-0.031-1.81,0.261-1.815-1.887
					c-0.006-2.389-0.015-4.778,0.006-7.166c0.007-0.824-0.243-1.505-0.787-2.125c-5.098-5.81-10.184-11.63-15.281-17.441
					c-0.262-0.299-0.599-0.532-0.901-0.796c-13.528,0-27.055,0-40.583,0c-1.729,0.639-2.482,1.889-2.478,3.72
					c0.021,8.159,0.009,16.318,0.008,24.478c0,1.21-0.007,1.281-1.197,1.201c-3.258-0.221-5.477,2.147-5.436,5.426
					c0.096,7.568,0.028,15.137,0.031,22.706c0.001,3.44,1.887,5.32,5.333,5.331c1.267,0.004,1.268,0.004,1.268,1.306
					c0.001,4.831-0.002,9.662,0.002,14.493c0.002,2.595,1.262,3.855,3.85,3.855c17.446,0.001,34.891,0.001,52.337,0
					c2.543,0,3.822-1.268,3.824-3.799c0.005-4.912,0.001-9.823,0.003-14.735c0-1.115,0.005-1.112,1.131-1.121
					c0.589-0.005,1.178,0.017,1.761-0.127c2.169-0.535,3.68-2.273,3.689-4.503C603.01,875.597,603.015,867.545,602.976,859.493z
					 M541.037,828.716c11.619-0.001,23.237-0.001,34.856,0c1.193,0,1.206,0.015,1.207,1.222c0.001,4.884-0.002,9.767,0.002,14.651
					c0.001,1.765,0.543,2.305,2.307,2.306c4.159,0.003,8.318,0,12.477,0.003c0.997,0.001,1.044,0.046,1.046,1.052
					c0.006,1.932,0.005,3.864,0,5.796c-0.003,1.038-0.051,1.085-1.098,1.085c-8.479,0.002-16.958,0.001-25.438,0.001
					c-8.452,0-16.905,0-25.357,0c-1.198,0-1.202-0.003-1.202-1.221c-0.001-7.889-0.001-15.778,0-23.667
					C539.838,828.724,539.847,828.716,541.037,828.716z M591.731,903.645c-8.454,0.001-16.908,0.001-25.362,0.001
					c-8.427,0-16.854,0.001-25.281,0c-1.245,0-1.249-0.003-1.249-1.262c-0.001-4.348-0.003-8.696,0.001-13.043
					c0.001-1.01,0.051-1.059,1.041-1.059c16.989-0.002,33.977-0.002,50.966,0c1.041,0,1.086,0.044,1.087,1.094
					c0.003,4.348,0.003,8.696,0.001,13.043C592.934,903.634,592.923,903.645,591.731,903.645z"/>
			</g>
			<g>
				<path style="fill:#FFFFFF;" d="M549.998,865.772v3.986h6.891v3.074h-6.891v3.986h7.659v3.073h-10.901v-17.193h10.901v3.073
					H549.998z"/>
				<path style="fill:#FFFFFF;" d="M560.635,879.891v-17.193h6.051c0.816,0,1.581,0.132,2.293,0.396
					c0.712,0.264,1.333,0.636,1.861,1.117c0.528,0.48,0.944,1.053,1.249,1.717c0.304,0.665,0.456,1.397,0.456,2.198
					c0,0.816-0.152,1.557-0.456,2.221c-0.305,0.664-0.721,1.236-1.249,1.717c-0.528,0.48-1.149,0.852-1.861,1.117
					c-0.713,0.264-1.477,0.396-2.293,0.396h-2.809v6.315H560.635z M566.735,870.503c0.848,0,1.489-0.241,1.921-0.721
					c0.432-0.48,0.648-1.032,0.648-1.656c0-0.304-0.052-0.601-0.156-0.889c-0.105-0.288-0.264-0.54-0.48-0.756
					c-0.216-0.217-0.484-0.388-0.805-0.516c-0.32-0.129-0.696-0.193-1.128-0.193h-2.857v4.731H566.735z"/>
				<path style="fill:#FFFFFF;" d="M580.109,880.275c-0.737,0-1.441-0.104-2.113-0.312c-0.672-0.208-1.289-0.52-1.849-0.936
					c-0.56-0.416-1.049-0.925-1.465-1.525c-0.416-0.601-0.744-1.301-0.985-2.101l3.049-1.2c0.224,0.864,0.616,1.581,1.177,2.149
					c0.56,0.568,1.296,0.852,2.209,0.852c0.336,0,0.66-0.044,0.973-0.132c0.312-0.087,0.592-0.216,0.84-0.384
					c0.248-0.168,0.444-0.38,0.588-0.636c0.144-0.256,0.217-0.552,0.217-0.888c0-0.32-0.057-0.608-0.168-0.865
					c-0.112-0.255-0.3-0.495-0.565-0.72c-0.264-0.224-0.608-0.44-1.032-0.648c-0.424-0.208-0.949-0.424-1.573-0.648l-1.056-0.384
					c-0.465-0.16-0.932-0.376-1.404-0.648c-0.473-0.272-0.901-0.6-1.285-0.985c-0.384-0.384-0.701-0.836-0.949-1.357
					c-0.248-0.52-0.372-1.108-0.372-1.765c0-0.672,0.132-1.301,0.396-1.885c0.264-0.584,0.64-1.096,1.129-1.537
					c0.489-0.44,1.073-0.784,1.753-1.032c0.68-0.248,1.437-0.372,2.269-0.372c0.865,0,1.613,0.116,2.246,0.348
					c0.632,0.232,1.168,0.528,1.609,0.888c0.44,0.36,0.796,0.757,1.068,1.188c0.272,0.433,0.472,0.84,0.601,1.225l-2.857,1.2
					c-0.161-0.48-0.453-0.913-0.877-1.297s-1.005-0.576-1.741-0.576c-0.705,0-1.289,0.164-1.753,0.492
					c-0.465,0.329-0.696,0.757-0.696,1.285c0,0.512,0.224,0.949,0.672,1.309c0.448,0.36,1.16,0.708,2.137,1.044l1.08,0.36
					c0.689,0.241,1.317,0.517,1.885,0.828c0.568,0.312,1.056,0.684,1.465,1.117c0.408,0.433,0.72,0.925,0.936,1.477
					c0.216,0.552,0.324,1.189,0.324,1.909c0,0.897-0.18,1.669-0.54,2.317c-0.36,0.648-0.821,1.181-1.38,1.597
					c-0.561,0.416-1.193,0.728-1.897,0.936C581.47,880.172,580.782,880.275,580.109,880.275z"/>
			</g>
			<g>
				<path style="fill:#FFFFFF;" d="M655.431,876.625l8.716-10.854h-8.332v-3.073h12.103v3.266l-8.621,10.854h8.716v3.073h-12.582
					V876.625z"/>
				<path style="fill:#FFFFFF;" d="M670.702,862.699h3.242v17.193h-3.242V862.699z"/>
				<path style="fill:#FFFFFF;" d="M677.402,879.891v-17.193h6.051c0.817,0,1.581,0.132,2.293,0.396
					c0.712,0.264,1.333,0.636,1.861,1.117s0.944,1.053,1.249,1.717c0.304,0.665,0.456,1.397,0.456,2.198
					c0,0.816-0.152,1.557-0.456,2.221c-0.305,0.664-0.721,1.236-1.249,1.717s-1.149,0.852-1.861,1.117
					c-0.713,0.264-1.477,0.396-2.293,0.396h-2.809v6.315H677.402z M683.501,870.503c0.848,0,1.489-0.241,1.921-0.721
					c0.433-0.48,0.648-1.032,0.648-1.656c0-0.304-0.052-0.601-0.156-0.889c-0.105-0.288-0.264-0.54-0.48-0.756
					c-0.216-0.217-0.484-0.388-0.805-0.516c-0.32-0.129-0.696-0.193-1.128-0.193h-2.857v4.731H683.501z"/>
			</g>
		</g>
		<g style="opacity:0.61;">
			<path style="fill:#606060;" d="M609.144,863.785h19.739v4.881h-19.739V863.785z M609.144,872.201h19.739v4.884h-19.739V872.201z"
				/>
		</g>
	</g>
	<g style="opacity:0.61;">
		<path style="fill:#606060;" d="M297,963.076h3.498c2.75,0,4.603,1.768,4.603,4.297s-1.854,4.296-4.603,4.296H297V963.076z
			 M300.449,970.883c2.283,0,3.756-1.448,3.756-3.51s-1.473-3.511-3.756-3.511h-2.541v7.021H300.449z"/>
		<path style="fill:#606060;" d="M315.251,967.373c0-2.504,1.915-4.37,4.517-4.37c2.577,0,4.505,1.853,4.505,4.37
			c0,2.516-1.927,4.369-4.505,4.369C317.166,971.742,315.251,969.877,315.251,967.373z M323.365,967.373
			c0-2.05-1.534-3.56-3.596-3.56c-2.075,0-3.621,1.51-3.621,3.56c0,2.049,1.546,3.559,3.621,3.559
			C321.831,970.932,323.365,969.422,323.365,967.373z"/>
		<path style="fill:#606060;" d="M346.724,963.076l-2.897,8.593h-0.957l-2.516-7.328l-2.529,7.328h-0.945l-2.897-8.593h0.933
			l2.479,7.389l2.566-7.389h0.847l2.529,7.426l2.516-7.426H346.724z"/>
		<path style="fill:#606060;" d="M364.435,963.076v8.593h-0.749l-5.524-6.972v6.972h-0.908v-8.593h0.749l5.536,6.973v-6.973H364.435
			z"/>
		<path style="fill:#606060;" d="M376.108,963.076h0.908v7.807h4.812v0.786h-5.72V963.076z"/>
		<path style="fill:#606060;" d="M391.279,967.373c0-2.504,1.915-4.37,4.517-4.37c2.577,0,4.505,1.853,4.505,4.37
			c0,2.516-1.927,4.369-4.505,4.369C393.194,971.742,391.279,969.877,391.279,967.373z M399.392,967.373
			c0-2.05-1.534-3.56-3.596-3.56c-2.075,0-3.621,1.51-3.621,3.56c0,2.049,1.546,3.559,3.621,3.559
			C397.858,970.932,399.392,969.422,399.392,967.373z"/>
		<path style="fill:#606060;" d="M416.478,969.374h-4.787l-1.031,2.295h-0.945l3.928-8.593h0.896l3.928,8.593h-0.957
			L416.478,969.374z M416.147,968.637l-2.062-4.615l-2.062,4.615H416.147z"/>
		<path style="fill:#606060;" d="M428.765,963.076h3.498c2.75,0,4.603,1.768,4.603,4.297s-1.854,4.296-4.603,4.296h-3.498V963.076z
			 M432.214,970.883c2.283,0,3.756-1.448,3.756-3.51s-1.473-3.511-3.756-3.511h-2.541v7.021H432.214z"/>
		<path style="fill:#606060;" d="M465.256,969.374h-4.787l-1.031,2.295h-0.945l3.928-8.593h0.896l3.928,8.593h-0.957
			L465.256,969.374z M464.925,968.637l-2.062-4.615l-2.062,4.615H464.925z"/>
		<path style="fill:#606060;" d="M477.543,963.076h0.908v7.807h4.812v0.786h-5.72V963.076z"/>
		<path style="fill:#606060;" d="M493.647,963.076h0.908v7.807h4.812v0.786h-5.72V963.076z"/>
		<path style="fill:#606060;" d="M522.749,963.862v3.376h4.443v0.786h-4.443v3.646h-0.909v-8.593h5.891v0.786H522.749z"/>
		<path style="fill:#606060;" d="M538.485,963.076h0.909v8.593h-0.909V963.076z"/>
		<path style="fill:#606060;" d="M551.067,963.076h0.909v7.807h4.811v0.786h-5.72V963.076z"/>
		<path style="fill:#606060;" d="M573.246,970.883v0.786h-6.076v-8.593h5.891v0.786h-4.983v3.056h4.443v0.774h-4.443v3.191H573.246z
			"/>
		<path style="fill:#606060;" d="M597.255,963.862v3.376h4.443v0.786h-4.443v3.646h-0.909v-8.593h5.891v0.786H597.255z"/>
		<path style="fill:#606060;" d="M612.119,967.373c0-2.504,1.915-4.37,4.517-4.37c2.577,0,4.505,1.853,4.505,4.37
			c0,2.516-1.927,4.369-4.505,4.369C614.034,971.742,612.119,969.877,612.119,967.373z M620.232,967.373
			c0-2.05-1.534-3.56-3.596-3.56c-2.075,0-3.622,1.51-3.622,3.56c0,2.049,1.547,3.559,3.622,3.559
			C618.698,970.932,620.232,969.422,620.232,967.373z"/>
		<path style="fill:#606060;" d="M637.919,971.669l-1.963-2.762c-0.222,0.024-0.442,0.037-0.688,0.037h-2.307v2.725h-0.909v-8.593
			h3.216c2.185,0,3.511,1.105,3.511,2.946c0,1.351-0.712,2.295-1.964,2.7l2.099,2.946H637.919z M637.871,966.022
			c0-1.375-0.909-2.161-2.627-2.161h-2.283v4.309h2.283C636.962,968.17,637.871,967.373,637.871,966.022z"/>
		<path style="fill:#606060;" d="M658.724,963.076v8.593h-0.871v-6.874l-3.376,5.782h-0.429l-3.376-5.745v6.837h-0.872v-8.593h0.749
			l3.732,6.371l3.695-6.371H658.724z"/>
		<path style="fill:#606060;" d="M675.787,969.374h-4.788l-1.031,2.295h-0.946l3.928-8.593h0.896l3.928,8.593h-0.957
			L675.787,969.374z M675.455,968.637l-2.062-4.615l-2.062,4.615H675.455z"/>
		<path style="fill:#606060;" d="M689.312,963.862h-3.02v-0.786h6.948v0.786h-3.02v7.807h-0.908V963.862z"/>
		<path style="fill:#606060;" d="M702.605,970.626l0.356-0.7c0.614,0.601,1.706,1.043,2.835,1.043c1.608,0,2.308-0.675,2.308-1.522
			c0-2.357-5.29-0.908-5.29-4.087c0-1.265,0.982-2.357,3.167-2.357c0.97,0,1.976,0.282,2.664,0.761l-0.307,0.724
			c-0.737-0.479-1.596-0.712-2.357-0.712c-1.571,0-2.271,0.7-2.271,1.559c0,2.357,5.29,0.933,5.29,4.063
			c0,1.265-1.006,2.344-3.204,2.344C704.508,971.742,703.243,971.288,702.605,970.626z"/>
	</g>
</g>
<g>
</g>
<g>
	<g>
		<g>
			<path style="fill:#641723;" d="M275.758,620.167v14.357h3.179c1.952,0,5.397,0,7.087-1.216c1.066-0.78,2.401-2.594,2.401-6.048
				c0-1.646-0.268-2.678-0.536-3.464c-1.422-3.548-5.484-3.629-9.395-3.629 M278.67,643.249h-2.912v16.68h3.353
				c2.048,0,5.755-0.087,7.712-1.727c1.509-1.213,2.577-3.629,2.577-6.996c0-0.96,0-4.758-2.934-6.75
				C284.6,643.158,280.803,643.249,278.67,643.249z M250,610.861h12.251h19.24c10.889-0.081,15.241,0,18.847,1.712
				c7.032,3.426,7.032,10.261,7.032,12.219c0,1.793-0.17,4.487-2.009,7.249c-1.925,2.859-4.524,4.159-6.448,4.811
				c-0.672,0.237-1.344,0.483-2.098,0.648c1.004,0.078,2.013,0.159,2.931,0.405c1.508,0.25,3.018,0.814,4.271,1.628
				c6.031,3.832,6.031,10.351,6.031,12.384c0,2.606-0.416,5.213-1.506,7.579c-1.172,2.597-3.268,4.805-5.779,6.183
				c-4.189,2.369-9.882,2.69-18.841,2.69h-28.057v-50.353L250,610.861z"/>
			<path style="fill:#641723;" d="M367.787,654.769c-0.751-3.991-1.76-9.123-5.107-12.144c-2.764-2.607-5.861-2.841-8.29-3.171
				c4.354-0.736,13.397-2.201,13.397-14.498c0-8.15-4.521-12.952-13.647-13.849c-2.262-0.246-4.441-0.246-6.867-0.246H315.28v57.508
				h20.324v-23.377h2.454c2.179,0.162,5.834,0.324,7.424,3.261c0.756,1.465,1.005,2.6,1.932,7.735l0.335,2.285
				c0.666,3.501,1.086,5.859,1.253,6.264c0.586,2.366,1.258,2.937,2.433,3.832h20.54c-2.012-1.955-2.26-3.012-3.599-10.426
				 M335.293,620.261h3.442c3.381,0,9.816,0,9.816,7.695c0,7.601-6.525,7.43-10.259,7.517h-2.999V620.261z"/>
			<rect x="377.212" y="610.861" style="fill:#641723;" width="21.778" height="57.508"/>
			<polyline style="fill:#641723;" points="444.677,656.228 430.438,656.228 430.438,610.861 408.663,610.861 408.663,668.369 
				444.677,668.369 			"/>
			<polyline style="fill:#641723;" points="485.917,656.228 471.678,656.228 471.678,610.861 449.904,610.861 449.904,668.369 
				485.917,668.369 			"/>
			<rect x="491.142" y="610.861" style="fill:#641723;" width="21.778" height="57.508"/>
			<polyline style="fill:#641723;" points="564.215,610.861 532.307,610.861 516.818,668.369 537.495,668.369 546.125,626.415 
				549.892,626.415 557.268,668.369 577.871,668.369 			"/>
			<path style="fill:#641723;" d="M636.698,610.861h-17.843l0.253,25.251c0.078,2.285,0.078,6.292,0.078,8.577
				c-1.331-4.883-3.318-7.436-4.655-11.42l-9.297-22.408h-23.468v57.508h18.149l-0.505-25.66c0-3.417-0.081-6.373-0.081-8.325
				c1.253,3.832,3.398,6.862,4.733,10.607l9.64,23.377h22.997"/>
			<polyline style="fill:#641723;" points="749.85,656.312 724.59,656.312 724.59,644.583 744.107,644.583 744.107,632.529 
				724.59,632.529 724.59,622.914 744.974,622.911 750,610.861 705.041,610.861 705.041,668.369 749.85,668.369 			"/>
			<path style="fill:#641723;" d="M642.878,632.29c0-12.752,11.467-23.084,24.575-23.084h8.278
				c12.936,0,24.291,10.878,24.578,23.387h-20.902v-2.859c0-3.77-3.112-6.847-6.978-6.919l0.144-0.003h-0.287l0.143,0.003
				c-3.872,0.072-6.981,3.149-6.981,6.919v20.908c0,3.772,3.109,6.853,6.981,6.922c3.866-0.069,6.978-3.149,6.978-6.922v-3.851
				h20.902c-0.187,12.602-11.58,22.77-24.578,22.77h-8.278c-13.107,0-24.575-10.348-24.575-23.091"/>
			<path style="fill:none;stroke:#000000;stroke-width:0.4847;" d="M508.337,382.774c0-5.76,0-14.955,0-21.229
				c0-6.273,4.895-11.322,9.965-11.322c5.076,0,20.802,4.557,31.627,10.312c10.831,5.759,25.267,17.153,24.986,17.36
				c-3.049,2.27-4.34,4.872-5.41,6.251c-0.539,0.689-2.257,3.431-3.33,4.505c-1.805,1.807-6.083,1.994-11.433,1.994
				c-10.953,0-28.148,0-35.581,0C511.729,390.645,508.337,388.015,508.337,382.774z"/>
			<path style="fill:none;stroke:#000000;stroke-width:0.4847;" d="M491.632,382.821c0-5.756,0-14.955,0-21.228
				c0-6.271-4.895-11.324-9.966-11.324c-5.071,0-20.798,4.555-31.621,10.314c-10.828,5.756-26.209,17.178-25.915,17.358
				c0.971,0.608,1.648,0.889,3.02,2.141c2.212,2.03,4.267,5.107,5.186,6.432c2.006,2.879,1.936,4.176,12.895,4.176
				c10.95,0,28.143,0,35.576,0C488.237,390.69,491.632,388.064,491.632,382.821z"/>
			<path style="fill:none;stroke:#000000;stroke-width:0.4847;" d="M367.65,448.724c0-65.328,59.248-118.284,132.338-118.284
				c73.085,0,132.333,52.956,132.333,118.284c0,65.331-59.248,118.284-132.333,118.284
				C426.898,567.008,367.65,514.055,367.65,448.724z"/>
			<path style="fill:none;stroke:#000000;stroke-width:0.4847;" d="M516.157,415.389c5.459,0,25.223,0,31.197,0
				c5.971,0,10.133,2.789,10.133,11.642c0,8.85-0.514,17.448-4.209,28.36c-3.691,10.912-9.366,21.312-16.412,26.382
				c-8.081,6.103-17.959,6.359-22.514,6.359c-4.555,0-6.192-3.09-6.192-7.991c0-4.897,0-46.233,0-53.965
				C508.159,418.438,511.642,415.389,516.157,415.389z"/>
			<path style="fill:none;stroke:#000000;stroke-width:0.4847;" d="M483.815,415.438c-5.461,0-25.225,0-31.197,0
				s-10.139,2.789-10.139,11.64c0,8.851,0.518,17.444,4.214,28.361c3.695,10.912,9.364,21.309,16.409,26.383
				c8.08,6.1,17.962,6.358,22.516,6.358c4.555,0,6.192-3.095,6.192-7.991c0-4.901,0-46.234,0-53.968
				C491.81,418.486,488.327,415.438,483.815,415.438z"/>
			<path style="fill:none;stroke:#000000;stroke-width:0.4847;" d="M491.878,523.586c0-9.262-0.231-10.189-15.518-15.98
				c-15.29-5.787-22.063-7.132-29.417-13.204c-6.421-5.3-17.438-15.414-22.238-44.007c-4.326-25.775-9.247-39.456-15.865-39.264
				c-9.611,0.279-13.748,27.045-12.395,42.97c1.85,21.774,13.594,50.886,29.186,66.48c21.206,21.204,40.239,26.869,48.872,26.869
				c8.639,0,17.277-8.019,17.277-17.977C491.781,527.393,491.878,523.586,491.878,523.586z"/>
			<path style="fill:none;stroke:#000000;stroke-width:0.4847;" d="M507.707,523.696c0-9.269,0.231-10.199,15.52-15.988
				c15.287-5.787,22.062-7.124,29.42-13.199c6.416-5.302,17.435-15.418,22.23-44.008c4.331-25.775,9.254-39.456,15.87-39.264
				c9.615,0.279,13.75,27.042,12.39,42.97c-1.849,21.77-13.587,50.877-29.186,66.475c-21.198,21.208-40.235,26.873-48.872,26.873
				c-8.636,0-17.279-8.019-17.279-17.98C507.801,527.49,507.707,523.696,507.707,523.696z"/>
			<path style="fill:none;stroke:#CCCCCC;stroke-width:0.2693;" d="M505.329,357.934c0-11.168,9.537-14.177,11.77-14.177
				c2.239,0,15.128,0.514,34.461,10.484c19.34,9.968,29.906,21.998,29.906,23.632c0,1.634-4.724,1.118-7.735,5.071
				c-3.006,3.955-6.099,9.71-14.866,9.71c-8.761,0-33.859,0-41.249,0c-7.392,0-12.287-4.469-12.287-13.318
				C505.329,370.484,505.329,357.934,505.329,357.934z"/>
			<path style="fill:none;stroke:#CCCCCC;stroke-width:0.2693;" d="M519.162,407.608c6.192,0,21.744,0,28.017,0
				c7.046,0,13.148,3.782,13.148,17.273c0,0,0.434,11.173-3.613,25.097c-4.031,13.92-8.59,25.607-19.243,33.601
				c-8.593,6.615-19.43,6.186-23.72,6.186c-4.29,0-8.075-2.92-8.075-9.282c0-6.359,0-48.47,0-59.122
				C505.675,410.702,512.465,407.608,519.162,407.608z"/>
			<path style="fill:none;stroke:#D9D9D9;stroke-width:0.2693;" d="M494.641,357.983c0-11.168-9.534-14.18-11.77-14.18
				c-2.234,0-15.128,0.518-34.46,10.487c-19.338,9.968-29.906,22.003-29.906,23.635c0,1.63,4.723,1.116,7.732,5.066
				c3.009,3.955,6.099,9.712,14.868,9.712c8.766,0,33.858,0,41.249,0c7.395,0,12.287-4.468,12.287-13.319
				C494.641,370.532,494.641,357.983,494.641,357.983z"/>
			<path style="fill:none;stroke:#D9D9D9;stroke-width:0.2693;" d="M480.807,407.656c-6.184,0-21.741,0-28.014,0
				c-7.043,0-13.15,3.78-13.15,17.274c0,0-0.427,11.173,3.611,25.094c4.041,13.924,8.591,25.608,19.251,33.602
				c8.59,6.616,19.421,6.186,23.714,6.186c4.303,0,8.082-2.923,8.082-9.283c0-6.357,0-48.465,0-59.119
				C494.301,410.752,487.51,407.656,480.807,407.656z"/>
			<path style="fill:none;stroke:#CCCCCC;stroke-width:0.2693;" d="M505.394,525.548c0-13.207-0.471-16.913,14.822-22.24
				c15.29-5.328,24.59-5.932,36.597-20.847c8.035-9.982,11.336-20.975,13.668-35.902c0,0,2.083-13.475,5.325-25.247
				c3.218-11.657,10.189-17.605,16.45-17.605c6.248,0,17.831,10.114,15.901,50.417c-1.777,25.092-13.706,50.922-33.972,71.192
				c-16.219,16.213-36.369,24.553-47.946,24.553C518.127,549.87,505.394,545.234,505.394,525.548z"/>
			<path style="fill:none;stroke:#D9D9D9;stroke-width:0.2693;" d="M494.195,525.448c0-13.205,0.461-16.916-14.827-22.243
				c-15.284-5.327-24.589-5.928-36.594-20.844c-8.031-9.985-11.339-20.98-13.668-35.907c0,0-2.08-13.474-5.329-25.247
				c-3.214-11.656-10.191-17.6-16.44-17.6c-6.256,0-17.839,10.11-15.907,50.412c1.774,25.096,13.704,50.925,33.975,71.191
				c16.211,16.209,36.365,24.553,47.943,24.553C481.46,549.764,494.195,545.134,494.195,525.448z"/>
			<path style="fill:none;stroke:#D9D9D9;stroke-width:0.202;" d="M368.311,448.724c0-65.002,58.955-117.692,131.677-117.692
				c72.72,0,131.672,52.69,131.672,117.692c0,64.999-58.952,117.695-131.672,117.695
				C427.266,566.419,368.311,513.723,368.311,448.724z"/>
			
				<linearGradient id="SVGID_1_" gradientUnits="userSpaceOnUse" x1="208.8799" y1="921.1047" x2="214.3423" y2="921.1047" gradientTransform="matrix(-26.0239 35.5928 35.5928 26.0239 -26777.3477 -31054.4141)">
				<stop  offset="0" style="stop-color:#BFBFBF"/>
				<stop  offset="0.3539" style="stop-color:#F2F2F2"/>
				<stop  offset="0.7253" style="stop-color:#F2F2F2"/>
				<stop  offset="1" style="stop-color:#999999"/>
			</linearGradient>
			<path style="fill-rule:evenodd;clip-rule:evenodd;fill:url(#SVGID_1_);" d="M499.988,330.44
				c-73.089,0-132.338,52.956-132.338,118.284c0,65.331,59.248,118.284,132.338,118.284c73.085,0,132.333-52.953,132.333-118.284
				C632.321,383.396,573.073,330.44,499.988,330.44 M494.195,525.448c0,19.686-12.735,24.316-20.847,24.316
				c-11.578,0-31.732-8.343-47.943-24.553c-20.271-20.266-32.201-46.096-33.975-71.191c-1.932-40.302,9.651-50.412,15.907-50.412
				c6.25,0,13.226,5.944,16.44,17.6c3.249,11.773,5.329,25.247,5.329,25.247c2.329,14.927,5.637,25.922,13.668,35.907
				c12.005,14.916,21.31,15.518,36.594,20.844C494.656,508.532,494.195,512.242,494.195,525.448z M494.301,480.529
				c0,6.36-3.779,9.283-8.082,9.283c-4.293,0-15.125,0.43-23.714-6.186c-10.66-7.994-15.21-19.678-19.251-33.602
				c-4.037-13.921-3.611-25.094-3.611-25.094c0-13.494,6.106-17.274,13.15-17.274h28.014c6.703,0,13.494,3.096,13.494,13.754
				V480.529z M494.641,379.384c0,8.852-4.892,13.319-12.287,13.319h-41.249c-8.769,0-11.859-5.757-14.868-9.712
				c-3.009-3.95-7.732-3.436-7.732-5.066c0-1.632,10.568-13.667,29.906-23.635c19.332-9.969,32.226-10.487,34.46-10.487
				c2.235,0,11.77,3.012,11.77,14.18C494.641,357.983,494.641,370.532,494.641,379.384z M505.329,357.934
				c0-11.168,9.537-14.177,11.77-14.177c2.239,0,15.128,0.514,34.461,10.484c19.34,9.968,29.906,21.998,29.906,23.632
				c0,1.634-4.724,1.118-7.735,5.071c-3.006,3.955-6.099,9.71-14.866,9.71h-41.249c-7.392,0-12.287-4.469-12.287-13.318
				C505.329,370.484,505.329,357.934,505.329,357.934z M556.713,449.977c-4.031,13.92-8.59,25.607-19.243,33.601
				c-8.593,6.615-19.43,6.186-23.72,6.186c-4.29,0-8.075-2.92-8.075-9.282v-59.122c0-10.658,6.79-13.753,13.488-13.753h28.017
				c7.046,0,13.148,3.782,13.148,17.273C560.327,424.881,560.76,436.053,556.713,449.977z M574.186,525.317
				c-16.219,16.213-36.369,24.553-47.946,24.553c-8.113,0-20.846-4.636-20.846-24.322c0-13.207-0.471-16.913,14.822-22.24
				c15.29-5.328,24.59-5.932,36.597-20.847c8.035-9.982,11.336-20.975,13.668-35.902c0,0,2.083-13.475,5.325-25.247
				c3.218-11.657,10.189-17.605,16.45-17.605c6.248,0,17.831,10.114,15.901,50.417C606.38,479.216,594.452,505.046,574.186,525.317z
				"/>
			<path style="fill:none;stroke:#A6A6A6;stroke-width:0.1346;" d="M505.329,357.934c0-11.168,9.537-14.177,11.77-14.177
				c2.239,0,15.128,0.514,34.461,10.484c19.34,9.968,29.906,21.998,29.906,23.632c0,1.634-4.724,1.118-7.735,5.071
				c-3.006,3.955-6.099,9.71-14.866,9.71c-8.761,0-33.859,0-41.249,0c-7.392,0-12.287-4.469-12.287-13.318
				C505.329,370.484,505.329,357.934,505.329,357.934z"/>
			<path style="fill:none;stroke:#A6A6A6;stroke-width:0.1346;" d="M519.162,407.608c6.192,0,21.744,0,28.017,0
				c7.046,0,13.148,3.782,13.148,17.273c0,0,0.434,11.173-3.613,25.097c-4.031,13.92-8.59,25.607-19.243,33.601
				c-8.593,6.615-19.43,6.186-23.72,6.186c-4.29,0-8.075-2.92-8.075-9.282c0-6.359,0-48.47,0-59.122
				C505.675,410.702,512.465,407.608,519.162,407.608z"/>
			<path style="fill:none;stroke:#B3B3B3;stroke-width:0.1346;" d="M494.641,357.983c0-11.168-9.534-14.18-11.77-14.18
				c-2.234,0-15.128,0.518-34.46,10.487c-19.338,9.968-29.906,22.003-29.906,23.635c0,1.63,4.723,1.116,7.732,5.066
				c3.009,3.955,6.099,9.712,14.868,9.712c8.766,0,33.858,0,41.249,0c7.395,0,12.287-4.468,12.287-13.319
				C494.641,370.532,494.641,357.983,494.641,357.983z"/>
			<path style="fill:none;stroke:#B3B3B3;stroke-width:0.1346;" d="M480.807,407.656c-6.184,0-21.741,0-28.014,0
				c-7.043,0-13.15,3.78-13.15,17.274c0,0-0.427,11.173,3.611,25.094c4.041,13.924,8.591,25.608,19.251,33.602
				c8.59,6.616,19.421,6.186,23.714,6.186c4.303,0,8.082-2.923,8.082-9.283c0-6.357,0-48.465,0-59.119
				C494.301,410.752,487.51,407.656,480.807,407.656z"/>
			<path style="fill:none;stroke:#B3B3B3;stroke-width:0.1346;" d="M494.195,525.448c0-13.205,0.461-16.916-14.827-22.243
				c-15.284-5.327-24.589-5.928-36.594-20.844c-8.031-9.985-11.339-20.98-13.668-35.907c0,0-2.08-13.474-5.329-25.247
				c-3.214-11.656-10.191-17.6-16.44-17.6c-6.256,0-17.839,10.11-15.907,50.412c1.774,25.096,13.704,50.925,33.975,71.191
				c16.211,16.209,36.365,24.553,47.943,24.553C481.46,549.764,494.195,545.134,494.195,525.448z"/>
			<path style="fill:none;stroke:#A6A6A6;stroke-width:0.1346;" d="M505.394,525.548c0-13.207-0.471-16.913,14.822-22.24
				c15.29-5.328,24.59-5.932,36.597-20.847c8.035-9.982,11.336-20.975,13.668-35.902c0,0,2.083-13.475,5.325-25.247
				c3.218-11.657,10.189-17.605,16.45-17.605c6.248,0,17.831,10.114,15.901,50.417c-1.777,25.092-13.706,50.922-33.972,71.192
				c-16.219,16.213-36.369,24.553-47.946,24.553C518.127,549.87,505.394,545.234,505.394,525.548z"/>
			<path style="fill:none;stroke:#8C8C8C;stroke-width:0.0404;" d="M368.311,448.724c0-65.002,58.955-117.692,131.677-117.692
				c72.72,0,131.672,52.69,131.672,117.692c0,64.999-58.952,117.695-131.672,117.695
				C427.266,566.419,368.311,513.723,368.311,448.724z"/>
			<path style="fill:none;stroke:#B3B3B3;stroke-width:0.1341;" d="M368.311,448.724c0-65.002,58.955-117.692,131.677-117.692
				c72.72,0,131.672,52.69,131.672,117.692c0,64.999-58.952,117.695-131.672,117.695
				C427.266,566.419,368.311,513.723,368.311,448.724z"/>
			
				<linearGradient id="SVGID_2_" gradientUnits="userSpaceOnUse" x1="192.3886" y1="946.6649" x2="197.8481" y2="946.6649" gradientTransform="matrix(-9.4996 -10.8189 -10.8189 9.4996 12621.5889 -6439.5449)">
				<stop  offset="0" style="stop-color:#666666"/>
				<stop  offset="0.1034" style="stop-color:#666666"/>
				<stop  offset="0.5591" style="stop-color:#1A1A1A"/>
				<stop  offset="1" style="stop-color:#1A1A1A"/>
			</linearGradient>
			<path style="fill-rule:evenodd;clip-rule:evenodd;fill:url(#SVGID_2_);" d="M516.157,415.389c5.459,0,25.223,0,31.197,0
				c5.971,0,10.133,2.789,10.133,11.642c0,8.85-0.514,17.448-4.209,28.36c-3.691,10.912-9.366,21.312-16.412,26.382
				c-8.081,6.103-17.959,6.359-22.514,6.359c-4.555,0-6.192-3.09-6.192-7.991c0-4.897,0-46.233,0-53.965
				C508.159,418.438,511.642,415.389,516.157,415.389 M505.675,421.361c0,10.652,0,52.763,0,59.122c0,6.362,3.785,9.282,8.075,9.282
				c4.29,0,15.128,0.429,23.72-6.186c10.654-7.994,15.212-19.681,19.243-33.601c4.047-13.924,3.613-25.097,3.613-25.097
				c0-13.491-6.102-17.273-13.148-17.273c-6.273,0-21.825,0-28.017,0C512.465,407.608,505.675,410.702,505.675,421.361z"/>
			
				<linearGradient id="SVGID_3_" gradientUnits="userSpaceOnUse" x1="201.4755" y1="954.2267" x2="206.9363" y2="954.2267" gradientTransform="matrix(-8.4254 -7.3077 -7.3077 8.4254 9159.9932 -6174.3774)">
				<stop  offset="0" style="stop-color:#666666"/>
				<stop  offset="0.2279" style="stop-color:#666666"/>
				<stop  offset="0.3713" style="stop-color:#FFFFFF"/>
				<stop  offset="0.4599" style="stop-color:#FFFFFF"/>
				<stop  offset="0.5865" style="stop-color:#1A1A1A"/>
				<stop  offset="1" style="stop-color:#1A1A1A"/>
			</linearGradient>
			<path style="fill-rule:evenodd;clip-rule:evenodd;fill:url(#SVGID_3_);" d="M480.807,390.69c-7.433,0-24.626,0-35.576,0
				c-10.959,0-10.766-1.183-12.895-4.176c-1.086-1.531-3.21-4.714-5.045-6.323c-1.496-1.312-2.585-1.866-3.161-2.25
				c-0.287-0.19,15.087-11.603,25.915-17.358c10.823-5.759,26.55-10.314,31.621-10.314c5.071,0,9.966,5.052,9.966,11.324
				c0,6.273,0,15.472,0,21.228C491.632,388.064,488.237,390.69,480.807,390.69 M494.641,357.983c0-11.168-9.534-14.18-11.77-14.18
				c-2.234,0-15.128,0.518-34.46,10.487c-19.338,9.968-29.906,22.003-29.906,23.635c0,1.63,4.723,1.116,7.732,5.066
				c3.009,3.955,6.099,9.712,14.868,9.712c8.766,0,33.858,0,41.249,0c7.395,0,12.287-4.468,12.287-13.319
				C494.641,370.532,494.641,357.983,494.641,357.983z"/>
			
				<linearGradient id="SVGID_4_" gradientUnits="userSpaceOnUse" x1="199.4907" y1="947.9177" x2="204.9487" y2="947.9177" gradientTransform="matrix(-11.8635 -9.6336 -9.6336 11.8635 11997.7568 -8858.0693)">
				<stop  offset="0" style="stop-color:#666666"/>
				<stop  offset="0.1076" style="stop-color:#666666"/>
				<stop  offset="0.424" style="stop-color:#1A1A1A"/>
				<stop  offset="1" style="stop-color:#1A1A1A"/>
			</linearGradient>
			<path style="fill-rule:evenodd;clip-rule:evenodd;fill:url(#SVGID_4_);" d="M491.81,426.221c0,7.734,0,49.067,0,53.968
				c0,4.897-1.637,7.991-6.192,7.991c-4.554,0-14.436-0.257-22.516-6.358c-7.045-5.074-12.714-15.471-16.409-26.383
				c-3.696-10.917-4.214-19.51-4.214-28.361c0-8.852,4.167-11.64,10.139-11.64s25.736,0,31.197,0
				C488.327,415.438,491.81,418.486,491.81,426.221 M480.807,407.656c-6.184,0-21.741,0-28.014,0c-7.043,0-13.15,3.78-13.15,17.274
				c0,0-0.427,11.173,3.611,25.094c4.041,13.924,8.591,25.608,19.251,33.602c8.59,6.616,19.421,6.186,23.714,6.186
				c4.303,0,8.082-2.923,8.082-9.283c0-6.357,0-48.465,0-59.119C494.301,410.752,487.51,407.656,480.807,407.656z"/>
			
				<radialGradient id="SVGID_5_" cx="189.2805" cy="889.4705" r="5.4599" gradientTransform="matrix(12.0668 0 0 -12.0668 -1690.1318 11241.1943)" gradientUnits="userSpaceOnUse">
				<stop  offset="0" style="stop-color:#F2F2F2"/>
				<stop  offset="0.1168" style="stop-color:#F2F2F2"/>
				<stop  offset="0.3427" style="stop-color:#808080"/>
				<stop  offset="0.5786" style="stop-color:#1A1A1A"/>
				<stop  offset="1" style="stop-color:#1A1A1A"/>
			</radialGradient>
			<path style="fill-rule:evenodd;clip-rule:evenodd;fill:url(#SVGID_5_);" d="M592.257,403.708c-6.26,0-13.232,5.947-16.45,17.605
				c-3.242,11.771-5.325,25.247-5.325,25.247c-2.332,14.927-5.634,25.92-13.668,35.902c-12.007,14.915-21.307,15.519-36.597,20.847
				c-15.293,5.327-14.822,9.032-14.822,22.24c0,19.686,12.733,24.322,20.846,24.322c11.577,0,31.727-8.34,47.946-24.553
				c20.266-20.271,32.194-46.1,33.972-71.192C610.088,413.822,598.505,403.708,592.257,403.708 M603.138,454.206
				c-1.849,21.77-13.587,50.877-29.186,66.475c-21.198,21.208-40.235,26.873-48.872,26.873c-8.636,0-17.279-8.019-17.279-17.98
				c0-2.083-0.094-5.877-0.094-5.877c0-9.269,0.231-10.199,15.52-15.988c15.287-5.787,22.062-7.124,29.42-13.199
				c6.416-5.302,17.435-15.418,22.23-44.008c4.331-25.775,9.254-39.456,15.87-39.264
				C600.363,411.515,604.497,438.278,603.138,454.206z"/>
			
				<radialGradient id="SVGID_6_" cx="193.3461" cy="906.0283" r="5.4619" gradientTransform="matrix(27.5533 0 0 -27.5533 -4837.4604 25509.3535)" gradientUnits="userSpaceOnUse">
				<stop  offset="0" style="stop-color:#F2F2F2"/>
				<stop  offset="0.0281" style="stop-color:#F2F2F2"/>
				<stop  offset="0.0674" style="stop-color:#808080"/>
				<stop  offset="0.1629" style="stop-color:#1A1A1A"/>
				<stop  offset="1" style="stop-color:#1A1A1A"/>
			</radialGradient>
			<path style="fill-rule:evenodd;clip-rule:evenodd;fill:url(#SVGID_6_);" d="M479.368,503.205
				c-15.284-5.327-24.589-5.928-36.594-20.844c-8.031-9.985-11.339-20.98-13.668-35.907c0,0-2.08-13.474-5.329-25.247
				c-3.214-11.656-10.191-17.6-16.44-17.6c-6.256,0-17.839,10.11-15.907,50.412c1.774,25.096,13.704,50.925,33.975,71.191
				c16.211,16.209,36.365,24.553,47.943,24.553c8.113,0,20.847-4.63,20.847-24.316C494.195,512.242,494.656,508.532,479.368,503.205
				 M491.781,529.473c0,9.958-8.638,17.977-17.277,17.977c-8.633,0-27.666-5.665-48.872-26.869
				c-15.592-15.594-27.336-44.706-29.186-66.48c-1.353-15.924,2.784-42.691,12.395-42.97c6.618-0.192,11.539,13.489,15.865,39.264
				c4.8,28.592,15.817,38.706,22.238,44.007c7.353,6.072,14.127,7.417,29.417,13.204c15.287,5.791,15.518,6.719,15.518,15.98
				C491.878,523.586,491.781,527.393,491.781,529.473z"/>
			
				<linearGradient id="SVGID_7_" gradientUnits="userSpaceOnUse" x1="193.7504" y1="948.0656" x2="199.2115" y2="948.0656" gradientTransform="matrix(-7.725 -9.2063 -9.2063 7.725 10778.7002 -5146.4067)">
				<stop  offset="0" style="stop-color:#666666"/>
				<stop  offset="0.0211" style="stop-color:#666666"/>
				<stop  offset="0.0549" style="stop-color:#515151"/>
				<stop  offset="0.116" style="stop-color:#4D4D4D"/>
				<stop  offset="0.25" style="stop-color:#FFFFFF"/>
				<stop  offset="0.2658" style="stop-color:#FFFFFF"/>
				<stop  offset="0.5527" style="stop-color:#1A1A1A"/>
				<stop  offset="1" style="stop-color:#1A1A1A"/>
			</linearGradient>
			<path style="fill-rule:evenodd;clip-rule:evenodd;fill:url(#SVGID_7_);" d="M551.56,354.242
				c-19.333-9.969-32.223-10.484-34.461-10.484c-2.232,0-11.77,3.009-11.77,14.177c0,0,0,12.549,0,21.403
				c0,8.848,4.895,13.318,12.287,13.318h41.249c8.767,0,11.86-5.755,14.866-9.71c3.012-3.953,7.735-3.437,7.735-5.071
				C581.466,376.239,570.9,364.209,551.56,354.242 M569.506,384.146c-0.539,0.689-2.257,3.431-3.33,4.505
				c-1.805,1.807-6.083,1.994-11.433,1.994h-35.581c-7.433,0-10.825-2.63-10.825-7.871v-21.229c0-6.273,4.895-11.322,9.965-11.322
				c5.076,0,20.802,4.557,31.627,10.312c10.831,5.759,25.267,17.153,24.986,17.36C571.866,380.165,570.575,382.767,569.506,384.146z
				"/>
			
				<linearGradient id="SVGID_8_" gradientUnits="userSpaceOnUse" x1="126.4831" y1="1050.3002" x2="131.9453" y2="1050.3002" gradientTransform="matrix(-0.6642 -2.6124 -2.6124 0.6642 3257.3608 24.3547)">
				<stop  offset="0" style="stop-color:#000000"/>
				<stop  offset="0.2416" style="stop-color:#000000"/>
				<stop  offset="0.3989" style="stop-color:#333333"/>
				<stop  offset="0.5168" style="stop-color:#666666"/>
				<stop  offset="0.618" style="stop-color:#666666"/>
				<stop  offset="0.7191" style="stop-color:#333333"/>
				<stop  offset="1" style="stop-color:#333333"/>
			</linearGradient>
			<path style="fill-rule:evenodd;clip-rule:evenodd;fill:url(#SVGID_8_);" d="M423.107,377.974c0,0,0,0-1.612,0.101
				c-1.406,0.091-2-0.033-2-0.033s0.658,0.511,2.022,1.021c1.366,0.514,2.998,1.267,4.08,2.346c1.082,1.083,2.388,3.018,3.452,4.429
				c1.058,1.411,2.243,2.776,3.115,3.462c0.862,0.683,1.732,0.759,2.154,0.843c0.536,0.112,1.503,0.03,1.503,0.03
				s-1.099,0.02-2.321-1.2c-0.895-0.901-1.683-2.218-2.959-3.977c-1.055-1.445-2.24-3.057-3.584-4.249
				C425.244,379.215,423.107,377.974,423.107,377.974"/>
			
				<linearGradient id="SVGID_9_" gradientUnits="userSpaceOnUse" x1="200.9409" y1="1011.9233" x2="206.4046" y2="1011.9233" gradientTransform="matrix(-2.8012 -2.325 -2.325 2.8012 3441.384 -2008.2991)">
				<stop  offset="0" style="stop-color:#1A1A1A"/>
				<stop  offset="0.0618" style="stop-color:#1A1A1A"/>
				<stop  offset="0.4101" style="stop-color:#666666"/>
				<stop  offset="0.5674" style="stop-color:#333333"/>
				<stop  offset="0.8371" style="stop-color:#1A1A1A"/>
				<stop  offset="1" style="stop-color:#1A1A1A"/>
			</linearGradient>
			<path style="fill-rule:evenodd;clip-rule:evenodd;fill:url(#SVGID_9_);" d="M505.908,360.912c0,0,0-1.18,0-3.459
				c0-2.282,1.325-6.772,3.165-8.613c2.357-2.354,5.594-4.416,8.244-4.416c2.644,0,6.622,0.591,9.79,1.327
				c3.158,0.736,6.844,1.84,6.844,1.84l-4.05,4.226c0,0-7.486-2.022-10.489-2.318c-3.348-0.334-6.367,0.995-8.499,3.128
				c-2.158,2.153-2.426,5.634-3.018,6.225C507.308,359.436,505.908,360.912,505.908,360.912"/>
			
				<linearGradient id="SVGID_10_" gradientUnits="userSpaceOnUse" x1="173.0083" y1="895.2531" x2="178.4697" y2="895.2531" gradientTransform="matrix(10.0101 0 0 -10.0101 -1305.0397 9319.4229)">
				<stop  offset="0" style="stop-color:#1A1A1A"/>
				<stop  offset="0.1292" style="stop-color:#1A1A1A"/>
				<stop  offset="0.427" style="stop-color:#666666"/>
				<stop  offset="0.5449" style="stop-color:#666666"/>
				<stop  offset="0.8652" style="stop-color:#1A1A1A"/>
				<stop  offset="1" style="stop-color:#1A1A1A"/>
			</linearGradient>
			<path style="fill-rule:evenodd;clip-rule:evenodd;fill:url(#SVGID_10_);" d="M451.345,354.221
				c15.352-7.322,30.115-9.265,30.115-9.265s-17.53,4.398-29.577,10.886c-12.041,6.485-25.092,14.9-25.092,14.9
				S435.159,361.939,451.345,354.221"/>
			
				<linearGradient id="SVGID_11_" gradientUnits="userSpaceOnUse" x1="165.1126" y1="880.7195" x2="170.574" y2="880.7195" gradientTransform="matrix(7.5503 0 0 -7.5503 -805.7325 7064.8926)">
				<stop  offset="0" style="stop-color:#1A1A1A"/>
				<stop  offset="0.1292" style="stop-color:#1A1A1A"/>
				<stop  offset="0.427" style="stop-color:#666666"/>
				<stop  offset="0.5449" style="stop-color:#666666"/>
				<stop  offset="0.8652" style="stop-color:#1A1A1A"/>
				<stop  offset="1" style="stop-color:#1A1A1A"/>
			</linearGradient>
			<path style="fill-rule:evenodd;clip-rule:evenodd;fill:url(#SVGID_11_);" d="M440.917,421.624c0,0,1.451-7.472,3.247-9.263
				c1.793-1.799,4.748-3.593,8.683-3.593c3.939,0,29.304,0,29.304,0s-26.062,1.043-28.494,1.043c-2.433,0-5.846,1.099-7.643,2.898
				C444.225,414.5,440.917,421.624,440.917,421.624"/>
			
				<linearGradient id="SVGID_12_" gradientUnits="userSpaceOnUse" x1="172.1938" y1="880.7195" x2="177.6545" y2="880.7195" gradientTransform="matrix(7.5503 0 0 -7.5503 -793.7482 7064.8926)">
				<stop  offset="0" style="stop-color:#1A1A1A"/>
				<stop  offset="0.1292" style="stop-color:#1A1A1A"/>
				<stop  offset="0.427" style="stop-color:#666666"/>
				<stop  offset="0.5449" style="stop-color:#666666"/>
				<stop  offset="0.8652" style="stop-color:#1A1A1A"/>
				<stop  offset="1" style="stop-color:#1A1A1A"/>
			</linearGradient>
			<path style="fill-rule:evenodd;clip-rule:evenodd;fill:url(#SVGID_12_);" d="M506.367,421.624c0,0,0.617-6.635,3.242-9.263
				c1.799-1.799,4.752-3.593,8.686-3.593c3.941,0,29.301,0,29.301,0s-26.059,1.043-28.491,1.043s-5.693,1.269-7.645,2.898
				C508.309,415.334,506.367,421.624,506.367,421.624"/>
			
				<linearGradient id="SVGID_13_" gradientUnits="userSpaceOnUse" x1="144.2937" y1="860.4832" x2="149.7547" y2="860.4832" gradientTransform="matrix(5.5141 0 0 -5.5141 -403.3186 5196.4512)">
				<stop  offset="0" style="stop-color:#1A1A1A"/>
				<stop  offset="0.1292" style="stop-color:#1A1A1A"/>
				<stop  offset="0.427" style="stop-color:#666666"/>
				<stop  offset="0.5449" style="stop-color:#666666"/>
				<stop  offset="0.8652" style="stop-color:#1A1A1A"/>
				<stop  offset="1" style="stop-color:#1A1A1A"/>
			</linearGradient>
			<path style="fill-rule:evenodd;clip-rule:evenodd;fill:url(#SVGID_13_);" d="M406.099,404.869
				c-4.373,0.465-15.291,10.813-13.589,48.183c0.539,19.917,14.362,45.548,14.362,45.548s-12.537-26.869-12.973-46.323
				c0-13.29,1.107-23.766,3.476-31.617c2.959-9.84,7.62-13.446,10.116-13.937c3.67-0.723,5.807,0.938,8.117,2.702
				c2.523,1.934,6.836,7.821,6.836,7.821s-3.408-6.268-7.546-9.598C410.746,404.3,408.515,404.613,406.099,404.869"/>
			
				<linearGradient id="SVGID_14_" gradientUnits="userSpaceOnUse" x1="174.4346" y1="884.7311" x2="179.8959" y2="884.7311" gradientTransform="matrix(10.1982 0 0 -10.1982 -1341.4797 9518.2998)">
				<stop  offset="0" style="stop-color:#1A1A1A"/>
				<stop  offset="0.1292" style="stop-color:#1A1A1A"/>
				<stop  offset="0.427" style="stop-color:#666666"/>
				<stop  offset="0.5449" style="stop-color:#666666"/>
				<stop  offset="0.8652" style="stop-color:#1A1A1A"/>
				<stop  offset="1" style="stop-color:#1A1A1A"/>
			</linearGradient>
			<path style="fill-rule:evenodd;clip-rule:evenodd;fill:url(#SVGID_14_);" d="M454.201,494.491
				c7.601,4.895,17.7,7.414,23.114,9.056c7.267,2.208,11.093,4.747,13.213,6.869c1.933,1.932,2.607,6.456,2.607,6.456
				s-0.77-4.524-7.096-7.824c-4.335-2.267-9.006-3.712-16.233-6.13c-10.195-3.4-15.619-6.306-19.114-9.207
				c-5.518-4.583-8.739-9.578-10.618-13.637c-1.871-4.063-2.635-5.671-2.635-5.671s5.152,9.732,9.056,13.636
				C450.4,491.94,454.201,494.491,454.201,494.491"/>
			
				<linearGradient id="SVGID_15_" gradientUnits="userSpaceOnUse" x1="182.8747" y1="890.0499" x2="188.3355" y2="890.0499" gradientTransform="matrix(11.7312 0 0 -11.7312 -1638.6143 10928.6689)">
				<stop  offset="0" style="stop-color:#1A1A1A"/>
				<stop  offset="0.1292" style="stop-color:#1A1A1A"/>
				<stop  offset="0.427" style="stop-color:#666666"/>
				<stop  offset="0.5449" style="stop-color:#666666"/>
				<stop  offset="0.8652" style="stop-color:#1A1A1A"/>
				<stop  offset="1" style="stop-color:#1A1A1A"/>
			</linearGradient>
			<path style="fill-rule:evenodd;clip-rule:evenodd;fill:url(#SVGID_15_);" d="M506.725,520.733c0,0-0.028-7.824,2.906-10.76
				c2.295-2.287,6.85-4.379,11.82-6.07c0,0,14.479-4.18,20.945-7.466c6.473-3.285,14.102-9.411,20.768-21.563
				c7.099-12.917,7.623-20.978,7.623-20.978s-0.156,11.174-6.953,24.091c-6.367,12.108-13.313,16.733-19.209,19.859
				c-9.413,4.992-16.306,5.935-23.219,8.27c-7.081,2.401-10.8,4.501-12.393,6.889C507.421,515.396,506.725,520.733,506.725,520.733"
				/>
			
				<linearGradient id="SVGID_16_" gradientUnits="userSpaceOnUse" x1="175.8871" y1="871.8618" x2="181.3481" y2="871.8618" gradientTransform="matrix(6.5483 0 0 -6.5483 -579.7083 6146.6616)">
				<stop  offset="0" style="stop-color:#1A1A1A"/>
				<stop  offset="0.1292" style="stop-color:#1A1A1A"/>
				<stop  offset="0.427" style="stop-color:#666666"/>
				<stop  offset="0.5449" style="stop-color:#666666"/>
				<stop  offset="0.8652" style="stop-color:#1A1A1A"/>
				<stop  offset="1" style="stop-color:#1A1A1A"/>
			</linearGradient>
			<path style="fill-rule:evenodd;clip-rule:evenodd;fill:url(#SVGID_16_);" d="M593.672,404.715
				c3.504,0.664,8.63,5.737,11.162,15.464c2.519,9.656,3.507,22.24,2.709,33.164c-0.795,10.923-2.55,16.98-2.55,16.98
				s3.822-19.851,0.801-37.15c-3.034-17.298-7.817-24.332-12.877-25.292c-3.031-0.58-7.271,0.773-10.657,6.058
				c-8.714,13.597-10.208,30.934-10.208,30.934s2.014-17.625,5.868-27.248C581.488,408.691,588.063,403.653,593.672,404.715"/>
			
				<linearGradient id="SVGID_17_" gradientUnits="userSpaceOnUse" x1="120.9144" y1="910.9777" x2="126.3763" y2="910.9777" gradientTransform="matrix(2.6089 -3.2027 -3.2027 -2.6089 3164.6067 3157.4453)">
				<stop  offset="0" style="stop-color:#1A1A1A"/>
				<stop  offset="0.1292" style="stop-color:#1A1A1A"/>
				<stop  offset="0.3708" style="stop-color:#666666"/>
				<stop  offset="0.4944" style="stop-color:#B3B3B3"/>
				<stop  offset="0.5674" style="stop-color:#B3B3B3"/>
				<stop  offset="0.6685" style="stop-color:#666666"/>
				<stop  offset="0.8652" style="stop-color:#1A1A1A"/>
				<stop  offset="1" style="stop-color:#1A1A1A"/>
			</linearGradient>
			<path style="fill-rule:evenodd;clip-rule:evenodd;fill:url(#SVGID_17_);" d="M575.776,378.02c0,0,0.833,0.148,2.313,0.263
				c1.849,0.142,2.7-0.056,2.7-0.056s-2.416,0.605-4.215,1.628c-1.677,0.959-2.834,2.139-4.39,4.189
				c-2.086,2.737-3.56,5.11-6.398,6.31c-3.763,1.592-7.124,0.697-7.124,0.697s5.681,0.287,7.994-2.03
				c1.581-1.573,2.123-2.675,3.239-4.292c0.72-1.044,2.139-3.144,2.75-3.86C574.965,378.149,575.776,378.02,575.776,378.02"/>
			
				<linearGradient id="SVGID_18_" gradientUnits="userSpaceOnUse" x1="133.4913" y1="1165.8175" x2="138.9519" y2="1165.8175" gradientTransform="matrix(-0.858 -0.9183 -0.9183 0.858 1763.3712 -499.9045)">
				<stop  offset="0" style="stop-color:#1A1A1A"/>
				<stop  offset="0.1292" style="stop-color:#1A1A1A"/>
				<stop  offset="1" style="stop-color:#4D4D4D"/>
			</linearGradient>
			<path style="fill-rule:evenodd;clip-rule:evenodd;fill:url(#SVGID_18_);" d="M575.345,377.304c0,0,1.032,0.234,2.657,0.362
				c1.291,0.1,2.787,0.028,2.787,0.028s-1.259-2.13-3.024-3.891c-1.759-1.765-3.517-3.274-3.517-3.274l-2.663,3.56
				c0,0,1.213,1.013,2.198,1.836C574.762,376.744,575.345,377.304,575.345,377.304"/>
			<polyline style="fill-rule:evenodd;clip-rule:evenodd;fill:#FFFFFF;" points="585.422,505.82 588.734,507.777 592.107,502.61 
				588.481,500.561 			"/>
			<g>
				<defs>
					<rect id="SVGID_56_" x="441.887" y="392.112" width="34.362" height="0.391"/>
				</defs>
				<clipPath id="SVGID_19_">
					<use xlink:href="#SVGID_56_"  style="overflow:visible;"/>
				</clipPath>
				
					<linearGradient id="SVGID_20_" gradientUnits="userSpaceOnUse" x1="157.9096" y1="875.7093" x2="163.371" y2="875.7093" gradientTransform="matrix(6.2917 0 0 -6.2917 -551.633 5902.0078)">
					<stop  offset="0" style="stop-color:#1A1A1A"/>
					<stop  offset="0.0472" style="stop-color:#1A1A1A"/>
					<stop  offset="0.9291" style="stop-color:#666666"/>
					<stop  offset="1" style="stop-color:#666666"/>
				</linearGradient>
				<rect x="441.887" y="392.112" style="clip-path:url(#SVGID_19_);fill:url(#SVGID_20_);" width="34.362" height="0.391"/>
			</g>
			<g>
				<defs>
					<rect id="SVGID_59_" x="517.404" y="392.112" width="30.24" height="0.391"/>
				</defs>
				<clipPath id="SVGID_21_">
					<use xlink:href="#SVGID_59_"  style="overflow:visible;"/>
				</clipPath>
				
					<linearGradient id="SVGID_22_" gradientUnits="userSpaceOnUse" x1="163.0484" y1="869.5611" x2="168.5089" y2="869.5611" gradientTransform="matrix(5.538 0 0 -5.538 -385.5584 5207.9375)">
					<stop  offset="0" style="stop-color:#000000"/>
					<stop  offset="0.2416" style="stop-color:#000000"/>
					<stop  offset="0.3989" style="stop-color:#333333"/>
					<stop  offset="0.5168" style="stop-color:#666666"/>
					<stop  offset="0.618" style="stop-color:#666666"/>
					<stop  offset="0.7191" style="stop-color:#333333"/>
					<stop  offset="0.9291" style="stop-color:#808080"/>
					<stop  offset="1" style="stop-color:#808080"/>
				</linearGradient>
				<rect x="517.404" y="392.112" style="clip-path:url(#SVGID_21_);fill:url(#SVGID_22_);" width="30.24" height="0.391"/>
			</g>
			<g>
				<defs>
					<path id="SVGID_62_" d="M517.404,392.112c0,0-1.759-0.139-2.766-0.31c-1.017-0.175-2.388-0.814-2.388-0.814l-0.252,0.379
						c0,0,0.985,0.479,2.332,0.756c1.344,0.271,3.074,0.381,3.074,0.381h30.24v-0.391"/>
				</defs>
				<clipPath id="SVGID_23_">
					<use xlink:href="#SVGID_62_"  style="overflow:visible;"/>
				</clipPath>
				
					<linearGradient id="SVGID_24_" gradientUnits="userSpaceOnUse" x1="168.259" y1="877.3929" x2="173.7207" y2="877.3929" gradientTransform="matrix(6.5266 0 0 -6.5266 -586.1616 6118.1382)">
					<stop  offset="0" style="stop-color:#737373"/>
					<stop  offset="0.063" style="stop-color:#737373"/>
					<stop  offset="0.979" style="stop-color:#4D4D4D"/>
					<stop  offset="1" style="stop-color:#4D4D4D"/>
				</linearGradient>
				<rect x="511.997" y="390.988" style="clip-path:url(#SVGID_23_);fill:url(#SVGID_24_);" width="35.646" height="1.515"/>
			</g>
			<g>
				<defs>
					<path id="SVGID_65_" d="M542.852,350.382c0,0,8.337,3.196,18.283,9.6c9.023,5.807,14.18,10.908,14.18,10.908l-0.324,0.302
						c0,0-5.375-5.276-14.143-10.817c-11.399-7.202-18.196-9.55-18.196-9.55"/>
				</defs>
				<clipPath id="SVGID_25_">
					<use xlink:href="#SVGID_65_"  style="overflow:visible;"/>
				</clipPath>
				
					<linearGradient id="SVGID_26_" gradientUnits="userSpaceOnUse" x1="169.3819" y1="877.6688" x2="174.8428" y2="877.6688" gradientTransform="matrix(5.9811 0 0 -5.9811 -470.438 5610.2114)">
					<stop  offset="0" style="stop-color:#1A1A1A"/>
					<stop  offset="0.063" style="stop-color:#1A1A1A"/>
					<stop  offset="0.9475" style="stop-color:#595959"/>
					<stop  offset="1" style="stop-color:#595959"/>
				</linearGradient>
				<rect x="542.652" y="350.382" style="clip-path:url(#SVGID_25_);fill:url(#SVGID_26_);" width="32.662" height="20.81"/>
			</g>
			
				<linearGradient id="SVGID_27_" gradientUnits="userSpaceOnUse" x1="115.145" y1="831.3082" x2="120.6054" y2="831.3082" gradientTransform="matrix(2.8475 0 0 -2.8475 151.0327 2723.5317)">
				<stop  offset="0" style="stop-color:#1A1A1A"/>
				<stop  offset="0.0315" style="stop-color:#1A1A1A"/>
				<stop  offset="0.9475" style="stop-color:#666666"/>
				<stop  offset="1" style="stop-color:#666666"/>
			</linearGradient>
			<path style="fill-rule:evenodd;clip-rule:evenodd;fill:url(#SVGID_27_);" d="M494.457,368.771c0,0-0.028-6.873-0.028-10.269
				c0-5.416-1.138-8.297-4.249-11.02c-2.881-2.522-5.784-3.433-7.115-3.484c-1.524-0.053-4.156,0.306-4.156,0.306l0.229,0.362
				c0,0,2.555-0.349,4.039-0.298c1.291,0.051,4.016,1.024,6.809,3.473c3.018,2.638,4.222,6.264,4.222,11.516
				c0,3.291,0.019,9.038,0.019,9.038"/>
			
				<linearGradient id="SVGID_28_" gradientUnits="userSpaceOnUse" x1="185.1767" y1="919.4671" x2="190.6396" y2="919.4671" gradientTransform="matrix(21.3838 -15.7783 -15.7783 -21.3838 10917.2422 22990.084)">
				<stop  offset="0" style="stop-color:#E5E5E5"/>
				<stop  offset="0.0506" style="stop-color:#E5E5E5"/>
				<stop  offset="0.427" style="stop-color:#FFFFFF"/>
				<stop  offset="0.8034" style="stop-color:#FFFFFF"/>
				<stop  offset="0.9551" style="stop-color:#E5E5E5"/>
				<stop  offset="1" style="stop-color:#E5E5E5"/>
			</linearGradient>
			<path style="fill-rule:evenodd;clip-rule:evenodd;fill:url(#SVGID_28_);" d="M492.598,330.621
				c-55.078,2.708-101.175,35.518-118.06,80.334c0,0,12.788-35.015,53.65-58.562C462.664,332.515,492.598,330.621,492.598,330.621"
				/>
			<path style="fill-rule:evenodd;clip-rule:evenodd;fill:#FFFFFF;" d="M558.098,449.977c-4.041,13.92-7.305,21.967-16.634,32.045
				c-4.686,4.407-10.404,6.758-13.728,7.661c0,0,11.436-0.638,19.692-12.121C556.679,464.708,558.098,449.977,558.098,449.977"/>
			<path style="fill-rule:evenodd;clip-rule:evenodd;fill:#FFFFFF;" d="M609.405,456.05c-2.329,24.349-14.195,50.484-33.832,70.115
				c-5.316,5.322-11.124,9.759-16.852,13.369c0,0,17.563-6.987,34.146-30.12C610.303,484.133,609.405,456.05,609.405,456.05"/>
			<path style="fill-rule:evenodd;clip-rule:evenodd;fill:#FFFFFF;" d="M467.193,345.156c-2.357,0.282-5.787-0.055-20.526,6.99
				c-19.627,9.378-29.475,23.745-29.475,25.376c0,0,4.891-9.052,22.247-19.613C456.712,347.401,467.193,345.156,467.193,345.156"/>
			<path style="fill-rule:evenodd;clip-rule:evenodd;fill:#FFFFFF;" d="M460.04,406.389c-7.614,0-12.255-0.466-16.233,2.794
				c-3.846,3.037-5.48,9.06-5.48,15.748c0,0-2.134-10.973,4.761-16.757C448.822,403.358,460.04,406.389,460.04,406.389"/>
			<path style="fill-rule:evenodd;clip-rule:evenodd;fill:#FFFFFF;" d="M417.131,406.453c-2.75-2.128-6.312-4.287-9.982-4.176
				c-6.842,0.208-16.317,9.04-17.156,38.856c0,0-1.947-14.797,5.663-31.264c3.743-8.114,9.86-10.368,14.116-8.959
				C413.833,402.253,417.131,406.453,417.131,406.453"/>
			
				<linearGradient id="SVGID_29_" gradientUnits="userSpaceOnUse" x1="-2311.3215" y1="1023.3021" x2="-2305.8618" y2="1023.3021" gradientTransform="matrix(0.0687 -0.1069 -0.1069 -0.0687 824.8298 187.8959)">
				<stop  offset="0" style="stop-color:#4D4D4D"/>
				<stop  offset="0.1263" style="stop-color:#4D4D4D"/>
				<stop  offset="1" style="stop-color:#B3B3B3"/>
			</linearGradient>
			<path style="fill-rule:evenodd;clip-rule:evenodd;fill:url(#SVGID_29_);" d="M559.7,366.59
				c5.023,3.439,13.257,9.559,13.257,9.559s-6.797-5.919-12.827-10.032c-9.899-6.739-21.32-10.529-21.32-10.529
				S549.929,359.916,559.7,366.59"/>
			
				<linearGradient id="SVGID_30_" gradientUnits="userSpaceOnUse" x1="231.5373" y1="912.463" x2="236.9981" y2="912.463" gradientTransform="matrix(-7.0772 12.258 12.258 7.0772 -9147.4277 -8881.5078)">
				<stop  offset="0" style="stop-color:#B3B3B3"/>
				<stop  offset="0.0787" style="stop-color:#B3B3B3"/>
				<stop  offset="0.9214" style="stop-color:#1A1A1A"/>
				<stop  offset="1" style="stop-color:#1A1A1A"/>
			</linearGradient>
			<path style="fill-rule:evenodd;clip-rule:evenodd;fill:url(#SVGID_30_);" d="M380.234,490.65
				c-0.395-0.647-0.926-0.941-1.349-0.941c-0.422,0-1.21-0.591-1.21-0.591l0.004,0.003c-5.205-12.587-8.047-26.191-8.047-40.396
				c0-16.085,3.648-31.412,10.245-45.352c0,0-8.102,21.493-8.102,45.467C371.776,472.813,380.234,490.65,380.234,490.65"/>
			<g>
				<g>
					<defs>
						<path id="SVGID_31_" d="M619.62,485.445c-7.755,15.051-15.946,24.28-15.946,24.28c0.502-0.005,1.005,0.044,1.535,0.12
							c3.156,0.491,5.368-0.011,5.368-0.011h-0.005c12.173-17.71,21.189-39.188,21.189-61.502
							C631.76,448.332,627.375,470.384,619.62,485.445"/>
					</defs>
					<clipPath id="SVGID_32_">
						<use xlink:href="#SVGID_31_"  style="overflow:visible;"/>
					</clipPath>
					
						<linearGradient id="SVGID_33_" gradientUnits="userSpaceOnUse" x1="0" y1="0" x2="1" y2="0" gradientTransform="matrix(-28.7954 0 0 28.7954 631.7646 479.1989)">
						<stop  offset="0" style="stop-color:#B3B3B3"/>
						<stop  offset="0.0169" style="stop-color:#B3B3B3"/>
						<stop  offset="0.0954" style="stop-color:#999999"/>
						<stop  offset="0.277" style="stop-color:#636363"/>
						<stop  offset="0.434" style="stop-color:#3B3B3B"/>
						<stop  offset="0.5585" style="stop-color:#232323"/>
						<stop  offset="0.6348" style="stop-color:#1A1A1A"/>
						<stop  offset="1" style="stop-color:#1A1A1A"/>
					</linearGradient>
					<rect x="603.674" y="448.332" style="clip-path:url(#SVGID_32_);fill:url(#SVGID_33_);" width="28.086" height="62.005"/>
				</g>
			</g>
			<path style="fill-rule:evenodd;clip-rule:evenodd;" d="M565.468,459.498c-0.044,1.136-0.948,3.306-1.671,5.586
				c-1.403,4.434-3.935,10.339-7.056,15.068c0,0-4.992,8.189-14.383,13.706c-5.718,3.364-13.968,5.144-21.575,7.791
				c0,0-10.657,3.189-13.609,6.741c-3.707,4.462-3.477,8.808-3.477,14.769c0,5.955,0.786,11.683,2.856,16.687
				c2.16,5.207,9.541,12.169,19.411,12.169c12.453,0,26.146-6.083,35.724-11.542c12.234-6.965,20.665-13.5,30.458-25.491
				c10.529-12.883,16.335-24.007,18.751-26.173c2.553-2.287,4.228-2.148,5.11-2.318c6.694-1.314,9.871-11.605,9.871-11.605
				c-2.981,13.802-19.331,38.164-16.453,33.749c-19.19,29.421-62.746,56.023-109.775,56.023c-56.104,0-103.61-31.194-121.987-75.631
				c-4.348-10.503-7.179-21.78-7.824-33.473c-0.355-6.423-0.095-10.203-0.12-10.708c0,0,0.232,7.218,1.247,8.145
				c0.939,0.859,1.023,2.588,1.023,2.588c11.045,73.352,77.95,94.513,100.525,96.539c5.983,0.542,9.38,0.063,14.278-2.803
				c9.335-5.447,9.933-16.288,9.933-25.866c0-9.57,0.069-11.598-4.521-16.191c-4.596-4.594-17.941-6.954-23.812-8.884
				c-5.866-1.925-9.562-3.642-12.138-5.268c-8.283-5.216-12.117-11.873-14.216-15.277c0,0,0.884,1.129,1.311,1.634
				c0.324,0.397,4.009,5.489,12.03,11.006c4.459,3.063,8.635,4.508,16.612,5.92c11.054,1.964,19.15,1.57,27.982,1.57
				c19.278,0,31.35-3.169,37.464-5.928c4.864-2.197,9.129-5.386,12.543-8.604c2.017-1.91,3.894-3.713,6.027-6.719
				c0.761-1.077,1.702-1.905,5.042-8.098"/>
			<path style="fill-rule:evenodd;clip-rule:evenodd;fill:#FFFFFF;" d="M377.68,489.12c18.01,43.551,67.403,74.951,122.386,74.951
				c46.091,0,86.476-21.819,108.94-54.529c11.935-17.36,21.332-38.951,21.332-60.818c0,22.311-7.015,43.155-19.184,60.871
				c-22.925,33.372-64.137,55.642-111.166,55.642C443.882,565.237,396.055,533.56,377.68,489.12l-0.004-0.003"/>
		</g>
	</g>
</g>
</svg>
