<?xml version="1.0" encoding="UTF-8"?>
<!DOCTYPE svg PUBLIC "-//W3C//DTD SVG 1.1//EN" "http://www.w3.org/Graphics/SVG/1.1/DTD/svg11.dtd">
<!-- Creator: CorelDRAW X8 -->
<svg xmlns="http://www.w3.org/2000/svg" xml:space="preserve" width="2.0318mm" height="2.0318mm" version="1.1" style="shape-rendering:geometricPrecision; text-rendering:geometricPrecision; image-rendering:optimizeQuality; fill-rule:evenodd; clip-rule:evenodd"
viewBox="0 0 203 203"
 xmlns:xlink="http://www.w3.org/1999/xlink">
 <defs>
  <style type="text/css">
   <![CDATA[
    .fil0 {fill:#FEFEFE}
    .fil5 {fill:#FAD374}
    .fil6 {fill:#E22832}
    .fil3 {fill:#E2BC6B}
    .fil2 {fill:#AE935C}
    .fil1 {fill:#232322}
    .fil4 {fill:#15599E}
   ]]>
  </style>
 </defs>
 <g id="Layer_x0020_1">
  <metadata id="CorelCorpID_0Corel-Layer"/>
  <g id="_2025454965408">
   <path class="fil0" d="M174 107c-3,2 -10,4 -18,3 -4,3 -13,4 -24,4 -17,0 -15,10 -31,10 -16,0 -14,-10 -31,-10 -10,0 -20,-1 -24,-4 -8,1 -15,-1 -18,-3 -11,0 -14,-3 -15,-5 7,1 41,2 65,2 8,0 12,-5 23,-5 11,0 15,5 23,5 24,0 58,-1 65,-2 -1,2 -4,5 -15,5z"/>
   <path class="fil1" d="M101 101c-9,0 -16,4 -16,10 0,5 7,10 16,10 9,0 16,-5 16,-10 0,-6 -7,-10 -16,-10z"/>
   <path class="fil2" d="M116 111c0,5 -7,9 -15,9 -8,0 -14,-4 -14,-9 0,-5 6,-9 14,-9 8,0 15,4 15,9zm-15 -8c-4,0 -8,3 -8,8 0,4 4,8 8,8 5,0 8,-4 8,-8 0,-5 -3,-8 -8,-8zm8 1c1,2 2,4 2,7 0,2 -1,5 -2,6 3,-1 5,-4 5,-6 0,-3 -2,-6 -5,-7zm-18 7c0,-3 1,-5 3,-7 -4,1 -6,4 -6,7 0,2 2,5 6,6 -2,-1 -3,-4 -3,-6z"/>
   <path class="fil2" d="M112 115c0,0 0,1 -1,2 -2,2 -6,3 -10,3 -4,0 -8,-1 -10,-3 -1,-1 -1,-2 -2,-3 1,1 3,2 5,3 -2,-1 -3,-4 -3,-6 0,-3 1,-5 3,-7 -2,1 -4,2 -5,3 1,-1 1,-2 2,-2 2,-2 6,-3 10,-3 4,0 8,1 10,2 1,1 1,2 1,3 -1,-1 -2,-2 -3,-3 1,2 2,4 2,7 0,2 -1,5 -2,6 1,0 2,-1 3,-2zm-11 -12c-4,0 -8,3 -8,8 0,4 4,8 8,8 5,0 8,-4 8,-8 0,-5 -3,-8 -8,-8z"/>
   <path class="fil3" d="M94 114c-1,-1 -1,-2 -1,-3 0,0 0,0 0,0 0,1 0,2 1,3z"/>
   <path class="fil4" d="M103 116c1,0 0,0 0,0 1,0 2,0 3,-1 0,-1 0,-1 1,-2 0,0 0,0 0,-1l1 1 -1 5 -1 -1 0 2 -3 -3z"/>
   <path class="fil2" d="M95 112c0,-1 0,-1 0,-1 0,-1 0,-2 1,-3 0,0 0,-1 1,-2 0,0 1,0 2,-1 1,0 1,0 2,0 1,0 1,0 2,0 1,1 2,1 2,1l-10 6z"/>
   <path class="fil2" d="M101 117c-1,0 -1,-1 -2,-1 -1,0 -2,0 -2,-1l10 -6c0,1 1,1 1,2 0,0 -1,1 -1,1l0 0c0,1 0,1 0,1l0 0c0,0 0,0 0,0 -1,1 -1,1 -1,1 0,0 0,1 0,1 -1,1 -1,1 -2,1l0 0c0,0 -1,0 -1,0 0,0 0,0 0,0l0 0c0,0 -1,1 -2,1z"/>
   <path class="fil5" d="M105 111c0,2 -2,4 -4,4 -2,0 -4,-2 -4,-4 0,-2 2,-4 4,-4 2,0 4,2 4,4zm-4 -5c-3,0 -5,2 -5,5 0,2 2,4 5,4 3,0 5,-2 5,-4 0,-3 -2,-5 -5,-5z"/>
   <path class="fil2" d="M101 106c0,0 0,0 0,0l1 1c-1,0 -1,0 -1,0l0 -1z"/>
   <path class="fil2" d="M100 106c0,0 0,0 0,0l1 1c0,0 -1,0 -1,0l0 -1z"/>
   <path class="fil2" d="M99 107c0,-1 0,-1 1,-1l0 1c0,0 0,0 0,0l-1 0z"/>
   <path class="fil2" d="M98 107c0,0 1,0 1,0l0 0c0,0 0,0 0,0l-1 0z"/>
   <path class="fil2" d="M98 108c0,-1 0,-1 0,-1l1 0c0,1 0,1 -1,1l0 0z"/>
   <path class="fil2" d="M97 108c0,0 0,0 1,0l0 0c0,0 0,0 0,0l-1 0z"/>
   <path class="fil2" d="M97 109c0,0 0,-1 0,-1l1 0c0,0 0,1 0,1l-1 0z"/>
   <path class="fil2" d="M97 110c0,-1 0,-1 0,-1l0 0c1,0 0,0 0,0l0 1z"/>
   <path class="fil2" d="M96 110c0,0 0,0 1,0l0 0c0,0 0,0 0,0l-1 0z"/>
   <path class="fil2" d="M97 111c-1,0 -1,0 0,0l0 -1c0,0 0,1 0,1l0 0z"/>
   <path class="fil2" d="M97 112c0,0 0,0 0,-1l0 0c0,0 0,0 0,0l0 1z"/>
   <path class="fil2" d="M97 113c0,0 0,-1 0,-1l0 0c0,0 0,0 0,0l0 1z"/>
   <path class="fil2" d="M97 113c0,0 0,0 0,0l0 -1c1,0 1,1 1,1l-1 0z"/>
   <path class="fil2" d="M98 114c0,0 0,0 0,0l0 -1c0,0 0,0 0,0l0 1z"/>
   <path class="fil2" d="M98 115c0,0 0,-1 0,-1l0 -1c0,0 0,0 0,1l0 1z"/>
   <path class="fil2" d="M99 115c0,0 0,0 0,0l0 -1c0,0 0,0 0,0l0 1z"/>
   <path class="fil2" d="M100 115c0,0 0,0 0,0l-1 -1c1,0 1,0 1,0l0 1z"/>
   <path class="fil2" d="M101 115c0,0 -1,0 -1,0l0 0c0,-1 0,-1 0,0l1 0z"/>
   <path class="fil2" d="M102 115c0,0 -1,0 -1,0l0 0c0,0 0,0 0,0l1 0z"/>
   <path class="fil2" d="M102 115c0,0 0,0 0,0l-1 0c1,0 1,-1 1,0l0 0z"/>
   <path class="fil2" d="M103 115c0,0 0,0 0,0l-1 0c0,-1 0,-1 1,-1l0 1z"/>
   <path class="fil2" d="M104 114c0,1 0,1 -1,1l0 -1c0,0 0,0 0,0l1 0z"/>
   <path class="fil2" d="M105 114c0,0 -1,0 -1,0l-1 0c0,0 1,0 1,0l1 0z"/>
   <path class="fil2" d="M105 113c0,0 0,0 0,0l-1 0c0,0 0,0 0,0l1 0z"/>
   <path class="fil2" d="M105 112c0,1 0,1 0,1l-1 0c0,0 1,0 1,0l0 -1z"/>
   <path class="fil2" d="M106 112c0,0 0,0 -1,0l0 0c0,0 0,0 0,0l1 0z"/>
   <path class="fil2" d="M106 111c0,0 0,0 0,0l-1 1c0,0 0,-1 0,-1l1 0z"/>
   <path class="fil2" d="M106 110c0,0 0,1 0,1l-1 0c0,0 0,0 0,0l1 -1z"/>
   <path class="fil2" d="M106 109c0,1 0,1 0,1l-1 0c0,0 0,0 0,0l1 -1z"/>
   <path class="fil2" d="M105 109c0,0 1,0 0,0l0 1c0,0 0,-1 0,-1l0 0z"/>
   <path class="fil2" d="M105 108c0,0 0,0 0,0l0 1c0,0 0,0 0,0l0 -1z"/>
   <path class="fil2" d="M104 107c1,0 1,1 1,1l0 0c-1,0 -1,0 -1,0l0 -1z"/>
   <path class="fil2" d="M104 107c0,0 0,0 0,0l0 1c0,0 0,0 0,0l0 -1z"/>
   <path class="fil2" d="M103 107c0,0 0,0 0,0l0 0c0,0 0,0 0,0l0 0z"/>
   <path class="fil2" d="M102 106c0,0 1,0 1,0l0 1c0,0 0,0 -1,0l0 -1z"/>
   <path class="fil2" d="M101 106c1,0 1,0 1,0l0 1c0,0 0,0 0,0l-1 -1z"/>
   <path class="fil5" d="M107 113c1,-1 1,-2 1,-2 0,-1 0,-2 -1,-3 0,-1 0,-1 -1,-2 -1,-1 -1,-1 -2,-1 -1,-1 -2,-1 -3,-1 -1,0 -1,0 -2,1 -1,0 -2,0 -3,1 -1,1 -1,1 -1,2 0,1 -1,2 -1,3 0,1 1,1 1,2 0,1 0,2 1,3 1,0 2,0 3,1 1,0 1,1 2,1 1,0 2,-1 3,-1l0 0 2 2 0 -2 1 1 1 -5 -1 0zm-12 -1c0,-1 0,-1 0,-1 0,-1 0,-2 1,-3 0,0 0,-1 1,-2 0,0 1,0 2,-1 1,0 1,0 2,0 1,0 1,0 2,0 1,1 2,1 2,1l-10 6zm6 5c-1,0 -1,-1 -2,-1 -1,0 -2,0 -2,-1l10 -6c0,1 1,1 1,2 0,0 -1,1 -1,1l0 0c0,1 0,1 0,1l0 0c0,0 0,0 0,0 -1,1 -1,1 -1,1 0,0 0,1 0,1 -1,1 -1,1 -2,1l0 0c0,0 -1,0 -1,0 0,0 0,0 0,0l0 0c0,0 -1,1 -2,1zm5 1l-2 -2c1,0 2,0 2,-1 0,0 1,0 1,0l-1 3zm1 -1l0 0 0 -3 0 0c0,0 0,-1 0,-1l1 0 -1 4z"/>
   <path class="fil6" d="M101 107c-2,0 -3,2 -3,3l4 -2c0,0 0,-1 -1,-1z"/>
   <path class="fil6" d="M100 113c0,1 1,1 1,1 2,0 3,-1 3,-3l-4 2z"/>
   <path class="fil4" d="M96 115c0,-1 0,-1 0,-2 -1,0 -1,0 -1,-1l11 -5c0,0 0,1 1,1 0,1 0,1 0,1l-11 6z"/>
   <polygon class="fil5" points="99,110 99,108 99,109 100,108 101,108 101,108 101,108 100,108 99,109 99,109 "/>
   <polygon class="fil5" points="101,114 102,113 102,113 103,112 103,112 104,112 103,113 103,112 102,113 102,113 "/>
   <polygon class="fil5" points="98,111 98,111 98,112 99,112 99,111 99,111 99,113 99,113 99,112 98,112 98,113 98,114 "/>
   <path class="fil5" d="M100 111l0 0 0 -1c0,0 0,0 0,1l0 0c0,0 0,0 0,0l0 0zm0 0c0,0 0,0 0,0l0 -1c0,0 0,0 0,0l-1 0 0 3 1 0 0 -1 0 0 0 1 0 -1 0 -1z"/>
   <polygon class="fil5" points="101,111 100,110 100,110 101,111 101,109 101,109 101,111 101,112 101,112 "/>
   <path class="fil5" d="M102 110c0,0 0,0 0,0l0 0c0,-1 0,-1 0,-1l0 0c0,0 0,0 0,0l0 0 0 1 0 -1 0 0 0 1 0 0c0,0 0,0 0,0l0 1c0,0 0,0 0,0l0 0c0,0 0,0 0,0l0 0 0 0 0 0 0 0 0 -1 0 0z"/>
   <polygon class="fil5" points="103,108 103,108 103,111 103,110 103,111 103,111 "/>
   <polygon class="fil5" points="104,108 105,108 105,108 104,108 104,109 104,109 104,109 104,109 104,110 105,110 105,110 104,110 "/>
   <path class="fil5" d="M105 108l0 0 0 -1c0,0 0,0 0,0l0 1c0,0 0,0 0,0l0 0zm0 0c1,0 1,0 1,0l0 -1c0,0 -1,0 -1,0l0 0 0 3 0 0 0 -1 0 -1 0 1 1 0 -1 -1z"/>
   <path class="fil5" d="M97 112l0 0 0 0 0 2 0 0 0 -1 1 0 0 0c0,1 0,1 -1,1l0 0c0,0 0,0 0,0l0 -2c0,0 0,0 0,0l0 -1c0,0 1,0 1,1l0 0 -1 0z"/>
   <path class="fil1" d="M189 102c-7,0 -41,1 -65,1 -3,0 -6,-1 -9,-2 -4,-1 -8,-3 -14,-3 -6,0 -10,2 -14,3 -3,1 -6,2 -9,2 -24,0 -58,-1 -65,-1l-1 0 0 1c1,2 4,4 16,4 4,4 13,4 18,4 3,2 10,4 24,4 8,0 12,2 15,5 4,2 8,4 16,4 8,0 12,-2 16,-4 3,-3 7,-5 15,-5 13,0 21,-2 24,-4 5,0 14,0 18,-4 12,0 15,-2 16,-4l0 -1 -1 0zm-15 5c-3,2 -10,4 -18,3 -4,3 -13,4 -24,4 -17,0 -15,10 -31,10 -16,0 -14,-10 -31,-10 -10,0 -20,-1 -24,-4 -8,1 -15,-1 -18,-3 -11,0 -14,-3 -15,-5 7,1 41,2 65,2 8,0 12,-5 23,-5 11,0 15,5 23,5 24,0 58,-1 65,-2 -1,2 -4,5 -15,5z"/>
   <path class="fil1" d="M188 103l1 -1c0,0 -1,1 -1,1l-1 0c1,0 1,0 1,0z"/>
   <path class="fil1" d="M187 103c-3,2 -16,3 -61,3 -5,0 -6,-1 -7,-1 -1,0 -1,1 0,2 0,0 0,1 0,1 0,-1 1,0 5,0 32,0 39,-1 49,-2 -5,3 -28,3 -47,3 -2,0 -4,0 -6,0 0,0 -1,0 0,1 0,0 0,1 0,2 0,-1 0,-2 4,-2 19,0 27,0 31,-1 -3,2 -8,3 -29,3 -9,0 -10,10 -25,10 -15,0 -16,-10 -25,-10 -21,0 -26,-1 -29,-3 4,1 12,1 31,1 4,0 4,1 4,2 0,-1 0,-2 0,-2 1,-1 0,-1 0,-1 -2,0 -4,0 -6,0 -19,0 -42,0 -46,-3 9,1 16,2 48,2 4,0 5,-1 5,0 0,0 0,-1 1,-1 0,-1 0,-2 -1,-2 -1,0 -2,1 -7,1 -45,0 -57,-1 -61,-3l-1 0c2,1 5,2 15,3 2,2 8,3 17,3 3,3 11,3 28,3 12,0 12,11 27,11 15,0 15,-11 28,-11 16,0 24,0 27,-3 9,0 15,-1 17,-3 10,-1 13,-2 15,-3l-1 0z"/>
   <path class="fil1" d="M14 103l0 -1c0,0 0,1 0,1l1 0c-1,0 -1,0 -1,0z"/>
   <polygon class="fil1" points="132,90 151,90 151,88 138,88 138,79 132,79 "/>
   <path class="fil1" d="M27 79l0 11 5 0c0,0 0,-4 0,-4 0,0 10,0 10,0 0,0 0,4 0,4l6 0 0 -11 -6 0c0,0 0,4 0,5 0,0 -10,0 -10,0 0,-1 0,-5 0,-5l-5 0z"/>
   <path class="fil1" d="M97 79l-5 5 -6 -5 -6 0 8 7c0,0 0,4 0,4l5 0 0 -4c0,-1 8,-7 8,-7l-4 0z"/>
   <polygon class="fil1" points="157,90 175,90 175,88 162,88 162,85 175,85 175,84 162,84 162,81 175,81 175,79 157,79 "/>
   <path class="fil1" d="M105 82c0,2 3,3 7,4 4,0 6,0 6,1 0,1 -1,1 -4,1 -4,0 -8,-1 -8,-1 0,0 -1,3 -1,3 1,0 4,0 9,0 5,0 10,0 10,-3 0,-2 -2,-3 -8,-4 -2,0 -5,0 -5,-1 0,-1 1,-1 4,-1 4,0 7,0 7,0l1 -2c-1,0 -4,0 -9,0 -4,0 -9,0 -9,3z"/>
   <path class="fil1" d="M0 85c0,3 4,5 12,5 3,0 6,0 6,0l1 -2c-1,0 -3,0 -6,0 -5,0 -8,-1 -8,-3 0,-3 3,-4 8,-4 2,0 5,0 6,0l-1 -2c0,0 -3,0 -6,0 -8,0 -12,2 -12,6z"/>
   <path class="fil1" d="M56 90l6 0 0 -9c1,0 2,0 3,0 1,0 2,0 3,0 2,0 2,1 2,2 0,0 -1,1 -2,1 -1,0 -2,0 -3,0 -1,0 -1,0 -2,0l6 6 8 0 -7 -4c1,-1 2,-1 3,-1 2,-1 3,-1 3,-2 0,-2 -1,-3 -4,-4 -2,0 -4,0 -7,0 -4,0 -8,0 -9,0l0 11z"/>
   <path class="fil1" d="M183 90l5 0 0 -9c1,0 2,0 3,0 2,0 3,0 4,0 1,0 2,1 2,2 0,0 -1,1 -3,1 -1,0 -2,0 -3,0 0,0 -1,0 -1,0l6 6 7 0 -6 -4c1,-1 2,-1 3,-1 1,-1 2,-1 2,-2 0,-2 0,-3 -4,-4 -1,0 -4,0 -7,0 -4,0 -8,0 -8,0l0 11z"/>
  </g>
 </g>
</svg>
