<?xml version="1.0" encoding="utf-8"?>
<!-- Generator: Adobe Illustrator 24.0.0, SVG Export Plug-In . SVG Version: 6.00 Build 0)  -->
<svg version="1.1" id="Layer_1" xmlns="http://www.w3.org/2000/svg" xmlns:xlink="http://www.w3.org/1999/xlink" x="0px" y="0px"
	 viewBox="0 0 1080 1080" style="enable-background:new 0 0 1080 1080;" xml:space="preserve">
<style type="text/css">
	.st0{fill:#131E29;}
	.st1{fill:#C9C9CA;}
	.st2{fill:url(#SVGID_1_);}
	.st3{fill:url(#SVGID_2_);}
	.st4{fill:url(#SVGID_3_);}
	.st5{fill:url(#SVGID_4_);}
	.st6{fill:url(#SVGID_5_);}
	.st7{fill:url(#SVGID_6_);}
	.st8{fill:url(#SVGID_7_);}
	.st9{fill:url(#SVGID_8_);}
	.st10{fill:url(#SVGID_9_);}
	.st11{fill:url(#SVGID_10_);}
	.st12{fill:url(#SVGID_11_);}
	.st13{fill:url(#SVGID_12_);}
	.st14{fill:url(#SVGID_13_);}
	.st15{fill:url(#SVGID_14_);}
	.st16{fill:url(#SVGID_15_);}
	.st17{fill:url(#SVGID_16_);}
	.st18{fill:url(#SVGID_17_);}
	.st19{fill:url(#SVGID_18_);}
	.st20{fill:url(#SVGID_19_);}
	.st21{fill:url(#SVGID_20_);}
	.st22{fill:url(#SVGID_21_);}
	.st23{fill:url(#SVGID_22_);}
	.st24{fill:url(#SVGID_23_);}
	.st25{fill:#4B4B4B;}
	.st26{fill:url(#SVGID_24_);}
	.st27{fill:url(#SVGID_25_);}
	.st28{fill:#FFFFFF;}
	.st29{fill:#EA2B29;}
	.st30{fill:#58595B;}
	.st31{fill:#595A5C;}
	.st32{fill:#5A5B5D;}
	.st33{fill:#5B5C5E;}
	.st34{fill:#5C5C5F;}
	.st35{fill:#5C5D60;}
	.st36{fill:#5D5E60;}
	.st37{fill:#5E5F61;}
	.st38{fill:#5F6062;}
	.st39{fill:#606163;}
	.st40{fill:#616264;}
	.st41{fill:#616365;}
	.st42{fill:#626366;}
	.st43{fill:#636467;}
	.st44{fill:#646567;}
	.st45{fill:#656668;}
	.st46{fill:#666769;}
	.st47{fill:#66686A;}
	.st48{fill:#67686B;}
	.st49{fill:#68696C;}
	.st50{fill:#696A6C;}
	.st51{fill:#6A6B6D;}
	.st52{fill:#6A6C6E;}
	.st53{fill:#6B6C6F;}
	.st54{fill:#6C6D70;}
	.st55{fill:#6D6E70;}
	.st56{fill:#6D6F71;}
	.st57{fill:#6E7072;}
	.st58{fill:#6F7073;}
	.st59{fill:#707174;}
	.st60{fill:#717275;}
	.st61{fill:#717375;}
	.st62{fill:#727476;}
	.st63{fill:#737477;}
	.st64{fill:#747578;}
	.st65{fill:#747678;}
	.st66{fill:#757779;}
	.st67{fill:#76777A;}
	.st68{fill:#77787B;}
	.st69{fill:#77797C;}
	.st70{fill:#787A7C;}
	.st71{fill:#797B7D;}
	.st72{fill:#7A7B7E;}
	.st73{fill:#7A7C7F;}
	.st74{fill:#7B7D7F;}
	.st75{fill:#7C7E80;}
	.st76{fill:#7D7E81;}
	.st77{fill:#7D7F82;}
	.st78{fill:#7E8082;}
	.st79{fill:#7F8183;}
	.st80{fill:#808184;}
	.st81{fill:#808285;}
	.st82{fill:#818385;}
	.st83{fill:#828486;}
	.st84{fill:#828487;}
	.st85{fill:#838588;}
	.st86{fill:#848688;}
	.st87{fill:#858789;}
	.st88{fill:#85878A;}
	.st89{fill:#86888B;}
	.st90{fill:#87898B;}
	.st91{fill:#888A8C;}
	.st92{fill:#888A8D;}
	.st93{fill:#898B8E;}
	.st94{fill:#8A8C8E;}
	.st95{fill:#8B8D8F;}
	.st96{fill:#8B8D90;}
	.st97{fill:#8C8E91;}
	.st98{fill:#8D8F92;}
	.st99{fill:#8E9092;}
	.st100{fill:#8E9093;}
	.st101{fill:#8F9194;}
	.st102{fill:#909295;}
	.st103{fill:#919395;}
	.st104{fill:#919396;}
	.st105{fill:#929497;}
	.st106{fill:#939598;}
	.st107{fill:#949698;}
	.st108{fill:#949699;}
	.st109{fill:#95979A;}
	.st110{fill:#96989B;}
	.st111{fill:#97999B;}
	.st112{fill:#979A9C;}
	.st113{fill:#989A9D;}
	.st114{fill:#999B9E;}
	.st115{fill:#9A9C9E;}
	.st116{fill:#9B9D9F;}
	.st117{fill:#9B9DA0;}
	.st118{fill:#9C9EA1;}
	.st119{fill:#9D9FA2;}
	.st120{fill:#9EA0A2;}
	.st121{fill:#9EA1A3;}
	.st122{fill:#9FA1A4;}
	.st123{fill:#A0A2A5;}
	.st124{fill:#A1A3A5;}
	.st125{fill:#A2A4A6;}
	.st126{fill:#A2A4A7;}
	.st127{fill:#A3A5A8;}
	.st128{fill:#A4A6A9;}
	.st129{fill:#A5A7A9;}
	.st130{fill:#A5A8AA;}
	.st131{fill:#A6A8AB;}
	.st132{fill:#A7A9AC;}
	.st133{fill:#A8AAAD;}
	.st134{fill:#A9ABAD;}
	.st135{fill:#A9ACAE;}
	.st136{fill:#AAACAF;}
	.st137{fill:#ABADB0;}
	.st138{fill:#ACAEB0;}
	.st139{fill:#ADAFB1;}
	.st140{fill:#AEB0B2;}
	.st141{fill:#AEB0B3;}
	.st142{fill:#AFB1B4;}
	.st143{fill:#B0B2B4;}
	.st144{fill:#B1B3B5;}
	.st145{fill:#B2B4B6;}
	.st146{fill:#B2B4B7;}
	.st147{fill:#B3B5B8;}
	.st148{fill:#B4B6B8;}
	.st149{fill:#B5B7B9;}
	.st150{fill:#B6B8BA;}
	.st151{fill:#B7B9BB;}
	.st152{fill:#B7B9BC;}
	.st153{fill:#B8BABC;}
	.st154{fill:#B9BBBD;}
	.st155{fill:#BABCBE;}
	.st156{fill:#BBBDBF;}
	.st157{fill:#BCBDC0;}
	.st158{fill:#BCBEC0;}
	.st159{fill:#BDBFC1;}
	.st160{fill:#BEC0C2;}
	.st161{fill:#BFC1C3;}
	.st162{fill:#C0C2C4;}
	.st163{fill:#C1C2C4;}
	.st164{fill:#C1C3C5;}
	.st165{fill:#C2C4C6;}
	.st166{fill:#C3C5C7;}
	.st167{fill:#C4C6C8;}
	.st168{fill:#C5C6C8;}
	.st169{fill:#C5C7C9;}
	.st170{fill:#C7C9CB;}
	.st171{fill:#C8CACC;}
	.st172{fill:#C9CBCC;}
	.st173{fill:#CACBCD;}
	.st174{fill:#CBCCCE;}
	.st175{fill:#CBCDCF;}
	.st176{fill:#CCCED0;}
	.st177{fill:#CDCFD0;}
	.st178{fill:#CECFD1;}
	.st179{fill:#CFD0D2;}
	.st180{fill:#D0D1D3;}
	.st181{fill:#D0D2D3;}
	.st182{fill:#D2D3D5;}
	.st183{fill:#D3D4D6;}
	.st184{fill:#D4D5D7;}
	.st185{fill:#D5D6D7;}
	.st186{fill:#D5D7D8;}
	.st187{fill:#D6D7D9;}
	.st188{fill:#D7D8DA;}
	.st189{fill:#D8D9DB;}
	.st190{fill:#D9DADB;}
	.st191{fill:#D9DBDC;}
	.st192{fill:#DADCDD;}
	.st193{fill:#DBDCDE;}
	.st194{fill:#DDDEDF;}
	.st195{fill:#DEDFE0;}
	.st196{fill:#DEE0E1;}
	.st197{fill:#DFE0E2;}
	.st198{fill:#E0E1E2;}
	.st199{fill:#E1E2E3;}
	.st200{fill:#E2E3E4;}
	.st201{fill:#E3E4E5;}
	.st202{fill:#E4E5E6;}
	.st203{fill:#E5E6E7;}
	.st204{fill:#E7E8E9;}
	.st205{clip-path:url(#SVGID_27_);fill:url(#XMLID_2_);}
	.st206{fill:#004E25;}
	.st207{fill:#F5F0CC;}
	.st208{clip-path:url(#SVGID_29_);fill:url(#XMLID_3_);}
	.st209{clip-path:url(#SVGID_31_);fill:url(#XMLID_4_);}
	.st210{clip-path:url(#SVGID_33_);fill:url(#XMLID_5_);}
	.st211{clip-path:url(#SVGID_35_);fill:url(#XMLID_6_);}
	.st212{clip-path:url(#SVGID_37_);fill:url(#XMLID_7_);}
	.st213{clip-path:url(#SVGID_39_);fill:url(#XMLID_8_);}
	.st214{clip-path:url(#SVGID_41_);fill:url(#XMLID_9_);}
	.st215{clip-path:url(#SVGID_43_);fill:url(#XMLID_11_);}
	.st216{clip-path:url(#SVGID_45_);fill:url(#XMLID_12_);}
	.st217{clip-path:url(#SVGID_47_);fill:url(#XMLID_13_);}
	.st218{clip-path:url(#SVGID_49_);fill:url(#XMLID_14_);}
	.st219{fill:#455E66;}
	.st220{fill-rule:evenodd;clip-rule:evenodd;fill:#697C86;}
	.st221{clip-path:url(#SVGID_51_);fill:url(#XMLID_16_);}
	.st222{clip-path:url(#SVGID_53_);fill:url(#XMLID_17_);}
	.st223{clip-path:url(#SVGID_55_);fill:url(#XMLID_18_);}
	.st224{clip-path:url(#SVGID_57_);fill:url(#XMLID_19_);}
	.st225{fill:#00010B;}
	.st226{fill:#C5CBD0;}
	.st227{clip-path:url(#SVGID_59_);fill:url(#XMLID_21_);}
	.st228{clip-path:url(#SVGID_61_);fill:url(#XMLID_22_);}
	.st229{fill:#2B373E;}
	.st230{clip-path:url(#SVGID_63_);fill:url(#XMLID_24_);}
	.st231{clip-path:url(#SVGID_65_);fill:url(#XMLID_25_);}
	.st232{clip-path:url(#SVGID_67_);fill:url(#XMLID_29_);}
	.st233{clip-path:url(#SVGID_69_);fill:url(#XMLID_33_);}
	.st234{clip-path:url(#SVGID_71_);fill:url(#XMLID_36_);}
	.st235{fill:url(#XMLID_38_);}
	.st236{clip-path:url(#SVGID_73_);fill:url(#XMLID_41_);}
	.st237{clip-path:url(#SVGID_75_);fill:url(#XMLID_43_);}
	.st238{clip-path:url(#SVGID_77_);fill:url(#XMLID_47_);}
	.st239{fill:#3F4E56;}
	.st240{clip-path:url(#SVGID_79_);fill:url(#XMLID_53_);}
	.st241{fill-rule:evenodd;clip-rule:evenodd;fill:#3F4E56;}
	.st242{clip-path:url(#SVGID_81_);fill:url(#XMLID_55_);}
	.st243{clip-path:url(#SVGID_83_);fill:url(#XMLID_56_);}
	.st244{fill:url(#XMLID_57_);}
	.st245{fill:url(#XMLID_58_);}
	.st246{fill-rule:evenodd;clip-rule:evenodd;fill:url(#XMLID_59_);}
	.st247{clip-path:url(#SVGID_85_);fill:url(#XMLID_60_);}
	.st248{clip-path:url(#SVGID_87_);fill:url(#XMLID_61_);}
	.st249{fill:url(#XMLID_62_);}
	.st250{fill:url(#XMLID_63_);}
</style>
<g>
	<path class="st29" d="M547.06,186.94c83.97,3.96,172.63,8.08,261.28,12.39c8.47,0.41,16.95,1.61,25.31,3.09
		c39.28,6.95,61.24,31.46,61.98,71.34c0.71,38.28,0.38,76.6-0.59,114.87c-1.53,60.39-3.28,120.79-6.31,181.12
		c-1.9,37.9-5.1,75.83-9.9,113.47c-6.35,49.85-31.26,90.23-72.31,118.53c-35.17,24.24-72.23,45.96-109.55,66.82
		c-48.74,27.24-98.53,52.62-148.03,78.49c-3.14,1.64-8.53,2.2-11.43,0.63c-76.76-41.61-153.68-82.95-229.68-125.9
		c-19.49-11.02-37.24-26.01-53.62-41.47c-32.25-30.44-47.1-70.02-50.39-113.28c-4.99-65.58-9.01-131.27-11.53-196.98
		c-2.35-61.21-2.29-122.51-3.03-183.78c-0.11-9.02,0.57-18.18,2.05-27.07c4.91-29.51,22.71-48.05,51.39-54.52
		c17.86-4.03,36.4-5.96,54.73-6.85C378.98,193.88,460.59,190.64,547.06,186.94z M518.15,218.63c-30.59,0.88-85.6,1.87-140.56,4.23
		c-38.78,1.66-77.55,4.52-116.21,8.06c-29.25,2.68-41.48,16.81-42.78,46.13c-0.24,5.38-0.18,10.78-0.11,16.16
		c0.34,27.5,0.65,55.01,1.1,82.51c1.55,93.28,4.31,186.49,12.11,279.53c4.77,56.94,29.04,101.7,77.48,132.75
		c5.49,3.52,10.81,7.34,16.52,10.47c70.28,38.64,140.58,77.25,211.07,115.5c3.18,1.72,8.97,1.43,12.28-0.31
		c51.9-27.37,103.93-54.52,155.19-83.05c28.93-16.1,57.37-33.4,84.48-52.37c35.65-24.94,56.71-60.23,61.56-103.61
		c4.47-39.97,8.17-80.13,9.7-120.3c3-78.76,4.33-157.59,6.15-236.4c0.37-15.86,0.46-31.78-0.49-47.6
		c-1.27-21.28-11.85-33.07-32.71-37.81c-6.88-1.56-13.95-2.61-20.99-3.17C722.29,222.21,632.48,219.13,518.15,218.63z"/>
	<path class="st29" d="M573.6,738.35c-11.47-19.27-5.69-39.1-2.7-58.88c1.65-10.93,2.78-21.96,5-32.77
		c0.64-3.14,3.89-6.12,6.63-8.32c2.33-1.87,5.65-2.52,8.53-3.71c17.53-7.25,21.54-13.87,20.58-34.2
		c-14.6,1.19-22.95,11.45-30.71,22.6c-0.57-0.42-1.14-0.84-1.72-1.27c1.68-11.39,3.22-22.8,5.21-34.14
		c0.31-1.77,2.44-3.58,4.17-4.66c2.38-1.48,5.08-2.74,7.81-3.29c18.83-3.78,27.49-15.58,27.63-34.34c0.01-1.39,0.33-2.85,0.84-4.15
		c4.36-11.13,2-19.49-9.5-24.6c-3.88-1.72-5.89-4.29-4.1-9.44c9.9-28.59,22.19-55.91,41.58-79.46
		c20.48-24.87,45.55-41.87,78.9-42.83c39.97-1.15,70.55,24.34,80.23,66.96c2.59,11.4,3.05,23.27,4.73,36.82
		c-16.52-4.66-17.11,5.61-19.32,15.27c-6.55,28.67-16.46,56.16-33.51,80.35c-6.09,8.64-13.96,16.48-22.44,22.77
		c-4.13,3.07-12.49,3.85-17.12,1.73c-3.38-1.55-5.62-9.7-5.18-14.63c0.93-10.63,4.26-21.03,5.99-31.62
		c3.37-20.62,6.79-41.25,9.13-62c0.69-6.15-1.19-13.08-3.57-18.98c-5.59-13.83-21.32-17.08-32.05-6.79
		c-7.96,7.63-13.52,15.84-9.66,28.52c2.73,8.98,2.76,19.07,2.44,28.62c-0.51,15.4-8.14,26.89-22.31,33.53
		c-7.7,3.61-15.39,7.3-23.35,10.26c-5.5,2.05-7.77,5.52-8.97,11.04c-3.72,17.17-8.33,34.15-11.88,51.36
		c-3.6,17.43-9.01,34.07-19.53,48.52c-14.82,20.35-20.5,43.73-24.55,67.96c-3.87,23.13-10.03,27.88-33.53,28.08
		c-5.39,0.05-10.79,0.06-16.16-0.2c-15.56-0.76-22.51-6.62-25.76-21.96c-2.64-12.48-4.87-25.04-7.46-37.53
		c-0.74-3.57-1.25-7.63-3.3-10.42c-27.04-36.74-36.89-79.83-45.59-123.27c-1.59-7.93-5.09-12.39-12.63-14.97
		c-7.21-2.46-14.09-5.96-20.99-9.27c-12.81-6.16-20.69-16.51-21.17-30.58c-0.4-11.75,1.07-23.68,2.83-35.36
		c1.66-10.95-8.59-27.28-19.96-29.84c-11.4-2.57-21.53,4.31-24.53,17.9c-4.24,19.25-1.37,38.4,2.83,57.3
		c2.95,13.27,6.7,26.36,9.9,39.58c0.79,3.27,1.68,6.9,1.03,10.07c-1.07,5.27-2.04,13.17-5.43,14.71
		c-4.65,2.12-13.05,1.33-17.14-1.77c-8.64-6.54-16.7-14.59-22.92-23.47c-16.82-23.99-26.32-51.33-33.14-79.62
		c-2.23-9.25-1.44-21.09-17.79-15.29c-0.71-35.56,6.71-66.45,34.51-88.18c26.59-20.78,56.44-20.17,85.97-6.49
		c10.36,4.8,20.14,11.86,28.56,19.64c28.99,26.82,44.28,61.74,56.58,98.5c-2.17,1.73-3.73,3.58-5.71,4.44
		c-11.54,5.04-13.97,13.43-9.56,24.6c0.52,1.3,0.96,2.75,0.96,4.13c-0.11,19.88,10.29,30.92,29.15,34.91
		c8.05,1.7,11.46,6.69,12.02,14.85c0.62,9,2.35,17.92,2.93,27.6c-9.09-9.75-16.5-21.78-32.93-22.08c1.68,8.45,3.19,16.7,5.06,24.87
		c0.31,1.37,2.01,2.6,3.33,3.51c1.38,0.94,3.02,1.74,4.65,2.03c19.52,3.53,26.95,15.82,27.33,34.9c0.23,11.53,2.49,23.13,4.93,34.47
		c2.46,11.38,0.68,21.92-3.65,32.26c-2.11,5.04-1.19,8.11,4.29,9.47c1.09,0.27,2.21,0.68,3.13,1.3
		C539.4,755.57,555.75,748.38,573.6,738.35z M644.79,558.1c27.81-3.7,40.54-33.02,27.53-63.38
		C658.28,507.56,645.34,537.35,644.79,558.1z M413.2,494.32c-14.16,28.55-1.08,59.2,27.31,63.95
		C439.18,533.59,428.46,513.12,413.2,494.32z"/>
	<path class="st29" d="M696.45,607.36c0,6.65-0.2,13.42,0.04,20.17c0.75,21.15,18.99,34.36,38.38,25.87
		c10.43-4.56,20.33-12.62,27.71-21.41c20.99-25.03,31.64-55.36,39.9-86.48c3.19-12.02,5.33-24.33,7.68-36.56
		c2.31-12.02,2.16-12.04,15.03-9.95c0.25,0.92,0.81,1.97,0.8,3.02c-0.12,40.7-3.69,80.95-16.99,119.76
		c-6.3,18.39-15.01,35.51-29.12,49.32c-16.25,15.89-35.72,22.46-58.27,19.34c-20.01-2.77-33.73-17.77-34.96-37.89
		C685.66,636.34,689.34,621.19,696.45,607.36z"/>
	<path class="st29" d="M387.85,608.07c8.51,14.84,12.5,30.59,10.51,47.36c-2.24,18.9-16.13,32.58-35.14,35.06
		c-26.14,3.41-47.37-5.89-63.93-25.92c-18.83-22.77-27.97-50.02-32.36-78.5c-4.04-26.25-5.34-52.93-7.73-79.43
		c-0.38-4.23-0.93-8.62,5.89-8.66c5.62-0.03,8.58,0.95,9.5,7.53c4.48,31.87,12.51,62.88,26.77,91.84
		c6.22,12.63,13.78,24.82,22.3,36.01c5.5,7.22,13.12,13.63,21.09,18.03c22.2,12.23,43.96-1.14,44.11-26.4
		C388.91,619.34,388.21,613.7,387.85,608.07z"/>
	<path class="st29" d="M789.89,371.83c-17.78-17.81-37.79-31.19-62.29-37.02c-40-9.51-75.19,0.43-105.92,27.15
		c-25.02,21.76-42.66,49.07-58.05,78.03c-1.56,2.94-3.2,5.84-5.58,10.18c-3.31-11.19-6.36-20.83-8.9-30.6
		c-0.57-2.21,0.01-5.16,1.07-7.27c14.49-29,32.8-55.05,59.25-74.51c57.08-42,136.23-30.4,175.08,25.56
		C786.45,366.09,788.11,369,789.89,371.83z"/>
	<path class="st29" d="M527.1,449.93c-2.47-4.43-3.98-7.03-5.39-9.69c-13.33-25.13-28.69-48.78-48.57-69.38
		c-58.46-60.6-137.6-45.34-176.17,1.76c-0.44,0.54-1.17,0.83-3.71,2.55c19.61-33.56,46.46-53.8,82.43-60.22
		c51.96-9.27,94.33,9.25,127.46,48.93c11.88,14.23,21.02,30.8,30.81,46.67c1.9,3.09,2.02,8.13,1.19,11.88
		C533.23,431.11,530.22,439.55,527.1,449.93z"/>
</g>
</svg>
