<?xml version="1.0" encoding="utf-8"?>
<!-- Generator: Adobe Illustrator 27.3.1, SVG Export Plug-In . SVG Version: 6.00 Build 0)  -->
<svg version="1.1" id="Layer_1" xmlns="http://www.w3.org/2000/svg" xmlns:xlink="http://www.w3.org/1999/xlink" x="0px" y="0px"
	 viewBox="0 0 3500 3500" style="enable-background:new 0 0 3500 3500;" xml:space="preserve">
<style type="text/css">
	.st0{fill:#C9C9CA;}
	.st1{fill:url(#SVGID_1_);}
	.st2{fill:url(#SVGID_00000156564031958392454080000011844603704756249791_);}
	.st3{fill:url(#SVGID_00000170269022783390963980000013550704369768538507_);}
	.st4{fill:url(#SVGID_00000114061012118430735670000002687163235805120921_);}
	.st5{fill:url(#SVGID_00000111176218525524250720000010355265646733239208_);}
	.st6{fill:url(#SVGID_00000080167968132083878240000016952189426245571477_);}
	.st7{fill:url(#SVGID_00000088824262790817096700000010976762737333193128_);}
	.st8{fill:url(#SVGID_00000031169124362394620980000013043380113203204239_);}
	.st9{fill:url(#SVGID_00000116226853867591331220000008548277965440412577_);}
	.st10{fill:url(#SVGID_00000067203880145041053510000016261729308717389725_);}
	.st11{fill:url(#SVGID_00000111899061386853073400000004130322530328448182_);}
	.st12{fill:url(#SVGID_00000120542134807811069870000005616790319523496338_);}
	.st13{fill:url(#SVGID_00000094584215715623622910000011775828895514673829_);}
	.st14{fill:url(#SVGID_00000028286240637660347550000011964074054456997765_);}
	.st15{fill:url(#SVGID_00000154404035966721501900000000857301728372251536_);}
	.st16{fill:url(#SVGID_00000094587290747560989060000013276745080642612629_);}
	.st17{fill:url(#SVGID_00000178204826896771726930000009988785904091735740_);}
	.st18{fill:url(#SVGID_00000068673142556247670120000002759817306535958949_);}
	.st19{fill:url(#SVGID_00000014635934716292762710000011449018084642175673_);}
	.st20{fill:url(#SVGID_00000176742172471951441930000009596446892038461582_);}
	.st21{fill:url(#SVGID_00000011746781173972499730000000104713609371708811_);}
	.st22{fill:url(#SVGID_00000124847187797221679750000012183008431664186536_);}
	.st23{fill:url(#SVGID_00000181807541186675748530000013908365258209336451_);}
	.st24{fill:#4B4B4B;}
	.st25{fill:url(#SVGID_00000114039279841407349150000004954791331154693002_);}
	.st26{fill:url(#SVGID_00000089557072923293624430000006279300743554015139_);}
	.st27{fill:#FFFFFF;}
</style>
<g>
	<path class="st0" d="M1745.35,1228.47c-955.87,0-1722.08,286.86-1722.08,645.43c0,356.68,772.81,645.43,1722.08,645.43
		s1722.08-289.69,1722.08-645.43S2694.61,1228.47,1745.35,1228.47 M3457.05,1823.88c0.94,2.83,0.94,6.61,1.89,9.44
		C3457.99,1830.49,3457.05,1827.66,3457.05,1823.88"/>
	
		<radialGradient id="SVGID_1_" cx="-2236.781" cy="2798.9067" r="859.6558" gradientTransform="matrix(8.6315 0 0 4.3839 21040.3809 -8911.4561)" gradientUnits="userSpaceOnUse">
		<stop  offset="0" style="stop-color:#00082E"/>
		<stop  offset="0.155" style="stop-color:#000A30"/>
		<stop  offset="0.242" style="stop-color:#010F39"/>
		<stop  offset="0.312" style="stop-color:#011946"/>
		<stop  offset="0.373" style="stop-color:#02275A"/>
		<stop  offset="0.414" style="stop-color:#03346C"/>
		<stop  offset="0.439" style="stop-color:#0B4F87"/>
		<stop  offset="0.48" style="stop-color:#1676AF"/>
		<stop  offset="0.513" style="stop-color:#1C8EC7"/>
		<stop  offset="0.533" style="stop-color:#1F97D0"/>
		<stop  offset="1" style="stop-color:#1F97D0"/>
	</radialGradient>
	<path class="st1" d="M1745.35,1253.95c-937,0-1695.66,276.48-1695.66,619.95c0,342.53,758.66,619.95,1695.66,619.95
		S3441,2216.42,3441,1873.9C3441,1530.42,2682.35,1253.95,1745.35,1253.95"/>
	
		<linearGradient id="SVGID_00000033354717858200742020000016140658620378881981_" gradientUnits="userSpaceOnUse" x1="-2998.4087" y1="1967.834" x2="-2993.9048" y2="1967.834" gradientTransform="matrix(0 -291.4034 -291.4034 0 575175.5625 -871212.5625)">
		<stop  offset="0" style="stop-color:#00082E"/>
		<stop  offset="0.321" style="stop-color:#010A30"/>
		<stop  offset="0.501" style="stop-color:#030F39"/>
		<stop  offset="0.647" style="stop-color:#071846"/>
		<stop  offset="0.773" style="stop-color:#0D245A"/>
		<stop  offset="0.809" style="stop-color:#0F2961"/>
		<stop  offset="0.839" style="stop-color:#0B386E"/>
		<stop  offset="0.896" style="stop-color:#054E83"/>
		<stop  offset="0.951" style="stop-color:#015B90"/>
		<stop  offset="1" style="stop-color:#006094"/>
	</linearGradient>
	<path style="fill:url(#SVGID_00000033354717858200742020000016140658620378881981_);" d="M1752.9,1384.17
		c796.4,0,1454.09,194.38,1554.11,446.32l0,0c-66.05-265.15-740.73-473.69-1561.66-473.69c-866.23,0-1568.27,231.18-1568.27,516.15
		c0,23.59,4.72,46.24,13.21,68.88c-3.77-15.1-5.66-29.25-5.66-45.29C185.57,1613.46,886.67,1384.17,1752.9,1384.17L1752.9,1384.17z"
		/>
	
		<linearGradient id="SVGID_00000041276551891740703960000003640217692296792463_" gradientUnits="userSpaceOnUse" x1="-2998.4102" y1="1180.2278" x2="-2993.9043" y2="1180.2278" gradientTransform="matrix(0 -291.4034 291.4034 0 -342158.1562 -871213.0625)">
		<stop  offset="0" style="stop-color:#00082E"/>
		<stop  offset="0.321" style="stop-color:#010A30"/>
		<stop  offset="0.501" style="stop-color:#030F39"/>
		<stop  offset="0.647" style="stop-color:#071846"/>
		<stop  offset="0.773" style="stop-color:#0D245A"/>
		<stop  offset="0.809" style="stop-color:#0F2961"/>
		<stop  offset="0.839" style="stop-color:#0B386E"/>
		<stop  offset="0.896" style="stop-color:#054E83"/>
		<stop  offset="0.951" style="stop-color:#015B90"/>
		<stop  offset="1" style="stop-color:#006094"/>
	</linearGradient>
	<path style="fill:url(#SVGID_00000041276551891740703960000003640217692296792463_);" d="M3359.85,1808.79
		c6.6,20.76,10.38,42.46,10.38,64.16c0,312.33-727.52,565.22-1624.89,565.22c-798.29,0-1462.59-200.99-1599.41-464.25
		c103.8,274.59,782.25,486.9,1606.01,487.84h10.38c895.48-0.94,1620.17-251.94,1620.17-560.5
		C3381.56,1870.12,3374.01,1838.98,3359.85,1808.79L3359.85,1808.79z"/>
	
		<linearGradient id="SVGID_00000118358820504773263070000001246651506410848136_" gradientUnits="userSpaceOnUse" x1="-3007.1365" y1="1966.0972" x2="-3002.6396" y2="1966.0972" gradientTransform="matrix(0 -204.871 -204.871 0 404835.8438 -613763.75)">
		<stop  offset="0" style="stop-color:#00082E"/>
		<stop  offset="0.321" style="stop-color:#010A30"/>
		<stop  offset="0.501" style="stop-color:#030F39"/>
		<stop  offset="0.647" style="stop-color:#071846"/>
		<stop  offset="0.773" style="stop-color:#0D245A"/>
		<stop  offset="0.809" style="stop-color:#0F2961"/>
		<stop  offset="0.839" style="stop-color:#0B386E"/>
		<stop  offset="0.896" style="stop-color:#054E83"/>
		<stop  offset="0.951" style="stop-color:#015B90"/>
		<stop  offset="1" style="stop-color:#006094"/>
	</linearGradient>
	<path style="fill:url(#SVGID_00000118358820504773263070000001246651506410848136_);" d="M2057.68,1960.71
		c-3.77-9.44-4.72-18.87-1.89-29.25c0.94-3.77-3.78-6.61-7.55-2.83c-36.8,37.74-38.69,86.81-15.1,109.46
		c8.49,7.55,17.93,11.32,28.31,12.27C2046.36,2029.59,2038.81,1990.9,2057.68,1960.71z"/>
	
		<linearGradient id="SVGID_00000181056459746395250680000013844945387958849946_" gradientUnits="userSpaceOnUse" x1="-3007.1982" y1="1964.6115" x2="-3002.7173" y2="1964.6115" gradientTransform="matrix(0 -204.404 -204.404 0 404002.5312 -612374.1875)">
		<stop  offset="0" style="stop-color:#00082E"/>
		<stop  offset="0.321" style="stop-color:#010A30"/>
		<stop  offset="0.501" style="stop-color:#030F39"/>
		<stop  offset="0.647" style="stop-color:#071846"/>
		<stop  offset="0.773" style="stop-color:#0D245A"/>
		<stop  offset="0.809" style="stop-color:#0F2961"/>
		<stop  offset="0.839" style="stop-color:#0B386E"/>
		<stop  offset="0.896" style="stop-color:#054E83"/>
		<stop  offset="0.951" style="stop-color:#015B90"/>
		<stop  offset="1" style="stop-color:#006094"/>
	</linearGradient>
	<path style="fill:url(#SVGID_00000181056459746395250680000013844945387958849946_);" d="M2426.63,2033.36L2426.63,2033.36
		c1.89-3.77,3.78-7.55,5.66-11.32c1.89-2.83,0.94-3.77-0.94-4.72c-3.77-0.94-7.55-3.77-8.49-7.55c0-0.94,0-0.94,0-1.89l0,0
		C2423.8,2015.44,2425.69,2025.82,2426.63,2033.36L2426.63,2033.36z"/>
	
		<linearGradient id="SVGID_00000034066349879243847320000008478813123702252718_" gradientUnits="userSpaceOnUse" x1="-3007.1882" y1="1964.3932" x2="-3002.7307" y2="1964.3932" gradientTransform="matrix(0 -204.4023 -204.4023 0 404011.625 -612369.125)">
		<stop  offset="0" style="stop-color:#00082E"/>
		<stop  offset="0.321" style="stop-color:#010A30"/>
		<stop  offset="0.501" style="stop-color:#030F39"/>
		<stop  offset="0.647" style="stop-color:#071846"/>
		<stop  offset="0.773" style="stop-color:#0D245A"/>
		<stop  offset="0.809" style="stop-color:#0F2961"/>
		<stop  offset="0.839" style="stop-color:#0B386E"/>
		<stop  offset="0.896" style="stop-color:#054E83"/>
		<stop  offset="0.951" style="stop-color:#015B90"/>
		<stop  offset="1" style="stop-color:#006094"/>
	</linearGradient>
	<path style="fill:url(#SVGID_00000034066349879243847320000008478813123702252718_);" d="M2468.15,1885.22
		c12.27,11.32,19.82,25.48,20.76,38.69c0.94,6.61,5.66,6.61,9.44,1.89c0.94-1.89,1.89-2.83,3.78-5.66
		c-0.94-1.89-1.89-2.83-2.83-4.72C2488.91,1905.03,2478.53,1894.65,2468.15,1885.22L2468.15,1885.22z"/>
	
		<linearGradient id="SVGID_00000034769754141934715730000002909559293421226430_" gradientUnits="userSpaceOnUse" x1="-3007.197" y1="1966.3297" x2="-3002.6794" y2="1966.3297" gradientTransform="matrix(0 -204.5335 -204.5335 0 404157.3125 -612759.375)">
		<stop  offset="0" style="stop-color:#00082E"/>
		<stop  offset="0.321" style="stop-color:#010A30"/>
		<stop  offset="0.501" style="stop-color:#030F39"/>
		<stop  offset="0.647" style="stop-color:#071846"/>
		<stop  offset="0.773" style="stop-color:#0D245A"/>
		<stop  offset="0.809" style="stop-color:#0F2961"/>
		<stop  offset="0.839" style="stop-color:#0B386E"/>
		<stop  offset="0.896" style="stop-color:#054E83"/>
		<stop  offset="0.951" style="stop-color:#015B90"/>
		<stop  offset="1" style="stop-color:#006094"/>
	</linearGradient>
	<path style="fill:url(#SVGID_00000034769754141934715730000002909559293421226430_);" d="M1964.26,1861.63
		c9.44,13.21,14.15,32.08,13.21,56.62c0,6.61,4.72,5.66,7.55,1.89c1.89-2.83,2.83-4.72,4.72-6.61l0,0
		C1982.19,1890.88,1971.81,1869.18,1964.26,1861.63L1964.26,1861.63z"/>
	
		<linearGradient id="SVGID_00000179618720830542373370000000484290312046643085_" gradientUnits="userSpaceOnUse" x1="-3007.1575" y1="1964.9409" x2="-3002.6628" y2="1964.9409" gradientTransform="matrix(0 -204.6733 -204.6733 0 404513.5938 -613175.625)">
		<stop  offset="0" style="stop-color:#00082E"/>
		<stop  offset="0.321" style="stop-color:#010A30"/>
		<stop  offset="0.501" style="stop-color:#030F39"/>
		<stop  offset="0.647" style="stop-color:#071846"/>
		<stop  offset="0.773" style="stop-color:#0D245A"/>
		<stop  offset="0.809" style="stop-color:#0F2961"/>
		<stop  offset="0.839" style="stop-color:#0B386E"/>
		<stop  offset="0.896" style="stop-color:#054E83"/>
		<stop  offset="0.951" style="stop-color:#015B90"/>
		<stop  offset="1" style="stop-color:#006094"/>
	</linearGradient>
	<path style="fill:url(#SVGID_00000179618720830542373370000000484290312046643085_);" d="M2417.19,1925.79
		c-30.19-14.15-75.49,12.27-117.01,63.22c-33.97,41.52-51.9,83.98-52.84,125.5c0,15.1,5.66,33.03,17.93,39.63
		c3.78,1.89,8.49,3.77,13.21,4.72c-1.89-5.66-1.89-11.32-1.89-16.98c-0.94-42.46,13.21-84.92,47.18-127.39
		c41.52-50.95,83.98-76.43,114.18-62.28C2435.12,1941.83,2429.46,1931.46,2417.19,1925.79L2417.19,1925.79z"/>
	
		<linearGradient id="SVGID_00000011712737283046755750000014635356309134127030_" gradientUnits="userSpaceOnUse" x1="-3007.2361" y1="1967.9694" x2="-3002.7346" y2="1967.9694" gradientTransform="matrix(0 -204.2081 -204.2081 0 403420.75 -611791.1875)">
		<stop  offset="0" style="stop-color:#00082E"/>
		<stop  offset="0.321" style="stop-color:#010A30"/>
		<stop  offset="0.501" style="stop-color:#030F39"/>
		<stop  offset="0.647" style="stop-color:#071846"/>
		<stop  offset="0.773" style="stop-color:#0D245A"/>
		<stop  offset="0.809" style="stop-color:#0F2961"/>
		<stop  offset="0.839" style="stop-color:#0B386E"/>
		<stop  offset="0.896" style="stop-color:#054E83"/>
		<stop  offset="0.951" style="stop-color:#015B90"/>
		<stop  offset="1" style="stop-color:#006094"/>
	</linearGradient>
	<path style="fill:url(#SVGID_00000011712737283046755750000014635356309134127030_);" d="M1519.83,2010.72
		c32.08-42.46,67-59.45,107.57-76.43c5.66-1.89,5.66-5.66,4.72-10.38c-1.89-8.49-7.55-28.31-9.44-33.03c0.94,4.72,0,7.55-4.72,9.44
		c-46.24,17.93-92.47,44.35-124.56,87.76c-35.86,48.12-46.24,106.63-21.7,140.6c5.66,7.55,12.27,14.15,19.82,17.93
		C1479.25,2106.02,1488.69,2052.24,1519.83,2010.72L1519.83,2010.72z"/>
	
		<linearGradient id="SVGID_00000179644311673061199260000001130694678314646207_" gradientUnits="userSpaceOnUse" x1="-3007.1963" y1="1966.459" x2="-3002.6926" y2="1966.459" gradientTransform="matrix(0 -204.4506 -204.4506 0 403986.75 -612512.9375)">
		<stop  offset="0" style="stop-color:#00082E"/>
		<stop  offset="0.321" style="stop-color:#010A30"/>
		<stop  offset="0.501" style="stop-color:#030F39"/>
		<stop  offset="0.647" style="stop-color:#071846"/>
		<stop  offset="0.773" style="stop-color:#0D245A"/>
		<stop  offset="0.809" style="stop-color:#0F2961"/>
		<stop  offset="0.839" style="stop-color:#0B386E"/>
		<stop  offset="0.896" style="stop-color:#054E83"/>
		<stop  offset="0.951" style="stop-color:#015B90"/>
		<stop  offset="1" style="stop-color:#006094"/>
	</linearGradient>
	<path style="fill:url(#SVGID_00000179644311673061199260000001130694678314646207_);" d="M1751.95,2264.55c31.14,0,69.83,0,95.3,0
		c3.77,0,6.6-2.83,8.49-5.66c38.69-60.39,80.21-126.44,119.84-186.83c8.49,30.2,13.21,45.29,29.25,59.45
		c16.04,15.1,32.08,18.87,53.78,18.87c20.76,0,40.58-7.55,64.17-17.93c8.49-3.77,16.04-7.55,22.65-12.27
		c0-11.32,0.94-22.65,2.83-33.03c0-0.94-0.94-8.49-7.55-3.77c-13.21,9.44-27.36,16.99-43.41,23.59
		c-21.7,8.49-32.08,11.32-52.84,11.32c-25.48,0-48.12-11.32-65.11-36.8c-9.44-13.21-13.21-34.91-13.21-50.01
		c0-1.89-1.89-4.72-4.72-0.94c-43.41,66.05-83.04,129.27-125.5,195.33c-1.89,2.83-3.77,4.72-8.49,5.66c-26.42,0-54.73,0-83.98,0
		c-2.83,0-5.66-0.94-5.66-3.77c1.89,10.38,5.66,28.31,6.6,33.03C1746.29,2262.66,1748.18,2264.55,1751.95,2264.55L1751.95,2264.55z"
		/>
	
		<linearGradient id="SVGID_00000132050320240537580110000013383432193085130397_" gradientUnits="userSpaceOnUse" x1="-3006.9456" y1="1964.642" x2="-3002.4463" y2="1964.642" gradientTransform="matrix(0 -206.183 -206.183 0 407506.0312 -617667.4375)">
		<stop  offset="0" style="stop-color:#00082E"/>
		<stop  offset="0.321" style="stop-color:#010A30"/>
		<stop  offset="0.501" style="stop-color:#030F39"/>
		<stop  offset="0.647" style="stop-color:#071846"/>
		<stop  offset="0.773" style="stop-color:#0D245A"/>
		<stop  offset="0.809" style="stop-color:#0F2961"/>
		<stop  offset="0.839" style="stop-color:#0B386E"/>
		<stop  offset="0.896" style="stop-color:#054E83"/>
		<stop  offset="0.951" style="stop-color:#015B90"/>
		<stop  offset="1" style="stop-color:#006094"/>
	</linearGradient>
	<path style="fill:url(#SVGID_00000132050320240537580110000013383432193085130397_);" d="M2168.08,2228.69
		c7.55,14.15,23.59,29.25,33.03,33.97c55.67,27.36,135.88-3.77,186.83-52.84c0.94-0.94,0.94-0.94,0.94-1.89
		c1.89,8.49,5.66,19.82,5.66,20.76c3.77,11.32,9.44,21.7,14.15,27.36c34.91,39.63,109.46,21.7,186.83-38.69
		c43.41-33.03,75.49-67,115.12-113.23c1.89-1.89,1.89-4.72,0.94-9.44c-1.89-10.38-5.66-28.31-7.55-36.8c0,1.89-0.94,2.83-1.89,3.77
		c-40.57,50.01-86.81,97.19-130.22,131.16c-67,51.9-134.94,65.11-167.96,32.08c-12.27-12.27-18.87-30.19-19.82-45.29
		c0-8.49-4.72-8.49-8.49-4.72c-39.63,39.63-108.51,83.04-171.74,51.9c-32.08-16.04-49.07-46.24-55.67-79.26v0.94
		C2152.04,2173.96,2157.7,2206.99,2168.08,2228.69L2168.08,2228.69z"/>
	
		<linearGradient id="SVGID_00000029032894578830754330000010330844284638322844_" gradientUnits="userSpaceOnUse" x1="-3007.0303" y1="1965.8131" x2="-3002.5288" y2="1965.8131" gradientTransform="matrix(0 -205.6651 -205.6651 0 406416.8438 -616126)">
		<stop  offset="0" style="stop-color:#00082E"/>
		<stop  offset="0.321" style="stop-color:#010A30"/>
		<stop  offset="0.501" style="stop-color:#030F39"/>
		<stop  offset="0.647" style="stop-color:#071846"/>
		<stop  offset="0.773" style="stop-color:#0D245A"/>
		<stop  offset="0.809" style="stop-color:#0F2961"/>
		<stop  offset="0.839" style="stop-color:#0B386E"/>
		<stop  offset="0.896" style="stop-color:#054E83"/>
		<stop  offset="0.951" style="stop-color:#015B90"/>
		<stop  offset="1" style="stop-color:#006094"/>
	</linearGradient>
	<path style="fill:url(#SVGID_00000029032894578830754330000010330844284638322844_);" d="M2140.72,2014.49
		c20.76-11.32,38.69-34.91,36.8-73.6c-0.94-18.87-6.6-38.69-16.04-54.73c5.66,11.32,8.49,25.48,6.6,39.63
		c-3.77,24.53-17.93,47.18-40.58,58.5c-19.82,9.44-42.46,7.55-58.5-6.61c-4.72-4.72-8.49-9.44-11.32-16.04
		c3.78,18.87,7.55,33.03,12.27,39.63C2085.99,2024.87,2111.47,2030.53,2140.72,2014.49z"/>
	
		<linearGradient id="SVGID_00000129163317779749244390000006984843681958471084_" gradientUnits="userSpaceOnUse" x1="-3007.2405" y1="1963.8787" x2="-3002.739" y2="1963.8787" gradientTransform="matrix(0 -204.2608 -204.2608 0 403762.7812 -611947.6875)">
		<stop  offset="0" style="stop-color:#00082E"/>
		<stop  offset="0.321" style="stop-color:#010A30"/>
		<stop  offset="0.501" style="stop-color:#030F39"/>
		<stop  offset="0.647" style="stop-color:#071846"/>
		<stop  offset="0.773" style="stop-color:#0D245A"/>
		<stop  offset="0.809" style="stop-color:#0F2961"/>
		<stop  offset="0.839" style="stop-color:#0B386E"/>
		<stop  offset="0.896" style="stop-color:#054E83"/>
		<stop  offset="0.951" style="stop-color:#015B90"/>
		<stop  offset="1" style="stop-color:#006094"/>
	</linearGradient>
	<path style="fill:url(#SVGID_00000129163317779749244390000006984843681958471084_);" d="M2756.89,1688.95
		c-13.21,22.65-265.15,406.69-281.19,446.32c-4.72,12.27-5.66,22.65-0.94,29.25c5.66,6.61,13.21,9.44,21.7,9.44
		c0.94-4.72,2.83-10.38,4.72-16.04c16.04-39.63,251.94-399.14,265.15-421.79c0.94-1.89,0.94-3.77,0-5.66
		c-0.94-3.77-8.49-41.52-9.44-45.29C2757.84,1686.12,2757.84,1688.01,2756.89,1688.95L2756.89,1688.95z"/>
	
		<linearGradient id="SVGID_00000177459491214798388620000001626577877253380008_" gradientUnits="userSpaceOnUse" x1="-3007.2024" y1="1967.2604" x2="-3002.6941" y2="1967.2604" gradientTransform="matrix(0 -204.4895 -204.4895 0 404016.2188 -612628.5)">
		<stop  offset="0" style="stop-color:#00082E"/>
		<stop  offset="0.321" style="stop-color:#010A30"/>
		<stop  offset="0.501" style="stop-color:#030F39"/>
		<stop  offset="0.647" style="stop-color:#071846"/>
		<stop  offset="0.773" style="stop-color:#0D245A"/>
		<stop  offset="0.809" style="stop-color:#0F2961"/>
		<stop  offset="0.839" style="stop-color:#0B386E"/>
		<stop  offset="0.896" style="stop-color:#054E83"/>
		<stop  offset="0.951" style="stop-color:#015B90"/>
		<stop  offset="1" style="stop-color:#006094"/>
	</linearGradient>
	<path style="fill:url(#SVGID_00000177459491214798388620000001626577877253380008_);" d="M1710.44,1867.29
		c0.94,0.94,0.94,1.89,1.89,2.83c15.1,22.65,23.59,54.73,24.53,86.81c0.94,6.61,3.77,7.55,7.55,3.77c2.83-2.83,5.66-6.61,9.44-9.44
		c-4.72-17.93-11.32-33.97-17.93-49.07C1731.19,1896.54,1719.87,1876.73,1710.44,1867.29L1710.44,1867.29z"/>
	
		<linearGradient id="SVGID_00000136369585140109326820000002351761946270266248_" gradientUnits="userSpaceOnUse" x1="-3007.2014" y1="1967.8198" x2="-3002.7024" y2="1967.8198" gradientTransform="matrix(0 -204.4135 -204.4135 0 403834.5 -612402.5625)">
		<stop  offset="0" style="stop-color:#00082E"/>
		<stop  offset="0.321" style="stop-color:#010A30"/>
		<stop  offset="0.501" style="stop-color:#030F39"/>
		<stop  offset="0.647" style="stop-color:#071846"/>
		<stop  offset="0.773" style="stop-color:#0D245A"/>
		<stop  offset="0.809" style="stop-color:#0F2961"/>
		<stop  offset="0.839" style="stop-color:#0B386E"/>
		<stop  offset="0.896" style="stop-color:#054E83"/>
		<stop  offset="0.951" style="stop-color:#015B90"/>
		<stop  offset="1" style="stop-color:#006094"/>
	</linearGradient>
	<path style="fill:url(#SVGID_00000136369585140109326820000002351761946270266248_);" d="M1302.8,2226.8
		c4.72,1.89,9.44,0,11.32-0.94c15.1-7.55,45.29-31.14,58.5-47.18c3.77-3.77,7.55-0.94,8.49,2.83c5.66,16.99,13.21,30.2,21.7,44.35
		c9.44,16.04,29.25,32.08,53.78,38.69c32.08,9.44,67.94,10.38,113.23-6.6c36.8-14.15,75.49-42.46,105.68-75.49
		c35.86-38.69,49.07-63.22,62.28-80.21c23.59-28.31,59.45-79.26,109.46-122.67c17.93-15.1,36.8-24.53,49.07-19.82
		c7.55-18.87,3.77-29.25-3.77-33.97c-12.27-7.55-35.86,3.77-55.67,18.87c-54.73,41.52-100.02,105.68-123.61,133.99
		c-13.21,16.98-26.42,41.52-62.28,80.21c-55.67,61.33-130.22,96.25-201.93,71.71c-38.69-13.21-67-44.35-78.32-83.04
		c-1.89-7.55-6.61-9.44-10.38-4.72c-11.32,14.15-34.91,35.86-54.73,49.07c-1.89,1.89-7.55,4.72-12.27,2.83
		c-3.77-1.89-18.87-22.65-21.7-28.31c0-0.94-0.94-0.94-0.94-1.89l0,0c4.72,25.48,5.66,28.31,13.21,40.58
		C1293.36,2216.42,1300.91,2225.86,1302.8,2226.8z"/>
	
		<linearGradient id="SVGID_00000124132044323472780660000001145899831075956144_" gradientUnits="userSpaceOnUse" x1="-3007.2424" y1="1970.4509" x2="-3002.7363" y2="1970.4509" gradientTransform="matrix(0 -204.2444 -204.2444 0 403347.3438 -611898.9375)">
		<stop  offset="0" style="stop-color:#00082E"/>
		<stop  offset="0.321" style="stop-color:#010A30"/>
		<stop  offset="0.501" style="stop-color:#030F39"/>
		<stop  offset="0.647" style="stop-color:#071846"/>
		<stop  offset="0.773" style="stop-color:#0D245A"/>
		<stop  offset="0.809" style="stop-color:#0F2961"/>
		<stop  offset="0.839" style="stop-color:#0B386E"/>
		<stop  offset="0.896" style="stop-color:#054E83"/>
		<stop  offset="0.951" style="stop-color:#015B90"/>
		<stop  offset="1" style="stop-color:#006094"/>
	</linearGradient>
	<path style="fill:url(#SVGID_00000124132044323472780660000001145899831075956144_);" d="M870.63,1996.56
		c17.93-36.8,43.41-53.79,68.88-69.83c10.38-6.61,15.1-13.21,9.44-31.14c-1.89-4.72-2.83-14.15-4.72-22.65
		c0.94,7.55-2.83,15.1-10.38,17.93c-30.19,16.04-67,42.46-85.87,79.26c-15.1,30.2-17.93,66.05,4.72,100.02
		c1.89,2.83,3.78,5.66,6.61,7.55l0,0C851.76,2050.35,859.3,2020.15,870.63,1996.56L870.63,1996.56z"/>
	
		<linearGradient id="SVGID_00000049916441043612532910000012735816433154429330_" gradientUnits="userSpaceOnUse" x1="-3006.9617" y1="1968.8849" x2="-3002.458" y2="1968.8849" gradientTransform="matrix(0 -206.1787 -206.1787 0 407247.9688 -617653.8125)">
		<stop  offset="0" style="stop-color:#00082E"/>
		<stop  offset="0.321" style="stop-color:#010A30"/>
		<stop  offset="0.501" style="stop-color:#030F39"/>
		<stop  offset="0.647" style="stop-color:#071846"/>
		<stop  offset="0.773" style="stop-color:#0D245A"/>
		<stop  offset="0.809" style="stop-color:#0F2961"/>
		<stop  offset="0.839" style="stop-color:#0B386E"/>
		<stop  offset="0.896" style="stop-color:#054E83"/>
		<stop  offset="0.951" style="stop-color:#015B90"/>
		<stop  offset="1" style="stop-color:#006094"/>
	</linearGradient>
	<path style="fill:url(#SVGID_00000049916441043612532910000012735816433154429330_);" d="M1183.9,1554.01
		c111.35-36.8,234.96-13.21,334.98,7.55c14.15-8.49,26.42-15.1,38.69-21.7c5.66-2.83-0.94-6.6-2.83-6.6
		c-128.33-24.53-262.32-55.67-389.71-8.49c-88.7,33.03-127.39,102.85-108.51,150.03c3.78,8.49,9.44,16.04,16.99,20.76
		C1066.9,1652.15,1098.98,1581.38,1183.9,1554.01L1183.9,1554.01z"/>
	
		<linearGradient id="SVGID_00000117671574204681164860000008810506524166156928_" gradientUnits="userSpaceOnUse" x1="-3007.2224" y1="1969.3401" x2="-3002.7185" y2="1969.3401" gradientTransform="matrix(0 -204.3566 -204.3566 0 403632.9688 -612232.8125)">
		<stop  offset="0" style="stop-color:#00082E"/>
		<stop  offset="0.321" style="stop-color:#010A30"/>
		<stop  offset="0.501" style="stop-color:#030F39"/>
		<stop  offset="0.647" style="stop-color:#071846"/>
		<stop  offset="0.773" style="stop-color:#0D245A"/>
		<stop  offset="0.809" style="stop-color:#0F2961"/>
		<stop  offset="0.839" style="stop-color:#0B386E"/>
		<stop  offset="0.896" style="stop-color:#054E83"/>
		<stop  offset="0.951" style="stop-color:#015B90"/>
		<stop  offset="1" style="stop-color:#006094"/>
	</linearGradient>
	<path style="fill:url(#SVGID_00000117671574204681164860000008810506524166156928_);" d="M821.56,2225.86
		c36.8,25.48,72.66,33.97,114.18,34.91c84.92,1.89,163.24-33.97,245.34-117.01c79.26-80.21,147.2-192.5,215.14-303.84
		c1.89-3.77,4.72-5.66,16.04-7.55c42.46-5.66,80.21-7.55,117.95-11.32c11.32-0.94,19.82-1.89,23.59,1.89
		c13.21,13.21,29.25,25.48,39.63,32.08c6.6,0,12.27,1.89,16.99,5.66c4.72-0.94,8.49-2.83,11.32-5.66c4.72-4.72,4.72-10.38,4.72-15.1
		c-1.89-9.44-3.77-27.36-7.55-33.03c1.89,3.77,0.94,9.44-3.77,14.15c-2.83,3.77-7.55,6.61-13.21,6.61c-4.72,0-7.55-1.89-14.15-4.72
		c-12.27-6.61-28.31-17.93-38.69-31.14c-3.78-4.72-5.66-4.72-14.15-3.77c-39.63,1.89-102.85,8.49-144.37,13.21
		c-10.38,0.94-11.32,2.83-14.15,6.61c-67,111.35-139.65,231.18-218.92,311.39c-84.92,85.87-155.69,108.51-230.24,109.46
		c-86.81,0.94-163.24-48.12-183.06-133.99l0,0C755.51,2142.82,786.65,2200.38,821.56,2225.86L821.56,2225.86z"/>
	
		<linearGradient id="SVGID_00000169520903915582987440000016459030966876622981_" gradientUnits="userSpaceOnUse" x1="-3007.1118" y1="1969.2516" x2="-3002.6079" y2="1969.2516" gradientTransform="matrix(0 -205.1317 -205.1317 0 405164.3125 -614538.8125)">
		<stop  offset="0" style="stop-color:#00082E"/>
		<stop  offset="0.321" style="stop-color:#010A30"/>
		<stop  offset="0.501" style="stop-color:#030F39"/>
		<stop  offset="0.647" style="stop-color:#071846"/>
		<stop  offset="0.773" style="stop-color:#0D245A"/>
		<stop  offset="0.809" style="stop-color:#0F2961"/>
		<stop  offset="0.839" style="stop-color:#0B386E"/>
		<stop  offset="0.896" style="stop-color:#054E83"/>
		<stop  offset="0.951" style="stop-color:#015B90"/>
		<stop  offset="1" style="stop-color:#006094"/>
	</linearGradient>
	<path style="fill:url(#SVGID_00000169520903915582987440000016459030966876622981_);" d="M1141.44,1852.19
		c-1.89-2.83-2.83-6.61-2.83-9.44c-0.94,14.15,4.72,35.86,9.44,42.46c4.72,7.55,19.82,11.32,31.14,2.83
		c25.48-18.87,49.07-30.2,75.49-34.91c6.61-9.44,14.15-18.87,22.65-31.14c0.94-0.94,0.94-1.89,0.94-2.83c0-0.94-0.94-0.94-2.83-0.94
		c-38.69,0.94-71.71,12.27-103.8,36.8C1160.31,1862.57,1147.1,1860.69,1141.44,1852.19z"/>
	
		<linearGradient id="SVGID_00000159429727870331172090000016240181348307762108_" gradientUnits="userSpaceOnUse" x1="-3007.2429" y1="1966.8726" x2="-3002.7322" y2="1966.8726" gradientTransform="matrix(0 -204.2487 -204.2487 0 403564.375 -611911.8125)">
		<stop  offset="0" style="stop-color:#00082E"/>
		<stop  offset="0.321" style="stop-color:#010A30"/>
		<stop  offset="0.501" style="stop-color:#030F39"/>
		<stop  offset="0.647" style="stop-color:#071846"/>
		<stop  offset="0.773" style="stop-color:#0D245A"/>
		<stop  offset="0.809" style="stop-color:#0F2961"/>
		<stop  offset="0.839" style="stop-color:#0B386E"/>
		<stop  offset="0.896" style="stop-color:#054E83"/>
		<stop  offset="0.951" style="stop-color:#015B90"/>
		<stop  offset="1" style="stop-color:#006094"/>
	</linearGradient>
	<path style="fill:url(#SVGID_00000159429727870331172090000016240181348307762108_);" d="M2181.29,1591.76
		c-53.78,29.25-109.46,37.74-167.96,38.69c-141.54,0.94-272.7-53.79-408.58-83.04c0,5.66,1.89,13.21-2.83,16.98
		c-75.49,55.67-143.43,112.29-189.66,191.55c-1.89,1.89-0.94,3.77,1.89,3.77c12.27-0.94,23.59-0.94,34.91-1.89
		c41.52-65.11,85.87-102.85,153.81-152.86c4.72-3.77,10.38-6.61,8.49-20.76c136.82,30.2,240.62,80.21,417.07,81.15
		c52.84,0,126.44-16.98,167.02-41.52c46.24-27.36,58.5-48.12,59.45-68.88c0.94-6.61-0.94-16.98-1.89-21.7
		c-1.89-7.55-2.83-16.98-4.72-23.59c0.94,2.83,0.94,5.66,0.94,9.44C2247.35,1542.69,2228.47,1566.28,2181.29,1591.76
		L2181.29,1591.76z"/>
	
		<linearGradient id="SVGID_00000045601026866456999640000006534720406806973587_" gradientUnits="userSpaceOnUse" x1="-3007.158" y1="1967.788" x2="-3002.6565" y2="1967.788" gradientTransform="matrix(0 -204.7104 -204.7104 0 404420.7812 -613285.75)">
		<stop  offset="0" style="stop-color:#00082E"/>
		<stop  offset="0.321" style="stop-color:#010A30"/>
		<stop  offset="0.501" style="stop-color:#030F39"/>
		<stop  offset="0.647" style="stop-color:#071846"/>
		<stop  offset="0.773" style="stop-color:#0D245A"/>
		<stop  offset="0.809" style="stop-color:#0F2961"/>
		<stop  offset="0.839" style="stop-color:#0B386E"/>
		<stop  offset="0.896" style="stop-color:#054E83"/>
		<stop  offset="0.951" style="stop-color:#015B90"/>
		<stop  offset="1" style="stop-color:#006094"/>
	</linearGradient>
	<path style="fill:url(#SVGID_00000045601026866456999640000006534720406806973587_);" d="M1591.54,1683.29
		c-1.89,1.89-3.78,2.83-5.66,4.72c-13.21,14.15-17.93,32.08-16.04,46.24c0.94,5.66,2.83,6.61,5.66,6.61
		c2.83-0.94,5.66-0.94,7.55-2.83c0.94-7.55,3.78-15.1,12.27-21.7c5.66-4.72,12.27-7.55,18.87-6.61c5.66-10.38,6.6-22.65,0-28.31
		C1608.53,1676.68,1599.09,1677.63,1591.54,1683.29L1591.54,1683.29z"/>
	
		<linearGradient id="SVGID_00000001665010354135874570000018069267455786922894_" gradientUnits="userSpaceOnUse" x1="-3007.2227" y1="1967.6713" x2="-3002.7188" y2="1967.6713" gradientTransform="matrix(0 -204.2728 -204.2728 0 403565.2812 -611983.75)">
		<stop  offset="0" style="stop-color:#00082E"/>
		<stop  offset="0.321" style="stop-color:#010A30"/>
		<stop  offset="0.501" style="stop-color:#030F39"/>
		<stop  offset="0.647" style="stop-color:#071846"/>
		<stop  offset="0.773" style="stop-color:#0D245A"/>
		<stop  offset="0.809" style="stop-color:#0F2961"/>
		<stop  offset="0.839" style="stop-color:#0B386E"/>
		<stop  offset="0.896" style="stop-color:#054E83"/>
		<stop  offset="0.951" style="stop-color:#015B90"/>
		<stop  offset="1" style="stop-color:#006094"/>
	</linearGradient>
	<path style="fill:url(#SVGID_00000001665010354135874570000018069267455786922894_);" d="M1645.33,1732.35
		c-13.21,24.53-33.97,37.74-54.73,44.35c0,0-4.72,0.94-3.77,4.72c0.94,4.72,15.1,13.21,24.53,19.82c0.94,0,2.83-0.94,2.83-0.94
		c10.38-3.77,28.31-15.1,37.74-36.8c6.61-14.15,10.38-25.48,7.55-50.01c-1.89-16.98-5.66-33.03-10.38-40.58
		C1658.54,1690.84,1655.71,1713.48,1645.33,1732.35L1645.33,1732.35z"/>
	
		<linearGradient id="SVGID_00000029738842638815520460000005051026685423916214_" gradientUnits="userSpaceOnUse" x1="-3007.2283" y1="1969.5784" x2="-3002.7153" y2="1969.5784" gradientTransform="matrix(0 -204.3203 -204.3203 0 403546.8438 -612124.9375)">
		<stop  offset="0" style="stop-color:#00082E"/>
		<stop  offset="0.321" style="stop-color:#010A30"/>
		<stop  offset="0.501" style="stop-color:#030F39"/>
		<stop  offset="0.647" style="stop-color:#071846"/>
		<stop  offset="0.773" style="stop-color:#0D245A"/>
		<stop  offset="0.809" style="stop-color:#0F2961"/>
		<stop  offset="0.839" style="stop-color:#0B386E"/>
		<stop  offset="0.896" style="stop-color:#054E83"/>
		<stop  offset="0.951" style="stop-color:#015B90"/>
		<stop  offset="1" style="stop-color:#006094"/>
	</linearGradient>
	<path style="fill:url(#SVGID_00000029738842638815520460000005051026685423916214_);" d="M1266,1643.66
		c-37.74,87.76-108.52,157.58-195.33,160.41c-49.07,1.89-85.87-21.7-105.68-56.62c14.15,26.42,38.69,49.07,60.39,62.28
		c18.87,11.32,42.46,17.93,68.88,16.98c90.59-2.83,159.47-77.38,182.12-140.6c5.66-16.99,0.94-34.91-1.89-47.18
		c-0.94-4.72-2.83-15.1-6.61-22.65l0,0C1270.71,1622.9,1270.71,1631.39,1266,1643.66L1266,1643.66z"/>
	<path class="st24" d="M1745.35,1228.47c-955.87,0-1722.08,286.86-1722.08,645.43c0,356.68,772.81,645.43,1722.08,645.43
		s1722.08-289.69,1722.08-645.43S2694.61,1228.47,1745.35,1228.47 M35.54,1881.44c0-75.49,33.03-150.98,102.85-221.75
		c246.28-249.11,892.65-417.07,1604.13-419.9c942.66-3.77,1711.7,277.42,1713.58,626.55c0,75.49-34.91,150.03-104.74,219.86
		c-246.28,249.11-890.76,418.02-1602.24,420.85C805.52,2511.77,36.48,2230.58,35.54,1881.44 M3457.05,1823.88
		c0.94,2.83,0.94,6.61,1.89,9.44C3457.99,1830.49,3457.05,1827.66,3457.05,1823.88"/>
	
		<linearGradient id="SVGID_00000120540798388218693070000012411815860992060858_" gradientUnits="userSpaceOnUse" x1="-2995.1572" y1="1974.0868" x2="-2990.6558" y2="1974.0868" gradientTransform="matrix(-88.4134 -329.9634 -329.9634 88.4134 387932.0312 -1160001.125)">
		<stop  offset="0" style="stop-color:#A5A5A6"/>
		<stop  offset="0.35" style="stop-color:#D7D7D7"/>
		<stop  offset="0.65" style="stop-color:#D7D7D7"/>
		<stop  offset="1" style="stop-color:#A5A5A6"/>
	</linearGradient>
	<path style="fill:url(#SVGID_00000120540798388218693070000012411815860992060858_);" d="M28.93,1873.9
		c0,16.98,1.89,33.97,5.66,50.01c-2.83-14.15-3.77-28.31-3.77-43.41c0-76.43,33.97-153.81,104.74-225.52
		c248.17-250.06,894.54-418.02,1607.9-420.85c99.08,0,195.33,1.89,290.63,7.55c-95.3-5.66-191.55-9.44-287.8-9.44
		C793.25,1233.19,28.93,1519.1,28.93,1873.9z"/>
	
		<linearGradient id="SVGID_00000060012559520944262030000006285142957419398322_" gradientUnits="userSpaceOnUse" x1="-2158.1812" y1="2128.0693" x2="-2204.1909" y2="1956.3641" gradientTransform="matrix(8.6315 0 0 8.6315 21040.3809 -16361.0391)">
		<stop  offset="0" style="stop-color:#A5A5A6"/>
		<stop  offset="0.35" style="stop-color:#D7D7D7"/>
		<stop  offset="0.65" style="stop-color:#D7D7D7"/>
		<stop  offset="1" style="stop-color:#A5A5A6"/>
	</linearGradient>
	<path style="fill:url(#SVGID_00000060012559520944262030000006285142957419398322_);" d="M3354.19,2090.92
		c-247.22,249.11-893.59,418.96-1606.01,421.79c-99.08,0.94-197.21-1.89-295.35-8.49c95.3,5.66,193.44,9.44,292.52,9.44
		c946.44,0,1716.42-288.74,1716.42-639.76c0-13.21-0.94-26.42-3.77-39.63c1.89,11.32,1.89,21.7,1.89,33.03
		C3461.76,1943.72,3424.96,2020.15,3354.19,2090.92"/>
	<path class="st27" d="M1745.35,1307.73c-897.37,0-1624.89,252.89-1624.89,565.22s727.52,565.22,1624.89,565.22
		s1624.89-252.89,1624.89-565.22C3370.23,1561.56,2642.72,1307.73,1745.35,1307.73L1745.35,1307.73z M1745.35,2390.05
		c-866.23,0-1568.27-231.18-1568.27-516.15s702.04-516.15,1568.27-516.15c866.23,0,1568.27,231.18,1568.27,516.15
		C3312.67,2158.86,2611.58,2390.05,1745.35,2390.05L1745.35,2390.05z"/>
	<path class="st27" d="M2756.89,1688.95c1.89-3.77,0-6.61-4.72-6.61c-26.42,0-60.39,0-86.81,0c-6.6,0-9.44,0.94-13.21,6.61
		c-10.38,18.87-131.16,200.99-153.81,236.84c-3.77,5.66-8.49,4.72-9.44-1.89c-1.89-20.76-20.76-45.29-49.07-56.62
		c-21.7-8.49-43.41-10.38-65.11-7.55c-39.63,5.66-75.49,26.42-106.63,50.01c-47.18,35.86-87.76,82.09-140.6,117.01
		c-28.31,18.87-67.94,34.91-94.36,10.38c-23.59-21.7-20.76-70.77,15.1-109.46c3.78-3.77,8.49-0.94,7.55,2.83
		c-3.77,16.98,0.94,33.97,14.15,46.24c16.04,14.15,38.69,16.04,58.5,6.61c22.65-11.32,36.8-33.03,40.58-58.5
		c5.66-38.69-23.59-72.66-61.33-75.49c-30.19-1.89-59.45,8.49-87.76,32.08c-14.15,11.32-22.65,20.76-34.91,37.74
		c-2.83,4.72-7.55,4.72-7.55-1.89c0.94-49.07-18.87-77.38-60.39-78.32c-32.08-0.94-66.05,16.04-92.47,37.74
		c-29.25,23.59-54.73,53.79-82.09,83.04c-3.77,3.77-6.6,3.77-7.55-3.77c-0.94-33.03-9.44-65.11-24.53-86.81
		c-5.66-7.55-16.99-11.32-26.42-6.61c-4.72,2.83-19.82,9.44-31.14,17.93c-5.66,4.72-7.55,11.32-5.66,19.82
		c15.1,49.07,11.32,104.74-8.49,151.92c-17.93,43.41-53.78,82.09-95.3,95.3c-27.36,8.49-55.67,4.72-73.6-19.82
		c-24.53-33.97-14.15-92.47,21.7-140.6c32.08-42.46,78.32-69.83,124.56-87.76c5.66-1.89,6.61-5.66,4.72-10.38
		c-2.83-7.55-6.61-17.93-8.49-22.65c-3.77-11.32-16.04-13.21-30.19-11.32c-33.03,3.77-64.17,15.1-93.42,31.14
		c-78.32,41.52-117.01,122.67-134.94,166.07c-8.49,20.76-15.1,33.97-24.53,45.29c-12.27,15.1-27.36,29.25-55.67,54.73
		c-2.83,1.89-4.72,6.61-1.89,11.32c2.83,5.66,17.93,26.42,21.7,28.31c4.72,1.89,10.38-0.94,12.27-2.83
		c19.82-13.21,43.41-34.91,54.73-49.07c3.77-4.72,8.49-2.83,10.38,4.72c10.38,38.69,38.69,69.83,78.32,83.04
		c71.71,24.53,146.26-10.38,201.93-71.71c35.86-38.69,48.12-63.22,62.28-80.21c23.59-28.31,68.88-92.47,123.61-133.99
		c19.82-15.1,43.41-26.42,55.67-18.87c9.44,6.61,12.27,20.76-2.83,48.12c-55.67,100.97-136.82,220.8-151.92,249.11
		c-2.83,4.72,0,9.44,4.72,9.44c29.25,0,57.56,0,83.98,0c4.72,0,6.6-1.89,8.49-5.66c42.46-67,83.04-130.22,125.5-195.33
		c2.83-3.77,4.72-0.94,4.72,0.94c0.94,15.1,4.72,35.86,13.21,50.01c16.04,25.48,39.63,35.86,65.11,35.86
		c20.76,0,30.19-2.83,52.84-11.32c15.1-5.66,30.19-13.21,43.41-23.59c6.6-4.72,7.55,2.83,7.55,3.77
		c-9.44,52.84,1.89,116.06,54.73,141.54c63.22,31.14,132.1-12.27,171.74-51.9c3.78-3.77,8.49-3.77,8.49,4.72
		c0.94,15.1,7.55,33.03,19.82,45.29c33.03,33.03,100.96,19.82,167.96-32.08c43.41-33.03,88.7-81.15,130.22-131.16
		c1.89-1.89,2.83-4.72,0-8.49c-6.6-6.61-15.1-14.15-21.7-19.82c-2.83-1.89-6.61-1.89-9.44,0c-41.52,39.63-80.21,85.87-133.99,122.67
		c-18.87,13.21-48.12,23.59-61.33,5.66c-4.72-6.6-4.72-16.98,0.94-29.25C2491.74,2095.64,2743.68,1711.6,2756.89,1688.95
		 M2423.8,2010.72c0.94,2.83,4.72,5.66,8.49,7.55c0.94,0.94,1.89,0.94,0.94,4.72c-10.38,22.65-20.76,35.86-33.97,56.62
		c-12.27,18.87-26.42,33.03-43.41,46.24c-25.48,20.76-60.39,44.35-89.64,28.31c-13.21-6.61-18.87-24.53-17.93-39.63
		c0.94-41.52,18.87-83.98,52.84-125.5c41.52-50.95,86.81-77.38,117.01-63.22c31.14,15.1,20.76,50.95,7.55,79.26
		C2422.86,2006.94,2422.86,2008.83,2423.8,2010.72"/>
	<path class="st27" d="M927.24,2229.63c-94.36,0.94-176.45-57.56-186.83-158.53c-5.66-55.67,10.38-105.68,42.46-146.26
		c28.31-36.8,75.49-67,115.12-74.55c13.21-2.83,30.19-0.94,37.74,7.55c11.32,13.21,8.49,27.36-2.83,33.97
		c-30.19,16.04-67,42.46-85.87,79.26c-15.1,30.2-17.93,66.05,4.72,100.02c37.74,56.62,143.43,58.5,240.62-32.08
		c24.53-22.65,46.24-43.41,67.94-68.88c43.41-49.07,57.56-67,115.12-147.2c0.94-0.94,0.94-1.89,0.94-2.83
		c0-0.94-0.94-0.94-2.83-0.94c-38.69,0.94-71.71,12.27-103.8,36.8c-9.44,6.61-22.65,5.66-28.31-2.83
		c-6.6-10.38-1.89-23.59,8.49-31.14c51.9-35.86,109.46-42.46,167.02-52.84c0,0,3.78,0,7.55-3.77c23.59-30.2,41.52-58.5,67-89.64
		c25.48-31.14,58.5-60.39,83.98-82.09c34.91-30.2,57.56-40.58,81.15-52.84c5.66-2.83-0.94-6.61-2.83-6.61
		c-128.33-24.53-262.32-55.67-389.71-8.49c-88.7,33.03-127.39,102.85-108.52,150.03c13.21,33.03,56.62,38.69,98.14,18.87
		c35.86-17.93,66.05-44.35,87.76-78.32c12.27-18.87,38.69-5.66,24.53,28.31c-37.74,87.76-108.51,157.58-195.33,160.41
		c-73.6,2.83-121.73-51.9-121.73-118.89c0-132.1,148.15-219.86,302.9-233.07c186.83-15.1,363.29,33.97,549.18,56.62
		c142.48,16.99,278.36,17.93,420.85-15.1c16.99-3.77,28.31,7.55,27.36,24.53c-0.94,24.53-20.76,48.12-67,73.6
		c-53.78,29.25-109.46,37.74-167.96,38.69c-141.54,0.94-272.7-53.79-408.58-83.04c0,5.66,1.89,13.21-2.83,16.98
		c-75.49,55.67-143.43,112.29-189.66,191.55c-1.89,1.89-0.94,3.77,1.89,3.77c39.63-1.89,75.49-2.83,112.29-5.66
		c6.6-0.94,6.6-1.89,6.6-6.61c-2.83-27.36,4.72-58.5,28.31-80.21c24.53-21.7,55.67-24.53,75.49-8.49
		c23.59,17.93,20.76,50.95,8.49,75.49c-13.21,24.53-33.97,37.74-54.73,44.35c0,0-4.72,0.94-3.77,4.72
		c0.94,6.61,28.31,21.7,31.14,25.48c1.89,3.77,0.94,10.38-2.83,15.1c-2.83,3.77-7.55,6.61-13.21,6.61c-4.72,0-7.55-1.89-14.15-4.72
		c-12.27-6.61-28.31-17.93-38.69-31.14c-3.77-4.72-5.66-4.72-14.15-3.77c-39.63,1.89-102.85,8.49-144.37,13.21
		c-10.38,0.94-11.32,2.83-14.15,6.61c-67,111.35-139.65,231.18-218.92,311.39C1072.56,2206.04,1002.73,2228.69,927.24,2229.63
		 M1570.78,1735.19c0.94,5.66,2.83,6.61,5.66,6.61c13.21-2.83,26.42-13.21,34.91-25.48c7.55-11.32,11.32-27.36,3.77-33.97
		c-6.6-5.66-17.93-3.77-25.48,2.83C1573.61,1699.33,1567.95,1720.09,1570.78,1735.19"/>
</g>
</svg>
