<svg xmlns="http://www.w3.org/2000/svg" xmlns:xlink="http://www.w3.org/1999/xlink" viewBox="0 0 211.05 28.85"><defs><linearGradient id="a" x1="433.74" y1="499.46" x2="433.74" y2="524.66" gradientUnits="userSpaceOnUse"><stop offset="0" stop-color="#ccc"/><stop offset="0.04" stop-color="#cfcfcf"/><stop offset="0.08" stop-color="#dadada"/><stop offset="0.11" stop-color="#ebebeb"/><stop offset="0.13" stop-color="#fff"/><stop offset="0.3" stop-color="#fff"/><stop offset="0.63" stop-color="#999"/><stop offset="0.81" stop-color="#999"/><stop offset="0.84" stop-color="#9f9f9f"/><stop offset="0.87" stop-color="#b0b0b0"/><stop offset="0.91" stop-color="#ccc"/><stop offset="0.95" stop-color="#f2f2f2"/><stop offset="0.97" stop-color="#fff"/></linearGradient><linearGradient id="b" x1="117.49" y1="2.17" x2="117.49" y2="27.08" xlink:href="#a"/><linearGradient id="c" x1="472.91" y1="499.26" x2="472.91" y2="524.47" xlink:href="#a"/><linearGradient id="d" x1="550.98" y1="499.26" x2="550.98" y2="524.47" xlink:href="#a"/><linearGradient id="e" x1="593.97" y1="499.46" x2="593.97" y2="524.66" xlink:href="#a"/></defs><title>Haval logo - Brandlogos.net</title><path d="M428.91,526.43,435,515.11c-1.12,0-2.15.06-3.06.15-2.31.24-4.69,2.45-5.77,4.42l-3.6,6.74H406.47l16-28.85h16.16l-4.77,8.32c1.27-.08,2.47-.12,3.31-.13l2.76,0h.25l4.7-8.18H461l-16,28.85Z" transform="translate(-406.47 -497.57)"/><path d="M441.31,507.6l4.7-8.24h11.77l-13.91,25.28H432.1l6.08-11.29a40.59,40.59,0,0,0-6.39.05c-3.1.32-5.95,3.07-7.24,5.45l-3.07,5.79H409.7l13.91-25.28h11.77l-5,8.82a40.65,40.65,0,0,1,6.87-.57C439.53,507.58,441.31,507.6,441.31,507.6Z" transform="translate(-406.47 -497.57)" style="fill:url(#a)"/><path d="M444.09,524.91H431.46l6.1-11.27c-.5,0-1.28-.05-2.19-.05a35.35,35.35,0,0,0-3.54.16c-2.86.29-5.66,2.84-6.95,5.21l-3.18,5.95H409.05l14.33-25.83H436l-4.94,8.63a48.74,48.74,0,0,1,6.13-.43c1.83,0,3.33,0,3.87,0l4.7-8.18h12.63Zm-11.36-.82h10.91l13.49-24.18h-10.9l-4.7,8.15-.22,0s-1.77,0-4.08,0a39.52,39.52,0,0,0-6.79.56l-.83.2,5.11-8.9H423.83l-13.49,24.18h10.9l3-5.52c1.34-2.47,4.28-5.25,7.54-5.59a36.21,36.21,0,0,1,3.62-.16c1.62,0,2.83.09,2.84.09h.59Z" transform="translate(-406.47 -497.57)" style="fill:#fff"/><polygon points="94.87 28.85 94.34 0 109.24 0 109.64 11.3 123.39 0 143.87 0 109.87 28.85 94.87 28.85"/><polygon points="96.73 27.07 109.17 27.07 138.7 1.79 124.07 1.79 107.87 15.15 107.41 1.79 96.28 1.79 96.73 27.07" style="fill:url(#b)"/><path d="M515.78,524.91H502.83L502.36,499l11.87,0,.47,13,15.7-12.91h15.8Zm-12.2-.82H515.5l28.63-24.18H530.68L514,513.59l-.49-13.77-10.37-.1Z" transform="translate(-406.47 -497.57)" style="fill:#fff"/><path d="M472.74,526.43l2.54-5.61c-1.12-.05-2.48-.1-3.89-.12h-.14a11.42,11.42,0,0,0-6.72,2.15l-3.67,3.58H444.16L466.82,506c.77-.73,3.48-2.77,5.53-4.19a31,31,0,0,1,15.05-4.23h12.31l-13.57,28.85Zm6.68-14.81,2.09-4.05c-1.55,1.09-4,3.17-5,4.05Z" transform="translate(-406.47 -497.57)"/><path d="M487.4,499.36a29,29,0,0,0-14,3.95,64.49,64.49,0,0,0-5.34,4.12l-19,17.21h11l3.14-3.12a13.25,13.25,0,0,1,8.19-2.69c3.55,0,6.73.31,6.73.31l-2.47,5.5h9.26l11.79-25.28Zm-6.83,14.29h-8.8l3.42-3.33a63.31,63.31,0,0,1,6-4.81,6.13,6.13,0,0,1,3.88-.72Z" transform="translate(-406.47 -497.57)" style="fill:url(#c)"/><path d="M485.18,524.91H475.09l2.48-5.49c-1.06-.06-3.52-.2-6.16-.24h-.16a12.89,12.89,0,0,0-7.77,2.57l-3.25,3.16H448.11l19.72-17.79c.66-.62,3.21-2.58,5.38-4.07a29.23,29.23,0,0,1,14.19-4h9.92Zm-8.91-.76h8.43l11.43-24.3H487.4a28.86,28.86,0,0,0-13.76,3.82c-2.14,1.47-4.65,3.4-5.3,4l-18.26,16.47h9.84l3-3a13.54,13.54,0,0,1,8.29-2.78h.17c3.52,0,6.72.27,6.75.27l.54,0Zm4.53-10.25h-10l4.11-3.92a63.52,63.52,0,0,1,6.12-4.83,6.6,6.6,0,0,1,3.33-.87,5.38,5.38,0,0,1,.81.05l.51.09Zm-8.08-.76h7.62l4.18-8.1a5.91,5.91,0,0,0-3.09.76,64.56,64.56,0,0,0-6,4.74Z" transform="translate(-406.47 -497.57)" style="fill:#fff"/><path d="M550.8,526.43l2.54-5.61c-1.12-.05-2.47-.1-3.88-.12h-.14a11.42,11.42,0,0,0-6.72,2.15l-3.67,3.58H522.23L544.88,506c.78-.73,3.48-2.78,5.53-4.19a31,31,0,0,1,15.05-4.23h12.31l-13.57,28.85Zm6.68-14.81,2.09-4.05c-1.55,1.09-4,3.17-5,4.05Z" transform="translate(-406.47 -497.57)"/><path d="M565.47,499.36a29,29,0,0,0-14,3.95,64.52,64.52,0,0,0-5.34,4.12l-19,17.21h11l3.14-3.12a13.25,13.25,0,0,1,8.19-2.69c3.55,0,6.73.31,6.73.31l-2.47,5.5H563l11.79-25.28Zm-6.83,14.29h-8.8l3.42-3.33a63.33,63.33,0,0,1,6-4.81,6.13,6.13,0,0,1,3.88-.72Z" transform="translate(-406.47 -497.57)" style="fill:url(#d)"/><path d="M563.24,524.91H553.16l2.48-5.49c-1.06-.06-3.52-.2-6.16-.24h-.16a12.89,12.89,0,0,0-7.77,2.57l-3.25,3.16H526.18l19.72-17.79c.66-.62,3.21-2.58,5.38-4.07a29.23,29.23,0,0,1,14.19-4h9.92Zm-8.91-.76h8.43l11.43-24.3h-8.72a28.86,28.86,0,0,0-13.76,3.82c-2.14,1.47-4.65,3.39-5.3,4l-18.26,16.47H538l3-3a13.55,13.55,0,0,1,8.29-2.78h.17c3.52,0,6.72.27,6.75.27l.54,0Zm4.54-10.25h-10L553,510a63.56,63.56,0,0,1,6.12-4.83,6.59,6.59,0,0,1,3.33-.87,5.37,5.37,0,0,1,.81.05l.52.09Zm-8.08-.76h7.62l4.18-8.1a5.92,5.92,0,0,0-3.09.76,64.55,64.55,0,0,0-6,4.74Z" transform="translate(-406.47 -497.57)" style="fill:#fff"/><path d="M583.12,526.43c-1.27,0-5.51-.13-7.42-1.4-3-2-3.72-5.91-1.7-9.47,1.21-2.14,9.52-16.87,9.61-17l.54-1H608l-7.36,3.6a13.89,13.89,0,0,0-5.12,4.8c-.91,1.55-4.54,8-5.76,10.2h27.79l-9.46,10.25Z" transform="translate(-406.47 -497.57)"/><path d="M587.68,516s5.06-9.1,6.18-11a16,16,0,0,1,5.93-5.59H585.27s-8.38,14.92-9.61,17.08c-1.39,2.45-1.3,5.43,1.1,7,1.58,1.05,6.37,1.16,6.37,1.16h24.11l6-6.59H588.25A1.44,1.44,0,0,1,587.68,516Z" transform="translate(-406.47 -497.57)" style="fill:url(#e)"/><path d="M607.4,524.91H583.12c-.2,0-4.92,0-6.58-1.15-2.37-1.58-2.86-4.57-1.22-7.45,1.21-2.14,9.52-16.88,9.61-17l.11-.2h16.38l-1.47.72a15.43,15.43,0,0,0-5.77,5.39c-1.11,1.88-6.13,10.86-6.18,11a1.15,1.15,0,0,0-.19.89c.09.35.4.45.54.73h25.7Zm-21.91-25c-1,1.65-8.36,14.8-9.5,16.8s-1.34,4.85,1,6.4c1.22.81,4.86,1,6.16,1h23.94l5.26-5.77H588.15l-.08,0a2,2,0,0,1-1-1.17,1.75,1.75,0,0,1,.26-1.41c0-.08,5.07-9,6.18-10.91a15,15,0,0,1,4.86-4.93Z" transform="translate(-406.47 -497.57)" style="fill:#fff"/></svg>