<?xml version="1.0" encoding="iso-8859-1"?>
<!-- Generator: Adobe Illustrator 24.3.0, SVG Export Plug-In . SVG Version: 6.00 Build 0)  -->
<svg version="1.1" id="Layer_2" xmlns="http://www.w3.org/2000/svg" xmlns:xlink="http://www.w3.org/1999/xlink" x="0px" y="0px"
	 viewBox="0 0 500 500" style="enable-background:new 0 0 500 500;" xml:space="preserve">
<g id="watermark_1_">
	<g>
		<g id="watermark" style="opacity:0.61;">
			<g>
				<g>
					<g>
						<g>
							<polygon style="fill:#FFFFFF;" points="213.765,461.172 208.204,474.017 205.268,474.017 199.726,461.172 202.938,461.172 
								206.846,470.347 210.81,461.172 							"/>
						</g>
						<g>
							<path style="fill:#FFFFFF;" d="M223.507,469.741h-7.469c0.275,1.23,1.321,1.982,2.826,1.982c1.046,0,1.798-0.312,2.477-0.954
								l1.523,1.651c-0.917,1.046-2.294,1.597-4.074,1.597c-3.413,0-5.634-2.147-5.634-5.083c0-2.954,2.257-5.083,5.267-5.083
								c2.899,0,5.138,1.945,5.138,5.12C223.562,469.191,223.526,469.503,223.507,469.741 M216.002,468.071h4.863
								c-0.202-1.248-1.138-2.055-2.422-2.055C217.139,466.016,216.204,466.805,216.002,468.071"/>
						</g>
						<g>
							<path style="fill:#FFFFFF;" d="M224.735,468.934c0-2.973,2.294-5.083,5.505-5.083c2.074,0,3.707,0.899,4.423,2.514
								l-2.22,1.193c-0.532-0.936-1.321-1.358-2.221-1.358c-1.45,0-2.587,1.009-2.587,2.734c0,1.725,1.138,2.734,2.587,2.734
								c0.899,0,1.688-0.404,2.221-1.358l2.22,1.211c-0.716,1.578-2.349,2.495-4.423,2.495
								C227.029,474.017,224.735,471.907,224.735,468.934"/>
						</g>
						<g>
							<path style="fill:#FFFFFF;" d="M242.828,473.393c-0.587,0.422-1.45,0.624-2.331,0.624c-2.33,0-3.688-1.193-3.688-3.542
								v-4.055h-1.523v-2.202h1.523v-2.404h2.863v2.404h2.459v2.202h-2.459v4.019c0,0.844,0.458,1.303,1.229,1.303
								c0.422,0,0.844-0.128,1.156-0.367L242.828,473.393z"/>
						</g>
					</g>
					<g>
						<path style="fill:#FFFFFF;" d="M262.474,463.997v2.643c-0.238-0.018-0.422-0.037-0.642-0.037
							c-1.578,0-2.624,0.862-2.624,2.753v4.661h-2.863v-9.873h2.734v1.303C259.776,464.493,260.951,463.997,262.474,463.997"/>
					</g>
					<g>
						<path style="fill:#FFFFFF;" d="M263.299,472.53l1.009-2.239c1.083,0.789,2.697,1.339,4.239,1.339
							c1.762,0,2.477-0.587,2.477-1.376c0-2.404-7.469-0.752-7.469-5.524c0-2.184,1.762-4,5.413-4c1.615,0,3.267,0.385,4.459,1.138
							l-0.918,2.257c-1.193-0.679-2.422-1.009-3.56-1.009c-1.761,0-2.44,0.66-2.44,1.468c0,2.367,7.468,0.734,7.468,5.45
							c0,2.147-1.78,3.982-5.45,3.982C266.492,474.017,264.437,473.411,263.299,472.53"/>
					</g>
					<g>
						<path style="fill:#FFFFFF;" d="M285.428,469.741h-7.469c0.275,1.23,1.321,1.982,2.826,1.982c1.046,0,1.798-0.312,2.477-0.954
							l1.523,1.651c-0.918,1.046-2.294,1.597-4.074,1.597c-3.413,0-5.634-2.147-5.634-5.083c0-2.954,2.257-5.083,5.267-5.083
							c2.9,0,5.138,1.945,5.138,5.12C285.484,469.191,285.447,469.503,285.428,469.741 M277.923,468.071h4.863
							c-0.202-1.248-1.138-2.055-2.422-2.055C279.061,466.016,278.125,466.805,277.923,468.071"/>
					</g>
					<g>
						<path style="fill:#FFFFFF;" d="M297.007,469.741h-7.469c0.275,1.23,1.321,1.982,2.826,1.982c1.046,0,1.798-0.312,2.477-0.954
							l1.523,1.651c-0.918,1.046-2.294,1.597-4.074,1.597c-3.413,0-5.634-2.147-5.634-5.083c0-2.954,2.257-5.083,5.267-5.083
							c2.899,0,5.138,1.945,5.138,5.12C297.062,469.191,297.025,469.503,297.007,469.741 M289.501,468.071h4.863
							c-0.202-1.248-1.138-2.055-2.422-2.055C290.639,466.016,289.703,466.805,289.501,468.071"/>
					</g>
					<g>
						<polygon style="fill:#FFFFFF;" points="303.208,470.145 301.831,471.503 301.831,474.017 298.969,474.017 298.969,460.401 
							301.831,460.401 301.831,468.108 306.016,464.144 309.429,464.144 305.318,468.328 309.796,474.017 306.327,474.017 						"/>
					</g>
					<g>
						<path style="fill:#FFFFFF;" d="M256.601,475.359L256.601,475.359l-2.86-2.86c-0.435,0.508-0.953,0.943-1.534,1.284
							c-0.092,0.069-0.186,0.136-0.283,0.199l3.027,3.027c0.456,0.456,1.195,0.456,1.65,0
							C257.057,476.554,257.057,475.815,256.601,475.359"/>
					</g>
					<g>
						<path style="fill:#FFFFFF;" d="M249.984,463.244c0.221-0.173,0.495-0.281,0.797-0.281c0.042,0,0.083,0.002,0.124,0.006
							c-0.214-0.156-0.478-0.249-0.764-0.249c-0.395,0-0.744,0.18-0.981,0.458c-0.051,0-0.1,0.006-0.151,0.008
							c0.039-0.077,0.064-0.162,0.064-0.255c0-0.234-0.143-0.434-0.346-0.519c0.087,0.126,0.138,0.279,0.138,0.445
							c0,0.122-0.031,0.237-0.081,0.341c-2.811,0.201-5.03,2.539-5.03,5.4c0,2.993,2.426,5.42,5.42,5.42
							c2.993,0,5.42-2.426,5.42-5.42C254.595,465.879,252.593,463.635,249.984,463.244 M247.983,464.656
							c0.435,0,0.844,0.112,1.199,0.309c0.374-0.245,0.82-0.387,1.299-0.387c0.711,0,1.348,0.312,1.784,0.806
							c-0.435-0.379-1.004-0.61-1.627-0.61c-0.449,0-0.87,0.12-1.234,0.329c-0.079,0.046-0.156,0.096-0.229,0.15
							c-0.065-0.048-0.133-0.093-0.204-0.134c-0.369-0.219-0.8-0.344-1.26-0.344c-0.3,0-0.588,0.054-0.854,0.152
							C247.196,464.754,247.578,464.656,247.983,464.656 M251.772,469.098c0.115,0.305,0.181,0.634,0.181,0.979
							c0,1.534-1.244,2.777-2.778,2.777c-1.534,0-2.777-1.243-2.777-2.777c0-0.345,0.066-0.674,0.181-0.979
							c-0.62-0.382-1.035-1.064-1.035-1.846c0-1.197,0.971-2.168,2.168-2.168c0.565,0,1.078,0.218,1.463,0.572
							c0.386-0.354,0.899-0.572,1.464-0.572c1.197,0,2.168,0.971,2.168,2.168C252.807,468.034,252.392,468.716,251.772,469.098"/>
					</g>
					<g>
						<path style="fill:#FFFFFF;" d="M251.666,467.061c0,0.497-0.404,0.901-0.901,0.901c-0.497,0-0.901-0.404-0.901-0.901
							s0.404-0.901,0.901-0.901c0.101,0,0.197,0.017,0.287,0.047c-0.03,0.062-0.045,0.132-0.045,0.204
							c0,0.273,0.221,0.494,0.494,0.494c0.05,0,0.099-0.008,0.146-0.022C251.66,466.941,251.666,467,251.666,467.061"/>
					</g>
					<g>
						<path style="fill:#FFFFFF;" d="M248.255,467.061c0,0.376-0.305,0.681-0.681,0.681c-0.376,0-0.681-0.305-0.681-0.681
							s0.305-0.681,0.681-0.681c0.076,0,0.149,0.013,0.217,0.035c-0.023,0.047-0.034,0.1-0.034,0.155
							c0,0.206,0.167,0.374,0.374,0.374c0.038,0,0.075-0.006,0.11-0.017C248.25,466.97,248.255,467.015,248.255,467.061"/>
					</g>
					<g>
						<g>
							<g>
								<rect x="242.908" y="467.83" style="fill:#FFFFFF;" width="0.616" height="0.616"/>
							</g>
							<g>
								<rect x="254.827" y="467.83" style="fill:#FFFFFF;" width="0.616" height="0.616"/>
							</g>
							<g>
								<path style="fill:#FFFFFF;" d="M255.205,468.082h-0.14c0-3.248-2.642-5.89-5.89-5.89c-3.248,0-5.89,2.642-5.89,5.89h-0.14
									c0-1.611,0.627-3.125,1.766-4.264c1.139-1.139,2.653-1.766,4.264-1.766c1.611,0,3.125,0.627,4.264,1.766
									C254.578,464.957,255.205,466.471,255.205,468.082"/>
							</g>
						</g>
						<g>
							<rect x="248.868" y="461.814" style="fill:#FFFFFF;" width="0.616" height="0.616"/>
						</g>
						<g>
							<rect x="244.95" y="462.052" style="fill:#FFFFFF;" width="8.45" height="0.14"/>
						</g>
						<g>
							<path style="fill:#FFFFFF;" d="M245.174,462.15c0,0.108-0.088,0.196-0.196,0.196c-0.108,0-0.196-0.088-0.196-0.196
								c0-0.108,0.088-0.196,0.196-0.196C245.086,461.954,245.174,462.042,245.174,462.15"/>
						</g>
						<g>
							<path style="fill:#FFFFFF;" d="M253.596,462.15c0,0.108-0.088,0.196-0.196,0.196c-0.108,0-0.196-0.088-0.196-0.196
								c0-0.108,0.088-0.196,0.196-0.196C253.509,461.954,253.596,462.042,253.596,462.15"/>
						</g>
					</g>
				</g>
				<g>
					<path style="fill:#FFFFFF;" d="M314.356,473.409c0,1.559-2.364,1.559-2.364,0C311.993,471.851,314.356,471.851,314.356,473.409
						z"/>
				</g>
				<g>
					<g>
						<g>
							<path style="fill:#FFFFFF;" d="M161.739,466.549l1.772,6.088l1.855-6.088h2.215l-2.823,8.14h-2.33l-0.837-2.396l-0.722-2.708
								l-0.722,2.708l-0.837,2.396h-2.33l-2.839-8.14h2.231l1.855,6.088l1.756-6.088H161.739z"/>
						</g>
						<g>
							<path style="fill:#FFFFFF;" d="M176.713,466.549l1.772,6.088l1.855-6.088h2.215l-2.823,8.14h-2.33l-0.837-2.396l-0.722-2.708
								l-0.722,2.708l-0.837,2.396h-2.33l-2.839-8.14h2.231l1.855,6.088l1.756-6.088H176.713z"/>
						</g>
						<g>
							<path style="fill:#FFFFFF;" d="M191.687,466.549l1.772,6.088l1.855-6.088h2.215l-2.823,8.14h-2.33l-0.837-2.396l-0.722-2.708
								l-0.722,2.708l-0.837,2.396h-2.33l-2.839-8.14h2.231l1.855,6.088l1.756-6.088H191.687z"/>
						</g>
					</g>
					<g>
						<path style="fill:#FFFFFF;" d="M200.908,473.52c0,1.559-2.364,1.559-2.364,0C198.545,471.962,200.908,471.962,200.908,473.52z
							"/>
					</g>
					<g>
						<path style="fill:#FFFFFF;" d="M322.71,473.409c-0.935,0.919-1.919,1.28-3.117,1.28c-2.346,0-4.3-1.411-4.3-4.282
							s1.953-4.284,4.3-4.284c1.149,0,2.035,0.329,2.921,1.199l-1.264,1.329c-0.476-0.428-1.066-0.64-1.623-0.64
							c-1.346,0-2.33,0.985-2.33,2.396c0,1.542,1.05,2.362,2.297,2.362c0.64,0,1.28-0.18,1.772-0.672L322.71,473.409z"/>
					</g>
					<g>
						<path style="fill:#FFFFFF;" d="M331.805,470.472c0,2.33-1.591,4.217-4.217,4.217c-2.626,0-4.201-1.887-4.201-4.217
							c0-2.314,1.609-4.217,4.185-4.217C330.149,466.255,331.805,468.158,331.805,470.472z M325.389,470.472
							c0,1.231,0.739,2.38,2.199,2.38c1.46,0,2.199-1.149,2.199-2.38c0-1.215-0.854-2.396-2.199-2.396
							C326.144,468.077,325.389,469.258,325.389,470.472z"/>
					</g>
					<g>
						<path style="fill:#FFFFFF;" d="M338.572,474.689v-4.332c0-1.068-0.559-2.035-1.658-2.035c-1.082,0-1.722,0.967-1.722,2.035
							v4.332h-2.003v-8.107h1.855l0.148,0.985c0.426-0.82,1.362-1.116,2.133-1.116c0.969,0,1.937,0.394,2.396,1.51
							c0.723-1.149,1.658-1.478,2.708-1.478c2.297,0,3.43,1.412,3.43,3.84v4.365h-2.003v-4.365c0-1.066-0.442-1.97-1.526-1.97
							c-1.082,0-1.756,0.935-1.756,2.003v4.332H338.572z"/>
					</g>
				</g>
			</g>
		</g>
		<g style="opacity:0.61;">
			<g>
				<g>
					<path style="fill:#FFFFFF;" d="M345.988,431.299c-0.006-1.224-0.959-2.121-2.189-2.14c-0.924-0.014-0.832,0.12-0.834-0.867
						c-0.003-1.097-0.007-2.194,0.003-3.292c0.003-0.379-0.112-0.691-0.362-0.976c-2.342-2.668-4.678-5.342-7.019-8.011
						c-0.12-0.137-0.275-0.244-0.414-0.366c-6.214,0-12.427,0-18.641,0c-0.794,0.293-1.14,0.868-1.138,1.709
						c0.01,3.748,0.004,7.496,0.004,11.243c0,0.556-0.003,0.589-0.55,0.551c-1.497-0.102-2.516,0.986-2.497,2.492
						c0.044,3.476,0.013,6.953,0.014,10.429c0.001,1.58,0.867,2.443,2.45,2.449c0.582,0.002,0.582,0.002,0.582,0.6
						c0,2.219-0.001,4.438,0.001,6.657c0.001,1.192,0.58,1.771,1.768,1.771c8.013,0.001,16.027,0.001,24.04,0
						c1.168,0,1.755-0.583,1.757-1.745c0.002-2.256,0-4.512,0.001-6.768c0-0.512,0.002-0.511,0.52-0.515
						c0.271-0.002,0.541,0.008,0.809-0.058c0.996-0.246,1.69-1.044,1.694-2.069C346.003,438.696,346.005,434.997,345.988,431.299z
						 M317.537,417.162c5.337,0,10.674,0,16.01,0c0.548,0,0.554,0.007,0.554,0.561c0.001,2.243-0.001,4.486,0.001,6.73
						c0.001,0.811,0.249,1.059,1.06,1.059c1.91,0.001,3.821,0,5.731,0.001c0.458,0,0.479,0.021,0.481,0.483
						c0.003,0.887,0.002,1.775,0,2.662c-0.001,0.477-0.024,0.498-0.504,0.499c-3.895,0.001-7.79,0-11.684,0
						c-3.882,0-7.765,0-11.647,0c-0.55,0-0.552-0.001-0.552-0.561c-0.001-3.624-0.001-7.247,0-10.871
						C316.987,417.166,316.991,417.162,317.537,417.162z M340.822,451.579c-3.883,0.001-7.766,0-11.65,0c-3.871,0-7.742,0-11.613,0
						c-0.572,0-0.574-0.002-0.574-0.579c-0.001-1.997-0.001-3.994,0.001-5.991c0-0.464,0.023-0.486,0.478-0.487
						c7.803-0.001,15.607-0.001,23.41,0c0.478,0,0.499,0.02,0.499,0.503c0.002,1.997,0.001,3.994,0,5.991
						C341.375,451.574,341.37,451.579,340.822,451.579z"/>
				</g>
				<g>
					<g>
						<rect x="327.418" y="417.053" style="fill:#FFFFFF;" width="1.757" height="1.054"/>
					</g>
					<g>
						<rect x="325.662" y="418.107" style="fill:#FFFFFF;" width="1.757" height="1.054"/>
					</g>
					<g>
						<rect x="327.418" y="419.161" style="fill:#FFFFFF;" width="1.757" height="1.054"/>
					</g>
					<g>
						<rect x="325.662" y="420.215" style="fill:#FFFFFF;" width="1.757" height="1.054"/>
					</g>
					<g>
						<rect x="327.418" y="421.269" style="fill:#FFFFFF;" width="1.757" height="1.054"/>
					</g>
					<g>
						<rect x="325.662" y="422.323" style="fill:#FFFFFF;" width="1.757" height="1.054"/>
					</g>
					<g>
						<rect x="327.418" y="423.378" style="fill:#FFFFFF;" width="1.757" height="1.054"/>
					</g>
					<g>
						<rect x="325.662" y="424.432" style="fill:#FFFFFF;" width="1.757" height="1.054"/>
					</g>
					<g>
						<rect x="327.418" y="425.486" style="fill:#FFFFFF;" width="1.757" height="1.054"/>
					</g>
					<g>
						<rect x="325.662" y="426.54" style="fill:#FFFFFF;" width="1.757" height="1.054"/>
					</g>
					<g>
						<rect x="327.418" y="427.594" style="fill:#FFFFFF;" width="1.757" height="1.054"/>
					</g>
					<g>
						<rect x="325.662" y="428.648" style="fill:#FFFFFF;" width="1.757" height="1.054"/>
					</g>
				</g>
			</g>
			<g>
				<path style="fill:#FFFFFF;" d="M187.637,431.299c-0.006-1.224-0.959-2.121-2.189-2.14c-0.924-0.014-0.832,0.12-0.834-0.867
					c-0.003-1.097-0.007-2.194,0.003-3.292c0.003-0.379-0.112-0.691-0.362-0.976c-2.342-2.668-4.678-5.342-7.019-8.011
					c-0.12-0.137-0.275-0.244-0.414-0.366c-6.214,0-12.427,0-18.641,0c-0.794,0.293-1.14,0.868-1.138,1.709
					c0.01,3.748,0.004,7.496,0.004,11.243c0,0.556-0.003,0.589-0.55,0.551c-1.497-0.102-2.516,0.986-2.497,2.492
					c0.044,3.476,0.013,6.953,0.014,10.429c0.001,1.58,0.867,2.443,2.45,2.449c0.582,0.002,0.582,0.002,0.582,0.6
					c0,2.219-0.001,4.438,0.001,6.657c0.001,1.192,0.58,1.771,1.768,1.771c8.013,0.001,16.027,0.001,24.04,0
					c1.168,0,1.755-0.583,1.757-1.745c0.002-2.256,0-4.512,0.001-6.768c0-0.512,0.002-0.511,0.52-0.515
					c0.271-0.002,0.541,0.008,0.809-0.058c0.996-0.246,1.69-1.044,1.694-2.069C187.652,438.696,187.655,434.997,187.637,431.299z
					 M159.187,417.162c5.337,0,10.674,0,16.01,0c0.548,0,0.554,0.007,0.554,0.561c0.001,2.243-0.001,4.486,0.001,6.73
					c0.001,0.811,0.249,1.059,1.06,1.059c1.91,0.001,3.821,0,5.731,0.001c0.458,0,0.479,0.021,0.481,0.483
					c0.003,0.887,0.002,1.775,0,2.662c-0.001,0.477-0.024,0.498-0.504,0.499c-3.895,0.001-7.79,0-11.684,0
					c-3.882,0-7.765,0-11.647,0c-0.55,0-0.552-0.001-0.552-0.561c-0.001-3.624-0.001-7.247,0-10.871
					C158.636,417.166,158.64,417.162,159.187,417.162z M182.472,451.579c-3.883,0.001-7.766,0-11.65,0c-3.871,0-7.742,0-11.613,0
					c-0.572,0-0.574-0.002-0.574-0.579c-0.001-1.997-0.001-3.994,0.001-5.991c0-0.464,0.023-0.486,0.478-0.487
					c7.803-0.001,15.607-0.001,23.41,0c0.478,0,0.499,0.02,0.499,0.503c0.002,1.997,0.001,3.994,0,5.991
					C183.024,451.574,183.019,451.579,182.472,451.579z"/>
			</g>
			<g>
				<path style="fill:#FFFFFF;" d="M159.779,440.669v-7.897h2.779c0.375,0,0.726,0.061,1.053,0.182
					c0.327,0.121,0.612,0.292,0.855,0.513c0.242,0.221,0.434,0.483,0.573,0.789c0.14,0.305,0.21,0.642,0.21,1.009
					c0,0.375-0.07,0.715-0.21,1.02c-0.14,0.305-0.331,0.568-0.573,0.789c-0.243,0.221-0.528,0.392-0.855,0.513
					c-0.327,0.121-0.678,0.182-1.053,0.182h-1.29v2.901H159.779z M162.58,436.356c0.39,0,0.684-0.111,0.882-0.331
					c0.199-0.22,0.298-0.474,0.298-0.761c0-0.14-0.024-0.276-0.072-0.408c-0.048-0.132-0.121-0.248-0.221-0.347
					c-0.099-0.099-0.223-0.178-0.37-0.237c-0.147-0.059-0.32-0.089-0.518-0.089h-1.312v2.173H162.58z"/>
				<path style="fill:#FFFFFF;" d="M166.308,432.771h1.731l3.177,5.294h0.088l-0.088-1.522v-3.772h1.478v7.897h-1.566l-3.353-5.592
					h-0.088l0.088,1.522v4.07h-1.467V432.771z"/>
				<path style="fill:#FFFFFF;" d="M177.922,436.334h3.872c0.022,0.089,0.04,0.195,0.055,0.32c0.014,0.125,0.022,0.25,0.022,0.375
					c0,0.507-0.077,0.985-0.231,1.434c-0.154,0.449-0.397,0.849-0.728,1.202c-0.353,0.375-0.776,0.666-1.268,0.871
					c-0.493,0.206-1.055,0.309-1.688,0.309c-0.574,0-1.114-0.103-1.622-0.309c-0.507-0.206-0.948-0.492-1.323-0.86
					c-0.375-0.367-0.673-0.803-0.894-1.307c-0.221-0.504-0.331-1.053-0.331-1.649c0-0.595,0.11-1.145,0.331-1.649
					c0.221-0.504,0.518-0.939,0.894-1.307c0.375-0.367,0.816-0.654,1.323-0.86c0.507-0.206,1.048-0.309,1.622-0.309
					c0.64,0,1.211,0.11,1.715,0.331c0.504,0.221,0.935,0.526,1.296,0.915l-1.025,1.004c-0.258-0.272-0.544-0.48-0.861-0.623
					c-0.316-0.143-0.695-0.215-1.136-0.215c-0.361,0-0.703,0.065-1.026,0.193c-0.324,0.129-0.607,0.311-0.85,0.546
					c-0.242,0.235-0.436,0.52-0.579,0.855c-0.143,0.335-0.215,0.708-0.215,1.119c0,0.412,0.072,0.785,0.215,1.12
					c0.143,0.335,0.338,0.62,0.584,0.855c0.246,0.235,0.531,0.418,0.855,0.546c0.323,0.129,0.669,0.193,1.037,0.193
					c0.419,0,0.773-0.061,1.064-0.182c0.29-0.121,0.538-0.278,0.744-0.469c0.148-0.132,0.275-0.3,0.381-0.502
					c0.106-0.202,0.189-0.428,0.248-0.678h-2.482V436.334z"/>
			</g>
			<g>
				<path style="fill:#FFFFFF;" d="M224.019,431.299c-0.006-1.224-0.959-2.121-2.189-2.14c-0.924-0.014-0.832,0.12-0.834-0.867
					c-0.003-1.097-0.007-2.194,0.003-3.292c0.003-0.379-0.112-0.691-0.362-0.976c-2.342-2.668-4.678-5.342-7.019-8.011
					c-0.12-0.137-0.275-0.244-0.414-0.366c-6.214,0-12.427,0-18.641,0c-0.794,0.293-1.14,0.868-1.138,1.709
					c0.01,3.748,0.004,7.496,0.004,11.243c0,0.556-0.003,0.589-0.55,0.551c-1.497-0.102-2.516,0.986-2.497,2.492
					c0.044,3.476,0.013,6.953,0.014,10.429c0.001,1.58,0.867,2.443,2.45,2.449c0.582,0.002,0.582,0.002,0.582,0.6
					c0,2.219-0.001,4.438,0.001,6.657c0.001,1.192,0.58,1.771,1.768,1.771c8.013,0.001,16.027,0.001,24.04,0
					c1.168,0,1.755-0.583,1.757-1.745c0.002-2.256,0-4.512,0.001-6.768c0-0.512,0.002-0.511,0.52-0.515
					c0.271-0.002,0.541,0.008,0.809-0.058c0.997-0.246,1.69-1.044,1.694-2.069C224.034,438.696,224.036,434.997,224.019,431.299z
					 M195.568,417.162c5.337,0,10.674,0,16.01,0c0.548,0,0.554,0.007,0.554,0.561c0.001,2.243-0.001,4.486,0.001,6.73
					c0.001,0.811,0.249,1.059,1.06,1.059c1.91,0.001,3.821,0,5.731,0.001c0.458,0,0.479,0.021,0.481,0.483
					c0.003,0.887,0.002,1.775,0,2.662c-0.001,0.477-0.024,0.498-0.504,0.499c-3.895,0.001-7.79,0-11.684,0
					c-3.882,0-7.765,0-11.647,0c-0.55,0-0.552-0.001-0.552-0.561c-0.001-3.624-0.001-7.247,0-10.871
					C195.018,417.166,195.022,417.162,195.568,417.162z M218.854,451.579c-3.883,0.001-7.766,0-11.65,0c-3.871,0-7.742,0-11.613,0
					c-0.572,0-0.574-0.002-0.574-0.579c-0.001-1.997-0.001-3.994,0.001-5.991c0-0.464,0.023-0.486,0.478-0.487
					c7.803-0.001,15.607-0.001,23.41,0c0.478,0,0.499,0.02,0.499,0.503c0.002,1.997,0.001,3.994,0,5.991
					C219.406,451.574,219.401,451.579,218.854,451.579z"/>
			</g>
			<g>
				<path style="fill:#FFFFFF;" d="M205.111,432.771h1.699l2.967,7.897h-1.644l-0.651-1.886h-3.044l-0.651,1.886h-1.643
					L205.111,432.771z M206.997,437.415l-0.706-1.974l-0.287-0.96h-0.088l-0.287,0.96l-0.706,1.974H206.997z"/>
				<path style="fill:#FFFFFF;" d="M211.331,434.536c-0.125,0-0.245-0.024-0.359-0.072c-0.114-0.048-0.213-0.114-0.298-0.199
					c-0.084-0.084-0.151-0.182-0.198-0.292c-0.048-0.11-0.072-0.232-0.072-0.364s0.024-0.254,0.072-0.364
					c0.048-0.11,0.114-0.208,0.198-0.292c0.084-0.084,0.184-0.151,0.298-0.198c0.114-0.048,0.233-0.072,0.359-0.072
					c0.257,0,0.478,0.09,0.662,0.27c0.184,0.181,0.276,0.399,0.276,0.656s-0.092,0.476-0.276,0.656
					C211.809,434.446,211.589,434.536,211.331,434.536z M210.615,440.669v-5.404h1.445v5.404H210.615z"/>
			</g>
			<g>
				<path style="fill:#FFFFFF;" d="M261.044,431.299c-0.006-1.224-0.959-2.121-2.189-2.14c-0.924-0.014-0.832,0.12-0.834-0.867
					c-0.003-1.097-0.007-2.194,0.003-3.292c0.003-0.379-0.112-0.691-0.362-0.976c-2.342-2.668-4.678-5.342-7.019-8.011
					c-0.12-0.137-0.275-0.244-0.414-0.366c-6.214,0-12.427,0-18.641,0c-0.794,0.293-1.14,0.868-1.138,1.709
					c0.01,3.748,0.004,7.496,0.004,11.243c0,0.556-0.003,0.589-0.55,0.551c-1.497-0.102-2.516,0.986-2.497,2.492
					c0.044,3.476,0.013,6.953,0.014,10.429c0.001,1.58,0.867,2.443,2.45,2.449c0.582,0.002,0.582,0.002,0.582,0.6
					c0,2.219-0.001,4.438,0.001,6.657c0.001,1.192,0.58,1.771,1.768,1.771c8.013,0.001,16.027,0.001,24.04,0
					c1.168,0,1.755-0.583,1.757-1.745c0.002-2.256,0-4.512,0.001-6.768c0-0.512,0.002-0.511,0.52-0.515
					c0.271-0.002,0.541,0.008,0.809-0.058c0.996-0.246,1.69-1.044,1.694-2.069C261.059,438.696,261.061,434.997,261.044,431.299z
					 M232.593,417.162c5.337,0,10.674,0,16.01,0c0.548,0,0.554,0.007,0.554,0.561c0.001,2.243-0.001,4.486,0.001,6.73
					c0.001,0.811,0.249,1.059,1.06,1.059c1.91,0.001,3.821,0,5.731,0.001c0.458,0,0.479,0.021,0.481,0.483
					c0.003,0.887,0.002,1.775,0,2.662c-0.001,0.477-0.024,0.498-0.504,0.499c-3.895,0.001-7.79,0-11.684,0
					c-3.882,0-7.765,0-11.647,0c-0.55,0-0.552-0.001-0.552-0.561c-0.001-3.624-0.001-7.247,0-10.871
					C232.042,417.166,232.047,417.162,232.593,417.162z M255.878,451.579c-3.883,0.001-7.766,0-11.65,0c-3.871,0-7.742,0-11.613,0
					c-0.572,0-0.574-0.002-0.574-0.579c-0.001-1.997-0.001-3.994,0.001-5.991c0-0.464,0.023-0.486,0.478-0.487
					c7.803-0.001,15.607-0.001,23.41,0c0.478,0,0.499,0.02,0.499,0.503c0.002,1.997,0.001,3.994,0,5.991
					C256.431,451.574,256.426,451.579,255.878,451.579z"/>
			</g>
			<g>
				<path style="fill:#FFFFFF;" d="M236.361,440.845c-0.338,0-0.662-0.048-0.971-0.143c-0.309-0.095-0.592-0.239-0.849-0.43
					c-0.257-0.191-0.481-0.425-0.673-0.7c-0.191-0.276-0.342-0.597-0.452-0.965l1.401-0.551c0.103,0.397,0.283,0.726,0.54,0.987
					c0.257,0.261,0.596,0.392,1.015,0.392c0.154,0,0.303-0.02,0.447-0.061c0.143-0.04,0.272-0.099,0.386-0.176
					s0.204-0.175,0.27-0.292c0.066-0.118,0.099-0.254,0.099-0.408c0-0.147-0.026-0.279-0.077-0.397
					c-0.051-0.117-0.138-0.227-0.259-0.331c-0.121-0.103-0.28-0.202-0.475-0.298c-0.195-0.095-0.435-0.195-0.722-0.298l-0.485-0.176
					c-0.213-0.073-0.429-0.173-0.645-0.298c-0.217-0.125-0.413-0.276-0.59-0.452c-0.177-0.176-0.322-0.384-0.436-0.623
					c-0.114-0.239-0.171-0.509-0.171-0.81c0-0.309,0.06-0.597,0.182-0.866c0.121-0.268,0.294-0.503,0.518-0.706
					c0.224-0.202,0.492-0.36,0.805-0.474s0.66-0.171,1.042-0.171c0.397,0,0.74,0.053,1.031,0.16
					c0.291,0.107,0.537,0.243,0.739,0.408c0.202,0.165,0.366,0.348,0.491,0.546c0.125,0.199,0.217,0.386,0.276,0.563l-1.312,0.551
					c-0.074-0.221-0.208-0.419-0.402-0.596c-0.195-0.176-0.462-0.265-0.8-0.265c-0.324,0-0.592,0.075-0.805,0.226
					c-0.213,0.151-0.32,0.348-0.32,0.59c0,0.235,0.103,0.436,0.309,0.601c0.206,0.165,0.533,0.325,0.982,0.48l0.497,0.165
					c0.316,0.111,0.605,0.237,0.866,0.381c0.261,0.143,0.485,0.314,0.673,0.513c0.187,0.199,0.331,0.425,0.43,0.678
					c0.1,0.254,0.149,0.546,0.149,0.877c0,0.412-0.083,0.767-0.248,1.064c-0.165,0.298-0.377,0.542-0.634,0.734
					c-0.258,0.191-0.548,0.335-0.872,0.43C236.986,440.797,236.67,440.845,236.361,440.845z"/>
				<path style="fill:#FFFFFF;" d="M239.516,432.771h1.61l1.633,4.754l0.287,1.015h0.088l0.309-1.015l1.699-4.754h1.61l-2.879,7.897
					h-1.566L239.516,432.771z"/>
				<path style="fill:#FFFFFF;" d="M251.097,436.334h3.871c0.022,0.089,0.04,0.195,0.055,0.32c0.015,0.125,0.023,0.25,0.023,0.375
					c0,0.507-0.078,0.985-0.232,1.434c-0.154,0.449-0.397,0.849-0.728,1.202c-0.353,0.375-0.775,0.666-1.268,0.871
					c-0.493,0.206-1.055,0.309-1.688,0.309c-0.574,0-1.114-0.103-1.621-0.309c-0.507-0.206-0.949-0.492-1.324-0.86
					c-0.375-0.367-0.673-0.803-0.894-1.307c-0.22-0.504-0.331-1.053-0.331-1.649c0-0.595,0.11-1.145,0.331-1.649
					c0.221-0.504,0.518-0.939,0.894-1.307c0.375-0.367,0.816-0.654,1.324-0.86c0.507-0.206,1.047-0.309,1.621-0.309
					c0.64,0,1.211,0.11,1.715,0.331c0.504,0.221,0.936,0.526,1.296,0.915l-1.026,1.004c-0.257-0.272-0.544-0.48-0.861-0.623
					c-0.316-0.143-0.694-0.215-1.136-0.215c-0.36,0-0.702,0.065-1.026,0.193c-0.323,0.129-0.607,0.311-0.849,0.546
					c-0.243,0.235-0.436,0.52-0.579,0.855c-0.143,0.335-0.215,0.708-0.215,1.119c0,0.412,0.072,0.785,0.215,1.12
					c0.143,0.335,0.338,0.62,0.585,0.855c0.246,0.235,0.531,0.418,0.854,0.546c0.324,0.129,0.669,0.193,1.037,0.193
					c0.419,0,0.774-0.061,1.064-0.182c0.29-0.121,0.539-0.278,0.745-0.469c0.147-0.132,0.274-0.3,0.38-0.502
					c0.107-0.202,0.189-0.428,0.248-0.678h-2.482V436.334z"/>
			</g>
			<g>
				<path style="fill:#FFFFFF;" d="M297.3,431.299c-0.006-1.224-0.959-2.121-2.189-2.14c-0.924-0.014-0.832,0.12-0.834-0.867
					c-0.003-1.097-0.007-2.194,0.003-3.292c0.003-0.379-0.112-0.691-0.362-0.976c-2.342-2.668-4.678-5.342-7.019-8.011
					c-0.12-0.137-0.275-0.244-0.414-0.366c-6.214,0-12.427,0-18.641,0c-0.794,0.293-1.14,0.868-1.138,1.709
					c0.01,3.748,0.004,7.496,0.004,11.243c0,0.556-0.003,0.589-0.55,0.551c-1.497-0.102-2.516,0.986-2.497,2.492
					c0.044,3.476,0.013,6.953,0.014,10.429c0.001,1.58,0.867,2.443,2.45,2.449c0.582,0.002,0.582,0.002,0.582,0.6
					c0,2.219-0.001,4.438,0.001,6.657c0.001,1.192,0.58,1.771,1.768,1.771c8.013,0.001,16.027,0.001,24.04,0
					c1.168,0,1.755-0.583,1.757-1.745c0.002-2.256,0-4.512,0.001-6.768c0-0.512,0.002-0.511,0.52-0.515
					c0.271-0.002,0.541,0.008,0.809-0.058c0.996-0.246,1.69-1.044,1.694-2.069C297.315,438.696,297.318,434.997,297.3,431.299z
					 M268.85,417.162c5.337,0,10.674,0,16.01,0c0.548,0,0.554,0.007,0.554,0.561c0.001,2.243-0.001,4.486,0.001,6.73
					c0.001,0.811,0.249,1.059,1.06,1.059c1.91,0.001,3.821,0,5.731,0.001c0.458,0,0.479,0.021,0.481,0.483
					c0.003,0.887,0.002,1.775,0,2.662c-0.001,0.477-0.024,0.498-0.504,0.499c-3.895,0.001-7.79,0-11.684,0
					c-3.882,0-7.765,0-11.647,0c-0.55,0-0.552-0.001-0.552-0.561c-0.001-3.624-0.001-7.247,0-10.871
					C268.299,417.166,268.303,417.162,268.85,417.162z M292.135,451.579c-3.883,0.001-7.766,0-11.65,0c-3.871,0-7.742,0-11.613,0
					c-0.572,0-0.574-0.002-0.574-0.579c-0.001-1.997-0.001-3.994,0.001-5.991c0-0.464,0.023-0.486,0.478-0.487
					c7.803-0.001,15.607-0.001,23.41,0c0.478,0,0.499,0.02,0.499,0.503c0.001,1.997,0.001,3.994,0,5.991
					C292.687,451.574,292.682,451.579,292.135,451.579z"/>
			</g>
			<g>
				<path style="fill:#FFFFFF;" d="M272.966,434.183v1.831h3.165v1.412h-3.165v1.831h3.518v1.412h-5.007v-7.897h5.007v1.412H272.966
					z"/>
				<path style="fill:#FFFFFF;" d="M277.852,440.669v-7.897h2.779c0.375,0,0.726,0.061,1.053,0.182
					c0.327,0.121,0.612,0.292,0.855,0.513c0.243,0.221,0.434,0.483,0.574,0.789c0.14,0.305,0.209,0.642,0.209,1.009
					c0,0.375-0.07,0.715-0.209,1.02c-0.14,0.305-0.331,0.568-0.574,0.789c-0.243,0.221-0.528,0.392-0.855,0.513
					c-0.327,0.121-0.678,0.182-1.053,0.182h-1.29v2.901H277.852z M280.653,436.356c0.389,0,0.684-0.111,0.882-0.331
					c0.199-0.22,0.298-0.474,0.298-0.761c0-0.14-0.024-0.276-0.072-0.408c-0.048-0.132-0.121-0.248-0.221-0.347
					c-0.099-0.099-0.222-0.178-0.37-0.237c-0.147-0.059-0.32-0.089-0.518-0.089h-1.312v2.173H280.653z"/>
				<path style="fill:#FFFFFF;" d="M286.797,440.845c-0.338,0-0.662-0.048-0.971-0.143c-0.309-0.095-0.592-0.239-0.849-0.43
					c-0.257-0.191-0.482-0.425-0.673-0.7c-0.191-0.276-0.342-0.597-0.452-0.965l1.401-0.551c0.103,0.397,0.283,0.726,0.541,0.987
					c0.257,0.261,0.595,0.392,1.015,0.392c0.154,0,0.303-0.02,0.447-0.061c0.143-0.04,0.272-0.099,0.386-0.176
					c0.114-0.077,0.204-0.175,0.27-0.292c0.066-0.118,0.1-0.254,0.1-0.408c0-0.147-0.026-0.279-0.077-0.397
					c-0.051-0.117-0.138-0.227-0.259-0.331c-0.121-0.103-0.279-0.202-0.474-0.298c-0.195-0.095-0.436-0.195-0.723-0.298
					l-0.485-0.176c-0.213-0.073-0.428-0.173-0.645-0.298c-0.217-0.125-0.414-0.276-0.59-0.452c-0.176-0.176-0.322-0.384-0.436-0.623
					c-0.114-0.239-0.171-0.509-0.171-0.81c0-0.309,0.061-0.597,0.182-0.866c0.121-0.268,0.294-0.503,0.518-0.706
					c0.224-0.202,0.493-0.36,0.805-0.474c0.312-0.114,0.66-0.171,1.042-0.171c0.397,0,0.741,0.053,1.031,0.16
					c0.29,0.107,0.537,0.243,0.739,0.408c0.202,0.165,0.365,0.348,0.491,0.546c0.125,0.199,0.217,0.386,0.276,0.563l-1.312,0.551
					c-0.074-0.221-0.208-0.419-0.403-0.596c-0.195-0.176-0.462-0.265-0.799-0.265c-0.324,0-0.592,0.075-0.805,0.226
					c-0.213,0.151-0.32,0.348-0.32,0.59c0,0.235,0.103,0.436,0.309,0.601c0.206,0.165,0.533,0.325,0.982,0.48l0.496,0.165
					c0.316,0.111,0.605,0.237,0.866,0.381c0.261,0.143,0.485,0.314,0.673,0.513c0.187,0.199,0.331,0.425,0.43,0.678
					c0.099,0.254,0.149,0.546,0.149,0.877c0,0.412-0.083,0.767-0.248,1.064c-0.165,0.298-0.377,0.542-0.634,0.734
					c-0.258,0.191-0.548,0.335-0.872,0.43C287.422,440.797,287.105,440.845,286.797,440.845z"/>
			</g>
			<g>
				<path style="fill:#FFFFFF;" d="M321.394,439.168l4.004-4.985h-3.827v-1.412h5.559v1.5l-3.96,4.985h4.004v1.412h-5.779V439.168z"
					/>
				<path style="fill:#FFFFFF;" d="M328.409,432.771h1.489v7.897h-1.489V432.771z"/>
				<path style="fill:#FFFFFF;" d="M331.486,440.669v-7.897h2.779c0.375,0,0.726,0.061,1.053,0.182
					c0.327,0.121,0.612,0.292,0.855,0.513s0.434,0.483,0.574,0.789c0.14,0.305,0.209,0.642,0.209,1.009
					c0,0.375-0.07,0.715-0.209,1.02c-0.14,0.305-0.331,0.568-0.574,0.789c-0.243,0.221-0.528,0.392-0.855,0.513
					c-0.327,0.121-0.678,0.182-1.053,0.182h-1.29v2.901H331.486z M334.288,436.356c0.389,0,0.684-0.111,0.882-0.331
					c0.199-0.22,0.298-0.474,0.298-0.761c0-0.14-0.024-0.276-0.072-0.408c-0.048-0.132-0.121-0.248-0.221-0.347
					c-0.099-0.099-0.222-0.178-0.37-0.237c-0.147-0.059-0.32-0.089-0.518-0.089h-1.312v2.173H334.288z"/>
			</g>
		</g>
		<g style="opacity:0.61;">
			<path style="fill:#FFFFFF;" d="M300.133,433.27h9.067v2.242h-9.067V433.27z M300.133,437.136h9.067v2.243h-9.067V437.136z"/>
		</g>
	</g>
	<g style="opacity:0.61;">
		<path style="fill:#FFFFFF;" d="M156.756,478.878h1.607c1.263,0,2.114,0.812,2.114,1.974c0,1.161-0.851,1.973-2.114,1.973h-1.607
			V478.878z M158.34,482.464c1.049,0,1.725-0.665,1.725-1.612c0-0.947-0.677-1.613-1.725-1.613h-1.167v3.225H158.34z"/>
		<path style="fill:#FFFFFF;" d="M165.139,480.851c0-1.15,0.879-2.007,2.075-2.007c1.184,0,2.069,0.851,2.069,2.007
			c0,1.156-0.885,2.007-2.069,2.007C166.019,482.858,165.139,482.002,165.139,480.851z M168.866,480.851
			c0-0.942-0.705-1.635-1.652-1.635c-0.953,0-1.663,0.693-1.663,1.635c0,0.941,0.71,1.635,1.663,1.635
			C168.162,482.486,168.866,481.793,168.866,480.851z"/>
		<path style="fill:#FFFFFF;" d="M179.596,478.878l-1.331,3.947h-0.44l-1.156-3.366l-1.161,3.366h-0.434l-1.331-3.947h0.429
			l1.139,3.394l1.178-3.394h0.389l1.161,3.411l1.156-3.411H179.596z"/>
		<path style="fill:#FFFFFF;" d="M187.731,478.878v3.947h-0.344l-2.537-3.202v3.202h-0.417v-3.947h0.344l2.543,3.203v-3.203H187.731
			z"/>
		<path style="fill:#FFFFFF;" d="M193.093,478.878h0.417v3.586h2.21v0.361h-2.627V478.878z"/>
		<path style="fill:#FFFFFF;" d="M200.061,480.851c0-1.15,0.879-2.007,2.075-2.007c1.184,0,2.069,0.851,2.069,2.007
			c0,1.156-0.885,2.007-2.069,2.007C200.941,482.858,200.061,482.002,200.061,480.851z M203.788,480.851
			c0-0.942-0.705-1.635-1.652-1.635c-0.953,0-1.663,0.693-1.663,1.635c0,0.941,0.71,1.635,1.663,1.635
			C203.083,482.486,203.788,481.793,203.788,480.851z"/>
		<path style="fill:#FFFFFF;" d="M211.636,481.77h-2.199l-0.474,1.054h-0.434l1.804-3.947h0.412l1.804,3.947h-0.44L211.636,481.77z
			 M211.484,481.432l-0.947-2.12l-0.947,2.12H211.484z"/>
		<path style="fill:#FFFFFF;" d="M217.28,478.878h1.607c1.263,0,2.114,0.812,2.114,1.974c0,1.161-0.851,1.973-2.114,1.973h-1.607
			V478.878z M218.864,482.464c1.049,0,1.725-0.665,1.725-1.612c0-0.947-0.677-1.613-1.725-1.613h-1.167v3.225H218.864z"/>
		<path style="fill:#FFFFFF;" d="M234.041,481.77h-2.199l-0.474,1.054h-0.434l1.804-3.947h0.412l1.804,3.947h-0.44L234.041,481.77z
			 M233.889,481.432l-0.947-2.12l-0.947,2.12H233.889z"/>
		<path style="fill:#FFFFFF;" d="M239.685,478.878h0.417v3.586h2.21v0.361h-2.627V478.878z"/>
		<path style="fill:#FFFFFF;" d="M247.082,478.878h0.417v3.586h2.21v0.361h-2.627V478.878z"/>
		<path style="fill:#FFFFFF;" d="M260.449,479.239v1.551h2.041v0.361h-2.041v1.675h-0.417v-3.947h2.706v0.361H260.449z"/>
		<path style="fill:#FFFFFF;" d="M267.678,478.878h0.417v3.947h-0.417V478.878z"/>
		<path style="fill:#FFFFFF;" d="M273.456,478.878h0.417v3.586h2.21v0.361h-2.627V478.878z"/>
		<path style="fill:#FFFFFF;" d="M283.644,482.464v0.361h-2.791v-3.947h2.706v0.361h-2.289v1.404h2.041v0.355h-2.041v1.466H283.644z
			"/>
		<path style="fill:#FFFFFF;" d="M294.672,479.239v1.551h2.041v0.361h-2.041v1.675h-0.417v-3.947h2.706v0.361H294.672z"/>
		<path style="fill:#FFFFFF;" d="M301.5,480.851c0-1.15,0.879-2.007,2.075-2.007c1.184,0,2.069,0.851,2.069,2.007
			c0,1.156-0.885,2.007-2.069,2.007C302.379,482.858,301.5,482.002,301.5,480.851z M305.226,480.851
			c0-0.942-0.705-1.635-1.652-1.635c-0.953,0-1.663,0.693-1.663,1.635c0,0.941,0.71,1.635,1.663,1.635
			C304.522,482.486,305.226,481.793,305.226,480.851z"/>
		<path style="fill:#FFFFFF;" d="M313.351,482.825l-0.902-1.269c-0.102,0.011-0.203,0.017-0.316,0.017h-1.06v1.252h-0.417v-3.947
			h1.477c1.004,0,1.613,0.507,1.613,1.353c0,0.62-0.327,1.054-0.902,1.24l0.964,1.353H313.351z M313.328,480.231
			c0-0.632-0.417-0.992-1.207-0.992h-1.048v1.979h1.048C312.911,481.218,313.328,480.851,313.328,480.231z"/>
		<path style="fill:#FFFFFF;" d="M322.907,478.878v3.947h-0.4v-3.158l-1.551,2.656h-0.197l-1.551-2.639v3.14h-0.4v-3.947h0.344
			l1.714,2.926l1.697-2.926H322.907z"/>
		<path style="fill:#FFFFFF;" d="M330.744,481.77h-2.199l-0.473,1.054h-0.434l1.804-3.947h0.411l1.804,3.947h-0.44L330.744,481.77z
			 M330.592,481.432l-0.947-2.12l-0.947,2.12H330.592z"/>
		<path style="fill:#FFFFFF;" d="M336.957,479.239h-1.387v-0.361h3.192v0.361h-1.387v3.586h-0.417V479.239z"/>
		<path style="fill:#FFFFFF;" d="M343.063,482.346l0.164-0.321c0.282,0.276,0.784,0.479,1.302,0.479c0.739,0,1.06-0.31,1.06-0.699
			c0-1.083-2.43-0.417-2.43-1.877c0-0.581,0.451-1.083,1.455-1.083c0.446,0,0.908,0.13,1.224,0.35l-0.141,0.333
			c-0.338-0.22-0.733-0.327-1.083-0.327c-0.722,0-1.043,0.321-1.043,0.716c0,1.083,2.43,0.429,2.43,1.866
			c0,0.581-0.462,1.077-1.472,1.077C343.937,482.858,343.356,482.65,343.063,482.346z"/>
	</g>
</g>
<g>
</g>
<g>
	<path style="fill:#E5E5E5;" d="M252.177,470.856c-68.449-27.268-128.421-76.932-168.122-145.674
		c-39.724-68.817-52.954-145.669-42.338-218.629C99.566,60.879,172.633,33.612,252.08,33.612c79.416,0,152.5,27.267,210.353,72.942
		c10.62,72.96-2.223,149.812-41.947,218.629C380.808,393.924,320.653,443.588,252.177,470.856z"/>
	<path style="fill:#FFFFFF;stroke:#031A33;" d="M247.976,466.388c-68.449-27.268-128.421-76.932-168.122-145.674
		C40.13,251.897,26.9,175.045,37.516,102.086c57.849-45.675,130.916-72.942,210.363-72.942c79.415,0,152.5,27.267,210.353,72.942
		c10.62,72.96-2.223,149.811-41.947,218.629C376.606,389.457,316.451,439.12,247.976,466.388z"/>
	<g>
		<linearGradient id="SVGID_1_" gradientUnits="userSpaceOnUse" x1="57.6006" y1="278.4872" x2="470.1649" y2="205.7409">
			<stop  offset="0.0169" style="stop-color:#031A33"/>
			<stop  offset="0.1685" style="stop-color:#051B35"/>
			<stop  offset="0.2231" style="stop-color:#0A203C"/>
			<stop  offset="0.262" style="stop-color:#142947"/>
			<stop  offset="0.2934" style="stop-color:#213658"/>
			<stop  offset="0.3204" style="stop-color:#33466E"/>
			<stop  offset="0.3438" style="stop-color:#495A89"/>
			<stop  offset="0.3539" style="stop-color:#546497"/>
			<stop  offset="0.3574" style="stop-color:#536395"/>
			<stop  offset="0.4227" style="stop-color:#3A4C77"/>
			<stop  offset="0.494" style="stop-color:#263A5E"/>
			<stop  offset="0.5741" style="stop-color:#162C4B"/>
			<stop  offset="0.6668" style="stop-color:#0B223D"/>
			<stop  offset="0.7833" style="stop-color:#051C35"/>
			<stop  offset="1" style="stop-color:#031A33"/>
		</linearGradient>
		<path style="fill:url(#SVGID_1_);" d="M247.989,459.725c66.27-26.952,124.443-75.366,162.95-142.087
			c30.325-52.534,44.698-109.801,44.698-166.351c0-15.366-1.063-30.711-3.16-45.862c-56.507-43.946-127.5-70.092-204.605-70.092
			c-77.107,0-148.115,26.146-204.581,70.092c-2.077,14.955-3.121,30.085-3.121,45.253c0,56.726,14.581,114.219,45.026,166.959
			C123.73,384.359,181.723,432.773,247.989,459.725z"/>
		<g>
			<image style="overflow:visible;" width="365" height="419" xlink:href="A41B6F4A.png"  transform="matrix(1 0 0 1 40 35)">
			</image>
		</g>
	</g>
	<g>
		<image style="overflow:visible;" width="136" height="279" xlink:href="A41B6F4E.png"  transform="matrix(1 0 0 1 318 106)">
		</image>
	</g>
	
		<ellipse transform="matrix(0.9999 -0.0161 0.0161 0.9999 -3.5467 4.0253)" style="fill:#FFFFFF;" cx="247.937" cy="222.029" rx="178.047" ry="178.051"/>
	<path style="fill:#031A33;" d="M247.937,54.776c-92.357,0-167.247,74.895-167.247,167.254c0,92.359,74.889,167.255,167.247,167.255
		c92.355,0,167.243-74.896,167.243-167.255C415.18,129.671,340.292,54.776,247.937,54.776z"/>
	<path style="fill:#FFFFFF;" d="M247.937,60.951c88.946,0,161.076,72.132,161.076,161.079c0,88.947-72.13,161.08-161.076,161.08
		c-88.946,0-161.072-72.133-161.072-161.08C86.865,133.083,158.991,60.951,247.937,60.951z"/>
	<radialGradient id="SVGID_2_" cx="247.8273" cy="222.1966" r="127.9517" gradientUnits="userSpaceOnUse">
		<stop  offset="0" style="stop-color:#073B71"/>
		<stop  offset="0.1162" style="stop-color:#063566"/>
		<stop  offset="0.4657" style="stop-color:#04264A"/>
		<stop  offset="0.772" style="stop-color:#031D39"/>
		<stop  offset="1" style="stop-color:#031A33"/>
	</radialGradient>
	<path style="fill:url(#SVGID_2_);" d="M236.196,338.956l-5.796-55.42h35.059l-5.842,55.478
		c-1.053,9.874,5.803,12.341,14.206,10.655c48.861-9.866,87.838-47.1,100.196-95.019c2.689-10.422,3.713-21.888-8.697-20.502
		l-11.309,1.276v-27.033l10.817,1.312c10.645,1.021,11.987-8.147,10.154-16.287c-11.039-49.186-49.906-87.851-99.197-98.6
		c-8.982-1.961-17.13,0.36-15.912,11.886l5.583,53.332h-35.084l5.621-53.645c1.102-10.507-7.156-13.286-14.794-11.599
		c-23.249,5.14-44.631,16.624-61.404,31.63l-8.394-16.642l-21.147,39.83h9.464c-9.202,13.72-15.864,29.288-19.315,46.026
		c-1.596,7.749,0.66,15.131,8.808,14.269l14.92-1.553v27.247l-12.952-1.566c-9.373-1.119-12.346,7.527-10.258,16.795
		c4.155,18.381,12.19,35.285,23.21,49.805v37.963l14.329,0.064v-22.04c17.657,16.71,39.992,28.535,64.831,33.293
		C230.122,351.227,237.159,348.145,236.196,338.956z"/>
	<path style="fill:#FFFFFF;" d="M266.689,338.33l5.742-54.79h81.576v-41.312l11.211-1.436c5.764-0.725,5.235,3.475,2.414,13.858
		c-12.077,44.379-48.157,78.852-93.438,88.617C265.691,345.243,266.437,340.598,266.689,338.33z"/>
	<path style="fill:#FFFFFF;" d="M364.143,203.003l-10.136-1.155v-41.805h-81.399l-5.385-51.337c-0.592-5.606-0.22-9.758,8.484-7.587
		c45.92,10.506,82.123,46.512,92.942,92.303C370.552,201.556,368.297,203.398,364.143,203.003z"/>
	<path style="fill:#FFFFFF;" d="M229.04,338.29c0.196,1.997,1.095,6.702-5.745,5.332c-25.224-5.099-47.665-17.835-64.834-35.715
		V283.54h64.834L229.04,338.29z"/>
	<path style="fill:#FFFFFF;" d="M228.487,109.565l-5.286,50.478h-64.74v-10.429h13.027l-8.876-17.581
		c16.19-14.84,37.162-26.21,59.917-31.227C229.702,99.222,229.004,104.532,228.487,109.565z"/>
	<path style="fill:#FFFFFF;" d="M130.856,203.193c-2.248,0.273-5.799,0.157-4.129-7.567c3.25-15.033,9.251-29.045,17.402-41.491
		v47.606L130.856,203.193z"/>
	<path style="fill:#FFFFFF;" d="M131.176,240.671l12.953,1.571v47.689c-7.722-11.806-13.506-24.974-16.856-39.105
		C125.057,241.592,127.664,240.241,131.176,240.671z"/>
	<g>
		<path style="fill:#FFFFFF;" d="M290.145,230.336l2.727-0.026v0.433c0,1.452-0.103,6.449-3.554,11.135
			c-3.286,4.467-10.261,6.783-16.768,2.816c-4.652-2.84-7.489-7.686-8.943-12.849c-4.788-17.02,4.649-35.062,16.18-34.703
			c2.934,0.097,3.593,0.272,6.946,2.21c0.782,0.453,1.218,0.682,1.299,0.698c0.978,0.15,1.699-0.646,2.41-2.708l2.075,0.023
			l0.494,16.698l-2.811,0.056l-0.116-1.562c-0.469-6.12-4.636-12.817-10.277-12.332c-6.388,0.546-7.509,7.825-8.007,13.408
			c-1.412,16.018,0.262,25.561,5.028,28.618c6.184,3.965,13.308-3.205,13.317-11.443V230.336z"/>
		<path style="fill:#FFFFFF;" d="M249.843,197.762v2.74h2.151c2.275,0,3.196,2.116,3.196,5.019l0.003,21.925l-18.022-29.684h-12.067
			v2.74h1.725c2.581,0,3.822,1.489,3.841,4.281l-0.019,32.237c-0.019,7.213-6.526,8.604-8.729,1.073l-11.845-40.331h-2.533
			l-10.448,34.396c-1.293,4.253-2.368,7.525-3.056,8.643c-1.962,3.237-4.527,2.783-4.527,2.783l0.96-15.871l-2.924-0.334
			c-1.25,7.047-4.016,11.843-8.291,14.388c-4.894,2.915-9.091,0.468-9.111-2.592l0.02-36.067c0-1.426,0.96-2.605,2.782-2.605h2.073
			v-2.74h-17.657v2.74l1.593-0.007c1.941,0.007,2.834,1.357,2.857,3.121l0.058,35.207c-0.02,1.703-0.427,3.335-1.344,3.919
			c-0.64,0.404-1.829,0.823-3.164,0.841v2.705h46.06v-2.705h-0.766c-2.213,0-4.329-1.584-2.856-6.938l1.244-4.562l10.355,0.02
			l1.551,5.878c1.331,4.134-0.175,5.602-2.565,5.602h-1.099v2.705h31.243v-2.705h-1.06c-2.94,0-4.979-2.745-4.963-5.626
			l0.023-27.818l21.385,36.149h2.959l0.04-40.603c0.003-3.267,1.389-5.183,3.175-5.183h1.862v-2.74H249.843z M202.075,228.09
			l4.094-14.563l4.187,14.583L202.075,228.09z"/>
		<path style="fill:#FFFFFF;" d="M346.708,243.595c-2.022,0-3.001-2.136-3.489-3.724l-13.095-42.104h-1.997l-10.467,34.401
			c-1.788,5.802-2.804,8.565-4.078,9.797c-2.707,2.607-6.135,1.672-6.135-2.27v-36.241c0-1.668,0.979-2.944,2.647-2.944h2.352
			v-2.744h-18.113v2.744h2.216c1.606,0,2.705,1.141,2.705,3.062v36.019c0,2.63-1.432,4.003-3.39,4.003h-1.532v2.705h29.323v-2.705
			h-1.272c-2.236,0-3.335-1.761-2.65-3.822l2.099-7.605h9.874l2.004,7.466c0.545,2.075-0.298,3.961-2.078,3.961h-1.509v2.705h17.621
			v-2.705H346.708z M322.916,228.361l3.96-14.115l3.784,14.115H322.916z"/>
	</g>
	<radialGradient id="SVGID_3_" cx="273.2467" cy="248.5578" r="153.0357" gradientUnits="userSpaceOnUse">
		<stop  offset="0" style="stop-color:#000000"/>
		<stop  offset="0.382" style="stop-color:#B8B8B8"/>
		<stop  offset="0.5396" style="stop-color:#BCBCBC"/>
		<stop  offset="0.6811" style="stop-color:#C6C6C6"/>
		<stop  offset="0.8163" style="stop-color:#D9D9D9"/>
		<stop  offset="0.947" style="stop-color:#F2F2F2"/>
		<stop  offset="1" style="stop-color:#FFFFFF"/>
	</radialGradient>
	<path style="fill:url(#SVGID_3_);" d="M371.94,95.52c30.964,32.036,50.028,75.65,50.028,123.713
		c0,98.316-79.738,178.052-178.047,178.052c-48.06,0-91.672-19.061-123.708-50.024c32.377,33.496,77.767,54.336,128.02,54.336
		c98.309,0,178.047-79.735,178.047-178.052C426.28,173.289,405.439,127.897,371.94,95.52z"/>
	<radialGradient id="SVGID_4_" cx="222.9231" cy="197.0179" r="153.0366" gradientUnits="userSpaceOnUse">
		<stop  offset="0" style="stop-color:#575757"/>
		<stop  offset="1" style="stop-color:#FFFFFF"/>
	</radialGradient>
	<path style="fill:url(#SVGID_4_);" d="M250.093,51.524c48.057,0,93.827,15.827,125.864,46.793
		c-32.378-33.499-77.769-54.339-128.02-54.339c-98.316,0-178.047,79.734-178.047,178.052c0,50.256,20.841,95.649,54.34,128.028
		c-30.965-32.037-46.794-81.043-46.794-129.106C77.436,122.635,159.358,51.524,250.093,51.524z"/>
	<g>
		<linearGradient id="SVGID_5_" gradientUnits="userSpaceOnUse" x1="210.7301" y1="243.5822" x2="210.4511" y2="243.5822">
			<stop  offset="0" style="stop-color:#063565"/>
			<stop  offset="1" style="stop-color:#031A33"/>
		</linearGradient>
		<path style="fill:url(#SVGID_5_);" d="M210.451,243.576v0.012c0.095-0.001,0.187-0.005,0.279-0.012H210.451z"/>
		<linearGradient id="SVGID_6_" gradientUnits="userSpaceOnUse" x1="296.0132" y1="243.5948" x2="295.4952" y2="243.5948">
			<stop  offset="0" style="stop-color:#063565"/>
			<stop  offset="1" style="stop-color:#031A33"/>
		</linearGradient>
		<path style="fill:url(#SVGID_6_);" d="M296.013,243.588h-0.518v0.014h0.368C295.916,243.602,295.963,243.59,296.013,243.588z"/>
		<linearGradient id="SVGID_7_" gradientUnits="userSpaceOnUse" x1="331.7328" y1="243.5948" x2="331.2865" y2="243.5948">
			<stop  offset="0" style="stop-color:#063565"/>
			<stop  offset="1" style="stop-color:#031A33"/>
		</linearGradient>
		<path style="fill:url(#SVGID_7_);" d="M331.733,243.588h-0.446v0.014h0.347C331.67,243.602,331.699,243.589,331.733,243.588z"/>
		<linearGradient id="SVGID_8_" gradientUnits="userSpaceOnUse" x1="290.282" y1="207.1585" x2="279.8156" y2="207.1585">
			<stop  offset="0" style="stop-color:#063565"/>
			<stop  offset="1" style="stop-color:#031A33"/>
		</linearGradient>
		<path style="fill:url(#SVGID_8_);" d="M279.891,200.217c-0.027,0.002-0.051,0.009-0.076,0.012
			c5.083,0.395,8.753,6.616,9.19,12.334l0.116,1.562l1.16-0.023l-0.114-1.553C289.701,206.43,285.532,199.733,279.891,200.217z"/>
		<linearGradient id="SVGID_9_" gradientUnits="userSpaceOnUse" x1="290.5158" y1="198.7039" x2="287.8038" y2="198.7039">
			<stop  offset="0" style="stop-color:#063565"/>
			<stop  offset="1" style="stop-color:#031A33"/>
		</linearGradient>
		<path style="fill:url(#SVGID_9_);" d="M290.516,197.361l-1.152-0.013c-0.486,1.415-0.983,2.22-1.56,2.547
			c0.164,0.086,0.278,0.14,0.314,0.147C289.09,200.191,289.81,199.401,290.516,197.361z"/>
		<linearGradient id="SVGID_10_" gradientUnits="userSpaceOnUse" x1="280.2577" y1="221.9331" x2="262.333" y2="221.9331">
			<stop  offset="0" style="stop-color:#063565"/>
			<stop  offset="1" style="stop-color:#031A33"/>
		</linearGradient>
		<path style="fill:url(#SVGID_10_);" d="M264.77,231.838c-4.647-16.513,4.099-33.986,15.155-34.685
			c-0.046-0.002-0.088-0.003-0.137-0.005c-11.532-0.358-20.97,17.683-16.181,34.704c1.453,5.163,4.292,10.008,8.943,12.848
			c2.583,1.576,5.238,2.149,7.708,2.001c-2.131-0.073-4.363-0.684-6.546-2.015C269.061,241.847,266.223,237.001,264.77,231.838z"/>
		<linearGradient id="SVGID_11_" gradientUnits="userSpaceOnUse" x1="290.2293" y1="236.8456" x2="280.0788" y2="236.8456">
			<stop  offset="0" style="stop-color:#063565"/>
			<stop  offset="1" style="stop-color:#031A33"/>
		</linearGradient>
		<path style="fill:url(#SVGID_11_);" d="M290.229,230.8v-0.469l-1.162,0.012v0.472c-0.006,6.339-4.226,12.037-8.988,12.527
			C285.294,243.754,290.221,237.65,290.229,230.8z"/>
		<linearGradient id="SVGID_12_" gradientUnits="userSpaceOnUse" x1="208.7015" y1="220.6838" x2="190.6764" y2="220.6838">
			<stop  offset="0" style="stop-color:#063565"/>
			<stop  offset="1" style="stop-color:#031A33"/>
		</linearGradient>
		<path style="fill:url(#SVGID_12_);" d="M195.203,240.793c0.686-1.118,1.762-4.389,3.055-8.642l10.443-34.382h-1.158
			l-10.447,34.395c-1.293,4.253-2.369,7.524-3.055,8.642c-1.121,1.85-2.437,2.493-3.36,2.706l-0.004,0.064
			C190.676,243.576,193.241,244.031,195.203,240.793z"/>
		<linearGradient id="SVGID_13_" gradientUnits="userSpaceOnUse" x1="188.6803" y1="235.2213" x2="175.6121" y2="235.2213">
			<stop  offset="0" style="stop-color:#063565"/>
			<stop  offset="1" style="stop-color:#031A33"/>
		</linearGradient>
		<path style="fill:url(#SVGID_13_);" d="M180.42,241.759c4.245-2.528,6.999-7.28,8.26-14.245l-1.132-0.13
			c-1.25,7.046-4.016,11.842-8.291,14.388c-1.285,0.765-2.52,1.154-3.646,1.265C177.022,243.147,178.675,242.798,180.42,241.759z"/>
		<linearGradient id="SVGID_14_" gradientUnits="userSpaceOnUse" x1="255.2771" y1="212.6041" x2="248.7649" y2="212.6041">
			<stop  offset="0" style="stop-color:#063565"/>
			<stop  offset="1" style="stop-color:#031A33"/>
		</linearGradient>
		<path style="fill:url(#SVGID_14_);" d="M255.275,205.514c0-2.904-0.922-5.02-3.196-5.02h-2.152v-2.726h-1.162v2.739h2.152
			c2.274,0,3.196,2.116,3.196,5.02l0.002,19.996l1.162,1.915L255.275,205.514z"/>
		<linearGradient id="SVGID_15_" gradientUnits="userSpaceOnUse" x1="231.8324" y1="220.4328" x2="225.1032" y2="220.4328">
			<stop  offset="0" style="stop-color:#063565"/>
			<stop  offset="1" style="stop-color:#031A33"/>
		</linearGradient>
		<path style="fill:url(#SVGID_15_);" d="M231.814,237.014l0.019-32.238c-0.019-2.792-1.259-4.28-3.84-4.28h-1.726v-2.726h-1.162
			v2.739h1.727c2.581,0,3.821,1.489,3.84,4.28l-0.019,32.238c-0.009,3.509-1.556,5.625-3.394,6.022
			C229.556,243.453,231.802,241.247,231.814,237.014z"/>
		<linearGradient id="SVGID_16_" gradientUnits="userSpaceOnUse" x1="163.0355" y1="222.032" x2="157.3653" y2="222.032">
			<stop  offset="0" style="stop-color:#063565"/>
			<stop  offset="1" style="stop-color:#031A33"/>
		</linearGradient>
		<path style="fill:url(#SVGID_16_);" d="M158.528,243.576c1.334-0.019,2.524-0.438,3.164-0.841
			c0.917-0.584,1.324-2.216,1.344-3.919l-0.058-35.207c-0.023-1.764-0.915-3.114-2.857-3.12l-1.593,0.006v-2.726h-1.162v2.739
			l1.593-0.006c1.941,0.006,2.834,1.356,2.857,3.12l0.058,35.207c-0.02,1.703-0.427,3.335-1.344,3.919
			c-0.64,0.403-1.829,0.822-3.164,0.841v2.705l1.162-0.014V243.576z"/>
		<linearGradient id="SVGID_17_" gradientUnits="userSpaceOnUse" x1="175.022" y1="200.5017" x2="173.9462" y2="200.5017">
			<stop  offset="0" style="stop-color:#063565"/>
			<stop  offset="1" style="stop-color:#031A33"/>
		</linearGradient>
		<path style="fill:url(#SVGID_17_);" d="M173.946,200.509h1.076v-0.014h-0.911C174.052,200.495,174.003,200.506,173.946,200.509z"
			/>
		<linearGradient id="SVGID_18_" gradientUnits="userSpaceOnUse" x1="257.7974" y1="228.2132" x2="234.6138" y2="228.2132">
			<stop  offset="0" style="stop-color:#063565"/>
			<stop  offset="1" style="stop-color:#031A33"/>
		</linearGradient>
		<polygon style="fill:url(#SVGID_18_);" points="234.616,210.132 234.614,212.108 254.839,246.295 257.797,246.295 
			257.797,246.281 256.001,246.281 		"/>
		<linearGradient id="SVGID_19_" gradientUnits="userSpaceOnUse" x1="210.4385" y1="220.8108" x2="205.6759" y2="220.8108">
			<stop  offset="0" style="stop-color:#063565"/>
			<stop  offset="1" style="stop-color:#031A33"/>
		</linearGradient>
		<polygon style="fill:url(#SVGID_19_);" points="206.253,213.519 205.676,215.572 209.272,228.099 210.438,228.102 		"/>
		<linearGradient id="SVGID_20_" gradientUnits="userSpaceOnUse" x1="240.5323" y1="244.9413" x2="209.2889" y2="244.9413">
			<stop  offset="0" style="stop-color:#063565"/>
			<stop  offset="1" style="stop-color:#031A33"/>
		</linearGradient>
		<path style="fill:url(#SVGID_20_);" d="M210.451,243.588c-0.021,0-0.042,0.002-0.063,0.002h-1.099v2.705h31.243v-0.014h-30.081
			V243.588z"/>
		<linearGradient id="SVGID_21_" gradientUnits="userSpaceOnUse" x1="330.7454" y1="221.2971" x2="326.3659" y2="221.2971">
			<stop  offset="0" style="stop-color:#063565"/>
			<stop  offset="1" style="stop-color:#031A33"/>
		</linearGradient>
		<polygon style="fill:url(#SVGID_21_);" points="326.962,214.24 326.366,216.365 329.579,228.355 330.745,228.355 		"/>
		<linearGradient id="SVGID_22_" gradientUnits="userSpaceOnUse" x1="329.2863" y1="220.5971" x2="311.0506" y2="220.5971">
			<stop  offset="0" style="stop-color:#063565"/>
			<stop  offset="1" style="stop-color:#031A33"/>
		</linearGradient>
		<path style="fill:url(#SVGID_22_);" d="M314.744,241.958c1.274-1.233,2.291-3.995,4.078-9.798l10.464-34.387h-1.158
			l-10.469,34.401c-1.788,5.803-2.804,8.565-4.078,9.798c-0.817,0.786-1.697,1.244-2.531,1.401
			C312.179,243.578,313.533,243.125,314.744,241.958z"/>
		<linearGradient id="SVGID_23_" gradientUnits="userSpaceOnUse" x1="295.4952" y1="244.9539" x2="294.333" y2="244.9539">
			<stop  offset="0" style="stop-color:#063565"/>
			<stop  offset="1" style="stop-color:#031A33"/>
		</linearGradient>
		<polygon style="fill:url(#SVGID_23_);" points="295.495,243.602 294.333,243.602 294.333,246.306 295.495,246.292 		"/>
		<linearGradient id="SVGID_24_" gradientUnits="userSpaceOnUse" x1="331.2865" y1="244.9539" x2="330.1242" y2="244.9539">
			<stop  offset="0" style="stop-color:#063565"/>
			<stop  offset="1" style="stop-color:#031A33"/>
		</linearGradient>
		<polygon style="fill:url(#SVGID_24_);" points="331.287,243.602 330.124,243.602 330.124,246.306 331.287,246.292 		"/>
		<linearGradient id="SVGID_25_" gradientUnits="userSpaceOnUse" x1="335.0384" y1="237.8742" x2="322.9909" y2="237.8742">
			<stop  offset="0" style="stop-color:#063565"/>
			<stop  offset="1" style="stop-color:#031A33"/>
		</linearGradient>
		<path style="fill:url(#SVGID_25_);" d="M334.874,239.626l-2.004-7.466h-9.875l-0.004,0.014h8.717l2.004,7.466
			c0.535,2.033-0.272,3.874-1.979,3.948h1.063C334.575,243.588,335.42,241.701,334.874,239.626z"/>
		<linearGradient id="SVGID_26_" gradientUnits="userSpaceOnUse" x1="299.3378" y1="220.6807" x2="293.255" y2="220.6807">
			<stop  offset="0" style="stop-color:#063565"/>
			<stop  offset="1" style="stop-color:#031A33"/>
		</linearGradient>
		<path style="fill:url(#SVGID_26_);" d="M299.338,239.584v-36.019c0-1.921-1.099-3.062-2.706-3.062h-2.215v-2.73h-1.162v2.743
			h2.215c1.606,0,2.705,1.141,2.705,3.062v36.019c0,2.56-1.362,3.918-3.24,3.99h1.013
			C297.906,243.588,299.338,242.215,299.338,239.584z"/>
	</g>
</g>
</svg>
