<?xml version="1.0" encoding="utf-8"?>
<!-- Generator: Adobe Illustrator 24.0.0, SVG Export Plug-In . SVG Version: 6.00 Build 0)  -->
<svg version="1.1" id="Layer_1" xmlns="http://www.w3.org/2000/svg" xmlns:xlink="http://www.w3.org/1999/xlink" x="0px" y="0px"
	 viewBox="0 0 1080 1080" style="enable-background:new 0 0 1080 1080;" xml:space="preserve">
<style type="text/css">
	.st0{fill:#131E29;}
	.st1{fill:#C9C9CA;}
	.st2{fill:url(#SVGID_1_);}
	.st3{fill:url(#SVGID_2_);}
	.st4{fill:url(#SVGID_3_);}
	.st5{fill:url(#SVGID_4_);}
	.st6{fill:url(#SVGID_5_);}
	.st7{fill:url(#SVGID_6_);}
	.st8{fill:url(#SVGID_7_);}
	.st9{fill:url(#SVGID_8_);}
	.st10{fill:url(#SVGID_9_);}
	.st11{fill:url(#SVGID_10_);}
	.st12{fill:url(#SVGID_11_);}
	.st13{fill:url(#SVGID_12_);}
	.st14{fill:url(#SVGID_13_);}
	.st15{fill:url(#SVGID_14_);}
	.st16{fill:url(#SVGID_15_);}
	.st17{fill:url(#SVGID_16_);}
	.st18{fill:url(#SVGID_17_);}
	.st19{fill:url(#SVGID_18_);}
	.st20{fill:url(#SVGID_19_);}
	.st21{fill:url(#SVGID_20_);}
	.st22{fill:url(#SVGID_21_);}
	.st23{fill:url(#SVGID_22_);}
	.st24{fill:url(#SVGID_23_);}
	.st25{fill:#4B4B4B;}
	.st26{fill:url(#SVGID_24_);}
	.st27{fill:url(#SVGID_25_);}
	.st28{fill:#FFFFFF;}
	.st29{fill:#EA2B29;}
	.st30{fill:#58595B;}
	.st31{fill:#595A5C;}
	.st32{fill:#5A5B5D;}
	.st33{fill:#5B5C5E;}
	.st34{fill:#5C5C5F;}
	.st35{fill:#5C5D60;}
	.st36{fill:#5D5E60;}
	.st37{fill:#5E5F61;}
	.st38{fill:#5F6062;}
	.st39{fill:#606163;}
	.st40{fill:#616264;}
	.st41{fill:#616365;}
	.st42{fill:#626366;}
	.st43{fill:#636467;}
	.st44{fill:#646567;}
	.st45{fill:#656668;}
	.st46{fill:#666769;}
	.st47{fill:#66686A;}
	.st48{fill:#67686B;}
	.st49{fill:#68696C;}
	.st50{fill:#696A6C;}
	.st51{fill:#6A6B6D;}
	.st52{fill:#6A6C6E;}
	.st53{fill:#6B6C6F;}
	.st54{fill:#6C6D70;}
	.st55{fill:#6D6E70;}
	.st56{fill:#6D6F71;}
	.st57{fill:#6E7072;}
	.st58{fill:#6F7073;}
	.st59{fill:#707174;}
	.st60{fill:#717275;}
	.st61{fill:#717375;}
	.st62{fill:#727476;}
	.st63{fill:#737477;}
	.st64{fill:#747578;}
	.st65{fill:#747678;}
	.st66{fill:#757779;}
	.st67{fill:#76777A;}
	.st68{fill:#77787B;}
	.st69{fill:#77797C;}
	.st70{fill:#787A7C;}
	.st71{fill:#797B7D;}
	.st72{fill:#7A7B7E;}
	.st73{fill:#7A7C7F;}
	.st74{fill:#7B7D7F;}
	.st75{fill:#7C7E80;}
	.st76{fill:#7D7E81;}
	.st77{fill:#7D7F82;}
	.st78{fill:#7E8082;}
	.st79{fill:#7F8183;}
	.st80{fill:#808184;}
	.st81{fill:#808285;}
	.st82{fill:#818385;}
	.st83{fill:#828486;}
	.st84{fill:#828487;}
	.st85{fill:#838588;}
	.st86{fill:#848688;}
	.st87{fill:#858789;}
	.st88{fill:#85878A;}
	.st89{fill:#86888B;}
	.st90{fill:#87898B;}
	.st91{fill:#888A8C;}
	.st92{fill:#888A8D;}
	.st93{fill:#898B8E;}
	.st94{fill:#8A8C8E;}
	.st95{fill:#8B8D8F;}
	.st96{fill:#8B8D90;}
	.st97{fill:#8C8E91;}
	.st98{fill:#8D8F92;}
	.st99{fill:#8E9092;}
	.st100{fill:#8E9093;}
	.st101{fill:#8F9194;}
	.st102{fill:#909295;}
	.st103{fill:#919395;}
	.st104{fill:#919396;}
	.st105{fill:#929497;}
	.st106{fill:#939598;}
	.st107{fill:#949698;}
	.st108{fill:#949699;}
	.st109{fill:#95979A;}
	.st110{fill:#96989B;}
	.st111{fill:#97999B;}
	.st112{fill:#979A9C;}
	.st113{fill:#989A9D;}
	.st114{fill:#999B9E;}
	.st115{fill:#9A9C9E;}
	.st116{fill:#9B9D9F;}
	.st117{fill:#9B9DA0;}
	.st118{fill:#9C9EA1;}
	.st119{fill:#9D9FA2;}
	.st120{fill:#9EA0A2;}
	.st121{fill:#9EA1A3;}
	.st122{fill:#9FA1A4;}
	.st123{fill:#A0A2A5;}
	.st124{fill:#A1A3A5;}
	.st125{fill:#A2A4A6;}
	.st126{fill:#A2A4A7;}
	.st127{fill:#A3A5A8;}
	.st128{fill:#A4A6A9;}
	.st129{fill:#A5A7A9;}
	.st130{fill:#A5A8AA;}
	.st131{fill:#A6A8AB;}
	.st132{fill:#A7A9AC;}
	.st133{fill:#A8AAAD;}
	.st134{fill:#A9ABAD;}
	.st135{fill:#A9ACAE;}
	.st136{fill:#AAACAF;}
	.st137{fill:#ABADB0;}
	.st138{fill:#ACAEB0;}
	.st139{fill:#ADAFB1;}
	.st140{fill:#AEB0B2;}
	.st141{fill:#AEB0B3;}
	.st142{fill:#AFB1B4;}
	.st143{fill:#B0B2B4;}
	.st144{fill:#B1B3B5;}
	.st145{fill:#B2B4B6;}
	.st146{fill:#B2B4B7;}
	.st147{fill:#B3B5B8;}
	.st148{fill:#B4B6B8;}
	.st149{fill:#B5B7B9;}
	.st150{fill:#B6B8BA;}
	.st151{fill:#B7B9BB;}
	.st152{fill:#B7B9BC;}
	.st153{fill:#B8BABC;}
	.st154{fill:#B9BBBD;}
	.st155{fill:#BABCBE;}
	.st156{fill:#BBBDBF;}
	.st157{fill:#BCBDC0;}
	.st158{fill:#BCBEC0;}
	.st159{fill:#BDBFC1;}
	.st160{fill:#BEC0C2;}
	.st161{fill:#BFC1C3;}
	.st162{fill:#C0C2C4;}
	.st163{fill:#C1C2C4;}
	.st164{fill:#C1C3C5;}
	.st165{fill:#C2C4C6;}
	.st166{fill:#C3C5C7;}
	.st167{fill:#C4C6C8;}
	.st168{fill:#C5C6C8;}
	.st169{fill:#C5C7C9;}
	.st170{fill:#C7C9CB;}
	.st171{fill:#C8CACC;}
	.st172{fill:#C9CBCC;}
	.st173{fill:#CACBCD;}
	.st174{fill:#CBCCCE;}
	.st175{fill:#CBCDCF;}
	.st176{fill:#CCCED0;}
	.st177{fill:#CDCFD0;}
	.st178{fill:#CECFD1;}
	.st179{fill:#CFD0D2;}
	.st180{fill:#D0D1D3;}
	.st181{fill:#D0D2D3;}
	.st182{fill:#D2D3D5;}
	.st183{fill:#D3D4D6;}
	.st184{fill:#D4D5D7;}
	.st185{fill:#D5D6D7;}
	.st186{fill:#D5D7D8;}
	.st187{fill:#D6D7D9;}
	.st188{fill:#D7D8DA;}
	.st189{fill:#D8D9DB;}
	.st190{fill:#D9DADB;}
	.st191{fill:#D9DBDC;}
	.st192{fill:#DADCDD;}
	.st193{fill:#DBDCDE;}
	.st194{fill:#DDDEDF;}
	.st195{fill:#DEDFE0;}
	.st196{fill:#DEE0E1;}
	.st197{fill:#DFE0E2;}
	.st198{fill:#E0E1E2;}
	.st199{fill:#E1E2E3;}
	.st200{fill:#E2E3E4;}
	.st201{fill:#E3E4E5;}
	.st202{fill:#E4E5E6;}
	.st203{fill:#E5E6E7;}
	.st204{fill:#E7E8E9;}
	.st205{clip-path:url(#SVGID_27_);fill:url(#XMLID_2_);}
	.st206{fill:#004E25;}
	.st207{fill:#F5F0CC;}
	.st208{clip-path:url(#SVGID_29_);fill:url(#XMLID_3_);}
	.st209{clip-path:url(#SVGID_31_);fill:url(#XMLID_4_);}
	.st210{clip-path:url(#SVGID_33_);fill:url(#XMLID_5_);}
	.st211{clip-path:url(#SVGID_35_);fill:url(#XMLID_6_);}
	.st212{clip-path:url(#SVGID_37_);fill:url(#XMLID_7_);}
	.st213{clip-path:url(#SVGID_39_);fill:url(#XMLID_8_);}
	.st214{clip-path:url(#SVGID_41_);fill:url(#XMLID_9_);}
	.st215{clip-path:url(#SVGID_43_);fill:url(#XMLID_11_);}
	.st216{clip-path:url(#SVGID_45_);fill:url(#XMLID_12_);}
	.st217{clip-path:url(#SVGID_47_);fill:url(#XMLID_13_);}
	.st218{clip-path:url(#SVGID_49_);fill:url(#XMLID_14_);}
	.st219{fill:#455E66;}
	.st220{fill-rule:evenodd;clip-rule:evenodd;fill:#697C86;}
	.st221{clip-path:url(#SVGID_51_);fill:url(#XMLID_16_);}
	.st222{clip-path:url(#SVGID_53_);fill:url(#XMLID_17_);}
	.st223{clip-path:url(#SVGID_55_);fill:url(#XMLID_18_);}
	.st224{clip-path:url(#SVGID_57_);fill:url(#XMLID_19_);}
	.st225{fill:#00010B;}
	.st226{fill:#C5CBD0;}
	.st227{clip-path:url(#SVGID_59_);fill:url(#XMLID_21_);}
	.st228{clip-path:url(#SVGID_61_);fill:url(#XMLID_22_);}
	.st229{fill:#2B373E;}
	.st230{clip-path:url(#SVGID_63_);fill:url(#XMLID_24_);}
	.st231{clip-path:url(#SVGID_65_);fill:url(#XMLID_25_);}
	.st232{clip-path:url(#SVGID_67_);fill:url(#XMLID_29_);}
	.st233{clip-path:url(#SVGID_69_);fill:url(#XMLID_33_);}
	.st234{clip-path:url(#SVGID_71_);fill:url(#XMLID_36_);}
	.st235{fill:url(#XMLID_38_);}
	.st236{clip-path:url(#SVGID_73_);fill:url(#XMLID_41_);}
	.st237{clip-path:url(#SVGID_75_);fill:url(#XMLID_43_);}
	.st238{clip-path:url(#SVGID_77_);fill:url(#XMLID_47_);}
	.st239{fill:#3F4E56;}
	.st240{clip-path:url(#SVGID_79_);fill:url(#XMLID_53_);}
	.st241{fill-rule:evenodd;clip-rule:evenodd;fill:#3F4E56;}
	.st242{clip-path:url(#SVGID_81_);fill:url(#XMLID_55_);}
	.st243{clip-path:url(#SVGID_83_);fill:url(#XMLID_56_);}
	.st244{fill:url(#XMLID_57_);}
	.st245{fill:url(#XMLID_58_);}
	.st246{fill-rule:evenodd;clip-rule:evenodd;fill:url(#XMLID_59_);}
	.st247{clip-path:url(#SVGID_85_);fill:url(#XMLID_60_);}
	.st248{clip-path:url(#SVGID_87_);fill:url(#XMLID_61_);}
	.st249{fill:url(#XMLID_62_);}
	.st250{fill:url(#XMLID_63_);}
</style>
<g id="XMLID_10_">
	<path id="XMLID_450_" class="st30" d="M551,325.14c-254.67,0-461,108.4-461,241.96s206.33,241.96,461,241.96s461-108.4,461-241.96
		S805.67,325.14,551,325.14"/>
	<path id="XMLID_449_" class="st31" d="M551,325.14c-254.67,0-461,108.4-461,241.96s206.33,241.96,461,241.96s461-108.4,461-241.96
		S805.67,325.14,551,325.14"/>
	<path id="XMLID_448_" class="st32" d="M551,325.14c-254.42,0-461,108.4-461,241.96s206.33,241.96,461,241.96
		c254.42,0,461-108.4,461-241.96S805.42,325.14,551,325.14"/>
	<path id="XMLID_447_" class="st33" d="M551,325.14c-254.42,0-460.75,108.4-460.75,241.96S296.58,809.07,551,809.07
		s461-108.4,461-241.96S805.42,325.14,551,325.14"/>
	<path id="XMLID_446_" class="st34" d="M551,325.39c-254.42,0-460.75,108.15-460.75,241.71S296.58,808.82,551,808.82
		s460.75-108.4,460.75-241.71C1011.75,433.54,805.42,325.39,551,325.39"/>
	<path id="XMLID_445_" class="st35" d="M551,325.39c-254.42,0-460.75,108.15-460.75,241.71S296.58,808.82,551,808.82
		s460.75-108.15,460.75-241.71S805.42,325.39,551,325.39"/>
	<path id="XMLID_444_" class="st36" d="M551,325.39c-254.42,0-460.75,108.15-460.75,241.71S296.58,808.82,551,808.82
		s460.75-108.15,460.75-241.71S805.42,325.39,551,325.39"/>
	<path id="XMLID_443_" class="st37" d="M551,325.39c-254.42,0-460.75,108.15-460.75,241.71S296.58,808.82,551,808.82
		s460.75-108.15,460.75-241.71S805.42,325.39,551,325.39"/>
	<path id="XMLID_442_" class="st38" d="M551,325.39c-254.42,0-460.5,108.15-460.5,241.71c0,133.32,206.33,241.71,460.5,241.71
		c254.42,0,460.75-108.15,460.75-241.71S805.42,325.39,551,325.39"/>
	<path id="XMLID_441_" class="st39" d="M551,325.64c-254.42,0-460.5,108.15-460.5,241.71c0,133.32,206.08,241.71,460.5,241.71
		s460.5-108.15,460.5-241.71S805.42,325.64,551,325.64"/>
	<path id="XMLID_440_" class="st40" d="M551,325.64c-254.17,0-460.5,108.15-460.5,241.46S296.58,808.57,551,808.57
		s460.5-108.15,460.5-241.46S805.42,325.64,551,325.64"/>
	<path id="XMLID_439_" class="st41" d="M551,325.64c-254.17,0-460.5,108.15-460.5,241.46S296.58,808.57,551,808.57
		c254.17,0,460.5-108.15,460.5-241.46S805.42,325.64,551,325.64"/>
	<path id="XMLID_438_" class="st42" d="M551,325.64c-254.17,0-460.5,108.15-460.5,241.46S296.58,808.57,551,808.57
		c254.17,0,460.5-108.15,460.5-241.46S805.42,325.64,551,325.64"/>
	<path id="XMLID_437_" class="st43" d="M551,325.64c-254.17,0-460.25,108.15-460.25,241.46S296.83,808.57,551,808.57
		s460.25-108.15,460.25-241.46C1011.5,433.79,805.17,325.64,551,325.64"/>
	<path id="XMLID_436_" class="st44" d="M551,325.64c-254.17,0-460.25,108.15-460.25,241.46S296.83,808.57,551,808.57
		s460.25-108.15,460.25-241.46C1011.5,433.79,805.17,325.64,551,325.64"/>
	<path id="XMLID_435_" class="st45" d="M551,325.89c-254.17,0-460.25,108.15-460.25,241.46S296.83,808.57,551,808.57
		s460.25-108.15,460.25-241.22C1011.25,433.79,805.17,325.89,551,325.89"/>
	<path id="XMLID_434_" class="st46" d="M551,325.89c-254.17,0-460.25,107.9-460.25,241.22S296.83,808.32,551,808.32
		s460.25-108.15,460.25-241.22C1011.25,433.79,805.17,325.89,551,325.89"/>
	<path id="XMLID_433_" class="st47" d="M551,325.89c-254.17,0-460.25,107.9-460.25,241.22S296.83,808.32,551,808.32
		s460.25-107.9,460.25-241.22C1011.25,434.04,805.17,325.89,551,325.89"/>
	<path id="XMLID_432_" class="st48" d="M551,325.89c-254.17,0-460,107.9-460,241.22c0,133.07,206.08,241.22,460,241.22
		c254.17,0,460-107.9,460-241.22C1011.25,434.04,805.17,325.89,551,325.89"/>
	<path id="XMLID_431_" class="st49" d="M551,326.14c-254.17,0-460,107.9-460,241.22c0,133.07,206.08,241.22,460,241.22
		s460-107.9,460-241.22C1011.25,434.04,805.17,326.14,551,326.14"/>
	<path id="XMLID_430_" class="st50" d="M551,326.14c-253.92,0-460,107.9-460,241.22c0,133.07,206.08,240.97,460,240.97
		s460-107.9,460-240.97C1011,434.04,805.17,326.14,551,326.14"/>
	<path id="XMLID_429_" class="st51" d="M551,326.14c-253.92,0-460,107.9-460,240.97s205.83,240.97,460,240.97
		c253.92,0,460-107.9,460-240.97C1011,434.04,805.17,326.14,551,326.14"/>
	<path id="XMLID_428_" class="st52" d="M551,326.14c-253.92,0-459.75,107.9-459.75,240.97S297.08,808.07,551,808.07
		s460-107.9,460-240.97C1011,434.04,805.17,326.14,551,326.14"/>
	<path id="XMLID_427_" class="st53" d="M551,326.14c-253.92,0-459.75,107.9-459.75,240.97S297.08,808.07,551,808.07
		s459.75-107.9,459.75-240.97C1011,434.04,805.17,326.14,551,326.14"/>
	<path id="XMLID_426_" class="st54" d="M551,326.14c-253.92,0-459.75,107.9-459.75,240.97S297.08,808.07,551,808.07
		s459.75-107.9,459.75-240.97C1011,434.04,804.92,326.14,551,326.14"/>
	<path id="XMLID_425_" class="st55" d="M551,326.39c-253.92,0-459.75,107.9-459.75,240.97c0,133.07,205.83,240.72,459.75,240.72
		s459.75-107.9,459.75-240.72C1011,434.04,804.92,326.39,551,326.39"/>
	<path id="XMLID_424_" class="st56" d="M551,326.39c-253.92,0-459.75,107.9-459.75,240.72c0,133.07,205.83,240.72,459.75,240.72
		s459.75-107.9,459.75-240.72S804.92,326.39,551,326.39"/>
	<path id="XMLID_423_" class="st57" d="M551,326.39c-253.92,0-459.75,107.9-459.75,240.72c0,133.07,205.83,240.72,459.75,240.72
		s459.75-107.9,459.75-240.72S804.92,326.39,551,326.39"/>
	<path id="XMLID_422_" class="st58" d="M551.25,326.39c-253.92,0-459.5,107.65-459.5,240.72c0,132.82,205.83,240.72,459.5,240.72
		s459.5-107.65,459.5-240.72C1010.75,434.29,804.92,326.39,551.25,326.39"/>
	<path id="XMLID_421_" class="st59" d="M551.25,326.39c-253.67,0-459.5,107.65-459.5,240.72c0,132.82,205.83,240.72,459.5,240.72
		s459.5-107.65,459.5-240.72C1010.75,434.29,804.92,326.39,551.25,326.39"/>
	<path id="XMLID_420_" class="st60" d="M551.25,326.64c-253.67,0-459.5,107.65-459.5,240.72c0,132.82,205.83,240.72,459.5,240.72
		s459.5-107.65,459.5-240.72C1010.75,434.29,804.92,326.64,551.25,326.64"/>
	<path id="XMLID_419_" class="st61" d="M551.25,326.64c-253.67,0-459.5,107.65-459.5,240.47s205.83,240.47,459.5,240.47
		s459.5-107.65,459.5-240.47C1010.5,434.29,804.92,326.64,551.25,326.64"/>
	<path id="XMLID_418_" class="st62" d="M551.25,326.64c-253.67,0-459.5,107.65-459.5,240.47s205.58,240.47,459.5,240.47
		c253.67,0,459.5-107.65,459.5-240.47C1010.5,434.29,804.92,326.64,551.25,326.64"/>
	<path id="XMLID_417_" class="st63" d="M551.25,326.64c-253.67,0-459.26,107.65-459.26,240.47s205.58,240.47,459.26,240.47
		S1010.5,699.92,1010.5,567.1C1010.5,434.29,804.92,326.64,551.25,326.64"/>
	<path id="XMLID_416_" class="st64" d="M551.25,326.64c-253.67,0-459.26,107.65-459.26,240.47s205.58,240.47,459.26,240.47
		S1010.5,699.92,1010.5,567.1C1010.5,434.29,804.92,326.64,551.25,326.64"/>
	<path id="XMLID_415_" class="st65" d="M551.25,326.89c-253.67,0-459.26,107.65-459.26,240.47c0,132.82,205.58,240.47,459.26,240.47
		s459.26-107.65,459.26-240.47C1010.5,434.54,804.67,326.89,551.25,326.89"/>
	<path id="XMLID_414_" class="st66" d="M551.25,326.89c-253.67,0-459.26,107.65-459.26,240.47c0,132.82,205.58,240.22,459.26,240.22
		s459.26-107.65,459.26-240.22C1010.5,434.54,804.67,326.89,551.25,326.89"/>
	<path id="XMLID_413_" class="st67" d="M551.25,326.89c-253.67,0-459.26,107.65-459.26,240.22s205.58,240.22,459.26,240.22
		S1010.5,699.67,1010.5,567.1C1010.26,434.54,804.67,326.89,551.25,326.89"/>
	<path id="XMLID_412_" class="st68" d="M551.25,326.89c-253.43,0-459.01,107.65-459.01,240.22s205.58,240.22,459.01,240.22
		s459.01-107.65,459.01-240.22S804.67,326.89,551.25,326.89"/>
	<path id="XMLID_411_" class="st69" d="M551.25,326.89c-253.43,0-459.01,107.65-459.01,240.22s205.58,240.22,459.01,240.22
		s459.01-107.65,459.01-240.22S804.67,326.89,551.25,326.89"/>
	<path id="XMLID_410_" class="st70" d="M551.25,327.14c-253.43,0-459.01,107.4-459.01,240.22c0,132.57,205.58,240.22,459.01,240.22
		s459.01-107.65,459.01-240.22C1010.26,434.54,804.67,327.14,551.25,327.14"/>
	<path id="XMLID_409_" class="st71" d="M551.25,327.14c-253.43,0-459.01,107.4-459.01,240.22c0,132.57,205.58,239.97,459.01,239.97
		s459.01-107.4,459.01-239.97C1010.26,434.54,804.67,327.14,551.25,327.14"/>
	<path id="XMLID_408_" class="st72" d="M551.25,327.14c-253.43,0-458.76,107.4-458.76,239.97S298.07,807.07,551.5,807.07
		s459.01-107.4,459.01-239.97C1010.01,434.54,804.67,327.14,551.25,327.14"/>
	<path id="XMLID_407_" class="st73" d="M551.25,327.14c-253.43,0-458.76,107.4-458.76,239.97s205.33,239.97,458.76,239.97
		s458.76-107.4,458.76-239.97S804.67,327.14,551.25,327.14"/>
	<path id="XMLID_406_" class="st74" d="M551.25,327.14c-253.43,0-458.76,107.65-458.76,239.97c0,132.57,205.33,239.97,458.76,239.97
		s458.76-107.4,458.76-239.97C1010.01,434.79,804.67,327.14,551.25,327.14"/>
	<path id="XMLID_405_" class="st75" d="M551.25,327.38c-253.43,0-458.76,107.4-458.76,239.72c0,132.57,205.33,239.97,458.76,239.97
		s458.76-107.4,458.76-239.97C1010.01,434.79,804.67,327.38,551.25,327.38"/>
	<path id="XMLID_404_" class="st76" d="M551.25,327.38c-253.43,0-458.76,107.4-458.76,239.72c0,132.57,205.33,239.72,458.76,239.72
		s458.76-107.4,458.76-239.72S804.43,327.38,551.25,327.38"/>
	<path id="XMLID_403_" class="st77" d="M551.25,327.38c-253.18,0-458.51,107.4-458.51,239.72s205.33,239.72,458.51,239.72
		s458.76-107.4,458.76-239.72S804.43,327.38,551.25,327.38"/>
	<path id="XMLID_402_" class="st78" d="M551.25,327.38c-253.18,0-458.51,107.4-458.51,239.72s205.33,239.72,458.51,239.72
		s458.51-107.4,458.51-239.72S804.43,327.38,551.25,327.38"/>
	<path id="XMLID_401_" class="st79" d="M551.25,327.38c-253.18,0-458.51,107.4-458.51,239.72s205.33,239.72,458.51,239.72
		s458.51-107.4,458.51-239.72S804.43,327.38,551.25,327.38"/>
	<path id="XMLID_400_" class="st80" d="M551.25,327.63c-253.18,0-458.51,107.4-458.51,239.72s205.33,239.72,458.51,239.72
		s458.51-107.4,458.51-239.72C1009.76,434.79,804.43,327.63,551.25,327.63"/>
	<path id="XMLID_399_" class="st81" d="M551.25,327.63c-253.18,0-458.51,107.4-458.51,239.72s205.33,239.72,458.51,239.72
		s458.51-107.4,458.51-239.72C1009.76,434.79,804.43,327.63,551.25,327.63"/>
	<path id="XMLID_398_" class="st82" d="M551.25,327.63c-253.18,0-458.51,107.15-458.51,239.47s205.33,239.47,458.51,239.47
		s458.51-107.15,458.51-239.47S804.43,327.63,551.25,327.63"/>
	<path id="XMLID_397_" class="st83" d="M551.25,327.63c-253.18,0-458.26,107.15-458.26,239.47s205.33,239.47,458.26,239.47
		s458.26-107.15,458.26-239.47C1009.51,435.03,804.43,327.63,551.25,327.63"/>
	<path id="XMLID_396_" class="st84" d="M551.25,327.63c-253.18,0-458.26,107.15-458.26,239.47s205.08,239.47,458.26,239.47
		s458.26-107.15,458.26-239.47C1009.51,435.03,804.43,327.63,551.25,327.63"/>
	<path id="XMLID_395_" class="st85" d="M551.25,327.88c-253.18,0-458.26,107.15-458.26,239.47s205.08,239.47,458.26,239.47
		s458.26-107.15,458.26-239.47S804.43,327.88,551.25,327.88"/>
	<path id="XMLID_394_" class="st86" d="M551.25,327.88c-252.93,0-458.26,107.15-458.26,239.22s205.08,239.47,458.26,239.47
		c252.93,0,458.26-107.15,458.26-239.47C1009.51,435.03,804.43,327.88,551.25,327.88"/>
	<path id="XMLID_393_" class="st87" d="M551.25,327.88c-252.93,0-458.01,107.15-458.01,239.22s205.08,239.22,458.01,239.22
		s458.26-107.15,458.26-239.22S804.18,327.88,551.25,327.88"/>
	<path id="XMLID_392_" class="st88" d="M551.25,327.88c-252.93,0-458.01,107.15-458.01,239.22s205.08,239.22,458.01,239.22
		s458.01-107.15,458.01-239.22C1009.51,435.03,804.18,327.88,551.25,327.88"/>
	<path id="XMLID_391_" class="st89" d="M551.25,327.88c-252.93,0-458.01,107.15-458.01,239.22s205.08,239.22,458.01,239.22
		s458.01-107.15,458.01-239.22C1009.26,435.03,804.18,327.88,551.25,327.88"/>
	<path id="XMLID_390_" class="st90" d="M551.25,328.13c-252.93,0-458.01,107.15-458.01,239.22c0,132.07,205.08,239.22,458.01,239.22
		s458.01-107.15,458.01-239.22C1009.26,435.03,804.18,328.13,551.25,328.13"/>
	<path id="XMLID_389_" class="st91" d="M551.25,328.13c-252.93,0-458.01,107.15-458.01,239.22c0,132.07,205.08,239.22,458.01,239.22
		s458.01-107.15,458.01-239.22C1009.26,435.03,804.18,328.13,551.25,328.13"/>
	<path id="XMLID_388_" class="st92" d="M551.25,328.13c-252.93,0-457.76,107.15-457.76,239.22c0,132.07,205.08,238.97,457.76,238.97
		c252.93,0,458.01-107.15,458.01-238.97C1009.26,435.28,804.18,328.13,551.25,328.13"/>
	<path id="XMLID_387_" class="st93" d="M551.25,328.13c-252.93,0-457.76,106.9-457.76,238.97s205.08,238.97,457.76,238.97
		c252.93,0,457.76-107.15,457.76-238.97C1009.26,435.28,804.18,328.13,551.25,328.13"/>
	<path id="XMLID_386_" class="st94" d="M551.25,328.13c-252.93,0-457.76,106.9-457.76,238.97s205.08,238.97,457.76,238.97
		c252.93,0,457.76-106.9,457.76-238.97C1009.01,435.28,804.18,328.13,551.25,328.13"/>
	<path id="XMLID_385_" class="st95" d="M551.25,328.38c-252.68,0-457.76,106.9-457.76,238.97c0,132.07,204.83,238.97,457.76,238.97
		c252.68,0,457.76-106.9,457.76-238.97C1009.01,435.28,804.18,328.38,551.25,328.38"/>
	<path id="XMLID_384_" class="st96" d="M551.25,328.38c-252.68,0-457.76,106.9-457.76,238.97c0,131.82,204.83,238.97,457.76,238.97
		c252.68,0,457.76-106.9,457.76-238.97C1009.01,435.28,804.18,328.38,551.25,328.38"/>
	<path id="XMLID_383_" class="st97" d="M551.25,328.38c-252.68,0-457.51,106.9-457.51,238.97c0,131.82,204.83,238.97,457.51,238.97
		s457.76-106.9,457.76-238.97C1009.01,435.28,804.18,328.38,551.25,328.38"/>
	<path id="XMLID_382_" class="st98" d="M551.25,328.38c-252.68,0-457.51,106.9-457.51,238.72s204.83,238.72,457.51,238.72
		s457.51-106.9,457.51-238.72C1009.01,435.28,803.93,328.38,551.25,328.38"/>
	<path id="XMLID_381_" class="st99" d="M551.25,328.38c-252.68,0-457.51,106.9-457.51,238.72s204.83,238.72,457.51,238.72
		s457.51-106.9,457.51-238.72C1009.01,435.28,803.93,328.38,551.25,328.38"/>
	<path id="XMLID_380_" class="st100" d="M551.25,328.63c-252.68,0-457.51,106.9-457.51,238.72c0,131.82,204.83,238.72,457.51,238.72
		s457.51-106.9,457.51-238.72C1008.76,435.28,803.93,328.63,551.25,328.63"/>
	<path id="XMLID_379_" class="st101" d="M551.25,328.63c-252.68,0-457.51,106.9-457.51,238.72c0,131.82,204.83,238.72,457.51,238.72
		s457.51-106.9,457.51-238.72S803.93,328.63,551.25,328.63"/>
	<path id="XMLID_378_" class="st102" d="M551.25,328.63c-252.68,0-457.26,106.9-457.26,238.72c0,131.82,204.83,238.72,457.26,238.72
		c252.68,0,457.51-106.9,457.51-238.72S803.93,328.63,551.25,328.63"/>
	<path id="XMLID_377_" class="st103" d="M551.25,328.63c-252.68,0-457.26,106.9-457.26,238.47c0,131.82,204.83,238.47,457.26,238.47
		c252.68,0,457.26-106.9,457.26-238.47C1008.76,435.53,803.93,328.63,551.25,328.63"/>
	<path id="XMLID_376_" class="st104" d="M551.25,328.63c-252.43,0-457.26,106.9-457.26,238.47c0,131.82,204.83,238.47,457.26,238.47
		s457.26-106.9,457.26-238.47C1008.76,435.53,803.93,328.63,551.25,328.63"/>
	<path id="XMLID_375_" class="st105" d="M551.25,328.88c-252.43,0-457.26,106.65-457.26,238.47
		c0,131.57,204.83,238.47,457.26,238.47s457.26-106.9,457.26-238.47C1008.51,435.53,803.93,328.88,551.25,328.88"/>
	<path id="XMLID_374_" class="st106" d="M551.25,328.88c-252.43,0-457.26,106.65-457.26,238.47
		c0,131.57,204.58,238.47,457.26,238.47s457.26-106.65,457.26-238.47C1008.51,435.53,803.93,328.88,551.25,328.88"/>
	<path id="XMLID_373_" class="st107" d="M551.25,328.88c-252.43,0-457.26,106.65-457.26,238.47
		c0,131.57,204.58,238.47,457.26,238.47c252.43,0,457.26-106.65,457.26-238.47C1008.51,435.53,803.93,328.88,551.25,328.88"/>
	<path id="XMLID_372_" class="st108" d="M551.25,328.88c-252.43,0-457.01,106.65-457.01,238.47
		c0,131.57,204.58,238.22,457.01,238.22s457.01-106.65,457.01-238.22C1008.51,435.53,803.93,328.88,551.25,328.88"/>
	<path id="XMLID_371_" class="st109" d="M551.5,328.88c-252.43,0-457.01,106.65-457.01,238.22S299.07,805.33,551.5,805.33
		s457.01-106.65,457.01-238.22S803.68,328.88,551.5,328.88"/>
	<path id="XMLID_370_" class="st110" d="M551.5,329.13c-252.43,0-457.01,106.65-457.01,238.22S299.07,805.58,551.5,805.58
		s457.01-106.65,457.01-238.22S803.68,329.13,551.5,329.13"/>
	<path id="XMLID_369_" class="st111" d="M551.5,329.13c-252.43,0-457.01,106.65-457.01,238.22S299.07,805.58,551.5,805.58
		s457.01-106.65,457.01-238.22C1008.26,435.78,803.68,329.13,551.5,329.13"/>
	<path id="XMLID_368_" class="st112" d="M551.5,329.13c-252.43,0-456.76,106.65-456.76,238.22S299.32,805.58,551.5,805.58
		c252.43,0,457.01-106.65,457.01-238.22C1008.26,435.78,803.68,329.13,551.5,329.13"/>
	<path id="XMLID_367_" class="st113" d="M551.5,329.13c-252.18,0-456.76,106.65-456.76,238.22S299.32,805.33,551.5,805.33
		s456.76-106.65,456.76-237.98C1008.26,435.78,803.68,329.13,551.5,329.13"/>
	<path id="XMLID_366_" class="st114" d="M551.5,329.13c-252.18,0-456.76,106.65-456.76,237.98c0,131.57,204.58,237.98,456.76,237.98
		s456.76-106.65,456.76-237.98S803.68,329.13,551.5,329.13"/>
	<path id="XMLID_365_" class="st115" d="M551.5,329.13c-252.18,0-456.76,106.65-456.76,237.98S299.32,805.08,551.5,805.08
		s456.76-106.65,456.76-237.98S803.68,329.13,551.5,329.13"/>
	<path id="XMLID_364_" class="st116" d="M551.5,329.38c-252.18,0-456.76,106.65-456.76,237.98S299.32,805.33,551.5,805.33
		s456.76-106.65,456.76-237.98C1008.01,435.78,803.68,329.38,551.5,329.38"/>
	<path id="XMLID_363_" class="st117" d="M551.5,329.38c-252.18,0-456.51,106.4-456.51,237.98c0,131.32,204.34,237.98,456.51,237.98
		s456.76-106.65,456.76-237.98C1008.01,435.78,803.68,329.38,551.5,329.38"/>
	<path id="XMLID_362_" class="st118" d="M551.5,329.38c-252.18,0-456.51,106.4-456.51,237.98c0,131.32,204.34,237.98,456.51,237.98
		s456.51-106.4,456.51-237.98S803.68,329.38,551.5,329.38"/>
	<path id="XMLID_361_" class="st119" d="M551.5,329.38c-252.18,0-456.51,106.65-456.51,237.98S299.32,805.08,551.5,805.08
		s456.51-106.4,456.51-237.73S803.68,329.38,551.5,329.38"/>
	<path id="XMLID_360_" class="st120" d="M551.5,329.38c-252.18,0-456.51,106.65-456.51,237.98S299.32,805.08,551.5,805.08
		s456.51-106.4,456.51-237.73S803.43,329.38,551.5,329.38"/>
	<path id="XMLID_359_" class="st121" d="M551.5,329.63c-252.18,0-456.51,106.4-456.51,237.73S299.32,805.08,551.5,805.08
		s456.51-106.4,456.51-237.73S803.43,329.63,551.5,329.63"/>
	<path id="XMLID_358_" class="st122" d="M551.5,329.63c-252.18,0-456.51,106.4-456.51,237.73s204.34,237.73,456.27,237.73
		s456.51-106.4,456.51-237.73S803.43,329.63,551.5,329.63"/>
	<path id="XMLID_357_" class="st123" d="M551.5,329.63c-251.93,0-456.27,106.4-456.27,237.73S299.57,805.08,551.5,805.08
		s456.27-106.4,456.27-237.73S803.43,329.63,551.5,329.63"/>
	<path id="XMLID_356_" class="st124" d="M551.5,329.63c-251.93,0-456.27,106.4-456.27,237.48S299.57,804.58,551.5,804.58
		s456.27-106.4,456.27-237.48S803.43,329.63,551.5,329.63"/>
	<path id="XMLID_355_" class="st125" d="M551.5,329.63c-251.93,0-456.27,106.4-456.27,237.48S299.57,804.58,551.5,804.58
		s456.27-106.4,456.27-237.48S803.43,329.63,551.5,329.63"/>
	<path id="XMLID_354_" class="st126" d="M551.5,329.88c-251.93,0-456.27,106.4-456.27,237.48S299.57,804.83,551.5,804.83
		s456.27-106.4,456.27-237.48C1007.76,436.03,803.43,329.88,551.5,329.88"/>
	<path id="XMLID_353_" class="st127" d="M551.5,329.88c-251.93,0-456.02,106.4-456.02,237.48S299.82,804.83,551.5,804.83
		c251.93,0,456.27-106.4,456.27-237.48C1007.51,436.03,803.43,329.88,551.5,329.88"/>
	<path id="XMLID_352_" class="st128" d="M551.5,329.88c-251.93,0-456.02,106.4-456.02,237.48S299.57,804.83,551.5,804.83
		s456.02-106.4,456.02-237.48S803.43,329.88,551.5,329.88"/>
	<path id="XMLID_351_" class="st129" d="M551.5,329.88c-251.93,0-456.02,106.15-456.02,237.48c0,131.07,204.09,237.23,456.02,237.23
		s456.02-106.4,456.02-237.23C1007.51,436.28,803.43,329.88,551.5,329.88"/>
	<path id="XMLID_350_" class="st130" d="M551.5,329.88c-251.93,0-456.02,106.15-456.02,237.23S299.57,804.33,551.5,804.33
		s456.02-106.15,456.02-237.23C1007.51,436.28,803.43,329.88,551.5,329.88"/>
	<path id="XMLID_349_" class="st131" d="M551.5,330.13c-251.68,0-456.02,106.15-456.02,237.23S299.57,804.58,551.5,804.58
		c251.68,0,456.02-106.15,456.02-237.23S803.18,330.13,551.5,330.13"/>
	<path id="XMLID_348_" class="st132" d="M551.5,330.13c-251.68,0-455.77,106.15-455.77,237.23S299.82,804.58,551.5,804.58
		c251.68,0,456.02-106.15,456.02-237.23S803.18,330.13,551.5,330.13"/>
	<path id="XMLID_347_" class="st133" d="M551.5,330.13c-251.68,0-455.77,106.15-455.77,237.23S299.82,804.58,551.5,804.58
		c251.68,0,455.77-106.15,455.77-237.23S803.18,330.13,551.5,330.13"/>
	<path id="XMLID_346_" class="st134" d="M551.5,330.13c-251.68,0-455.77,106.15-455.77,237.23c0,130.82,204.09,237.23,455.77,237.23
		c251.68,0,455.77-106.15,455.77-237.23S803.18,330.13,551.5,330.13"/>
	<path id="XMLID_345_" class="st135" d="M551.5,330.13c-251.68,0-455.77,106.15-455.77,236.98S299.82,804.08,551.5,804.08
		c251.68,0,455.77-106.15,455.77-236.98S803.18,330.13,551.5,330.13"/>
	<path id="XMLID_344_" class="st136" d="M551.5,330.38c-251.68,0-455.77,106.15-455.77,236.98c0,130.82,204.09,236.98,455.77,236.98
		c251.68,0,455.77-106.15,455.77-236.98C1007.27,436.28,803.18,330.38,551.5,330.38"/>
	<path id="XMLID_343_" class="st137" d="M551.5,330.38c-251.68,0-455.52,106.15-455.52,236.98c0,130.82,204.09,236.98,455.52,236.98
		c251.68,0,455.77-106.15,455.77-236.98C1007.27,436.53,803.18,330.38,551.5,330.38"/>
	<path id="XMLID_342_" class="st138" d="M551.5,330.38c-251.68,0-455.52,106.15-455.52,236.98c0,130.82,204.09,236.98,455.52,236.98
		c251.68,0,455.52-106.15,455.52-236.98C1007.27,436.53,803.18,330.38,551.5,330.38"/>
	<path id="XMLID_341_" class="st139" d="M551.5,330.38c-251.68,0-455.52,106.15-455.52,236.98c0,130.82,204.09,236.98,455.52,236.98
		c251.68,0,455.52-106.15,455.52-236.98C1007.02,436.53,803.18,330.38,551.5,330.38"/>
	<path id="XMLID_340_" class="st140" d="M551.5,330.38c-251.43,0-455.52,105.91-455.52,236.73S299.82,803.83,551.5,803.83
		c251.43,0,455.52-106.15,455.52-236.73S803.18,330.38,551.5,330.38"/>
	<path id="XMLID_339_" class="st141" d="M551.5,330.62c-251.43,0-455.52,105.91-455.52,236.73c0,130.82,203.84,236.73,455.52,236.73
		c251.43,0,455.52-105.91,455.52-236.73C1007.02,436.53,803.18,330.62,551.5,330.62"/>
	<path id="XMLID_338_" class="st142" d="M551.5,330.62c-251.43,0-455.27,105.91-455.27,236.73c0,130.82,203.84,236.73,455.27,236.73
		s455.52-105.91,455.52-236.73C1007.02,436.53,802.93,330.62,551.5,330.62"/>
	<path id="XMLID_337_" class="st143" d="M551.5,330.62c-251.43,0-455.27,105.91-455.27,236.73c0,130.58,203.84,236.73,455.27,236.73
		s455.27-105.91,455.27-236.73C1007.02,436.53,802.93,330.62,551.5,330.62"/>
	<path id="XMLID_336_" class="st144" d="M551.5,330.62c-251.43,0-455.27,105.91-455.27,236.73c0,130.58,203.84,236.73,455.27,236.73
		s455.27-105.91,455.27-236.73C1006.77,436.53,802.93,330.62,551.5,330.62"/>
	<path id="XMLID_335_" class="st145" d="M551.5,330.62c-251.43,0-455.27,105.91-455.27,236.48S300.07,803.59,551.5,803.59
		s455.27-105.91,455.27-236.48S802.93,330.62,551.5,330.62"/>
	<path id="XMLID_334_" class="st146" d="M551.5,330.87c-251.43,0-455.27,105.91-455.27,236.48c0,130.58,203.84,236.48,455.27,236.48
		s455.27-105.91,455.27-236.48C1006.77,436.78,802.93,330.87,551.5,330.87"/>
	<path id="XMLID_333_" class="st147" d="M551.5,330.87c-251.43,0-455.02,105.91-455.02,236.48c0,130.58,203.84,236.48,455.02,236.48
		c251.43,0,455.27-105.91,455.27-236.48C1006.77,436.78,802.93,330.87,551.5,330.87"/>
	<path id="XMLID_332_" class="st148" d="M551.5,330.87c-251.43,0-455.02,105.91-455.02,236.48c0,130.58,203.84,236.48,455.02,236.48
		c251.43,0,455.02-105.91,455.02-236.48C1006.77,436.78,802.93,330.87,551.5,330.87"/>
	<path id="XMLID_331_" class="st149" d="M551.5,330.87c-251.18,0-455.02,105.91-455.02,236.48c0,130.58,203.84,236.48,455.02,236.48
		s455.02-105.91,455.02-236.48C1006.77,436.78,802.93,330.87,551.5,330.87"/>
	<path id="XMLID_330_" class="st150" d="M551.5,330.87c-251.18,0-455.02,105.91-455.02,236.48c0,130.58,203.84,236.48,455.02,236.48
		s455.02-105.91,455.02-236.48C1006.52,436.78,802.93,330.87,551.5,330.87"/>
	<path id="XMLID_329_" class="st151" d="M551.5,331.12c-251.18,0-455.02,105.91-455.02,236.23c0,130.58,203.59,236.23,455.02,236.23
		s455.02-105.91,455.02-236.23C1006.52,436.78,802.93,331.12,551.5,331.12"/>
	<path id="XMLID_328_" class="st152" d="M551.5,331.12c-251.18,0-454.77,105.66-454.77,236.23c0,130.58,203.59,236.23,454.77,236.23
		s455.02-105.91,455.02-236.23C1006.52,436.78,802.93,331.12,551.5,331.12"/>
	<path id="XMLID_327_" class="st153" d="M551.5,331.12c-251.18,0-454.77,105.66-454.77,236.23c0,130.33,203.59,236.23,454.77,236.23
		s454.77-105.66,454.77-236.23C1006.52,436.78,802.68,331.12,551.5,331.12"/>
	<path id="XMLID_326_" class="st154" d="M551.5,331.12c-251.18,0-454.77,105.66-454.77,236.23c0,130.33,203.59,236.23,454.77,236.23
		s454.77-105.66,454.77-236.23C1006.52,436.78,802.68,331.12,551.5,331.12"/>
	<path id="XMLID_325_" class="st155" d="M551.5,331.12c-251.18,0-454.77,105.66-454.77,236.23c0,130.33,203.59,236.23,454.77,236.23
		s454.77-105.66,454.77-236.23C1006.27,437.03,802.68,331.12,551.5,331.12"/>
	<path id="XMLID_324_" class="st156" d="M551.5,331.37c-251.18,0-454.77,105.66-454.77,235.98S300.32,803.34,551.5,803.34
		s454.77-105.66,454.77-235.98S802.68,331.37,551.5,331.37"/>
	<path id="XMLID_323_" class="st157" d="M551.5,331.37c-251.18,0-454.52,105.66-454.52,235.98S300.56,803.34,551.5,803.34
		c251.18,0,454.77-105.66,454.77-235.98S802.68,331.37,551.5,331.37"/>
	<path id="XMLID_322_" class="st158" d="M551.5,331.37c-250.93,0-454.52,105.66-454.52,235.98S300.56,803.34,551.5,803.34
		s454.52-105.66,454.52-235.98C1006.27,437.03,802.68,331.37,551.5,331.37"/>
	<path id="XMLID_321_" class="st159" d="M551.75,331.37c-250.93,0-454.52,105.66-454.52,235.98s203.59,235.98,454.52,235.98
		s454.52-105.66,454.52-235.98S802.68,331.37,551.75,331.37"/>
	<path id="XMLID_320_" class="st160" d="M551.75,331.37c-250.93,0-454.52,105.66-454.52,235.98s203.59,235.98,454.52,235.98
		s454.52-105.66,454.52-235.98S802.68,331.37,551.75,331.37"/>
	<path id="XMLID_319_" class="st161" d="M551.75,331.62c-250.93,0-454.52,105.66-454.52,235.73
		c0,130.33,203.59,235.73,454.52,235.73s454.52-105.66,454.52-235.73C1006.02,437.03,802.68,331.62,551.75,331.62"/>
	<path id="XMLID_318_" class="st162" d="M551.75,331.62c-250.93,0-454.27,105.66-454.27,235.73s203.34,235.73,454.27,235.73
		s454.52-105.66,454.52-235.73C1006.02,437.03,802.68,331.62,551.75,331.62"/>
	<path id="XMLID_317_" class="st163" d="M551.75,331.62c-250.93,0-454.27,105.66-454.27,235.73s203.34,235.73,454.27,235.73
		s454.27-105.66,454.27-235.73C1006.02,437.03,802.68,331.62,551.75,331.62"/>
	<path id="XMLID_316_" class="st164" d="M551.75,331.62c-250.93,0-454.27,105.66-454.27,235.73s203.34,235.73,454.27,235.73
		s454.27-105.66,454.27-235.73S802.43,331.62,551.75,331.62"/>
	<path id="XMLID_315_" class="st165" d="M551.75,331.62c-250.93,0-454.27,105.66-454.27,235.73s203.34,235.73,454.27,235.73
		s454.27-105.41,454.27-235.73C1006.02,437.28,802.43,331.62,551.75,331.62"/>
	<path id="XMLID_314_" class="st166" d="M551.75,331.87c-250.93,0-454.27,105.41-454.27,235.48s203.34,235.73,454.27,235.73
		s454.27-105.41,454.27-235.73C1005.77,437.28,802.43,331.87,551.75,331.87"/>
	<path id="XMLID_313_" class="st167" d="M551.75,331.87c-250.93,0-454.27,105.41-454.27,235.48S300.81,802.84,551.5,802.84
		c250.93,0,454.27-105.41,454.27-235.48S802.43,331.87,551.75,331.87"/>
	<path id="XMLID_312_" class="st168" d="M551.75,331.87c-250.93,0-454.27,105.41-454.27,235.48S300.81,802.84,551.5,802.84
		s454.02-105.41,454.02-235.48C1005.77,437.28,802.43,331.87,551.75,331.87"/>
	<path id="XMLID_311_" class="st169" d="M551.75,331.87c-250.68,0-454.02,105.41-454.02,235.48s203.34,235.48,454.02,235.48
		s454.02-105.41,454.02-235.48S802.43,331.87,551.75,331.87"/>
	<path id="XMLID_310_" class="st169" d="M551.75,331.87c-250.68,0-454.02,105.41-454.02,235.48s203.34,235.48,454.02,235.48
		s454.02-105.41,454.02-235.48S802.43,331.87,551.75,331.87"/>
	<path id="XMLID_309_" class="st170" d="M551.75,332.12c-250.68,0-454.02,105.41-454.02,235.48
		c0,130.08,203.34,235.48,454.02,235.48s454.02-105.41,454.02-235.48C1005.77,437.28,802.43,332.12,551.75,332.12"/>
	<path id="XMLID_308_" class="st171" d="M551.75,332.12c-250.68,0-453.77,105.41-453.77,235.23
		c0,129.83,203.34,235.23,453.77,235.23c250.68,0,454.02-105.41,454.02-235.23C1005.52,437.28,802.43,332.12,551.75,332.12"/>
	<path id="XMLID_307_" class="st172" d="M551.75,332.12c-250.68,0-453.77,105.41-453.77,235.23
		c0,129.83,203.09,235.23,453.77,235.23s453.77-105.41,453.77-235.23C1005.52,437.53,802.43,332.12,551.75,332.12"/>
	<path id="XMLID_306_" class="st173" d="M551.75,332.12c-250.68,0-453.77,105.41-453.77,235.23
		c0,129.83,203.09,235.23,453.77,235.23s453.77-105.41,453.77-235.23C1005.52,437.53,802.18,332.12,551.75,332.12"/>
	<path id="XMLID_305_" class="st174" d="M551.75,332.12c-250.68,0-453.77,105.41-453.77,235.23
		c0,129.83,203.09,235.23,453.77,235.23s453.77-105.41,453.77-235.23C1005.52,437.53,802.18,332.12,551.75,332.12"/>
	<path id="XMLID_304_" class="st175" d="M551.75,332.37c-250.43,0-453.77,105.16-453.77,235.23
		c0,129.83,203.09,235.23,453.77,235.23c250.44,0,453.77-105.41,453.77-235.23C1005.52,437.53,802.18,332.37,551.75,332.37"/>
	<path id="XMLID_303_" class="st176" d="M551.75,332.37c-250.43,0-453.52,105.16-453.52,234.99
		c0,129.83,203.09,234.99,453.52,234.99s453.77-105.16,453.77-234.99C1005.27,437.53,802.18,332.37,551.75,332.37"/>
	<path id="XMLID_302_" class="st177" d="M551.75,332.37c-250.43,0-453.52,105.16-453.52,234.99
		c0,129.83,203.09,234.99,453.52,234.99s453.52-105.16,453.52-234.99C1005.27,437.53,802.18,332.37,551.75,332.37"/>
	<path id="XMLID_301_" class="st178" d="M551.75,332.37c-250.43,0-453.52,105.16-453.52,234.99
		c0,129.83,203.09,234.99,453.52,234.99s453.52-105.16,453.52-234.99C1005.27,437.53,802.18,332.37,551.75,332.37"/>
	<path id="XMLID_300_" class="st179" d="M551.75,332.37c-250.43,0-453.52,105.16-453.52,234.99
		c0,129.83,203.09,234.99,453.52,234.99s453.52-105.16,453.52-234.99C1005.27,437.53,802.18,332.37,551.75,332.37"/>
	<path id="XMLID_299_" class="st179" d="M551.75,332.62c-250.43,0-453.52,105.16-453.52,234.99
		c0,129.83,203.09,234.99,453.52,234.99s453.52-105.16,453.52-234.99C1005.27,437.78,802.18,332.62,551.75,332.62"/>
	<path id="XMLID_298_" class="st180" d="M551.75,332.62c-250.43,0-453.28,105.16-453.28,234.74
		c0,129.58,203.09,234.74,453.28,234.74c250.44,0,453.52-105.16,453.52-234.74C1005.27,437.78,802.18,332.62,551.75,332.62"/>
	<path id="XMLID_297_" class="st181" d="M551.75,332.62c-250.43,0-453.28,105.16-453.28,234.74
		c0,129.58,203.09,234.74,453.28,234.74c250.44,0,453.28-105.16,453.28-234.74C1005.02,437.78,802.18,332.62,551.75,332.62"/>
	<path id="XMLID_296_" class="st182" d="M551.75,332.62c-250.43,0-453.28,105.16-453.28,234.74
		c0,129.58,202.84,234.74,453.28,234.74s453.28-105.16,453.28-234.74C1005.02,437.78,802.18,332.62,551.75,332.62"/>
	<path id="XMLID_295_" class="st183" d="M551.75,332.62c-250.19,0-453.28,105.16-453.28,234.74
		c0,129.58,202.84,234.74,453.28,234.74c250.19,0,453.28-105.16,453.28-234.74C1005.02,437.78,802.18,332.62,551.75,332.62"/>
	<path id="XMLID_294_" class="st184" d="M551.75,332.62c-250.19,0-453.28,105.16-453.28,234.74
		c0,129.58,202.84,234.74,453.28,234.74c250.19,0,453.28-105.16,453.28-234.74C1005.02,437.78,801.93,332.62,551.75,332.62"/>
	<path id="XMLID_293_" class="st185" d="M551.75,332.87c-250.19,0-453.03,104.91-453.03,234.49
		c0,129.58,202.84,234.74,453.03,234.74s453.28-105.16,453.28-234.74C1005.02,437.78,801.93,332.87,551.75,332.87"/>
	<path id="XMLID_292_" class="st186" d="M551.75,332.87c-250.19,0-453.03,104.91-453.03,234.49
		c0,129.58,202.84,234.49,453.03,234.49s453.03-105.16,453.03-234.49C1004.77,437.78,801.93,332.87,551.75,332.87"/>
	<path id="XMLID_291_" class="st187" d="M551.75,332.87c-250.19,0-453.03,104.91-453.03,234.49
		c0,129.58,202.84,234.49,453.03,234.49s453.03-104.91,453.03-234.49C1004.77,437.78,801.93,332.87,551.75,332.87"/>
	<path id="XMLID_290_" class="st188" d="M551.75,332.87c-250.19,0-453.03,104.91-453.03,234.49
		c0,129.58,202.84,234.49,453.03,234.49s453.03-104.91,453.03-234.49C1004.77,438.02,801.93,332.87,551.75,332.87"/>
	<path id="XMLID_289_" class="st189" d="M551.75,333.12c-250.19,0-453.03,104.91-453.03,234.49
		c0,129.58,202.84,234.49,453.03,234.49s453.03-104.91,453.03-234.49C1004.77,438.02,801.93,333.12,551.75,333.12"/>
	<path id="XMLID_288_" class="st189" d="M551.75,333.12c-250.19,0-452.78,104.91-452.78,234.49
		c0,129.33,202.84,234.49,452.78,234.49c250.19,0,453.03-104.91,453.03-234.49C1004.77,438.02,801.93,333.12,551.75,333.12"/>
	<path id="XMLID_287_" class="st190" d="M551.75,333.12c-250.19,0-452.78,104.91-452.78,234.24s202.84,234.24,452.78,234.24
		c250.19,0,452.78-104.91,452.78-234.24C1004.77,438.02,801.93,333.12,551.75,333.12"/>
	<path id="XMLID_286_" class="st191" d="M551.75,333.12c-249.94,0-452.78,104.91-452.78,234.24s202.84,234.24,452.78,234.24
		c250.19,0,452.78-104.91,452.78-234.24S801.93,333.12,551.75,333.12"/>
	<path id="XMLID_285_" class="st192" d="M551.75,333.12c-249.94,0-452.78,104.91-452.78,234.24s202.59,234.24,452.78,234.24
		c249.94,0,452.78-104.91,452.78-234.24S801.93,333.12,551.75,333.12"/>
	<path id="XMLID_284_" class="st193" d="M551.75,333.12c-249.94,0-452.78,104.91-452.78,234.24s202.59,234.24,452.78,234.24
		c249.94,0,452.78-104.91,452.78-234.24S801.93,333.12,551.75,333.12"/>
	<path id="XMLID_283_" class="st194" d="M551.75,333.37c-249.94,0-452.53,104.91-452.53,234.24
		c0,129.33,202.59,234.24,452.53,234.24s452.78-104.91,452.78-234.24C1004.52,438.02,801.68,333.37,551.75,333.37"/>
	<path id="XMLID_282_" class="st195" d="M551.75,333.37c-249.94,0-452.53,104.91-452.53,233.99
		c0,129.33,202.59,233.99,452.53,233.99s452.53-104.91,452.53-233.99C1004.52,438.02,801.68,333.37,551.75,333.37"/>
	<path id="XMLID_281_" class="st196" d="M551.75,333.37c-249.94,0-452.53,104.66-452.53,233.99s202.59,233.99,452.53,233.99
		s452.53-104.91,452.53-233.99S801.68,333.37,551.75,333.37"/>
	<path id="XMLID_280_" class="st197" d="M551.75,333.37c-249.94,0-452.53,104.66-452.53,233.99s202.59,233.99,452.53,233.99
		s452.53-104.66,452.53-233.99C1004.28,438.27,801.68,333.37,551.75,333.37"/>
	<path id="XMLID_279_" class="st198" d="M551.75,333.37c-249.94,0-452.53,104.66-452.53,233.99
		c0,129.08,202.59,233.99,452.53,233.99s452.53-104.66,452.53-233.99C1004.28,438.27,801.68,333.37,551.75,333.37"/>
	<path id="XMLID_278_" class="st199" d="M551.75,333.61c-249.94,0-452.28,104.66-452.28,233.99
		c0,129.08,202.59,233.99,452.28,233.99c249.94,0,452.53-104.66,452.53-233.99C1004.28,438.27,801.68,333.61,551.75,333.61"/>
	<path id="XMLID_277_" class="st199" d="M551.75,333.61c-249.69,0-452.28,104.66-452.28,233.74s202.59,233.74,452.28,233.74
		s452.28-104.66,452.28-233.74C1004.28,438.27,801.68,333.61,551.75,333.61"/>
	<path id="XMLID_276_" class="st200" d="M551.75,333.61c-249.69,0-452.28,104.66-452.28,233.74s202.59,233.74,452.28,233.74
		s452.28-104.66,452.28-233.74C1004.28,438.27,801.68,333.61,551.75,333.61"/>
	<path id="XMLID_275_" class="st201" d="M551.75,333.61c-249.69,0-452.28,104.66-452.28,233.74s202.59,233.74,452.28,233.74
		s452.28-104.66,452.28-233.74S801.68,333.61,551.75,333.61"/>
	<path id="XMLID_274_" class="st201" d="M551.75,333.61c-249.69,0-452.28,104.66-452.28,233.74s202.34,233.74,452.28,233.74
		c249.69,0,452.28-104.66,452.28-233.74S801.68,333.61,551.75,333.61"/>
	<path id="XMLID_272_" class="st202" d="M551.75,333.86c-249.69,0-452.03,104.66-452.03,233.74
		c0,129.08,202.34,233.74,452.03,233.74s452.28-104.66,452.28-233.74C1004.03,438.27,801.68,333.86,551.75,333.86"/>
	<path id="XMLID_271_" class="st203" d="M551.75,333.86c-249.69,0-452.03,104.66-452.03,233.74
		c0,129.08,202.34,233.74,452.03,233.74s452.03-104.66,452.03-233.74C1004.03,438.52,801.44,333.86,551.75,333.86"/>
	<path id="XMLID_270_" class="st204" d="M551.75,333.86c-249.69,0-452.03,104.66-452.03,233.49
		c0,129.08,202.34,233.49,452.03,233.49s452.03-104.66,452.03-233.49C1004.03,438.52,801.44,333.86,551.75,333.86"/>
	<g id="XMLID_267_">
		<g id="XMLID_268_">
			<g>
				<defs>
					<path id="SVGID_26_" d="M108.19,567.1c0,123.1,198.35,223.02,442.81,223.02c244.7,0,443.06-99.92,443.06-223.02
						S795.7,344.08,551,344.08S108.19,444.01,108.19,567.1"/>
				</defs>
				<clipPath id="SVGID_1_">
					<use xlink:href="#SVGID_26_"  style="overflow:visible;"/>
				</clipPath>
				
					<linearGradient id="XMLID_2_" gradientUnits="userSpaceOnUse" x1="-5008.5356" y1="-792.2034" x2="-5000.9087" y2="-792.2034" gradientTransform="matrix(30.5259 65.463 65.463 -30.5259 205184.6563 304008.5)">
					<stop  offset="0" style="stop-color:#008948"/>
					<stop  offset="0.3764" style="stop-color:#008948"/>
					<stop  offset="0.5955" style="stop-color:#004E25"/>
					<stop  offset="1" style="stop-color:#000000"/>
				</linearGradient>
				<polygon id="XMLID_269_" style="clip-path:url(#SVGID_1_);fill:url(#XMLID_2_);" points="835.57,4.93 1164.75,710.39 
					266.18,1129.28 -62.75,423.82 				"/>
			</g>
		</g>
	</g>
	<path id="XMLID_266_" class="st206" d="M551,770.44c-230.5,0-417.89-90.21-417.89-201.1S320.5,368.25,551,368.25
		s417.89,90.21,417.89,201.1C968.89,679.99,781.5,770.44,551,770.44z M551,373.73c-227.26,0-412.16,87.71-412.16,195.36
		c0,107.9,184.9,195.36,412.16,195.36s412.16-87.71,412.16-195.36S778.26,373.73,551,373.73z"/>
	<path id="XMLID_265_" class="st207" d="M551,781.16c-237.98,0-431.6-95.94-431.6-213.55c0-117.87,193.62-213.56,431.6-213.56
		s431.6,95.94,431.6,213.56C982.6,685.22,788.98,781.16,551,781.16z M551,364.51c-232,0-420.88,90.95-420.88,202.84
		S319,770.19,551,770.19s420.88-90.95,420.88-202.84S783,364.51,551,364.51z"/>
	<g id="XMLID_261_">
		<g id="XMLID_263_">
			<g>
				<defs>
					<polygon id="SVGID_28_" points="743.62,479.89 735.15,505.06 780.25,505.06 728.67,523.75 725.43,533.96 804.43,506.8 
						813.15,479.89 					"/>
				</defs>
				<clipPath id="SVGID_2_">
					<use xlink:href="#SVGID_28_"  style="overflow:visible;"/>
				</clipPath>
				
					<linearGradient id="XMLID_3_" gradientUnits="userSpaceOnUse" x1="-4991.6768" y1="-771.385" x2="-4984.0493" y2="-771.385" gradientTransform="matrix(23.6597 50.7384 50.7384 -23.6597 157947.4531 235392.5)">
					<stop  offset="0" style="stop-color:#004E25"/>
					<stop  offset="1" style="stop-color:#000000"/>
				</linearGradient>
				<polygon id="XMLID_264_" style="clip-path:url(#SVGID_2_);fill:url(#XMLID_3_);" points="797.45,446.25 834.08,524.49 
					741.13,567.85 704.5,489.61 				"/>
			</g>
		</g>
	</g>
	<g id="XMLID_253_">
		<g id="XMLID_254_">
			<g>
				<defs>
					<path id="SVGID_30_" d="M376.32,522.5L376.32,522.5L376.32,522.5z M335.95,436.28c4.98,2.49,0.5,11.96,0.5,11.96
						s-31.4,91.45-33.64,95.94c-2.24,4.49-3.74,5.23-3.74,5.23h67.78l9.47-26.91c-1,2.49-7.23,1.74-7.23,1.74h-28.41
						c0,0,26.16-73.26,28.41-78.74c2.99-7.97,5.23-8.97,5.73-9.22H335.95z M374.82,436.28L374.82,436.28
						C375.07,436.28,375.07,436.28,374.82,436.28C375.07,436.28,374.82,436.28,374.82,436.28"/>
				</defs>
				<clipPath id="SVGID_3_">
					<use xlink:href="#SVGID_30_"  style="overflow:visible;"/>
				</clipPath>
				
					<linearGradient id="XMLID_4_" gradientUnits="userSpaceOnUse" x1="-5021.5386" y1="-813.2896" x2="-5013.9111" y2="-813.2896" gradientTransform="matrix(45.6193 97.8309 97.8309 -45.6193 309103.9375 454915.0625)">
					<stop  offset="0" style="stop-color:#004E25"/>
					<stop  offset="1" style="stop-color:#000000"/>
				</linearGradient>
				<polygon id="XMLID_260_" style="clip-path:url(#SVGID_3_);fill:url(#XMLID_4_);" points="362.61,406.63 419.68,529.23 
					312.78,579.07 255.71,456.46 				"/>
			</g>
		</g>
	</g>
	<g id="XMLID_250_">
		<g id="XMLID_251_">
			<g>
				<defs>
					<path id="SVGID_32_" d="M585.14,443.01c-1,2.99-18.69,51.83-18.69,51.83l-6.73-58.31h-33.14c0,0,1.74,2.99,0.5,5.98
						c-1,2.49-35.14,100.67-35.14,100.67s-2.24,6.23-3.99,6.23h31.9c0,0-2.24-3.49-0.75-6.98c1.74-5.23,18.94-53.33,18.94-53.33
						l7.48,60.55h28.91l37.88-107.65c0,0,1.5-4.98,3.74-4.98h-30.65C585.39,436.53,586.14,440.27,585.14,443.01"/>
				</defs>
				<clipPath id="SVGID_4_">
					<use xlink:href="#SVGID_32_"  style="overflow:visible;"/>
				</clipPath>
				
					<linearGradient id="XMLID_5_" gradientUnits="userSpaceOnUse" x1="-5018.7686" y1="-806.8762" x2="-5011.1416" y2="-806.8762" gradientTransform="matrix(40.7155 87.3146 87.3146 -40.7155 275355.2813 405872.5625)">
					<stop  offset="0" style="stop-color:#004E25"/>
					<stop  offset="1" style="stop-color:#000000"/>
				</linearGradient>
				<polygon id="XMLID_252_" style="clip-path:url(#SVGID_4_);fill:url(#XMLID_5_);" points="593.11,387.44 659.4,529.23 
					510.88,598.25 444.85,456.71 				"/>
			</g>
		</g>
	</g>
	<g id="XMLID_244_">
		<g id="XMLID_248_">
			<g>
				<defs>
					<path id="SVGID_34_" d="M660.14,460.95h8.22c0,0,21.18-1.25,5.98,37.38c-9.22,23.67-22.93,25.17-30.4,25.17
						c-4.98,0-4.98,0-4.98,0L660.14,460.95z M670.61,436.53h-36.38c0,0,2.74,4.49-0.75,15.2c-3.49,10.47-31.4,89.21-31.4,89.21
						s-2.24,7.48-5.23,8.72h43.61c0,0,53.08,1.99,69.52-56.07c0,0,20.43-56.82-38.38-56.82
						C671.11,436.53,670.86,436.53,670.61,436.53"/>
				</defs>
				<clipPath id="SVGID_5_">
					<use xlink:href="#SVGID_34_"  style="overflow:visible;"/>
				</clipPath>
				
					<linearGradient id="XMLID_6_" gradientUnits="userSpaceOnUse" x1="-5015.1899" y1="-800.8383" x2="-5007.563" y2="-800.8383" gradientTransform="matrix(36.6467 78.589 78.589 -36.6467 247348.3594 365193.5313)">
					<stop  offset="0" style="stop-color:#004E25"/>
					<stop  offset="1" style="stop-color:#000000"/>
				</linearGradient>
				<polygon id="XMLID_249_" style="clip-path:url(#SVGID_5_);fill:url(#XMLID_6_);" points="706.74,385.45 774.52,531.22 
					620.77,602.74 552.74,457.21 				"/>
			</g>
		</g>
	</g>
	<g id="XMLID_238_">
		<g id="XMLID_242_">
			<g>
				<defs>
					<polygon id="SVGID_36_" points="259.2,613.45 250.48,640.62 320.25,640.62 328.72,615.2 283.62,615.2 334.95,596.51 
						338.44,586.29 					"/>
				</defs>
				<clipPath id="SVGID_6_">
					<use xlink:href="#SVGID_36_"  style="overflow:visible;"/>
				</clipPath>
				
					<linearGradient id="XMLID_7_" gradientUnits="userSpaceOnUse" x1="-4988.6426" y1="-778.7651" x2="-4981.0156" y2="-778.7651" gradientTransform="matrix(23.6606 50.7403 50.7403 -23.6606 157908 235450.9219)">
					<stop  offset="0" style="stop-color:#004E25"/>
					<stop  offset="1" style="stop-color:#000000"/>
				</linearGradient>
				<polygon id="XMLID_243_" style="clip-path:url(#SVGID_6_);fill:url(#XMLID_7_);" points="322.74,552.65 359.12,630.9 
					266.18,674.26 229.8,596.01 				"/>
			</g>
		</g>
	</g>
	<g id="XMLID_51_">
		<g id="XMLID_52_">
			<g>
				<defs>
					<path id="SVGID_38_" d="M399.74,600.25c0,0,3.99,0,7.48,0c16.2,0,10.47,12.96,10.47,12.96c-4.98,11.21-18.44,9.97-18.44,9.97
						h-6.98L399.74,600.25z M417.68,574.08h-45.1c3.24,3.74,0.75,11.96,0.75,11.96s-28.16,83.73-30.15,90.21
						c-2.24,6.48-6.23,10.96-6.23,10.96h35.63c-1,0-1-3.74-1-3.74l12.71-35.38c0,0,15.95,32.64,16.94,34.89s0.5,4.24,0.5,4.24h38.13
						c-3.74,0-7.48-7.23-7.48-7.23l-18.94-35.63c26.91,0,35.38-27.41,35.38-27.41c12.46-41.61-26.91-42.61-30.65-42.61
						C417.93,574.08,417.68,574.08,417.68,574.08"/>
				</defs>
				<clipPath id="SVGID_7_">
					<use xlink:href="#SVGID_38_"  style="overflow:visible;"/>
				</clipPath>
				
					<linearGradient id="XMLID_8_" gradientUnits="userSpaceOnUse" x1="-5013.1274" y1="-803.9033" x2="-5005.5005" y2="-803.9033" gradientTransform="matrix(36.7057 78.7157 78.7157 -36.7057 247731.6563 365825.6563)">
					<stop  offset="0" style="stop-color:#004E25"/>
					<stop  offset="1" style="stop-color:#000000"/>
				</linearGradient>
				<polygon id="XMLID_54_" style="clip-path:url(#SVGID_7_);fill:url(#XMLID_8_);" points="439.11,526.49 504.65,667.03 
					359.12,735.06 293.59,594.52 				"/>
			</g>
		</g>
	</g>
	<g id="XMLID_48_">
		<g id="XMLID_49_">
			<g>
				<defs>
					<path id="SVGID_40_" d="M767.79,687.71L767.79,687.71C767.55,687.71,767.55,687.71,767.79,687.71 M794.21,600.99h9.97
						c0,0,11.96-0.25,7.23,12.71c-3.99,10.96-17.44,9.97-17.44,9.97h-6.98L794.21,600.99z M812.4,574.58h-44.85
						c3.24,3.74,0.75,11.71,0.75,11.71s-29.16,84.23-31.4,90.7c-2.24,6.48-6.48,10.72-6.48,10.72h37.13c-2.49,0-0.75-6.98-0.75-6.98
						l11.46-32.39c0,0,15.45,32.64,16.45,34.89c1,2.24,0.5,4.24,0.5,4.24h39.62c-3.74,0-7.73-7.23-7.73-7.23l-18.94-35.63
						c26.66,0,34.64-26.66,34.64-26.66c12.71-41.86-23.17-43.61-29.65-43.61C812.65,574.58,812.4,574.58,812.4,574.58"/>
				</defs>
				<clipPath id="SVGID_8_">
					<use xlink:href="#SVGID_40_"  style="overflow:visible;"/>
				</clipPath>
				
					<linearGradient id="XMLID_9_" gradientUnits="userSpaceOnUse" x1="-5015.6011" y1="-800.3645" x2="-5007.9741" y2="-800.3645" gradientTransform="matrix(36.7273 78.762 78.762 -36.7273 247909.2344 365992.5)">
					<stop  offset="0" style="stop-color:#004E25"/>
					<stop  offset="1" style="stop-color:#000000"/>
				</linearGradient>
				<polygon id="XMLID_50_" style="clip-path:url(#SVGID_8_);fill:url(#XMLID_9_);" points="833.33,526.74 898.87,667.53 
					752.84,735.81 687.06,594.76 				"/>
			</g>
		</g>
	</g>
	<g id="XMLID_44_">
		<g id="XMLID_45_">
			<g>
				<defs>
					<path id="SVGID_42_" d="M498.42,663.29c-13.46-2.49-10.96-24.17-8.97-34.14c4.73-21.93,16.45-32.39,25.17-31.4
						c2.99,0.25,18.69,0.75,9.97,36.38c-4.98,21.18-14.45,29.4-23.42,29.4C500.41,663.79,499.42,663.54,498.42,663.29
						 M456.06,633.39c-5.48,31.65,11.71,56.82,39.87,56.82c39.37,0,62.8-40.37,62.8-69.52c0-30.4-11.96-49.34-39.37-49.34
						C484.72,571.34,462.04,599,456.06,633.39"/>
				</defs>
				<clipPath id="SVGID_9_">
					<use xlink:href="#SVGID_42_"  style="overflow:visible;"/>
				</clipPath>
				
					<linearGradient id="XMLID_11_" gradientUnits="userSpaceOnUse" x1="-5011.4204" y1="-800.3664" x2="-5003.793" y2="-800.3664" gradientTransform="matrix(34.8598 74.7572 74.7572 -34.8598 235032.2031 347363.8438)">
					<stop  offset="0" style="stop-color:#004E25"/>
					<stop  offset="1" style="stop-color:#000000"/>
				</linearGradient>
				<polygon id="XMLID_46_" style="clip-path:url(#SVGID_9_);fill:url(#XMLID_11_);" points="539.54,529.98 604.33,669.02 
					470.01,731.57 405.22,592.52 				"/>
			</g>
		</g>
	</g>
	<g id="XMLID_39_">
		<g id="XMLID_40_">
			<g>
				<defs>
					<path id="SVGID_44_" d="M568.19,574.58c0,0,2.74,1.5,2.74,8.72v97.93c0,0-0.5,5.48-2.24,6.48h29.4c0,0,0-2.24,2.99-6.23
						c2.99-3.74,63.79-89.21,63.79-89.21s13.95-17.94,17.44-17.94h-41.86c0,0,3.24,2.24,0.75,6.48
						c-2.49,4.24-39.87,62.55-39.87,62.55l0.5-58.81c0,0,0-9.47,3.49-10.22L568.19,574.58z"/>
				</defs>
				<clipPath id="SVGID_10_">
					<use xlink:href="#SVGID_44_"  style="overflow:visible;"/>
				</clipPath>
				
					<linearGradient id="XMLID_12_" gradientUnits="userSpaceOnUse" x1="-5012.9556" y1="-800.2865" x2="-5005.3286" y2="-800.2865" gradientTransform="matrix(35.5823 76.3065 76.3065 -35.5823 240015.9219 354571.4688)">
					<stop  offset="0" style="stop-color:#004E25"/>
					<stop  offset="1" style="stop-color:#000000"/>
				</linearGradient>
				<polygon id="XMLID_42_" style="clip-path:url(#SVGID_10_);fill:url(#XMLID_12_);" points="661.89,530.97 725.43,667.53 
					588.63,731.32 524.84,594.76 				"/>
			</g>
		</g>
	</g>
	<g id="XMLID_34_">
		<g id="XMLID_35_">
			<g>
				<defs>
					<path id="SVGID_46_" d="M733.9,616.2L733.9,616.2L733.9,616.2z M683.82,574.58c0,0,2.49,2.24-0.75,11.96
						c-3.24,9.47-32.15,90.7-32.15,90.7s-5.23,10.72-6.48,10.72h73.26l8.72-26.91c0,0-1,1.5-7.97,1.5h-30.9l6.48-18.19h23.92
						c0,0,4.98-0.5,6.23,1l9.72-28.91c-0.25,0.25-1.25,2.49-7.23,2.49h-23.42l6.98-20.18h29.4c0,0,3.99-0.5,5.48,2.74l9.47-26.66
						L683.82,574.58L683.82,574.58z"/>
				</defs>
				<clipPath id="SVGID_11_">
					<use xlink:href="#SVGID_46_"  style="overflow:visible;"/>
				</clipPath>
				
					<linearGradient id="XMLID_13_" gradientUnits="userSpaceOnUse" x1="-5022.9609" y1="-810.257" x2="-5015.334" y2="-810.257" gradientTransform="matrix(44.6754 95.8067 95.8067 -44.6754 302622.6875 445434.75)">
					<stop  offset="0" style="stop-color:#004E25"/>
					<stop  offset="1" style="stop-color:#000000"/>
				</linearGradient>
				<polygon id="XMLID_37_" style="clip-path:url(#SVGID_11_);fill:url(#XMLID_13_);" points="735.15,532.22 798.2,667.53 
					664.13,730.07 601.09,594.76 				"/>
			</g>
		</g>
	</g>
	<g id="XMLID_30_">
		<g id="XMLID_31_">
			<g>
				<defs>
					<path id="SVGID_48_" d="M451.08,474.9l0.25,33.14h-19.69L451.08,474.9z M444.85,436.53c0,0,2.49,3.24-2.24,10.22
						c-4.73,7.23-63.79,98.93-63.79,98.93s-1.25,2.24-4.24,3.74h35.14c0,0,0-2.74,0.75-4.73c1.74-3.24,5.98-11.21,5.98-11.21h35.38
						v9.97c0,0,0.25,3.49-2.49,5.98h34.89c0,0-2.49-1.49-2.99-5.98l-4.49-99.43c0,0-0.25-6.48,2.74-7.72h-34.64V436.53z"/>
				</defs>
				<clipPath id="SVGID_12_">
					<use xlink:href="#SVGID_48_"  style="overflow:visible;"/>
				</clipPath>
				
					<linearGradient id="XMLID_14_" gradientUnits="userSpaceOnUse" x1="-5015.6392" y1="-805.0073" x2="-5008.0117" y2="-805.0073" gradientTransform="matrix(38.2316 81.988 81.988 -38.2316 258244 381061.875)">
					<stop  offset="0" style="stop-color:#004E25"/>
					<stop  offset="1" style="stop-color:#000000"/>
				</linearGradient>
				<polygon id="XMLID_32_" style="clip-path:url(#SVGID_12_);fill:url(#XMLID_14_);" points="464.78,394.42 527.83,529.23 
					394.26,591.53 331.46,456.71 				"/>
			</g>
		</g>
	</g>
	<polygon id="XMLID_28_" class="st207" points="806.67,472.66 737.14,472.66 728.67,498.08 773.78,498.08 722.19,516.77 
		718.7,526.99 797.95,499.82 	"/>
	<path id="XMLID_27_" class="st207" d="M369.84,515.27l-9.47,27.16h-67.78c0,0,1.5-0.5,3.74-5.23c2.24-4.49,33.64-95.94,33.64-95.94
		s4.24-9.47-0.5-11.96h39.12c0,0-2.24-0.75-5.98,9.22c-2.24,5.48-28.41,78.74-28.41,78.74h28.41
		C362.61,517.27,369.09,517.77,369.84,515.27"/>
	<path id="XMLID_26_" class="st207" d="M481.73,542.19h31.9c0,0-2.24-3.49-0.75-6.98c1.74-5.23,18.94-53.33,18.94-53.33l7.48,60.55
		h28.91l37.88-107.65c0,0,1.5-4.98,3.74-4.98h-30.65c0,0,1,3.74-0.25,6.48c-1,2.99-18.69,51.83-18.69,51.83l-6.73-58.31h-33.14
		c0,0,1.74,2.99,0.5,5.98c-1,2.49-35.14,100.67-35.14,100.67S483.47,542.19,481.73,542.19"/>
	<path class="st207" d="M664.13,429.55h-36.38c0,0,2.74,4.49-0.75,15.2c-3.49,10.47-31.4,89.21-31.4,89.21s-2.24,7.48-5.23,8.72
		h43.61c0,0,53.08,1.99,69.52-56.07C703.5,486.37,724.19,428.8,664.13,429.55 M667.87,491.1c-9.22,23.67-22.93,25.17-30.4,25.17
		c-4.98,0-4.98,0-4.98,0l21.43-62.8h8.22C661.89,453.72,683.07,452.48,667.87,491.1"/>
	<polygon id="XMLID_23_" class="st207" points="244,633.39 313.77,633.39 322,607.97 277.14,607.97 328.47,589.53 331.96,579.07 
		252.72,606.23 	"/>
	<path class="st207" d="M442.35,609.72c13.21-43.86-31.15-42.61-31.15-42.61h-45.1c3.24,3.74,0.75,11.96,0.75,11.96
		s-28.16,83.73-30.15,90.21c-2.24,6.48-6.23,10.96-6.23,10.96h35.63c-1,0-1-3.74-1-3.74l12.71-35.38c0,0,15.95,32.64,17.19,35.14
		c1,2.24,0.5,4.24,0.5,4.24h38.13c-3.74,0-7.48-7.23-7.48-7.23l-18.94-35.63C433.63,637.38,442.35,609.72,442.35,609.72
		 M411.2,605.98c-4.98,11.21-18.44,9.97-18.44,9.97h-6.98l7.48-22.68c0,0,3.99,0,7.48,0C416.94,593.02,411.2,605.98,411.2,605.98"/>
	<path class="st207" d="M836.32,611.21c13.95-45.85-30.4-43.61-30.4-43.61h-44.85c3.24,3.74,0.75,11.71,0.75,11.71
		s-29.16,84.23-31.4,90.7c-2.24,6.48-6.48,10.72-6.48,10.72h37.13c-2.74,0-0.75-6.98-0.75-6.98l11.46-32.39
		c0,0,15.45,32.64,16.45,34.89c1,2.24,0.5,4.24,0.5,4.24h39.62c-3.74,0-7.72-7.23-7.72-7.23l-18.94-35.63
		C828.35,637.63,836.32,611.21,836.32,611.21 M804.67,606.48c-3.99,10.96-17.44,9.97-17.44,9.97h-6.98l7.23-22.43h9.97
		C797.45,593.77,809.66,593.52,804.67,606.48"/>
	<path class="st207" d="M513.12,564.11c-34.89,0-57.56,27.66-63.54,62.05c-5.48,31.65,11.71,56.82,39.87,56.82
		c39.37,0,62.8-40.37,62.8-69.52C552.25,583.05,540.28,564.11,513.12,564.11 M518.36,627.16c-5.73,23.67-16.45,30.9-26.16,29.16
		c-13.46-2.49-11.21-24.17-8.97-34.14c4.73-21.93,16.45-32.39,25.17-31.4C511.13,591.03,526.83,591.28,518.36,627.16"/>
	<path id="XMLID_20_" class="st207" d="M561.72,567.6c0,0,2.74,1.49,2.74,8.72v97.93c0,0-0.5,5.48-2.24,6.48h29.4
		c0,0,0-2.24,2.99-6.23c2.99-3.74,63.79-89.21,63.79-89.21s13.95-17.94,17.44-17.94h-41.86c0,0,3.24,2.24,0.75,6.48
		c-2.49,4.24-39.87,62.55-39.87,62.55l0.5-58.81c0,0,0-9.47,3.49-10.22L561.72,567.6"/>
	<path id="XMLID_15_" class="st207" d="M738.89,594.27l9.47-26.66h-71.02c0,0,2.49,2.24-0.75,11.96
		c-3.24,9.47-32.15,90.7-32.15,90.7s-5.23,10.72-6.48,10.72h73.26l8.72-26.91c0,0-1,1.5-7.97,1.5h-30.9l6.48-18.19h23.92
		c0,0,4.98-0.5,6.23,1l9.72-28.91c0,0-0.75,2.74-7.23,2.74h-23.42l6.98-20.18h29.4C733.41,591.53,737.39,591.03,738.89,594.27"/>
	<path class="st207" d="M477.99,542.44c0,0-2.49-1.5-2.99-5.98l-4.49-99.43c0,0-0.25-6.48,2.74-7.72h-34.64
		c0,0,2.49,2.99-2.24,10.22c-4.73,7.23-63.79,98.93-63.79,98.93s-1.25,2.24-4.24,3.74h35.14c0,0-0.25-2.74,0.75-4.73
		c1.74-3.24,5.98-11.21,5.98-11.21h35.39v9.97c0,0,0.25,3.49-2.49,5.98h34.89V542.44z M425.16,500.82l19.44-33.14l0.25,33.14H425.16
		z"/>
</g>
</svg>
