<?xml version="1.0" encoding="iso-8859-1"?>
<!-- Uploaded to: SVG Repo, www.svgrepo.com, Generator: SVG Repo Mixer Tools -->
<!DOCTYPE svg PUBLIC "-//W3C//DTD SVG 1.1//EN" "http://www.w3.org/Graphics/SVG/1.1/DTD/svg11.dtd">
<svg fill="#000000" height="800px" width="800px" version="1.1" id="Capa_1" xmlns="http://www.w3.org/2000/svg" xmlns:xlink="http://www.w3.org/1999/xlink" 
	 viewBox="0 0 465 465" xml:space="preserve">
<g>
	<path d="M269.317,155.852h-73.635c-15.164,0-27.5,12.336-27.5,27.5v38.325c0,15.164,12.336,27.5,27.5,27.5h73.635
		c15.163,0,27.5-12.336,27.5-27.5v-38.325C296.817,168.188,284.48,155.852,269.317,155.852z M281.817,221.677
		c0,6.893-5.607,12.5-12.5,12.5h-73.635c-6.893,0-12.5-5.607-12.5-12.5v-38.325c0-6.893,5.607-12.5,12.5-12.5h73.635
		c6.893,0,12.5,5.607,12.5,12.5V221.677z"/>
	<path d="M231.663,130.578c4.142,0,7.5-3.358,7.5-7.5v-20.304c0-4.142-3.357-7.5-7.5-7.5s-7.5,3.358-7.5,7.5v20.304
		C224.163,127.22,227.521,130.578,231.663,130.578z"/>
	<path d="M279.317,355h-93.635c-4.142,0-7.5,3.358-7.5,7.5s3.358,7.5,7.5,7.5h93.635c4.143,0,7.5-3.358,7.5-7.5
		S283.46,355,279.317,355z"/>
	<path d="M279.317,314.726h-93.635c-4.142,0-7.5,3.358-7.5,7.5s3.358,7.5,7.5,7.5h93.635c4.143,0,7.5-3.358,7.5-7.5
		S283.46,314.726,279.317,314.726z"/>
	<path d="M279.317,274.451h-93.635c-4.142,0-7.5,3.358-7.5,7.5s3.358,7.5,7.5,7.5h93.635c4.143,0,7.5-3.358,7.5-7.5
		S283.46,274.451,279.317,274.451z"/>
	<path d="M296.317,54.999h-86.801V17.833C209.516,8,201.516,0,191.683,0c-9.833,0-17.833,8-17.833,17.833v37.166h-5.167
		c-22.332,0-40.5,18.168-40.5,40.5V440.5c0,13.509,10.991,24.5,24.5,24.5h159.635c13.51,0,24.5-10.991,24.5-24.5V95.499
		C336.817,73.167,318.649,54.999,296.317,54.999z M188.85,17.833c0-1.563,1.271-2.833,2.833-2.833c1.563,0,2.833,1.271,2.833,2.833
		v37.166h-5.667V17.833z M321.817,440.5c0,5.238-4.262,9.5-9.5,9.5H152.683c-5.238,0-9.5-4.262-9.5-9.5V95.499
		c0-14.061,11.439-25.5,25.5-25.5h127.635c14.061,0,25.5,11.439,25.5,25.5V440.5z"/>
</g>
</svg>