<?xml version="1.0" encoding="UTF-8"?>
<!DOCTYPE svg PUBLIC "-//W3C//DTD SVG 1.1//EN" "http://www.w3.org/Graphics/SVG/1.1/DTD/svg11.dtd">
<svg xmlns="http://www.w3.org/2000/svg" version="1.1" width="2133px" height="1200px" style="shape-rendering:geometricPrecision; text-rendering:geometricPrecision; image-rendering:optimizeQuality; fill-rule:evenodd; clip-rule:evenodd" xmlns:xlink="http://www.w3.org/1999/xlink">
<g><path style="opacity:0.99" fill="#eb1b23" d="M 1008.5,26.5 C 1046.06,26.5326 1083.89,26.5326 1122,26.5C 1207.01,31.5649 1290.51,46.0649 1372.5,70C 1453.91,94.7064 1528.58,132.04 1596.5,182C 1632.87,210.032 1664.04,242.866 1690,280.5C 1705.33,304.906 1717.33,330.572 1726,357.5C 1743.18,423.179 1736.85,486.179 1707,546.5C 1679.82,596.365 1643.65,638.532 1598.5,673C 1533.19,721.49 1461.52,758.157 1383.5,783C 1231.68,829.305 1077.02,841.971 919.5,821C 812.787,807.744 711.787,776.411 616.5,727C 578.018,705.508 542.018,680.508 508.5,652C 483.578,629.086 461.578,603.753 442.5,576C 423.999,546.769 410.332,514.936 401.5,480.5C 402.471,479.038 402.138,477.705 400.5,476.5C 400.931,475.707 401.265,474.873 401.5,474C 394.389,434.319 395.889,395.819 406,358.5C 420.098,314.676 442.431,275.343 473,240.5C 476.723,238.443 479.39,235.443 481,231.5C 520.967,191.197 565.801,157.363 615.5,130C 663.886,104.642 714.219,83.9753 766.5,68C 845.963,45.5908 926.629,31.7574 1008.5,26.5 Z M 1005.5,48.5 C 1045.83,48.3333 1086.17,48.5 1126.5,49C 1136.98,48.6471 1145.81,52.1471 1153,59.5C 1155.16,63.2616 1155.82,67.2616 1155,71.5C 1142.83,79.2218 1129.67,84.3885 1115.5,87C 1166.46,91.5364 1217.13,98.2031 1267.5,107C 1340.21,122.677 1409.21,148.01 1474.5,183C 1511.81,204.639 1545.98,230.472 1577,260.5C 1599.98,285.409 1619.32,313.076 1635,343.5C 1647.02,370.569 1653.52,398.902 1654.5,428.5C 1653.77,458.053 1647.43,485.887 1635.5,512C 1635.83,512.333 1636.17,512.667 1636.5,513C 1617.65,553.049 1591.98,588.049 1559.5,618C 1552.8,622.037 1546.8,627.037 1541.5,633C 1483.59,675.29 1420.26,707.623 1351.5,730C 1226.62,769.655 1098.95,782.322 968.5,768C 869.468,757.911 774.801,732.245 684.5,691C 672.295,684.064 659.961,677.398 647.5,671C 636.004,663.085 624.338,655.418 612.5,648C 598.875,638.367 585.875,628.033 573.5,617C 566.333,608.5 558.5,600.667 550,593.5C 549.667,592.5 549.333,591.5 549,590.5C 512.218,552.269 489.885,506.936 482,454.5C 477.699,416.273 483.366,379.606 499,344.5C 514.766,309.289 537.099,278.955 566,253.5C 568.14,250.849 569.64,247.849 570.5,244.5C 566.183,245.962 562.183,248.128 558.5,251C 541.271,268.14 524.271,285.474 507.5,303C 502.351,307.485 496.684,311.152 490.5,314C 483.645,315.035 476.978,314.368 470.5,312C 468.525,309.971 467.525,307.471 467.5,304.5C 467.936,301.821 468.436,299.155 469,296.5C 471.77,292.112 473.937,287.946 475.5,284C 503.088,248.412 534.754,216.746 570.5,189C 652.64,132.614 742.64,93.6144 840.5,72C 895.101,60.3665 950.101,52.5332 1005.5,48.5 Z M 1208.5,717.5 C 1234.02,702.536 1251.52,680.869 1261,652.5C 1271.94,619.865 1271.94,587.199 1261,554.5C 1256.42,540.664 1249.75,527.997 1241,516.5C 1226.61,498.437 1211.11,481.271 1194.5,465C 1162.77,439.298 1129.77,415.298 1095.5,393C 1033.79,355.981 969.461,323.981 902.5,297C 882.251,290.04 861.917,283.373 841.5,277C 824.919,273.251 808.252,269.918 791.5,267C 762.485,262.281 734.485,265.615 707.5,277C 700.243,279.872 694.743,284.705 691,291.5C 690.311,294.79 691.311,297.457 694,299.5C 712.177,301.224 730.011,304.724 747.5,310C 754.643,312.937 761.976,315.27 769.5,317C 819.988,337.743 868.322,362.41 914.5,391C 959.192,420.357 1002.19,452.023 1043.5,486C 1051.7,494.531 1060.2,502.698 1069,510.5C 1072.87,516.377 1077.53,521.71 1083,526.5C 1100.14,547.083 1113.47,570.083 1123,595.5C 1125.03,604.461 1126.86,613.461 1128.5,622.5C 1128.24,624.63 1127.91,626.796 1127.5,629C 1130.17,633.667 1130.17,638.333 1127.5,643C 1127.63,649.163 1126.3,655.163 1123.5,661C 1114.08,684.374 1099.41,704.374 1079.5,721C 1075.13,724.186 1070.46,726.853 1065.5,729C 1028.46,728.827 991.462,727.494 954.5,725C 880.77,715.735 809.437,697.401 740.5,670C 698.035,651.327 659.035,627.327 623.5,598C 595.354,573.829 572.854,545.329 556,512.5C 528.238,450.255 531.238,390.255 565,332.5C 592.648,289.523 628.482,254.356 672.5,227C 717.46,199.677 765.127,178.344 815.5,163C 865.611,148.193 916.611,137.526 968.5,131C 1000.48,128.923 1032.48,127.089 1064.5,125.5C 1102.88,127.378 1141.21,129.878 1179.5,133C 1246.33,141.542 1311,158.208 1373.5,183C 1420.73,202.957 1464.39,228.624 1504.5,260C 1510.15,265.977 1516.15,271.643 1522.5,277C 1533.65,287.809 1543.65,299.475 1552.5,312C 1538.08,312.447 1523.75,311.447 1509.5,309C 1439.07,296.641 1369.4,280.974 1300.5,262C 1230.86,244.594 1160.52,230.594 1089.5,220C 1044.51,218.463 999.512,218.13 954.5,219C 932.316,220.685 910.316,223.685 888.5,228C 874.507,231.774 861.173,237.107 848.5,244C 842.871,247.934 839.205,252.767 837.5,258.5C 838.499,263.669 841.499,267.169 846.5,269C 856.844,272.67 867.178,276.337 877.5,280C 946.957,313.894 1017.96,344.227 1090.5,371C 1100.42,373.647 1110.42,375.981 1120.5,378C 1151.2,379.317 1178.87,370.984 1203.5,353C 1208.73,350.867 1214.07,349.034 1219.5,347.5C 1220.58,346.635 1220.75,345.635 1220,344.5C 1218.83,343.333 1217.67,342.167 1216.5,341C 1142.98,319.271 1069.65,296.938 996.5,274C 994.377,273.185 992.377,272.185 990.5,271C 1010.4,272.179 1030.07,275.179 1049.5,280C 1104.92,295.252 1159.92,311.919 1214.5,330C 1239.25,336.688 1263.92,343.688 1288.5,351C 1313.53,357.508 1338.53,364.175 1363.5,371C 1380.11,374.59 1396.78,377.923 1413.5,381C 1458.44,385.466 1502.77,382.133 1546.5,371C 1557.81,367.179 1568.48,362.012 1578.5,355.5C 1599.88,401.794 1600.55,449.294 1580.5,498C 1576.8,510.009 1570.46,521.342 1561.5,532C 1562.35,533.558 1561.68,534.558 1559.5,535C 1559.83,535.333 1560.17,535.667 1560.5,536C 1554.05,543.083 1548.22,550.583 1543,558.5C 1524.64,577.536 1505.14,595.036 1484.5,611C 1447.6,636.458 1408.26,657.792 1366.5,675C 1325.6,689.978 1283.93,702.645 1241.5,713C 1230.57,715.087 1219.57,716.587 1208.5,717.5 Z M 1138.5,674.5 C 1148.75,677.649 1152.92,684.649 1151,695.5C 1149.25,699.327 1147.25,702.993 1145,706.5C 1130.22,721.591 1112.38,731.091 1091.5,735C 1087.79,735.825 1084.12,735.659 1080.5,734.5C 1083.27,730.223 1086.61,726.39 1090.5,723C 1104.8,712.373 1116.63,699.539 1126,684.5C 1129.54,680.097 1133.71,676.764 1138.5,674.5 Z"/></g>
<g><path style="opacity:0.972" fill="#ea1b23" d="M 1028.5,109.5 C 1126.27,106.566 1222.27,118.066 1316.5,144C 1376.53,161.525 1432.87,186.858 1485.5,220C 1508.72,236.193 1530.55,254.36 1551,274.5C 1560.08,285.557 1569.25,296.39 1578.5,307C 1578.17,307.333 1577.83,307.667 1577.5,308C 1581.78,312.62 1585.28,317.786 1588,323.5C 1588.8,325.259 1588.63,326.926 1587.5,328.5C 1575.78,336.688 1562.78,341.854 1548.5,344C 1516.86,348.066 1485.19,348.066 1453.5,344C 1409.77,339.38 1367.1,330.046 1325.5,316C 1293,307.057 1260.34,298.724 1227.5,291C 1221.24,289.025 1215.07,286.859 1209,284.5C 1208.46,282.527 1209.3,281.527 1211.5,281.5C 1234.59,285.55 1257.59,290.05 1280.5,295C 1296.62,297.035 1312.78,298.535 1329,299.5C 1339.57,299.517 1349.73,297.683 1359.5,294C 1355.99,288.161 1350.99,284.161 1344.5,282C 1331.46,277.772 1318.13,274.772 1304.5,273C 1226.36,251.506 1147.03,236.173 1066.5,227C 1001.45,219.081 937.45,224.081 874.5,242C 867.049,244.539 859.716,247.372 852.5,250.5C 849.622,253.021 847.622,256.021 846.5,259.5C 860.141,260.225 873.807,260.391 887.5,260C 894.356,260.381 901.023,261.714 907.5,264C 929.502,271.89 950.502,281.89 970.5,294C 1015.11,315.467 1060.77,334.467 1107.5,351C 1129.47,352.587 1151.47,352.92 1173.5,352C 1181.27,351.714 1188.93,350.714 1196.5,349C 1198.66,347.688 1198.99,346.022 1197.5,344C 1193.05,343.103 1188.55,342.603 1184,342.5C 1161.16,345.571 1138.32,345.737 1115.5,343C 1104.59,341.303 1094.25,338.136 1084.5,333.5C 1088.63,329.928 1093.3,327.094 1098.5,325C 1099.19,321.484 1098.19,318.317 1095.5,315.5C 1093.32,314.243 1091.32,312.743 1089.5,311C 1074.65,305.605 1059.65,300.605 1044.5,296C 1037.88,294.709 1031.21,293.876 1024.5,293.5C 1024.26,297.273 1024.76,300.94 1026,304.5C 1028.85,306.598 1031.52,308.931 1034,311.5C 1034.75,312.635 1034.58,313.635 1033.5,314.5C 995.427,296.794 957.427,279.127 919.5,261.5C 919.281,260.325 919.614,259.325 920.5,258.5C 926.33,254.586 932.663,251.753 939.5,250C 950.546,247.745 961.713,246.579 973,246.5C 988.554,246.959 1004.05,248.126 1019.5,250C 1037.15,252.775 1054.82,255.442 1072.5,258C 1106.29,265.197 1139.95,272.863 1173.5,281C 1233.19,298.119 1292.86,315.452 1352.5,333C 1383.28,340.356 1414.28,346.69 1445.5,352C 1462.63,353.664 1479.8,354.831 1497,355.5C 1511.22,355.055 1525.39,353.889 1539.5,352C 1557.93,346.467 1576.26,340.634 1594.5,334.5C 1601.17,355.017 1608.17,376.184 1615.5,398C 1615.36,398.772 1615.02,399.439 1614.5,400C 1616.66,401.312 1616.99,402.978 1615.5,405C 1616.76,406.705 1617.1,408.372 1616.5,410C 1619.11,425.132 1619.11,440.299 1616.5,455.5C 1616.41,471.681 1612.57,487.681 1605,503.5C 1602.51,507.835 1599.01,510.835 1594.5,512.5C 1594.71,507.042 1596.04,501.875 1598.5,497C 1597.54,495.853 1597.88,494.853 1599.5,494C 1599.17,493.667 1598.83,493.333 1598.5,493C 1602.97,485.524 1603.97,477.691 1601.5,469.5C 1598.92,469.569 1596.92,470.735 1595.5,473C 1590.38,496.766 1580.88,518.933 1567,539.5C 1544.97,569.526 1518.81,595.693 1488.5,618C 1446.83,647.337 1401.83,670.671 1353.5,688C 1349.33,689.584 1345.66,691.918 1342.5,695C 1352.05,695.343 1361.39,694.009 1370.5,691C 1392.98,681.258 1415.32,671.258 1437.5,661C 1440.5,659.69 1443.5,659.524 1446.5,660.5C 1442.91,664.918 1438.58,668.418 1433.5,671C 1333.73,717.693 1228.73,743.526 1118.5,748.5C 1107.19,749.312 1106.53,747.146 1116.5,742C 1158.83,722.736 1186.83,691.736 1200.5,649C 1200.04,648.586 1199.71,648.086 1199.5,647.5C 1204.28,629.752 1204.61,611.919 1200.5,594C 1201.7,592.297 1201.37,590.797 1199.5,589.5C 1200.67,588.094 1200.33,586.928 1198.5,586C 1198.96,585.586 1199.29,585.086 1199.5,584.5C 1192.22,562.941 1182.05,542.941 1169,524.5C 1153.94,505.438 1137.44,487.605 1119.5,471C 1094.83,451.667 1070.17,432.333 1045.5,413C 1018.57,394.917 991.241,377.417 963.5,360.5C 962.232,358.696 961.565,356.696 961.5,354.5C 971.304,357.402 980.304,361.902 988.5,368C 998.131,373.066 1008.3,376.566 1019,378.5C 1022.44,378.185 1025.61,377.185 1028.5,375.5C 1028.5,373.833 1028.5,372.167 1028.5,370.5C 1027.02,368.517 1025.35,366.684 1023.5,365C 958.876,326.563 889.876,298.23 816.5,280C 787.349,274.007 758.016,273.007 728.5,277C 722.363,278.601 716.363,280.601 710.5,283C 706.854,284.982 703.854,287.649 701.5,291C 704.128,292.331 706.962,293.164 710,293.5C 723.32,292.085 736.653,290.752 750,289.5C 765.989,290.561 781.822,292.728 797.5,296C 836.016,306.54 873.016,320.873 908.5,339C 983.25,377.772 1052.58,424.439 1116.5,479C 1141.58,501.338 1162.58,526.338 1179.5,554C 1179.17,554.333 1178.83,554.667 1178.5,555C 1202.66,596.157 1202.49,637.323 1178,678.5C 1137.48,737.04 1081.65,760.874 1010.5,750C 933.944,745.191 859.277,730.857 786.5,707C 732.684,688.592 682.351,663.592 635.5,632C 613.422,614.924 592.922,596.09 574,575.5C 558.776,557.006 545.276,536.839 533.5,515C 533.833,514.667 534.167,514.333 534.5,514C 523.671,492.217 517.005,469.551 514.5,446C 514.5,435.333 514.5,424.667 514.5,414C 519.719,372.694 534.885,335.194 560,301.5C 585.082,270.41 613.915,243.577 646.5,221C 680.443,198.359 716.443,179.359 754.5,164C 813.708,141.615 874.708,126.281 937.5,118C 967.88,113.998 998.213,111.164 1028.5,109.5 Z M 1208.5,717.5 C 1219.57,716.587 1230.57,715.087 1241.5,713C 1283.93,702.645 1325.6,689.978 1366.5,675C 1408.26,657.792 1447.6,636.458 1484.5,611C 1505.14,595.036 1524.64,577.536 1543,558.5C 1548.22,550.583 1554.05,543.083 1560.5,536C 1560.17,535.667 1559.83,535.333 1559.5,535C 1561.68,534.558 1562.35,533.558 1561.5,532C 1570.46,521.342 1576.8,510.009 1580.5,498C 1600.55,449.294 1599.88,401.794 1578.5,355.5C 1568.48,362.012 1557.81,367.179 1546.5,371C 1502.77,382.133 1458.44,385.466 1413.5,381C 1396.78,377.923 1380.11,374.59 1363.5,371C 1338.53,364.175 1313.53,357.508 1288.5,351C 1263.92,343.688 1239.25,336.688 1214.5,330C 1159.92,311.919 1104.92,295.252 1049.5,280C 1030.07,275.179 1010.4,272.179 990.5,271C 992.377,272.185 994.377,273.185 996.5,274C 1069.65,296.938 1142.98,319.271 1216.5,341C 1217.67,342.167 1218.83,343.333 1220,344.5C 1220.75,345.635 1220.58,346.635 1219.5,347.5C 1214.07,349.034 1208.73,350.867 1203.5,353C 1178.87,370.984 1151.2,379.317 1120.5,378C 1110.42,375.981 1100.42,373.647 1090.5,371C 1017.96,344.227 946.957,313.894 877.5,280C 867.178,276.337 856.844,272.67 846.5,269C 841.499,267.169 838.499,263.669 837.5,258.5C 839.205,252.767 842.871,247.934 848.5,244C 861.173,237.107 874.507,231.774 888.5,228C 910.316,223.685 932.316,220.685 954.5,219C 999.512,218.13 1044.51,218.463 1089.5,220C 1160.52,230.594 1230.86,244.594 1300.5,262C 1369.4,280.974 1439.07,296.641 1509.5,309C 1523.75,311.447 1538.08,312.447 1552.5,312C 1543.65,299.475 1533.65,287.809 1522.5,277C 1516.15,271.643 1510.15,265.977 1504.5,260C 1464.39,228.624 1420.73,202.957 1373.5,183C 1311,158.208 1246.33,141.542 1179.5,133C 1141.21,129.878 1102.88,127.378 1064.5,125.5C 1032.48,127.089 1000.48,128.923 968.5,131C 916.611,137.526 865.611,148.193 815.5,163C 765.127,178.344 717.46,199.677 672.5,227C 628.482,254.356 592.648,289.523 565,332.5C 531.238,390.255 528.238,450.255 556,512.5C 572.854,545.329 595.354,573.829 623.5,598C 659.035,627.327 698.035,651.327 740.5,670C 809.437,697.401 880.77,715.735 954.5,725C 991.462,727.494 1028.46,728.827 1065.5,729C 1070.46,726.853 1075.13,724.186 1079.5,721C 1099.41,704.374 1114.08,684.374 1123.5,661C 1126.3,655.163 1127.63,649.163 1127.5,643C 1130.17,638.333 1130.17,633.667 1127.5,629C 1127.91,626.796 1128.24,624.63 1128.5,622.5C 1126.86,613.461 1125.03,604.461 1123,595.5C 1113.47,570.083 1100.14,547.083 1083,526.5C 1077.53,521.71 1072.87,516.377 1069,510.5C 1060.2,502.698 1051.7,494.531 1043.5,486C 1002.19,452.023 959.192,420.357 914.5,391C 868.322,362.41 819.988,337.743 769.5,317C 761.976,315.27 754.643,312.937 747.5,310C 730.011,304.724 712.177,301.224 694,299.5C 691.311,297.457 690.311,294.79 691,291.5C 694.743,284.705 700.243,279.872 707.5,277C 734.485,265.615 762.485,262.281 791.5,267C 808.252,269.918 824.919,273.251 841.5,277C 861.917,283.373 882.251,290.04 902.5,297C 969.461,323.981 1033.79,355.981 1095.5,393C 1129.77,415.298 1162.77,439.298 1194.5,465C 1211.11,481.271 1226.61,498.437 1241,516.5C 1249.75,527.997 1256.42,540.664 1261,554.5C 1271.94,587.199 1271.94,619.865 1261,652.5C 1251.52,680.869 1234.02,702.536 1208.5,717.5 Z M 1138.5,674.5 C 1133.71,676.764 1129.54,680.097 1126,684.5C 1116.63,699.539 1104.8,712.373 1090.5,723C 1086.61,726.39 1083.27,730.223 1080.5,734.5C 1084.12,735.659 1087.79,735.825 1091.5,735C 1112.38,731.091 1130.22,721.591 1145,706.5C 1147.25,702.993 1149.25,699.327 1151,695.5C 1152.92,684.649 1148.75,677.649 1138.5,674.5 Z"/></g>
<g><path style="opacity:0.984" fill="#030000" d="M 546.5,923.5 C 580.385,922.056 612.052,929.556 641.5,946C 669.076,964.641 687.243,989.141 696,1019.5C 705.563,1058.58 697.23,1093.24 671,1123.5C 646.736,1148.96 617.403,1165.3 583,1172.5C 562.607,1172.49 542.274,1172.49 522,1172.5C 480.489,1164.08 447.822,1142.42 424,1107.5C 394.647,1052.45 402.813,1003.95 448.5,962C 454.779,958.054 460.779,953.721 466.5,949C 491.375,934.54 518.042,926.04 546.5,923.5 Z M 542.5,944.5 C 570.009,944.004 592.176,954.671 609,976.5C 631.091,1006.85 637.591,1040.69 628.5,1078C 628.267,1083.12 627.1,1088.29 625,1093.5C 620.104,1105.67 614.104,1116.67 607,1126.5C 598.806,1136.85 588.639,1144.69 576.5,1150C 554.921,1157.05 533.921,1155.72 513.5,1146C 486.192,1125.54 471.359,1098.38 469,1064.5C 466.162,1035.02 471.495,1008.02 485,983.5C 498.632,962.373 517.798,949.373 542.5,944.5 Z"/></g>
<g><path style="opacity:0.988" fill="#020000" d="M 718.5,927.5 C 739.742,927.173 760.909,927.506 782,928.5C 781.701,975.349 781.201,1019.68 780.5,1061.5C 781.285,1084.99 787.785,1106.66 800,1126.5C 824.541,1148.76 851.041,1151.26 879.5,1134C 890.056,1124.72 896.89,1113.22 900,1099.5C 905.187,1080.19 907.854,1060.52 908,1040.5C 908.5,1002.83 908.667,965.168 908.5,927.5C 921.833,927.5 935.167,927.5 948.5,927.5C 949.325,947.172 950.325,966.839 951.5,986.5C 951.479,989.752 951.146,992.919 950.5,996C 951.167,997.667 951.833,999.333 952.5,1001C 952.5,1019.67 952.5,1038.33 952.5,1057C 948.561,1134.6 907.561,1172.6 829.5,1171C 794.627,1173.71 764.294,1163.04 738.5,1139C 738.833,1138.67 739.167,1138.33 739.5,1138C 730.527,1129.18 725.527,1118.68 724.5,1106.5C 722.079,1094.3 720.579,1081.97 720,1069.5C 718.609,1022.18 718.109,974.847 718.5,927.5 Z"/></g>
<g><path style="opacity:0.969" fill="#010000" d="M 989.5,927.5 C 1059.5,927.5 1129.5,927.5 1199.5,927.5C 1199.5,942.833 1199.5,958.167 1199.5,973.5C 1129.4,974.368 1059.4,974.368 989.5,973.5C 989.5,958.167 989.5,942.833 989.5,927.5 Z"/></g>
<g><path style="opacity:0.987" fill="#030000" d="M 1331.5,927.5 C 1342.84,927.333 1354.17,927.5 1365.5,928C 1380.73,960.917 1394.9,994.75 1408,1029.5C 1414.17,1043.35 1420.34,1057.18 1426.5,1071C 1431.86,1086.42 1438.19,1101.76 1445.5,1117C 1445.17,1117.33 1444.83,1117.67 1444.5,1118C 1452.13,1134.52 1459.13,1150.52 1465.5,1166C 1461.34,1167.14 1457.01,1167.64 1452.5,1167.5C 1433.49,1167.01 1414.49,1166.34 1395.5,1165.5C 1391.77,1156.64 1388.44,1147.64 1385.5,1138.5C 1354.51,1137.33 1323.51,1137.17 1292.5,1138C 1293.63,1139.02 1293.3,1139.68 1291.5,1140C 1291.83,1140.33 1292.17,1140.67 1292.5,1141C 1287.33,1149 1282.66,1157.33 1278.5,1166C 1261.85,1166.98 1245.18,1167.48 1228.5,1167.5C 1236.23,1145.78 1245.56,1123.94 1256.5,1102C 1256.17,1101.67 1255.83,1101.33 1255.5,1101C 1268.64,1071.25 1281.97,1041.58 1295.5,1012C 1294.37,1010.98 1294.7,1010.32 1296.5,1010C 1296.04,1009.59 1295.71,1009.09 1295.5,1008.5C 1307.6,981.892 1319.6,954.892 1331.5,927.5 Z M 1340.5,1026.5 C 1350.81,1050 1361.48,1073.84 1372.5,1098C 1351.5,1098.67 1330.5,1098.67 1309.5,1098C 1320.15,1073.91 1330.48,1050.08 1340.5,1026.5 Z"/></g>
<g><path style="opacity:0.986" fill="#040100" d="M 1586.5,927.5 C 1608.99,928.745 1631.49,928.745 1654,927.5C 1662.93,927.443 1671.76,928.276 1680.5,930C 1685.71,931.017 1689.54,933.851 1692,938.5C 1693.24,945.12 1694.07,951.787 1694.5,958.5C 1670.36,956.89 1646.19,955.89 1622,955.5C 1610.8,955.422 1599.63,955.922 1588.5,957C 1573.08,957.922 1564.74,966.088 1563.5,981.5C 1564.68,988.022 1568.01,993.189 1573.5,997C 1580.5,1001.33 1587.5,1005.67 1594.5,1010C 1617.26,1020.22 1639.6,1031.22 1661.5,1043C 1674.26,1050.63 1685.76,1059.79 1696,1070.5C 1700.31,1075.45 1703.31,1081.12 1705,1087.5C 1708.63,1113.74 1700.13,1134.24 1679.5,1149C 1661.18,1159.44 1641.51,1166.11 1620.5,1169C 1582.77,1171.42 1545.1,1170.76 1507.5,1167C 1506.58,1166.63 1505.75,1166.13 1505,1165.5C 1503.48,1154.29 1503.31,1143.12 1504.5,1132C 1525,1131.61 1545.5,1131.77 1566,1132.5C 1579.85,1132.44 1593.68,1131.94 1607.5,1131C 1619.23,1130.3 1628.9,1125.63 1636.5,1117C 1636.48,1114.03 1636.31,1110.86 1636,1107.5C 1632.33,1099.83 1627.17,1093.33 1620.5,1088C 1613.5,1083.16 1606.16,1078.83 1598.5,1075C 1582.04,1068.85 1565.87,1062.02 1550,1054.5C 1509.47,1037.4 1495.8,1007.4 1509,964.5C 1518.24,945.621 1533.41,934.788 1554.5,932C 1565.28,930.233 1575.94,928.733 1586.5,927.5 Z"/></g>
<g><path style="opacity:0.986" fill="#040100" d="M 247.5,928.5 C 281.874,928.034 316.207,928.534 350.5,930C 355.624,931.147 359.624,933.814 362.5,938C 362.167,938.333 361.833,938.667 361.5,939C 363.004,940.491 363.837,942.324 364,944.5C 364.499,949.155 364.666,953.821 364.5,958.5C 340.187,957.068 315.854,956.068 291.5,955.5C 274.994,954.23 258.994,956.396 243.5,962C 230.964,974.85 231.631,986.85 245.5,998C 252.002,1001.75 258.335,1005.75 264.5,1010C 289.445,1021.81 314.112,1034.14 338.5,1047C 343.018,1051.09 348.018,1054.42 353.5,1057C 378.759,1077.35 383.592,1101.85 368,1130.5C 363.167,1136 358.333,1141.5 353.5,1147C 334.9,1158.87 314.567,1166.2 292.5,1169C 280.172,1169.77 267.839,1170.43 255.5,1171C 255,1171.5 254.5,1172 254,1172.5C 235.923,1170.94 215.423,1169.78 192.5,1169C 186.89,1168.6 181.39,1167.77 176,1166.5C 175.5,1154.84 175.333,1143.17 175.5,1131.5C 210.178,1132.83 244.845,1132.67 279.5,1131C 288.193,1129.77 296.193,1126.77 303.5,1122C 308.154,1115.82 308.32,1109.32 304,1102.5C 303.25,1101.87 302.416,1101.37 301.5,1101C 301.833,1100.67 302.167,1100.33 302.5,1100C 293.16,1089 281.827,1080.67 268.5,1075C 252.086,1068.53 235.753,1061.86 219.5,1055C 180.446,1037.38 166.946,1007.88 179,966.5C 186.942,947.593 201.108,936.427 221.5,933C 230.269,931.252 238.935,929.752 247.5,928.5 Z"/></g>
<g><path style="opacity:0.984" fill="#030000" d="M 1729.5,928.5 C 1805.17,928.5 1880.83,928.5 1956.5,928.5C 1956.5,940.167 1956.5,951.833 1956.5,963.5C 1929.83,963.5 1903.17,963.5 1876.5,963.5C 1876.5,1031.17 1876.5,1098.83 1876.5,1166.5C 1854.26,1166.83 1832.09,1166.49 1810,1165.5C 1809.32,1098.17 1808.82,1030.83 1808.5,963.5C 1781.83,963.5 1755.17,963.5 1728.5,963.5C 1729.33,951.854 1729.67,940.187 1729.5,928.5 Z"/></g>
<g><path style="opacity:0.971" fill="#000000" d="M 989.5,1022.5 C 1059.5,1022.5 1129.5,1022.5 1199.5,1022.5C 1199.5,1037.5 1199.5,1052.5 1199.5,1067.5C 1129.5,1067.5 1059.5,1067.5 989.5,1067.5C 989.5,1052.5 989.5,1037.5 989.5,1022.5 Z"/></g>
<g><path style="opacity:0.97" fill="#000000" d="M 989.5,1118.5 C 1059.5,1118.5 1129.5,1118.5 1199.5,1118.5C 1199.5,1132.83 1199.5,1147.17 1199.5,1161.5C 1129.5,1161.5 1059.5,1161.5 989.5,1161.5C 989.5,1147.17 989.5,1132.83 989.5,1118.5 Z"/></g>
</svg>
