<?xml version="1.0" encoding="UTF-8"?>
<svg id="Layer_1" data-name="Layer 1" xmlns="http://www.w3.org/2000/svg" viewBox="0 0 737.35 203.33">
  <defs>
    <style>
      .cls-1 {
        fill: #fff;
      }
    </style>
  </defs>
  <g>
    <g>
      <path class="cls-1" d="M85.61,164.01c0,28.78-21.7,31.23-32.98,31.23h-13.56c-11.29,0-32.98-2.45-32.98-31.23s21.7-31.23,32.98-31.23h13.56c11.29,0,32.98,2.54,32.98,31.23ZM68.2,164.01c0-7.87-2.19-15.49-11.02-15.49h-22.66c-8.84,0-11.02,7.61-11.02,15.49s2.19,15.57,11.02,15.57h22.66c8.84,0,11.02-7.61,11.02-15.57Z"/>
      <path class="cls-1" d="M167.32,132.78h26.95v62.47h-16.62v-45.23l-21.43,45.23h-21.26l-21.43-45.23v45.23h-16.54v-62.47h26.86l21.78,44.8,21.7-44.8Z"/>
      <path class="cls-1" d="M253.76,132.78l31.41,62.47h-18.55l-6.39-13.56h-33.16l-6.39,13.56h-18.55l31.5-62.47h20.12ZM253.23,166.9l-9.54-20.38-9.62,20.38h19.16Z"/>
      <path class="cls-1" d="M356.03,132.78h16.53v62.47h-24.5l-38.5-44.53v44.53h-16.54v-62.47h24.5l38.5,44.53v-44.53Z"/>
    </g>
    <path class="cls-1" d="M557.76,132.78v15.48h-51.44v8.66h51.44v14.61h-51.44v8.22h51.44v15.48h-67.98v-62.47h67.98Z"/>
    <path class="cls-1" d="M617.25,132.78l31.41,62.47h-18.55l-6.39-13.56h-33.16l-6.38,13.56h-18.55l31.5-62.47h20.12ZM616.72,166.9l-9.54-20.38-9.62,20.38h19.16Z"/>
    <path class="cls-1" d="M724.51,179.76v15.48h-67.98v-62.47h16.62v46.98h51.36Z"/>
    <path class="cls-1" d="M445.43,132.78h-59.75v62.47h59.75c11.2,0,32.98-2.45,32.98-31.23s-21.79-31.23-32.98-31.23ZM443.13,181.86h-44.07v-35.69h44.07c6.69,0,19.05,1.21,21.45,13.42-1.58-2.91-4.63-4.92-8.18-4.92-5.16,0-9.34,4.18-9.34,9.34s4.18,9.34,9.34,9.34c3.55,0,6.6-2,8.18-4.92-2.39,12.26-14.76,13.43-21.45,13.43Z"/>
  </g>
  <path class="cls-1" d="M108.42,80.41c-.15-.77-.22-1.5-.23-2.21h-32.84V22.32h-15.34v50.08c0,15.34-7.12,24.44-19.18,24.44s-19.4-10.08-19.4-24.44v-9.43H6.08v10.85c0,21.04,15.34,37.26,34.63,37.26,12.82,0,23.89-6.79,29.92-18.19h41.07c-1.48-4.02-2.44-8.19-3.29-12.48Z"/>
  <path class="cls-1" d="M292.15,43.19v24.22c0,7.12-2.63,10.74-7.78,10.74h-65.3c.27.34.54.71.78,1.11,2.5,4.2,3.86,8.82,5.05,13.52,0,.02,0,.04.01.06h62.75c6.36,0,11.4-2.19,15.01-6.69,3.18-3.84,4.82-8.66,4.82-14.47v-28.49h-15.34Z"/>
  <rect class="cls-1" x="272.2" y="98.31" width="13.59" height="12.71" rx="6.36" ry="6.36"/>
  <rect class="cls-1" x="292.81" y="98.31" width="13.7" height="12.71" rx="6.36" ry="6.36"/>
  <path class="cls-1" d="M350.23,45.28c-4.05-1.42-10.85-2.08-20.49-2.08v12.82c19.51,0,27.83,6.79,27.83,22.14h-39.78v14.69h55.13v-14.79c0-16.55-7.78-27.51-22.69-32.77Z"/>
  <rect class="cls-1" x="446.8" y="154.86" width="19.73" height="18.31" rx="9.16" ry="9.16"/>
  <path class="cls-1" d="M439.49,72.4c0,14.25-7.12,24.44-19.07,24.44s-19.29-10.19-19.29-24.44v-29.26h-15.45v30.69c0,21.04,15.34,37.26,34.63,37.26s34.63-16.88,34.63-37.26v-30.69h-15.45v29.26Z"/>
  <path class="cls-1" d="M688.62,23.59c9.97-.66,17.42-4.49,17.42-11.4,0-3.4-2.85-5.92-5.81-5.92s-5.7,2.52-5.7,5.92c0,2.3.88,4.05,2.52,5.37-1.75,1.53-5.37,2.41-10.85,2.52,1.53,2.3,2.3,3.51,2.41,3.51ZM700.68,9.89c1.42,0,2.08.66,2.08,1.97,0,1.42-.99,2.74-2.85,3.73-1.31-.99-1.97-2.08-1.97-3.29,0-1.31,1.42-2.41,2.74-2.41Z"/>
  <path class="cls-1" d="M537.72,78.32h-41.53c-11.29,0-13.15-3.94-13.15-11.4V22.32h-15.34v52.6c0,11.29,6.79,18.08,18.52,18.08h50.6c-3.92-3.84-3.61-11.3.9-14.69Z"/>
  <path class="cls-1" d="M698.92,78.21c-4.05-1.64-6.14-5.48-6.14-11.29,0-3.29.77-6.03,2.3-8.11,1.65-2.52,4.05-3.73,7.12-3.73,4.49,0,7.34,2.19,8.77,6.47l12.6-5.81c-3.84-8.66-11.73-13.92-21.04-13.92-7.23,0-13.15,2.52-17.86,7.56-4.6,5.04-6.9,11.18-6.9,18.3,0,3.18.77,6.69,2.19,10.52h-69.69c0-16.11-9.65-25.64-25.64-25.64s-24.88,9.86-24.88,25.64h-48.04s.04.07.05.11c3.95,1.53,7.42,4.09,9.96,8.3,1.26,2.09,1.54,4.25,1.11,6.27h41.41c4.6,6.25,11.51,9.42,20.82,9.42s16-3.18,20.49-9.42h118.79v-14.69h-25.43ZM585.07,89.82c-6.47,0-10.19-5.26-10.19-12.6s3.73-12.38,9.31-12.38h1.1c6.47,0,9.75,4.38,9.75,13.04,0,7.34-3.73,11.95-9.97,11.95Z"/>
  <rect class="cls-1" x="410.19" y="12.93" width="20.24" height="18.78" rx="9.39" ry="9.39"/>
  <rect class="cls-1" x="92.16" y="78.21" width="153.83" height="14.8"/>
</svg>