<?xml version="1.0" encoding="UTF-8"?>
<svg id="Layer_1" data-name="Layer 1" xmlns="http://www.w3.org/2000/svg" viewBox="0 0 459.05 442.31">
  <defs>
    <style>
      .cls-1 {
        fill: #18818e;
      }

      .cls-2 {
        fill: #fff;
        stroke: #eb382e;
        stroke-miterlimit: 10;
      }

      .cls-3 {
        fill: #eb382e;
      }
    </style>
  </defs>
  <rect class="cls-2" x=".5" y=".5" width="458.05" height="441.31" rx="62.18" ry="62.18"/>
  <g>
    <g>
      <path class="cls-1" d="M125.81,146.13c0,28.78-21.7,31.23-32.98,31.23h-13.56c-11.29,0-32.98-2.45-32.98-31.23s21.7-31.23,32.98-31.23h13.56c11.29,0,32.98,2.54,32.98,31.23ZM108.4,146.13c0-7.87-2.19-15.49-11.02-15.49h-22.66c-8.84,0-11.02,7.61-11.02,15.49s2.19,15.57,11.02,15.57h22.66c8.84,0,11.02-7.61,11.02-15.57Z"/>
      <path class="cls-1" d="M207.52,114.9h26.95v62.47h-16.62v-45.23l-21.43,45.23h-21.26l-21.43-45.23v45.23h-16.54v-62.47h26.86l21.78,44.8,21.7-44.8Z"/>
      <path class="cls-1" d="M293.96,114.9l31.41,62.47h-18.55l-6.39-13.56h-33.16l-6.39,13.56h-18.55l31.5-62.47h20.12ZM293.43,149.02l-9.54-20.38-9.62,20.38h19.16Z"/>
      <path class="cls-1" d="M396.23,114.9h16.53v62.47h-24.5l-38.5-44.53v44.53h-16.54v-62.47h24.5l38.5,44.53v-44.53Z"/>
    </g>
    <path class="cls-3" d="M232.41,187.86v16.75h-55.64v9.37h55.64v15.8h-55.64v8.9h55.64v16.75h-73.53v-67.56h73.53Z"/>
    <path class="cls-3" d="M296.75,187.86l33.97,67.56h-20.06l-6.91-14.67h-35.87l-6.91,14.67h-20.06l34.07-67.56h21.76ZM296.18,224.77l-10.31-22.05-10.41,22.05h20.72Z"/>
    <path class="cls-3" d="M412.76,238.68v16.75h-73.53v-67.56h17.98v50.82h55.55Z"/>
    <path class="cls-3" d="M110.91,187.86H46.28v67.56h64.63c12.11,0,35.68-2.65,35.68-33.78s-23.56-33.78-35.68-33.78ZM108.43,240.95h-47.67v-38.61h47.67c7.24,0,20.61,1.31,23.2,14.52-1.71-3.15-5.01-5.32-8.85-5.32-5.58,0-10.1,4.52-10.1,10.1s4.52,10.1,10.1,10.1c3.84,0,7.14-2.17,8.85-5.32-2.58,13.26-15.96,14.53-23.2,14.53Z"/>
    <rect class="cls-1" x="112.4" y="211.74" width="21.34" height="19.81" rx="9.9" ry="9.9"/>
    <g>
      <rect class="cls-3" x="182.07" y="320.9" width="6.93" height="6.49" rx="3.24" ry="3.24"/>
      <rect class="cls-3" x="192.58" y="320.9" width="6.99" height="6.49" rx="3.24" ry="3.24"/>
      <g>
        <path class="cls-3" d="M98.5,311.77c-.08-.39-.11-.77-.12-1.13h-16.76v-28.52h-7.83v25.55c0,7.83-3.63,12.47-9.79,12.47s-9.9-5.14-9.9-12.47v-4.81h-7.83v5.54c0,10.74,7.83,19.01,17.67,19.01,6.54,0,12.19-3.47,15.26-9.28h20.96c-.75-2.05-1.24-4.18-1.68-6.37Z"/>
        <path class="cls-3" d="M192.24,292.77v12.36c0,3.63-1.34,5.48-3.97,5.48h-33.32c.14.18.27.36.4.57,1.27,2.14,1.97,4.5,2.58,6.9,0,0,0,.02,0,.03h32.02c3.24,0,5.82-1.12,7.66-3.41,1.62-1.96,2.46-4.42,2.46-7.38v-14.54h-7.83Z"/>
        <path class="cls-3" d="M221.88,293.84c-2.07-.73-5.54-1.06-10.46-1.06v6.54c9.95,0,14.2,3.47,14.2,11.29h-20.3v7.49h28.13v-7.55c0-8.44-3.97-14.04-11.58-16.72Z"/>
        <path class="cls-1" d="M267.42,307.68c0,7.27-3.63,12.47-9.73,12.47s-9.84-5.2-9.84-12.47v-14.93h-7.88v15.66c0,10.74,7.83,19.01,17.67,19.01s17.67-8.61,17.67-19.01v-15.66h-7.88v14.93Z"/>
        <path class="cls-1" d="M394.53,282.77c5.09-.34,8.89-2.29,8.89-5.82,0-1.73-1.45-3.02-2.96-3.02s-2.91,1.29-2.91,3.02c0,1.17.45,2.07,1.29,2.74-.89.78-2.74,1.23-5.53,1.29.78,1.17,1.17,1.79,1.23,1.79ZM400.68,275.78c.73,0,1.06.34,1.06,1.01,0,.73-.5,1.4-1.45,1.9-.67-.5-1.01-1.06-1.01-1.68,0-.67.73-1.23,1.4-1.23Z"/>
        <path class="cls-1" d="M317.54,310.7h-21.19c-5.76,0-6.71-2.01-6.71-5.81v-22.76h-7.83v26.84c0,5.76,3.47,9.23,9.45,9.23h25.82c-2-1.96-1.84-5.77.46-7.49Z"/>
        <path class="cls-1" d="M399.79,310.64c-2.07-.84-3.13-2.8-3.13-5.76,0-1.68.39-3.08,1.17-4.14.84-1.29,2.07-1.9,3.63-1.9,2.29,0,3.75,1.12,4.47,3.3l6.43-2.96c-1.96-4.42-5.98-7.1-10.74-7.1-3.69,0-6.71,1.29-9.11,3.86-2.35,2.57-3.52,5.7-3.52,9.34,0,1.62.39,3.41,1.12,5.37h-35.56c0-8.22-4.92-13.08-13.08-13.08s-12.69,5.03-12.69,13.08h-24.51s.02.04.03.06c2.02.78,3.78,2.09,5.08,4.24.64,1.07.78,2.17.57,3.2h21.13c2.35,3.19,5.87,4.81,10.62,4.81s8.16-1.62,10.46-4.81h60.61v-7.49h-12.97ZM341.7,316.57c-3.3,0-5.2-2.68-5.2-6.43s1.9-6.32,4.75-6.32h.56c3.3,0,4.98,2.24,4.98,6.65,0,3.75-1.9,6.1-5.09,6.1Z"/>
        <rect class="cls-1" x="252.47" y="277.33" width="10.32" height="9.58" rx="4.79" ry="4.79"/>
        <rect class="cls-3" x="90.2" y="310.64" width="78.49" height="7.55"/>
      </g>
    </g>
  </g>
</svg>