<?xml version="1.0" encoding="UTF-8"?>
<svg id="Layer_1" data-name="Layer 1" xmlns="http://www.w3.org/2000/svg" viewBox="0 0 622.66 176.7">
  <defs>
    <style>
      .cls-1 {
        fill: #fff;
      }
    </style>
  </defs>
  <path class="cls-1" d="M78.19,68.31h-18.3c-5.21,9.86-14.79,15.74-25.88,15.74-16.69,0-29.96-14.03-29.96-32.23v-9.39h13.27v8.15c0,12.42,6.16,21.14,16.78,21.14s16.59-7.87,16.59-21.14V7.26h13.27v48.35h14.22v12.7Z"/>
  <g>
    <path class="cls-1" d="M219.97,84.05h-.76c-3.04,0-5.5-2.46-5.5-5.5h0c0-3.04,2.46-5.5,5.5-5.5h.76c3.04,0,5.5,2.46,5.5,5.5h0c0,3.04-2.46,5.5-5.5,5.5ZM244.24,50.02c0,5.02-1.42,9.2-4.17,12.51-3.13,3.89-7.49,5.78-12.99,5.78h-11.28v-12.7h8.44c4.46,0,6.73-3.13,6.73-9.29v-20.95h13.27v24.65ZM237.89,84.05h-.85c-3.04,0-5.5-2.46-5.5-5.5h0c0-3.04,2.46-5.5,5.5-5.5h.85c3.04,0,5.5,2.46,5.5,5.5h0c0,3.04-2.46,5.5-5.5,5.5Z"/>
    <path class="cls-1" d="M300.84,68.31h-47.69v-12.7h34.41c0-13.27-7.2-19.15-24.08-19.15v-11.09c8.34,0,14.22.57,17.73,1.8,12.89,4.55,19.62,14.03,19.62,28.35v12.8Z"/>
  </g>
  <rect class="cls-1" x="71.71" y="55.9" width="151.2" height="12.42"/>
  <path class="cls-1" d="M371.6,68.41h-12.51c-1.52,10.43-8.72,15.64-21.62,15.64h-1.42v-10.62h1.14c5.12,0,8.15-1.9,9.2-5.59-1.04.38-3.7.57-8.15.57-12.42,0-21.52-9.01-21.52-21.62s8.91-21.42,21.52-21.42,21.05,9.1,21.05,21.71v8.63h12.32v12.7ZM346,55.71v-9.2c0-5.59-3.32-9.2-8.15-9.2s-7.68,3.89-7.68,8.91c0,5.4,3.22,9.48,8.15,9.48h7.68Z"/>
  <g>
    <path class="cls-1" d="M534.48,68.36h-69.02v-12.7h54.61c-1.33-10.33-9.2-18.11-19.25-18.11h-23.89l18.96-30.24h15.74l-11.94,18.01h7.3c18.11,1.9,27.49,15.83,27.49,38.11v4.93Z"/>
    <path class="cls-1" d="M585.77,66.47c0,11.66-7.21,17.54-21.71,17.54h-1.33v-10.62h.85c5.31,0,10.52-3.7,10.52-8.82-1.8,2.94-4.93,4.36-9.39,4.36-12.23,0-21.33-9.29-21.33-21.99s8.91-21.71,21.33-21.71,21.05,9.38,21.05,21.9v19.34ZM572.5,47.13c0-5.78-3.32-9.86-8.06-9.86s-7.77,3.98-7.77,9.58,3.03,9.76,8.25,9.76c4.74,0,7.58-3.7,7.58-9.48Z"/>
    <path class="cls-1" d="M620.19,59.64c0,8.72-2.18,14.98-6.64,18.87-4.08,3.7-10.71,5.5-19.81,5.5v-10.71c8.72,0,13.08-4.17,13.08-12.51V25.42h13.37v34.22ZM613.9,18.21h-1.08c-3.81,0-6.89-3.09-6.89-6.89h0c0-3.81,3.09-6.89,6.89-6.89h1.08c3.81,0,6.89,3.09,6.89,6.89h0c0,3.81-3.09,6.89-6.89,6.89Z"/>
  </g>
  <rect class="cls-1" x="365.27" y="55.71" width="123.28" height="12.66"/>
  <g>
    <path class="cls-1" d="M74.93,118.92l-45.93,26.67h45.93v13.96H4.05v-15.05l45.85-26.59H4.83v-14.04h70.1v15.05Z"/>
    <path class="cls-1" d="M120.32,103.87c1.66,0,3.55.09,5.65.27,2.11.18,4.25.6,6.43,1.25s4.31,1.59,6.39,2.81c2.08,1.22,3.92,2.86,5.54,4.91,1.61,2.05,2.91,4.6,3.9,7.64.99,3.04,1.48,6.69,1.48,10.96s-.49,7.91-1.48,10.96c-.99,3.04-2.29,5.59-3.9,7.64-1.61,2.05-3.46,3.69-5.54,4.91-2.08,1.22-4.21,2.16-6.39,2.81-2.18.65-4.33,1.07-6.43,1.25-2.11.18-3.99.27-5.65.27h-12.09c-1.66,0-3.55-.09-5.65-.27-2.11-.18-4.25-.6-6.43-1.25-2.18-.65-4.32-1.59-6.39-2.81-2.08-1.22-3.93-2.86-5.54-4.91-1.61-2.05-2.91-4.6-3.9-7.64-.99-3.04-1.48-6.69-1.48-10.96s.49-7.91,1.48-10.96c.99-3.04,2.29-5.59,3.9-7.64,1.61-2.05,3.46-3.69,5.54-4.91,2.08-1.22,4.21-2.16,6.39-2.81,2.18-.65,4.33-1.07,6.43-1.25,2.11-.18,3.99-.27,5.65-.27h12.09ZM124.37,145.58c1.97,0,3.6-.39,4.87-1.17,1.27-.78,2.27-1.82,3-3.12.73-1.3,1.23-2.78,1.52-4.45.29-1.66.43-3.38.43-5.15s-.14-3.48-.43-5.15c-.29-1.66-.79-3.13-1.52-4.41-.73-1.27-1.73-2.3-3-3.08-1.27-.78-2.9-1.17-4.87-1.17h-20.2c-1.98,0-3.6.39-4.87,1.17-1.27.78-2.27,1.81-3,3.08-.73,1.27-1.24,2.74-1.52,4.41-.29,1.66-.43,3.38-.43,5.15s.14,3.48.43,5.15c.29,1.66.79,3.15,1.52,4.45.73,1.3,1.73,2.34,3,3.12,1.27.78,2.9,1.17,4.87,1.17h20.2Z"/>
    <path class="cls-1" d="M225.28,131.7c0,4.89-.64,8.97-1.91,12.24-1.27,3.28-2.91,5.94-4.91,7.99-2,2.05-4.25,3.61-6.75,4.68-2.5,1.07-4.96,1.81-7.41,2.22.88.31,1.88.53,3,.66,1.12.13,2.4.2,3.86.2h14.11v13.26h-7.72c-4.89,0-8.97-.39-12.24-1.17-3.28-.78-5.94-1.81-7.99-3.08-2.05-1.28-3.6-2.7-4.64-4.29-1.04-1.59-1.77-3.21-2.18-4.87h-6.78c-1.66,0-3.55-.09-5.65-.27-2.11-.18-4.24-.6-6.39-1.25-2.16-.65-4.28-1.59-6.36-2.81-2.08-1.22-3.93-2.86-5.54-4.91-1.61-2.05-2.91-4.6-3.9-7.64-.99-3.04-1.48-6.69-1.48-10.96s.49-7.91,1.48-10.96c.99-3.04,2.29-5.59,3.9-7.64,1.61-2.05,3.46-3.69,5.54-4.91,2.08-1.22,4.2-2.16,6.36-2.81,2.16-.65,4.29-1.07,6.39-1.25,2.11-.18,3.99-.27,5.65-.27h12.16c1.66,0,3.55.09,5.65.27,2.11.18,4.25.6,6.43,1.25s4.31,1.59,6.39,2.81c2.08,1.22,3.92,2.86,5.54,4.91,1.61,2.05,2.91,4.6,3.9,7.64.99,3.04,1.48,6.69,1.48,10.96ZM199.93,145.58c1.97,0,3.6-.39,4.87-1.17,1.27-.78,2.27-1.82,3-3.12.73-1.3,1.23-2.78,1.52-4.45.29-1.66.43-3.38.43-5.15s-.14-3.48-.43-5.15c-.29-1.66-.79-3.13-1.52-4.41-.73-1.27-1.73-2.3-3-3.08-1.27-.78-2.9-1.17-4.87-1.17h-20.27c-1.98,0-3.59.39-4.83,1.17-1.25.78-2.24,1.81-2.96,3.08-.73,1.27-1.24,2.74-1.52,4.41-.29,1.66-.43,3.38-.43,5.15s.14,3.48.43,5.15c.29,1.66.79,3.15,1.52,4.45.73,1.3,1.72,2.34,2.96,3.12,1.25.78,2.86,1.17,4.83,1.17h20.27Z"/>
    <path class="cls-1" d="M271.44,103.87c1.66,0,3.55.09,5.65.27,2.11.18,4.25.6,6.43,1.25s4.31,1.59,6.39,2.81c2.08,1.22,3.92,2.86,5.54,4.91,1.61,2.05,2.91,4.6,3.9,7.64.99,3.04,1.48,6.69,1.48,10.96s-.49,7.91-1.48,10.96c-.99,3.04-2.29,5.59-3.9,7.64-1.61,2.05-3.46,3.69-5.54,4.91-2.08,1.22-4.21,2.16-6.39,2.81-2.18.65-4.33,1.07-6.43,1.25-2.11.18-3.99.27-5.65.27h-12.09c-1.66,0-3.55-.09-5.65-.27-2.11-.18-4.25-.6-6.43-1.25-2.18-.65-4.32-1.59-6.39-2.81-2.08-1.22-3.93-2.86-5.54-4.91-1.61-2.05-2.91-4.6-3.9-7.64-.99-3.04-1.48-6.69-1.48-10.96s.49-7.91,1.48-10.96c.99-3.04,2.29-5.59,3.9-7.64,1.61-2.05,3.46-3.69,5.54-4.91,2.08-1.22,4.21-2.16,6.39-2.81,2.18-.65,4.33-1.07,6.43-1.25,2.11-.18,3.99-.27,5.65-.27h12.09ZM275.49,145.58c1.97,0,3.6-.39,4.87-1.17,1.27-.78,2.27-1.82,3-3.12.73-1.3,1.23-2.78,1.52-4.45.29-1.66.43-3.38.43-5.15s-.14-3.48-.43-5.15c-.29-1.66-.79-3.13-1.52-4.41-.73-1.27-1.73-2.3-3-3.08-1.27-.78-2.9-1.17-4.87-1.17h-20.2c-1.98,0-3.6.39-4.87,1.17-1.27.78-2.27,1.81-3,3.08-.73,1.27-1.24,2.74-1.52,4.41-.29,1.66-.43,3.38-.43,5.15s.14,3.48.43,5.15c.29,1.66.79,3.15,1.52,4.45.73,1.3,1.73,2.34,3,3.12,1.27.78,2.9,1.17,4.87,1.17h20.2Z"/>
  </g>
  <path class="cls-1" d="M471.14,103.87v13.9h-46.17v7.77h46.17v13.11h-46.17v7.38h46.17v13.9h-61.01v-56.06h61.01Z"/>
  <path class="cls-1" d="M524.53,103.87l28.19,56.06h-16.65l-5.73-12.17h-29.76l-5.73,12.17h-16.65l28.27-56.06h18.06ZM524.06,134.49l-8.56-18.29-8.64,18.29h17.19Z"/>
  <path class="cls-1" d="M620.79,146.03v13.9h-61.01v-56.06h14.92v42.16h46.09Z"/>
  <path class="cls-1" d="M370.33,103.87h-53.62v56.06h53.62c10.05,0,29.6-2.2,29.6-28.03s-19.55-28.03-29.6-28.03ZM368.27,147.91h-39.55v-32.03h39.55c6.01,0,17.1,1.09,19.25,12.05-1.42-2.62-4.15-4.41-7.34-4.41-4.63,0-8.38,3.75-8.38,8.38s3.75,8.38,8.38,8.38c3.19,0,5.92-1.8,7.34-4.42-2.14,11-13.24,12.05-19.25,12.05Z"/>
  <rect class="cls-1" x="371.56" y="123.68" width="17.71" height="16.43" rx="8.22" ry="8.22"/>
</svg>