<?xml version="1.0" encoding="UTF-8"?>
<svg id="Layer_1" data-name="Layer 1" xmlns="http://www.w3.org/2000/svg" viewBox="0 0 449.49 283.72">
  <defs>
    <style>
      .cls-1 {
        fill: #fff;
      }
    </style>
  </defs>
  <path class="cls-1" d="M228.74,123.53v20.1h-66.79v11.25h66.79v18.97h-66.79v10.68h66.79v20.1h-88.26v-81.1h88.26Z"/>
  <path class="cls-1" d="M305.97,123.53l40.78,81.1h-24.08l-8.29-17.6h-43.05l-8.29,17.6h-24.08l40.89-81.1h26.13ZM305.29,167.82l-12.38-26.47-12.49,26.47h24.87Z"/>
  <path class="cls-1" d="M445.23,184.52v20.1h-88.26v-81.1h21.58v61h66.68Z"/>
  <path class="cls-1" d="M82.9,123.53H5.32v81.1h77.57c14.54,0,42.82-3.18,42.82-40.55s-28.28-40.55-42.82-40.55ZM79.92,187.25H22.7v-46.34h57.22c8.69,0,24.74,1.58,27.85,17.43-2.05-3.78-6.01-6.38-10.62-6.38-6.7,0-12.13,5.43-12.13,12.13s5.43,12.13,12.13,12.13c4.61,0,8.57-2.6,10.62-6.39-3.1,15.91-19.16,17.44-27.85,17.44Z"/>
  <rect class="cls-1" x="84.68" y="152.19" width="25.62" height="23.77" rx="11.89" ry="11.89"/>
  <g>
    <path class="cls-1" d="M110.39,29.44l-68.08,39.53h68.08v20.69H5.32v-22.31L73.28,27.93H6.48V7.13h103.91v22.31Z"/>
    <path class="cls-1" d="M177.66,7.13c2.47,0,5.26.14,8.38.4,3.12.27,6.3.89,9.54,1.85,3.24.96,6.39,2.35,9.48,4.16,3.08,1.81,5.82,4.24,8.21,7.28,2.39,3.05,4.31,6.82,5.78,11.33,1.46,4.51,2.2,9.92,2.2,16.24s-.73,11.73-2.2,16.24c-1.46,4.51-3.39,8.28-5.78,11.33-2.39,3.05-5.13,5.47-8.21,7.28-3.08,1.81-6.24,3.2-9.48,4.16-3.24.96-6.41,1.58-9.54,1.85-3.12.27-5.91.4-8.38.4h-17.92c-2.47,0-5.26-.13-8.38-.4-3.12-.27-6.3-.88-9.54-1.85-3.24-.96-6.4-2.35-9.48-4.16-3.08-1.81-5.82-4.24-8.21-7.28-2.39-3.04-4.32-6.82-5.78-11.33-1.46-4.51-2.2-9.92-2.2-16.24s.73-11.73,2.2-16.24c1.46-4.51,3.39-8.28,5.78-11.33,2.39-3.04,5.12-5.47,8.21-7.28,3.08-1.81,6.24-3.2,9.48-4.16,3.24-.96,6.42-1.58,9.54-1.85,3.12-.27,5.91-.4,8.38-.4h17.92ZM183.67,68.97c2.93,0,5.33-.58,7.22-1.73,1.89-1.16,3.37-2.7,4.45-4.62,1.08-1.92,1.83-4.12,2.25-6.59.42-2.47.64-5.01.64-7.63s-.21-5.16-.64-7.63c-.42-2.47-1.18-4.64-2.25-6.53-1.08-1.89-2.56-3.41-4.45-4.57-1.89-1.16-4.3-1.73-7.22-1.73h-29.94c-2.93,0-5.34.58-7.22,1.73-1.89,1.16-3.37,2.68-4.45,4.57-1.08,1.89-1.83,4.06-2.25,6.53-.42,2.47-.64,5.01-.64,7.63s.21,5.16.64,7.63c.42,2.47,1.17,4.66,2.25,6.59,1.08,1.93,2.56,3.47,4.45,4.62,1.89,1.16,4.29,1.73,7.22,1.73h29.94Z"/>
    <path class="cls-1" d="M333.23,48.39c0,7.24-.94,13.29-2.83,18.15-1.89,4.85-4.32,8.8-7.28,11.85-2.97,3.05-6.3,5.36-10,6.94-3.7,1.58-7.36,2.68-10.98,3.29,1.31.46,2.79.79,4.45.98,1.66.19,3.56.29,5.72.29h20.92v19.65h-11.44c-7.24,0-13.29-.58-18.15-1.73-4.85-1.16-8.8-2.68-11.85-4.56-3.05-1.89-5.34-4.01-6.88-6.36-1.54-2.35-2.62-4.76-3.24-7.22h-10.06c-2.47,0-5.26-.13-8.38-.4-3.12-.27-6.28-.88-9.48-1.85-3.2-.96-6.34-2.35-9.42-4.16-3.08-1.81-5.82-4.24-8.21-7.28-2.39-3.04-4.32-6.82-5.78-11.33-1.46-4.51-2.2-9.92-2.2-16.24s.73-11.73,2.2-16.24c1.46-4.51,3.39-8.28,5.78-11.33,2.39-3.04,5.12-5.47,8.21-7.28,3.08-1.81,6.22-3.2,9.42-4.16,3.2-.96,6.36-1.58,9.48-1.85,3.12-.27,5.91-.4,8.38-.4h18.03c2.47,0,5.26.14,8.38.4,3.12.27,6.3.89,9.54,1.85,3.24.96,6.39,2.35,9.48,4.16,3.08,1.81,5.82,4.24,8.21,7.28,2.39,3.05,4.31,6.82,5.78,11.33,1.46,4.51,2.2,9.92,2.2,16.24ZM295.67,68.97c2.93,0,5.33-.58,7.22-1.73,1.89-1.16,3.37-2.7,4.45-4.62,1.08-1.92,1.83-4.12,2.25-6.59.42-2.47.64-5.01.64-7.63s-.21-5.16-.64-7.63c-.42-2.47-1.18-4.64-2.25-6.53-1.08-1.89-2.56-3.41-4.45-4.57-1.89-1.16-4.3-1.73-7.22-1.73h-30.05c-2.93,0-5.32.58-7.17,1.73-1.85,1.16-3.31,2.68-4.39,4.57-1.08,1.89-1.83,4.06-2.25,6.53-.42,2.47-.64,5.01-.64,7.63s.21,5.16.64,7.63c.42,2.47,1.17,4.66,2.25,6.59,1.08,1.93,2.54,3.47,4.39,4.62,1.85,1.16,4.24,1.73,7.17,1.73h30.05Z"/>
    <path class="cls-1" d="M401.65,7.13c2.47,0,5.26.14,8.38.4,3.12.27,6.3.89,9.54,1.85s6.39,2.35,9.48,4.16c3.08,1.81,5.82,4.24,8.21,7.28,2.39,3.05,4.31,6.82,5.78,11.33,1.46,4.51,2.2,9.92,2.2,16.24s-.73,11.73-2.2,16.24c-1.46,4.51-3.39,8.28-5.78,11.33-2.39,3.05-5.13,5.47-8.21,7.28-3.08,1.81-6.24,3.2-9.48,4.16-3.24.96-6.41,1.58-9.54,1.85-3.12.27-5.91.4-8.38.4h-17.92c-2.47,0-5.26-.13-8.38-.4-3.12-.27-6.3-.88-9.54-1.85-3.24-.96-6.4-2.35-9.48-4.16-3.08-1.81-5.82-4.24-8.21-7.28-2.39-3.04-4.32-6.82-5.78-11.33-1.46-4.51-2.2-9.92-2.2-16.24s.73-11.73,2.2-16.24c1.46-4.51,3.39-8.28,5.78-11.33,2.39-3.04,5.12-5.47,8.21-7.28,3.08-1.81,6.24-3.2,9.48-4.16,3.24-.96,6.42-1.58,9.54-1.85,3.12-.27,5.91-.4,8.38-.4h17.92ZM407.66,68.97c2.93,0,5.33-.58,7.22-1.73,1.89-1.16,3.37-2.7,4.45-4.62,1.08-1.92,1.83-4.12,2.25-6.59.42-2.47.64-5.01.64-7.63s-.21-5.16-.64-7.63c-.42-2.47-1.18-4.64-2.25-6.53-1.08-1.89-2.56-3.41-4.45-4.57-1.89-1.16-4.3-1.73-7.22-1.73h-29.94c-2.93,0-5.34.58-7.22,1.73-1.89,1.16-3.37,2.68-4.45,4.57-1.08,1.89-1.83,4.06-2.25,6.53-.42,2.47-.64,5.01-.64,7.63s.21,5.16.64,7.63c.42,2.47,1.17,4.66,2.25,6.59,1.08,1.93,2.56,3.47,4.45,4.62,1.89,1.16,4.29,1.73,7.22,1.73h29.94Z"/>
  </g>
  <g>
    <path class="cls-1" d="M58.2,265.64h-13.05c-3.72,7.03-10.55,11.23-18.46,11.23-11.9,0-21.37-10.01-21.37-22.99v-6.69h9.47v5.82c0,8.86,4.4,15.08,11.97,15.08s11.83-5.61,11.83-15.08v-30.9h9.47v34.49h10.14v9.06Z"/>
    <g>
      <path class="cls-1" d="M159.33,276.87h-.54c-2.17,0-3.92-1.76-3.92-3.92h0c0-2.17,1.76-3.92,3.92-3.92h.54c2.17,0,3.92,1.76,3.92,3.92h0c0,2.17-1.76,3.92-3.92,3.92ZM176.64,252.59c0,3.58-1.01,6.56-2.98,8.93-2.23,2.77-5.34,4.13-9.26,4.13h-8.05v-9.06h6.02c3.18,0,4.8-2.23,4.8-6.63v-14.94h9.47v17.58ZM172.11,276.87h-.61c-2.17,0-3.92-1.76-3.92-3.92h0c0-2.17,1.76-3.92,3.92-3.92h.61c2.17,0,3.92,1.76,3.92,3.92h0c0,2.17-1.76,3.92-3.92,3.92Z"/>
      <path class="cls-1" d="M217.01,265.64h-34.01v-9.06h24.55c0-9.47-5.14-13.66-17.18-13.66v-7.91c5.95,0,10.14.41,12.64,1.28,9.2,3.25,14,10.01,14,20.22v9.13Z"/>
    </g>
    <rect class="cls-1" x="53.58" y="256.78" width="107.85" height="8.86"/>
    <path class="cls-1" d="M267.48,265.71h-8.93c-1.08,7.44-6.22,11.16-15.42,11.16h-1.01v-7.57h.81c3.65,0,5.82-1.35,6.56-3.99-.74.27-2.64.41-5.82.41-8.86,0-15.35-6.42-15.35-15.42s6.36-15.28,15.35-15.28,15.01,6.49,15.01,15.49v6.15h8.79v9.06ZM249.23,256.65v-6.56c0-3.99-2.37-6.56-5.82-6.56s-5.48,2.77-5.48,6.36c0,3.85,2.3,6.76,5.82,6.76h5.48Z"/>
    <g>
      <path class="cls-1" d="M383.67,265.67h-49.23v-9.06h38.95c-.95-7.37-6.56-12.92-13.73-12.92h-17.04l13.52-21.57h11.23l-8.52,12.85h5.21c12.92,1.35,19.61,11.29,19.61,27.18v3.52Z"/>
      <path class="cls-1" d="M420.25,264.32c0,8.32-5.14,12.51-15.49,12.51h-.95v-7.57h.61c3.79,0,7.51-2.64,7.51-6.29-1.28,2.1-3.52,3.11-6.69,3.11-8.72,0-15.21-6.63-15.21-15.69s6.36-15.49,15.21-15.49,15.01,6.69,15.01,15.62v13.79ZM410.78,250.53c0-4.13-2.37-7.03-5.75-7.03s-5.54,2.84-5.54,6.83,2.16,6.96,5.88,6.96c3.38,0,5.41-2.64,5.41-6.76Z"/>
      <path class="cls-1" d="M444.8,259.45c0,6.22-1.56,10.68-4.73,13.46-2.91,2.64-7.64,3.92-14.13,3.92v-7.64c6.22,0,9.33-2.98,9.33-8.93v-25.22h9.53v24.41ZM440.31,229.9h-.77c-2.72,0-4.92-2.2-4.92-4.92h0c0-2.72,2.2-4.92,4.92-4.92h.77c2.72,0,4.92,2.2,4.92,4.92h0c0,2.72-2.2,4.92-4.92,4.92Z"/>
    </g>
    <rect class="cls-1" x="262.97" y="256.65" width="87.93" height="9.03"/>
  </g>
</svg>