<?xml version="1.0" ?>
<!-- Uploaded to: SVG Repo, www.svgrepo.com, Generator: SVG Repo Mixer Tools -->
<svg width="800px" height="800px" viewBox="0 0 20 20" version="1.1" xmlns="http://www.w3.org/2000/svg">
<g id="layer1">
<path d="M 15 3 L 15 17 L 20 17 L 20 3 L 15 3 z M 0 4 L 0 14 L 5 14 L 5 15 L 3 15 L 3 16 L 11 16 L 11 15 L 9 15 L 9 14 L 14 14 L 14 4 L 0 4 z M 16 4 L 19 4 L 19 6 L 16 6 L 16 4 z M 1 5 L 13 5 L 13 13 L 1 13 L 1 5 z M 16 7 L 19 7 L 19 16 L 16 16 L 16 7 z M 17 8 L 17 9 L 18 9 L 18 8 L 17 8 z M 6 14 L 8 14 L 8 15 L 6 15 L 6 14 z" style="fill:#222222; fill-opacity:1; stroke:none; stroke-width:0px;"/>
</g>
</svg>