<?xml version="1.0" encoding="UTF-8"?>
<svg xmlns="http://www.w3.org/2000/svg" xmlns:xlink="http://www.w3.org/1999/xlink" viewBox="0 0 500 500">
  <defs>
    <style>.a{fill:none;}.b{clip-path:url(#a);}.c{fill:#818790;}.d{fill:url(#b);}.e{fill:url(#c);}.f{fill:url(#d);}.g{fill:#474c59;}.h{fill:url(#e);}.i{fill:url(#f);}.j{fill:#b7bac0;}.k{fill:#606372;}.l{fill:#ebeaef;}.m{fill:#454b59;}.n{fill:#8d919a;}.o{fill:url(#g);}.p{fill:url(#h);}.q{fill:url(#i);}.r{fill:url(#j);}.s{fill:url(#k);}.t{fill:#344765;}</style>
    <clipPath id="a">
      <rect class="a" x="25" y="96" width="450" height="307.93"></rect>
    </clipPath>
    <linearGradient id="b" x1="979.32" y1="104.23" x2="832.74" y2="269.44" gradientTransform="matrix(1, 0, 0, -1, -786.66, 358.04)" gradientUnits="userSpaceOnUse">
      <stop offset="0" stop-color="#eeeff1"></stop>
      <stop offset="0.01" stop-color="#edeef0"></stop>
      <stop offset="0.03" stop-color="#edeef0"></stop>
      <stop offset="0.04" stop-color="#edeef0"></stop>
      <stop offset="0.06" stop-color="#edeef0"></stop>
      <stop offset="0.07" stop-color="#edeef0"></stop>
      <stop offset="0.09" stop-color="#edeef0"></stop>
      <stop offset="0.1" stop-color="#edeef0"></stop>
      <stop offset="0.12" stop-color="#ecedef"></stop>
      <stop offset="0.13" stop-color="#ecedef"></stop>
      <stop offset="0.14" stop-color="#ecedef"></stop>
      <stop offset="0.16" stop-color="#ebecee"></stop>
      <stop offset="0.17" stop-color="#ebecee"></stop>
      <stop offset="0.19" stop-color="#ebebed"></stop>
      <stop offset="0.2" stop-color="#eaebed"></stop>
      <stop offset="0.22" stop-color="#eaebec"></stop>
      <stop offset="0.23" stop-color="#e9eaec"></stop>
      <stop offset="0.25" stop-color="#e9eaeb"></stop>
      <stop offset="0.26" stop-color="#e8e9eb"></stop>
      <stop offset="0.28" stop-color="#e7e8ea"></stop>
      <stop offset="0.29" stop-color="#e7e8ea"></stop>
      <stop offset="0.3" stop-color="#e6e7e9"></stop>
      <stop offset="0.32" stop-color="#e6e6e8"></stop>
      <stop offset="0.33" stop-color="#e5e6e8"></stop>
      <stop offset="0.35" stop-color="#e4e5e7"></stop>
      <stop offset="0.36" stop-color="#e3e4e6"></stop>
      <stop offset="0.38" stop-color="#e3e3e5"></stop>
      <stop offset="0.39" stop-color="#e2e3e4"></stop>
      <stop offset="0.41" stop-color="#e1e2e4"></stop>
      <stop offset="0.42" stop-color="#e0e1e3"></stop>
      <stop offset="0.43" stop-color="#dfe0e2"></stop>
      <stop offset="0.45" stop-color="#dedfe1"></stop>
      <stop offset="0.46" stop-color="#dddee0"></stop>
      <stop offset="0.48" stop-color="#dcdddf"></stop>
      <stop offset="0.49" stop-color="#dbdcde"></stop>
      <stop offset="0.51" stop-color="#dadbdd"></stop>
      <stop offset="0.52" stop-color="#d9dadc"></stop>
      <stop offset="0.54" stop-color="#d8d9db"></stop>
      <stop offset="0.55" stop-color="#d7d8da"></stop>
      <stop offset="0.57" stop-color="#d6d7d8"></stop>
      <stop offset="0.58" stop-color="#d5d6d7"></stop>
      <stop offset="0.59" stop-color="#d4d4d6"></stop>
      <stop offset="0.61" stop-color="#d3d3d5"></stop>
      <stop offset="0.62" stop-color="#d1d2d4"></stop>
      <stop offset="0.64" stop-color="#d0d1d2"></stop>
      <stop offset="0.65" stop-color="#cfd0d1"></stop>
      <stop offset="0.67" stop-color="#ceced0"></stop>
      <stop offset="0.68" stop-color="#cccdce"></stop>
      <stop offset="0.7" stop-color="#cbcccd"></stop>
      <stop offset="0.71" stop-color="#cacacc"></stop>
      <stop offset="0.72" stop-color="#c8c9ca"></stop>
      <stop offset="0.74" stop-color="#c7c7c9"></stop>
      <stop offset="0.75" stop-color="#c5c6c7"></stop>
      <stop offset="0.77" stop-color="#c4c4c6"></stop>
      <stop offset="0.78" stop-color="#c3c3c4"></stop>
      <stop offset="0.8" stop-color="#c1c1c3"></stop>
      <stop offset="0.81" stop-color="#c0c0c1"></stop>
      <stop offset="0.83" stop-color="#bebec0"></stop>
      <stop offset="0.84" stop-color="#bcbdbe"></stop>
      <stop offset="0.86" stop-color="#bbbbbc"></stop>
      <stop offset="0.87" stop-color="#b9b9bb"></stop>
      <stop offset="0.88" stop-color="#b8b8b9"></stop>
      <stop offset="0.9" stop-color="#b6b6b7"></stop>
      <stop offset="0.91" stop-color="#b4b4b5"></stop>
      <stop offset="0.93" stop-color="#b2b3b4"></stop>
      <stop offset="0.94" stop-color="#b1b1b2"></stop>
      <stop offset="0.96" stop-color="#afafb0"></stop>
      <stop offset="0.97" stop-color="#adadae"></stop>
      <stop offset="0.99" stop-color="#ababac"></stop>
      <stop offset="1" stop-color="#aaaaab"></stop>
    </linearGradient>
    <linearGradient id="c" x1="999.25" y1="239.54" x2="814.26" y2="132.73" gradientTransform="matrix(1, 0, 0, -1, -786.66, 358.04)" gradientUnits="userSpaceOnUse">
      <stop offset="0" stop-color="#8a8d96"></stop>
      <stop offset="0.3" stop-color="#8a8d96"></stop>
      <stop offset="0.51" stop-color="#aaaeb3"></stop>
      <stop offset="1" stop-color="#aaaeb3"></stop>
    </linearGradient>
    <linearGradient id="d" x1="999.56" y1="133.69" x2="812.75" y2="241.54" gradientTransform="matrix(1, 0, 0, -1, -786.66, 358.04)" gradientUnits="userSpaceOnUse">
      <stop offset="0" stop-color="#fff" stop-opacity="0.78"></stop>
      <stop offset="0.5" stop-color="#aaaeb3" stop-opacity="0"></stop>
      <stop offset="1" stop-color="#aaaeb3" stop-opacity="0"></stop>
    </linearGradient>
    <linearGradient id="e" x1="946.47" y1="123.58" x2="882.48" y2="195.93" gradientTransform="matrix(1, 0, 0, -1, -786.66, 358.04)" gradientUnits="userSpaceOnUse">
      <stop offset="0" stop-color="#b3b6bf"></stop>
      <stop offset="0.03" stop-color="#b4b7c0"></stop>
      <stop offset="0.06" stop-color="#b6b9c2"></stop>
      <stop offset="0.09" stop-color="#b8bbc3"></stop>
      <stop offset="0.12" stop-color="#babdc5"></stop>
      <stop offset="0.15" stop-color="#bbbfc6"></stop>
      <stop offset="0.18" stop-color="#bdc0c8"></stop>
      <stop offset="0.21" stop-color="#bec2c9"></stop>
      <stop offset="0.24" stop-color="#c0c3cb"></stop>
      <stop offset="0.27" stop-color="#c1c5cc"></stop>
      <stop offset="0.3" stop-color="#c3c6cd"></stop>
      <stop offset="0.33" stop-color="#c4c8ce"></stop>
      <stop offset="0.36" stop-color="#c5c9d0"></stop>
      <stop offset="0.39" stop-color="#c7cad1"></stop>
      <stop offset="0.42" stop-color="#c8cbd2"></stop>
      <stop offset="0.45" stop-color="#c9cdd3"></stop>
      <stop offset="0.48" stop-color="#caced4"></stop>
      <stop offset="0.52" stop-color="#cbcfd5"></stop>
      <stop offset="0.55" stop-color="#ccd0d6"></stop>
      <stop offset="0.58" stop-color="#cdd1d6"></stop>
      <stop offset="0.61" stop-color="#ced2d7"></stop>
      <stop offset="0.64" stop-color="#cfd2d8"></stop>
      <stop offset="0.67" stop-color="#cfd3d9"></stop>
      <stop offset="0.7" stop-color="#d0d4d9"></stop>
      <stop offset="0.73" stop-color="#d1d5da"></stop>
      <stop offset="0.76" stop-color="#d1d5da"></stop>
      <stop offset="0.79" stop-color="#d2d6db"></stop>
      <stop offset="0.82" stop-color="#d2d6db"></stop>
      <stop offset="0.85" stop-color="#d3d7dc"></stop>
      <stop offset="0.88" stop-color="#d3d7dc"></stop>
      <stop offset="0.91" stop-color="#d3d7dc"></stop>
      <stop offset="0.94" stop-color="#d3d7dc"></stop>
      <stop offset="0.97" stop-color="#d3d7dc"></stop>
      <stop offset="1" stop-color="#d4d8dd"></stop>
    </linearGradient>
    <linearGradient id="f" x1="831.03" y1="266.74" x2="903.97" y2="205.53" gradientTransform="matrix(1, 0, 0, -1, -786.66, 358.04)" gradientUnits="userSpaceOnUse">
      <stop offset="0" stop-color="#eee"></stop>
      <stop offset="0.2" stop-color="#eee"></stop>
      <stop offset="0.63" stop-color="#e1e3e7"></stop>
      <stop offset="1" stop-color="#e1e3e7"></stop>
    </linearGradient>
    <linearGradient id="g" x1="5223" y1="-2.77" x2="5076.42" y2="162.44" gradientTransform="translate(5530.3 251) rotate(180)" xlink:href="#b"></linearGradient>
    <linearGradient id="h" x1="5211.93" y1="147.54" x2="5026.94" y2="40.73" gradientTransform="translate(5499.3 266) rotate(180)" gradientUnits="userSpaceOnUse">
      <stop offset="0" stop-color="#ececec"></stop>
      <stop offset="0.3" stop-color="#ececec"></stop>
      <stop offset="0.62" stop-color="#a1a3af"></stop>
      <stop offset="1" stop-color="#a1a3af"></stop>
    </linearGradient>
    <linearGradient id="i" x1="5233.24" y1="32.69" x2="5046.43" y2="140.54" gradientTransform="translate(5520.3 257) rotate(180)" xlink:href="#d"></linearGradient>
    <linearGradient id="j" x1="4594.2" y1="1056.45" x2="4580.98" y2="981.45" gradientTransform="translate(4976.3 1226) rotate(180)" gradientUnits="userSpaceOnUse">
      <stop offset="0" stop-color="#7f8290"></stop>
      <stop offset="0.78" stop-color="#d1d2d7"></stop>
      <stop offset="0.83" stop-color="#9697a2"></stop>
      <stop offset="1" stop-color="#9697a2"></stop>
    </linearGradient>
    <linearGradient id="k" x1="5048.71" y1="175.74" x2="5121.65" y2="114.53" gradientTransform="translate(5504.3 267) rotate(180)" gradientUnits="userSpaceOnUse">
      <stop offset="0" stop-color="#b9bbc3"></stop>
      <stop offset="0.2" stop-color="#b9bbc3"></stop>
      <stop offset="0.63" stop-color="#848893"></stop>
      <stop offset="1" stop-color="#848893"></stop>
    </linearGradient>
  </defs>
  <g class="b">
    <path class="c" d="M38.3,96.3l66.6-.2c10.6-.4,18.8,4.8,23.7,13.4l75.1,133.8c1.3,1.9.8,3.5-1.6,3.5H135.3c-10.9-.3-21.6-6.1-28.6-17.3L35,101.5C33.3,97.8,33.8,96.4,38.3,96.3Z"></path>
    <path class="d" d="M40,97.6l65.5.2c10.4-.4,17.3,4.7,22.2,13L201.3,242c1.3,1.9,1.6,3.3-.7,3.3H135.3c-10.7-.4-20.7-6.3-27.6-17.3L36.9,102.7C35,98.7,35.6,97.7,40,97.6Z"></path>
    <path class="e" d="M38.4,100.8l2.2-1.9h62.9c14.4.4,20.7,7.3,27.2,20.5L201.2,244H138.5c-11.6-.3-22.6-5.5-29.6-17.1Z"></path>
    <path class="f" d="M36.7,98.1h66.9c15,0,20.9,7.7,27.4,20.9l70.6,125H138.5c-11.6-.3-22.7-5.5-29.6-17.1Z"></path>
    <path class="g" d="M71.3,160l81.8,15.9L87.9,187.7Z"></path>
    <path class="h" d="M80.3,175.8h72.9l-29.1,47.3c-3.2,5.6-5.3,13.1-1.3,17.2-6.1-3.4-6.5-2.8-13.7-13.1Z"></path>
    <path class="i" d="M38.7,101.9c-2.1-3.4.6-2.9,4.8-3h60c10.7,0,8.5,6.3,4.3,12.1L71.3,159.7Z"></path>
    <path class="c" d="M206.1,245.7l41.1-75.6a2.9,2.9,0,0,1,5.1-.2l41.6,75.8-41.1,75c-2.2,3-4,2.6-5.6-.1Z"></path>
    <path class="j" d="M207.9,245.7l39.4-72.5c1.1-1.9,3.9-2.2,4.9-.1l39.9,72.6-39.4,71.9c-2.1,2.9-3.9,2.5-5.4-.1Z"></path>
    <path class="k" d="M250,245.6V172.4l40.3,73.2Z"></path>
    <path class="l" d="M250,245.6V172.4l-40.3,73.2Z"></path>
    <path class="m" d="M250,245.6v73.2l40.3-73.2Z"></path>
    <path class="n" d="M250,245.6v73.2l-40.3-73.2Z"></path>
    <path class="c" d="M461.7,96.3l-66.6-.2c-10.6-.4-18.8,4.8-23.7,13.4L296.3,243.3c-1.3,1.9-.8,3.5,1.6,3.5h66.8c10.9-.3,21.6-6.1,28.6-17.3l71.7-128C466.7,97.8,466.2,96.4,461.7,96.3Z"></path>
    <path class="o" d="M460,97.6l-65.5.2c-10.4-.4-17.3,4.7-22.2,13L298.7,242c-1.3,1.9-1.6,3.3.7,3.3h65.3c10.7-.4,20.7-6.3,27.6-17.3l70.8-125.3C465,98.7,464.4,97.7,460,97.6Z"></path>
    <path class="p" d="M461.6,100.8l-2.2-1.9H396.5c-14.4.4-20.7,7.3-27.2,20.5L298.8,244h62.7c11.6-.3,22.6-5.5,29.6-17.1Z"></path>
    <path class="q" d="M463.3,98.1H396.4c-15,0-20.9,7.7-27.4,20.9L298.4,244h63.1c11.6-.3,22.7-5.5,29.6-17.1Z"></path>
    <path class="g" d="M428.7,160,347,175.9l65.1,11.8Z"></path>
    <path class="r" d="M419.7,175.8H346.8l29.1,47.3c3.2,5.6,5.3,13.1,1.3,17.2,6.1-3.4,6.5-2.8,13.7-13.1Z"></path>
    <path class="s" d="M461.3,101.9c2.1-3.4-.6-2.9-4.8-3h-60c-10.7,0-8.5,6.3-4.3,12.1l36.5,48.6Z"></path>
    <rect class="t" x="25.1" y="354.3" width="14.6" height="49.15"></rect>
    <rect class="t" x="87.3" y="354.3" width="14.7" height="49.15"></rect>
    <rect class="t" x="25.1" y="389" width="22.9" height="14.51"></rect>
    <rect class="t" x="79.1" y="389" width="22.9" height="14.51"></rect>
    <path class="t" d="M63.1,367.9l10.3,10.3L48.1,403.5,37.8,393.2Z"></path>
    <rect class="t" x="63.9" y="367.2" width="14.6" height="36.51" transform="translate(-251.7 163.2) rotate(-45)"></rect>
    <rect class="t" x="116" y="354.5" width="14.7" height="34.73"></rect>
    <rect class="t" x="178.3" y="354.5" width="14.7" height="34.73"></rect>
    <path class="t" d="M116,389.2l12.1,14.7h52.6l12.1-14.7Z"></path>
    <rect class="t" x="204.4" y="354.5" width="14.6" height="34.73"></rect>
    <path class="t" d="M204.4,389h62.2l-12.4,14.9H216.8Z"></path>
    <rect class="t" x="251.7" y="389" width="14.7" height="14.83"></rect>
    <rect class="t" x="281.4" y="354.5" width="14.6" height="49.4"></rect>
    <rect class="t" x="309.2" y="354.5" width="14.8" height="49.24"></rect>
    <rect class="t" x="371.2" y="354.5" width="14.8" height="49.24"></rect>
    <path class="t" d="M385.4,396.6l-61.3-42.3H309.7l61.4,42.3Z"></path>
    <path class="t" d="M385.4,403.5l-61.3-42.3H309.7l61.4,42.3Z"></path>
    <path class="t" d="M398,365.6l10.3-11.8h56.4l10.2,11.8Z"></path>
    <rect class="t" x="462" y="353.8" width="12.9" height="11.71"></rect>
    <rect class="t" x="398.1" y="365.6" width="14.8" height="24.78"></rect>
    <path class="t" d="M398.1,390.4l11.2,12.8h54.4l11.2-12.8Z"></path>
    <rect class="t" x="462.1" y="390.5" width="12.8" height="12.75"></rect>
    <rect class="t" x="460.2" y="378.5" width="14.8" height="24.78"></rect>
    <path class="t" d="M450.4,385.6l24.5,1.8v-8.9H450.4Z"></path>
  </g>
</svg>
