<svg id="Layer_1" data-name="Layer 1" xmlns="http://www.w3.org/2000/svg" viewBox="0 0 124.78 123.6"><title>Acura symbol logo - Brandlogos.net</title><path d="M446.25,378.2h0c-1-20.5-8.1-35.6-17.6-43.8-10.3-8.9-29.6-12.2-44.6-12.2s-34.2,3.3-44.6,12.2c-9.5,8.2-16.5,23.3-17.7,43.8-1,19.2,3.3,40.1,14.2,52.2,10.5,11.7,31.7,15.4,48.1,15.4s37.6-3.7,48.1-15.4C443,418.5,447.25,397.3,446.25,378.2Zm-65.7-50.8h7v44.8h-7.1Zm-50.4,69.5h0c-.6-7.6-2.9-35.7,8.2-51.8a38.19,38.19,0,0,1,18.9-14.2,79.43,79.43,0,0,1,21.6-3.6c-4.7,11.3-14.2,35.4-15.9,40.9a100.06,100.06,0,0,0-6.1,22.2c-1.2,9.7-3.4,34-3.9,44.6C339.75,428.6,331.75,416.7,330.15,396.9Zm83.5,38.7c-9.1,3.9-20.4,4.7-29.7,4.9s-20.6-1-29.7-4.9c3-8.1,17.6-43,25.6-56.6H388c8.1,13.6,22.6,48.5,25.6,56.6Zm24.2-38.7c-1.7,19.7-9.6,31.7-22.9,38-.6-10.6-2.7-34.9-3.9-44.6a100.06,100.06,0,0,0-6.1-22.2c-1.8-5.4-11.3-29.6-15.9-40.9a79.43,79.43,0,0,1,21.6,3.6,38.64,38.64,0,0,1,18.9,14.2c11.2,16.2,8.9,44.3,8.3,51.9Z" transform="translate(-321.61 -322.2)"/></svg>