<svg xmlns="http://www.w3.org/2000/svg" viewBox="0 0 800 141"><g fill="none" stroke="#f68e92" stroke-width="2"><path d="M126.15 44.66C112.06 15.64 81.21 2.53 50.64 12.03a.23.22 37.3 0 0 .06.44c34.25 1.2 55.2 23.84 57.87 56.78a.39.38 69.3 0 0 .61.28c7.77-5.81 14.01-14.71 17.04-23.89q.16-.51-.07-.98" vector-effect="non-scaling-stroke"/><path d="M72.03 112.92a.35.35 0 0 1-.34-.56c17.18-22.09 22.69-49.94 6.93-74.47Q67.81 21.07 48.15 13.9c-.67-.25-2.05-.1-2.59.16C14.84 28.54 1.3 61.84 13.23 93.62a.36.36 0 0 0 .69-.14c-.62-37.33 19.31-57.3 54.32-65.46a.58.58 0 0 1 .58.92c-8.77 11.02-14.98 24.83-15.96 38.75-1.86 26.25 15.12 51.6 40.36 59.48a2.49 2.48-49.1 0 0 1.81-.13c27-12.82 40.88-39.54 35.52-68.79q-1.07-5.83-3.03-10.41-.55-1.26-.63.11-.59 9.98-1.03 13.46c-3.78 29.5-25.95 46.41-53.83 51.51" vector-effect="non-scaling-stroke"/><path d="M87.07 128.4c-32.34-2.53-52.95-24.93-54.86-56.58a.39.39 0 0 0-.61-.3c-8.29 5.57-13.38 14.31-17.05 23.3a2.31 2.3-47.5 0 0 .08 1.92c14.44 28.81 44.49 41.34 75.16 32.34a.29.29 0 0 0-.08-.57q-1.24 0-2.64-.11" vector-effect="non-scaling-stroke"/></g><path fill="#ed1c24" d="M65.56 0h9.75q33.44 3.49 52.03 29.14C159.9 74.06 130.25 136.92 74.69 141h-9.25C29.75 137.93 3.28 111.03 0 75.44V65.19C3.26 29.49 29.84 3.53 65.56 0Zm60.59 44.66C112.06 15.64 81.21 2.53 50.64 12.03a.23.22 37.3 0 0 .06.44c34.25 1.2 55.2 23.84 57.87 56.78a.39.38 69.3 0 0 .61.28c7.77-5.81 14.01-14.71 17.04-23.89q.16-.51-.07-.98Zm-54.12 68.26a.35.35 0 0 1-.34-.56c17.18-22.09 22.69-49.94 6.93-74.47Q67.81 21.07 48.15 13.9c-.67-.25-2.05-.1-2.59.16C14.84 28.54 1.3 61.84 13.23 93.62a.36.36 0 0 0 .69-.14c-.62-37.33 19.31-57.3 54.32-65.46a.58.58 0 0 1 .58.92c-8.77 11.02-14.98 24.83-15.96 38.75-1.86 26.25 15.12 51.6 40.36 59.48a2.49 2.48-49.1 0 0 1.81-.13c27-12.82 40.88-39.54 35.52-68.79q-1.07-5.83-3.03-10.41-.55-1.26-.63.11-.59 9.98-1.03 13.46c-3.78 29.5-25.95 46.41-53.83 51.51Zm15.04 15.48c-32.34-2.53-52.95-24.93-54.86-56.58a.39.39 0 0 0-.61-.3c-8.29 5.57-13.38 14.31-17.05 23.3a2.31 2.3-47.5 0 0 .08 1.92c14.44 28.81 44.49 41.34 75.16 32.34a.29.29 0 0 0-.08-.57q-1.24 0-2.64-.11Z"/><path fill="#fff" d="M50.64 12.03c30.57-9.5 61.42 3.61 75.51 32.63q.23.47.07.98c-3.03 9.18-9.27 18.08-17.04 23.89a.39.38 69.3 0 1-.61-.28C105.9 36.31 84.95 13.67 50.7 12.47a.23.22 37.3 0 1-.06-.44Z"/><path fill="#fff" d="M72.03 112.92c27.88-5.1 50.05-22.01 53.83-51.51q.44-3.48 1.03-13.46.08-1.37.63-.11 1.96 4.58 3.03 10.41c5.36 29.25-8.52 55.97-35.52 68.79a2.49 2.48-49.1 0 1-1.81.13C67.98 119.29 51 93.94 52.86 67.69c.98-13.92 7.19-27.73 15.96-38.75a.58.58 0 0 0-.58-.92C33.23 36.18 13.3 56.15 13.92 93.48a.36.36 0 0 1-.69.14C1.3 61.84 14.84 28.54 45.56 14.06c.54-.26 1.92-.41 2.59-.16q19.66 7.17 30.47 23.99c15.76 24.53 10.25 52.38-6.93 74.47a.35.35 0 0 0 .34.56Z"/><path fill="#231f20" d="M174.89 69.4q21.18-.46 29.61-.12c4.13.17 5.22-1.41 5.23-5.41q.05-12.81-.08-25.61-.03-3.91-3.9-3.93-23.29-.08-46.66-.09a.34.33 0 0 1-.34-.33V20.48a.74.74 0 0 1 .74-.74q22.66.03 45.41-.01c15.4-.02 21.85 6.83 21.85 22.08 0 8.87 1.5 23.38-1.47 30.83-3.05 7.62-9.53 10.87-17.68 10.87q-24.15-.02-48.37-.01a.48.48 0 0 1-.48-.48V43.91q0-.83.84-.85l14.05-.21a.6.6 0 0 1 .61.6v25.33q0 .64.64.62ZM309.688 65.44a18.29 18.29 0 0 1-18.385 18.193l-35.86-.187A18.29 18.29 0 0 1 237.25 65.06l.143-27.2a18.29 18.29 0 0 1 18.385-18.193l35.86.187A18.29 18.29 0 0 1 309.83 38.24l-.143 27.2Zm-14.412-27.278a3.94 3.94 0 0 0-3.947-3.933l-35.64.062a3.94 3.94 0 0 0-3.933 3.947l.048 27.14a3.94 3.94 0 0 0 3.947 3.933l35.64-.062a3.94 3.94 0 0 0 3.933-3.947l-.048-27.14ZM374.2 56.8q1.41 1.46 2.44 3.05a.51.5 28.5 0 0 .93-.27l-.1-39.25a.58.57-90 0 1 .57-.58h16.21a.75.75 0 0 1 .75.75v61.67q0 1.41-1.42 1.4l-14.9-.1q-.52-.01-.88-.38l-37.87-39.55q-1.18-1.23-1.18.48l.02 39.08a.49.49 0 0 1-.5.49l-15.51-.13a.77.77 0 0 1-.76-.77V20.5a.75.75 0 0 1 .75-.75h15q.49 0 .83.35 17.89 18.29 35.62 36.7ZM415.95 26.44c4.45-5.57 9.27-6.65 16.74-6.67q23.25-.05 46.5-.01a.56.55 0 0 1 .56.55v12.96a.98.98 0 0 1-.98.98q-22.96 0-46.27.01c-2.84 0-3.48 1.98-3.48 4.52Q428.98 52.39 429 66c.01 2.02 1.95 3.23 3.95 3.23q15.4-.02 30.88.35a.65.64-89.1 0 0 .66-.65l.01-8.05q0-.63-.62-.63h-22.63q-.75 0-.75-.75V43.71a.73.73 0 0 1 .73-.73l37.98.01a.54.54 0 0 1 .54.54v38.41q0 1.63-1.62 1.62-23.95-.14-48.88-.01c-7.34.03-13.66-4.91-16.18-11.49q-1.3-3.36-1.32-11.76-.04-12.12.06-24.23.04-4.51 4.14-9.63ZM497.32 33.71c2.29-10.35 10.61-13.89 20.27-13.93q17.19-.07 34.44-.01a.72.72 0 0 1 .72.72V33.5a.75.75 0 0 1-.75.75h-54.24a.45.44 6.2 0 1-.44-.54ZM589.62 43.02l41.47-.06a.62.62 0 0 1 .62.61l.18 16.06a.62.62 0 0 1-.62.63l-41.65-.02a.62.62 0 0 0-.62.62v7.84a.62.62 0 0 0 .62.62l41.51-.09a.62.62 0 0 1 .62.62l.11 13.02a.62.62 0 0 1-.62.62l-61.24.03a.62.62 0 0 1-.62-.62l.1-62.53a.62.62 0 0 1 .62-.62h61.08a.62.62 0 0 1 .62.62l.02 13.26a.62.62 0 0 1-.62.62h-41.58a.62.62 0 0 0-.62.62v7.53a.62.62 0 0 0 .62.62ZM660 43.64v39.44a.42.42 0 0 1-.42.42h-16.16a.42.42 0 0 1-.42-.42V20.17a.42.42 0 0 1 .42-.42h15.81a.42.42 0 0 1 .3.13l38.25 39.79a.42.42 0 0 0 .72-.29V20.17a.42.42 0 0 1 .42-.42h16.66a.42.42 0 0 1 .42.42v62.91a.42.42 0 0 1-.42.42H699.4a.42.42 0 0 1-.3-.13l-38.38-40.02a.42.42 0 0 0-.72.29ZM731.69 38.76c-.03-7.8 4.47-15.25 11.9-17.94q2.78-1.01 9.08-1.04 23.18-.1 46.44 0 .62 0 .62.62l-.04 13.19q-.01.65-.66.65-22.71.02-45.28.01-5.21 0-5.18 5 .08 12.97.27 25.93c.05 3.02 1.74 4.06 4.65 4.06q15.25 0 30.52.09a.27.27 0 0 0 .28-.26l.23-8.21q.02-.67-.66-.68L760.94 60q-.56-.01-.55-.56l.01-15.96a.5.5 0 0 1 .5-.5l37.9.01a.95.95 0 0 1 .95.95q.01 17.61-.01 35.81 0 1.68-.32 3.33-.1.51-.62.51-23.87-.18-47.71-.07c-8.19.04-14.75-3.32-17.84-10.99q-1.47-3.67-1.5-11.9l-.06-21.87ZM513.67 61.21c1.19 5.8.45 14.81.23 21.33a1.07 1.06-88.6 0 1-1.07 1.03l-15.47-.1q-.61-.01-.61-.61V43.75a.81.81 0 0 1 .81-.81l54.47.05a.73.73 0 0 1 .72.73v15.04q0 1.5-1.51 1.5l-36.77-.04a.82.82 0 0 0-.8.99Z"/><path fill="#fff" d="M87.07 128.4q1.4.11 2.64.11a.29.29 0 0 1 .08.57c-30.67 9-60.72-3.53-75.16-32.34a2.31 2.3-47.5 0 1-.08-1.92c3.67-8.99 8.76-17.73 17.05-23.3a.39.39 0 0 1 .61.3c1.91 31.65 22.52 54.05 54.86 56.58Z"/><path fill="#231f20" d="M196.165 134.41a14.07 12.98 90.1 0 1-12.955-14.093 14.07 12.98 90.1 0 1 13.005-14.047 14.07 12.98 90.1 0 1 12.955 14.093 14.07 12.98 90.1 0 1-13.005 14.047Zm.118-3.26a10.81 9.16 89.4 0 0 9.047-10.906 10.81 9.16 89.4 0 0-9.273-10.713 10.81 9.16 89.4 0 0-9.046 10.905 10.81 9.16 89.4 0 0 9.272 10.713ZM259.95 123.32l-6.45.15q-.67.01-.69-.65l-.06-2.15q-.03-.67.65-.67h10.2q.66 0 .65.66l-.02 8.74q0 .56-.44.92c-11 8.82-26.28 2.54-24.06-12.77q1.57-10.82 13.19-11.01c5.28-.09 9.33 2.06 10.72 7.27q.18.67-.47.91l-1.66.59q-.61.22-.96-.34-.73-1.2-1.45-2.39c-2.14-3.58-8.24-3.42-10.98-1.81-11.17 6.6-2.55 27.41 11.97 17.65q.43-.28.43-.8l.01-3.73q0-.58-.58-.57ZM363.82 127.86l.49-2.88a1.3 1.29 4.8 0 0-1.29-1.52l-5.9.06q-.65 0-.71-.64l-.19-2.18q-.06-.7.65-.7h10.26q.62 0 .62.62v8.58a1.67 1.67 0 0 1-.7 1.36c-13.05 9.2-29.04-.32-23.03-16.29 3.55-9.42 18.61-11.19 22.9-1.3a1.51 1.5 59 0 1-.44 1.79c-1.56 1.25-2.59.33-3.28-1.19-1.9-4.2-7.52-4.6-11.08-3.09-11.13 4.73-4.68 27.64 11.11 18.24q.49-.29.59-.86ZM425.825 134.41a14.08 12.98 90.1 0 1-12.955-14.103 14.08 12.98 90.1 0 1 13.005-14.057 14.08 12.98 90.1 0 1 12.955 14.103 14.08 12.98 90.1 0 1-13.005 14.057Zm.108-3.27a10.8 9.17 89.4 0 0 9.057-10.896 10.8 9.17 89.4 0 0-9.283-10.703 10.8 9.17 89.4 0 0-9.056 10.895 10.8 9.17 89.4 0 0 9.282 10.703ZM477.072 134.389a14.07 12.97 89.3 0 1-13.141-13.91 14.07 12.97 89.3 0 1 12.797-14.228 14.07 12.97 89.3 0 1 13.141 13.91 14.07 12.97 89.3 0 1-12.797 14.228Zm-.061-3.24a10.81 9.13 89.2 0 0 8.978-10.936 10.81 9.13 89.2 0 0-9.28-10.682 10.81 9.13 89.2 0 0-8.978 10.936 10.81 9.13 89.2 0 0 9.28 10.682ZM537.02 107.83c5.81-3.2 14.32-1.14 16.36 6q.19.65-.46.8l-2.21.54q-.62.15-.85-.45-2.26-5.9-8.8-4.84c-9.11 1.48-9.38 18.92-.5 20.66q7.38 1.45 9.63-5.43.17-.51.7-.61 1.5-.28 2.55.79.39.4.3.95c-1.02 6.22-8.3 8.78-13.76 7.8-11.87-2.13-12.85-20.77-2.96-26.21Z"/><path fill="#231f20" d="M569.78 134.388a14.06 12.99 90.9 0 1-12.768-14.262 14.06 12.99 90.9 0 1 13.209-13.854 14.06 12.99 90.9 0 1 12.767 14.262 14.06 12.99 90.9 0 1-13.209 13.854Zm.379-3.24a10.81 9.16 89 0 0 8.97-10.968 10.81 9.16 89 0 0-9.348-10.648 10.81 9.16 89 0 0-8.97 10.968 10.81 9.16 89 0 0 9.348 10.648ZM650.833 134.4a14.07 13.01 89.5 0 1-13.132-13.957 14.07 13.01 89.5 0 1 12.886-14.183 14.07 13.01 89.5 0 1 13.133 13.956 14.07 13.01 89.5 0 1-12.887 14.183Zm-.086-3.23a10.81 9.17 89.7 0 0 9.113-10.858 10.81 9.17 89.7 0 0-9.227-10.762 10.81 9.17 89.7 0 0-9.113 10.858 10.81 9.17 89.7 0 0 9.227 10.762ZM761.7 134.4a14.06 13 90.2 0 1-12.95-14.105 14.06 13 90.2 0 1 13.05-14.015 14.06 13 90.2 0 1 12.95 14.105A14.06 13 90.2 0 1 761.7 134.4Zm.114-3.28a10.79 9.17 89.5 0 0 9.076-10.87 10.79 9.17 89.5 0 0-9.264-10.71 10.79 9.17 89.5 0 0-9.076 10.87 10.79 9.17 89.5 0 0 9.264 10.71ZM157.39 107.71a.92.92 0 0 1 .91-.92l9.93-.04a11.83 11.45 89.8 0 1 11.49 11.79l.02 3.38a11.83 11.45 89.8 0 1-11.41 11.87l-9.93.04a.92.92 0 0 1-.93-.92l-.08-25.2Zm3.99 3.15-.06 18.96a.69.69 0 0 0 .68.7l5.86.02a8.19 7.99-89.8 0 0 8.02-8.16l.02-3.96a8.19 7.99-89.8 0 0-7.96-8.22l-5.86-.02a.69.69 0 0 0-.7.68ZM216.91 114.26l.13 18.65a.81.79-12 0 1-.5.75c-2.17.91-3.3.01-3.3-2.25q.01-11.7.01-23.38 0-.52.45-.77 2.64-1.48 4.38 1.12 6.17 9.24 12.2 18.17a.5.5 0 0 0 .91-.29l-.27-18.59q0-.67.66-.71l2.19-.13q.73-.05.73.69v25.47q0 .46-.44.61c-2.22.76-3.45.14-4.71-1.79q-5.86-8.88-11.82-17.74a.34.34 0 0 0-.62.19ZM273.25 122.28v10.74a.73.73 0 0 1-.73.73h-2.28a.73.73 0 0 1-.73-.73l-.04-25.25a.73.73 0 0 1 .73-.74l16.73-.11a.73.73 0 0 1 .74.73v1.87a.73.73 0 0 1-.73.73h-12.95a.73.73 0 0 0-.73.73l-.02 6.72a.73.73 0 0 0 .73.73h11.07a.73.73 0 0 1 .73.78l-.11 1.67a.73.73 0 0 1-.73.68l-10.95-.01a.73.73 0 0 0-.73.73ZM296.51 130.5h14.9a.76.76 0 0 1 .76.76v1.73a.76.76 0 0 1-.76.76h-18.65a.76.76 0 0 1-.76-.76v-25.34a.76.76 0 0 1 .75-.76l17.97-.19a.76.76 0 0 1 .77.76v2.03a.76.76 0 0 1-.76.76h-14.44a.76.76 0 0 0-.76.8l.32 6.57a.76.76 0 0 0 .77.72l13.12-.12a.76.76 0 0 1 .76.76l-.01 1.86a.76.76 0 0 1-.77.75l-13.2-.12a.76.76 0 0 0-.77.76v7.51a.76.76 0 0 0 .76.76ZM320.23 114.49l.03 18.64q0 .63-.64.63l-2.23-.03q-.64 0-.64-.65v-25.06q0-.5.45-.71 2.8-1.31 4.1.63 6.3 9.33 12.43 18.8a.42.42 0 0 0 .77-.22v-18.95q0-.67.67-.71l2.14-.13q.69-.04.69.65v25.63q0 .51-.49.64c-1.89.51-3.25.25-4.42-1.47q-5.94-8.77-11.88-17.98a.53.53 0 0 0-.98.29ZM386.5 113.66v19.93a.37.37 0 0 1-.41.37l-2.76-.29a.37.37 0 0 1-.33-.36v-25.86a.37.37 0 0 1 .34-.37l4.75-.35a.37.37 0 0 1 .38.25l7.09 21.49a.37.37 0 0 0 .7.01l7.23-21.13a.37.37 0 0 1 .32-.25l4.29-.37a.37.37 0 0 1 .4.37v26.53a.37.37 0 0 1-.41.37l-3.06-.32a.37.37 0 0 1-.34-.38l.29-19.26a.37.37 0 0 0-.72-.13l-6.72 19.78a.37.37 0 0 1-.37.25l-2.92-.2a.37.37 0 0 1-.33-.25l-6.7-19.95a.37.37 0 0 0-.72.12ZM441.39 107.01l20.1-.19a.76.76 0 0 1 .77.77l-.03 1.91a.76.76 0 0 1-.76.75h-7.21a.76.76 0 0 0-.76.76v21.98a.76.76 0 0 1-.76.76h-2.23a.76.76 0 0 1-.76-.76v-21.98a.76.76 0 0 0-.76-.76h-7.06a.76.76 0 0 1-.73-.54l-.53-1.72a.76.76 0 0 1 .72-.98ZM493.99 132.77l.21-24.93q0-.5.5-.57c6.09-.82 18.62-2.25 20.46 4.42q2.01 7.24-5.37 9.72a.44.44 0 0 0-.18.72q4.67 4.94 7.72 11.04.21.42-.24.55c-8.08 2.42-6.77-15.14-18.85-11.46q-.54.17-.53.73l.18 10.17q.02.65-.62.61l-2.45-.12q-.83-.04-.83-.88Zm3.72-21.71.02 6.6a1.1 1.1 0 0 0 1.1 1.1l7.49-.01a5.45 4.1-.1 0 0 5.44-4.11v-.6a5.45 4.1-.1 0 0-5.46-4.09l-7.49.01a1.1 1.1 0 0 0-1.1 1.1Z"/><path fill="#231f20" d="M587.29 107.52a.72.71-1.3 0 1 .69-.71c5.04-.15 16.53-1.46 19.56 3.3 2.97 4.66.6 9.94-4.89 11.18a.57.57 0 0 0-.15 1.06c3.21 1.78 6.15 7.48 8.01 10.64q.25.43-.23.59c-2.64.88-4.17.18-5.56-2.24-3.18-5.52-5.59-10.65-13.17-9.2q-.46.09-.47.57l-.06 10.6q0 .78-.78.69l-2.32-.3q-.62-.08-.62-.7l-.01-25.48Zm3.71 3.19.02 7.26a.55.55 0 0 0 .55.55l8.73-.01a4.5 3.78-.1 0 0 4.49-3.79v-.8a4.5 3.78-.1 0 0-4.51-3.77l-8.73.01a.55.55 0 0 0-.55.55ZM617.75 123.49v9.63q0 .63-.62.63h-2.5q-.63 0-.63-.63v-25.57a.69.68-1.8 0 1 .65-.68c4.4-.23 13.85-.83 17.3 1.85 3.39 2.63 3.4 8.54.51 11.73-2.8 3.1-10.34 2.74-14.13 2.5q-.58-.04-.58.54Zm-.03-12.52v8.02a.76.76 0 0 0 .76.76h7.28a5 4.37 0 0 0 5-4.37v-.8a5 4.37 0 0 0-5-4.37h-7.28a.76.76 0 0 0-.76.76ZM671.67 122.62l.11 10.36q.01.77-.76.77h-2.27q-.75 0-.75-.75v-25.24q0-.55.55-.61c5.86-.64 20.2-2.59 20.87 6.26.3 4.04-1.91 7.08-5.93 7.91a.4.4 0 0 0-.22.67q4.7 5.02 7.91 11.15.32.61-.37.61h-3.36q-.53 0-.81-.45-2.49-4.08-5.15-8.01c-2.64-3.9-5.03-3.36-9.23-3.28q-.59.01-.59.61Zm.06-12.13.02 7.8a.47.47 0 0 0 .48.47l8-.03a5.29 3.87-.2 0 0 5.27-3.88v-1a5.29 3.87-.2 0 0-5.31-3.86l-8 .03a.47.47 0 0 0-.46.47ZM708.96 125.75h-9.66q-.46 0-.65.42c-1.23 2.78-1.78 9.13-6.19 7.4q-.46-.18-.28-.64l9.64-25.27q.2-.52.75-.6l2.79-.38q.61-.08.85.49l10.6 25.94q.27.65-.43.65l-2.88-.02q-.66-.01-.9-.62l-2.72-6.75q-.25-.62-.92-.62Zm-8.91-3.66a.34.34 0 0 0 .32.46l7.62-.04a.34.34 0 0 0 .32-.46l-3.87-10.32a.34.34 0 0 0-.64 0l-3.75 10.36ZM722.85 110.26l-7.14-.01q-.57 0-.8-.53-.59-1.36.26-2.57.23-.32.62-.32l19.77.03q.5 0 .53.51l.1 2.14q.04.74-.7.74h-7.24q-.59 0-.66.59c-.97 8.28-.15 17.37-.12 22.37q.01.54-.53.54h-2.69q-.75 0-.75-.75v-22.09q0-.65-.65-.65Z"/><rect width="3.74" height="26.98" x="740.25" y="106.79" fill="#231f20" rx="1.2"/><path fill="#231f20" d="M800 107.31v26.25l-3.33.15q-.49.02-.76-.38l-12.87-19.44q-.54-.81-.54.16v19.2q0 .5-.5.5h-2.46q-.7 0-.7-.71l-.02-25.16q0-.53.5-.72c1.7-.66 3.2-.55 4.32 1.11q6.22 9.22 12.38 18.56a.26.26 0 0 0 .48-.14v-18.97q0-.52.46-.76 1.6-.82 3.04.35Z"/></svg>