<?xml version="1.0" encoding="utf-8"?>
<!-- Generator: Adobe Illustrator 25.0.1, SVG Export Plug-In . SVG Version: 6.00 Build 0)  -->
<svg version="1.0" id="Layer_1" xmlns="http://www.w3.org/2000/svg" xmlns:xlink="http://www.w3.org/1999/xlink" x="0px" y="0px"
	 viewBox="0 0 232 156" style="enable-background:new 0 0 232 156;" xml:space="preserve">
<style type="text/css">
	.st0{fill:none;}
</style>
<path d="M127.9,79.7c6.5-1,11.3-2.1,20.5-4.3c0.3-0.1,0.3-0.2,0-0.2c-4-0.2-7.5-0.5-9.9-0.7c-0.6,0-0.6-0.2-0.4-0.6
	c0.7-0.8,1.3-1,3.1-1s5.6,0,9.6,0.1c8,0.1,15.9-2,25.8-5.2c0.1,0,0.1-0.1,0-0.1c-13.8,0.3-30.5,0.5-33.2,0.5c-0.4,0-0.4-0.3-0.1-0.6
	c0.6-0.7,1.3-1.1,3.6-1.3c3.2-0.2,30.4-1.6,34.8-1.7c5.3-0.2,8.5-1,12.8-4.3c1.5-1.2,3-2.5,4.4-3.9c0.2-0.2,0.2-0.4-0.2-0.4
	c-8.3,0.7-50.3,4.7-52.3,4.9c-3.6,0.4-5.2,1.4-6.6,3.6c-4.4,6.9-6.4,10.3-12.2,14.9C127.5,79.6,127.5,79.8,127.9,79.7z M116,81.3
	c-0.1,0-0.3,0-0.4-0.1c-8-4.8-16.3-12.2-18-20.9c-0.6-3.3,0.7-3.9,2.7-4.6c3.7-1.3,12.2-3.9,15.7-3.9s12,2.6,15.6,3.9
	c2,0.7,3.3,1.3,2.7,4.6c-1.7,8.6-9.9,16-18,20.9C116.3,81.3,116.1,81.3,116,81.3z M104.1,79.7c0.4,0.1,0.4-0.1,0.2-0.3
	c-5.8-4.6-7.8-8-12.2-14.9c-1.3-2.1-3-3.1-6.6-3.6c-2-0.2-44-4.2-52.3-4.9c-0.5,0-0.5,0.1-0.2,0.4c1.4,1.4,2.9,2.7,4.5,3.9
	c4.3,3.3,7.6,4.1,12.8,4.3c4.5,0.2,31.6,1.5,34.8,1.7c2.3,0.2,3,0.5,3.6,1.3c0.3,0.3,0.3,0.6-0.1,0.6c-2.7,0-19.4-0.2-33.2-0.5
	c-0.1,0-0.2,0.1,0,0.1c9.9,3.3,17.7,5.3,25.7,5.2c4,0,8-0.1,9.7-0.1s2.4,0.2,3.1,1c0.2,0.3,0.2,0.5-0.4,0.6
	c-2.4,0.2-5.8,0.4-9.9,0.7c-0.4,0.1-0.4,0.1,0,0.2C92.7,77.6,97.6,78.7,104.1,79.7z M116,83.9c0.2,0,0.3,0,0.5-0.1
	c9.9-4.9,14.5-9.4,20.3-18.8c2.2-3.6,3.4-5.4,8.7-6.2c8.2-1.2,45.5-3.8,52.9-4.8c3.1-0.4,4-0.9,5.5-2.5c0.2-0.2,0.2-0.4-0.2-0.4
	c-0.9,0.1-38.1,1.7-60.5,2.5c-5.5,0.3-7.1,0.2-11.7-1.3c-6.8-2.1-12.9-3.5-15.5-3.5s-8.7,1.4-15.5,3.5c-4.6,1.5-6.2,1.6-11.7,1.3
	c-22.3-0.8-59.5-2.4-60.5-2.5c-0.5,0-0.5,0.2-0.2,0.4c1.5,1.6,2.3,2,5.5,2.5c7.4,1,44.6,3.6,52.9,4.8c5.3,0.8,6.5,2.6,8.7,6.2
	c5.8,9.4,10.4,13.9,20.3,18.8C115.7,83.8,115.8,83.9,116,83.9z"/>
<path d="M129.1,61.2c-0.6-0.3-1.2-0.5-1.2-1c0-0.3,0.2-0.5,0.7-0.5c0.5,0,1,0.1,1.4,0.4l0.1-0.7c-0.5-0.2-0.9-0.2-1.4-0.2
	c-1.2,0-1.9,0.5-1.9,1.3s0.5,1.1,1.2,1.4s1.1,0.5,1.1,0.9s-0.3,0.6-0.8,0.6c-0.5,0-1-0.1-1.4-0.4l-0.1,0.8c0.5,0.1,1,0.2,1.5,0.2
	c1,0,1.8-0.5,1.8-1.3S129.7,61.5,129.1,61.2z M110,59.8l-0.2-0.6h-3.3l-0.1,0.3l0.2,0.1c0.1,0.1,0.2,0.2,0.2,0.3v4h3.2v-0.6h-2.2
	v-1.6h1.9v-0.6h-1.9v-1.4L110,59.8L110,59.8z M122.4,61.2c-0.6-0.3-1.2-0.5-1.2-1c0-0.3,0.2-0.5,0.7-0.5c0.5,0,1,0.1,1.4,0.4
	l0.1-0.7c-0.5-0.2-0.9-0.2-1.4-0.2c-1.2,0-1.8,0.5-1.8,1.3s0.5,1.1,1.2,1.4s1.2,0.5,1.2,0.9s-0.3,0.6-0.8,0.6c-0.5,0-1-0.1-1.4-0.4
	l-0.1,0.8c0.5,0.1,1,0.2,1.5,0.2c1,0,1.8-0.5,1.8-1.3S123.1,61.5,122.4,61.2L122.4,61.2z M124.4,59.5l0.2,0.1c0.1,0,0.2,0.2,0.2,0.3
	v4h1v-4.7h-1.3L124.4,59.5z M119.5,59.8l-0.2-0.6h-3.3l-0.1,0.3l0.2,0.1c0.1,0.1,0.2,0.2,0.2,0.3v4h3.2v-0.6h-2.2v-1.6h1.9v-0.6
	h-1.9v-1.4L119.5,59.8L119.5,59.8z M114.3,62.3l-2.5-3.2h-1l-0.1,0.3l0.2,0.1c0.1,0,0.2,0.2,0.2,0.3v4h0.7v-3l2.4,3h0.8v-4.7h-0.7
	L114.3,62.3z M104.1,61.6l0.4,0.2c0.1,0,0.2,0.1,0.2,0.3v1c-0.2,0.1-0.5,0.2-0.7,0.2c-0.9-0.1-1.6-0.8-1.5-1.8c0,0,0,0,0,0
	c-0.1-0.9,0.5-1.7,1.4-1.8c0.1,0,0.1,0,0.2,0c0.5,0,1,0.2,1.4,0.5l0.2-0.8c-0.5-0.2-1-0.4-1.6-0.4c-1.3-0.2-2.5,0.8-2.6,2.1
	c0,0.1,0,0.3,0,0.4c-0.1,1.3,0.9,2.4,2.1,2.4c0.1,0,0.2,0,0.3,0c0.6,0,1.3-0.1,1.8-0.5v-2.1h-1.5L104.1,61.6z"/>
<path d="M79.6,101.1c-0.1-3.3,2.4-6.1,5.7-6.2c0.1,0,0.2,0,0.4,0c2.2-0.1,4.2,1,5.3,2.9l-1.2,0.9c-1.4-2.1-4.2-2.7-6.4-1.3
	c-2.1,1.4-2.7,4.2-1.3,6.4c0.8,1.3,2.3,2.1,3.8,2.1c1.4,0,2.7-0.5,3.7-1.4V102h-2.5v-1.5h4v4.6c-1.4,1.4-3.3,2.2-5.3,2.2
	c-3.4,0.1-6.1-2.6-6.2-6C79.6,101.3,79.6,101.2,79.6,101.1z"/>
<path d="M94.6,95.1h6.3v1.4h-4.7v3.8h4.3v1.4h-4.3v3.9h4.7v1.5h-6.3V95.1z"/>
<path d="M106.1,98.5v8.6h-1.6V95.1h0.4l8.3,8.6v-8.6h1.6v12.3h-0.4L106.1,98.5z"/>
<path d="M118.9,95.1h6.3v1.4h-4.7v3.8h4.3v1.4h-4.3v3.9h4.7v1.5h-6.3V95.1z"/>
<path d="M127.7,104.2l1.3-0.7c0.4,1.4,1.7,2.3,3.1,2.3c1.2,0.2,2.2-0.7,2.4-1.8c0-0.1,0-0.2,0-0.2c0-1-0.6-1.6-2-2l-1.2-0.3
	c-1.7-0.4-2.9-1.5-2.9-3.2c0-1.9,1.6-3.4,3.5-3.4c0.1,0,0.2,0,0.3,0c1.6,0,3.1,0.9,3.8,2.3l-1.2,0.8c-0.5-1-1.5-1.6-2.6-1.6
	c-1.3,0-2.1,0.7-2.1,1.8c0,0.8,0.6,1.4,1.6,1.7l1.2,0.3c2.1,0.5,3.3,1.6,3.3,3.5c0,2.1-1.7,3.7-4.1,3.7
	C130.1,107.4,128.4,106.1,127.7,104.2z"/>
<path d="M139.4,95.1h1.6v12.1h-1.6V95.1z"/>
<path d="M144,104.2l1.3-0.7c0.4,1.4,1.7,2.3,3.1,2.3c1.2,0.2,2.2-0.7,2.4-1.8c0-0.1,0-0.2,0-0.2c0-1-0.6-1.6-2-2l-1.2-0.3
	c-1.7-0.4-2.9-1.5-2.9-3.2c0-1.9,1.6-3.4,3.5-3.4c0.1,0,0.2,0,0.3,0c1.6,0,3.1,0.9,3.8,2.3L151,98c-0.5-1-1.5-1.6-2.6-1.6
	c-1.3,0-2.1,0.7-2.1,1.8c0,0.8,0.6,1.4,1.6,1.7l1.2,0.3c2.1,0.5,3.3,1.6,3.3,3.5c0,2.1-1.7,3.7-4.1,3.7
	C146.3,107.4,144.6,106.1,144,104.2z"/>
<rect x="22" y="44" class="st0" width="188" height="68"/>
</svg>
