<?xml version="1.0" encoding="UTF-8"?>
<!DOCTYPE svg PUBLIC "-//W3C//DTD SVG 1.1//EN" "http://www.w3.org/Graphics/SVG/1.1/DTD/svg11.dtd">
<svg xmlns="http://www.w3.org/2000/svg" version="1.1" width="600px" height="337px" style="shape-rendering:geometricPrecision; text-rendering:geometricPrecision; image-rendering:optimizeQuality; fill-rule:evenodd; clip-rule:evenodd" xmlns:xlink="http://www.w3.org/1999/xlink">
<g><path style="opacity:1" fill="#ebebeb" d="M 485.5,21.5 C 485.5,20.8333 485.5,20.1667 485.5,19.5C 485.158,18.6618 484.492,18.3284 483.5,18.5C 483.821,16.9519 484.821,16.2852 486.5,16.5C 486.784,18.4147 486.451,20.0813 485.5,21.5 Z"/></g>
<g><path style="opacity:1" fill="#959595" d="M 121.5,22.5 C 118.455,22.4921 115.455,22.1587 112.5,21.5C 112.5,22.5 112.5,23.5 112.5,24.5C 110.815,23.8163 109.815,22.483 109.5,20.5C 110.667,20.1667 111.833,19.8333 113,19.5C 116.024,20.3146 118.857,21.3146 121.5,22.5 Z"/></g>
<g><path style="opacity:1" fill="#7e7e7e" d="M 483.5,18.5 C 484.492,18.3284 485.158,18.6618 485.5,19.5C 480.362,21.1129 475.029,22.1129 469.5,22.5C 473.625,19.6887 478.292,18.3554 483.5,18.5 Z"/></g>
<g><path style="opacity:1" fill="#090909" d="M 485.5,19.5 C 485.5,20.1667 485.5,20.8333 485.5,21.5C 485.5,21.8333 485.5,22.1667 485.5,22.5C 484.167,22.5 483.5,23.1667 483.5,24.5C 481.952,24.8212 481.285,25.8212 481.5,27.5C 479.455,28.9228 478.455,30.9228 478.5,33.5C 478.672,34.4916 478.338,35.1583 477.5,35.5C 475.952,35.8212 475.285,36.8212 475.5,38.5C 473.721,39.6697 472.721,41.3364 472.5,43.5C 470.952,43.8212 470.285,44.8212 470.5,46.5C 468.721,47.6697 467.721,49.3364 467.5,51.5C 467.5,52.1667 467.167,52.5 466.5,52.5C 465.167,52.5 464.5,53.1667 464.5,54.5C 464.5,55.1667 464.167,55.5 463.5,55.5C 462.167,55.5 461.5,56.1667 461.5,57.5C 459.336,57.7215 457.67,58.7215 456.5,60.5C 454.381,60.4677 453.048,61.4677 452.5,63.5C 451.167,63.5 450.5,64.1667 450.5,65.5C 448.958,66.3007 447.292,66.634 445.5,66.5C 443.5,66.5 441.5,66.5 439.5,66.5C 439.5,67.5 439.5,68.5 439.5,69.5C 437.219,69.0773 435.552,69.744 434.5,71.5C 432.91,73.821 430.577,74.821 427.5,74.5C 426.167,74.5 425.5,75.1667 425.5,76.5C 423.621,77.3414 421.621,77.6747 419.5,77.5C 418.167,77.5 417.5,78.1667 417.5,79.5C 415.621,80.3414 413.621,80.6747 411.5,80.5C 410.833,80.5 410.167,80.5 409.5,80.5C 407.821,80.2852 406.821,80.9519 406.5,82.5C 404.517,82.1568 403.183,82.8235 402.5,84.5C 399.083,84.023 396.416,85.023 394.5,87.5C 393.081,88.4511 391.415,88.7845 389.5,88.5C 387.821,88.2852 386.821,88.9519 386.5,90.5C 384.565,91.1495 382.565,91.4828 380.5,91.5C 378.821,91.2852 377.821,91.9519 377.5,93.5C 376.833,93.5 376.167,93.5 375.5,93.5C 374.167,93.5 373.5,94.1667 373.5,95.5C 371.621,96.3414 369.621,96.6747 367.5,96.5C 366.5,96.5 365.5,96.5 364.5,96.5C 361.724,97.4121 359.057,98.4121 356.5,99.5C 354.336,99.7215 352.67,100.721 351.5,102.5C 351.167,102.5 350.833,102.5 350.5,102.5C 349.833,102.5 349.167,102.5 348.5,102.5C 346.517,102.157 345.183,102.824 344.5,104.5C 342.517,104.157 341.183,104.824 340.5,106.5C 339.432,107.434 338.099,107.768 336.5,107.5C 335.833,107.5 335.167,107.5 334.5,107.5C 333.167,107.5 331.833,107.5 330.5,107.5C 330.5,105.5 330.5,103.5 330.5,101.5C 331.873,98.0323 332.873,94.3656 333.5,90.5C 333.5,89.8333 333.5,89.1667 333.5,88.5C 335.515,86.2926 336.515,83.6259 336.5,80.5C 336.5,80.1667 336.5,79.8333 336.5,79.5C 337.5,79.5 338.5,79.5 339.5,79.5C 339.5,78.5 339.5,77.5 339.5,76.5C 343.555,74.4237 347.222,71.757 350.5,68.5C 353.626,68.5149 356.293,67.5149 358.5,65.5C 358.5,64.8333 358.5,64.1667 358.5,63.5C 359.708,62.7659 361.041,62.4326 362.5,62.5C 364.483,62.8432 365.817,62.1765 366.5,60.5C 366.833,60.5 367.167,60.5 367.5,60.5C 369.167,60.5 370.833,60.5 372.5,60.5C 372.5,59.5 372.5,58.5 372.5,57.5C 373.5,57.5 374.5,57.5 375.5,57.5C 376.833,57.5 377.5,56.8333 377.5,55.5C 377.833,55.5 378.167,55.5 378.5,55.5C 382.885,55.831 386.552,54.4976 389.5,51.5C 390.167,51.5 390.833,51.5 391.5,51.5C 394.238,51.2939 396.572,50.2939 398.5,48.5C 400.483,48.8432 401.817,48.1765 402.5,46.5C 402.833,46.5 403.167,46.5 403.5,46.5C 404.167,46.5 404.833,46.5 405.5,46.5C 407.784,45.9708 409.784,44.9708 411.5,43.5C 412.5,43.5 413.5,43.5 414.5,43.5C 416.664,43.2785 418.33,42.2785 419.5,40.5C 423.764,39.9979 427.93,38.9979 432,37.5C 433.03,37.1639 433.53,36.4972 433.5,35.5C 433.833,35.5 434.167,35.5 434.5,35.5C 435.833,35.5 436.5,34.8333 436.5,33.5C 437.167,33.5 437.833,33.5 438.5,33.5C 440.527,33.6621 442.527,33.4955 444.5,33C 445.252,32.3292 445.586,31.4959 445.5,30.5C 446.167,30.5 446.833,30.5 447.5,30.5C 452.509,30.9111 456.843,29.5778 460.5,26.5C 462.179,26.7148 463.179,26.0481 463.5,24.5C 463.833,24.5 464.167,24.5 464.5,24.5C 466.781,24.9227 468.448,24.256 469.5,22.5C 475.029,22.1129 480.362,21.1129 485.5,19.5 Z"/></g>
<g><path style="opacity:1" fill="#070707" d="M 121.5,22.5 C 121.821,24.0481 122.821,24.7148 124.5,24.5C 125.552,26.256 127.219,26.9227 129.5,26.5C 130.167,26.5 130.833,26.5 131.5,26.5C 131.833,26.5 132.167,26.5 132.5,26.5C 133.47,27.6293 134.636,28.6293 136,29.5C 139.532,30.5165 143.032,31.5165 146.5,32.5C 147.5,32.5 148.5,32.5 149.5,32.5C 151.557,34.856 154.224,35.856 157.5,35.5C 158.167,35.5 158.833,35.5 159.5,35.5C 160.183,37.1765 161.517,37.8432 163.5,37.5C 165.415,37.2155 167.081,37.5489 168.5,38.5C 170.416,40.977 173.083,41.977 176.5,41.5C 177.5,41.5 178.5,41.5 179.5,41.5C 179.5,42.8333 180.167,43.5 181.5,43.5C 181.833,43.5 182.167,43.5 182.5,43.5C 185.386,45.9265 188.72,47.5931 192.5,48.5C 193.5,48.5 194.5,48.5 195.5,48.5C 197.565,48.5172 199.565,48.8505 201.5,49.5C 201.5,50.8333 202.167,51.5 203.5,51.5C 203.833,51.5 204.167,51.5 204.5,51.5C 205.923,53.5449 207.923,54.5449 210.5,54.5C 211.167,54.5 211.833,54.5 212.5,54.5C 214.216,54.6287 215.883,54.962 217.5,55.5C 217.821,57.0481 218.821,57.7148 220.5,57.5C 221.552,59.256 223.219,59.9227 225.5,59.5C 226.791,59.2627 227.791,59.596 228.5,60.5C 230.395,62.4426 232.728,63.9426 235.5,65C 239.298,65.9399 242.965,67.1066 246.5,68.5C 247.873,68.3433 249.207,68.51 250.5,69C 251.989,70.4685 253.323,71.9685 254.5,73.5C 255.5,74.5 256.5,75.5 257.5,76.5C 258.492,76.3284 259.158,76.6618 259.5,77.5C 259.5,78.8333 260.167,79.5 261.5,79.5C 261.34,81.1992 261.506,82.8659 262,84.5C 263.55,85.5908 264.717,86.9242 265.5,88.5C 265.5,89.5 265.5,90.5 265.5,91.5C 265.945,95.0911 266.945,98.4244 268.5,101.5C 268.077,103.781 268.744,105.448 270.5,106.5C 270.5,107.833 270.5,109.167 270.5,110.5C 268.784,110.371 267.117,110.038 265.5,109.5C 264.082,107.692 262.082,107.025 259.5,107.5C 253.851,103.359 247.518,100.692 240.5,99.5C 240.167,99.5 239.833,99.5 239.5,99.5C 237.293,97.4851 234.626,96.4851 231.5,96.5C 229.565,95.8505 227.565,95.5172 225.5,95.5C 223.473,93.1525 220.806,91.8192 217.5,91.5C 216.833,91.5 216.167,91.5 215.5,91.5C 214.081,90.5489 212.415,90.2155 210.5,90.5C 210.167,90.5 209.833,90.5 209.5,90.5C 209.179,88.9519 208.179,88.2852 206.5,88.5C 203.794,88.4249 201.127,88.0916 198.5,87.5C 198.5,86.1667 197.833,85.5 196.5,85.5C 196.167,85.5 195.833,85.5 195.5,85.5C 193.293,83.4851 190.626,82.4851 187.5,82.5C 187.53,81.5028 187.03,80.8361 186,80.5C 182.72,79.7178 179.553,78.7178 176.5,77.5C 175.833,77.5 175.167,77.5 174.5,77.5C 172.901,77.7678 171.568,77.4345 170.5,76.5C 170.423,75.2502 169.756,74.4169 168.5,74C 166.866,73.5065 165.199,73.3398 163.5,73.5C 163.167,73.5 162.833,73.5 162.5,73.5C 162.5,72.1667 162.5,70.8333 162.5,69.5C 160.833,69.5 159.167,69.5 157.5,69.5C 155.958,68.6993 154.292,68.366 152.5,68.5C 152.167,68.5 151.833,68.5 151.5,68.5C 151.5,67.1667 150.833,66.5 149.5,66.5C 149.167,66.5 148.833,66.5 148.5,66.5C 147.33,64.7215 145.664,63.7215 143.5,63.5C 143.167,63.5 142.833,63.5 142.5,63.5C 142.5,62.5 142.5,61.5 142.5,60.5C 141.167,60.5 139.833,60.5 138.5,60.5C 138.167,60.5 137.833,60.5 137.5,60.5C 137.5,59.5 137.5,58.5 137.5,57.5C 136.5,57.5 135.5,57.5 134.5,57.5C 134.5,56.1667 133.833,55.5 132.5,55.5C 131.833,55.5 131.5,55.1667 131.5,54.5C 131.5,53.5 131.5,52.5 131.5,51.5C 130.167,51.5 128.833,51.5 127.5,51.5C 127.443,50.391 127.11,49.391 126.5,48.5C 126.5,47.1667 125.833,46.5 124.5,46.5C 123.596,45.791 123.263,44.791 123.5,43.5C 123.279,41.3364 122.279,39.6697 120.5,38.5C 120.715,36.8212 120.048,35.8212 118.5,35.5C 118.279,33.3364 117.279,31.6697 115.5,30.5C 115.545,27.9228 114.545,25.9228 112.5,24.5C 112.5,23.5 112.5,22.5 112.5,21.5C 115.455,22.1587 118.455,22.4921 121.5,22.5 Z"/></g>
<g><path style="opacity:1" fill="#cfcfcf" d="M 121.5,22.5 C 123.781,22.0773 125.448,22.744 126.5,24.5C 125.833,24.5 125.167,24.5 124.5,24.5C 122.821,24.7148 121.821,24.0481 121.5,22.5 Z"/></g>
<g><path style="opacity:1" fill="#b0b0b0" d="M 469.5,22.5 C 468.448,24.256 466.781,24.9227 464.5,24.5C 465.552,22.744 467.219,22.0773 469.5,22.5 Z"/></g>
<g><path style="opacity:1" fill="#f7f8f7" d="M 485.5,22.5 C 485.5,23.8333 484.833,24.5 483.5,24.5C 483.5,23.1667 484.167,22.5 485.5,22.5 Z"/></g>
<g><path style="opacity:1" fill="#595959" d="M 124.5,24.5 C 125.167,24.5 125.833,24.5 126.5,24.5C 127.5,24.5 128.5,24.5 129.5,24.5C 129.5,25.1667 129.5,25.8333 129.5,26.5C 127.219,26.9227 125.552,26.256 124.5,24.5 Z"/></g>
<g><path style="opacity:1" fill="#f7f8f7" d="M 129.5,24.5 C 130.833,24.5 131.5,25.1667 131.5,26.5C 130.833,26.5 130.167,26.5 129.5,26.5C 129.5,25.8333 129.5,25.1667 129.5,24.5 Z"/></g>
<g><path style="opacity:1" fill="#bababa" d="M 463.5,24.5 C 463.179,26.0481 462.179,26.7148 460.5,26.5C 460.821,24.9519 461.821,24.2852 463.5,24.5 Z"/></g>
<g><path style="opacity:1" fill="#898989" d="M 483.5,24.5 C 483.715,26.1788 483.048,27.1788 481.5,27.5C 481.285,25.8212 481.952,24.8212 483.5,24.5 Z"/></g>
<g><path style="opacity:1" fill="#757575" d="M 112.5,24.5 C 114.545,25.9228 115.545,27.9228 115.5,30.5C 113.386,29.216 112.386,27.216 112.5,24.5 Z"/></g>
<g><path style="opacity:1" fill="#f7f8f7" d="M 138.5,27.5 C 139.833,27.5 140.5,28.1667 140.5,29.5C 140.5,28.1667 139.833,27.5 138.5,27.5 Z"/></g>
<g><path style="opacity:1" fill="#6a6a6a" d="M 460.5,26.5 C 456.843,29.5778 452.509,30.9111 447.5,30.5C 451.484,28.3585 455.817,27.0252 460.5,26.5 Z"/></g>
<g><path style="opacity:1" fill="#4a4a4a" d="M 132.5,26.5 C 134.5,26.8333 136.5,27.1667 138.5,27.5C 138.5,28.8333 139.167,29.5 140.5,29.5C 142.5,29.8333 144.5,30.1667 146.5,30.5C 146.5,31.1667 146.5,31.8333 146.5,32.5C 143.032,31.5165 139.532,30.5165 136,29.5C 134.636,28.6293 133.47,27.6293 132.5,26.5 Z"/></g>
<g><path style="opacity:1" fill="#cecece" d="M 146.5,30.5 C 148.179,30.2852 149.179,30.9519 149.5,32.5C 148.5,32.5 147.5,32.5 146.5,32.5C 146.5,31.8333 146.5,31.1667 146.5,30.5 Z"/></g>
<g><path style="opacity:1" fill="#939393" d="M 481.5,27.5 C 481.614,30.216 480.614,32.216 478.5,33.5C 478.455,30.9228 479.455,28.9228 481.5,27.5 Z"/></g>
<g><path style="opacity:1" fill="#9a9a9a" d="M 445.5,30.5 C 445.586,31.4959 445.252,32.3292 444.5,33C 442.527,33.4955 440.527,33.6621 438.5,33.5C 440.663,32.2555 442.997,31.2555 445.5,30.5 Z"/></g>
<g><path style="opacity:1" fill="#acacac" d="M 115.5,30.5 C 117.279,31.6697 118.279,33.3364 118.5,35.5C 116.259,34.7002 115.259,33.0336 115.5,30.5 Z"/></g>
<g><path style="opacity:1" fill="#636363" d="M 149.5,32.5 C 152.917,32.023 155.584,33.023 157.5,35.5C 154.224,35.856 151.557,34.856 149.5,32.5 Z"/></g>
<g><path style="opacity:1" fill="#f7f8f7" d="M 436.5,33.5 C 436.5,34.8333 435.833,35.5 434.5,35.5C 434.5,34.1667 435.167,33.5 436.5,33.5 Z"/></g>
<g><path style="opacity:1" fill="#898989" d="M 118.5,35.5 C 120.048,35.8212 120.715,36.8212 120.5,38.5C 118.952,38.1788 118.285,37.1788 118.5,35.5 Z"/></g>
<g><path style="opacity:1" fill="#e1e1e1" d="M 159.5,35.5 C 161.483,35.1568 162.817,35.8235 163.5,37.5C 161.517,37.8432 160.183,37.1765 159.5,35.5 Z"/></g>
<g><path style="opacity:1" fill="#7d7d7d" d="M 477.5,35.5 C 477.715,37.1788 477.048,38.1788 475.5,38.5C 475.285,36.8212 475.952,35.8212 477.5,35.5 Z"/></g>
<g><path style="opacity:1" fill="#cbcbcb" d="M 168.5,38.5 C 171.626,38.4851 174.293,39.4851 176.5,41.5C 173.083,41.977 170.416,40.977 168.5,38.5 Z"/></g>
<g><path style="opacity:1" fill="#acacac" d="M 433.5,35.5 C 433.53,36.4972 433.03,37.1639 432,37.5C 427.93,38.9979 423.764,39.9979 419.5,40.5C 424,38.9073 428.334,36.574 432.5,33.5C 433.298,33.9569 433.631,34.6236 433.5,35.5 Z"/></g>
<g><path style="opacity:1" fill="#acacac" d="M 120.5,38.5 C 122.279,39.6697 123.279,41.3364 123.5,43.5C 121.259,42.7002 120.259,41.0336 120.5,38.5 Z"/></g>
<g><path style="opacity:1" fill="#f7f8f7" d="M 179.5,41.5 C 180.833,41.5 181.5,42.1667 181.5,43.5C 181.5,42.1667 180.833,41.5 179.5,41.5 Z"/></g>
<g><path style="opacity:1" fill="#ebebeb" d="M 414.5,41.5 C 414.5,42.1667 414.5,42.8333 414.5,43.5C 413.5,43.5 412.5,43.5 411.5,43.5C 411.821,41.9519 412.821,41.2852 414.5,41.5 Z"/></g>
<g><path style="opacity:1" fill="#6c6c6c" d="M 419.5,40.5 C 418.33,42.2785 416.664,43.2785 414.5,43.5C 414.5,42.8333 414.5,42.1667 414.5,41.5C 416.117,40.962 417.784,40.6287 419.5,40.5 Z"/></g>
<g><path style="opacity:1" fill="#8c8c8c" d="M 475.5,38.5 C 475.741,41.0336 474.741,42.7002 472.5,43.5C 472.721,41.3364 473.721,39.6697 475.5,38.5 Z"/></g>
<g><path style="opacity:1" fill="#6f6f6f" d="M 182.5,43.5 C 186.111,43.7507 189.444,44.7507 192.5,46.5C 192.5,47.1667 192.5,47.8333 192.5,48.5C 188.72,47.5931 185.386,45.9265 182.5,43.5 Z"/></g>
<g><path style="opacity:1" fill="#f7f8f7" d="M 405.5,44.5 C 405.5,45.1667 405.5,45.8333 405.5,46.5C 404.833,46.5 404.167,46.5 403.5,46.5C 403.5,45.1667 404.167,44.5 405.5,44.5 Z"/></g>
<g><path style="opacity:1" fill="#7a7a7a" d="M 411.5,43.5 C 409.784,44.9708 407.784,45.9708 405.5,46.5C 405.5,45.8333 405.5,45.1667 405.5,44.5C 407.379,43.6586 409.379,43.3253 411.5,43.5 Z"/></g>
<g><path style="opacity:1" fill="#969696" d="M 472.5,43.5 C 472.715,45.1788 472.048,46.1788 470.5,46.5C 470.285,44.8212 470.952,43.8212 472.5,43.5 Z"/></g>
<g><path style="opacity:1" fill="#c6c7c6" d="M 124.5,46.5 C 125.833,46.5 126.5,47.1667 126.5,48.5C 125.167,48.5 124.5,47.8333 124.5,46.5 Z"/></g>
<g><path style="opacity:1" fill="#ebebeb" d="M 192.5,46.5 C 194.179,46.2852 195.179,46.9519 195.5,48.5C 194.5,48.5 193.5,48.5 192.5,48.5C 192.5,47.8333 192.5,47.1667 192.5,46.5 Z"/></g>
<g><path style="opacity:1" fill="#b0b0b0" d="M 402.5,46.5 C 401.817,48.1765 400.483,48.8432 398.5,48.5C 399.183,46.8235 400.517,46.1568 402.5,46.5 Z"/></g>
<g><path style="opacity:1" fill="#f7f8f7" d="M 201.5,49.5 C 202.833,49.5 203.5,50.1667 203.5,51.5C 203.5,50.1667 202.833,49.5 201.5,49.5 Z"/></g>
<g><path style="opacity:1" fill="#929292" d="M 398.5,48.5 C 396.572,50.2939 394.238,51.2939 391.5,51.5C 393.09,49.179 395.423,48.179 398.5,48.5 Z"/></g>
<g><path style="opacity:1" fill="#cdcdcd" d="M 470.5,46.5 C 470.741,49.0336 469.741,50.7002 467.5,51.5C 467.721,49.3364 468.721,47.6697 470.5,46.5 Z"/></g>
<g><path style="opacity:1" fill="#d5d5d5" d="M 127.5,51.5 C 128.833,51.5 130.167,51.5 131.5,51.5C 131.5,52.5 131.5,53.5 131.5,54.5C 129.878,53.8776 128.545,52.8776 127.5,51.5 Z"/></g>
<g><path style="opacity:1" fill="#6c6c6c" d="M 204.5,51.5 C 206.5,51.8333 208.5,52.1667 210.5,52.5C 210.5,53.1667 210.5,53.8333 210.5,54.5C 207.923,54.5449 205.923,53.5449 204.5,51.5 Z"/></g>
<g><path style="opacity:1" fill="#f7f8f7" d="M 210.5,52.5 C 211.833,52.5 212.5,53.1667 212.5,54.5C 211.833,54.5 211.167,54.5 210.5,54.5C 210.5,53.8333 210.5,53.1667 210.5,52.5 Z"/></g>
<g><path style="opacity:1" fill="#c6c7c6" d="M 466.5,52.5 C 466.5,53.8333 465.833,54.5 464.5,54.5C 464.5,53.1667 465.167,52.5 466.5,52.5 Z"/></g>
<g><path style="opacity:1" fill="#a3a3a3" d="M 389.5,51.5 C 386.552,54.4976 382.885,55.831 378.5,55.5C 381.661,53.0383 385.328,51.7049 389.5,51.5 Z"/></g>
<g><path style="opacity:1" fill="#f7f8f7" d="M 132.5,55.5 C 133.833,55.5 134.5,56.1667 134.5,57.5C 133.167,57.5 132.5,56.8333 132.5,55.5 Z"/></g>
<g><path style="opacity:1" fill="#ebebeb" d="M 217.5,55.5 C 219.179,55.2852 220.179,55.9519 220.5,57.5C 218.821,57.7148 217.821,57.0481 217.5,55.5 Z"/></g>
<g><path style="opacity:1" fill="#f7f8f7" d="M 377.5,55.5 C 377.5,56.8333 376.833,57.5 375.5,57.5C 375.5,56.1667 376.167,55.5 377.5,55.5 Z"/></g>
<g><path style="opacity:1" fill="#f7f8f7" d="M 463.5,55.5 C 463.5,56.8333 462.833,57.5 461.5,57.5C 461.5,56.1667 462.167,55.5 463.5,55.5 Z"/></g>
<g><path style="opacity:1" fill="#9e9e9e" d="M 134.5,57.5 C 135.5,57.5 136.5,57.5 137.5,57.5C 137.5,58.5 137.5,59.5 137.5,60.5C 135.5,60.5 134.5,59.5 134.5,57.5 Z"/></g>
<g><path style="opacity:1" fill="#d2d2d2" d="M 220.5,57.5 C 222.781,57.0773 224.448,57.744 225.5,59.5C 223.219,59.9227 221.552,59.256 220.5,57.5 Z"/></g>
<g><path style="opacity:1" fill="#a4a4a4" d="M 372.5,57.5 C 372.5,58.5 372.5,59.5 372.5,60.5C 370.833,60.5 369.167,60.5 367.5,60.5C 369.045,59.3604 370.712,58.3604 372.5,57.5 Z"/></g>
<g><path style="opacity:1" fill="#bcbcbc" d="M 461.5,57.5 C 460.952,60.0838 459.285,61.0838 456.5,60.5C 457.67,58.7215 459.336,57.7215 461.5,57.5 Z"/></g>
<g><path style="opacity:1" fill="#7b7b7b" d="M 138.5,60.5 C 139.833,60.5 141.167,60.5 142.5,60.5C 142.5,61.5 142.5,62.5 142.5,63.5C 140.368,63.4456 139.035,62.4456 138.5,60.5 Z"/></g>
<g><path style="opacity:1" fill="#979797" d="M 228.5,60.5 C 231.802,61.477 235.135,62.477 238.5,63.5C 241.58,64.819 244.246,66.4857 246.5,68.5C 242.965,67.1066 239.298,65.9399 235.5,65C 232.728,63.9426 230.395,62.4426 228.5,60.5 Z"/></g>
<g><path style="opacity:1" fill="#d7d7d7" d="M 366.5,60.5 C 365.817,62.1765 364.483,62.8432 362.5,62.5C 363.183,60.8235 364.517,60.1568 366.5,60.5 Z"/></g>
<g><path style="opacity:1" fill="#9e9e9e" d="M 456.5,60.5 C 456.306,62.9118 454.973,63.9118 452.5,63.5C 453.048,61.4677 454.381,60.4677 456.5,60.5 Z"/></g>
<g><path style="opacity:1" fill="#f7f8f7" d="M 358.5,63.5 C 358.5,64.1667 358.5,64.8333 358.5,65.5C 357.833,65.5 357.167,65.5 356.5,65.5C 356.5,64.1667 357.167,63.5 358.5,63.5 Z"/></g>
<g><path style="opacity:1" fill="#f7f8f7" d="M 452.5,63.5 C 452.5,64.8333 451.833,65.5 450.5,65.5C 450.5,64.1667 451.167,63.5 452.5,63.5 Z"/></g>
<g><path style="opacity:1" fill="#a3a3a3" d="M 143.5,63.5 C 145.664,63.7215 147.33,64.7215 148.5,66.5C 145.966,66.7409 144.3,65.7409 143.5,63.5 Z"/></g>
<g><path style="opacity:1" fill="#a6a7a6" d="M 149.5,66.5 C 150.833,66.5 151.5,67.1667 151.5,68.5C 150.167,68.5 149.5,67.8333 149.5,66.5 Z"/></g>
<g><path style="opacity:1" fill="#515151" d="M 356.5,65.5 C 357.167,65.5 357.833,65.5 358.5,65.5C 356.293,67.5149 353.626,68.5149 350.5,68.5C 351.784,66.3862 353.784,65.3862 356.5,65.5 Z"/></g>
<g><path style="opacity:1" fill="#4f4f4f" d="M 445.5,66.5 C 444.216,68.6138 442.216,69.6138 439.5,69.5C 439.5,68.5 439.5,67.5 439.5,66.5C 441.5,66.5 443.5,66.5 445.5,66.5 Z"/></g>
<g><path style="opacity:1" fill="#cacaca" d="M 152.5,68.5 C 154.292,68.366 155.958,68.6993 157.5,69.5C 157.5,70.1667 157.5,70.8333 157.5,71.5C 155.336,71.2785 153.67,70.2785 152.5,68.5 Z"/></g>
<g><path style="opacity:1" fill="#464646" d="M 157.5,69.5 C 159.167,69.5 160.833,69.5 162.5,69.5C 162.5,70.8333 162.5,72.1667 162.5,73.5C 160.678,73.1692 159.011,72.5025 157.5,71.5C 157.5,70.8333 157.5,70.1667 157.5,69.5 Z"/></g>
<g><path style="opacity:1" fill="#8f8f8f" d="M 350.5,68.5 C 347.222,71.757 343.555,74.4237 339.5,76.5C 341.728,71.9492 345.395,69.2825 350.5,68.5 Z"/></g>
<g><path style="opacity:1" fill="#a1a1a1" d="M 439.5,69.5 C 438.448,71.256 436.781,71.9227 434.5,71.5C 435.552,69.744 437.219,69.0773 439.5,69.5 Z"/></g>
<g><path style="opacity:1" fill="#909090" d="M 163.5,73.5 C 165.199,73.3398 166.866,73.5065 168.5,74C 169.756,74.4169 170.423,75.2502 170.5,76.5C 167.997,75.7445 165.663,74.7445 163.5,73.5 Z"/></g>
<g><path style="opacity:1" fill="#979797" d="M 254.5,73.5 C 255.5,73.5 256.5,73.5 257.5,73.5C 257.5,74.5 257.5,75.5 257.5,76.5C 256.5,75.5 255.5,74.5 254.5,73.5 Z"/></g>
<g><path style="opacity:1" fill="#c6c7c6" d="M 427.5,74.5 C 427.5,75.8333 426.833,76.5 425.5,76.5C 425.5,75.1667 426.167,74.5 427.5,74.5 Z"/></g>
<g><path style="opacity:1" fill="#f7f8f7" d="M 174.5,77.5 C 175.167,77.5 175.833,77.5 176.5,77.5C 176.5,78.1667 176.5,78.8333 176.5,79.5C 175.167,79.5 174.5,78.8333 174.5,77.5 Z"/></g>
<g><path style="opacity:1" fill="#8d8e8d" d="M 259.5,77.5 C 260.833,77.5 261.5,78.1667 261.5,79.5C 261.5,78.1667 260.833,77.5 259.5,77.5 Z"/></g>
<g><path style="opacity:1" fill="#9e9e9e" d="M 339.5,76.5 C 339.5,77.5 339.5,78.5 339.5,79.5C 338.5,79.5 337.5,79.5 336.5,79.5C 336.5,77.5 337.5,76.5 339.5,76.5 Z"/></g>
<g><path style="opacity:1" fill="#f7f8f7" d="M 419.5,77.5 C 419.5,78.8333 418.833,79.5 417.5,79.5C 417.5,78.1667 418.167,77.5 419.5,77.5 Z"/></g>
<g><path style="opacity:1" fill="#979797" d="M 176.5,77.5 C 179.553,78.7178 182.72,79.7178 186,80.5C 187.03,80.8361 187.53,81.5028 187.5,82.5C 183.762,81.7995 180.095,80.7995 176.5,79.5C 176.5,78.8333 176.5,78.1667 176.5,77.5 Z"/></g>
<g><path style="opacity:1" fill="#f7f8f7" d="M 262.5,80.5 C 263.833,80.5 264.5,81.1667 264.5,82.5C 264.5,81.1667 263.833,80.5 262.5,80.5 Z"/></g>
<g><path style="opacity:1" fill="#767676" d="M 409.5,80.5 C 409.5,81.1667 409.5,81.8333 409.5,82.5C 408.5,82.5 407.5,82.5 406.5,82.5C 406.821,80.9519 407.821,80.2852 409.5,80.5 Z"/></g>
<g><path style="opacity:1" fill="#f7f8f7" d="M 409.5,80.5 C 410.167,80.5 410.833,80.5 411.5,80.5C 411.5,81.8333 410.833,82.5 409.5,82.5C 409.5,81.8333 409.5,81.1667 409.5,80.5 Z"/></g>
<g><path style="opacity:1" fill="#c1c1c1" d="M 187.5,82.5 C 190.626,82.4851 193.293,83.4851 195.5,85.5C 192.083,85.977 189.416,84.977 187.5,82.5 Z"/></g>
<g><path style="opacity:1" fill="#818181" d="M 336.5,80.5 C 336.515,83.6259 335.515,86.2926 333.5,88.5C 333.307,85.1889 334.307,82.5223 336.5,80.5 Z"/></g>
<g><path style="opacity:1" fill="#a9a9a9" d="M 406.5,82.5 C 405.817,84.1765 404.483,84.8432 402.5,84.5C 403.183,82.8235 404.517,82.1568 406.5,82.5 Z"/></g>
<g><path style="opacity:1" fill="#575757" d="M 261.5,79.5 C 262.167,79.5 262.5,79.8333 262.5,80.5C 262.5,81.8333 263.167,82.5 264.5,82.5C 265.15,84.4352 265.483,86.4352 265.5,88.5C 264.717,86.9242 263.55,85.5908 262,84.5C 261.506,82.8659 261.34,81.1992 261.5,79.5 Z"/></g>
<g><path style="opacity:1" fill="#cfcfcf" d="M 402.5,84.5 C 400.104,86.0233 397.438,87.0233 394.5,87.5C 396.416,85.023 399.083,84.023 402.5,84.5 Z"/></g>
<g><path style="opacity:1" fill="#f7f8f7" d="M 196.5,85.5 C 197.833,85.5 198.5,86.1667 198.5,87.5C 197.167,87.5 196.5,86.8333 196.5,85.5 Z"/></g>
<g><path style="opacity:1" fill="#bababa" d="M 206.5,88.5 C 208.179,88.2852 209.179,88.9519 209.5,90.5C 207.821,90.7148 206.821,90.0481 206.5,88.5 Z"/></g>
<g><path style="opacity:1" fill="#ebebeb" d="M 265.5,88.5 C 267.048,88.8212 267.715,89.8212 267.5,91.5C 266.833,91.5 266.167,91.5 265.5,91.5C 265.5,90.5 265.5,89.5 265.5,88.5 Z"/></g>
<g><path style="opacity:1" fill="#f7f8f7" d="M 333.5,88.5 C 333.5,89.1667 333.5,89.8333 333.5,90.5C 332.833,90.5 332.167,90.5 331.5,90.5C 331.5,89.1667 332.167,88.5 333.5,88.5 Z"/></g>
<g><path style="opacity:1" fill="#e3e3e3" d="M 389.5,88.5 C 389.179,90.0481 388.179,90.7148 386.5,90.5C 386.821,88.9519 387.821,88.2852 389.5,88.5 Z"/></g>
<g><path style="opacity:1" fill="#d9d9d9" d="M 210.5,90.5 C 212.415,90.2155 214.081,90.5489 215.5,91.5C 214.849,92.0906 214.182,92.7573 213.5,93.5C 212.452,92.452 211.452,91.452 210.5,90.5 Z"/></g>
<g><path style="opacity:1" fill="#f7f8f7" d="M 215.5,91.5 C 216.167,91.5 216.833,91.5 217.5,91.5C 217.5,92.1667 217.5,92.8333 217.5,93.5C 216.167,93.5 215.5,92.8333 215.5,91.5 Z"/></g>
<g><path style="opacity:1" fill="#dcdcdc" d="M 380.5,91.5 C 380.179,93.0481 379.179,93.7148 377.5,93.5C 377.821,91.9519 378.821,91.2852 380.5,91.5 Z"/></g>
<g><path style="opacity:1" fill="#4f4f4f" d="M 217.5,91.5 C 220.806,91.8192 223.473,93.1525 225.5,95.5C 224.833,95.5 224.167,95.5 223.5,95.5C 221.5,94.8333 219.5,94.1667 217.5,93.5C 217.5,92.8333 217.5,92.1667 217.5,91.5 Z"/></g>
<g><path style="opacity:1" fill="#c6c7c6" d="M 375.5,93.5 C 375.5,94.8333 374.833,95.5 373.5,95.5C 373.5,94.1667 374.167,93.5 375.5,93.5 Z"/></g>
<g><path style="opacity:1" fill="#656565" d="M 265.5,91.5 C 266.167,91.5 266.833,91.5 267.5,91.5C 268.479,94.6248 268.813,97.9581 268.5,101.5C 266.945,98.4244 265.945,95.0911 265.5,91.5 Z"/></g>
<g><path style="opacity:1" fill="#cfcfcf" d="M 223.5,95.5 C 224.167,95.5 224.833,95.5 225.5,95.5C 227.565,95.5172 229.565,95.8505 231.5,96.5C 232.1,97.8999 233.1,98.8999 234.5,99.5C 232.801,99.6602 231.134,99.4935 229.5,99C 227.789,97.2243 225.789,96.0576 223.5,95.5 Z"/></g>
<g><path style="opacity:1" fill="#464646" d="M 231.5,96.5 C 234.626,96.4851 237.293,97.4851 239.5,99.5C 238.5,99.5 237.5,99.5 236.5,99.5C 235.833,99.5 235.167,99.5 234.5,99.5C 233.1,98.8999 232.1,97.8999 231.5,96.5 Z"/></g>
<g><path style="opacity:1" fill="#727272" d="M 331.5,90.5 C 332.167,90.5 332.833,90.5 333.5,90.5C 332.873,94.3656 331.873,98.0323 330.5,101.5C 330.423,97.7852 330.756,94.1185 331.5,90.5 Z"/></g>
<g><path style="opacity:1" fill="#d6d6d6" d="M 364.5,96.5 C 365.5,96.5 366.5,96.5 367.5,96.5C 367.332,99.0514 366.332,99.7181 364.5,98.5C 364.5,97.8333 364.5,97.1667 364.5,96.5 Z"/></g>
<g><path style="opacity:1" fill="#636363" d="M 364.5,96.5 C 364.5,97.1667 364.5,97.8333 364.5,98.5C 362.565,99.1495 360.565,99.4828 358.5,99.5C 357.833,99.5 357.167,99.5 356.5,99.5C 359.057,98.4121 361.724,97.4121 364.5,96.5 Z"/></g>
<g><path style="opacity:1" fill="#eeeeee" d="M 236.5,99.5 C 237.5,99.5 238.5,99.5 239.5,99.5C 239.833,99.5 240.167,99.5 240.5,99.5C 240.5,100.167 240.5,100.833 240.5,101.5C 238.517,101.843 237.183,101.176 236.5,99.5 Z"/></g>
<g><path style="opacity:1" fill="#999999" d="M 356.5,99.5 C 356.5,100.167 356.5,100.833 356.5,101.5C 354.958,102.301 353.292,102.634 351.5,102.5C 352.67,100.721 354.336,99.7215 356.5,99.5 Z"/></g>
<g><path style="opacity:1" fill="#f7f8f7" d="M 356.5,99.5 C 357.167,99.5 357.833,99.5 358.5,99.5C 358.5,100.833 357.833,101.5 356.5,101.5C 356.5,100.833 356.5,100.167 356.5,99.5 Z"/></g>
<g><path style="opacity:1" fill="#e6e6e6" d="M 330.5,101.5 C 330.5,103.5 330.5,105.5 330.5,107.5C 330.5,108.167 330.5,108.833 330.5,109.5C 329.252,108.666 328.585,107.333 328.5,105.5C 328.585,103.667 329.252,102.334 330.5,101.5 Z"/></g>
<g><path style="opacity:1" fill="#ababab" d="M 240.5,99.5 C 247.518,100.692 253.851,103.359 259.5,107.5C 257.801,107.66 256.134,107.494 254.5,107C 249.974,104.756 245.308,102.923 240.5,101.5C 240.5,100.833 240.5,100.167 240.5,99.5 Z"/></g>
<g><path style="opacity:1" fill="#737373" d="M 348.5,102.5 C 348.5,103.167 348.5,103.833 348.5,104.5C 347.5,104.5 346.5,104.5 345.5,104.5C 345.167,104.5 344.833,104.5 344.5,104.5C 345.183,102.824 346.517,102.157 348.5,102.5 Z"/></g>
<g><path style="opacity:1" fill="#f7f8f7" d="M 348.5,102.5 C 349.167,102.5 349.833,102.5 350.5,102.5C 350.5,103.833 349.833,104.5 348.5,104.5C 348.5,103.833 348.5,103.167 348.5,102.5 Z"/></g>
<g><path style="opacity:1" fill="#8d8d8d" d="M 268.5,101.5 C 270.256,102.552 270.923,104.219 270.5,106.5C 268.744,105.448 268.077,103.781 268.5,101.5 Z"/></g>
<g><path style="opacity:1" fill="#d8d8d8" d="M 344.5,104.5 C 344.833,104.5 345.167,104.5 345.5,104.5C 344.448,106.256 342.781,106.923 340.5,106.5C 341.183,104.824 342.517,104.157 344.5,104.5 Z"/></g>
<g><path style="opacity:1" fill="#bcbcbc" d="M 259.5,107.5 C 262.082,107.025 264.082,107.692 265.5,109.5C 262.918,109.975 260.918,109.308 259.5,107.5 Z"/></g>
<g><path style="opacity:1" fill="#6c6c6c" d="M 330.5,107.5 C 331.833,107.5 333.167,107.5 334.5,107.5C 334.5,108.167 334.5,108.833 334.5,109.5C 333.167,109.5 331.833,109.5 330.5,109.5C 330.5,108.833 330.5,108.167 330.5,107.5 Z"/></g>
<g><path style="opacity:1" fill="#f7f8f7" d="M 334.5,107.5 C 335.167,107.5 335.833,107.5 336.5,107.5C 336.5,108.833 335.833,109.5 334.5,109.5C 334.5,108.833 334.5,108.167 334.5,107.5 Z"/></g>
<g><path style="opacity:1" fill="#d1d1d1" d="M 364.5,117.5 C 363.833,117.5 363.167,117.5 362.5,117.5C 362.167,117.5 361.833,117.5 361.5,117.5C 360.5,117.5 359.5,117.5 358.5,117.5C 358.97,116.307 359.97,115.64 361.5,115.5C 363.03,115.64 364.03,116.307 364.5,117.5 Z"/></g>
<g><path style="opacity:1" fill="#f7f8f7" d="M 236.5,117.5 C 236.5,120.5 236.5,123.5 236.5,126.5C 235.235,125.486 234.569,123.986 234.5,122C 234.569,120.014 235.235,118.514 236.5,117.5 Z"/></g>
<g><path style="opacity:1" fill="#040404" d="M 242.5,118.5 C 242.833,118.5 243.167,118.5 243.5,118.5C 243.821,120.048 244.821,120.715 246.5,120.5C 247.167,120.5 247.833,120.5 248.5,120.5C 249.67,122.279 251.336,123.279 253.5,123.5C 253.833,123.5 254.167,123.5 254.5,123.5C 257.509,126.318 261.175,127.651 265.5,127.5C 266.265,129.929 267.931,131.262 270.5,131.5C 270.327,134.983 271.327,137.983 273.5,140.5C 273.5,142.167 273.5,143.833 273.5,145.5C 274.609,161.307 275.609,176.974 276.5,192.5C 276.5,193.833 276.5,195.167 276.5,196.5C 276.5,204.5 276.5,212.5 276.5,220.5C 275.167,220.5 273.833,220.5 272.5,220.5C 272.167,217.5 270.5,215.833 267.5,215.5C 267.5,214.5 267.5,213.5 267.5,212.5C 266.5,212.5 265.5,212.5 264.5,212.5C 264.5,211.5 264.5,210.5 264.5,209.5C 263.5,209.5 262.5,209.5 261.5,209.5C 261.5,208.167 260.833,207.5 259.5,207.5C 259.5,206.5 259.5,205.5 259.5,204.5C 258.5,204.5 257.5,204.5 256.5,204.5C 254.5,204.5 253.5,203.5 253.5,201.5C 253.279,199.336 252.279,197.67 250.5,196.5C 249.508,196.672 248.842,196.338 248.5,195.5C 248.5,194.167 247.833,193.5 246.5,193.5C 246.5,193.167 246.5,192.833 246.5,192.5C 246.672,191.508 246.338,190.842 245.5,190.5C 245.5,190.167 245.5,189.833 245.5,189.5C 245.515,186.374 244.515,183.707 242.5,181.5C 242.5,179.833 242.5,178.167 242.5,176.5C 243.036,173.302 242.369,170.635 240.5,168.5C 240.737,167.209 240.404,166.209 239.5,165.5C 239.5,165.167 239.5,164.833 239.5,164.5C 239.5,162.167 239.5,159.833 239.5,157.5C 239.5,154.833 239.5,152.167 239.5,149.5C 239.647,138.33 238.98,127.997 237.5,118.5C 239.167,118.5 240.833,118.5 242.5,118.5 Z"/></g>
<g><path style="opacity:1" fill="#d3d3d3" d="M 243.5,118.5 C 245.179,118.285 246.179,118.952 246.5,120.5C 244.821,120.715 243.821,120.048 243.5,118.5 Z"/></g>
<g><path style="opacity:1" fill="#373737" d="M 358.5,117.5 C 359.5,117.5 360.5,117.5 361.5,117.5C 359.293,119.515 356.626,120.515 353.5,120.5C 353.5,119.833 353.5,119.167 353.5,118.5C 355.117,117.962 356.784,117.629 358.5,117.5 Z"/></g>
<g><path style="opacity:1" fill="#030303" d="M 361.5,117.5 C 361.833,117.5 362.167,117.5 362.5,117.5C 362.028,131.829 361.695,146.163 361.5,160.5C 359.57,164.373 358.903,168.706 359.5,173.5C 359.5,174.167 359.5,174.833 359.5,175.5C 358.328,178.69 357.328,182.023 356.5,185.5C 356.5,186.167 356.5,186.833 356.5,187.5C 356.5,188.167 356.5,188.833 356.5,189.5C 354.468,190.048 353.468,191.381 353.5,193.5C 351.259,194.3 350.259,195.966 350.5,198.5C 349.167,198.5 348.5,199.167 348.5,200.5C 348.5,200.833 348.5,201.167 348.5,201.5C 347.5,201.5 346.5,201.5 345.5,201.5C 345.5,202.5 345.5,203.5 345.5,204.5C 344.5,204.5 343.5,204.5 342.5,204.5C 342.5,205.5 342.5,206.5 342.5,207.5C 341.167,207.5 340.5,208.167 340.5,209.5C 340.5,211.5 339.5,212.5 337.5,212.5C 336.167,212.5 334.833,212.5 333.5,212.5C 333.169,214.322 332.502,215.989 331.5,217.5C 331.5,217.833 331.5,218.167 331.5,218.5C 330.5,218.5 329.5,218.5 328.5,218.5C 326.51,195.858 325.844,172.858 326.5,149.5C 326.5,146.5 326.5,143.5 326.5,140.5C 328.045,139.77 328.878,138.437 329,136.5C 329.333,136.833 329.667,137.167 330,137.5C 330.495,135.527 330.662,133.527 330.5,131.5C 331.675,131.719 332.675,131.386 333.5,130.5C 334.172,128.84 335.172,127.507 336.5,126.5C 338.179,126.715 339.179,126.048 339.5,124.5C 340.209,123.596 341.209,123.263 342.5,123.5C 344.179,123.715 345.179,123.048 345.5,121.5C 348.237,121.599 350.904,121.265 353.5,120.5C 356.626,120.515 359.293,119.515 361.5,117.5 Z"/></g>
<g><path style="opacity:1" fill="#a2a2a2" d="M 353.5,118.5 C 353.5,119.167 353.5,119.833 353.5,120.5C 350.904,121.265 348.237,121.599 345.5,121.5C 348.057,120.412 350.724,119.412 353.5,118.5 Z"/></g>
<g><path style="opacity:1" fill="#696969" d="M 248.5,120.5 C 250.216,120.629 251.883,120.962 253.5,121.5C 253.5,122.167 253.5,122.833 253.5,123.5C 251.336,123.279 249.67,122.279 248.5,120.5 Z"/></g>
<g><path style="opacity:1" fill="#f7f8f7" d="M 253.5,121.5 C 255.179,121.285 256.179,121.952 256.5,123.5C 255.833,123.5 255.167,123.5 254.5,123.5C 254.167,123.5 253.833,123.5 253.5,123.5C 253.5,122.833 253.5,122.167 253.5,121.5 Z"/></g>
<g><path style="opacity:1" fill="#e3e3e3" d="M 345.5,121.5 C 345.179,123.048 344.179,123.715 342.5,123.5C 342.821,121.952 343.821,121.285 345.5,121.5 Z"/></g>
<g><path style="opacity:1" fill="#676767" d="M 254.5,123.5 C 255.167,123.5 255.833,123.5 256.5,123.5C 260.01,123.853 263.01,125.186 265.5,127.5C 261.175,127.651 257.509,126.318 254.5,123.5 Z"/></g>
<g><path style="opacity:1" fill="#767676" d="M 339.5,124.5 C 339.179,126.048 338.179,126.715 336.5,126.5C 336.821,124.952 337.821,124.285 339.5,124.5 Z"/></g>
<g><path style="opacity:1" fill="#5d5d5d" d="M 362.5,117.5 C 363.167,117.5 363.833,117.5 364.5,117.5C 364.5,124.167 364.5,130.833 364.5,137.5C 362.612,139.988 361.945,142.988 362.5,146.5C 362.825,153.687 362.491,160.687 361.5,167.5C 361.5,165.167 361.5,162.833 361.5,160.5C 361.695,146.163 362.028,131.829 362.5,117.5 Z"/></g>
<g><path style="opacity:1" fill="#b0b0b0" d="M 265.5,127.5 C 268.069,127.738 269.735,129.071 270.5,131.5C 267.931,131.262 266.265,129.929 265.5,127.5 Z"/></g>
<g><path style="opacity:1" fill="#6a6a6a" d="M 336.5,126.5 C 335.172,127.507 334.172,128.84 333.5,130.5C 332.675,131.386 331.675,131.719 330.5,131.5C 330.968,128.034 332.968,126.368 336.5,126.5 Z"/></g>
<g><path style="opacity:1" fill="#404040" d="M 236.5,117.5 C 238.735,117.205 240.735,117.539 242.5,118.5C 240.833,118.5 239.167,118.5 237.5,118.5C 238.98,127.997 239.647,138.33 239.5,149.5C 238.833,149.5 238.167,149.5 237.5,149.5C 236.947,144.518 236.613,139.518 236.5,134.5C 236.5,133.833 236.5,133.167 236.5,132.5C 236.5,130.5 236.5,128.5 236.5,126.5C 236.5,123.5 236.5,120.5 236.5,117.5 Z"/></g>
<g><path style="opacity:1" fill="#f7f8f7" d="M 236.5,132.5 C 236.5,133.167 236.5,133.833 236.5,134.5C 233.833,133.833 233.833,133.167 236.5,132.5 Z"/></g>
<g><path style="opacity:1" fill="#f7f8f7" d="M 328.5,132.5 C 328.5,133.833 327.833,134.5 326.5,134.5C 326.5,133.167 327.167,132.5 328.5,132.5 Z"/></g>
<g><path style="opacity:1" fill="#4d4d4d" d="M 270.5,131.5 C 271.497,131.47 272.164,131.97 272.5,133C 273.322,135.434 273.656,137.934 273.5,140.5C 271.327,137.983 270.327,134.983 270.5,131.5 Z"/></g>
<g><path style="opacity:1" fill="#3c3c3c" d="M 330.5,131.5 C 330.662,133.527 330.495,135.527 330,137.5C 329.667,137.167 329.333,136.833 329,136.5C 328.878,138.437 328.045,139.77 326.5,140.5C 326.5,139.5 326.5,138.5 326.5,137.5C 326.5,136.5 326.5,135.5 326.5,134.5C 327.833,134.5 328.5,133.833 328.5,132.5C 328.842,131.662 329.508,131.328 330.5,131.5 Z"/></g>
<g><path style="opacity:1" fill="#f2f2f2" d="M 326.5,137.5 C 326.5,138.5 326.5,139.5 326.5,140.5C 326.5,143.5 326.5,146.5 326.5,149.5C 325.167,173.833 325.167,198.167 326.5,222.5C 325.791,223.404 324.791,223.737 323.5,223.5C 322.566,197.438 322.9,170.438 324.5,142.5C 325.17,140.709 325.837,139.042 326.5,137.5 Z"/></g>
<g><path style="opacity:1" fill="#e1e1e1" d="M 364.5,137.5 C 365.055,141.012 364.388,144.012 362.5,146.5C 361.945,142.988 362.612,139.988 364.5,137.5 Z"/></g>
<g><path style="opacity:1" fill="#b4b4b4" d="M 273.5,140.5 C 275.256,141.552 275.923,143.219 275.5,145.5C 274.833,145.5 274.167,145.5 273.5,145.5C 273.5,143.833 273.5,142.167 273.5,140.5 Z"/></g>
<g><path style="opacity:1" fill="#404040" d="M 273.5,145.5 C 274.167,145.5 274.833,145.5 275.5,145.5C 276.213,155.484 276.547,165.484 276.5,175.5C 276.5,181.167 276.5,186.833 276.5,192.5C 275.609,176.974 274.609,161.307 273.5,145.5 Z"/></g>
<g><path style="opacity:1" fill="#9c9c9c" d="M 237.5,149.5 C 238.167,149.5 238.833,149.5 239.5,149.5C 239.5,152.167 239.5,154.833 239.5,157.5C 238.833,157.5 238.167,157.5 237.5,157.5C 237.043,154.976 237.043,152.309 237.5,149.5 Z"/></g>
<g><path style="opacity:1" fill="#f7f8f7" d="M 237.5,157.5 C 238.167,157.5 238.833,157.5 239.5,157.5C 239.5,159.833 239.5,162.167 239.5,164.5C 237.656,162.721 236.99,160.388 237.5,157.5 Z"/></g>
<g><path style="opacity:1" fill="#1f1f1f" d="M 326.5,149.5 C 325.844,172.858 326.51,195.858 328.5,218.5C 328.5,219.833 328.5,221.167 328.5,222.5C 327.833,222.5 327.167,222.5 326.5,222.5C 325.167,198.167 325.167,173.833 326.5,149.5 Z"/></g>
<g><path style="opacity:1" fill="#434343" d="M 361.5,160.5 C 361.5,162.833 361.5,165.167 361.5,167.5C 361.5,169.5 361.5,171.5 361.5,173.5C 360.833,173.5 360.167,173.5 359.5,173.5C 358.903,168.706 359.57,164.373 361.5,160.5 Z"/></g>
<g><path style="opacity:1" fill="#c5c5c5" d="M 239.5,165.5 C 240.404,166.209 240.737,167.209 240.5,168.5C 240.5,170.167 240.5,171.833 240.5,173.5C 239.912,171.093 238.912,168.76 237.5,166.5C 237.957,165.702 238.624,165.369 239.5,165.5 Z"/></g>
<g><path style="opacity:1" fill="#494949" d="M 240.5,168.5 C 242.369,170.635 243.036,173.302 242.5,176.5C 241.833,176.5 241.167,176.5 240.5,176.5C 240.5,175.5 240.5,174.5 240.5,173.5C 240.5,171.833 240.5,170.167 240.5,168.5 Z"/></g>
<g><path style="opacity:1" fill="#e9e9e9" d="M 359.5,173.5 C 360.167,173.5 360.833,173.5 361.5,173.5C 361.923,175.781 361.256,177.448 359.5,178.5C 359.5,177.5 359.5,176.5 359.5,175.5C 359.5,174.833 359.5,174.167 359.5,173.5 Z"/></g>
<g><path style="opacity:1" fill="#f7f8f7" d="M 240.5,176.5 C 241.167,176.5 241.833,176.5 242.5,176.5C 242.5,178.167 242.5,179.833 242.5,181.5C 240.744,180.448 240.077,178.781 240.5,176.5 Z"/></g>
<g><path style="opacity:1" fill="#414141" d="M 359.5,175.5 C 359.5,176.5 359.5,177.5 359.5,178.5C 359.326,180.861 358.993,183.194 358.5,185.5C 357.833,185.5 357.167,185.5 356.5,185.5C 357.328,182.023 358.328,178.69 359.5,175.5 Z"/></g>
<g><path style="opacity:1" fill="#8d8d8d" d="M 242.5,181.5 C 244.515,183.707 245.515,186.374 245.5,189.5C 244.325,189.719 243.325,189.386 242.5,188.5C 243.053,186.273 243.053,183.939 242.5,181.5 Z"/></g>
<g><path style="opacity:1" fill="#f7f8f7" d="M 356.5,185.5 C 357.167,185.5 357.833,185.5 358.5,185.5C 358.5,186.833 357.833,187.5 356.5,187.5C 356.5,186.833 356.5,186.167 356.5,185.5 Z"/></g>
<g><path style="opacity:1" fill="#d8d8d8" d="M 276.5,175.5 C 278.461,182.087 279.128,189.087 278.5,196.5C 277.833,196.5 277.167,196.5 276.5,196.5C 276.5,195.167 276.5,193.833 276.5,192.5C 276.5,186.833 276.5,181.167 276.5,175.5 Z"/></g>
<g><path style="opacity:1" fill="#f7f8f7" d="M 245.5,190.5 C 246.338,190.842 246.672,191.508 246.5,192.5C 245.325,192.719 244.325,192.386 243.5,191.5C 243.957,190.702 244.624,190.369 245.5,190.5 Z"/></g>
<g><path style="opacity:1" fill="#9f9f9f" d="M 356.5,189.5 C 356.912,191.973 355.912,193.306 353.5,193.5C 353.468,191.381 354.468,190.048 356.5,189.5 Z"/></g>
<g><path style="opacity:1" fill="#f7f8f7" d="M 246.5,193.5 C 247.833,193.5 248.5,194.167 248.5,195.5C 247.167,195.5 246.5,194.833 246.5,193.5 Z"/></g>
<g><path style="opacity:1" fill="#b2b2b2" d="M 353.5,193.5 C 353.279,195.664 352.279,197.33 350.5,198.5C 350.259,195.966 351.259,194.3 353.5,193.5 Z"/></g>
<g><path style="opacity:1" fill="#9d9d9d" d="M 250.5,196.5 C 252.279,197.67 253.279,199.336 253.5,201.5C 250.916,200.952 249.916,199.285 250.5,196.5 Z"/></g>
<g><path style="opacity:1" fill="#8d8e8d" d="M 350.5,198.5 C 350.5,199.833 349.833,200.5 348.5,200.5C 348.5,199.167 349.167,198.5 350.5,198.5 Z"/></g>
<g><path style="opacity:1" fill="#9e9e9e" d="M 348.5,201.5 C 348.5,203.5 347.5,204.5 345.5,204.5C 345.5,203.5 345.5,202.5 345.5,201.5C 346.5,201.5 347.5,201.5 348.5,201.5 Z"/></g>
<g><path style="opacity:1" fill="#656565" d="M 256.5,204.5 C 257.5,204.5 258.5,204.5 259.5,204.5C 259.5,205.5 259.5,206.5 259.5,207.5C 257.5,207.5 256.5,206.5 256.5,204.5 Z"/></g>
<g><path style="opacity:1" fill="#9e9e9e" d="M 345.5,204.5 C 345.5,206.5 344.5,207.5 342.5,207.5C 342.5,206.5 342.5,205.5 342.5,204.5C 343.5,204.5 344.5,204.5 345.5,204.5 Z"/></g>
<g><path style="opacity:1" fill="#999999" d="M 276.5,196.5 C 277.167,196.5 277.833,196.5 278.5,196.5C 278.5,205.5 278.5,214.5 278.5,223.5C 276.801,223.66 275.134,223.494 273.5,223C 272.748,222.329 272.414,221.496 272.5,220.5C 273.833,220.5 275.167,220.5 276.5,220.5C 276.5,212.5 276.5,204.5 276.5,196.5 Z"/></g>
<g><path style="opacity:1" fill="#c0c0c0" d="M 259.5,207.5 C 260.833,207.5 261.5,208.167 261.5,209.5C 260.167,209.5 259.5,208.833 259.5,207.5 Z"/></g>
<g><path style="opacity:1" fill="#f7f8f7" d="M 342.5,207.5 C 342.5,208.833 341.833,209.5 340.5,209.5C 340.5,208.167 341.167,207.5 342.5,207.5 Z"/></g>
<g><path style="opacity:1" fill="#7f7f7f" d="M 261.5,209.5 C 262.5,209.5 263.5,209.5 264.5,209.5C 264.5,210.5 264.5,211.5 264.5,212.5C 262.5,212.5 261.5,211.5 261.5,209.5 Z"/></g>
<g><path style="opacity:1" fill="#797979" d="M 264.5,212.5 C 265.5,212.5 266.5,212.5 267.5,212.5C 267.5,213.5 267.5,214.5 267.5,215.5C 265.5,215.5 264.5,214.5 264.5,212.5 Z"/></g>
<g><path style="opacity:1" fill="#737373" d="M 337.5,212.5 C 337.586,213.496 337.252,214.329 336.5,215C 335.1,216.438 333.433,217.271 331.5,217.5C 332.502,215.989 333.169,214.322 333.5,212.5C 334.833,212.5 336.167,212.5 337.5,212.5 Z"/></g>
<g><path style="opacity:1" fill="#a9a9a9" d="M 267.5,215.5 C 270.5,215.833 272.167,217.5 272.5,220.5C 271.069,219.918 269.736,219.085 268.5,218C 267.748,217.329 267.414,216.496 267.5,215.5 Z"/></g>
<g><path style="opacity:1" fill="#cccccc" d="M 328.5,218.5 C 329.5,218.5 330.5,218.5 331.5,218.5C 331.446,220.632 330.446,221.965 328.5,222.5C 328.5,221.167 328.5,219.833 328.5,218.5 Z"/></g>
<g><path style="opacity:1" fill="#f7f8f7" d="M 392.5,275.5 C 385.167,275.5 377.833,275.5 370.5,275.5C 373.768,274.178 377.435,273.511 381.5,273.5C 385.565,273.511 389.232,274.178 392.5,275.5 Z"/></g>
<g><path style="opacity:1" fill="#f0f0f0" d="M 469.5,275.5 C 451.833,275.5 434.167,275.5 416.5,275.5C 424.974,274.168 433.807,273.502 443,273.5C 452.193,273.502 461.026,274.168 469.5,275.5 Z"/></g>
<g><path style="opacity:1" fill="#c3c3c3" d="M 494.5,275.5 C 491.833,275.5 489.167,275.5 486.5,275.5C 486.167,275.5 485.833,275.5 485.5,275.5C 486.514,274.235 488.014,273.569 490,273.5C 491.986,273.569 493.486,274.235 494.5,275.5 Z"/></g>
<g><path style="opacity:1" fill="#f3f3f3" d="M 323.5,275.5 C 325.474,285.111 326.141,295.111 325.5,305.5C 322.918,305.975 320.918,305.308 319.5,303.5C 320.833,303.5 322.167,303.5 323.5,303.5C 323.5,294.167 323.5,284.833 323.5,275.5 Z"/></g>
<g><path style="opacity:1" fill="#343434" d="M 339.5,276.5 C 339.5,276.167 339.5,275.833 339.5,275.5C 349.833,275.5 360.167,275.5 370.5,275.5C 377.833,275.5 385.167,275.5 392.5,275.5C 395.034,275.259 396.7,276.259 397.5,278.5C 397.5,279.167 397.5,279.833 397.5,280.5C 395.879,280.213 394.879,279.213 394.5,277.5C 376.179,276.5 357.845,276.167 339.5,276.5 Z"/></g>
<g><path style="opacity:1" fill="#373737" d="M 416.5,275.5 C 434.167,275.5 451.833,275.5 469.5,275.5C 471.19,275.856 472.19,276.856 472.5,278.5C 453.284,276.245 433.95,275.912 414.5,277.5C 414.121,279.213 413.121,280.213 411.5,280.5C 411.5,279.833 411.5,279.167 411.5,278.5C 412.3,276.259 413.966,275.259 416.5,275.5 Z"/></g>
<g><path style="opacity:1" fill="#aeaeae" d="M 118.5,280.5 C 117.833,280.5 117.167,280.5 116.5,280.5C 115.082,278.692 113.082,278.025 110.5,278.5C 110.167,278.5 109.833,278.5 109.5,278.5C 111.988,276.612 114.988,275.945 118.5,276.5C 118.5,277.833 118.5,279.167 118.5,280.5 Z"/></g>
<g><path style="opacity:1" fill="#f7f8f7" d="M 189.5,276.5 C 189.5,277.167 189.5,277.833 189.5,278.5C 188.833,278.5 188.167,278.5 187.5,278.5C 187.5,277.167 188.167,276.5 189.5,276.5 Z"/></g>
<g><path style="opacity:1" fill="#666666" d="M 243.5,276.5 C 243.5,277.167 243.5,277.833 243.5,278.5C 225.5,278.5 207.5,278.5 189.5,278.5C 189.5,277.833 189.5,277.167 189.5,276.5C 207.662,275.392 225.662,275.392 243.5,276.5 Z"/></g>
<g><path style="opacity:1" fill="#adadad" d="M 243.5,276.5 C 246.5,276.833 248.167,278.5 248.5,281.5C 246.646,280.759 244.979,279.759 243.5,278.5C 243.5,277.833 243.5,277.167 243.5,276.5 Z"/></g>
<g><path style="opacity:1" fill="#c6c7c6" d="M 270.5,276.5 C 271.833,276.5 272.5,277.167 272.5,278.5C 272.5,277.167 271.833,276.5 270.5,276.5 Z"/></g>
<g><path style="opacity:1" fill="#070707" d="M 319.5,301.5 C 318.432,300.566 317.099,300.232 315.5,300.5C 315.5,299.833 315.5,299.167 315.5,298.5C 315.5,291.167 315.5,283.833 315.5,276.5C 317.833,276.5 320.167,276.5 322.5,276.5C 322.5,284.833 322.5,293.167 322.5,301.5C 321.5,301.5 320.5,301.5 319.5,301.5 Z"/></g>
<g><path style="opacity:1" fill="#8e8e8e" d="M 339.5,275.5 C 339.5,275.833 339.5,276.167 339.5,276.5C 339.179,278.048 338.179,278.715 336.5,278.5C 336.5,276.5 337.5,275.5 339.5,275.5 Z"/></g>
<g><path style="opacity:1" fill="#070707" d="M 339.5,276.5 C 357.845,276.167 376.179,276.5 394.5,277.5C 394.879,279.213 395.879,280.213 397.5,280.5C 397.5,281.5 397.5,282.5 397.5,283.5C 379.659,283.17 361.992,283.503 344.5,284.5C 343.195,286.397 342.529,288.731 342.5,291.5C 342.529,294.269 343.195,296.603 344.5,298.5C 344.198,301.059 344.532,303.393 345.5,305.5C 346.167,305.5 346.833,305.5 347.5,305.5C 364.5,305.5 381.5,305.5 398.5,305.5C 398.5,307.833 398.5,310.167 398.5,312.5C 387.167,312.5 375.833,312.5 364.5,312.5C 356.167,312.5 347.833,312.5 339.5,312.5C 339.5,311.5 339.5,310.5 339.5,309.5C 338.5,309.5 337.5,309.5 336.5,309.5C 336.5,309.167 336.5,308.833 336.5,308.5C 336.5,307.833 336.5,307.167 336.5,306.5C 336.5,297.833 336.5,289.167 336.5,280.5C 336.5,279.833 336.5,279.167 336.5,278.5C 338.179,278.715 339.179,278.048 339.5,276.5 Z"/></g>
<g><path style="opacity:1" fill="#121212" d="M 472.5,278.5 C 472.5,279.833 473.167,280.5 474.5,280.5C 475.652,285.985 475.818,291.651 475,297.5C 472.063,298.817 469.23,298.817 466.5,297.5C 466.5,292.833 466.5,288.167 466.5,283.5C 450.833,283.5 435.167,283.5 419.5,283.5C 419.176,290.354 419.509,297.021 420.5,303.5C 432.789,305.48 445.456,306.147 458.5,305.5C 458.5,307.833 458.5,310.167 458.5,312.5C 443.833,312.5 429.167,312.5 414.5,312.5C 414.5,311.833 414.167,311.5 413.5,311.5C 413.5,310.833 413.5,310.167 413.5,309.5C 411.724,299.959 411.057,290.293 411.5,280.5C 413.121,280.213 414.121,279.213 414.5,277.5C 433.95,275.912 453.284,276.245 472.5,278.5 Z"/></g>
<g><path style="opacity:1" fill="#121212" d="M 486.5,275.5 C 489.167,275.5 491.833,275.5 494.5,275.5C 494.5,275.833 494.5,276.167 494.5,276.5C 494.5,285.5 494.5,294.5 494.5,303.5C 494.5,306.5 494.5,309.5 494.5,312.5C 492.379,312.675 490.379,312.341 488.5,311.5C 488.5,310.167 487.833,309.5 486.5,309.5C 486.5,309.167 486.5,308.833 486.5,308.5C 486.5,297.5 486.5,286.5 486.5,275.5 Z"/></g>
<g><path style="opacity:1" fill="#f7f8f7" d="M 494.5,276.5 C 496.471,285.105 497.138,294.105 496.5,303.5C 495.833,303.5 495.167,303.5 494.5,303.5C 494.5,294.5 494.5,285.5 494.5,276.5 Z"/></g>
<g><path style="opacity:1" fill="#050505" d="M 171.5,314.5 C 170.5,314.5 169.5,314.5 168.5,314.5C 167.5,313.5 166.5,312.5 165.5,311.5C 165.5,310.833 165.5,310.167 165.5,309.5C 166.055,305.988 165.388,302.988 163.5,300.5C 162.306,299.223 160.64,298.556 158.5,298.5C 148.981,298.687 139.315,298.687 129.5,298.5C 129.5,297.167 129.5,295.833 129.5,294.5C 138.576,294.349 147.409,294.349 156,294.5C 159.576,294.485 162.742,293.818 165.5,292.5C 165.5,287.833 165.5,283.167 165.5,278.5C 167.5,278.5 169.5,278.5 171.5,278.5C 171.5,290.5 171.5,302.5 171.5,314.5 Z"/></g>
<g><path style="opacity:1" fill="#f7f8f7" d="M 187.5,278.5 C 187.5,279.833 186.833,280.5 185.5,280.5C 185.5,279.167 186.167,278.5 187.5,278.5 Z"/></g>
<g><path style="opacity:1" fill="#090909" d="M 187.5,278.5 C 188.167,278.5 188.833,278.5 189.5,278.5C 207.5,278.5 225.5,278.5 243.5,278.5C 244.979,279.759 246.646,280.759 248.5,281.5C 248.5,282.167 248.5,282.833 248.5,283.5C 248.5,292.167 248.5,300.833 248.5,309.5C 246.952,309.821 246.285,310.821 246.5,312.5C 245.5,312.5 244.5,312.5 243.5,312.5C 233.32,312.56 223.32,312.56 213.5,312.5C 212.702,312.957 212.369,313.624 212.5,314.5C 209.833,314.5 207.167,314.5 204.5,314.5C 203.167,311.833 203.167,309.167 204.5,306.5C 216.678,306.828 228.678,306.495 240.5,305.5C 241.787,304.129 242.453,302.295 242.5,300C 242.102,295.134 242.102,290.801 242.5,287C 241.906,286.536 241.239,286.369 240.5,286.5C 233.03,285.169 225.196,284.502 217,284.5C 208.804,284.502 200.97,285.169 193.5,286.5C 192.67,295.324 192.17,304.324 192,313.5C 189.694,312.27 187.527,310.937 185.5,309.5C 185.5,299.833 185.5,290.167 185.5,280.5C 186.833,280.5 187.5,279.833 187.5,278.5 Z"/></g>
<g><path style="opacity:1" fill="#141414" d="M 270.5,276.5 C 270.5,277.833 271.167,278.5 272.5,278.5C 272.833,278.5 273.167,278.5 273.5,278.5C 273.5,279.833 274.167,280.5 275.5,280.5C 277.94,281.238 279.94,282.571 281.5,284.5C 281.821,286.048 282.821,286.715 284.5,286.5C 285.609,286.557 286.609,286.89 287.5,287.5C 287.5,288.833 288.167,289.5 289.5,289.5C 289.833,289.5 290.167,289.5 290.5,289.5C 290.5,290.167 290.5,290.833 290.5,291.5C 292.229,293.727 294.562,294.727 297.5,294.5C 298.167,294.5 298.5,294.833 298.5,295.5C 298.821,297.048 299.821,297.715 301.5,297.5C 301.5,298.5 301.5,299.5 301.5,300.5C 302.5,300.5 303.5,300.5 304.5,300.5C 305.167,300.5 305.833,300.5 306.5,300.5C 306.5,301.5 306.5,302.5 306.5,303.5C 307.5,303.5 308.5,303.5 309.5,303.5C 309.821,305.048 310.821,305.715 312.5,305.5C 313.492,305.328 314.158,305.662 314.5,306.5C 314.821,308.048 315.821,308.715 317.5,308.5C 318.67,310.279 320.336,311.279 322.5,311.5C 318.366,312.485 314.032,312.818 309.5,312.5C 308.656,310.241 306.989,309.241 304.5,309.5C 303.609,308.89 302.609,308.557 301.5,308.5C 300.26,307.341 298.926,306.341 297.5,305.5C 297.5,304.167 296.833,303.5 295.5,303.5C 294.878,301.665 293.544,300.498 291.5,300C 291.833,299.667 292.167,299.333 292.5,299C 291.552,298.517 290.552,298.351 289.5,298.5C 288.833,298.5 288.167,298.5 287.5,298.5C 286.833,298.5 286.5,298.167 286.5,297.5C 286.179,295.952 285.179,295.285 283.5,295.5C 282.508,295.672 281.842,295.338 281.5,294.5C 281.179,292.952 280.179,292.285 278.5,292.5C 277.391,292.443 276.391,292.11 275.5,291.5C 275.5,290.167 274.833,289.5 273.5,289.5C 272.816,287.815 271.483,286.815 269.5,286.5C 268.503,294.138 268.169,301.804 268.5,309.5C 267.5,310.5 266.5,311.5 265.5,312.5C 264.167,312.5 262.833,312.5 261.5,312.5C 261.5,300.5 261.5,288.5 261.5,276.5C 264.5,276.5 267.5,276.5 270.5,276.5 Z"/></g>
<g><path style="opacity:1" fill="#f7f8f7" d="M 273.5,278.5 C 274.833,278.5 275.5,279.167 275.5,280.5C 275.5,279.167 274.833,278.5 273.5,278.5 Z"/></g>
<g><path style="opacity:1" fill="#f7f8f7" d="M 411.5,278.5 C 411.5,279.167 411.5,279.833 411.5,280.5C 410.833,280.5 410.167,280.5 409.5,280.5C 409.5,279.167 410.167,278.5 411.5,278.5 Z"/></g>
<g><path style="opacity:1" fill="#c6c7c6" d="M 472.5,278.5 C 473.833,278.5 474.5,279.167 474.5,280.5C 474.5,279.167 473.833,278.5 472.5,278.5 Z"/></g>
<g><path style="opacity:1" fill="#484848" d="M 109.5,278.5 C 109.833,278.5 110.167,278.5 110.5,278.5C 110.5,290.5 110.5,302.5 110.5,314.5C 111.5,314.5 112.5,314.5 113.5,314.5C 113.5,315.167 113.5,315.833 113.5,316.5C 112.167,316.5 110.833,316.5 109.5,316.5C 109.5,303.833 109.5,291.167 109.5,278.5 Z"/></g>
<g><path style="opacity:1" fill="#080808" d="M 110.5,278.5 C 113.082,278.025 115.082,278.692 116.5,280.5C 116.5,291.167 116.5,301.833 116.5,312.5C 116.672,313.492 116.338,314.158 115.5,314.5C 114.833,314.5 114.167,314.5 113.5,314.5C 112.5,314.5 111.5,314.5 110.5,314.5C 110.5,302.5 110.5,290.5 110.5,278.5 Z"/></g>
<g><path style="opacity:1" fill="#686868" d="M 116.5,280.5 C 117.167,280.5 117.833,280.5 118.5,280.5C 119.143,291.552 118.476,302.219 116.5,312.5C 116.5,301.833 116.5,291.167 116.5,280.5 Z"/></g>
<g><path style="opacity:1" fill="#767676" d="M 173.5,314.5 C 172.833,314.5 172.167,314.5 171.5,314.5C 171.5,302.5 171.5,290.5 171.5,278.5C 169.5,278.5 167.5,278.5 165.5,278.5C 165.5,283.167 165.5,287.833 165.5,292.5C 152.833,292.5 140.167,292.5 127.5,292.5C 139.322,291.505 151.322,291.172 163.5,291.5C 163.5,286.5 163.5,281.5 163.5,276.5C 167.351,275.971 170.851,276.638 174,278.5C 174.826,290.674 174.66,302.674 173.5,314.5 Z"/></g>
<g><path style="opacity:1" fill="#686868" d="M 409.5,280.5 C 410.167,280.5 410.833,280.5 411.5,280.5C 411.057,290.293 411.724,299.959 413.5,309.5C 412.833,309.5 412.167,309.5 411.5,309.5C 411.5,309.167 411.5,308.833 411.5,308.5C 411.5,307.167 410.833,306.5 409.5,306.5C 409.31,297.878 409.31,289.212 409.5,280.5 Z"/></g>
<g><path style="opacity:1" fill="#6f6f6f" d="M 336.5,280.5 C 336.5,289.167 336.5,297.833 336.5,306.5C 335.833,306.5 335.167,306.5 334.5,306.5C 333.864,297.435 334.53,288.769 336.5,280.5 Z"/></g>
<g><path style="opacity:1" fill="#a4a4a4" d="M 185.5,280.5 C 185.5,290.167 185.5,299.833 185.5,309.5C 185.5,310.167 185.5,310.833 185.5,311.5C 184.912,309.093 183.912,306.76 182.5,304.5C 185.028,303.184 185.028,302.017 182.5,301C 185.167,300 185.167,299 182.5,298C 185.167,297 185.167,296 182.5,295C 185.167,294 185.167,293 182.5,292C 185.028,290.983 185.028,289.816 182.5,288.5C 183.025,287.808 183.692,287.308 184.5,287C 183.692,286.692 183.025,286.192 182.5,285.5C 183.793,283.897 184.793,282.231 185.5,280.5 Z"/></g>
<g><path style="opacity:1" fill="#f7f8f7" d="M 248.5,283.5 C 249.825,287.445 250.492,291.778 250.5,296.5C 250.492,301.222 249.825,305.555 248.5,309.5C 248.5,300.833 248.5,292.167 248.5,283.5 Z"/></g>
<g><path style="opacity:1" fill="#414141" d="M 323.5,275.5 C 323.5,284.833 323.5,294.167 323.5,303.5C 322.167,303.5 320.833,303.5 319.5,303.5C 319.5,302.833 319.5,302.167 319.5,301.5C 320.5,301.5 321.5,301.5 322.5,301.5C 322.5,293.167 322.5,284.833 322.5,276.5C 320.167,276.5 317.833,276.5 315.5,276.5C 315.5,283.833 315.5,291.167 315.5,298.5C 314.508,291.018 314.175,283.352 314.5,275.5C 317.5,275.5 320.5,275.5 323.5,275.5 Z"/></g>
<g><path style="opacity:1" fill="#7c7c7c" d="M 397.5,278.5 C 398.461,280.265 398.795,282.265 398.5,284.5C 380.833,284.5 363.167,284.5 345.5,284.5C 345.5,291.5 345.5,298.5 345.5,305.5C 344.532,303.393 344.198,301.059 344.5,298.5C 344.5,293.833 344.5,289.167 344.5,284.5C 361.992,283.503 379.659,283.17 397.5,283.5C 397.5,282.5 397.5,281.5 397.5,280.5C 397.5,279.833 397.5,279.167 397.5,278.5 Z"/></g>
<g><path style="opacity:1" fill="#666666" d="M 240.5,286.5 C 240.167,286.5 239.833,286.5 239.5,286.5C 224.786,286.725 210.119,286.725 195.5,286.5C 194.833,286.5 194.167,286.5 193.5,286.5C 200.97,285.169 208.804,284.502 217,284.5C 225.196,284.502 233.03,285.169 240.5,286.5 Z"/></g>
<g><path style="opacity:1" fill="#898989" d="M 281.5,284.5 C 283.179,284.285 284.179,284.952 284.5,286.5C 282.821,286.715 281.821,286.048 281.5,284.5 Z"/></g>
<g><path style="opacity:1" fill="#2d2d2d" d="M 344.5,284.5 C 344.5,289.167 344.5,293.833 344.5,298.5C 343.195,296.603 342.529,294.269 342.5,291.5C 342.529,288.731 343.195,286.397 344.5,284.5 Z"/></g>
<g><path style="opacity:1" fill="#848484" d="M 466.5,297.5 C 464.57,293.627 463.903,289.294 464.5,284.5C 449.833,284.5 435.167,284.5 420.5,284.5C 420.5,290.833 420.5,297.167 420.5,303.5C 419.509,297.021 419.176,290.354 419.5,283.5C 435.167,283.5 450.833,283.5 466.5,283.5C 466.5,288.167 466.5,292.833 466.5,297.5 Z"/></g>
<g><path style="opacity:1" fill="#494949" d="M 193.5,286.5 C 193.5,295.833 193.5,305.167 193.5,314.5C 192.167,314.5 190.833,314.5 189.5,314.5C 187.878,313.878 186.545,312.878 185.5,311.5C 185.5,310.833 185.5,310.167 185.5,309.5C 187.527,310.937 189.694,312.27 192,313.5C 192.17,304.324 192.67,295.324 193.5,286.5 Z"/></g>
<g><path style="opacity:1" fill="#f7f8f7" d="M 193.5,286.5 C 194.167,286.5 194.833,286.5 195.5,286.5C 196.139,296.227 195.472,305.56 193.5,314.5C 193.5,305.167 193.5,295.833 193.5,286.5 Z"/></g>
<g><path style="opacity:1" fill="#2b2c2b" d="M 240.5,286.5 C 241.239,286.369 241.906,286.536 242.5,287C 242.102,290.801 242.102,295.134 242.5,300C 242.453,302.295 241.787,304.129 240.5,305.5C 240.5,299.167 240.5,292.833 240.5,286.5 Z"/></g>
<g><path style="opacity:1" fill="#a3a3a3" d="M 270.5,276.5 C 267.5,276.5 264.5,276.5 261.5,276.5C 261.5,288.5 261.5,300.5 261.5,312.5C 262.833,312.5 264.167,312.5 265.5,312.5C 265.5,313.167 265.5,313.833 265.5,314.5C 265.167,314.5 264.833,314.5 264.5,314.5C 263.5,314.5 262.5,314.5 261.5,314.5C 259.519,301.876 258.852,288.876 259.5,275.5C 263.371,275.185 267.038,275.518 270.5,276.5 Z"/></g>
<g><path style="opacity:1" fill="#f2f2f2" d="M 273.5,289.5 C 272.5,289.5 271.5,289.5 270.5,289.5C 271.126,296.584 270.459,303.25 268.5,309.5C 268.169,301.804 268.503,294.138 269.5,286.5C 271.483,286.815 272.816,287.815 273.5,289.5 Z"/></g>
<g><path style="opacity:1" fill="#f7f8f7" d="M 287.5,287.5 C 288.833,287.5 289.5,288.167 289.5,289.5C 289.5,288.167 288.833,287.5 287.5,287.5 Z"/></g>
<g><path style="opacity:1" fill="#d3d3d3" d="M 273.5,289.5 C 274.833,289.5 275.5,290.167 275.5,291.5C 275.44,292.043 275.107,292.376 274.5,292.5C 273.614,291.675 273.281,290.675 273.5,289.5 Z"/></g>
<g><path style="opacity:1" fill="#f7f8f7" d="M 290.5,289.5 C 291.833,289.5 292.5,290.167 292.5,291.5C 291.833,291.5 291.167,291.5 290.5,291.5C 290.5,290.833 290.5,290.167 290.5,289.5 Z"/></g>
<g><path style="opacity:1" fill="#6c6c6c" d="M 397.5,291.5 C 397.5,291.833 397.5,292.167 397.5,292.5C 391.167,292.5 384.833,292.5 378.5,292.5C 378.5,293.5 378.5,294.5 378.5,295.5C 377.566,294.432 377.232,293.099 377.5,291.5C 384.167,291.5 390.833,291.5 397.5,291.5 Z"/></g>
<g><path style="opacity:1" fill="#f5f5f5" d="M 397.5,292.5 C 397.5,292.167 397.5,291.833 397.5,291.5C 398.5,291.5 399.5,291.5 400.5,291.5C 401.055,295.012 400.388,298.012 398.5,300.5C 398.5,299.5 398.5,298.5 398.5,297.5C 398.5,297.167 398.5,296.833 398.5,296.5C 398.768,294.901 398.434,293.568 397.5,292.5 Z"/></g>
<g><path style="opacity:1" fill="#898989" d="M 278.5,292.5 C 280.179,292.285 281.179,292.952 281.5,294.5C 279.821,294.715 278.821,294.048 278.5,292.5 Z"/></g>
<g><path style="opacity:1" fill="#a4a4a4" d="M 290.5,291.5 C 291.167,291.5 291.833,291.5 292.5,291.5C 294.728,291.777 296.395,292.777 297.5,294.5C 294.562,294.727 292.229,293.727 290.5,291.5 Z"/></g>
<g><path style="opacity:1" fill="#232323" d="M 397.5,292.5 C 398.434,293.568 398.768,294.901 398.5,296.5C 392.792,294.614 386.792,293.947 380.5,294.5C 380.5,295.833 380.5,297.167 380.5,298.5C 378.952,298.179 378.285,297.179 378.5,295.5C 378.5,294.5 378.5,293.5 378.5,292.5C 384.833,292.5 391.167,292.5 397.5,292.5 Z"/></g>
<g><path style="opacity:1" fill="#030303" d="M 398.5,296.5 C 398.5,296.833 398.5,297.167 398.5,297.5C 392.591,298.455 386.591,298.789 380.5,298.5C 380.5,297.167 380.5,295.833 380.5,294.5C 386.792,293.947 392.792,294.614 398.5,296.5 Z"/></g>
<g><path style="opacity:1" fill="#979797" d="M 485.5,275.5 C 485.833,275.5 486.167,275.5 486.5,275.5C 486.5,286.5 486.5,297.5 486.5,308.5C 486.02,305.834 485.02,303.334 483.5,301C 485.452,292.77 486.118,284.27 485.5,275.5 Z"/></g>
<g><path style="opacity:1" fill="#898989" d="M 283.5,295.5 C 285.179,295.285 286.179,295.952 286.5,297.5C 284.821,297.715 283.821,297.048 283.5,295.5 Z"/></g>
<g><path style="opacity:1" fill="#a7a7a7" d="M 298.5,295.5 C 300.179,295.285 301.179,295.952 301.5,297.5C 299.821,297.715 298.821,297.048 298.5,295.5 Z"/></g>
<g><path style="opacity:1" fill="#212121" d="M 127.5,292.5 C 140.167,292.5 152.833,292.5 165.5,292.5C 162.742,293.818 159.576,294.485 156,294.5C 147.409,294.349 138.576,294.349 129.5,294.5C 129.5,295.833 129.5,297.167 129.5,298.5C 139.315,298.687 148.981,298.687 158.5,298.5C 160.64,298.556 162.306,299.223 163.5,300.5C 151.5,300.5 139.5,300.5 127.5,300.5C 127.5,297.833 127.5,295.167 127.5,292.5 Z"/></g>
<g><path style="opacity:1" fill="#f7f8f7" d="M 287.5,298.5 C 288.167,298.5 288.833,298.5 289.5,298.5C 289.5,299.167 289.5,299.833 289.5,300.5C 288.167,300.5 287.5,299.833 287.5,298.5 Z"/></g>
<g><path style="opacity:1" fill="#585858" d="M 289.5,298.5 C 290.552,298.351 291.552,298.517 292.5,299C 292.167,299.333 291.833,299.667 291.5,300C 293.544,300.498 294.878,301.665 295.5,303.5C 294.833,303.5 294.167,303.5 293.5,303.5C 292.474,302.147 291.141,301.147 289.5,300.5C 289.5,299.833 289.5,299.167 289.5,298.5 Z"/></g>
<g><path style="opacity:1" fill="#5a5a5a" d="M 301.5,297.5 C 303.5,297.5 304.5,298.5 304.5,300.5C 303.5,300.5 302.5,300.5 301.5,300.5C 301.5,299.5 301.5,298.5 301.5,297.5 Z"/></g>
<g><path style="opacity:1" fill="#5c5c5c" d="M 398.5,297.5 C 398.5,298.5 398.5,299.5 398.5,300.5C 393.919,301.607 389.252,301.773 384.5,301C 382.563,300.878 381.23,300.045 380.5,298.5C 386.591,298.789 392.591,298.455 398.5,297.5 Z"/></g>
<g><path style="opacity:1" fill="#686868" d="M 127.5,300.5 C 139.5,300.5 151.5,300.5 163.5,300.5C 165.388,302.988 166.055,305.988 165.5,309.5C 164.833,309.5 164.167,309.5 163.5,309.5C 163.5,306.833 163.5,304.167 163.5,301.5C 151.322,301.828 139.322,301.495 127.5,300.5 Z"/></g>
<g><path style="opacity:1" fill="#a9a9a9" d="M 239.5,286.5 C 239.833,286.5 240.167,286.5 240.5,286.5C 240.5,292.833 240.5,299.167 240.5,305.5C 228.678,306.495 216.678,306.828 204.5,306.5C 215.988,305.505 227.655,305.172 239.5,305.5C 239.5,299.167 239.5,292.833 239.5,286.5 Z"/></g>
<g><path style="opacity:1" fill="#5a5a5a" d="M 306.5,300.5 C 307.609,300.557 308.609,300.89 309.5,301.5C 309.5,302.167 309.5,302.833 309.5,303.5C 308.5,303.5 307.5,303.5 306.5,303.5C 306.5,302.5 306.5,301.5 306.5,300.5 Z"/></g>
<g><path style="opacity:1" fill="#f7f8f7" d="M 309.5,301.5 C 310.833,301.5 311.5,302.167 311.5,303.5C 310.833,303.5 310.167,303.5 309.5,303.5C 309.5,302.833 309.5,302.167 309.5,301.5 Z"/></g>
<g><path style="opacity:1" fill="#d5d5d5" d="M 315.5,300.5 C 317.099,300.232 318.432,300.566 319.5,301.5C 319.5,302.167 319.5,302.833 319.5,303.5C 317.878,302.878 316.545,301.878 315.5,300.5 Z"/></g>
<g><path style="opacity:1" fill="#b0b0b0" d="M 293.5,303.5 C 294.167,303.5 294.833,303.5 295.5,303.5C 296.833,303.5 297.5,304.167 297.5,305.5C 295.517,305.843 294.183,305.176 293.5,303.5 Z"/></g>
<g><path style="opacity:1" fill="#7d7d7d" d="M 309.5,303.5 C 310.167,303.5 310.833,303.5 311.5,303.5C 312.338,303.842 312.672,304.508 312.5,305.5C 310.821,305.715 309.821,305.048 309.5,303.5 Z"/></g>
<g><path style="opacity:1" fill="#f7f8f7" d="M 398.5,305.5 C 381.5,305.5 364.5,305.5 347.5,305.5C 355.639,304.169 364.139,303.502 373,303.5C 381.861,303.502 390.361,304.169 398.5,305.5 Z"/></g>
<g><path style="opacity:1" fill="#c2c2c2" d="M 420.5,303.5 C 433.544,302.853 446.211,303.52 458.5,305.5C 445.456,306.147 432.789,305.48 420.5,303.5 Z"/></g>
<g><path style="opacity:1" fill="#c2c2c2" d="M 474.5,312.5 C 474.5,310.167 474.5,307.833 474.5,305.5C 471.833,305.5 469.167,305.5 466.5,305.5C 468.988,303.612 471.988,302.945 475.5,303.5C 475.81,306.713 475.477,309.713 474.5,312.5 Z"/></g>
<g><path style="opacity:1" fill="#f7f8f7" d="M 466.5,305.5 C 466.5,307.5 466.5,309.5 466.5,311.5C 465.307,311.03 464.64,310.03 464.5,308.5C 464.64,306.97 465.307,305.97 466.5,305.5 Z"/></g>
<g><path style="opacity:1" fill="#969696" d="M 314.5,306.5 C 316.179,306.285 317.179,306.952 317.5,308.5C 315.821,308.715 314.821,308.048 314.5,306.5 Z"/></g>
<g><path style="opacity:1" fill="#f7f8f7" d="M 334.5,306.5 C 335.167,306.5 335.833,306.5 336.5,306.5C 336.5,307.167 336.5,307.833 336.5,308.5C 335.167,308.5 334.5,307.833 334.5,306.5 Z"/></g>
<g><path style="opacity:1" fill="#f7f8f7" d="M 409.5,306.5 C 410.833,306.5 411.5,307.167 411.5,308.5C 410.167,308.5 409.5,307.833 409.5,306.5 Z"/></g>
<g><path style="opacity:1" fill="#919191" d="M 458.5,305.5 C 460.344,307.279 461.01,309.612 460.5,312.5C 459.833,312.5 459.167,312.5 458.5,312.5C 458.5,310.167 458.5,307.833 458.5,305.5 Z"/></g>
<g><path style="opacity:1" fill="#0e0e0e" d="M 466.5,305.5 C 469.167,305.5 471.833,305.5 474.5,305.5C 474.5,307.833 474.5,310.167 474.5,312.5C 472.167,312.5 469.833,312.5 467.5,312.5C 466.833,312.5 466.5,312.167 466.5,311.5C 466.5,309.5 466.5,307.5 466.5,305.5 Z"/></g>
<g><path style="opacity:1" fill="#b2b2b2" d="M 494.5,303.5 C 495.167,303.5 495.833,303.5 496.5,303.5C 497.055,307.012 496.388,310.012 494.5,312.5C 494.5,309.5 494.5,306.5 494.5,303.5 Z"/></g>
<g><path style="opacity:1" fill="#f7f8f7" d="M 301.5,308.5 C 302.609,308.557 303.609,308.89 304.5,309.5C 304.5,310.167 304.5,310.833 304.5,311.5C 303.5,311.5 302.5,311.5 301.5,311.5C 301.5,310.5 301.5,309.5 301.5,308.5 Z"/></g>
<g><path style="opacity:1" fill="#6f6f6f" d="M 398.5,305.5 C 399.725,306.152 400.392,307.319 400.5,309C 400.392,310.681 399.725,311.848 398.5,312.5C 398.5,310.167 398.5,307.833 398.5,305.5 Z"/></g>
<g><path style="opacity:1" fill="#f7f8f7" d="M 163.5,309.5 C 164.167,309.5 164.833,309.5 165.5,309.5C 165.5,310.167 165.5,310.833 165.5,311.5C 164.167,311.5 163.5,310.833 163.5,309.5 Z"/></g>
<g><path style="opacity:1" fill="#898989" d="M 248.5,309.5 C 248.715,311.179 248.048,312.179 246.5,312.5C 246.285,310.821 246.952,309.821 248.5,309.5 Z"/></g>
<g><path style="opacity:1" fill="#7e7e7e" d="M 304.5,309.5 C 306.989,309.241 308.656,310.241 309.5,312.5C 307.784,312.371 306.117,312.038 304.5,311.5C 304.5,310.833 304.5,310.167 304.5,309.5 Z"/></g>
<g><path style="opacity:1" fill="#909090" d="M 317.5,308.5 C 320.034,308.259 321.7,309.259 322.5,311.5C 320.336,311.279 318.67,310.279 317.5,308.5 Z"/></g>
<g><path style="opacity:1" fill="#767676" d="M 336.5,309.5 C 337.5,309.5 338.5,309.5 339.5,309.5C 339.5,310.5 339.5,311.5 339.5,312.5C 337.5,312.5 336.5,311.5 336.5,309.5 Z"/></g>
<g><path style="opacity:1" fill="#f7f8f7" d="M 411.5,309.5 C 412.167,309.5 412.833,309.5 413.5,309.5C 413.5,310.167 413.5,310.833 413.5,311.5C 412.167,311.5 411.5,310.833 411.5,309.5 Z"/></g>
<g><path style="opacity:1" fill="#f7f8f7" d="M 486.5,309.5 C 487.833,309.5 488.5,310.167 488.5,311.5C 487.167,311.5 486.5,310.833 486.5,309.5 Z"/></g>
<g><path style="opacity:1" fill="#7e7e7e" d="M 268.5,309.5 C 268.737,310.791 268.404,311.791 267.5,312.5C 266.833,312.5 266.167,312.5 265.5,312.5C 266.5,311.5 267.5,310.5 268.5,309.5 Z"/></g>
<g><path style="opacity:1" fill="#2d2d2d" d="M 243.5,312.5 C 243.5,313.167 243.5,313.833 243.5,314.5C 239.833,314.5 236.167,314.5 232.5,314.5C 225.833,314.5 219.167,314.5 212.5,314.5C 212.369,313.624 212.702,312.957 213.5,312.5C 223.32,312.56 233.32,312.56 243.5,312.5 Z"/></g>
<g><path style="opacity:1" fill="#a7a7a7" d="M 243.5,312.5 C 244.5,312.5 245.5,312.5 246.5,312.5C 246.179,314.048 245.179,314.715 243.5,314.5C 243.5,313.833 243.5,313.167 243.5,312.5 Z"/></g>
<g><path style="opacity:1" fill="#f7f8f7" d="M 265.5,312.5 C 266.167,312.5 266.833,312.5 267.5,312.5C 267.5,313.833 266.833,314.5 265.5,314.5C 265.5,313.833 265.5,313.167 265.5,312.5 Z"/></g>
<g><path style="opacity:1" fill="#939393" d="M 322.5,311.5 C 323.404,312.209 323.737,313.209 323.5,314.5C 318.381,315.103 313.715,314.436 309.5,312.5C 314.032,312.818 318.366,312.485 322.5,311.5 Z"/></g>
<g><path style="opacity:1" fill="#c7c7c7" d="M 339.5,312.5 C 347.833,312.5 356.167,312.5 364.5,312.5C 364.5,313.167 364.5,313.833 364.5,314.5C 360.508,314.239 356.674,314.906 353,316.5C 348.171,315.436 343.671,314.103 339.5,312.5 Z"/></g>
<g><path style="opacity:1" fill="#f7f8f7" d="M 364.5,312.5 C 375.833,312.5 387.167,312.5 398.5,312.5C 387.549,314.478 376.216,315.144 364.5,314.5C 364.5,313.833 364.5,313.167 364.5,312.5 Z"/></g>
<g><path style="opacity:1" fill="#f7f8f7" d="M 414.5,312.5 C 429.167,312.5 443.833,312.5 458.5,312.5C 459.167,312.5 459.833,312.5 460.5,312.5C 453.03,313.831 445.196,314.498 437,314.5C 429.167,314.167 421.333,313.833 413.5,313.5C 413.624,312.893 413.957,312.56 414.5,312.5 Z"/></g>
<g><path style="opacity:1" fill="#f7f8f7" d="M 467.5,312.5 C 469.833,312.5 472.167,312.5 474.5,312.5C 473.848,313.725 472.681,314.392 471,314.5C 469.319,314.392 468.152,313.725 467.5,312.5 Z"/></g>
<g><path style="opacity:1" fill="#f7f8f7" d="M 113.5,314.5 C 114.167,314.5 114.833,314.5 115.5,314.5C 115.5,315.833 114.833,316.5 113.5,316.5C 113.5,315.833 113.5,315.167 113.5,314.5 Z"/></g>
<g><path style="opacity:1" fill="#b8b8b8" d="M 168.5,314.5 C 169.5,314.5 170.5,314.5 171.5,314.5C 172.167,314.5 172.833,314.5 173.5,314.5C 173.209,315.649 172.376,316.316 171,316.5C 169.624,316.316 168.791,315.649 168.5,314.5 Z"/></g>
<g><path style="opacity:1" fill="#bdbdbd" d="M 189.5,314.5 C 190.833,314.5 192.167,314.5 193.5,314.5C 193.38,315.586 192.713,316.253 191.5,316.5C 190.287,316.253 189.62,315.586 189.5,314.5 Z"/></g>
<g><path style="opacity:1" fill="#acacac" d="M 204.5,314.5 C 207.167,314.5 209.833,314.5 212.5,314.5C 219.167,314.5 225.833,314.5 232.5,314.5C 232.5,315.167 232.5,315.833 232.5,316.5C 230.801,316.62 229.135,316.954 227.5,317.5C 219.457,317.235 211.791,316.235 204.5,314.5 Z"/></g>
<g><path style="opacity:1" fill="#f7f8f7" d="M 232.5,314.5 C 236.167,314.5 239.833,314.5 243.5,314.5C 240.316,316.414 236.649,317.08 232.5,316.5C 232.5,315.833 232.5,315.167 232.5,314.5 Z"/></g>
<g><path style="opacity:1" fill="#f7f8f7" d="M 261.5,314.5 C 262.5,314.5 263.5,314.5 264.5,314.5C 263.5,317.167 262.5,317.167 261.5,314.5 Z"/></g>
</svg>
