<?xml version="1.0" encoding="UTF-8"?>
<!DOCTYPE svg PUBLIC "-//W3C//DTD SVG 1.1//EN" "http://www.w3.org/Graphics/SVG/1.1/DTD/svg11.dtd">
<svg xmlns="http://www.w3.org/2000/svg" version="1.1" width="2048px" height="502px" style="shape-rendering:geometricPrecision; text-rendering:geometricPrecision; image-rendering:optimizeQuality; fill-rule:evenodd; clip-rule:evenodd" xmlns:xlink="http://www.w3.org/1999/xlink">
<g><path style="opacity:1" fill="#911516" d="M 601.5,11.5 C 598.397,9.57669 595.397,7.41002 592.5,5C 588.579,4.02564 584.746,2.85898 581,1.5C 578.871,2.15636 576.704,2.4897 574.5,2.5C 430.833,1.16667 287.167,1.16667 143.5,2.5C 143.565,2.06178 143.399,1.72845 143,1.5C 140.43,2.00903 138.097,3.00903 136,4.5C 135.617,3.94404 135.117,3.61071 134.5,3.5C 135.842,2.20695 137.509,1.37362 139.5,1C 288.167,0.333333 436.833,0.333333 585.5,1C 592.135,2.79798 597.468,6.29798 601.5,11.5 Z"/></g>
<g><path style="opacity:1" fill="#911517" d="M 2013.5,3.5 C 1874.85,2.34314 1736.18,2.17647 1597.5,3C 1592.22,4.02601 1586.88,4.69268 1581.5,5C 1577.81,6.69261 1574.14,7.19261 1570.5,6.5C 1578.88,4.1321 1587.55,2.6321 1596.5,2C 1734.17,1.33333 1871.83,1.33333 2009.5,2C 2011.06,2.21003 2012.39,2.71003 2013.5,3.5 Z"/></g>
<g><path style="opacity:1" fill="#a80a0a" d="M 143.5,2.5 C 287.167,3.83333 430.833,3.83333 574.5,2.5C 576.704,2.4897 578.871,2.15636 581,1.5C 584.746,2.85898 588.579,4.02564 592.5,5C 595.397,7.41002 598.397,9.57669 601.5,11.5C 601.833,11.5 602.167,11.5 602.5,11.5C 602.343,12.8734 602.51,14.2068 603,15.5C 604.929,19.1229 606.763,22.7895 608.5,26.5C 607.638,29.7341 607.638,33.0674 608.5,36.5C 609.11,37.391 609.443,38.391 609.5,39.5C 609.5,42.1667 609.5,44.8333 609.5,47.5C 609.826,65.7433 609.492,83.9099 608.5,102C 609.318,110.422 609.818,118.922 610,127.5C 610.383,128.056 610.883,128.389 611.5,128.5C 611.5,129.167 611.5,129.833 611.5,130.5C 610.817,137.234 610.15,144.068 609.5,151C 610.251,155.439 610.585,159.939 610.5,164.5C 610.5,164.833 610.5,165.167 610.5,165.5C 610.889,188.714 610.889,211.38 610.5,233.5C 609.502,233.344 608.502,233.844 607.5,235C 607.833,235.333 608.167,235.667 608.5,236C 606.201,238.798 606.201,241.465 608.5,244C 607.833,244.667 607.167,245.333 606.5,246C 607.305,250.749 607.805,255.582 608,260.5C 609.083,262.241 610.25,262.907 611.5,262.5C 612.217,285.82 612.55,309.82 612.5,334.5C 610.501,339.825 609.834,345.158 610.5,350.5C 608.361,355.081 606.694,359.914 605.5,365C 606.252,365.671 606.586,366.504 606.5,367.5C 604.692,368.918 604.025,370.918 604.5,373.5C 604.405,375.786 603.738,377.786 602.5,379.5C 600.744,380.552 600.077,382.219 600.5,384.5C 600.598,386.553 599.931,388.22 598.5,389.5C 596.179,391.09 595.179,393.423 595.5,396.5C 594.504,396.414 593.671,396.748 593,397.5C 591.659,400.022 590.826,402.689 590.5,405.5C 590.34,407.153 589.674,408.486 588.5,409.5C 585.549,410.809 584.216,413.143 584.5,416.5C 583.127,416.343 581.793,416.51 580.5,417C 581.138,418.707 581.138,420.54 580.5,422.5C 578.952,422.821 578.285,423.821 578.5,425.5C 577.396,427.389 576.063,429.055 574.5,430.5C 570.635,431.706 568.635,434.373 568.5,438.5C 568.167,439.5 567.5,440.167 566.5,440.5C 565.325,440.281 564.325,440.614 563.5,441.5C 561.711,443.61 560.378,445.944 559.5,448.5C 558.448,448.351 557.448,448.517 556.5,449C 554.712,451.184 553.046,453.351 551.5,455.5C 550.5,457.167 549.167,458.5 547.5,459.5C 546.022,459.238 544.689,459.571 543.5,460.5C 541.124,462.209 539.124,464.209 537.5,466.5C 537.167,467.5 536.5,468.167 535.5,468.5C 531.791,468.679 529.124,470.346 527.5,473.5C 525.459,473.854 523.626,473.854 522,473.5C 520.351,474.885 519.184,476.551 518.5,478.5C 514.631,480.164 510.631,481.664 506.5,483C 505.619,483.708 504.953,484.542 504.5,485.5C 501.911,485.461 499.911,486.461 498.5,488.5C 497.791,489.404 496.791,489.737 495.5,489.5C 492.539,489.464 490.206,490.464 488.5,492.5C 488.167,492.5 487.833,492.5 487.5,492.5C 485.517,492.157 484.183,492.824 483.5,494.5C 481.883,495.038 480.216,495.371 478.5,495.5C 474.124,495.909 469.79,496.575 465.5,497.5C 462.121,497.678 458.955,497.678 456,497.5C 452.589,499.769 449.256,499.769 446,497.5C 306.537,498.337 167.037,498.671 27.5,498.5C 23.277,498.661 19.277,497.994 15.5,496.5C 14.7701,495.288 13.7701,494.288 12.5,493.5C 13.8549,492.325 13.6883,491.325 12,490.5C 10.9887,491.337 9.82207,491.67 8.5,491.5C 7.16667,491.5 6.5,490.833 6.5,489.5C 6.44563,487.368 5.44563,486.035 3.5,485.5C 2.66175,485.158 2.32842,484.492 2.5,483.5C 2.52182,446.678 2.52182,409.678 2.5,372.5C 2.97692,371.254 4.31025,370.088 6.5,369C 7.79323,368.51 9.12656,368.343 10.5,368.5C 11.5981,369.397 11.5981,370.23 10.5,371C 12.8333,371.167 15.1667,371.333 17.5,371.5C 43.2478,371.821 69.0812,371.488 95,370.5C 96.5548,372.146 98.2215,372.479 100,371.5C 101.333,374.167 102.667,374.167 104,371.5C 104.667,372.167 105.333,372.833 106,373.5C 107.91,372.794 109.91,371.794 112,370.5C 176.331,371.497 240.831,371.831 305.5,371.5C 305.833,371.333 306.167,371.167 306.5,371C 305.429,370.148 304.429,369.315 303.5,368.5C 319.503,368.667 335.503,368.5 351.5,368C 353.974,367.963 355.974,367.13 357.5,365.5C 357.833,365.5 358.167,365.5 358.5,365.5C 362.567,365.794 365.9,364.46 368.5,361.5C 370.38,361.771 371.713,361.104 372.5,359.5C 377.293,358.044 381.293,355.377 384.5,351.5C 387.526,351.163 389.526,349.496 390.5,346.5C 391.5,344.833 392.833,343.5 394.5,342.5C 396.997,341.871 398.33,340.204 398.5,337.5C 398.833,336.5 399.5,335.833 400.5,335.5C 401.117,335.611 401.617,335.944 402,336.5C 404.084,332.664 406.417,328.997 409,325.5C 410.848,321.271 412.681,317.104 414.5,313C 413.836,261.736 413.169,210.569 412.5,159.5C 412.26,154.89 410.927,150.557 408.5,146.5C 408.043,145.702 407.376,145.369 406.5,145.5C 405.951,143.099 405.118,140.765 404,138.5C 403.667,138.833 403.333,139.167 403,139.5C 400.805,137.312 398.305,135.479 395.5,134C 393.655,132.872 391.655,132.372 389.5,132.5C 388.152,131.399 386.652,130.399 385,129.5C 298.571,130.498 212.071,130.832 125.5,130.5C 124.209,130.737 123.209,130.404 122.5,129.5C 121.36,94.5228 121.193,59.5228 122,24.5C 122.502,21.4869 123.002,18.4869 123.5,15.5C 125.78,12.8972 128.447,10.5638 131.5,8.5C 132.952,7.06028 133.952,5.39362 134.5,3.5C 135.117,3.61071 135.617,3.94404 136,4.5C 138.097,3.00903 140.43,2.00903 143,1.5C 143.399,1.72845 143.565,2.06178 143.5,2.5 Z"/></g>
<g><path style="opacity:1" fill="#a40c0a" d="M 574.5,2.5 C 430.833,3.83333 287.167,3.83333 143.5,2.5C 287.167,1.16667 430.833,1.16667 574.5,2.5 Z"/></g>
<g><path style="opacity:1" fill="#a80a0a" d="M 2013.5,3.5 C 2014.17,3.5 2014.83,3.5 2015.5,3.5C 2015.41,4.4959 2015.75,5.32924 2016.5,6C 2026.7,9.99823 2035.2,16.1649 2042,24.5C 2042.5,27.8206 2044,30.4872 2046.5,32.5C 2046.67,63.1685 2046.5,93.8351 2046,124.5C 2044.46,126.378 2042.62,127.878 2040.5,129C 1928.71,129.823 1817.21,129.656 1706,128.5C 1704.12,128.525 1702.62,129.191 1701.5,130.5C 1699.96,131.301 1698.29,131.634 1696.5,131.5C 1692.62,131.024 1689.29,132.024 1686.5,134.5C 1683.17,134.018 1680.5,135.018 1678.5,137.5C 1677.13,137.343 1675.79,137.51 1674.5,138C 1670.49,139.812 1667.16,142.312 1664.5,145.5C 1662.63,144.986 1660.8,144.32 1659,143.5C 1658.5,143.833 1658,144.167 1657.5,144.5C 1657.85,145.696 1658.35,145.696 1659,144.5C 1659.49,146.134 1659.66,147.801 1659.5,149.5C 1659.5,150.167 1659.17,150.5 1658.5,150.5C 1651.72,154.376 1647.05,160.043 1644.5,167.5C 1642.32,168.3 1640.65,169.8 1639.5,172C 1640.25,172.671 1640.59,173.504 1640.5,174.5C 1637.29,176.584 1635.96,179.584 1636.5,183.5C 1634.1,186.618 1632.94,190.284 1633,194.5C 1632.83,214 1632.67,233.5 1632.5,253C 1632.5,272.845 1633.17,292.345 1634.5,311.5C 1633.83,315.535 1634.49,319.535 1636.5,323.5C 1636.96,324.298 1637.62,324.631 1638.5,324.5C 1638.99,327.489 1639.49,330.156 1640,332.5C 1644.11,336.613 1648.61,341.113 1653.5,346C 1656.96,348.398 1660.63,350.232 1664.5,351.5C 1665.17,351.5 1665.5,351.833 1665.5,352.5C 1667.66,355.42 1670.66,357.087 1674.5,357.5C 1674.47,358.497 1674.97,359.164 1676,359.5C 1684.44,363.278 1692.94,365.611 1701.5,366.5C 1701.91,367.643 1702.57,368.643 1703.5,369.5C 1813.63,369.809 1922.13,369.476 2029,368.5C 2031.26,371.071 2033.42,371.071 2035.5,368.5C 2036.12,368.389 2036.62,368.056 2037,367.5C 2039.03,369.033 2040.86,370.699 2042.5,372.5C 2042.43,406.316 2042.43,439.983 2042.5,473.5C 2041.5,473.414 2040.67,473.748 2040,474.5C 2039.06,478.298 2037.89,481.965 2036.5,485.5C 2035.85,487.141 2034.85,488.474 2033.5,489.5C 2028.95,490.424 2025.28,492.758 2022.5,496.5C 2021.83,496.5 2021.17,496.5 2020.5,496.5C 1877.32,496.496 1734.32,496.496 1591.5,496.5C 1583.52,495.074 1575.52,493.74 1567.5,492.5C 1567.61,490.621 1567.11,490.288 1566,491.5C 1561.42,489.314 1556.59,487.98 1551.5,487.5C 1550.21,487.737 1549.21,487.404 1548.5,486.5C 1547.71,484.896 1546.38,484.229 1544.5,484.5C 1542.57,482.707 1540.24,481.707 1537.5,481.5C 1536.51,481.672 1535.84,481.338 1535.5,480.5C 1531.65,477.64 1527.81,474.64 1524,471.5C 1523.33,472.252 1522.5,472.586 1521.5,472.5C 1520.51,472.672 1519.84,472.338 1519.5,471.5C 1519.65,470.448 1519.48,469.448 1519,468.5C 1518.67,468.833 1518.33,469.167 1518,469.5C 1514.87,466.526 1511.37,464.193 1507.5,462.5C 1507.63,461.761 1507.46,461.094 1507,460.5C 1500.45,455.629 1494.62,449.962 1489.5,443.5C 1488.06,442.048 1486.39,441.048 1484.5,440.5C 1483.82,436.098 1481.48,433.098 1477.5,431.5C 1477.63,429.345 1477.13,427.345 1476,425.5C 1473.75,422.746 1471.25,420.413 1468.5,418.5C 1468.41,416.323 1467.75,414.323 1466.5,412.5C 1465.15,409.493 1463.15,407.16 1460.5,405.5C 1458.47,397.77 1455.13,390.77 1450.5,384.5C 1450.45,381.432 1449.95,378.432 1449,375.5C 1447.56,371.975 1446.06,368.642 1444.5,365.5C 1443.2,361.64 1442.53,357.64 1442.5,353.5C 1442.71,344.934 1442.71,336.267 1442.5,327.5C 1443.17,276.998 1443.83,226.332 1444.5,175.5C 1445.26,176.628 1445.93,177.795 1446.5,179C 1446.56,231.298 1446.56,283.298 1446.5,335C 1446.83,335.167 1447.17,335.333 1447.5,335.5C 1448.19,329.613 1448.85,323.78 1449.5,318C 1448.17,273.333 1448.17,228.667 1449.5,184C 1448.83,183.667 1448.17,183.333 1447.5,183C 1448.61,178.665 1448.61,173.832 1447.5,168.5C 1446.64,167.707 1445.81,168.04 1445,169.5C 1443.77,166.176 1443.27,162.843 1443.5,159.5C 1443.17,158.5 1442.5,157.833 1441.5,157.5C 1441.5,157.167 1441.5,156.833 1441.5,156.5C 1442.75,156.423 1443.58,155.756 1444,154.5C 1444.53,148.829 1445.03,143.162 1445.5,137.5C 1445.22,135.585 1445.55,133.919 1446.5,132.5C 1449.73,126.811 1451.73,120.477 1452.5,113.5C 1456.73,105.408 1460.89,97.075 1465,88.5C 1465.42,89.9561 1466.26,90.4561 1467.5,90C 1465.65,86.2742 1466.65,83.6076 1470.5,82C 1470.17,81.6667 1469.83,81.3333 1469.5,81C 1471.49,79.6811 1472.65,77.8477 1473,75.5C 1474.07,76.2797 1475.24,76.113 1476.5,75C 1475.83,74.6667 1475.17,74.3333 1474.5,74C 1480.32,66.8246 1485.98,59.6579 1491.5,52.5C 1494.17,51.8333 1495.83,50.1667 1496.5,47.5C 1504.65,40.8568 1512.99,34.3568 1521.5,28C 1526.15,25.3659 1530.81,22.6992 1535.5,20C 1537.55,18.7978 1539.55,18.4644 1541.5,19C 1541.17,18.6667 1540.83,18.3333 1540.5,18C 1541.76,17.5831 1542.42,16.7498 1542.5,15.5C 1542.83,15.5 1543.17,15.5 1543.5,15.5C 1548.21,14.6401 1552.54,12.9734 1556.5,10.5C 1557.21,9.59603 1558.21,9.26269 1559.5,9.5C 1561.7,9.87988 1563.36,9.21321 1564.5,7.5C 1566.44,6.85048 1568.44,6.51715 1570.5,6.5C 1574.14,7.19261 1577.81,6.69261 1581.5,5C 1586.88,4.69268 1592.22,4.02601 1597.5,3C 1736.18,2.17647 1874.85,2.34314 2013.5,3.5 Z"/></g>
<g><path style="opacity:1" fill="#8d201f" d="M 134.5,3.5 C 133.952,5.39362 132.952,7.06028 131.5,8.5C 128.447,10.5638 125.78,12.8972 123.5,15.5C 125.777,10.2227 129.444,6.22272 134.5,3.5 Z"/></g>
<g><path style="opacity:1" fill="#a40c0b" d="M 138.5,6.5 C 284.952,6.61995 430.786,6.28662 576,5.5C 576.75,6.12576 577.584,6.62576 578.5,7C 576.899,7.27338 575.399,7.77338 574,8.5C 437.929,7.63752 299.596,7.30419 159,7.5C 152.302,8.53988 145.802,9.20654 139.5,9.5C 139.737,8.20895 139.404,7.20895 138.5,6.5 Z"/></g>
<g><path style="opacity:1" fill="#9b2928" d="M 934.5,5.5 C 994.999,4.33471 1055.67,4.16804 1116.5,5C 1120.53,5.39177 1124.53,5.89177 1128.5,6.5C 1128.5,7.16667 1128.5,7.83333 1128.5,8.5C 1126.02,7.2304 1123.35,6.56373 1120.5,6.5C 1116.72,6.69151 1112.89,7.02485 1109,7.5C 1050.89,6.80325 992.726,6.13658 934.5,5.5 Z"/></g>
<g><path style="opacity:1" fill="#a80a0a" d="M 934.5,5.5 C 992.726,6.13658 1050.89,6.80325 1109,7.5C 1112.89,7.02485 1116.72,6.69151 1120.5,6.5C 1123.35,6.56373 1126.02,7.2304 1128.5,8.5C 1131.67,8.92278 1135,10.0894 1138.5,12C 1143.69,16.6965 1149.03,21.1965 1154.5,25.5C 1154.43,27.0269 1155.09,28.0269 1156.5,28.5C 1156.29,30.1788 1156.95,31.1788 1158.5,31.5C 1158.13,34.7626 1159.46,37.4293 1162.5,39.5C 1163.21,44.5765 1165.21,48.9098 1168.5,52.5C 1168.16,54.4832 1168.82,55.8166 1170.5,56.5C 1171.02,60.5535 1172.35,64.3868 1174.5,68C 1173.83,68.3333 1173.17,68.6667 1172.5,69C 1175.02,70.3597 1177.02,72.193 1178.5,74.5C 1178.44,78.0487 1179.27,81.3821 1181,84.5C 1183.27,88.7324 1185.77,92.7324 1188.5,96.5C 1188.16,98.4832 1188.82,99.8166 1190.5,100.5C 1191.68,106.363 1193.68,112.03 1196.5,117.5C 1196.96,118.298 1197.62,118.631 1198.5,118.5C 1199,123.71 1201,128.043 1204.5,131.5C 1204.54,135.236 1205.87,138.236 1208.5,140.5C 1209.34,140.842 1209.67,141.508 1209.5,142.5C 1209.34,144.527 1209.5,146.527 1210,148.5C 1210.67,149.252 1211.5,149.586 1212.5,149.5C 1214.29,157.728 1217.62,165.061 1222.5,171.5C 1222.16,173.483 1222.82,174.817 1224.5,175.5C 1226.29,182.766 1228.96,189.766 1232.5,196.5C 1232.96,197.298 1233.62,197.631 1234.5,197.5C 1234.78,203.047 1236.78,207.713 1240.5,211.5C 1238.85,213.872 1239.52,215.206 1242.5,215.5C 1242.54,219.236 1243.87,222.236 1246.5,224.5C 1246.16,226.483 1246.82,227.817 1248.5,228.5C 1247.91,231.631 1248.91,233.964 1251.5,235.5C 1252.34,235.842 1252.67,236.508 1252.5,237.5C 1252.33,241.36 1253.66,244.36 1256.5,246.5C 1256.59,247.496 1256.25,248.329 1255.5,249C 1257.96,252.049 1259.46,255.549 1260,259.5C 1262.76,264.079 1265.59,268.412 1268.5,272.5C 1268.71,274.144 1268.38,275.644 1267.5,277C 1268.45,277.483 1269.45,277.649 1270.5,277.5C 1271.34,277.842 1271.67,278.508 1271.5,279.5C 1271.32,281.936 1271.98,284.103 1273.5,286C 1273.17,286.333 1272.83,286.667 1272.5,287C 1273.74,288.388 1275.07,289.554 1276.5,290.5C 1274.85,292.872 1275.52,294.206 1278.5,294.5C 1278,298.481 1279.33,301.481 1282.5,303.5C 1282.16,305.483 1282.82,306.817 1284.5,307.5C 1284.33,311.36 1285.66,314.36 1288.5,316.5C 1288.68,319.216 1289.18,321.883 1290,324.5C 1290.67,325.252 1291.5,325.586 1292.5,325.5C 1294.52,332.633 1297.02,339.633 1300,346.5C 1300.67,347.252 1301.5,347.586 1302.5,347.5C 1302.16,349.483 1302.82,350.817 1304.5,351.5C 1305.82,357.995 1308.16,364.161 1311.5,370C 1311.17,370.333 1310.83,370.667 1310.5,371C 1312.74,374.027 1315.07,376.86 1317.5,379.5C 1318.11,380.391 1318.44,381.391 1318.5,382.5C 1318.4,384.553 1319.07,386.22 1320.5,387.5C 1320.59,388.496 1320.25,389.329 1319.5,390C 1322.06,395.265 1325.06,400.099 1328.5,404.5C 1328.08,406.781 1328.74,408.448 1330.5,409.5C 1330.16,411.483 1330.82,412.817 1332.5,413.5C 1335.05,424.062 1339.05,434.062 1344.5,443.5C 1344.96,444.298 1345.62,444.631 1346.5,444.5C 1346.59,445.496 1346.25,446.329 1345.5,447C 1348.15,452.474 1351.15,457.641 1354.5,462.5C 1354.54,466.236 1355.87,469.236 1358.5,471.5C 1358.16,473.483 1358.82,474.817 1360.5,475.5C 1360.16,477.483 1360.82,478.817 1362.5,479.5C 1362,483.481 1363.33,486.481 1366.5,488.5C 1366.8,490.604 1366.47,492.604 1365.5,494.5C 1363.86,495.696 1362.19,496.696 1360.5,497.5C 1307.1,497.829 1253.76,497.495 1200.5,496.5C 1199.25,494.72 1197.75,494.387 1196,495.5C 1192.31,494.151 1188.64,492.817 1185,491.5C 1183.64,492.38 1182.14,492.714 1180.5,492.5C 1180.17,492.5 1179.83,492.5 1179.5,492.5C 1178.71,490.896 1177.38,490.229 1175.5,490.5C 1171.34,487.586 1167.01,484.919 1162.5,482.5C 1159.83,478.163 1156.49,474.496 1152.5,471.5C 1151.09,471.027 1150.43,470.027 1150.5,468.5C 1150.66,467.127 1150.49,465.793 1150,464.5C 1148.93,462.308 1147.43,460.642 1145.5,459.5C 1145.84,457.517 1145.18,456.183 1143.5,455.5C 1139.99,449.818 1136.99,443.818 1134.5,437.5C 1134.26,434.353 1133.43,431.353 1132,428.5C 1131.5,426.456 1130.34,425.122 1128.5,424.5C 1127.33,423.486 1126.66,422.153 1126.5,420.5C 1126.92,418.219 1126.26,416.552 1124.5,415.5C 1124.15,413.459 1124.15,411.626 1124.5,410C 1122.59,407.632 1120.59,405.466 1118.5,403.5C 1117.66,403.158 1117.33,402.492 1117.5,401.5C 1117.53,396.874 1115.86,393.207 1112.5,390.5C 1111.66,390.158 1111.33,389.492 1111.5,388.5C 1111.29,384.818 1109.96,381.818 1107.5,379.5C 1105.99,377.819 1104.99,375.819 1104.5,373.5C 1104.92,371.219 1104.26,369.552 1102.5,368.5C 1101.33,367.486 1100.66,366.153 1100.5,364.5C 1100.46,360.764 1099.13,357.764 1096.5,355.5C 1096.84,353.517 1096.18,352.183 1094.5,351.5C 1094.02,346.347 1092.02,342.014 1088.5,338.5C 1087.33,337.486 1086.66,336.153 1086.5,334.5C 1086.92,332.219 1086.26,330.552 1084.5,329.5C 1083.52,323.867 1081.68,318.533 1079,313.5C 1078.33,312.748 1077.5,312.414 1076.5,312.5C 1076.95,308.64 1075.61,305.64 1072.5,303.5C 1072.66,301.801 1072.49,300.134 1072,298.5C 1070.36,295.517 1068.53,292.851 1066.5,290.5C 1066.67,285.848 1065,282.181 1061.5,279.5C 1061.83,276.509 1060.83,274.176 1058.5,272.5C 1058.55,268.239 1056.88,264.906 1053.5,262.5C 1053.66,260.801 1053.49,259.134 1053,257.5C 1051.29,256.122 1049.95,254.455 1049,252.5C 1046.67,251.167 1044.33,249.833 1042,248.5C 1029.52,249.281 1016.68,249.781 1003.5,250C 1002.26,250.232 1001.26,250.732 1000.5,251.5C 997.909,252.254 996.076,253.921 995,256.5C 993.872,258.345 993.372,260.345 993.5,262.5C 992.504,262.414 991.671,262.748 991,263.5C 990.208,265.587 989.041,267.421 987.5,269C 988.337,270.011 988.67,271.178 988.5,272.5C 988.737,273.791 988.404,274.791 987.5,275.5C 984.262,277.513 982.929,280.513 983.5,284.5C 983.672,285.492 983.338,286.158 982.5,286.5C 979.519,286.794 978.852,288.128 980.5,290.5C 978.787,291.635 978.12,293.302 978.5,295.5C 975.329,297.519 973.996,300.519 974.5,304.5C 974.672,305.492 974.338,306.158 973.5,306.5C 971.744,307.552 971.077,309.219 971.5,311.5C 971.672,312.492 971.338,313.158 970.5,313.5C 968.824,314.183 968.157,315.517 968.5,317.5C 968.204,319.403 967.537,321.07 966.5,322.5C 965.624,322.369 964.957,322.702 964.5,323.5C 963.806,326.088 962.64,328.421 961,330.5C 960.479,333.874 959.146,336.874 957,339.5C 956.506,341.134 956.34,342.801 956.5,344.5C 953.329,346.519 951.996,349.519 952.5,353.5C 951.624,353.369 950.957,353.702 950.5,354.5C 949.632,357.868 947.965,360.702 945.5,363C 945.833,363.333 946.167,363.667 946.5,364C 944.559,365.816 943.892,367.816 944.5,370C 943.167,370.667 942.167,371.667 941.5,373C 941.966,374.299 941.966,375.799 941.5,377.5C 941.737,378.791 941.404,379.791 940.5,380.5C 938.031,381.607 937.031,383.607 937.5,386.5C 937.293,389.241 936.293,391.574 934.5,393.5C 932.031,394.607 931.031,396.607 931.5,399.5C 931.737,400.791 931.404,401.791 930.5,402.5C 928.824,403.183 928.157,404.517 928.5,406.5C 925.387,408.64 924.054,411.64 924.5,415.5C 923.25,415.577 922.417,416.244 922,417.5C 920.57,420.353 919.737,423.353 919.5,426.5C 917.684,432.125 915.351,437.459 912.5,442.5C 909.85,443.457 909.183,445.124 910.5,447.5C 910.011,448.995 909.345,450.329 908.5,451.5C 907.504,451.414 906.671,451.748 906,452.5C 903.767,458.396 901.267,464.063 898.5,469.5C 896.856,469.286 895.356,469.62 894,470.5C 893.139,473.368 891.472,475.702 889,477.5C 888.517,478.448 888.351,479.448 888.5,480.5C 886.821,480.285 885.821,480.952 885.5,482.5C 885.5,483.167 885.167,483.5 884.5,483.5C 881.633,483.369 879.967,484.703 879.5,487.5C 876.715,486.916 875.048,487.916 874.5,490.5C 871.735,490.798 869.235,491.798 867,493.5C 865.375,492.588 864.541,493.255 864.5,495.5C 864.167,495.5 863.833,495.5 863.5,495.5C 859.542,495.251 855.876,495.918 852.5,497.5C 852.167,497.5 851.833,497.5 851.5,497.5C 795.002,496.501 738.336,496.168 681.5,496.5C 680.841,493.545 680.508,490.545 680.5,487.5C 683.111,484.259 685.278,480.592 687,476.5C 687.977,474.26 688.477,471.927 688.5,469.5C 689.5,469.5 690.5,469.5 691.5,469.5C 693.131,462.56 695.631,455.894 699,449.5C 699.49,448.207 699.657,446.873 699.5,445.5C 706.083,432.278 712.583,418.945 719,405.5C 723.818,394.03 728.818,382.697 734,371.5C 734.494,369.866 734.66,368.199 734.5,366.5C 736.335,365.878 737.502,364.544 738,362.5C 739.655,358.951 740.822,355.285 741.5,351.5C 741.328,350.508 741.662,349.842 742.5,349.5C 743.497,349.53 744.164,349.03 744.5,348C 747.093,340.075 750.593,332.575 755,325.5C 755.494,323.866 755.66,322.199 755.5,320.5C 755.5,320.167 755.5,319.833 755.5,319.5C 756.5,319.5 757.5,319.5 758.5,319.5C 758.904,315.123 760.571,311.29 763.5,308C 763.167,307.667 762.833,307.333 762.5,307C 765.975,299.05 769.975,291.383 774.5,284C 774.167,283.667 773.833,283.333 773.5,283C 776.062,278.811 777.729,274.311 778.5,269.5C 778.66,267.847 779.326,266.514 780.5,265.5C 783.126,263.236 784.459,260.236 784.5,256.5C 786.093,255.652 787.26,254.319 788,252.5C 791.509,243.311 795.509,234.311 800,225.5C 801.43,222.647 802.263,219.647 802.5,216.5C 805.126,214.236 806.459,211.236 806.5,207.5C 812.166,199.168 816.499,190.168 819.5,180.5C 822.598,180.587 822.932,180.087 820.5,179C 822.65,175.387 823.983,171.553 824.5,167.5C 827.613,165.36 828.946,162.36 828.5,158.5C 830.335,157.878 831.502,156.544 832,154.5C 835.955,144.621 840.289,134.955 845,125.5C 845.977,123.26 846.477,120.927 846.5,118.5C 848.08,116.723 849.746,114.89 851.5,113C 851.043,112.586 850.709,112.086 850.5,111.5C 854.93,103.971 858.263,95.9714 860.5,87.5C 861.376,87.6309 862.043,87.2975 862.5,86.5C 863.502,82.6471 865.169,79.1471 867.5,76C 866.906,75.5357 866.239,75.369 865.5,75.5C 865.5,74.8333 865.833,74.5 866.5,74.5C 868.446,72.6473 869.946,70.314 871,67.5C 874.494,59.4983 877.66,51.4983 880.5,43.5C 884.276,40.3636 886.942,36.3636 888.5,31.5C 891.52,29.4768 893.854,26.8102 895.5,23.5C 895.5,22.8333 895.833,22.5 896.5,22.5C 901.876,18.6203 907.376,14.9536 913,11.5C 913.414,11.9574 913.914,12.2907 914.5,12.5C 915.909,11.1515 917.243,9.81814 918.5,8.5C 920.877,8.21551 923.044,8.21551 925,8.5C 925.464,7.90558 925.631,7.23891 925.5,6.5C 928.287,5.52333 931.287,5.19 934.5,5.5 Z"/></g>
<g><path style="opacity:1" fill="#972020" d="M 925.5,6.5 C 925.631,7.23891 925.464,7.90558 925,8.5C 923.044,8.21551 920.877,8.21551 918.5,8.5C 920.515,7.07619 922.848,6.40953 925.5,6.5 Z"/></g>
<g><path style="opacity:1" fill="#912322" d="M 1564.5,7.5 C 1563.36,9.21321 1561.7,9.87988 1559.5,9.5C 1560.93,8.46253 1562.6,7.79586 1564.5,7.5 Z"/></g>
<g><path style="opacity:1" fill="#912221" d="M 1128.5,6.5 C 1139.71,9.43196 1148.38,15.7653 1154.5,25.5C 1149.03,21.1965 1143.69,16.6965 1138.5,12C 1135,10.0894 1131.67,8.92278 1128.5,8.5C 1128.5,7.83333 1128.5,7.16667 1128.5,6.5 Z"/></g>
<g><path style="opacity:1" fill="#921f1f" d="M 1556.5,10.5 C 1552.54,12.9734 1548.21,14.6401 1543.5,15.5C 1547.44,13.0363 1551.78,11.3697 1556.5,10.5 Z"/></g>
<g><path style="opacity:1" fill="#912020" d="M 602.5,11.5 C 608.912,18.5196 611.246,26.8529 609.5,36.5C 609.167,36.5 608.833,36.5 608.5,36.5C 607.638,33.0674 607.638,29.7341 608.5,26.5C 606.763,22.7895 604.929,19.1229 603,15.5C 602.51,14.2068 602.343,12.8734 602.5,11.5 Z"/></g>
<g><path style="opacity:1" fill="#962423" d="M 918.5,8.5 C 917.243,9.81814 915.909,11.1515 914.5,12.5C 913.914,12.2907 913.414,11.9574 913,11.5C 907.376,14.9536 901.876,18.6203 896.5,22.5C 902.515,15.8221 909.849,11.1554 918.5,8.5 Z"/></g>
<g><path style="opacity:1" fill="#932626" d="M 2015.5,3.5 C 2027.82,7.99192 2037.66,15.6586 2045,26.5C 2045.81,28.4357 2046.31,30.4357 2046.5,32.5C 2044,30.4872 2042.5,27.8206 2042,24.5C 2035.2,16.1649 2026.7,9.99823 2016.5,6C 2015.75,5.32924 2015.41,4.4959 2015.5,3.5 Z"/></g>
<g><path style="opacity:1" fill="#832727" d="M 1154.5,25.5 C 1155.91,25.9731 1156.57,26.9731 1156.5,28.5C 1155.09,28.0269 1154.43,27.0269 1154.5,25.5 Z"/></g>
<g><path style="opacity:1" fill="#8e2221" d="M 895.5,23.5 C 893.854,26.8102 891.52,29.4768 888.5,31.5C 890.094,28.2358 892.427,25.5691 895.5,23.5 Z"/></g>
<g><path style="opacity:1" fill="#9a2928" d="M 123.5,15.5 C 123.002,18.4869 122.502,21.4869 122,24.5C 121.193,59.5228 121.36,94.5228 122.5,129.5C 121.833,128.5 121.167,127.5 120.5,126.5C 119.336,92.6691 119.169,58.6691 120,24.5C 120.119,20.9955 121.286,17.9955 123.5,15.5 Z"/></g>
<g><path style="opacity:1" fill="#8f2e2e" d="M 1156.5,28.5 C 1157.91,28.9731 1158.57,29.9731 1158.5,31.5C 1156.95,31.1788 1156.29,30.1788 1156.5,28.5 Z"/></g>
<g><path style="opacity:1" fill="#8c2121" d="M 1158.5,31.5 C 1160.36,33.8911 1161.7,36.5578 1162.5,39.5C 1159.46,37.4293 1158.13,34.7626 1158.5,31.5 Z"/></g>
<g><path style="opacity:1" fill="#952423" d="M 1542.5,15.5 C 1542.42,16.7498 1541.76,17.5831 1540.5,18C 1540.83,18.3333 1541.17,18.6667 1541.5,19C 1539.55,18.4644 1537.55,18.7978 1535.5,20C 1530.81,22.6992 1526.15,25.3659 1521.5,28C 1512.99,34.3568 1504.65,40.8568 1496.5,47.5C 1509.73,33.8787 1525.06,23.212 1542.5,15.5 Z"/></g>
<g><path style="opacity:1" fill="#912323" d="M 888.5,31.5 C 886.942,36.3636 884.276,40.3636 880.5,43.5C 882.178,38.8033 884.844,34.8033 888.5,31.5 Z"/></g>
<g><path style="opacity:1" fill="#a34446" d="M 608.5,36.5 C 608.833,36.5 609.167,36.5 609.5,36.5C 610.833,37.5 610.833,38.5 609.5,39.5C 609.443,38.391 609.11,37.391 608.5,36.5 Z"/></g>
<g><path style="opacity:1" fill="#8e2423" d="M 1162.5,39.5 C 1165.28,43.4047 1167.28,47.738 1168.5,52.5C 1165.21,48.9098 1163.21,44.5765 1162.5,39.5 Z"/></g>
<g><path style="opacity:1" fill="#8e1d1c" d="M 1496.5,47.5 C 1495.83,50.1667 1494.17,51.8333 1491.5,52.5C 1492.83,50.5 1494.5,48.8333 1496.5,47.5 Z"/></g>
<g><path style="opacity:1" fill="#972928" d="M 1168.5,52.5 C 1169.67,53.5137 1170.34,54.847 1170.5,56.5C 1168.82,55.8166 1168.16,54.4832 1168.5,52.5 Z"/></g>
<g><path style="opacity:1" fill="#912423" d="M 880.5,43.5 C 877.66,51.4983 874.494,59.4983 871,67.5C 869.946,70.314 868.446,72.6473 866.5,74.5C 870.376,63.7528 875.043,53.4194 880.5,43.5 Z"/></g>
<g><path style="opacity:1" fill="#902322" d="M 1170.5,56.5 C 1173.68,62.2065 1176.35,68.2065 1178.5,74.5C 1177.02,72.193 1175.02,70.3597 1172.5,69C 1173.17,68.6667 1173.83,68.3333 1174.5,68C 1172.35,64.3868 1171.02,60.5535 1170.5,56.5 Z"/></g>
<g><path style="opacity:1" fill="#942424" d="M 1491.5,52.5 C 1485.98,59.6579 1480.32,66.8246 1474.5,74C 1475.17,74.3333 1475.83,74.6667 1476.5,75C 1475.24,76.113 1474.07,76.2797 1473,75.5C 1472.65,77.8477 1471.49,79.6811 1469.5,81C 1469.83,81.3333 1470.17,81.6667 1470.5,82C 1466.65,83.6076 1465.65,86.2742 1467.5,90C 1466.26,90.4561 1465.42,89.9561 1465,88.5C 1460.89,97.075 1456.73,105.408 1452.5,113.5C 1460.27,89.7451 1473.27,69.4117 1491.5,52.5 Z"/></g>
<g><path style="opacity:1" fill="#8e201f" d="M 865.5,75.5 C 866.239,75.369 866.906,75.5357 867.5,76C 865.169,79.1471 863.502,82.6471 862.5,86.5C 862.043,87.2975 861.376,87.6309 860.5,87.5C 861.617,83.2662 863.284,79.2662 865.5,75.5 Z"/></g>
<g><path style="opacity:1" fill="#8d2322" d="M 1178.5,74.5 C 1182.4,81.5155 1185.73,88.8488 1188.5,96.5C 1185.77,92.7324 1183.27,88.7324 1181,84.5C 1179.27,81.3821 1178.44,78.0487 1178.5,74.5 Z"/></g>
<g><path style="opacity:1" fill="#902525" d="M 860.5,87.5 C 858.263,95.9714 854.93,103.971 850.5,111.5C 850.709,112.086 851.043,112.586 851.5,113C 849.746,114.89 848.08,116.723 846.5,118.5C 850.409,107.754 855.075,97.4202 860.5,87.5 Z"/></g>
<g><path style="opacity:1" fill="#902020" d="M 1188.5,96.5 C 1189.67,97.5137 1190.34,98.847 1190.5,100.5C 1188.82,99.8166 1188.16,98.4832 1188.5,96.5 Z"/></g>
<g><path style="opacity:1" fill="#902524" d="M 1190.5,100.5 C 1193.68,106.196 1196.34,112.196 1198.5,118.5C 1197.62,118.631 1196.96,118.298 1196.5,117.5C 1193.68,112.03 1191.68,106.363 1190.5,100.5 Z"/></g>
<g><path style="opacity:1" fill="#932a29" d="M 609.5,47.5 C 610.517,74.3303 611.183,101.33 611.5,128.5C 610.883,128.389 610.383,128.056 610,127.5C 609.818,118.922 609.318,110.422 608.5,102C 609.492,83.9099 609.826,65.7433 609.5,47.5 Z"/></g>
<g><path style="opacity:1" fill="#902525" d="M 1452.5,113.5 C 1451.73,120.477 1449.73,126.811 1446.5,132.5C 1447.44,125.733 1449.44,119.4 1452.5,113.5 Z"/></g>
<g><path style="opacity:1" fill="#922424" d="M 1198.5,118.5 C 1201.28,122.405 1203.28,126.738 1204.5,131.5C 1201,128.043 1199,123.71 1198.5,118.5 Z"/></g>
<g><path style="opacity:1" fill="#a12b2d" d="M 2046.5,32.5 C 2046.83,32.5 2047.17,32.5 2047.5,32.5C 2047.5,63.5 2047.5,94.5 2047.5,125.5C 2046.4,127.103 2045.07,128.603 2043.5,130C 1929.5,130.5 1815.5,130.667 1701.5,130.5C 1702.62,129.191 1704.12,128.525 1706,128.5C 1817.21,129.656 1928.71,129.823 2040.5,129C 2042.62,127.878 2044.46,126.378 2046,124.5C 2046.5,93.8351 2046.67,63.1685 2046.5,32.5 Z"/></g>
<g><path style="opacity:1" fill="#8d3436" d="M 120.5,126.5 C 121.167,127.5 121.833,128.5 122.5,129.5C 123.209,130.404 124.209,130.737 125.5,130.5C 125.5,130.833 125.5,131.167 125.5,131.5C 121.5,132.167 119.833,130.5 120.5,126.5 Z"/></g>
<g><path style="opacity:1" fill="#9e2326" d="M 389.5,132.5 C 301.518,131.513 213.518,131.18 125.5,131.5C 125.5,131.167 125.5,130.833 125.5,130.5C 212.071,130.832 298.571,130.498 385,129.5C 386.652,130.399 388.152,131.399 389.5,132.5 Z"/></g>
<g><path style="opacity:1" fill="#972b2b" d="M 1204.5,131.5 C 1206.59,134.088 1207.93,137.088 1208.5,140.5C 1205.87,138.236 1204.54,135.236 1204.5,131.5 Z"/></g>
<g><path style="opacity:1" fill="#a12f2f" d="M 1696.5,131.5 C 1693.38,132.87 1690.05,133.87 1686.5,134.5C 1689.29,132.024 1692.62,131.024 1696.5,131.5 Z"/></g>
<g><path style="opacity:1" fill="#9c2626" d="M 1686.5,134.5 C 1684.11,136.02 1681.44,137.02 1678.5,137.5C 1680.5,135.018 1683.17,134.018 1686.5,134.5 Z"/></g>
<g><path style="opacity:1" fill="#9e2b2b" d="M 1678.5,137.5 C 1673.87,140.151 1669.2,142.818 1664.5,145.5C 1667.16,142.312 1670.49,139.812 1674.5,138C 1675.79,137.51 1677.13,137.343 1678.5,137.5 Z"/></g>
<g><path style="opacity:1" fill="#922726" d="M 846.5,118.5 C 846.477,120.927 845.977,123.26 845,125.5C 840.289,134.955 835.955,144.621 832,154.5C 831.502,156.544 830.335,157.878 828.5,158.5C 833.989,144.861 839.989,131.528 846.5,118.5 Z"/></g>
<g><path style="opacity:1" fill="#992929" d="M 389.5,132.5 C 391.655,132.372 393.655,132.872 395.5,134C 398.305,135.479 400.805,137.312 403,139.5C 403.333,139.167 403.667,138.833 404,138.5C 405.118,140.765 405.951,143.099 406.5,145.5C 401.711,140.048 396.045,135.715 389.5,132.5 Z"/></g>
<g><path style="opacity:1" fill="#8b1c1c" d="M 611.5,130.5 C 611.5,141.833 611.5,153.167 611.5,164.5C 611.167,164.5 610.833,164.5 610.5,164.5C 610.585,159.939 610.251,155.439 609.5,151C 610.15,144.068 610.817,137.234 611.5,130.5 Z"/></g>
<g><path style="opacity:1" fill="#9f1d19" d="M 1664.5,145.5 C 1663.42,147.543 1661.75,148.876 1659.5,149.5C 1659.66,147.801 1659.49,146.134 1659,144.5C 1658.35,145.696 1657.85,145.696 1657.5,144.5C 1658,144.167 1658.5,143.833 1659,143.5C 1660.8,144.32 1662.63,144.986 1664.5,145.5 Z"/></g>
<g><path style="opacity:1" fill="#922524" d="M 1445.5,137.5 C 1445.03,143.162 1444.53,148.829 1444,154.5C 1443.58,155.756 1442.75,156.423 1441.5,156.5C 1442.34,149.953 1443.68,143.619 1445.5,137.5 Z"/></g>
<g><path style="opacity:1" fill="#922423" d="M 1209.5,142.5 C 1211.29,144.426 1212.29,146.759 1212.5,149.5C 1211.5,149.586 1210.67,149.252 1210,148.5C 1209.5,146.527 1209.34,144.527 1209.5,142.5 Z"/></g>
<g><path style="opacity:1" fill="#912827" d="M 1212.5,149.5 C 1216.34,156.527 1219.68,163.86 1222.5,171.5C 1217.62,165.061 1214.29,157.728 1212.5,149.5 Z"/></g>
<g><path style="opacity:1" fill="#972d2d" d="M 406.5,145.5 C 407.376,145.369 408.043,145.702 408.5,146.5C 410.927,150.557 412.26,154.89 412.5,159.5C 410.545,154.911 408.545,150.245 406.5,145.5 Z"/></g>
<g><path style="opacity:1" fill="#942423" d="M 1658.5,150.5 C 1653.8,156.191 1649.14,161.858 1644.5,167.5C 1647.05,160.043 1651.72,154.376 1658.5,150.5 Z"/></g>
<g><path style="opacity:1" fill="#a50b0a" d="M 1443.5,159.5 C 1443.27,162.843 1443.77,166.176 1445,169.5C 1445.81,168.04 1446.64,167.707 1447.5,168.5C 1448.61,173.832 1448.61,178.665 1447.5,183C 1448.17,183.333 1448.83,183.667 1449.5,184C 1448.17,228.667 1448.17,273.333 1449.5,318C 1448.85,323.78 1448.19,329.613 1447.5,335.5C 1447.17,335.333 1446.83,335.167 1446.5,335C 1446.56,283.298 1446.56,231.298 1446.5,179C 1445.93,177.795 1445.26,176.628 1444.5,175.5C 1443.83,226.332 1443.17,276.998 1442.5,327.5C 1442.17,271.331 1442.5,215.331 1443.5,159.5 Z"/></g>
<g><path style="opacity:1" fill="#8b1f1e" d="M 1441.5,157.5 C 1442.5,157.833 1443.17,158.5 1443.5,159.5C 1442.5,215.331 1442.17,271.331 1442.5,327.5C 1442.71,336.267 1442.71,344.934 1442.5,353.5C 1441.68,350.359 1441.18,347.025 1441,343.5C 1440.19,281.485 1440.36,219.485 1441.5,157.5 Z"/></g>
<g><path style="opacity:1" fill="#8d2524" d="M 828.5,158.5 C 828.946,162.36 827.613,165.36 824.5,167.5C 825.463,164.256 826.796,161.256 828.5,158.5 Z"/></g>
<g><path style="opacity:1" fill="#a34446" d="M 610.5,165.5 C 610.5,165.167 610.5,164.833 610.5,164.5C 610.833,164.5 611.167,164.5 611.5,164.5C 612.833,165.5 612.833,166.5 611.5,167.5C 611.672,166.508 611.338,165.842 610.5,165.5 Z"/></g>
<g><path style="opacity:1" fill="#962b2b" d="M 1644.5,167.5 C 1643.42,170.004 1642.08,172.337 1640.5,174.5C 1640.59,173.504 1640.25,172.671 1639.5,172C 1640.65,169.8 1642.32,168.3 1644.5,167.5 Z"/></g>
<g><path style="opacity:1" fill="#902726" d="M 1222.5,171.5 C 1223.67,172.514 1224.34,173.847 1224.5,175.5C 1222.82,174.817 1222.16,173.483 1222.5,171.5 Z"/></g>
<g><path style="opacity:1" fill="#972a2a" d="M 1640.5,174.5 C 1639.4,177.686 1638.07,180.686 1636.5,183.5C 1635.96,179.584 1637.29,176.584 1640.5,174.5 Z"/></g>
<g><path style="opacity:1" fill="#902626" d="M 1224.5,175.5 C 1228.34,182.527 1231.68,189.86 1234.5,197.5C 1233.62,197.631 1232.96,197.298 1232.5,196.5C 1228.96,189.766 1226.29,182.766 1224.5,175.5 Z"/></g>
<g><path style="opacity:1" fill="#8e2524" d="M 1636.5,183.5 C 1636.2,186.522 1635.7,189.522 1635,192.5C 1634.5,232.165 1634.33,271.832 1634.5,311.5C 1633.17,292.345 1632.5,272.845 1632.5,253C 1632.67,233.5 1632.83,214 1633,194.5C 1632.94,190.284 1634.1,186.618 1636.5,183.5 Z"/></g>
<g><path style="opacity:1" fill="#912423" d="M 824.5,167.5 C 823.983,171.553 822.65,175.387 820.5,179C 822.932,180.087 822.598,180.587 819.5,180.5C 816.499,190.168 812.166,199.168 806.5,207.5C 811.989,193.861 817.989,180.528 824.5,167.5 Z"/></g>
<g><path style="opacity:1" fill="#902524" d="M 1234.5,197.5 C 1237.02,201.877 1239.02,206.544 1240.5,211.5C 1236.78,207.713 1234.78,203.047 1234.5,197.5 Z"/></g>
<g><path style="opacity:1" fill="#912726" d="M 806.5,207.5 C 806.459,211.236 805.126,214.236 802.5,216.5C 803.075,213.088 804.408,210.088 806.5,207.5 Z"/></g>
<g><path style="opacity:1" fill="#8e2120" d="M 1240.5,211.5 C 1241.67,212.514 1242.34,213.847 1242.5,215.5C 1239.52,215.206 1238.85,213.872 1240.5,211.5 Z"/></g>
<g><path style="opacity:1" fill="#912625" d="M 1242.5,215.5 C 1244.62,218.088 1245.96,221.088 1246.5,224.5C 1243.87,222.236 1242.54,219.236 1242.5,215.5 Z"/></g>
<g><path style="opacity:1" fill="#902524" d="M 802.5,216.5 C 802.263,219.647 801.43,222.647 800,225.5C 795.509,234.311 791.509,243.311 788,252.5C 787.26,254.319 786.093,255.652 784.5,256.5C 789.989,242.861 795.989,229.528 802.5,216.5 Z"/></g>
<g><path style="opacity:1" fill="#942726" d="M 1246.5,224.5 C 1247.67,225.514 1248.34,226.847 1248.5,228.5C 1246.82,227.817 1246.16,226.483 1246.5,224.5 Z"/></g>
<g><path style="opacity:1" fill="#902423" d="M 1248.5,228.5 C 1250.07,230.509 1251.07,232.843 1251.5,235.5C 1248.91,233.964 1247.91,231.631 1248.5,228.5 Z"/></g>
<g><path style="opacity:1" fill="#922524" d="M 610.5,165.5 C 611.338,165.842 611.672,166.508 611.5,167.5C 612.32,194.684 612.987,221.684 613.5,248.5C 612.282,243.537 611.282,238.537 610.5,233.5C 610.889,211.38 610.889,188.714 610.5,165.5 Z"/></g>
<g><path style="opacity:1" fill="#8d2524" d="M 1252.5,237.5 C 1254.59,240.088 1255.93,243.088 1256.5,246.5C 1253.66,244.36 1252.33,241.36 1252.5,237.5 Z"/></g>
<g><path style="opacity:1" fill="#a41210" d="M 610.5,233.5 C 611.282,238.537 612.282,243.537 613.5,248.5C 613.5,251.833 613.5,255.167 613.5,258.5C 612.833,259.833 612.167,261.167 611.5,262.5C 610.25,262.907 609.083,262.241 608,260.5C 607.805,255.582 607.305,250.749 606.5,246C 607.167,245.333 607.833,244.667 608.5,244C 606.201,241.465 606.201,238.798 608.5,236C 608.167,235.667 607.833,235.333 607.5,235C 608.502,233.844 609.502,233.344 610.5,233.5 Z"/></g>
<g><path style="opacity:1" fill="#921c1c" d="M 1053.5,262.5 C 1051.31,257.329 1047.65,253.495 1042.5,251C 1029.13,250.222 1015.8,250.389 1002.5,251.5C 1001.83,251.5 1001.17,251.5 1000.5,251.5C 1001.26,250.732 1002.26,250.232 1003.5,250C 1016.68,249.781 1029.52,249.281 1042,248.5C 1044.33,249.833 1046.67,251.167 1049,252.5C 1049.95,254.455 1051.29,256.122 1053,257.5C 1053.49,259.134 1053.66,260.801 1053.5,262.5 Z"/></g>
<g><path style="opacity:1" fill="#973b3d" d="M 1000.5,251.5 C 1001.17,251.5 1001.83,251.5 1002.5,251.5C 1001.83,252.833 1000.83,253.833 999.5,254.5C 999.557,253.391 999.89,252.391 1000.5,251.5 Z"/></g>
<g><path style="opacity:1" fill="#902322" d="M 1256.5,246.5 C 1261.01,254.858 1265.01,263.525 1268.5,272.5C 1265.59,268.412 1262.76,264.079 1260,259.5C 1259.46,255.549 1257.96,252.049 1255.5,249C 1256.25,248.329 1256.59,247.496 1256.5,246.5 Z"/></g>
<g><path style="opacity:1" fill="#982626" d="M 1000.5,251.5 C 999.89,252.391 999.557,253.391 999.5,254.5C 997.084,256.908 995.084,259.574 993.5,262.5C 993.372,260.345 993.872,258.345 995,256.5C 996.076,253.921 997.909,252.254 1000.5,251.5 Z"/></g>
<g><path style="opacity:1" fill="#902524" d="M 784.5,256.5 C 784.459,260.236 783.126,263.236 780.5,265.5C 781.075,262.088 782.408,259.088 784.5,256.5 Z"/></g>
<g><path style="opacity:1" fill="#942726" d="M 993.5,262.5 C 992.341,266.151 990.674,269.485 988.5,272.5C 988.67,271.178 988.337,270.011 987.5,269C 989.041,267.421 990.208,265.587 991,263.5C 991.671,262.748 992.504,262.414 993.5,262.5 Z"/></g>
<g><path style="opacity:1" fill="#92191a" d="M 613.5,258.5 C 613.175,276.077 613.508,293.577 614.5,311C 613.681,319.755 613.181,328.589 613,337.5C 612.571,342.047 611.738,346.381 610.5,350.5C 609.834,345.158 610.501,339.825 612.5,334.5C 612.55,309.82 612.217,285.82 611.5,262.5C 612.167,261.167 612.833,259.833 613.5,258.5 Z"/></g>
<g><path style="opacity:1" fill="#952524" d="M 1053.5,262.5 C 1056.88,264.906 1058.55,268.239 1058.5,272.5C 1056.33,269.485 1054.66,266.151 1053.5,262.5 Z"/></g>
<g><path style="opacity:1" fill="#992c2b" d="M 1058.5,272.5 C 1060.83,274.176 1061.83,276.509 1061.5,279.5C 1059.93,277.491 1058.93,275.157 1058.5,272.5 Z"/></g>
<g><path style="opacity:1" fill="#8f2423" d="M 1268.5,272.5 C 1269.93,273.78 1270.6,275.447 1270.5,277.5C 1269.45,277.649 1268.45,277.483 1267.5,277C 1268.38,275.644 1268.71,274.144 1268.5,272.5 Z"/></g>
<g><path style="opacity:1" fill="#902929" d="M 987.5,275.5 C 986.403,278.686 985.07,281.686 983.5,284.5C 982.929,280.513 984.262,277.513 987.5,275.5 Z"/></g>
<g><path style="opacity:1" fill="#8d2423" d="M 1271.5,279.5 C 1273.95,282.74 1275.62,286.407 1276.5,290.5C 1275.07,289.554 1273.74,288.388 1272.5,287C 1272.83,286.667 1273.17,286.333 1273.5,286C 1271.98,284.103 1271.32,281.936 1271.5,279.5 Z"/></g>
<g><path style="opacity:1" fill="#982b2b" d="M 1061.5,279.5 C 1065,282.181 1066.67,285.848 1066.5,290.5C 1064.6,287.021 1062.93,283.354 1061.5,279.5 Z"/></g>
<g><path style="opacity:1" fill="#8e2222" d="M 778.5,269.5 C 777.729,274.311 776.062,278.811 773.5,283C 773.833,283.333 774.167,283.667 774.5,284C 769.975,291.383 765.975,299.05 762.5,307C 762.833,307.333 763.167,307.667 763.5,308C 760.571,311.29 758.904,315.123 758.5,319.5C 757.5,319.5 756.5,319.5 755.5,319.5C 762.795,302.592 770.462,285.925 778.5,269.5 Z"/></g>
<g><path style="opacity:1" fill="#8d2424" d="M 982.5,286.5 C 982.34,288.153 981.674,289.486 980.5,290.5C 978.852,288.128 979.519,286.794 982.5,286.5 Z"/></g>
<g><path style="opacity:1" fill="#9a2f30" d="M 980.5,290.5 C 980.598,292.553 979.931,294.22 978.5,295.5C 978.12,293.302 978.787,291.635 980.5,290.5 Z"/></g>
<g><path style="opacity:1" fill="#892020" d="M 1276.5,290.5 C 1277.67,291.514 1278.34,292.847 1278.5,294.5C 1275.52,294.206 1274.85,292.872 1276.5,290.5 Z"/></g>
<g><path style="opacity:1" fill="#912424" d="M 1066.5,290.5 C 1068.53,292.851 1070.36,295.517 1072,298.5C 1072.49,300.134 1072.66,301.801 1072.5,303.5C 1070.26,299.355 1068.26,295.022 1066.5,290.5 Z"/></g>
<g><path style="opacity:1" fill="#8e2221" d="M 1278.5,294.5 C 1280.59,297.088 1281.93,300.088 1282.5,303.5C 1279.33,301.481 1278,298.481 1278.5,294.5 Z"/></g>
<g><path style="opacity:1" fill="#922525" d="M 978.5,295.5 C 977.403,298.686 976.07,301.686 974.5,304.5C 973.996,300.519 975.329,297.519 978.5,295.5 Z"/></g>
<g><path style="opacity:1" fill="#8e2625" d="M 1072.5,303.5 C 1075.61,305.64 1076.95,308.64 1076.5,312.5C 1074.8,309.744 1073.46,306.744 1072.5,303.5 Z"/></g>
<g><path style="opacity:1" fill="#8c2423" d="M 1282.5,303.5 C 1283.67,304.514 1284.34,305.847 1284.5,307.5C 1282.82,306.817 1282.16,305.483 1282.5,303.5 Z"/></g>
<g><path style="opacity:1" fill="#8f2929" d="M 973.5,306.5 C 973.204,308.403 972.537,310.07 971.5,311.5C 971.077,309.219 971.744,307.552 973.5,306.5 Z"/></g>
<g><path style="opacity:1" fill="#8e2120" d="M 1284.5,307.5 C 1286.2,310.256 1287.54,313.256 1288.5,316.5C 1285.66,314.36 1284.33,311.36 1284.5,307.5 Z"/></g>
<g><path style="opacity:1" fill="#8c2626" d="M 970.5,313.5 C 970.34,315.153 969.674,316.486 968.5,317.5C 968.157,315.517 968.824,314.183 970.5,313.5 Z"/></g>
<g><path style="opacity:1" fill="#952726" d="M 1634.5,311.5 C 1635.8,315.733 1637.13,320.067 1638.5,324.5C 1637.62,324.631 1636.96,324.298 1636.5,323.5C 1634.49,319.535 1633.83,315.535 1634.5,311.5 Z"/></g>
<g><path style="opacity:1" fill="#8d2a29" d="M 412.5,159.5 C 413.169,210.569 413.836,261.736 414.5,313C 412.681,317.104 410.848,321.271 409,325.5C 406.417,328.997 404.084,332.664 402,336.5C 401.617,335.944 401.117,335.611 400.5,335.5C 405.656,328.187 409.489,320.187 412,311.5C 412.5,260.834 412.667,210.168 412.5,159.5 Z"/></g>
<g><path style="opacity:1" fill="#912525" d="M 1076.5,312.5 C 1077.5,312.414 1078.33,312.748 1079,313.5C 1081.68,318.533 1083.52,323.867 1084.5,329.5C 1081.46,324.082 1078.8,318.416 1076.5,312.5 Z"/></g>
<g><path style="opacity:1" fill="#8f2120" d="M 1288.5,316.5 C 1290.59,319.088 1291.93,322.088 1292.5,325.5C 1291.5,325.586 1290.67,325.252 1290,324.5C 1289.18,321.883 1288.68,319.216 1288.5,316.5 Z"/></g>
<g><path style="opacity:1" fill="#942525" d="M 966.5,322.5 C 963.677,330.14 960.344,337.473 956.5,344.5C 956.34,342.801 956.506,341.134 957,339.5C 959.146,336.874 960.479,333.874 961,330.5C 962.64,328.421 963.806,326.088 964.5,323.5C 964.957,322.702 965.624,322.369 966.5,322.5 Z"/></g>
<g><path style="opacity:1" fill="#932929" d="M 1084.5,329.5 C 1086.26,330.552 1086.92,332.219 1086.5,334.5C 1085.46,333.07 1084.8,331.403 1084.5,329.5 Z"/></g>
<g><path style="opacity:1" fill="#8e2423" d="M 1292.5,325.5 C 1296.34,332.527 1299.68,339.86 1302.5,347.5C 1301.5,347.586 1300.67,347.252 1300,346.5C 1297.02,339.633 1294.52,332.633 1292.5,325.5 Z"/></g>
<g><path style="opacity:1" fill="#922726" d="M 1638.5,324.5 C 1644.45,336.114 1653.11,345.114 1664.5,351.5C 1660.63,350.232 1656.96,348.398 1653.5,346C 1648.61,341.113 1644.11,336.613 1640,332.5C 1639.49,330.156 1638.99,327.489 1638.5,324.5 Z"/></g>
<g><path style="opacity:1" fill="#8e2323" d="M 755.5,320.5 C 755.66,322.199 755.494,323.866 755,325.5C 750.593,332.575 747.093,340.075 744.5,348C 744.164,349.03 743.497,349.53 742.5,349.5C 746.042,339.421 750.376,329.754 755.5,320.5 Z"/></g>
<g><path style="opacity:1" fill="#8d2726" d="M 398.5,337.5 C 398.33,340.204 396.997,341.871 394.5,342.5C 395.604,340.611 396.937,338.945 398.5,337.5 Z"/></g>
<g><path style="opacity:1" fill="#8e2424" d="M 956.5,344.5 C 955.537,347.744 954.204,350.744 952.5,353.5C 951.996,349.519 953.329,346.519 956.5,344.5 Z"/></g>
<g><path style="opacity:1" fill="#912222" d="M 1088.5,338.5 C 1092.02,342.014 1094.02,346.347 1094.5,351.5C 1092.13,347.414 1090.13,343.081 1088.5,338.5 Z"/></g>
<g><path style="opacity:1" fill="#932322" d="M 390.5,346.5 C 389.526,349.496 387.526,351.163 384.5,351.5C 385.911,349.086 387.911,347.419 390.5,346.5 Z"/></g>
<g><path style="opacity:1" fill="#972928" d="M 1302.5,347.5 C 1303.67,348.514 1304.34,349.847 1304.5,351.5C 1302.82,350.817 1302.16,349.483 1302.5,347.5 Z"/></g>
<g><path style="opacity:1" fill="#962423" d="M 1094.5,351.5 C 1096.18,352.183 1096.84,353.517 1096.5,355.5C 1095.33,354.486 1094.66,353.153 1094.5,351.5 Z"/></g>
<g><path style="opacity:1" fill="#962322" d="M 1665.5,352.5 C 1668.99,353.41 1671.99,355.076 1674.5,357.5C 1670.66,357.087 1667.66,355.42 1665.5,352.5 Z"/></g>
<g><path style="opacity:1" fill="#922a29" d="M 1096.5,355.5 C 1099.13,357.764 1100.46,360.764 1100.5,364.5C 1098.41,361.912 1097.07,358.912 1096.5,355.5 Z"/></g>
<g><path style="opacity:1" fill="#9a2828" d="M 384.5,351.5 C 381.293,355.377 377.293,358.044 372.5,359.5C 376.223,356.449 380.223,353.782 384.5,351.5 Z"/></g>
<g><path style="opacity:1" fill="#902121" d="M 610.5,350.5 C 609.927,356.455 608.593,362.122 606.5,367.5C 606.586,366.504 606.252,365.671 605.5,365C 606.694,359.914 608.361,355.081 610.5,350.5 Z"/></g>
<g><path style="opacity:1" fill="#943232" d="M 372.5,359.5 C 371.713,361.104 370.38,361.771 368.5,361.5C 369.514,360.326 370.847,359.66 372.5,359.5 Z"/></g>
<g><path style="opacity:1" fill="#912726" d="M 741.5,351.5 C 740.822,355.285 739.655,358.951 738,362.5C 737.502,364.544 736.335,365.878 734.5,366.5C 736.597,361.311 738.93,356.311 741.5,351.5 Z"/></g>
<g><path style="opacity:1" fill="#922828" d="M 1304.5,351.5 C 1309.2,360.591 1313.54,369.924 1317.5,379.5C 1315.07,376.86 1312.74,374.027 1310.5,371C 1310.83,370.667 1311.17,370.333 1311.5,370C 1308.16,364.161 1305.82,357.995 1304.5,351.5 Z"/></g>
<g><path style="opacity:1" fill="#992827" d="M 368.5,361.5 C 365.9,364.46 362.567,365.794 358.5,365.5C 361.678,363.991 365.011,362.658 368.5,361.5 Z"/></g>
<g><path style="opacity:1" fill="#9e2c2c" d="M 1674.5,357.5 C 1684.53,361.959 1694.86,364.959 1705.5,366.5C 1704.17,366.5 1702.83,366.5 1701.5,366.5C 1692.94,365.611 1684.44,363.278 1676,359.5C 1674.97,359.164 1674.47,358.497 1674.5,357.5 Z"/></g>
<g><path style="opacity:1" fill="#a40c0b" d="M 1701.5,366.5 C 1702.83,366.5 1704.17,366.5 1705.5,366.5C 1705.83,366.5 1706.17,366.5 1706.5,366.5C 1816.17,367.167 1925.83,367.833 2035.5,368.5C 2033.42,371.071 2031.26,371.071 2029,368.5C 1922.13,369.476 1813.63,369.809 1703.5,369.5C 1702.57,368.643 1701.91,367.643 1701.5,366.5 Z"/></g>
<g><path style="opacity:1" fill="#9e2426" d="M 1706.5,366.5 C 1817.5,366.333 1928.5,366.5 2039.5,367C 2041.45,368.412 2042.79,370.245 2043.5,372.5C 2043.17,372.5 2042.83,372.5 2042.5,372.5C 2040.86,370.699 2039.03,369.033 2037,367.5C 2036.62,368.056 2036.12,368.389 2035.5,368.5C 1925.83,367.833 1816.17,367.167 1706.5,366.5 Z"/></g>
<g><path style="opacity:1" fill="#9e2426" d="M 357.5,365.5 C 355.974,367.13 353.974,367.963 351.5,368C 335.503,368.5 319.503,368.667 303.5,368.5C 205.833,368.5 108.167,368.5 10.5,368.5C 9.12656,368.343 7.79323,368.51 6.5,369C 4.31025,370.088 2.97692,371.254 2.5,372.5C 2.16667,372.5 1.83333,372.5 1.5,372.5C 1.62435,370.418 2.62435,368.918 4.5,368C 119.5,367.667 234.5,367.333 349.5,367C 352.207,366.605 354.873,366.105 357.5,365.5 Z"/></g>
<g><path style="opacity:1" fill="#922625" d="M 606.5,367.5 C 606.405,369.786 605.738,371.786 604.5,373.5C 604.025,370.918 604.692,368.918 606.5,367.5 Z"/></g>
<g><path style="opacity:1" fill="#a50b0a" d="M 10.5,368.5 C 108.167,368.5 205.833,368.5 303.5,368.5C 304.429,369.315 305.429,370.148 306.5,371C 306.167,371.167 305.833,371.333 305.5,371.5C 240.831,371.831 176.331,371.497 112,370.5C 109.91,371.794 107.91,372.794 106,373.5C 105.333,372.833 104.667,372.167 104,371.5C 102.667,374.167 101.333,374.167 100,371.5C 98.2215,372.479 96.5548,372.146 95,370.5C 69.0812,371.488 43.2478,371.821 17.5,371.5C 15.1667,371.333 12.8333,371.167 10.5,371C 11.5981,370.23 11.5981,369.397 10.5,368.5 Z"/></g>
<g><path style="opacity:1" fill="#922726" d="M 1102.5,368.5 C 1104.26,369.552 1104.92,371.219 1104.5,373.5C 1103.07,372.22 1102.4,370.553 1102.5,368.5 Z"/></g>
<g><path style="opacity:1" fill="#922423" d="M 952.5,353.5 C 949.344,361.808 945.677,369.808 941.5,377.5C 941.966,375.799 941.966,374.299 941.5,373C 942.167,371.667 943.167,370.667 944.5,370C 943.892,367.816 944.559,365.816 946.5,364C 946.167,363.667 945.833,363.333 945.5,363C 947.965,360.702 949.632,357.868 950.5,354.5C 950.957,353.702 951.624,353.369 952.5,353.5 Z"/></g>
<g><path style="opacity:1" fill="#8b1e1d" d="M 1.5,372.5 C 1.83333,372.5 2.16667,372.5 2.5,372.5C 2.52182,409.678 2.52182,446.678 2.5,483.5C 1.77842,483.082 1.27842,482.416 1,481.5C 0.168966,444.998 0.335632,408.664 1.5,372.5 Z"/></g>
<g><path style="opacity:1" fill="#912625" d="M 1444.5,365.5 C 1446.06,368.642 1447.56,371.975 1449,375.5C 1449.95,378.432 1450.45,381.432 1450.5,384.5C 1447.32,378.635 1445.32,372.301 1444.5,365.5 Z"/></g>
<g><path style="opacity:1" fill="#8b1e1e" d="M 2042.5,372.5 C 2042.83,372.5 2043.17,372.5 2043.5,372.5C 2044.66,404.428 2044.83,436.428 2044,468.5C 2043.8,470.382 2043.3,472.048 2042.5,473.5C 2042.43,439.983 2042.43,406.316 2042.5,372.5 Z"/></g>
<g><path style="opacity:1" fill="#952827" d="M 602.5,379.5 C 602.598,381.553 601.931,383.22 600.5,384.5C 600.077,382.219 600.744,380.552 602.5,379.5 Z"/></g>
<g><path style="opacity:1" fill="#942726" d="M 1107.5,379.5 C 1109.96,381.818 1111.29,384.818 1111.5,388.5C 1109.8,385.744 1108.46,382.744 1107.5,379.5 Z"/></g>
<g><path style="opacity:1" fill="#952928" d="M 940.5,380.5 C 940.008,382.819 939.008,384.819 937.5,386.5C 937.031,383.607 938.031,381.607 940.5,380.5 Z"/></g>
<g><path style="opacity:1" fill="#9b3233" d="M 1318.5,382.5 C 1319.93,383.78 1320.6,385.447 1320.5,387.5C 1319.07,386.22 1318.4,384.553 1318.5,382.5 Z"/></g>
<g><path style="opacity:1" fill="#942727" d="M 598.5,389.5 C 598.065,392.157 597.065,394.491 595.5,396.5C 595.179,393.423 596.179,391.09 598.5,389.5 Z"/></g>
<g><path style="opacity:1" fill="#942626" d="M 1112.5,390.5 C 1115.86,393.207 1117.53,396.874 1117.5,401.5C 1115.6,398.021 1113.93,394.354 1112.5,390.5 Z"/></g>
<g><path style="opacity:1" fill="#972b29" d="M 595.5,396.5 C 594.59,399.992 592.924,402.992 590.5,405.5C 590.826,402.689 591.659,400.022 593,397.5C 593.671,396.748 594.504,396.414 595.5,396.5 Z"/></g>
<g><path style="opacity:1" fill="#8c2323" d="M 934.5,393.5 C 934.008,395.819 933.008,397.819 931.5,399.5C 931.031,396.607 932.031,394.607 934.5,393.5 Z"/></g>
<g><path style="opacity:1" fill="#952827" d="M 1320.5,387.5 C 1323.93,392.782 1326.6,398.448 1328.5,404.5C 1325.06,400.099 1322.06,395.265 1319.5,390C 1320.25,389.329 1320.59,388.496 1320.5,387.5 Z"/></g>
<g><path style="opacity:1" fill="#942625" d="M 1450.5,384.5 C 1455.13,390.77 1458.47,397.77 1460.5,405.5C 1456.38,398.923 1453.05,391.923 1450.5,384.5 Z"/></g>
<g><path style="opacity:1" fill="#912524" d="M 930.5,402.5 C 930.34,404.153 929.674,405.486 928.5,406.5C 928.157,404.517 928.824,403.183 930.5,402.5 Z"/></g>
<g><path style="opacity:1" fill="#8e2424" d="M 1118.5,403.5 C 1120.59,405.466 1122.59,407.632 1124.5,410C 1124.15,411.626 1124.15,413.459 1124.5,415.5C 1121.99,411.818 1119.99,407.818 1118.5,403.5 Z"/></g>
<g><path style="opacity:1" fill="#932424" d="M 1328.5,404.5 C 1329.93,405.78 1330.6,407.447 1330.5,409.5C 1328.74,408.448 1328.08,406.781 1328.5,404.5 Z"/></g>
<g><path style="opacity:1" fill="#912523" d="M 928.5,406.5 C 927.958,409.912 926.625,412.912 924.5,415.5C 924.054,411.64 925.387,408.64 928.5,406.5 Z"/></g>
<g><path style="opacity:1" fill="#942726" d="M 1330.5,409.5 C 1331.67,410.514 1332.34,411.847 1332.5,413.5C 1330.82,412.817 1330.16,411.483 1330.5,409.5 Z"/></g>
<g><path style="opacity:1" fill="#9a2a29" d="M 588.5,409.5 C 587.416,412.004 586.083,414.337 584.5,416.5C 584.216,413.143 585.549,410.809 588.5,409.5 Z"/></g>
<g><path style="opacity:1" fill="#972c2a" d="M 1460.5,405.5 C 1463.15,407.16 1465.15,409.493 1466.5,412.5C 1467.75,414.323 1468.41,416.323 1468.5,418.5C 1465.08,414.677 1462.42,410.343 1460.5,405.5 Z"/></g>
<g><path style="opacity:1" fill="#922726" d="M 1124.5,415.5 C 1126.26,416.552 1126.92,418.219 1126.5,420.5C 1125.07,419.22 1124.4,417.553 1124.5,415.5 Z"/></g>
<g><path style="opacity:1" fill="#992421" d="M 584.5,416.5 C 583.525,418.795 582.192,420.795 580.5,422.5C 581.138,420.54 581.138,418.707 580.5,417C 581.793,416.51 583.127,416.343 584.5,416.5 Z"/></g>
<g><path style="opacity:1" fill="#932525" d="M 734.5,366.5 C 734.66,368.199 734.494,369.866 734,371.5C 728.818,382.697 723.818,394.03 719,405.5C 712.583,418.945 706.083,432.278 699.5,445.5C 710.375,418.756 722.042,392.423 734.5,366.5 Z"/></g>
<g><path style="opacity:1" fill="#972726" d="M 924.5,415.5 C 923.618,419.593 921.951,423.26 919.5,426.5C 919.737,423.353 920.57,420.353 922,417.5C 922.417,416.244 923.25,415.577 924.5,415.5 Z"/></g>
<g><path style="opacity:1" fill="#9b2e2f" d="M 580.5,422.5 C 580.068,423.71 579.401,424.71 578.5,425.5C 578.285,423.821 578.952,422.821 580.5,422.5 Z"/></g>
<g><path style="opacity:1" fill="#962827" d="M 1468.5,418.5 C 1471.25,420.413 1473.75,422.746 1476,425.5C 1477.13,427.345 1477.63,429.345 1477.5,431.5C 1474.14,427.465 1471.14,423.132 1468.5,418.5 Z"/></g>
<g><path style="opacity:1" fill="#922726" d="M 1128.5,424.5 C 1130.34,425.122 1131.5,426.456 1132,428.5C 1133.43,431.353 1134.26,434.353 1134.5,437.5C 1132.26,433.355 1130.26,429.022 1128.5,424.5 Z"/></g>
<g><path style="opacity:1" fill="#912524" d="M 1332.5,413.5 C 1337.4,423.646 1342.07,433.979 1346.5,444.5C 1345.62,444.631 1344.96,444.298 1344.5,443.5C 1339.05,434.062 1335.05,424.062 1332.5,413.5 Z"/></g>
<g><path style="opacity:1" fill="#942625" d="M 574.5,430.5 C 572.878,433.455 570.878,436.122 568.5,438.5C 568.635,434.373 570.635,431.706 574.5,430.5 Z"/></g>
<g><path style="opacity:1" fill="#972927" d="M 1477.5,431.5 C 1481.48,433.098 1483.82,436.098 1484.5,440.5C 1481.82,437.81 1479.48,434.81 1477.5,431.5 Z"/></g>
<g><path style="opacity:1" fill="#982827" d="M 566.5,440.5 C 564.883,443.784 562.55,446.451 559.5,448.5C 560.378,445.944 561.711,443.61 563.5,441.5C 564.325,440.614 565.325,440.281 566.5,440.5 Z"/></g>
<g><path style="opacity:1" fill="#992b29" d="M 912.5,442.5 C 912.204,444.403 911.537,446.07 910.5,447.5C 909.183,445.124 909.85,443.457 912.5,442.5 Z"/></g>
<g><path style="opacity:1" fill="#942524" d="M 1484.5,440.5 C 1486.39,441.048 1488.06,442.048 1489.5,443.5C 1494.62,449.962 1500.45,455.629 1507,460.5C 1507.46,461.094 1507.63,461.761 1507.5,462.5C 1498.56,456.564 1490.9,449.231 1484.5,440.5 Z"/></g>
<g><path style="opacity:1" fill="#922524" d="M 1346.5,444.5 C 1349.68,450.206 1352.35,456.206 1354.5,462.5C 1351.15,457.641 1348.15,452.474 1345.5,447C 1346.25,446.329 1346.59,445.496 1346.5,444.5 Z"/></g>
<g><path style="opacity:1" fill="#9d2d2b" d="M 559.5,448.5 C 557.431,451.573 554.764,453.906 551.5,455.5C 553.046,453.351 554.712,451.184 556.5,449C 557.448,448.517 558.448,448.351 559.5,448.5 Z"/></g>
<g><path style="opacity:1" fill="#9a2f2e" d="M 1143.5,455.5 C 1145.18,456.183 1145.84,457.517 1145.5,459.5C 1144.33,458.486 1143.66,457.153 1143.5,455.5 Z"/></g>
<g><path style="opacity:1" fill="#912625" d="M 1145.5,459.5 C 1147.43,460.642 1148.93,462.308 1150,464.5C 1150.49,465.793 1150.66,467.127 1150.5,468.5C 1148.44,465.76 1146.77,462.76 1145.5,459.5 Z"/></g>
<g><path style="opacity:1" fill="#932423" d="M 699.5,445.5 C 699.657,446.873 699.49,448.207 699,449.5C 695.631,455.894 693.131,462.56 691.5,469.5C 690.5,469.5 689.5,469.5 688.5,469.5C 691.417,461.05 695.084,453.05 699.5,445.5 Z"/></g>
<g><path style="opacity:1" fill="#952929" d="M 908.5,451.5 C 906.177,458.153 902.844,464.153 898.5,469.5C 901.267,464.063 903.767,458.396 906,452.5C 906.671,451.748 907.504,451.414 908.5,451.5 Z"/></g>
<g><path style="opacity:1" fill="#912725" d="M 1354.5,462.5 C 1356.62,465.088 1357.96,468.088 1358.5,471.5C 1355.87,469.236 1354.54,466.236 1354.5,462.5 Z"/></g>
<g><path style="opacity:1" fill="#962222" d="M 547.5,459.5 C 544.725,462.605 541.392,464.938 537.5,466.5C 539.124,464.209 541.124,462.209 543.5,460.5C 544.689,459.571 546.022,459.238 547.5,459.5 Z"/></g>
<g><path style="opacity:1" fill="#902424" d="M 1507.5,462.5 C 1511.37,464.193 1514.87,466.526 1518,469.5C 1518.33,469.167 1518.67,468.833 1519,468.5C 1519.48,469.448 1519.65,470.448 1519.5,471.5C 1514.91,469.238 1510.91,466.238 1507.5,462.5 Z"/></g>
<g><path style="opacity:1" fill="#992726" d="M 535.5,468.5 C 533.206,470.653 530.54,472.32 527.5,473.5C 529.124,470.346 531.791,468.679 535.5,468.5 Z"/></g>
<g><path style="opacity:1" fill="#962422" d="M 898.5,469.5 C 895.877,473.791 892.544,477.457 888.5,480.5C 888.351,479.448 888.517,478.448 889,477.5C 891.472,475.702 893.139,473.368 894,470.5C 895.356,469.62 896.856,469.286 898.5,469.5 Z"/></g>
<g><path style="opacity:1" fill="#932121" d="M 1535.5,480.5 C 1530.17,478.841 1525.51,476.174 1521.5,472.5C 1522.5,472.586 1523.33,472.252 1524,471.5C 1527.81,474.64 1531.65,477.64 1535.5,480.5 Z"/></g>
<g><path style="opacity:1" fill="#942524" d="M 527.5,473.5 C 524.992,475.924 521.992,477.59 518.5,478.5C 519.184,476.551 520.351,474.885 522,473.5C 523.626,473.854 525.459,473.854 527.5,473.5 Z"/></g>
<g><path style="opacity:1" fill="#882121" d="M 1358.5,471.5 C 1359.67,472.514 1360.34,473.847 1360.5,475.5C 1358.82,474.817 1358.16,473.483 1358.5,471.5 Z"/></g>
<g><path style="opacity:1" fill="#9c2d2c" d="M 1152.5,471.5 C 1156.49,474.496 1159.83,478.163 1162.5,482.5C 1157.77,480.108 1154.44,476.441 1152.5,471.5 Z"/></g>
<g><path style="opacity:1" fill="#902726" d="M 1360.5,475.5 C 1361.67,476.514 1362.34,477.847 1362.5,479.5C 1360.82,478.817 1360.16,477.483 1360.5,475.5 Z"/></g>
<g><path style="opacity:1" fill="#902423" d="M 688.5,469.5 C 688.477,471.927 687.977,474.26 687,476.5C 685.278,480.592 683.111,484.259 680.5,487.5C 682.599,481.185 685.266,475.185 688.5,469.5 Z"/></g>
<g><path style="opacity:1" fill="#a13030" d="M 888.5,480.5 C 888.027,481.906 887.027,482.573 885.5,482.5C 885.821,480.952 886.821,480.285 888.5,480.5 Z"/></g>
<g><path style="opacity:1" fill="#962424" d="M 1537.5,481.5 C 1540.24,481.707 1542.57,482.707 1544.5,484.5C 1541.76,484.293 1539.43,483.293 1537.5,481.5 Z"/></g>
<g><path style="opacity:1" fill="#932524" d="M 2042.5,473.5 C 2041.54,478.086 2039.54,482.086 2036.5,485.5C 2037.89,481.965 2039.06,478.298 2040,474.5C 2040.67,473.748 2041.5,473.414 2042.5,473.5 Z"/></g>
<g><path style="opacity:1" fill="#992524" d="M 518.5,478.5 C 514.419,481.874 509.753,484.207 504.5,485.5C 504.953,484.542 505.619,483.708 506.5,483C 510.631,481.664 514.631,480.164 518.5,478.5 Z"/></g>
<g><path style="opacity:1" fill="#962726" d="M 884.5,483.5 C 883.421,485.543 881.754,486.876 879.5,487.5C 879.967,484.703 881.633,483.369 884.5,483.5 Z"/></g>
<g><path style="opacity:1" fill="#922322" d="M 1362.5,479.5 C 1364.07,482.314 1365.4,485.314 1366.5,488.5C 1363.33,486.481 1362,483.481 1362.5,479.5 Z"/></g>
<g><path style="opacity:1" fill="#882120" d="M 3.5,485.5 C 5.44563,486.035 6.44563,487.368 6.5,489.5C 4.73758,488.738 3.73758,487.404 3.5,485.5 Z"/></g>
<g><path style="opacity:1" fill="#922828" d="M 504.5,485.5 C 502.819,487.008 500.819,488.008 498.5,488.5C 499.911,486.461 501.911,485.461 504.5,485.5 Z"/></g>
<g><path style="opacity:1" fill="#932121" d="M 1162.5,482.5 C 1167.01,484.919 1171.34,487.586 1175.5,490.5C 1170.32,489.083 1165.99,486.417 1162.5,482.5 Z"/></g>
<g><path style="opacity:1" fill="#8d2c2c" d="M 1544.5,484.5 C 1546.38,484.229 1547.71,484.896 1548.5,486.5C 1546.85,486.34 1545.51,485.674 1544.5,484.5 Z"/></g>
<g><path style="opacity:1" fill="#9a2928" d="M 879.5,487.5 C 878.035,488.737 876.368,489.737 874.5,490.5C 875.048,487.916 876.715,486.916 879.5,487.5 Z"/></g>
<g><path style="opacity:1" fill="#942323" d="M 1551.5,487.5 C 1556.59,487.98 1561.42,489.314 1566,491.5C 1567.11,490.288 1567.61,490.621 1567.5,492.5C 1561.83,491.61 1556.5,489.943 1551.5,487.5 Z"/></g>
<g><path style="opacity:1" fill="#8f2020" d="M 15.5,496.5 C 12.3257,495.99 9.99232,494.323 8.5,491.5C 9.82207,491.67 10.9887,491.337 12,490.5C 13.6883,491.325 13.8549,492.325 12.5,493.5C 13.7701,494.288 14.7701,495.288 15.5,496.5 Z"/></g>
<g><path style="opacity:1" fill="#982423" d="M 495.5,489.5 C 493.491,491.065 491.157,492.065 488.5,492.5C 490.206,490.464 492.539,489.464 495.5,489.5 Z"/></g>
<g><path style="opacity:1" fill="#8d2c2c" d="M 1175.5,490.5 C 1177.38,490.229 1178.71,490.896 1179.5,492.5C 1177.85,492.34 1176.51,491.674 1175.5,490.5 Z"/></g>
<g><path style="opacity:1" fill="#912524" d="M 487.5,492.5 C 486.486,493.674 485.153,494.34 483.5,494.5C 484.183,492.824 485.517,492.157 487.5,492.5 Z"/></g>
<g><path style="opacity:1" fill="#942222" d="M 874.5,490.5 C 871.48,492.677 868.147,494.343 864.5,495.5C 864.541,493.255 865.375,492.588 867,493.5C 869.235,491.798 871.735,490.798 874.5,490.5 Z"/></g>
<g><path style="opacity:1" fill="#942524" d="M 2033.5,489.5 C 2030.64,493.01 2026.98,495.343 2022.5,496.5C 2025.28,492.758 2028.95,490.424 2033.5,489.5 Z"/></g>
<g><path style="opacity:1" fill="#8f1d1c" d="M 1200.5,496.5 C 1193.49,496.298 1186.82,494.965 1180.5,492.5C 1182.14,492.714 1183.64,492.38 1185,491.5C 1188.64,492.817 1192.31,494.151 1196,495.5C 1197.75,494.387 1199.25,494.72 1200.5,496.5 Z"/></g>
<g><path style="opacity:1" fill="#932221" d="M 1366.5,488.5 C 1369.19,494.5 1367.19,497.5 1360.5,497.5C 1362.19,496.696 1363.86,495.696 1365.5,494.5C 1366.47,492.604 1366.8,490.604 1366.5,488.5 Z"/></g>
<g><path style="opacity:1" fill="#962221" d="M 478.5,495.5 C 471.249,498.547 463.583,500.214 455.5,500.5C 458.736,499.135 462.069,498.135 465.5,497.5C 469.79,496.575 474.124,495.909 478.5,495.5 Z"/></g>
<g><path style="opacity:1" fill="#952020" d="M 863.5,495.5 C 860.124,497.082 856.458,497.749 852.5,497.5C 855.876,495.918 859.542,495.251 863.5,495.5 Z"/></g>
<g><path style="opacity:1" fill="#901517" d="M 680.5,487.5 C 680.508,490.545 680.841,493.545 681.5,496.5C 738.336,496.168 795.002,496.501 851.5,497.5C 794.499,497.667 737.499,497.5 680.5,497C 677.901,493.793 677.901,490.626 680.5,487.5 Z"/></g>
<g><path style="opacity:1" fill="#911516" d="M 1567.5,492.5 C 1575.52,493.74 1583.52,495.074 1591.5,496.5C 1734.32,496.496 1877.32,496.496 2020.5,496.5C 1877,497.666 1733.33,497.833 1589.5,497C 1581.84,496.451 1574.51,494.951 1567.5,492.5 Z"/></g>
<g><path style="opacity:1" fill="#9e3433" d="M 15.5,496.5 C 19.277,497.994 23.277,498.661 27.5,498.5C 28.2625,499.268 29.2625,499.768 30.5,500C 171.833,500.5 313.166,500.667 454.5,500.5C 454.5,500.833 454.5,501.167 454.5,501.5C 312.167,501.5 169.833,501.5 27.5,501.5C 23.2034,500.621 19.2034,498.954 15.5,496.5 Z"/></g>
<g><path style="opacity:1" fill="#9f0e0e" d="M 465.5,497.5 C 462.069,498.135 458.736,499.135 455.5,500.5C 455.167,500.5 454.833,500.5 454.5,500.5C 313.166,500.667 171.833,500.5 30.5,500C 29.2625,499.768 28.2625,499.268 27.5,498.5C 167.037,498.671 306.537,498.337 446,497.5C 449.256,499.769 452.589,499.769 456,497.5C 458.955,497.678 462.121,497.678 465.5,497.5 Z"/></g>
</svg>
