<?xml version="1.0" encoding="UTF-8"?>
<!DOCTYPE svg PUBLIC "-//W3C//DTD SVG 1.1//EN" "http://www.w3.org/Graphics/SVG/1.1/DTD/svg11.dtd">
<svg xmlns="http://www.w3.org/2000/svg" version="1.1" width="3200px" height="1800px" style="shape-rendering:geometricPrecision; text-rendering:geometricPrecision; image-rendering:optimizeQuality; fill-rule:evenodd; clip-rule:evenodd" xmlns:xlink="http://www.w3.org/1999/xlink">
<g><path style="opacity:0.133" fill="#fafcf1" d="M 556.5,690.5 C 559.88,690.179 560.713,691.179 559,693.5C 557.583,692.922 556.75,691.922 556.5,690.5 Z"/></g>
<g><path style="opacity:0.329" fill="#f4f8f2" d="M 569.5,690.5 C 571.167,690.5 572.833,690.5 574.5,690.5C 574.5,691.833 574.5,693.167 574.5,694.5C 571.633,694.631 569.967,693.297 569.5,690.5 Z"/></g>
<g><path style="opacity:0.329" fill="#f6f9f2" d="M 563.5,692.5 C 564.833,692.5 566.167,692.5 567.5,692.5C 567.5,693.5 567.5,694.5 567.5,695.5C 565.027,695.912 563.694,694.912 563.5,692.5 Z"/></g>
<g><path style="opacity:0.773" fill="#f7fdf0" d="M 3087.5,698.5 C 2251.83,698.5 1416.17,698.5 580.5,698.5C 1415.47,698.166 2250.47,697.166 3085.5,695.5C 3086.43,696.357 3087.09,697.357 3087.5,698.5 Z"/></g>
<g><path style="opacity:1" fill="#ee626f" d="M 578.5,699.5 C 578.5,698.833 578.833,698.5 579.5,698.5C 579.833,698.5 580.167,698.5 580.5,698.5C 1416.17,698.5 2251.83,698.5 3087.5,698.5C 3088.5,698.5 3089.5,698.5 3090.5,698.5C 3093.63,699.983 3096.63,701.649 3099.5,703.5C 3095.4,702.91 3091.4,701.91 3087.5,700.5C 2251.33,699.5 1415,699.167 578.5,699.5 Z"/></g>
<g><path style="opacity:0.329" fill="#f5f1eb" d="M 3090.5,698.5 C 3093.35,699.591 3096.18,699.591 3099,698.5C 3100.87,699.369 3101.37,700.535 3100.5,702C 3104.03,702.882 3104.69,702.382 3102.5,700.5C 3104.02,697.936 3105.52,697.936 3107,700.5C 3107.33,700.167 3107.67,699.833 3108,699.5C 3107.95,701.313 3108.12,702.979 3108.5,704.5C 3107.64,705.293 3106.81,704.96 3106,703.5C 3104.96,704.244 3104.46,705.244 3104.5,706.5C 3102.59,705.925 3100.92,704.925 3099.5,703.5C 3096.63,701.649 3093.63,699.983 3090.5,698.5 Z"/></g>
<g><path style="opacity:1" fill="#dc202e" d="M 574.5,700.5 C 575.568,699.566 576.901,699.232 578.5,699.5C 1415,699.167 2251.33,699.5 3087.5,700.5C 2257.28,701.611 1427.44,701.611 598,700.5C 596.426,701.848 594.593,702.514 592.5,702.5C 589.963,701.943 587.463,701.61 585,701.5C 582.849,701.773 580.849,702.439 579,703.5C 577.908,701.883 576.408,700.883 574.5,700.5 Z"/></g>
<g><path style="opacity:0.133" fill="#f7f8ee" d="M 579.5,698.5 C 578.833,698.5 578.5,698.833 578.5,699.5C 576.901,699.232 575.568,699.566 574.5,700.5C 566.387,702.225 559.054,705.558 552.5,710.5C 552.343,709.127 552.51,707.793 553,706.5C 554.243,707.336 555.41,707.003 556.5,705.5C 555.098,704.158 555.431,703.324 557.5,703C 556.273,701.413 556.606,700.079 558.5,699C 561.025,698.959 563.358,699.793 565.5,701.5C 567.134,701.032 568.3,700.032 569,698.5C 572.631,698.746 576.131,698.746 579.5,698.5 Z"/></g>
<g><path style="opacity:1" fill="#e62130" d="M 574.5,700.5 C 576.408,700.883 577.908,701.883 579,703.5C 580.849,702.439 582.849,701.773 585,701.5C 587.463,701.61 589.963,701.943 592.5,702.5C 594.593,702.514 596.426,701.848 598,700.5C 1427.44,701.611 2257.28,701.611 3087.5,700.5C 3091.4,701.91 3095.4,702.91 3099.5,703.5C 3100.92,704.925 3102.59,705.925 3104.5,706.5C 3105.5,708.167 3106.83,709.5 3108.5,710.5C 3108.66,712.153 3109.33,713.486 3110.5,714.5C 3111.46,716.746 3112.12,719.079 3112.5,721.5C 3112.35,726.416 3112.35,731.083 3112.5,735.5C 3112.5,735.833 3112.5,736.167 3112.5,736.5C 3110.17,740.492 3107.84,744.492 3105.5,748.5C 3104.09,750.972 3102.42,753.305 3100.5,755.5C 3100.5,755.833 3100.5,756.167 3100.5,756.5C 3096.12,760.268 3092.46,764.601 3089.5,769.5C 3088.5,769.833 3087.83,770.5 3087.5,771.5C 3086.17,772.167 3085.17,773.167 3084.5,774.5C 3081.29,775.164 3079.12,777.164 3078,780.5C 3073.96,784.507 3069.79,789.174 3065.5,794.5C 3064.87,795.417 3064.54,796.417 3064.5,797.5C 3063.56,799.772 3062.23,801.772 3060.5,803.5C 3056.12,805.551 3053.12,808.884 3051.5,813.5C 3046.51,819.166 3041.85,825.166 3037.5,831.5C 3035.09,832.911 3033.42,834.911 3032.5,837.5C 3030.43,838.3 3028.76,839.633 3027.5,841.5C 3023.72,843.949 3021.05,847.282 3019.5,851.5C 3016.18,855.169 3013.18,859.169 3010.5,863.5C 3007.22,867.039 3003.72,870.372 3000,873.5C 2998.68,876.309 2997.18,878.975 2995.5,881.5C 2992.71,883.751 2990.37,886.418 2988.5,889.5C 2984.7,891.963 2982.03,895.296 2980.5,899.5C 2979.5,899.414 2978.67,899.748 2978,900.5C 2974.29,905.94 2970.12,910.94 2965.5,915.5C 2964.07,916.082 2962.74,916.915 2961.5,918C 2962.06,918.383 2962.39,918.883 2962.5,919.5C 2961.33,920.514 2960.66,921.847 2960.5,923.5C 2959.28,924.028 2958.11,924.695 2957,925.5C 2953.31,930.02 2949.81,934.687 2946.5,939.5C 2944.84,941.46 2943.18,943.46 2941.5,945.5C 2939.74,946.262 2938.74,947.596 2938.5,949.5C 2932.75,954.91 2927.75,960.91 2923.5,967.5C 2922.5,967.833 2921.83,968.5 2921.5,969.5C 2919.39,971.019 2917.72,973.019 2916.5,975.5C 2916.5,975.833 2916.5,976.167 2916.5,976.5C 2916.17,976.5 2915.83,976.5 2915.5,976.5C 2911.89,979.055 2909.22,982.388 2907.5,986.5C 2904.28,989.264 2901.28,992.264 2898.5,995.5C 2894.76,996.905 2892.43,999.571 2891.5,1003.5C 2891.5,1003.83 2891.5,1004.17 2891.5,1004.5C 2891.5,1004.83 2891.5,1005.17 2891.5,1005.5C 2886.5,1010.83 2881.5,1016.17 2876.5,1021.5C 2872.5,1023.16 2870.16,1026.16 2869.5,1030.5C 2866.83,1033.83 2864.17,1037.17 2861.5,1040.5C 2860.09,1040.97 2859.43,1041.97 2859.5,1043.5C 2856.8,1043.67 2855.13,1045 2854.5,1047.5C 2852.5,1050.5 2850.5,1053.5 2848.5,1056.5C 2842.78,1061.89 2837.78,1067.89 2833.5,1074.5C 2830.43,1076.57 2828.09,1079.24 2826.5,1082.5C 2821.73,1087.29 2816.73,1091.62 2811.5,1095.5C 2807.92,1096.58 2804.25,1097.25 2800.5,1097.5C 2800.5,1097.83 2800.5,1098.17 2800.5,1098.5C 2800.17,1098.5 2799.83,1098.5 2799.5,1098.5C 1941.83,1098.5 1084.17,1098.5 226.5,1098.5C 224.312,1094.79 221.645,1091.46 218.5,1088.5C 217.557,1085.89 215.89,1083.89 213.5,1082.5C 212.557,1079.89 210.89,1077.89 208.5,1076.5C 207.28,1074.02 205.614,1072.02 203.5,1070.5C 202.557,1067.89 200.89,1065.89 198.5,1064.5C 197.557,1061.89 195.89,1059.89 193.5,1058.5C 192.833,1058.5 192.5,1058.17 192.5,1057.5C 191.5,1055.5 190.5,1053.5 189.5,1051.5C 183.835,1042.18 176.835,1034.18 168.5,1027.5C 167.998,1023.13 165.664,1020.46 161.5,1019.5C 161.167,1018.83 160.833,1018.17 160.5,1017.5C 157.409,1011.66 153.576,1006.32 149,1001.5C 148.601,1001.73 148.435,1002.06 148.5,1002.5C 147.833,1002.5 147.167,1002.5 146.5,1002.5C 144.854,999.19 142.52,996.523 139.5,994.5C 139.262,992.596 138.262,991.262 136.5,990.5C 134.303,986.762 131.636,983.429 128.5,980.5C 128.5,980.167 128.5,979.833 128.5,979.5C 128.649,978.448 128.483,977.448 128,976.5C 125.927,973.661 123.427,971.328 120.5,969.5C 114.833,963.167 109.167,956.833 103.5,950.5C 101.804,948.475 100.137,946.475 98.5,944.5C 98.573,942.973 97.9063,941.973 96.5,941.5C 96.6107,940.883 96.944,940.383 97.5,940C 95.7166,938.261 94.0499,936.428 92.5,934.5C 92.882,932.125 92.382,929.792 91,927.5C 90.5774,928.956 89.7441,929.456 88.5,929C 85.2314,922.479 84.5647,915.646 86.5,908.5C 88.6195,907.549 90.2862,906.049 91.5,904C 94.9008,904.266 96.5674,902.766 96.5,899.5C 97.8333,899.5 99.1667,899.5 100.5,899.5C 198.644,899.543 296.144,899.877 393,900.5C 394.729,900.026 395.895,899.026 396.5,897.5C 399.762,892.565 403.428,887.899 407.5,883.5C 411.647,879.205 415.313,874.538 418.5,869.5C 419.5,869.167 420.167,868.5 420.5,867.5C 423.54,864.461 426.206,861.127 428.5,857.5C 430.86,856.135 432.527,854.135 433.5,851.5C 433.833,850.5 434.5,849.833 435.5,849.5C 441.871,842.463 447.871,835.129 453.5,827.5C 457.86,823.806 461.86,819.806 465.5,815.5C 466.5,815.5 467.5,815.5 468.5,815.5C 468.744,812.737 470.077,810.571 472.5,809C 474.417,809.027 476.084,809.861 477.5,811.5C 480.606,809.541 480.94,807.374 478.5,805C 481.666,803.94 483.666,801.773 484.5,798.5C 483.975,797.808 483.308,797.308 482.5,797C 485.624,793.379 488.791,789.879 492,786.5C 492.608,784.846 493.108,783.179 493.5,781.5C 494.6,780.395 495.267,779.062 495.5,777.5C 498.219,775.781 500.219,773.447 501.5,770.5C 506.628,765.582 511.295,760.249 515.5,754.5C 515.833,754.5 516.167,754.5 516.5,754.5C 518.377,754.1 519.877,753.1 521,751.5C 522.597,752.885 524.43,753.551 526.5,753.5C 526.5,752.167 526.5,750.833 526.5,749.5C 527.822,749.67 528.989,749.337 530,748.5C 530.635,746.382 531.469,744.382 532.5,742.5C 530.471,739.43 531.304,736.763 535,734.5C 535.483,733.552 535.649,732.552 535.5,731.5C 536.752,729.999 537.752,728.332 538.5,726.5C 540.262,725.738 541.262,724.404 541.5,722.5C 545.161,719.835 548.161,716.502 550.5,712.5C 551.833,712.5 552.5,711.833 552.5,710.5C 559.054,705.558 566.387,702.225 574.5,700.5 Z"/></g>
<g><path style="opacity:0.133" fill="#fafdf0" d="M 537.5,706.5 C 538.773,707.077 538.773,707.743 537.5,708.5C 536.537,708.03 536.537,707.363 537.5,706.5 Z"/></g>
<g><path style="opacity:0.133" fill="#f6f3ed" d="M 3104.5,706.5 C 3107.5,706.167 3108.83,707.5 3108.5,710.5C 3106.83,709.5 3105.5,708.167 3104.5,706.5 Z"/></g>
<g><path style="opacity:0.133" fill="#fafdf0" d="M 3111.5,707.5 C 3112.83,708.167 3112.83,708.167 3111.5,707.5 Z"/></g>
<g><path style="opacity:0.133" fill="#f9fbf1" d="M 550.5,710.5 C 550.167,710.5 549.833,710.5 549.5,710.5C 549.047,709.542 548.381,708.708 547.5,708C 549.489,707.481 550.489,708.314 550.5,710.5 Z"/></g>
<g><path style="opacity:0.133" fill="#fafdf0" d="M 3114.5,708.5 C 3116.86,709.389 3117.03,710.722 3115,712.5C 3113.67,711.122 3113.5,709.789 3114.5,708.5 Z"/></g>
<g><path style="opacity:0.133" fill="#fafdf0" d="M 549.5,710.5 C 548.833,711.167 548.833,711.167 549.5,710.5 Z"/></g>
<g><path style="opacity:0.133" fill="#f8f2e9" d="M 550.5,710.5 C 551.167,710.5 551.833,710.5 552.5,710.5C 552.5,711.833 551.833,712.5 550.5,712.5C 550.5,711.833 550.5,711.167 550.5,710.5 Z"/></g>
<g><path style="opacity:0.565" fill="#f5efe8" d="M 3108.5,710.5 C 3110.1,711.287 3110.77,712.62 3110.5,714.5C 3109.33,713.486 3108.66,712.153 3108.5,710.5 Z"/></g>
<g><path style="opacity:0.329" fill="#f6f7ef" d="M 550.5,712.5 C 548.161,716.502 545.161,719.835 541.5,722.5C 541.193,719.872 540.526,717.372 539.5,715C 540.935,715.311 542.268,715.145 543.5,714.5C 544.604,715.631 544.271,716.465 542.5,717C 545.838,717.5 547.505,716 547.5,712.5C 548.5,712.5 549.5,712.5 550.5,712.5 Z"/></g>
<g><path style="opacity:0.133" fill="#fafdf0" d="M 3115.5,715.5 C 3116.83,716.167 3116.83,716.167 3115.5,715.5 Z"/></g>
<g><path style="opacity:0.133" fill="#fafdf0" d="M 522.5,722.5 C 523.525,722.897 523.692,723.563 523,724.5C 522.536,723.906 522.369,723.239 522.5,722.5 Z"/></g>
<g><path style="opacity:1" fill="#d8525d" d="M 3112.5,721.5 C 3113.83,726.167 3113.83,730.833 3112.5,735.5C 3112.35,731.083 3112.35,726.416 3112.5,721.5 Z"/></g>
<g><path style="opacity:0.133" fill="#f7f8f0" d="M 3110.5,714.5 C 3112.39,714.018 3114.06,714.685 3115.5,716.5C 3115.2,717.15 3114.86,717.817 3114.5,718.5C 3114.85,719.696 3115.35,719.696 3116,718.5C 3116.17,719.333 3116.33,720.167 3116.5,721C 3115.49,723.573 3114.82,726.24 3114.5,729C 3115.89,733.546 3116.56,738.046 3116.5,742.5C 3116.03,743.463 3115.36,743.463 3114.5,742.5C 3114.67,741.508 3114.34,740.842 3113.5,740.5C 3113.5,739.833 3113.17,739.5 3112.5,739.5C 3112.5,738.5 3112.5,737.5 3112.5,736.5C 3112.5,736.167 3112.5,735.833 3112.5,735.5C 3113.83,730.833 3113.83,726.167 3112.5,721.5C 3112.12,719.079 3111.46,716.746 3110.5,714.5 Z"/></g>
<g><path style="opacity:0.133" fill="#fafdf0" d="M 515.5,738.5 C 517.225,738.843 517.725,739.843 517,741.5C 515.961,740.756 515.461,739.756 515.5,738.5 Z"/></g>
<g><path style="opacity:1" fill="#d9545e" d="M 3112.5,736.5 C 3112.5,737.5 3112.5,738.5 3112.5,739.5C 3110.89,743.043 3108.56,746.043 3105.5,748.5C 3107.84,744.492 3110.17,740.492 3112.5,736.5 Z"/></g>
<g><path style="opacity:0.133" fill="#fafdf0" d="M 3113.5,742.5 C 3113.83,742.5 3114.17,742.5 3114.5,742.5C 3114.5,743.167 3114.5,743.833 3114.5,744.5C 3113.66,744.158 3113.33,743.492 3113.5,742.5 Z"/></g>
<g><path style="opacity:0.329" fill="#f7f6ef" d="M 541.5,722.5 C 541.262,724.404 540.262,725.738 538.5,726.5C 537.752,728.332 536.752,729.999 535.5,731.5C 528.796,738.87 522.463,746.536 516.5,754.5C 516.167,754.5 515.833,754.5 515.5,754.5C 515.085,751.632 516.085,749.465 518.5,748C 517.027,747.29 516.36,746.124 516.5,744.5C 518.143,744.52 519.476,743.853 520.5,742.5C 521.086,742.709 521.586,743.043 522,743.5C 523.088,741.615 523.921,739.615 524.5,737.5C 523.219,734.86 523.219,732.694 524.5,731C 526.197,730.616 527.863,730.782 529.5,731.5C 529.343,732.873 529.51,734.207 530,735.5C 530.717,734.956 531.217,734.289 531.5,733.5C 532.202,730.797 533.869,728.797 536.5,727.5C 536.167,726.167 535.833,724.833 535.5,723.5C 537.007,722.261 538.174,722.595 539,724.5C 539.417,723.244 540.25,722.577 541.5,722.5 Z"/></g>
<g><path style="opacity:0.133" fill="#fafdf0" d="M 531.5,733.5 C 530.833,732.167 530.833,732.167 531.5,733.5 Z"/></g>
<g><path style="opacity:0.133" fill="#fafdf0" d="M 529.5,730.5 C 530.833,731.167 530.833,731.167 529.5,730.5 Z"/></g>
<g><path style="opacity:1" fill="#db2d37" d="M 535.5,731.5 C 535.649,732.552 535.483,733.552 535,734.5C 531.304,736.763 530.471,739.43 532.5,742.5C 531.469,744.382 530.635,746.382 530,748.5C 528.989,749.337 527.822,749.67 526.5,749.5C 526.5,750.833 526.5,752.167 526.5,753.5C 524.43,753.551 522.597,752.885 521,751.5C 519.877,753.1 518.377,754.1 516.5,754.5C 522.463,746.536 528.796,738.87 535.5,731.5 Z"/></g>
<g><path style="opacity:0.133" fill="#fafdf0" d="M 3114.5,744.5 C 3115.57,745.251 3115.74,746.251 3115,747.5C 3114.52,746.552 3114.35,745.552 3114.5,744.5 Z"/></g>
<g><path style="opacity:0.133" fill="#f7eee6" d="M 3112.5,739.5 C 3113.17,739.5 3113.5,739.833 3113.5,740.5C 3113.5,741.167 3113.5,741.833 3113.5,742.5C 3110.7,745.476 3108.03,748.642 3105.5,752C 3106.34,753.011 3106.67,754.178 3106.5,755.5C 3104.5,755.5 3102.5,755.5 3100.5,755.5C 3102.42,753.305 3104.09,750.972 3105.5,748.5C 3108.56,746.043 3110.89,743.043 3112.5,739.5 Z"/></g>
<g><path style="opacity:0.133" fill="#f9fbf1" d="M 500.5,754.5 C 502.332,755.14 502.665,756.14 501.5,757.5C 499.481,756.867 499.147,755.867 500.5,754.5 Z"/></g>
<g><path style="opacity:0.565" fill="#f6f4ed" d="M 515.5,754.5 C 511.295,760.249 506.628,765.582 501.5,770.5C 500.047,769.175 500.381,768.342 502.5,768C 500.699,767.683 500.366,767.016 501.5,766C 498.956,764.901 498.956,763.735 501.5,762.5C 502.541,764.991 503.374,764.991 504,762.5C 504.333,763.167 504.667,763.833 505,764.5C 506.646,762.945 506.979,761.279 506,759.5C 507.315,757.684 508.815,756.017 510.5,754.5C 512.003,755.052 513.669,755.052 515.5,754.5 Z"/></g>
<g><path style="opacity:0.133" fill="#fafdf0" d="M 3099.5,761.5 C 3100.83,762.167 3100.83,762.167 3099.5,761.5 Z"/></g>
<g><path style="opacity:1" fill="#f7f8f0" d="M 3100.5,756.5 C 3100.17,758.661 3099.17,760.494 3097.5,762C 3098.09,762.464 3098.76,762.631 3099.5,762.5C 3100.2,764.034 3100.04,765.701 3099,767.5C 3098.69,766.692 3098.19,766.025 3097.5,765.5C 3095.71,768.132 3093.71,770.465 3091.5,772.5C 3090.43,771.566 3089.1,771.232 3087.5,771.5C 3087.83,770.5 3088.5,769.833 3089.5,769.5C 3092.46,764.601 3096.12,760.268 3100.5,756.5 Z"/></g>
<g><path style="opacity:0.133" fill="#fafdf0" d="M 3096.5,769.5 C 3097.83,770.167 3097.83,770.167 3096.5,769.5 Z"/></g>
<g><path style="opacity:0.133" fill="#fafdf0" d="M 3099.5,769.5 C 3100.46,770.721 3100.3,772.054 3099,773.5C 3098.42,772.072 3098.59,770.738 3099.5,769.5 Z"/></g>
<g><path style="opacity:0.133" fill="#f7f9f0" d="M 501.5,770.5 C 500.219,773.447 498.219,775.781 495.5,777.5C 494.909,776.849 494.243,776.182 493.5,775.5C 494.989,775.467 496.322,774.967 497.5,774C 496.146,772.706 494.812,772.54 493.5,773.5C 492.5,773.167 491.833,772.5 491.5,771.5C 494.61,770.936 497.943,770.603 501.5,770.5 Z"/></g>
<g><path style="opacity:0.133" fill="#fafdf0" d="M 484.5,773.5 C 485.525,773.897 485.692,774.563 485,775.5C 484.536,774.906 484.369,774.239 484.5,773.5 Z"/></g>
<g><path style="opacity:1" fill="#f6f9f1" d="M 3087.5,771.5 C 3088.67,773.109 3090,773.443 3091.5,772.5C 3091.42,773.93 3091.75,775.264 3092.5,776.5C 3090.34,779.798 3088.01,780.132 3085.5,777.5C 3085.85,776.304 3086.35,776.304 3087,777.5C 3087.37,775.023 3086.54,774.356 3084.5,775.5C 3084.5,775.167 3084.5,774.833 3084.5,774.5C 3085.17,773.167 3086.17,772.167 3087.5,771.5 Z"/></g>
<g><path style="opacity:0.133" fill="#f8f8ef" d="M 489.5,778.5 C 486.949,781.23 485.616,780.563 485.5,776.5C 487.38,776.229 488.713,776.896 489.5,778.5 Z"/></g>
<g><path style="opacity:0.133" fill="#f5f5ee" d="M 3084.5,775.5 C 3085.02,779.314 3083.35,781.314 3079.5,781.5C 3080.42,778.911 3082.09,776.911 3084.5,775.5 Z"/></g>
<g><path style="opacity:0.133" fill="#fafdf0" d="M 489.5,778.5 C 490.833,778.5 491.5,779.167 491.5,780.5C 491.5,779.167 490.833,778.5 489.5,778.5 Z"/></g>
<g><path style="opacity:0.133" fill="#f6f6ee" d="M 495.5,777.5 C 495.267,779.062 494.6,780.395 493.5,781.5C 492.833,781.833 492.167,782.167 491.5,782.5C 491.5,781.833 491.5,781.167 491.5,780.5C 492.526,779.147 493.859,778.147 495.5,777.5 Z"/></g>
<g><path style="opacity:0.329" fill="#f3f5f0" d="M 3079.5,781.5 C 3081.13,783.196 3080.8,784.196 3078.5,784.5C 3078.5,783.833 3078.17,783.5 3077.5,783.5C 3077.83,782.5 3078.5,781.833 3079.5,781.5 Z"/></g>
<g><path style="opacity:0.133" fill="#fafdf0" d="M 3082.5,783.5 C 3083.83,784.167 3083.83,784.167 3082.5,783.5 Z"/></g>
<g><path style="opacity:0.329" fill="#f5f5ed" d="M 3077.5,783.5 C 3078.17,783.5 3078.5,783.833 3078.5,784.5C 3079.09,785.151 3079.76,785.818 3080.5,786.5C 3078.61,785.945 3076.94,786.612 3075.5,788.5C 3075.5,787.833 3075.17,787.5 3074.5,787.5C 3074.74,785.596 3075.74,784.262 3077.5,783.5 Z"/></g>
<g><path style="opacity:0.133" fill="#fafdf0" d="M 3084.5,785.5 C 3085.53,785.897 3085.69,786.563 3085,787.5C 3084.54,786.906 3084.37,786.239 3084.5,785.5 Z"/></g>
<g><path style="opacity:1" fill="#d34e55" d="M 3084.5,774.5 C 3084.5,774.833 3084.5,775.167 3084.5,775.5C 3082.09,776.911 3080.42,778.911 3079.5,781.5C 3078.5,781.833 3077.83,782.5 3077.5,783.5C 3075.74,784.262 3074.74,785.596 3074.5,787.5C 3072.09,788.911 3070.42,790.911 3069.5,793.5C 3069.5,793.833 3069.5,794.167 3069.5,794.5C 3069.17,794.5 3068.83,794.5 3068.5,794.5C 3067.17,795.5 3065.83,796.5 3064.5,797.5C 3064.54,796.417 3064.87,795.417 3065.5,794.5C 3069.79,789.174 3073.96,784.507 3078,780.5C 3079.12,777.164 3081.29,775.164 3084.5,774.5 Z"/></g>
<g><path style="opacity:0.133" fill="#fafdf0" d="M 474.5,787.5 C 477.001,787.511 477.168,788.178 475,789.5C 474.536,788.906 474.369,788.239 474.5,787.5 Z"/></g>
<g><path style="opacity:0.329" fill="#f5f7ef" d="M 3074.5,787.5 C 3075.17,787.5 3075.5,787.833 3075.5,788.5C 3077.42,792.07 3076.42,794.403 3072.5,795.5C 3071.3,795.154 3071.3,794.654 3072.5,794C 3071.55,793.517 3070.55,793.351 3069.5,793.5C 3070.42,790.911 3072.09,788.911 3074.5,787.5 Z"/></g>
<g><path style="opacity:0.565" fill="#f5f5ef" d="M 467.5,790.5 C 468.5,790.5 469.5,790.5 470.5,790.5C 470.5,792.167 470.5,793.833 470.5,795.5C 469.5,795.5 468.5,795.5 467.5,795.5C 467.5,793.833 467.5,792.167 467.5,790.5 Z"/></g>
<g><path style="opacity:0.133" fill="#fafdf0" d="M 3069.5,794.5 C 3070.83,795.167 3070.83,795.167 3069.5,794.5 Z"/></g>
<g><path style="opacity:0.329" fill="#f6f6f0" d="M 491.5,782.5 C 485.18,790.817 478.514,798.817 471.5,806.5C 470.402,805.603 470.402,804.77 471.5,804C 470.833,803.333 470.167,802.667 469.5,802C 471.167,800.333 472.833,798.667 474.5,797C 474.167,796.667 473.833,796.333 473.5,796C 474.646,795.355 475.646,794.522 476.5,793.5C 479.463,794.226 481.963,793.226 484,790.5C 484.315,787.528 484.981,784.528 486,781.5C 486.333,782.5 486.667,783.5 487,784.5C 488.587,784.658 490.087,783.991 491.5,782.5 Z"/></g>
<g><path style="opacity:1" fill="#de313b" d="M 493.5,781.5 C 493.108,783.179 492.608,784.846 492,786.5C 488.791,789.879 485.624,793.379 482.5,797C 483.308,797.308 483.975,797.808 484.5,798.5C 483.666,801.773 481.666,803.94 478.5,805C 480.94,807.374 480.606,809.541 477.5,811.5C 476.084,809.861 474.417,809.027 472.5,809C 470.077,810.571 468.744,812.737 468.5,815.5C 467.5,815.5 466.5,815.5 465.5,815.5C 467.474,812.518 469.474,809.518 471.5,806.5C 478.514,798.817 485.18,790.817 491.5,782.5C 492.167,782.167 492.833,781.833 493.5,781.5 Z"/></g>
<g><path style="opacity:0.133" fill="#fafdf0" d="M 467.5,800.5 C 468.833,801.167 468.833,801.167 467.5,800.5 Z"/></g>
<g><path style="opacity:0.133" fill="#fafdf0" d="M 3077.5,802.5 C 3078.08,801.227 3078.74,801.227 3079.5,802.5C 3079.03,803.463 3078.36,803.463 3077.5,802.5 Z"/></g>
<g><path style="opacity:0.133" fill="#f6f8ef" d="M 3068.5,794.5 C 3068.6,797.237 3068.27,799.904 3067.5,802.5C 3065.28,803.369 3062.95,803.702 3060.5,803.5C 3062.23,801.772 3063.56,799.772 3064.5,797.5C 3065.83,796.5 3067.17,795.5 3068.5,794.5 Z"/></g>
<g><path style="opacity:0.133" fill="#fafdf0" d="M 3067.5,802.5 C 3068.83,803.167 3068.83,803.167 3067.5,802.5 Z"/></g>
<g><path style="opacity:0.133" fill="#fafdf0" d="M 468.5,804.5 C 469.833,805.167 469.833,805.167 468.5,804.5 Z"/></g>
<g><path style="opacity:0.133" fill="#f7f8ef" d="M 3059.5,805.5 C 3059.83,807.5 3060.17,809.5 3060.5,811.5C 3058.3,811.935 3056.3,811.935 3054.5,811.5C 3055.42,808.911 3057.09,806.911 3059.5,805.5 Z"/></g>
<g><path style="opacity:1" fill="#dd6b6d" d="M 3060.5,803.5 C 3060.67,804.492 3060.34,805.158 3059.5,805.5C 3057.09,806.911 3055.42,808.911 3054.5,811.5C 3054.17,812.5 3053.5,813.167 3052.5,813.5C 3052.17,813.5 3051.83,813.5 3051.5,813.5C 3053.12,808.884 3056.12,805.551 3060.5,803.5 Z"/></g>
<g><path style="opacity:0.133" fill="#fafdf0" d="M 460.5,810.5 C 462.337,810.639 462.67,811.306 461.5,812.5C 460.702,812.043 460.369,811.376 460.5,810.5 Z"/></g>
<g><path style="opacity:0.329" fill="#f5f7f1" d="M 3062.5,811.5 C 3063.5,811.5 3064.5,811.5 3065.5,811.5C 3065.5,812.833 3065.5,814.167 3065.5,815.5C 3062.01,815.705 3061.01,814.371 3062.5,811.5 Z"/></g>
<g><path style="opacity:1" fill="#f58c96" d="M 1212.5,813.5 C 1118.5,813.333 1024.5,813.5 930.5,814C 929.255,814.791 927.922,815.291 926.5,815.5C 926.881,814.069 927.881,813.236 929.5,813C 1024,812.168 1118.33,812.334 1212.5,813.5 Z"/></g>
<g><path style="opacity:1" fill="#f58e98" d="M 1568.5,813.5 C 1466.96,812.839 1365.62,813.506 1264.5,815.5C 1264.5,814.5 1264.5,813.5 1264.5,812.5C 1366,812.167 1467.33,812.501 1568.5,813.5 Z"/></g>
<g><path style="opacity:1" fill="#f58d97" d="M 1910.5,813.5 C 1819.5,813.333 1728.5,813.5 1637.5,814C 1636.1,814.41 1634.77,814.91 1633.5,815.5C 1633.88,814.069 1634.88,813.236 1636.5,813C 1728,812.168 1819.33,812.334 1910.5,813.5 Z"/></g>
<g><path style="opacity:0.133" fill="#fafdf0" d="M 3058.5,812.5 C 3059.77,813.077 3059.77,813.743 3058.5,814.5C 3057.54,814.03 3057.54,813.363 3058.5,812.5 Z"/></g>
<g><path style="opacity:1" fill="#f4c7c3" d="M 862.5,813.5 C 843.5,813.5 824.5,813.5 805.5,813.5C 805.832,865.336 805.499,917.003 804.5,968.5C 804.5,917.167 804.5,865.833 804.5,814.5C 813.809,813.168 823.476,812.501 833.5,812.5C 843.339,812.5 853.006,812.834 862.5,813.5 Z"/></g>
<g><path style="opacity:1" fill="#f58e98" d="M 2279.5,813.5 C 2260.17,813.5 2240.83,813.5 2221.5,813.5C 2221.83,865.336 2221.5,917.003 2220.5,968.5C 2220.5,966.833 2220.5,965.167 2220.5,963.5C 2220.5,913.167 2220.5,862.833 2220.5,812.5C 2240.34,812.17 2260.01,812.503 2279.5,813.5 Z"/></g>
<g><path style="opacity:1" fill="#fdfefd" d="M 1982.5,813.5 C 2001.83,813.5 2021.17,813.5 2040.5,813.5C 2040.5,865.5 2040.5,917.5 2040.5,969.5C 2100.67,969.832 2160.67,969.499 2220.5,968.5C 2221.5,917.003 2221.83,865.336 2221.5,813.5C 2240.83,813.5 2260.17,813.5 2279.5,813.5C 2279.5,872.5 2279.5,931.5 2279.5,990.5C 2279.5,991.167 2279.5,991.833 2279.5,992.5C 2277.77,996.287 2275.77,999.954 2273.5,1003.5C 2267.34,1008.13 2260.34,1010.13 2252.5,1009.5C 2251.5,1009.5 2250.5,1009.5 2249.5,1009.5C 2171.5,1009.5 2093.5,1009.5 2015.5,1009.5C 2010.5,1009.5 2005.5,1009.5 2000.5,1009.5C 1991.72,1007.56 1985.89,1002.23 1983,993.5C 1982.83,935.332 1982.33,877.332 1981.5,819.5C 1982.15,817.565 1982.48,815.565 1982.5,813.5 Z"/></g>
<g><path style="opacity:1" fill="#fbc5c2" d="M 2614.5,813.5 C 2520.83,813.333 2427.17,813.5 2333.5,814C 2335.17,814.333 2336.83,814.667 2338.5,815C 2337.68,816.688 2336.68,816.855 2335.5,815.5C 2334.59,816.328 2333.92,817.328 2333.5,818.5C 2333.34,877.99 2333.51,937.656 2334,997.5C 2334.37,998.416 2334.87,999.25 2335.5,1000C 2334.29,1002.69 2333.62,1005.52 2333.5,1008.5C 2352.17,1008.5 2370.83,1008.5 2389.5,1008.5C 2387.05,1009.47 2384.39,1009.81 2381.5,1009.5C 2364.76,1010.14 2348.26,1009.48 2332,1007.5C 2331.18,942.482 2331.35,877.482 2332.5,812.5C 2426.67,812.167 2520.67,812.501 2614.5,813.5 Z"/></g>
<g><path style="opacity:1" fill="#fdfefd" d="M 862.5,813.5 C 862.667,873.834 862.5,934.168 862,994.5C 859.313,1001.02 854.813,1005.69 848.5,1008.5C 846.435,1008.52 844.435,1008.85 842.5,1009.5C 759.5,1009.5 676.5,1009.5 593.5,1009.5C 590.833,1009.5 588.167,1009.5 585.5,1009.5C 580.362,1009.01 575.695,1007.34 571.5,1004.5C 568.611,1001.74 566.444,998.411 565,994.5C 564.5,974.169 564.333,953.836 564.5,933.5C 583.547,933.179 602.547,933.513 621.5,934.5C 622.498,944.144 622.832,953.81 622.5,963.5C 622.5,965.5 622.5,967.5 622.5,969.5C 683.002,969.832 743.336,969.499 803.5,968.5C 803.833,968.5 804.167,968.5 804.5,968.5C 805.499,917.003 805.832,865.336 805.5,813.5C 824.5,813.5 843.5,813.5 862.5,813.5 Z"/></g>
<g><path style="opacity:1" fill="#fefefd" d="M 1212.5,813.5 C 1212.5,825.833 1212.5,838.167 1212.5,850.5C 1211.71,850.783 1211.04,851.283 1210.5,852C 1131.93,852.831 1053.43,852.665 975,851.5C 974.536,852.094 974.369,852.761 974.5,853.5C 973.179,866.069 973.179,878.735 974.5,891.5C 974.389,892.117 974.056,892.617 973.5,893C 975.874,895.065 978.04,894.899 980,892.5C 1050.58,893.588 1121.25,893.588 1192,892.5C 1195.66,894.126 1196.16,896.126 1193.5,898.5C 1194.43,909.544 1195.43,920.21 1196.5,930.5C 1195.21,930.263 1194.21,930.596 1193.5,931.5C 1120.83,931.5 1048.17,931.5 975.5,931.5C 974.17,937.295 973.504,943.462 973.5,950C 973.5,956.343 973.834,962.509 974.5,968.5C 1053.33,969.333 1132.33,969.833 1211.5,970C 1212.48,978.081 1212.82,986.248 1212.5,994.5C 1211.51,998.97 1211.18,1003.64 1211.5,1008.5C 1118.83,1008.5 1026.17,1008.5 933.5,1008.5C 927.208,1007.52 922.208,1004.52 918.5,999.5C 917.772,997.488 916.938,995.488 916,993.5C 915.5,938.834 915.333,884.168 915.5,829.5C 916.787,826.925 918.121,824.259 919.5,821.5C 921.854,819.812 923.854,817.812 925.5,815.5C 925.833,815.5 926.167,815.5 926.5,815.5C 927.922,815.291 929.255,814.791 930.5,814C 1024.5,813.5 1118.5,813.333 1212.5,813.5 Z"/></g>
<g><path style="opacity:1" fill="#fefdfd" d="M 1568.5,813.5 C 1569.83,826.167 1569.83,838.833 1568.5,851.5C 1527.71,852.156 1487.04,852.822 1446.5,853.5C 1446.83,905.572 1446.5,957.572 1445.5,1009.5C 1426.1,1010.15 1406.93,1009.48 1388,1007.5C 1387.5,956.168 1387.33,904.834 1387.5,853.5C 1387.22,852.711 1386.72,852.044 1386,851.5C 1345.93,852.491 1306.1,852.825 1266.5,852.5C 1265.88,852.389 1265.38,852.056 1265,851.5C 1264.5,839.505 1264.33,827.505 1264.5,815.5C 1365.62,813.506 1466.96,812.839 1568.5,813.5 Z"/></g>
<g><path style="opacity:1" fill="#fefefd" d="M 1910.5,813.5 C 1919.14,814.806 1925.14,819.473 1928.5,827.5C 1929.49,882.47 1929.82,937.47 1929.5,992.5C 1928.31,996.537 1926.31,1000.2 1923.5,1003.5C 1919.81,1005.54 1916.14,1007.54 1912.5,1009.5C 1908.5,1009.5 1904.5,1009.5 1900.5,1009.5C 1828.83,1009.5 1757.17,1009.5 1685.5,1009.5C 1685.17,1009.5 1684.83,1009.5 1684.5,1009.5C 1669.5,1009.5 1654.5,1009.5 1639.5,1009.5C 1631.99,1007.33 1626.66,1002.66 1623.5,995.5C 1622.91,942.338 1622.25,889.338 1621.5,836.5C 1621.5,834.5 1621.5,832.5 1621.5,830.5C 1623.59,824.641 1626.93,819.641 1631.5,815.5C 1632.17,815.5 1632.83,815.5 1633.5,815.5C 1634.77,814.91 1636.1,814.41 1637.5,814C 1728.5,813.5 1819.5,813.333 1910.5,813.5 Z"/></g>
<g><path style="opacity:1" fill="#fdfefd" d="M 2614.5,813.5 C 2623.09,814.713 2628.92,819.38 2632,827.5C 2633.13,841.948 2633.63,856.448 2633.5,871C 2633.62,885.877 2633.12,900.71 2632,915.5C 2628.53,923.146 2622.7,927.479 2614.5,928.5C 2585.67,928.464 2556.67,928.464 2527.5,928.5C 2525.77,929.008 2525.43,929.841 2526.5,931C 2547.11,944.61 2567.44,958.61 2587.5,973C 2590.41,974.761 2593.41,976.261 2596.5,977.5C 2603.98,983.47 2611.65,989.303 2619.5,995C 2621.89,996.193 2624.22,997.36 2626.5,998.5C 2628.3,1000.9 2630.63,1002.57 2633.5,1003.5C 2635.54,1004.92 2636.54,1006.92 2636.5,1009.5C 2612.5,1009.5 2588.5,1009.5 2564.5,1009.5C 2561.48,1009.66 2558.48,1009.5 2555.5,1009C 2553.61,1007.56 2551.61,1006.39 2549.5,1005.5C 2545.45,1002.12 2541.11,999.117 2536.5,996.5C 2531.84,993.503 2527.17,990.503 2522.5,987.5C 2517.39,982.73 2511.73,978.73 2505.5,975.5C 2468.48,949.328 2431.15,923.661 2393.5,898.5C 2393.19,897.522 2392.52,896.855 2391.5,896.5C 2390.83,933.998 2390.17,971.331 2389.5,1008.5C 2370.83,1008.5 2352.17,1008.5 2333.5,1008.5C 2333.62,1005.52 2334.29,1002.69 2335.5,1000C 2334.87,999.25 2334.37,998.416 2334,997.5C 2333.51,937.656 2333.34,877.99 2333.5,818.5C 2333.92,817.328 2334.59,816.328 2335.5,815.5C 2336.68,816.855 2337.68,816.688 2338.5,815C 2336.83,814.667 2335.17,814.333 2333.5,814C 2427.17,813.5 2520.83,813.333 2614.5,813.5 Z"/></g>
<g><path style="opacity:1" fill="#bb2533" d="M 1982.5,813.5 C 1982.48,815.565 1982.15,817.565 1981.5,819.5C 1981.5,875.5 1981.5,931.5 1981.5,987.5C 1980.83,931.294 1980.16,874.961 1979.5,818.5C 1980.7,816.855 1981.7,815.189 1982.5,813.5 Z"/></g>
<g><path style="opacity:0.133" fill="#fafdf0" d="M 3057.5,817.5 C 3056.76,817.631 3056.09,817.464 3055.5,817C 3056.44,816.308 3057.1,816.475 3057.5,817.5 Z"/></g>
<g><path style="opacity:1" fill="#d45159" d="M 925.5,815.5 C 923.854,817.812 921.854,819.812 919.5,821.5C 918.121,824.259 916.787,826.925 915.5,829.5C 915.94,822.573 919.274,817.906 925.5,815.5 Z"/></g>
<g><path style="opacity:1" fill="#e95d6a" d="M 1212.5,813.5 C 1213.69,813.866 1214.36,814.699 1214.5,816C 1214.2,828.842 1213.2,841.342 1211.5,853.5C 1212.11,852.609 1212.44,851.609 1212.5,850.5C 1212.5,838.167 1212.5,825.833 1212.5,813.5 Z"/></g>
<g><path style="opacity:0.773" fill="#f7f3ec" d="M 3051.5,813.5 C 3051.83,813.5 3052.17,813.5 3052.5,813.5C 3054.9,816.66 3053.9,818.827 3049.5,820C 3049.83,820.333 3050.17,820.667 3050.5,821C 3048.07,821.075 3047.4,821.908 3048.5,823.5C 3045.66,821.828 3045,822.494 3046.5,825.5C 3045.68,826.386 3044.68,826.719 3043.5,826.5C 3043.29,828.144 3043.62,829.644 3044.5,831C 3042.19,831.497 3039.86,831.663 3037.5,831.5C 3041.85,825.166 3046.51,819.166 3051.5,813.5 Z"/></g>
<g><path style="opacity:0.329" fill="#f5f6f0" d="M 3057.5,817.5 C 3059.55,815.962 3061.22,816.296 3062.5,818.5C 3061.67,818.833 3060.83,819.167 3060,819.5C 3058.62,819.316 3057.79,818.649 3057.5,817.5 Z"/></g>
<g><path style="opacity:1" fill="#ed616e" d="M 804.5,814.5 C 804.5,865.833 804.5,917.167 804.5,968.5C 804.167,968.5 803.833,968.5 803.5,968.5C 803.5,968.167 803.5,967.833 803.5,967.5C 803.82,917.773 803.486,867.94 802.5,818C 803.085,816.698 803.751,815.531 804.5,814.5 Z"/></g>
<g><path style="opacity:0.133" fill="#fafdf0" d="M 450.5,819.5 C 451.525,819.897 451.692,820.563 451,821.5C 450.536,820.906 450.369,820.239 450.5,819.5 Z"/></g>
<g><path style="opacity:1" fill="#ed616e" d="M 2279.5,813.5 C 2280.38,813.369 2281.04,813.702 2281.5,814.5C 2280.84,873.294 2280.17,931.961 2279.5,990.5C 2279.5,931.5 2279.5,872.5 2279.5,813.5 Z"/></g>
<g><path style="opacity:1" fill="#d5454d" d="M 1631.5,815.5 C 1626.93,819.641 1623.59,824.641 1621.5,830.5C 1621.74,828.533 1621.41,826.699 1620.5,825C 1623.51,822.323 1626.18,819.323 1628.5,816C 1629.45,815.517 1630.45,815.351 1631.5,815.5 Z"/></g>
<g><path style="opacity:0.329" fill="#f7f6ee" d="M 471.5,806.5 C 469.474,809.518 467.474,812.518 465.5,815.5C 461.86,819.806 457.86,823.806 453.5,827.5C 450.86,825.535 450.86,823.535 453.5,821.5C 454.258,822.811 455.258,823.311 456.5,823C 456.167,822 455.833,821 455.5,820C 456.749,818.176 457.915,818.343 459,820.5C 460.145,818.074 461.478,815.741 463,813.5C 465.698,812.302 467.531,810.302 468.5,807.5C 469.325,806.614 470.325,806.281 471.5,806.5 Z"/></g>
<g><path style="opacity:0.133" fill="#fafdf0" d="M 3048.5,823.5 C 3049.24,823.369 3049.91,823.536 3050.5,824C 3049.56,824.692 3048.9,824.525 3048.5,823.5 Z"/></g>
<g><path style="opacity:0.133" fill="#f9fcf1" d="M 3050.5,825.5 C 3052.98,825.747 3052.98,826.413 3050.5,827.5C 3049.54,827.03 3049.54,826.363 3050.5,825.5 Z"/></g>
<g><path style="opacity:0.133" fill="#fafdf0" d="M 435.5,834.5 C 436.077,833.227 436.743,833.227 437.5,834.5C 437.03,835.463 436.363,835.463 435.5,834.5 Z"/></g>
<g><path style="opacity:1" fill="#ed626e" d="M 1928.5,827.5 C 1929.22,827.918 1929.72,828.584 1930,829.5C 1930.83,884.002 1930.67,938.335 1929.5,992.5C 1929.82,937.47 1929.49,882.47 1928.5,827.5 Z"/></g>
<g><path style="opacity:0.329" fill="#f5f7f0" d="M 3042.5,834.5 C 3041.79,835.404 3040.79,835.737 3039.5,835.5C 3039.69,831.995 3040.69,831.662 3042.5,834.5 Z"/></g>
<g><path style="opacity:0.133" fill="#fafdf0" d="M 3042.5,834.5 C 3043.39,833.224 3044.39,833.224 3045.5,834.5C 3044.77,835.087 3043.77,835.087 3042.5,834.5 Z"/></g>
<g><path style="opacity:0.133" fill="#f7f8ef" d="M 453.5,827.5 C 447.871,835.129 441.871,842.463 435.5,849.5C 436.32,847.188 437.153,844.854 438,842.5C 439.757,841.881 440.924,840.714 441.5,839C 440.373,837.943 439.873,836.777 440,835.5C 441.796,834.233 443.629,834.233 445.5,835.5C 446.5,835.167 447.167,834.5 447.5,833.5C 446.384,833.598 445.384,833.098 444.5,832C 443.976,830.456 443.976,829.123 444.5,828C 447.694,828.496 450.694,828.329 453.5,827.5 Z"/></g>
<g><path style="opacity:1" fill="#f4d9d2" d="M 1621.5,836.5 C 1622.25,889.338 1622.91,942.338 1623.5,995.5C 1622.78,995.082 1622.28,994.416 1622,993.5C 1621.5,941.168 1621.33,888.834 1621.5,836.5 Z"/></g>
<g><path style="opacity:0.329" fill="#f4efea" d="M 3037.5,831.5 C 3038.23,832.708 3038.57,834.041 3038.5,835.5C 3037.21,836.778 3035.21,837.445 3032.5,837.5C 3033.42,834.911 3035.09,832.911 3037.5,831.5 Z"/></g>
<g><path style="opacity:0.773" fill="#f7f4eb" d="M 3032.5,837.5 C 3034.91,838.532 3036.24,840.032 3036.5,842C 3035.46,843.617 3034.3,843.784 3033,842.5C 3031.32,843.061 3029.99,844.061 3029,845.5C 3028.01,844.829 3026.85,844.829 3025.5,845.5C 3026.6,844.395 3027.27,843.062 3027.5,841.5C 3028.76,839.633 3030.43,838.3 3032.5,837.5 Z"/></g>
<g><path style="opacity:1" fill="#d14b54" d="M 3027.5,841.5 C 3027.27,843.062 3026.6,844.395 3025.5,845.5C 3023.37,847.091 3021.7,849.091 3020.5,851.5C 3020.17,851.5 3019.83,851.5 3019.5,851.5C 3021.05,847.282 3023.72,843.949 3027.5,841.5 Z"/></g>
<g><path style="opacity:0.133" fill="#f7f8ef" d="M 3025.5,845.5 C 3025.92,846.222 3026.58,846.722 3027.5,847C 3026.79,848.343 3027.12,849.676 3028.5,851C 3026.89,851.658 3025.73,851.158 3025,849.5C 3023.89,851.037 3022.39,851.703 3020.5,851.5C 3021.7,849.091 3023.37,847.091 3025.5,845.5 Z"/></g>
<g><path style="opacity:0.133" fill="#f7f8f1" d="M 3033.5,848.5 C 3034.5,848.5 3035.5,848.5 3036.5,848.5C 3036.5,849.5 3036.5,850.5 3036.5,851.5C 3035.5,851.5 3034.5,851.5 3033.5,851.5C 3033.5,850.5 3033.5,849.5 3033.5,848.5 Z"/></g>
<g><path style="opacity:0.133" fill="#fafdf0" d="M 3030.5,849.5 C 3031.53,849.897 3031.69,850.563 3031,851.5C 3030.54,850.906 3030.37,850.239 3030.5,849.5 Z"/></g>
<g><path style="opacity:1" fill="#f2d6cf" d="M 1212.5,850.5 C 1212.44,851.609 1212.11,852.609 1211.5,853.5C 1132.5,853.5 1053.5,853.5 974.5,853.5C 974.369,852.761 974.536,852.094 975,851.5C 1053.43,852.665 1131.93,852.831 1210.5,852C 1211.04,851.283 1211.71,850.783 1212.5,850.5 Z"/></g>
<g><path style="opacity:1" fill="#f2d6cf" d="M 1387.5,853.5 C 1347,853.832 1306.66,853.499 1266.5,852.5C 1306.1,852.825 1345.93,852.491 1386,851.5C 1386.72,852.044 1387.22,852.711 1387.5,853.5 Z"/></g>
<g><path style="opacity:1" fill="#f2d6cf" d="M 1568.5,851.5 C 1568.39,852.117 1568.06,852.617 1567.5,853C 1527.5,853.5 1487.5,853.667 1447.5,853.5C 1447.17,853.5 1446.83,853.5 1446.5,853.5C 1487.04,852.822 1527.71,852.156 1568.5,851.5 Z"/></g>
<g><path style="opacity:1" fill="#f2d6cf" d="M 2574.5,853.5 C 2513.83,853.5 2453.17,853.5 2392.5,853.5C 2391.83,853.5 2391.17,853.5 2390.5,853.5C 2391.17,852.733 2392.01,852.066 2393,851.5C 2452.67,852.833 2512.33,852.833 2572,851.5C 2572.99,852.066 2573.83,852.733 2574.5,853.5 Z"/></g>
<g><path style="opacity:0.48" fill="#f7f4ec" d="M 433.5,851.5 C 432.527,854.135 430.86,856.135 428.5,857.5C 428.693,855.914 429.027,854.247 429.5,852.5C 430.736,851.754 432.07,851.421 433.5,851.5 Z"/></g>
<g><path style="opacity:0.133" fill="#fafdf0" d="M 424.5,853.5 C 425.525,853.897 425.692,854.563 425,855.5C 424.536,854.906 424.369,854.239 424.5,853.5 Z"/></g>
<g><path style="opacity:1" fill="#cf4652" d="M 1446.5,853.5 C 1446.83,853.5 1447.17,853.5 1447.5,853.5C 1447.67,905.501 1447.5,957.501 1447,1009.5C 1446.31,1010.74 1445.81,1010.74 1445.5,1009.5C 1446.5,957.572 1446.83,905.572 1446.5,853.5 Z"/></g>
<g><path style="opacity:0.773" fill="#f7f5ed" d="M 3019.5,851.5 C 3019.83,851.5 3020.17,851.5 3020.5,851.5C 3020.03,853.995 3020.03,856.661 3020.5,859.5C 3019.17,859.5 3017.83,859.5 3016.5,859.5C 3016.17,858.167 3015.83,858.167 3015.5,859.5C 3012.93,860.484 3012.93,861.651 3015.5,863C 3014.75,863.671 3014.41,864.504 3014.5,865.5C 3013.85,865.804 3013.18,866.137 3012.5,866.5C 3011.82,865.398 3011.16,864.398 3010.5,863.5C 3013.18,859.169 3016.18,855.169 3019.5,851.5 Z"/></g>
<g><path style="opacity:0.133" fill="#fafdf0" d="M 3015.5,859.5 C 3015.83,859.5 3016.17,859.5 3016.5,859.5C 3016.31,860.17 3015.98,860.17 3015.5,859.5 Z"/></g>
<g><path style="opacity:1" fill="#f11d30" d="M 1206.5,860.5 C 1209.61,861.313 1212.61,862.313 1215.5,863.5C 1218.04,862.001 1220.37,862.334 1222.5,864.5C 1219.22,865.237 1216.06,866.237 1213,867.5C 1212.55,865.245 1211.21,863.911 1209,863.5C 1170.74,864.818 1132.4,865.485 1094,865.5C 1056.5,865.167 1019,864.833 981.5,864.5C 1056.16,863.667 1130.83,863.167 1205.5,863C 1206.25,862.329 1206.59,861.496 1206.5,860.5 Z"/></g>
<g><path style="opacity:0.711" fill="#f6f6ee" d="M 428.5,857.5 C 426.206,861.127 423.54,864.461 420.5,867.5C 419.243,865.632 419.576,863.965 421.5,862.5C 419.144,861.346 418.977,860.013 421,858.5C 421.915,859.328 422.581,860.328 423,861.5C 423.317,859.699 423.984,859.366 425,860.5C 426.039,859.29 427.206,858.29 428.5,857.5 Z"/></g>
<g><path style="opacity:0.133" fill="#fafdf0" d="M 3016.5,862.5 C 3016.9,861.475 3017.56,861.308 3018.5,862C 3017.91,862.464 3017.24,862.631 3016.5,862.5 Z"/></g>
<g><path style="opacity:1" fill="#e95e6a" d="M 2390.5,853.5 C 2391.17,853.5 2391.83,853.5 2392.5,853.5C 2391.52,864.085 2391.19,874.752 2391.5,885.5C 2391.5,886.5 2391.5,887.5 2391.5,888.5C 2390.51,877.012 2390.17,865.345 2390.5,853.5 Z"/></g>
<g><path style="opacity:1" fill="#e7202f" d="M 2392.5,853.5 C 2453.17,853.5 2513.83,853.5 2574.5,853.5C 2574.5,863.5 2574.5,873.5 2574.5,883.5C 2573.75,884.531 2573.08,885.698 2572.5,887C 2542.5,887.167 2512.5,887.333 2482.5,887.5C 2451.95,887.492 2421.62,886.826 2391.5,885.5C 2391.19,874.752 2391.52,864.085 2392.5,853.5 Z"/></g>
<g><path style="opacity:0.329" fill="#f4f7f0" d="M 3014.5,865.5 C 3015.98,865.238 3017.31,865.571 3018.5,866.5C 3016.76,867.809 3015.43,867.476 3014.5,865.5 Z"/></g>
<g><path style="opacity:0.329" fill="#f3f6f0" d="M 405.5,867.5 C 406.675,867.281 407.675,867.614 408.5,868.5C 406.948,869.798 405.948,869.465 405.5,867.5 Z"/></g>
<g><path style="opacity:0.329" fill="#f0f6f1" d="M 415.5,867.5 C 416.833,868.167 416.833,868.167 415.5,867.5 Z"/></g>
<g><path style="opacity:0.133" fill="#f9fdf0" d="M 420.5,867.5 C 420.167,868.5 419.5,869.167 418.5,869.5C 417.34,867.797 418.007,867.131 420.5,867.5 Z"/></g>
<g><path style="opacity:0.565" fill="#f5e9e3" d="M 3010.5,863.5 C 3009.83,864.847 3009.83,866.014 3010.5,867C 3007.26,867.283 3006.92,868.117 3009.5,869.5C 3008.73,870.711 3007.89,870.711 3007,869.5C 3006.17,871 3005,872.167 3003.5,873C 3004.78,874.297 3004.62,875.464 3003,876.5C 3002.67,875.833 3002.33,875.167 3002,874.5C 3000.82,876.196 2999.66,877.862 2998.5,879.5C 2997.83,879.5 2997.5,879.833 2997.5,880.5C 2996.83,880.833 2996.17,881.167 2995.5,881.5C 2997.18,878.975 2998.68,876.309 3000,873.5C 3003.72,870.372 3007.22,867.039 3010.5,863.5 Z"/></g>
<g><path style="opacity:0.133" fill="#fafdf0" d="M 3010.5,869.5 C 3010.9,868.475 3011.56,868.308 3012.5,869C 3011.91,869.464 3011.24,869.631 3010.5,869.5 Z"/></g>
<g><path style="opacity:0.133" fill="#fafdf0" d="M 409.5,875.5 C 408.711,875.217 408.044,874.717 407.5,874C 408.816,873.472 409.483,873.972 409.5,875.5 Z"/></g>
<g><path style="opacity:0.773" fill="#f7f3ea" d="M 418.5,869.5 C 415.313,874.538 411.647,879.205 407.5,883.5C 406.906,881.122 406.573,878.789 406.5,876.5C 407.496,876.414 408.329,876.748 409,877.5C 409.464,876.906 409.631,876.239 409.5,875.5C 410.315,874.571 411.148,873.571 412,872.5C 412.914,873.654 413.747,873.487 414.5,872C 413.167,871.333 412.167,870.333 411.5,869C 413.797,868.982 416.131,869.149 418.5,869.5 Z"/></g>
<g><path style="opacity:0.133" fill="#f8fbf1" d="M 406.5,876.5 C 405.577,877.303 404.577,877.47 403.5,877C 403.19,875.126 403.69,873.293 405,871.5C 405.352,873.247 405.852,874.914 406.5,876.5 Z"/></g>
<g><path style="opacity:0.329" fill="#f0f6f1" d="M 404.5,878.5 C 405.833,879.167 405.833,879.167 404.5,878.5 Z"/></g>
<g><path style="opacity:0.133" fill="#f8fbf1" d="M 2998.5,879.5 C 2999.38,879.369 3000.04,879.702 3000.5,880.5C 2999.39,881.776 2998.39,881.776 2997.5,880.5C 2998.17,880.5 2998.5,880.167 2998.5,879.5 Z"/></g>
<g><path style="opacity:0.133" fill="#fafdf0" d="M 396.5,883.5 C 397.833,884.167 397.833,884.167 396.5,883.5 Z"/></g>
<g><path style="opacity:0.133" fill="#fafdf0" d="M 399.5,883.5 C 400.833,884.167 400.833,884.167 399.5,883.5 Z"/></g>
<g><path style="opacity:1" fill="#cf4b51" d="M 2574.5,883.5 C 2574.5,885.5 2574.5,887.5 2574.5,889.5C 2513.33,889.832 2452.33,889.499 2391.5,888.5C 2391.5,887.5 2391.5,886.5 2391.5,885.5C 2421.62,886.826 2451.95,887.492 2482.5,887.5C 2512.5,887.333 2542.5,887.167 2572.5,887C 2573.08,885.698 2573.75,884.531 2574.5,883.5 Z"/></g>
<g><path style="opacity:0.133" fill="#fafdf0" d="M 396.5,884.5 C 395.833,885.167 395.833,885.167 396.5,884.5 Z"/></g>
<g><path style="opacity:0.329" fill="#f4f8f1" d="M 387.5,887.5 C 389.337,887.639 389.67,888.306 388.5,889.5C 387.702,889.043 387.369,888.376 387.5,887.5 Z"/></g>
<g><path style="opacity:0.393" fill="#f7f4ed" d="M 2995.5,881.5 C 2994.83,882.847 2994.83,884.014 2995.5,885C 2992.72,885.149 2992.22,885.983 2994,887.5C 2994.72,886.549 2995.55,886.383 2996.5,887C 2995.69,888.803 2994.52,890.303 2993,891.5C 2992.05,891.095 2991.39,890.428 2991,889.5C 2990.23,890.598 2989.4,890.598 2988.5,889.5C 2990.37,886.418 2992.71,883.751 2995.5,881.5 Z"/></g>
<g><path style="opacity:1" fill="#d24a52" d="M 974.5,853.5 C 974.5,865.5 974.5,877.5 974.5,889.5C 1049.17,889.333 1123.83,889.5 1198.5,890C 1197.94,890.383 1197.61,890.883 1197.5,891.5C 1123.17,891.5 1048.83,891.5 974.5,891.5C 973.179,878.735 973.179,866.069 974.5,853.5 Z"/></g>
<g><path style="opacity:0.783" fill="#f8f6ee" d="M 407.5,883.5 C 403.428,887.899 399.762,892.565 396.5,897.5C 396.167,897.5 395.833,897.5 395.5,897.5C 394.833,897.5 394.167,897.5 393.5,897.5C 393.119,896.069 392.119,895.236 390.5,895C 392.954,892.513 395.954,891.179 399.5,891C 398.833,890.667 398.167,890.333 397.5,890C 398.833,889 398.833,888 397.5,887C 399.285,885.837 401.285,885.17 403.5,885C 404.317,882.628 405.65,882.128 407.5,883.5 Z"/></g>
<g><path style="opacity:1" fill="#fcf9f1" d="M 974.5,891.5 C 1048.83,891.5 1123.17,891.5 1197.5,891.5C 1197.5,904.833 1197.5,918.167 1197.5,931.5C 1196.17,931.5 1194.83,931.5 1193.5,931.5C 1194.21,930.596 1195.21,930.263 1196.5,930.5C 1195.43,920.21 1194.43,909.544 1193.5,898.5C 1196.16,896.126 1195.66,894.126 1192,892.5C 1121.25,893.588 1050.58,893.588 980,892.5C 978.04,894.899 975.874,895.065 973.5,893C 974.056,892.617 974.389,892.117 974.5,891.5 Z"/></g>
<g><path style="opacity:0.133" fill="#fafdf0" d="M 98.5,895.5 C 98.8966,894.475 99.5632,894.308 100.5,895C 99.9056,895.464 99.2389,895.631 98.5,895.5 Z"/></g>
<g><path style="opacity:0.133" fill="#fafdf0" d="M 102.5,895.5 C 102.897,894.475 103.563,894.308 104.5,895C 103.906,895.464 103.239,895.631 102.5,895.5 Z"/></g>
<g><path style="opacity:0.773" fill="#f6f0e9" d="M 2988.5,889.5 C 2988.17,892.167 2987.83,894.833 2987.5,897.5C 2986.51,897.328 2985.84,897.662 2985.5,898.5C 2984.04,899.427 2983.21,900.427 2983,901.5C 2981.99,900.944 2981.16,900.278 2980.5,899.5C 2982.03,895.296 2984.7,891.963 2988.5,889.5 Z"/></g>
<g><path style="opacity:1" fill="#f3d7d0" d="M 393.5,897.5 C 394.167,897.5 394.833,897.5 395.5,897.5C 297.167,898.167 198.833,898.833 100.5,899.5C 99.1667,899.5 97.8333,899.5 96.5,899.5C 99.4129,897.998 102.58,896.998 106,896.5C 152.93,897.165 199.93,897.499 247,897.5C 294.309,897.495 341.476,896.829 388.5,895.5C 389.167,896.167 389.833,896.833 390.5,897.5C 391.527,896.209 392.527,896.209 393.5,897.5 Z"/></g>
<g><path style="opacity:0.133" fill="#fafdf0" d="M 2987.5,898.5 C 2987.5,898.167 2987.5,897.833 2987.5,897.5C 2988.38,897.369 2989.04,897.702 2989.5,898.5C 2989.03,899.463 2988.36,899.463 2987.5,898.5 Z"/></g>
<g><path style="opacity:1" fill="#ce4652" d="M 395.5,897.5 C 395.833,897.5 396.167,897.5 396.5,897.5C 395.895,899.026 394.729,900.026 393,900.5C 296.144,899.877 198.644,899.543 100.5,899.5C 198.833,898.833 297.167,898.167 395.5,897.5 Z"/></g>
<g><path style="opacity:0.133" fill="#f7faf1" d="M 2985.5,898.5 C 2986.17,898.5 2986.83,898.5 2987.5,898.5C 2986.83,899.833 2986.17,899.833 2985.5,898.5 Z"/></g>
<g><path style="opacity:0.329" fill="#f0f6f1" d="M 83.5,900.5 C 84.1667,899.167 84.8333,899.167 85.5,900.5C 84.8333,900.5 84.1667,900.5 83.5,900.5 Z"/></g>
<g><path style="opacity:0.565" fill="#f5f0e9" d="M 95.5,899.5 C 94.4863,900.674 93.153,901.34 91.5,901.5C 92.1834,899.824 93.5168,899.157 95.5,899.5 Z"/></g>
<g><path style="opacity:1" fill="#cf4652" d="M 1197.5,891.5 C 1198.75,892.334 1199.41,893.667 1199.5,895.5C 1198.92,907.659 1198.25,919.659 1197.5,931.5C 1197.5,918.167 1197.5,904.833 1197.5,891.5 Z"/></g>
<g><path style="opacity:1" fill="#e95e6a" d="M 2393.5,898.5 C 2392.17,916.154 2391.5,934.154 2391.5,952.5C 2391.67,970.5 2391.83,988.5 2392,1006.5C 2392.69,1007.03 2393.19,1007.69 2393.5,1008.5C 2389.84,1011.38 2385.84,1011.71 2381.5,1009.5C 2384.39,1009.81 2387.05,1009.47 2389.5,1008.5C 2390.17,971.331 2390.83,933.998 2391.5,896.5C 2392.52,896.855 2393.19,897.522 2393.5,898.5 Z"/></g>
<g><path style="opacity:0.133" fill="#fafdf0" d="M 83.5,900.5 C 82.8333,901.167 82.8333,901.167 83.5,900.5 Z"/></g>
<g><path style="opacity:1" fill="#f7f9f2" d="M 91.5,901.5 C 90.1667,903.5 88.5,905.167 86.5,906.5C 86.5,905.5 86.5,904.5 86.5,903.5C 85.448,903.649 84.448,903.483 83.5,903C 84.3805,902.292 85.0472,901.458 85.5,900.5C 87.0707,899.803 88.5707,899.47 90,899.5C 90.2784,900.416 90.7784,901.082 91.5,901.5 Z"/></g>
<g><path style="opacity:1" fill="#cb434b" d="M 95.5,899.5 C 95.8333,899.5 96.1667,899.5 96.5,899.5C 96.5674,902.766 94.9008,904.266 91.5,904C 90.2862,906.049 88.6195,907.549 86.5,908.5C 86.5,907.833 86.5,907.167 86.5,906.5C 88.5,905.167 90.1667,903.5 91.5,901.5C 93.153,901.34 94.4863,900.674 95.5,899.5 Z"/></g>
<g><path style="opacity:0.133" fill="#fafdf0" d="M 85.5,906.5 C 82.9991,906.489 82.8324,905.822 85,904.5C 85.4643,905.094 85.631,905.761 85.5,906.5 Z"/></g>
<g><path style="opacity:0.329" fill="#f0f6f1" d="M 82.5,907.5 C 83.8333,908.167 83.8333,908.167 82.5,907.5 Z"/></g>
<g><path style="opacity:0.773" fill="#f5eae2" d="M 85.5,906.5 C 85.8333,906.5 86.1667,906.5 86.5,906.5C 86.5,907.167 86.5,907.833 86.5,908.5C 84.4319,911.212 83.0986,914.212 82.5,917.5C 82.1203,913.429 83.1203,909.762 85.5,906.5 Z"/></g>
<g><path style="opacity:0.329" fill="#f7f3ee" d="M 2980.5,899.5 C 2980.42,900.75 2979.76,901.583 2978.5,902C 2980.7,903.878 2980.86,906.045 2979,908.5C 2975.31,910.025 2972.81,912.692 2971.5,916.5C 2969.39,917.081 2967.39,917.414 2965.5,917.5C 2965.5,916.833 2965.5,916.167 2965.5,915.5C 2970.12,910.94 2974.29,905.94 2978,900.5C 2978.67,899.748 2979.5,899.414 2980.5,899.5 Z"/></g>
<g><path style="opacity:1" fill="#ce3e47" d="M 86.5,908.5 C 84.5647,915.646 85.2314,922.479 88.5,929C 89.7441,929.456 90.5774,928.956 91,927.5C 92.382,929.792 92.882,932.125 92.5,934.5C 94.0499,936.428 95.7166,938.261 97.5,940C 96.944,940.383 96.6107,940.883 96.5,941.5C 95.1455,939.479 93.4788,937.812 91.5,936.5C 90.9744,934.77 89.9744,933.436 88.5,932.5C 87.5129,930.449 86.1795,928.782 84.5,927.5C 84.3239,924.273 83.6572,921.273 82.5,918.5C 82.5,918.167 82.5,917.833 82.5,917.5C 83.0986,914.212 84.4319,911.212 86.5,908.5 Z"/></g>
<g><path style="opacity:0.133" fill="#fafdf0" d="M 2977.5,911.5 C 2977.9,910.475 2978.56,910.308 2979.5,911C 2978.91,911.464 2978.24,911.631 2977.5,911.5 Z"/></g>
<g><path style="opacity:0.133" fill="#fafdf0" d="M 2974.5,913.5 C 2975.83,914.167 2975.83,914.167 2974.5,913.5 Z"/></g>
<g><path style="opacity:0.565" fill="#f2f2ef" d="M 2977.5,913.5 C 2978.98,913.238 2980.31,913.571 2981.5,914.5C 2980.83,914.833 2980.17,915.167 2979.5,915.5C 2978.29,915.253 2977.62,914.586 2977.5,913.5 Z"/></g>
<g><path style="opacity:1" fill="#e17979" d="M 2965.5,915.5 C 2965.5,916.167 2965.5,916.833 2965.5,917.5C 2965.5,918.167 2965.5,918.833 2965.5,919.5C 2964.83,919.5 2964.17,919.5 2963.5,919.5C 2963.17,919.5 2962.83,919.5 2962.5,919.5C 2962.39,918.883 2962.06,918.383 2961.5,918C 2962.74,916.915 2964.07,916.082 2965.5,915.5 Z"/></g>
<g><path style="opacity:1" fill="#f4e1db" d="M 82.5,918.5 C 83.6572,921.273 84.3239,924.273 84.5,927.5C 82.7345,924.877 82.0679,921.877 82.5,918.5 Z"/></g>
<g><path style="opacity:0.133" fill="#fafdf0" d="M 2965.5,919.5 C 2966.83,920.167 2966.83,920.167 2965.5,919.5 Z"/></g>
<g><path style="opacity:0.133" fill="#f8fbf1" d="M 2969.5,919.5 C 2971.03,920.105 2972.03,921.271 2972.5,923C 2971.55,923.483 2970.55,923.649 2969.5,923.5C 2969.5,922.167 2969.5,920.833 2969.5,919.5 Z"/></g>
<g><path style="opacity:0.329" fill="#f6e9e3" d="M 2962.5,919.5 C 2962.83,919.5 2963.17,919.5 2963.5,919.5C 2963.11,921.179 2962.61,922.846 2962,924.5C 2961.62,923.944 2961.12,923.611 2960.5,923.5C 2960.66,921.847 2961.33,920.514 2962.5,919.5 Z"/></g>
<g><path style="opacity:1" fill="#f2d6cf" d="M 2614.5,928.5 C 2585.5,929.833 2556.5,929.833 2527.5,928.5C 2556.67,928.464 2585.67,928.464 2614.5,928.5 Z"/></g>
<g><path style="opacity:0.133" fill="#fafdf0" d="M 2959.5,930.5 C 2960.83,931.167 2960.83,931.167 2959.5,930.5 Z"/></g>
<g><path style="opacity:0.133" fill="#fafdf0" d="M 2962.5,930.5 C 2963.53,930.897 2963.69,931.563 2963,932.5C 2962.54,931.906 2962.37,931.239 2962.5,930.5 Z"/></g>
<g><path style="opacity:0.329" fill="#f6efe8" d="M 84.5,927.5 C 86.1795,928.782 87.5129,930.449 88.5,932.5C 87.5416,932.953 86.7083,933.619 86,934.5C 85.0197,933.019 83.853,931.685 82.5,930.5C 83.6119,929.735 84.2786,928.735 84.5,927.5 Z"/></g>
<g><path style="opacity:0.329" fill="#f0f6f1" d="M 82.5,932.5 C 83.8333,933.167 83.8333,933.167 82.5,932.5 Z"/></g>
<g><path style="opacity:1" fill="#ee6370" d="M 975.5,931.5 C 974.524,942.085 974.191,952.752 974.5,963.5C 974.5,965.167 974.5,966.833 974.5,968.5C 973.834,962.509 973.5,956.343 973.5,950C 973.504,943.462 974.17,937.295 975.5,931.5 Z"/></g>
<g><path style="opacity:0.565" fill="#f5f0e9" d="M 88.5,932.5 C 89.9744,933.436 90.9744,934.77 91.5,936.5C 89.5544,935.965 88.5544,934.632 88.5,932.5 Z"/></g>
<g><path style="opacity:0.133" fill="#fafdf0" d="M 87.5,935.5 C 88.8333,936.167 88.8333,936.167 87.5,935.5 Z"/></g>
<g><path style="opacity:0.133" fill="#fafdf0" d="M 87.5,936.5 C 86.8333,937.167 86.8333,937.167 87.5,936.5 Z"/></g>
<g><path style="opacity:0.133" fill="#fafcf1" d="M 83.5,935.5 C 83.149,937.316 83.649,938.982 85,940.5C 82.4911,939.347 81.9911,937.68 83.5,935.5 Z"/></g>
<g><path style="opacity:0.133" fill="#f8fbf1" d="M 91.5,937.5 C 91.1667,938.167 90.8333,938.833 90.5,939.5C 88.8947,940.969 88.3947,940.635 89,938.5C 89.6708,937.748 90.5041,937.414 91.5,937.5 Z"/></g>
<g><path style="opacity:0.329" fill="#f6f5ed" d="M 2960.5,923.5 C 2960.51,925.017 2961.18,926.184 2962.5,927C 2961.23,927.309 2960.07,927.809 2959,928.5C 2958.09,927.346 2957.25,927.513 2956.5,929C 2957.31,929.308 2957.97,929.808 2958.5,930.5C 2956.8,931.364 2955.64,932.697 2955,934.5C 2953.7,933.216 2952.54,933.383 2951.5,935C 2953.04,935.29 2954.38,935.956 2955.5,937C 2954.28,939.096 2953.45,938.929 2953,936.5C 2951.12,937.653 2950.28,939.319 2950.5,941.5C 2949.13,941.343 2947.79,941.51 2946.5,942C 2948.89,942.691 2948.89,943.691 2946.5,945C 2949,945.833 2949.17,947 2947,948.5C 2946,947.167 2945,947.167 2944,948.5C 2943.76,946.881 2942.93,945.881 2941.5,945.5C 2943.18,943.46 2944.84,941.46 2946.5,939.5C 2949.81,934.687 2953.31,930.02 2957,925.5C 2958.11,924.695 2959.28,924.028 2960.5,923.5 Z"/></g>
<g><path style="opacity:0.133" fill="#f9fbf1" d="M 90.5,939.5 C 91.1667,939.5 91.8333,939.5 92.5,939.5C 92.5,940.167 92.5,940.833 92.5,941.5C 91.1667,941.5 90.5,940.833 90.5,939.5 Z"/></g>
<g><path style="opacity:0.329" fill="#f4f8f1" d="M 2953.5,939.5 C 2955.34,939.639 2955.67,940.306 2954.5,941.5C 2953.7,941.043 2953.37,940.376 2953.5,939.5 Z"/></g>
<g><path style="opacity:0.133" fill="#f9f0e7" d="M 91.5,937.5 C 91.5,937.167 91.5,936.833 91.5,936.5C 93.4788,937.812 95.1455,939.479 96.5,941.5C 97.9063,941.973 98.573,942.973 98.5,944.5C 96.9826,944.489 95.8159,943.823 95,942.5C 93.5391,943.883 92.7058,943.549 92.5,941.5C 93.8333,940.833 93.8333,940.167 92.5,939.5C 92.6716,938.508 92.3382,937.842 91.5,937.5 Z"/></g>
<g><path style="opacity:0.133" fill="#fafdf0" d="M 86.5,941.5 C 88.2252,941.843 88.7252,942.843 88,944.5C 85.8424,943.95 85.3424,942.95 86.5,941.5 Z"/></g>
<g><path style="opacity:0.133" fill="#fafdf0" d="M 82.5,945.5 C 84.2252,945.843 84.7252,946.843 84,948.5C 82.9614,947.756 82.4614,946.756 82.5,945.5 Z"/></g>
<g><path style="opacity:1" fill="#f9f9ef" d="M 98.5,944.5 C 100.137,946.475 101.804,948.475 103.5,950.5C 101.265,950.682 99.265,950.015 97.5,948.5C 97.1667,948 96.8333,947.5 96.5,947C 97.0556,945.989 97.7222,945.156 98.5,944.5 Z"/></g>
<g><path style="opacity:0.133" fill="#fafdf0" d="M 90.5,946.5 C 91.8333,947.167 91.8333,947.167 90.5,946.5 Z"/></g>
<g><path style="opacity:0.133" fill="#f7f9f0" d="M 2941.5,945.5 C 2942.31,947.715 2941.31,949.049 2938.5,949.5C 2938.74,947.596 2939.74,946.262 2941.5,945.5 Z"/></g>
<g><path style="opacity:0.675" fill="#f7f6ed" d="M 103.5,950.5 C 109.167,956.833 114.833,963.167 120.5,969.5C 121.861,971.85 123.194,974.184 124.5,976.5C 123.194,976.121 121.861,975.788 120.5,975.5C 120.709,974.914 121.043,974.414 121.5,974C 120.213,972.59 119.046,971.09 118,969.5C 117.632,970.91 116.799,971.91 115.5,972.5C 115.583,970.002 115.249,967.669 114.5,965.5C 112.851,964.352 111.351,963.019 110,961.5C 109.361,964.228 108.194,964.728 106.5,963C 108.329,961.887 109.163,960.387 109,958.5C 105.715,957.045 102.548,955.379 99.5,953.5C 100.448,952.022 101.781,951.022 103.5,950.5 Z"/></g>
<g><path style="opacity:0.133" fill="#fafdf0" d="M 99.5,953.5 C 98.8333,954.167 98.8333,954.167 99.5,953.5 Z"/></g>
<g><path style="opacity:0.565" fill="#f6f4ec" d="M 2938.5,949.5 C 2939.71,950.88 2939.37,952.047 2937.5,953C 2938.45,953.483 2939.45,953.649 2940.5,953.5C 2940.62,955.484 2939.95,957.15 2938.5,958.5C 2937.57,957.311 2937.24,955.978 2937.5,954.5C 2933.81,955.865 2931.47,958.532 2930.5,962.5C 2929.13,963.512 2927.8,964.512 2926.5,965.5C 2925.5,966.167 2924.5,966.833 2923.5,967.5C 2927.75,960.91 2932.75,954.91 2938.5,949.5 Z"/></g>
<g><path style="opacity:0.329" fill="#f5f8f2" d="M 98.5,961.5 C 101.957,961.667 102.29,962.667 99.5,964.5C 98.6143,963.675 98.281,962.675 98.5,961.5 Z"/></g>
<g><path style="opacity:0.133" fill="#fafdf0" d="M 2930.5,962.5 C 2931.53,962.897 2931.69,963.563 2931,964.5C 2930.54,963.906 2930.37,963.239 2930.5,962.5 Z"/></g>
<g><path style="opacity:0.329" fill="#f7faf1" d="M 2938.5,961.5 C 2939.57,962.251 2939.74,963.251 2939,964.5C 2937.27,963.648 2937.1,962.648 2938.5,961.5 Z"/></g>
<g><path style="opacity:1" fill="#b92230" d="M 974.5,963.5 C 975.434,964.568 975.768,965.901 975.5,967.5C 1054.67,967.167 1133.67,967.501 1212.5,968.5C 1133.17,968.5 1053.83,968.5 974.5,968.5C 974.5,966.833 974.5,965.167 974.5,963.5 Z"/></g>
<g><path style="opacity:1" fill="#b92230" d="M 2220.5,963.5 C 2220.5,965.167 2220.5,966.833 2220.5,968.5C 2160.66,968.832 2101,968.499 2041.5,967.5C 2100.5,967.667 2159.5,967.5 2218.5,967C 2219.08,965.698 2219.75,964.531 2220.5,963.5 Z"/></g>
<g><path style="opacity:1" fill="#d5545a" d="M 1680.5,853.5 C 1680.33,890.168 1680.5,926.835 1681,963.5C 1682.19,964.563 1682.69,965.897 1682.5,967.5C 1744.5,967.667 1806.5,967.5 1868.5,967C 1869,966.5 1869.5,966 1870,965.5C 1870.5,928.168 1870.67,890.835 1870.5,853.5C 1871.83,891.833 1871.83,930.167 1870.5,968.5C 1807.5,968.833 1744.5,968.5 1681.5,967.5C 1681.14,966.817 1680.8,966.15 1680.5,965.5C 1679.17,928.069 1679.17,890.736 1680.5,853.5 Z"/></g>
<g><path style="opacity:1" fill="#e7202f" d="M 1680.5,853.5 C 1743.83,853.5 1807.17,853.5 1870.5,853.5C 1870.67,890.835 1870.5,928.168 1870,965.5C 1869.5,966 1869,966.5 1868.5,967C 1806.5,967.5 1744.5,967.667 1682.5,967.5C 1682.69,965.897 1682.19,964.563 1681,963.5C 1680.5,926.835 1680.33,890.168 1680.5,853.5 Z"/></g>
<g><path style="opacity:1" fill="#ce474f" d="M 622.5,963.5 C 623.249,964.531 623.915,965.698 624.5,967C 684.166,967.5 743.832,967.667 803.5,967.5C 803.5,967.833 803.5,968.167 803.5,968.5C 743.336,969.499 683.002,969.832 622.5,969.5C 622.5,967.5 622.5,965.5 622.5,963.5 Z"/></g>
<g><path style="opacity:0.329" fill="#f4f8f1" d="M 2926.5,965.5 C 2927.53,965.897 2927.69,966.563 2927,967.5C 2926.54,966.906 2926.37,966.239 2926.5,965.5 Z"/></g>
<g><path style="opacity:1" fill="#f3808a" d="M 974.5,968.5 C 1053.83,968.5 1133.17,968.5 1212.5,968.5C 1213.82,981.931 1213.82,995.265 1212.5,1008.5C 1212.5,1003.83 1212.5,999.167 1212.5,994.5C 1212.82,986.248 1212.48,978.081 1211.5,970C 1132.33,969.833 1053.33,969.333 974.5,968.5 Z"/></g>
<g><path style="opacity:1" fill="#f4848e" d="M 1680.5,965.5 C 1680.8,966.15 1681.14,966.817 1681.5,967.5C 1744.5,968.5 1807.5,968.833 1870.5,968.5C 1807.33,969.665 1744,969.832 1680.5,969C 1679.21,967.708 1679.21,966.542 1680.5,965.5 Z"/></g>
<g><path style="opacity:1" fill="#f27a84" d="M 2040.5,813.5 C 2041.5,864.664 2041.83,915.997 2041.5,967.5C 2101,968.499 2160.66,968.832 2220.5,968.5C 2160.67,969.499 2100.67,969.832 2040.5,969.5C 2040.5,917.5 2040.5,865.5 2040.5,813.5 Z"/></g>
<g><path style="opacity:0.133" fill="#f6f7f0" d="M 2923.5,967.5 C 2923.5,968.833 2922.83,969.5 2921.5,969.5C 2921.83,968.5 2922.5,967.833 2923.5,967.5 Z"/></g>
<g><path style="opacity:0.329" fill="#f4f2ed" d="M 2921.5,969.5 C 2921.59,972.1 2920.93,974.767 2919.5,977.5C 2918.21,977.737 2917.21,977.404 2916.5,976.5C 2917.83,976.167 2917.83,975.833 2916.5,975.5C 2917.72,973.019 2919.39,971.019 2921.5,969.5 Z"/></g>
<g><path style="opacity:0.133" fill="#fafdf0" d="M 2921.5,974.5 C 2922.83,975.167 2922.83,975.167 2921.5,974.5 Z"/></g>
<g><path style="opacity:1" fill="#d24e56" d="M 120.5,969.5 C 123.427,971.328 125.927,973.661 128,976.5C 128.483,977.448 128.649,978.448 128.5,979.5C 127.363,978.211 126.03,977.211 124.5,976.5C 123.194,974.184 121.861,971.85 120.5,969.5 Z"/></g>
<g><path style="opacity:0.329" fill="#f5f7f0" d="M 114.5,977.5 C 119.833,978.5 119.833,979.5 114.5,980.5C 114.5,979.5 114.5,978.5 114.5,977.5 Z"/></g>
<g><path style="opacity:0.133" fill="#f9fbf1" d="M 124.5,977.5 C 124.5,977.833 124.5,978.167 124.5,978.5C 122.897,979.677 121.564,979.511 120.5,978C 121.793,977.51 123.127,977.343 124.5,977.5 Z"/></g>
<g><path style="opacity:0.133" fill="#fafdf0" d="M 2919.5,977.5 C 2920.83,978.167 2920.83,978.167 2919.5,977.5 Z"/></g>
<g><path style="opacity:0.329" fill="#f8ebe4" d="M 124.5,977.5 C 124.5,977.167 124.5,976.833 124.5,976.5C 126.03,977.211 127.363,978.211 128.5,979.5C 128.5,979.833 128.5,980.167 128.5,980.5C 126.128,982.148 124.794,981.481 124.5,978.5C 125.833,978.167 125.833,977.833 124.5,977.5 Z"/></g>
<g><path style="opacity:0.133" fill="#fafdf0" d="M 2919.5,978.5 C 2918.83,979.167 2918.83,979.167 2919.5,978.5 Z"/></g>
<g><path style="opacity:1" fill="#d14850" d="M 2505.5,975.5 C 2511.73,978.73 2517.39,982.73 2522.5,987.5C 2521.45,987.649 2520.45,987.483 2519.5,987C 2515.68,983.921 2511.68,981.088 2507.5,978.5C 2506.57,977.643 2505.91,976.643 2505.5,975.5 Z"/></g>
<g><path style="opacity:0.133" fill="#fafdf0" d="M 2914.5,981.5 C 2915.83,982.167 2915.83,982.167 2914.5,981.5 Z"/></g>
<g><path style="opacity:0.133" fill="#fafdf0" d="M 128.5,982.5 C 127.833,983.167 127.833,983.167 128.5,982.5 Z"/></g>
<g><path style="opacity:1" fill="#d9373f" d="M 2596.5,977.5 C 2601.99,980.489 2607.49,983.489 2613,986.5C 2613.75,985.874 2614.58,985.374 2615.5,985C 2612.95,983.484 2613.28,982.651 2616.5,982.5C 2616.77,984.821 2616.1,986.821 2614.5,988.5C 2615.39,989.59 2616.39,989.59 2617.5,988.5C 2620.54,991.867 2623.54,995.2 2626.5,998.5C 2624.22,997.36 2621.89,996.193 2619.5,995C 2611.65,989.303 2603.98,983.47 2596.5,977.5 Z"/></g>
<g><path style="opacity:0.329" fill="#f5f6ef" d="M 128.5,980.5 C 131.636,983.429 134.303,986.762 136.5,990.5C 134.926,990.063 133.759,989.063 133,987.5C 132.586,987.957 132.086,988.291 131.5,988.5C 130.269,987.349 130.269,986.183 131.5,985C 130.627,983.955 129.627,983.122 128.5,982.5C 128.5,981.833 128.5,981.167 128.5,980.5 Z"/></g>
<g><path style="opacity:0.329" fill="#f5f2eb" d="M 2915.5,976.5 C 2914.96,978.117 2914.63,979.784 2914.5,981.5C 2913.17,981.833 2913.17,982.167 2914.5,982.5C 2916.12,988.727 2914.62,989.727 2910,985.5C 2909.1,985.743 2908.26,986.077 2907.5,986.5C 2909.22,982.388 2911.89,979.055 2915.5,976.5 Z"/></g>
<g><path style="opacity:0.422" fill="#f6f1ea" d="M 2907.5,986.5 C 2907.5,987.833 2907.5,989.167 2907.5,990.5C 2905.06,990.119 2904.39,990.786 2905.5,992.5C 2903.01,993.541 2903.01,994.374 2905.5,995C 2904.38,996.074 2903.38,997.24 2902.5,998.5C 2901.48,997.147 2900.14,996.48 2898.5,996.5C 2898.5,996.167 2898.5,995.833 2898.5,995.5C 2901.28,992.264 2904.28,989.264 2907.5,986.5 Z"/></g>
<g><path style="opacity:0.133" fill="#f7f9f0" d="M 136.5,990.5 C 138.262,991.262 139.262,992.596 139.5,994.5C 138.542,994.047 137.708,993.381 137,992.5C 136.683,994.301 136.016,994.634 135,993.5C 134.761,992.212 135.261,991.212 136.5,990.5 Z"/></g>
<g><path style="opacity:1" fill="#e1656c" d="M 862.5,813.5 C 863.665,874.332 863.832,935.332 863,996.5C 860.214,1003.27 855.38,1007.27 848.5,1008.5C 854.813,1005.69 859.313,1001.02 862,994.5C 862.5,934.168 862.667,873.834 862.5,813.5 Z"/></g>
<g><path style="opacity:0.133" fill="#fafdf0" d="M 133.5,994.5 C 134.833,995.167 134.833,995.167 133.5,994.5 Z"/></g>
<g><path style="opacity:1" fill="#ce4750" d="M 2279.5,992.5 C 2279.85,997.475 2277.85,1001.14 2273.5,1003.5C 2275.77,999.954 2277.77,996.287 2279.5,992.5 Z"/></g>
<g><path style="opacity:1" fill="#cb414a" d="M 2898.5,995.5 C 2898.5,995.833 2898.5,996.167 2898.5,996.5C 2897.6,997.29 2896.93,998.29 2896.5,999.5C 2894.83,1000.83 2893.17,1002.17 2891.5,1003.5C 2892.43,999.571 2894.76,996.905 2898.5,995.5 Z"/></g>
<g><path style="opacity:1" fill="#f7f1e9" d="M 139.5,994.5 C 142.52,996.523 144.854,999.19 146.5,1002.5C 144.404,1002.6 142.237,1002.6 140,1002.5C 139.46,1000.87 139.96,999.532 141.5,998.5C 141.154,997.304 140.654,997.304 140,998.5C 140.355,997.041 140.189,995.707 139.5,994.5 Z"/></g>
<g><path style="opacity:0.565" fill="#f4f3ee" d="M 2898.5,996.5 C 2898.77,998.099 2898.43,999.432 2897.5,1000.5C 2897.5,999.833 2897.17,999.5 2896.5,999.5C 2896.93,998.29 2897.6,997.29 2898.5,996.5 Z"/></g>
<g><path style="opacity:1" fill="#cd444d" d="M 2536.5,996.5 C 2541.11,999.117 2545.45,1002.12 2549.5,1005.5C 2543.91,1004.21 2539.57,1001.21 2536.5,996.5 Z"/></g>
<g><path style="opacity:0.133" fill="#fafdf0" d="M 2906.5,999.5 C 2907.77,1000.08 2907.77,1000.74 2906.5,1001.5C 2905.54,1001.03 2905.54,1000.36 2906.5,999.5 Z"/></g>
<g><path style="opacity:1" fill="#e4686e" d="M 1981.5,819.5 C 1982.33,877.332 1982.83,935.332 1983,993.5C 1985.89,1002.23 1991.72,1007.56 2000.5,1009.5C 1999.74,1010.39 1998.74,1011.06 1997.5,1011.5C 1990.5,1008 1985.34,1002.67 1982,995.5C 1981.5,992.854 1981.34,990.187 1981.5,987.5C 1981.5,931.5 1981.5,875.5 1981.5,819.5 Z"/></g>
<g><path style="opacity:1" fill="#d6525b" d="M 918.5,999.5 C 922.208,1004.52 927.208,1007.52 933.5,1008.5C 933.842,1009.34 934.508,1009.67 935.5,1009.5C 929.41,1010.56 924.244,1008.56 920,1003.5C 919.209,1002.26 918.709,1000.92 918.5,999.5 Z"/></g>
<g><path style="opacity:0.329" fill="#f5f4ed" d="M 2896.5,999.5 C 2897.17,999.5 2897.5,999.833 2897.5,1000.5C 2898.55,1001.22 2899.22,1002.22 2899.5,1003.5C 2898.21,1004.77 2897.21,1004.43 2896.5,1002.5C 2895.16,1004 2893.49,1004.67 2891.5,1004.5C 2891.5,1004.17 2891.5,1003.83 2891.5,1003.5C 2893.17,1002.17 2894.83,1000.83 2896.5,999.5 Z"/></g>
<g><path style="opacity:0.133" fill="#fafdf0" d="M 2899.5,1003.5 C 2900.17,1003.5 2900.5,1003.83 2900.5,1004.5C 2900.17,1004.17 2899.83,1003.83 2899.5,1003.5 Z"/></g>
<g><path style="opacity:1" fill="#ce474f" d="M 2633.5,1003.5 C 2639.13,1004.09 2640.3,1006.42 2637,1010.5C 2636.6,1010.27 2636.43,1009.94 2636.5,1009.5C 2636.54,1006.92 2635.54,1004.92 2633.5,1003.5 Z"/></g>
<g><path style="opacity:0.133" fill="#f9fcf1" d="M 2900.5,1004.5 C 2903.57,1004.96 2904.07,1006.3 2902,1008.5C 2901.25,1007.87 2900.42,1007.37 2899.5,1007C 2900.25,1006.33 2900.59,1005.5 2900.5,1004.5 Z"/></g>
<g><path style="opacity:1" fill="#cd454e" d="M 2273.5,1003.5 C 2271.84,1006.18 2269.51,1008.18 2266.5,1009.5C 2261.68,1010.75 2257.02,1010.75 2252.5,1009.5C 2260.34,1010.13 2267.34,1008.13 2273.5,1003.5 Z"/></g>
<g><path style="opacity:1" fill="#ca4049" d="M 160.5,1017.5 C 157.674,1014.53 154.84,1011.53 152,1008.5C 150.606,1006.61 149.44,1004.61 148.5,1002.5C 148.435,1002.06 148.601,1001.73 149,1001.5C 153.576,1006.32 157.409,1011.66 160.5,1017.5 Z"/></g>
<g><path style="opacity:1" fill="#d34c56" d="M 571.5,1004.5 C 575.695,1007.34 580.362,1009.01 585.5,1009.5C 580.904,1011.05 576.571,1010.22 572.5,1007C 571.748,1006.33 571.414,1005.5 571.5,1004.5 Z"/></g>
<g><path style="opacity:1" fill="#f3d5cf" d="M 1212.5,994.5 C 1212.5,999.167 1212.5,1003.83 1212.5,1008.5C 1210.74,1009.46 1208.74,1009.79 1206.5,1009.5C 1120.83,1009.5 1035.17,1009.5 949.5,1009.5C 944.833,1009.5 940.167,1009.5 935.5,1009.5C 934.508,1009.67 933.842,1009.34 933.5,1008.5C 1026.17,1008.5 1118.83,1008.5 1211.5,1008.5C 1211.18,1003.64 1211.51,998.97 1212.5,994.5 Z"/></g>
<g><path style="opacity:1" fill="#d04b53" d="M 1923.5,1003.5 C 1921.02,1007.65 1917.35,1009.65 1912.5,1009.5C 1916.14,1007.54 1919.81,1005.54 1923.5,1003.5 Z"/></g>
<g><path style="opacity:1" fill="#d83f46" d="M 2549.5,1005.5 C 2551.61,1006.39 2553.61,1007.56 2555.5,1009C 2558.48,1009.5 2561.48,1009.66 2564.5,1009.5C 2562.55,1010.13 2560.72,1011.13 2559,1012.5C 2556.57,1010.25 2553.91,1009.59 2551,1010.5C 2550.39,1008.85 2549.89,1007.18 2549.5,1005.5 Z"/></g>
<g><path style="opacity:1" fill="#db2c37" d="M 593.5,1009.5 C 676.5,1009.5 759.5,1009.5 842.5,1009.5C 839.359,1010.32 836.025,1010.82 832.5,1011C 833.833,1011.33 835.167,1011.67 836.5,1012C 756.353,1012.6 676.353,1012.6 596.5,1012C 595.429,1011.15 594.429,1010.31 593.5,1009.5 Z"/></g>
<g><path style="opacity:1" fill="#dc2b36" d="M 949.5,1009.5 C 1035.17,1009.5 1120.83,1009.5 1206.5,1009.5C 1201.01,1010.27 1195.51,1011.27 1190,1012.5C 1111.15,1012.29 1032.15,1012.29 953,1012.5C 952.167,1012.33 951.333,1012.17 950.5,1012C 951.833,1011.67 953.167,1011.33 954.5,1011C 952.618,1010.8 950.952,1010.3 949.5,1009.5 Z"/></g>
<g><path style="opacity:1" fill="#db2d38" d="M 1639.5,1009.5 C 1654.5,1009.5 1669.5,1009.5 1684.5,1009.5C 1681.89,1010.49 1679.22,1011.49 1676.5,1012.5C 1667.34,1012.4 1658.17,1012.4 1649,1012.5C 1645.46,1012.3 1642.29,1011.3 1639.5,1009.5 Z"/></g>
<g><path style="opacity:1" fill="#dc2c37" d="M 1685.5,1009.5 C 1757.17,1009.5 1828.83,1009.5 1900.5,1009.5C 1898.29,1010.24 1895.95,1011.24 1893.5,1012.5C 1826.35,1012.49 1759.18,1012.49 1692,1012.5C 1690.17,1012.33 1688.33,1012.17 1686.5,1012C 1687.83,1011.67 1689.17,1011.33 1690.5,1011C 1688.62,1010.8 1686.95,1010.3 1685.5,1009.5 Z"/></g>
<g><path style="opacity:1" fill="#dc2c37" d="M 2015.5,1009.5 C 2093.5,1009.5 2171.5,1009.5 2249.5,1009.5C 2248.57,1010.31 2247.57,1011.15 2246.5,1012C 2169.83,1012.67 2093.17,1012.67 2016.5,1012C 2018.17,1011.67 2019.83,1011.33 2021.5,1011C 2019.29,1010.81 2017.29,1010.31 2015.5,1009.5 Z"/></g>
<g><path style="opacity:0.133" fill="#f9fbf1" d="M 2895.5,1009.5 C 2898.96,1009.67 2899.29,1010.67 2896.5,1012.5C 2895.61,1011.68 2895.28,1010.68 2895.5,1009.5 Z"/></g>
<g><path style="opacity:0.133" fill="#fafdf0" d="M 2902.5,1009.5 C 2903.77,1010.08 2903.77,1010.74 2902.5,1011.5C 2901.54,1011.03 2901.54,1010.36 2902.5,1009.5 Z"/></g>
<g><path style="opacity:0.329" fill="#f3f6f0" d="M 2905.5,1009.5 C 2907.46,1009.95 2907.8,1010.95 2906.5,1012.5C 2905.61,1011.68 2905.28,1010.68 2905.5,1009.5 Z"/></g>
<g><path style="opacity:0.133" fill="#fafdf0" d="M 146.5,1010.5 C 145.833,1011.17 145.833,1011.17 146.5,1010.5 Z"/></g>
<g><path style="opacity:0.567" fill="#f6f2ec" d="M 2891.5,1005.5 C 2890.38,1007.82 2890.21,1010.15 2891,1012.5C 2889.3,1013.74 2887.8,1015.07 2886.5,1016.5C 2885.71,1017.61 2885.21,1018.94 2885,1020.5C 2884.4,1018.64 2883.57,1018.31 2882.5,1019.5C 2881.36,1021.05 2880.36,1022.71 2879.5,1024.5C 2878.04,1023.59 2876.7,1023.59 2875.5,1024.5C 2875.56,1023.39 2875.89,1022.39 2876.5,1021.5C 2881.5,1016.17 2886.5,1010.83 2891.5,1005.5 Z"/></g>
<g><path style="opacity:0.329" fill="#f7f5ee" d="M 146.5,1002.5 C 147.167,1002.5 147.833,1002.5 148.5,1002.5C 149.44,1004.61 150.606,1006.61 152,1008.5C 154.84,1011.53 157.674,1014.53 160.5,1017.5C 160.833,1018.17 161.167,1018.83 161.5,1019.5C 163.833,1022.17 166.167,1024.83 168.5,1027.5C 168.5,1027.83 168.5,1028.17 168.5,1028.5C 167.223,1030.91 165.557,1031.08 163.5,1029C 162.939,1027.32 161.939,1025.99 160.5,1025C 160.833,1024.67 161.167,1024.33 161.5,1024C 159.816,1022.26 157.982,1021.09 156,1020.5C 155.002,1017.76 154.335,1015.09 154,1012.5C 152.951,1013.52 151.784,1013.68 150.5,1013C 150.833,1012.67 151.167,1012.33 151.5,1012C 150.451,1011.51 149.451,1011.67 148.5,1012.5C 147.818,1011.76 147.151,1011.09 146.5,1010.5C 146.5,1007.83 146.5,1005.17 146.5,1002.5 Z"/></g>
<g><path style="opacity:0.329" fill="#f7faf1" d="M 2886.5,1016.5 C 2889.44,1015.27 2889.94,1015.94 2888,1018.5C 2887.28,1017.96 2886.78,1017.29 2886.5,1016.5 Z"/></g>
<g><path style="opacity:1" fill="#cc434c" d="M 161.5,1019.5 C 165.664,1020.46 167.998,1023.13 168.5,1027.5C 166.167,1024.83 163.833,1022.17 161.5,1019.5 Z"/></g>
<g><path style="opacity:0.133" fill="#fafdf0" d="M 2882.5,1019.5 C 2883.53,1019.9 2883.69,1020.56 2883,1021.5C 2882.54,1020.91 2882.37,1020.24 2882.5,1019.5 Z"/></g>
<g><path style="opacity:0.133" fill="#fafdf0" d="M 2889.5,1021.5 C 2887.46,1022.48 2887.13,1021.81 2888.5,1019.5C 2889.3,1019.96 2889.63,1020.62 2889.5,1021.5 Z"/></g>
<g><path style="opacity:0.133" fill="#fafdf0" d="M 2889.5,1021.5 C 2891.46,1021.95 2891.8,1022.95 2890.5,1024.5C 2889.61,1023.68 2889.28,1022.68 2889.5,1021.5 Z"/></g>
<g><path style="opacity:0.133" fill="#fafdf0" d="M 154.5,1023.5 C 154.897,1022.47 155.563,1022.31 156.5,1023C 155.906,1023.46 155.239,1023.63 154.5,1023.5 Z"/></g>
<g><path style="opacity:1" fill="#d24e55" d="M 2876.5,1021.5 C 2875.89,1022.39 2875.56,1023.39 2875.5,1024.5C 2875.5,1025.17 2875.17,1025.5 2874.5,1025.5C 2872.47,1026.86 2870.81,1028.53 2869.5,1030.5C 2870.16,1026.16 2872.5,1023.16 2876.5,1021.5 Z"/></g>
<g><path style="opacity:0.133" fill="#fafdf0" d="M 2879.5,1024.5 C 2880.34,1024.84 2880.67,1025.51 2880.5,1026.5C 2879.66,1026.16 2879.33,1025.49 2879.5,1024.5 Z"/></g>
<g><path style="opacity:0.329" fill="#f4f9f1" d="M 153.5,1025.5 C 154.833,1025.5 156.167,1025.5 157.5,1025.5C 157.5,1026.5 157.5,1027.5 157.5,1028.5C 156.127,1028.66 154.793,1028.49 153.5,1028C 152.402,1027.23 152.402,1026.4 153.5,1025.5 Z"/></g>
<g><path style="opacity:0.133" fill="#fafdf0" d="M 2876.5,1025.5 C 2877.53,1025.9 2877.69,1026.56 2877,1027.5C 2876.54,1026.91 2876.37,1026.24 2876.5,1025.5 Z"/></g>
<g><path style="opacity:0.133" fill="#f9fbf1" d="M 2880.5,1026.5 C 2883.88,1025.26 2884.21,1025.93 2881.5,1028.5C 2880.7,1028.04 2880.37,1027.38 2880.5,1026.5 Z"/></g>
<g><path style="opacity:0.329" fill="#f6f3ed" d="M 2874.5,1025.5 C 2874.54,1026.58 2874.87,1027.58 2875.5,1028.5C 2875.04,1029.3 2874.38,1029.63 2873.5,1029.5C 2873.17,1028.17 2872.83,1028.17 2872.5,1029.5C 2871.17,1029.83 2871.17,1030.17 2872.5,1030.5C 2871.98,1032.27 2871.65,1033.94 2871.5,1035.5C 2870.45,1033.07 2869.79,1033.07 2869.5,1035.5C 2868.6,1036.21 2868.26,1037.21 2868.5,1038.5C 2867.17,1038.5 2865.83,1038.5 2864.5,1038.5C 2864.5,1039.5 2864.5,1040.5 2864.5,1041.5C 2863.88,1041.61 2863.38,1041.94 2863,1042.5C 2862.72,1041.58 2862.22,1040.92 2861.5,1040.5C 2864.17,1037.17 2866.83,1033.83 2869.5,1030.5C 2870.81,1028.53 2872.47,1026.86 2874.5,1025.5 Z M 2871.5,1035.5 C 2870.83,1035.5 2870.17,1035.5 2869.5,1035.5C 2869.79,1033.07 2870.45,1033.07 2871.5,1035.5 Z"/></g>
<g><path style="opacity:0.133" fill="#fafdf0" d="M 2872.5,1029.5 C 2872.83,1029.5 2873.17,1029.5 2873.5,1029.5C 2873.31,1030.17 2872.98,1030.17 2872.5,1029.5 Z"/></g>
<g><path style="opacity:0.133" fill="#fafdf0" d="M 167.5,1031.5 C 168.525,1031.9 168.692,1032.56 168,1033.5C 167.536,1032.91 167.369,1032.24 167.5,1031.5 Z"/></g>
<g><path style="opacity:0.329" fill="#f6f9f1" d="M 163.5,1031.5 C 165.972,1032.75 166.139,1034.42 164,1036.5C 162.481,1034.86 162.314,1033.19 163.5,1031.5 Z"/></g>
<g><path style="opacity:0.565" fill="#f6f4ed" d="M 168.5,1028.5 C 170.89,1029.89 172.557,1031.89 173.5,1034.5C 171.14,1033.13 169.473,1031.13 168.5,1028.5 Z"/></g>
<g><path style="opacity:1" fill="#cd434c" d="M 168.5,1028.5 C 168.5,1028.17 168.5,1027.83 168.5,1027.5C 176.835,1034.18 183.835,1042.18 189.5,1051.5C 187.304,1050.16 185.304,1048.5 183.5,1046.5C 183.167,1045.5 182.5,1044.83 181.5,1044.5C 181.262,1042.6 180.262,1041.26 178.5,1040.5C 177.299,1038.09 175.633,1036.09 173.5,1034.5C 172.557,1031.89 170.89,1029.89 168.5,1028.5 Z"/></g>
<g><path style="opacity:0.133" fill="#f8fbf1" d="M 2874.5,1033.5 C 2874.93,1034.95 2874.93,1036.29 2874.5,1037.5C 2873.37,1036.19 2873.37,1034.86 2874.5,1033.5 Z"/></g>
<g><path style="opacity:0.133" fill="#fafdf0" d="M 170.5,1035.5 C 171.833,1036.17 171.833,1036.17 170.5,1035.5 Z"/></g>
<g><path style="opacity:0.133" fill="#fafdf0" d="M 2869.5,1035.5 C 2870.17,1035.5 2870.83,1035.5 2871.5,1035.5C 2870.4,1039.29 2869.74,1039.29 2869.5,1035.5 Z"/></g>
<g><path style="opacity:0.133" fill="#f7f8ef" d="M 173.5,1034.5 C 175.633,1036.09 177.299,1038.09 178.5,1040.5C 176.611,1039.62 174.611,1039.62 172.5,1040.5C 172.36,1038.88 173.027,1037.71 174.5,1037C 173.748,1036.33 173.414,1035.5 173.5,1034.5 Z"/></g>
<g><path style="opacity:0.329" fill="#f1ece8" d="M 2861.5,1040.5 C 2861.66,1041.87 2861.49,1043.21 2861,1044.5C 2860.62,1043.94 2860.12,1043.61 2859.5,1043.5C 2859.43,1041.97 2860.09,1040.97 2861.5,1040.5 Z"/></g>
<g><path style="opacity:0.329" fill="#f5f8f1" d="M 2864.5,1041.5 C 2865.4,1042.6 2866.23,1042.6 2867,1041.5C 2866.53,1045.45 2865.69,1045.45 2864.5,1041.5 Z"/></g>
<g><path style="opacity:0.133" fill="#fafdf0" d="M 171.5,1042.5 C 172.833,1043.17 172.833,1043.17 171.5,1042.5 Z"/></g>
<g><path style="opacity:0.329" fill="#f6f9f1" d="M 2871.5,1041.5 C 2873.46,1041.95 2873.8,1042.95 2872.5,1044.5C 2871.61,1043.68 2871.28,1042.68 2871.5,1041.5 Z"/></g>
<g><path style="opacity:0.565" fill="#f4f2ed" d="M 178.5,1040.5 C 180.262,1041.26 181.262,1042.6 181.5,1044.5C 180.849,1045.09 180.182,1045.76 179.5,1046.5C 178.304,1046.15 178.304,1045.65 179.5,1045C 178.552,1044.52 177.552,1044.35 176.5,1044.5C 176.527,1042.8 177.194,1041.47 178.5,1040.5 Z"/></g>
<g><path style="opacity:0.133" fill="#f6f7f0" d="M 181.5,1044.5 C 182.5,1044.83 183.167,1045.5 183.5,1046.5C 182.167,1046.5 181.5,1045.83 181.5,1044.5 Z"/></g>
<g><path style="opacity:1" fill="#e17d7d" d="M 2859.5,1043.5 C 2858.83,1044.5 2858.17,1045.5 2857.5,1046.5C 2857.17,1046.5 2856.83,1046.5 2856.5,1046.5C 2855.83,1046.83 2855.17,1047.17 2854.5,1047.5C 2855.13,1045 2856.8,1043.67 2859.5,1043.5 Z"/></g>
<g><path style="opacity:0.133" fill="#fafdf0" d="M 179.5,1048.5 C 180.833,1049.17 180.833,1049.17 179.5,1048.5 Z"/></g>
<g><path style="opacity:0.133" fill="#f6f5ee" d="M 2856.5,1046.5 C 2856.83,1047.83 2857.17,1047.83 2857.5,1046.5C 2858.77,1047.19 2858.77,1048.02 2857.5,1049C 2859.41,1049.83 2859.74,1050.99 2858.5,1052.5C 2857.74,1051.19 2856.74,1050.69 2855.5,1051C 2853.14,1052.91 2851.14,1055.08 2849.5,1057.5C 2849.5,1056.83 2849.17,1056.5 2848.5,1056.5C 2850.5,1053.5 2852.5,1050.5 2854.5,1047.5C 2855.17,1047.17 2855.83,1046.83 2856.5,1046.5 Z"/></g>
<g><path style="opacity:0.133" fill="#f9fbf1" d="M 179.5,1051.5 C 181.465,1051.95 181.798,1052.95 180.5,1054.5C 178.481,1053.87 178.147,1052.87 179.5,1051.5 Z"/></g>
<g><path style="opacity:0.329" fill="#f5f6f0" d="M 183.5,1046.5 C 185.304,1048.5 187.304,1050.16 189.5,1051.5C 190.5,1053.5 191.5,1055.5 192.5,1057.5C 191.226,1058.19 191.226,1059.02 192.5,1060C 190.272,1060.82 188.272,1060.49 186.5,1059C 188.439,1058.09 189.439,1056.59 189.5,1054.5C 187.833,1054.5 186.167,1054.5 184.5,1054.5C 184.559,1051.95 183.559,1049.95 181.5,1048.5C 182.243,1047.82 182.909,1047.15 183.5,1046.5 Z"/></g>
<g><path style="opacity:0.133" fill="#fafdf0" d="M 187.5,1055.5 C 188.833,1056.17 188.833,1056.17 187.5,1055.5 Z"/></g>
<g><path style="opacity:0.133" fill="#fafdf0" d="M 2853.5,1057.5 C 2853.9,1056.47 2854.56,1056.31 2855.5,1057C 2854.91,1057.46 2854.24,1057.63 2853.5,1057.5 Z"/></g>
<g><path style="opacity:0.133" fill="#fafdf0" d="M 2857.5,1059.5 C 2857.9,1058.47 2858.56,1058.31 2859.5,1059C 2858.91,1059.46 2858.24,1059.63 2857.5,1059.5 Z"/></g>
<g><path style="opacity:0.329" fill="#f4f2ec" d="M 193.5,1058.5 C 195.89,1059.89 197.557,1061.89 198.5,1064.5C 195.459,1063.8 193.792,1061.8 193.5,1058.5 Z"/></g>
<g><path style="opacity:0.133" fill="#f7f9f0" d="M 198.5,1064.5 C 200.89,1065.89 202.557,1067.89 203.5,1070.5C 201.433,1069.74 199.766,1068.4 198.5,1066.5C 197.571,1067.69 197.238,1069.02 197.5,1070.5C 196.5,1070.5 195.5,1070.5 194.5,1070.5C 194.5,1068.83 194.5,1067.17 194.5,1065.5C 196.099,1065.77 197.432,1065.43 198.5,1064.5 Z"/></g>
<g><path style="opacity:0.133" fill="#fafdf0" d="M 2841.5,1072.5 C 2841.78,1071.71 2842.28,1071.04 2843,1070.5C 2843.53,1071.82 2843.03,1072.48 2841.5,1072.5 Z"/></g>
<g><path style="opacity:0.133" fill="#fafdf0" d="M 199.5,1071.5 C 200.833,1072.17 200.833,1072.17 199.5,1071.5 Z"/></g>
<g><path style="opacity:0.133" fill="#fafdf0" d="M 195.5,1073.5 C 197.76,1074.24 197.927,1075.24 196,1076.5C 194.272,1075.65 194.105,1074.65 195.5,1073.5 Z"/></g>
<g><path style="opacity:0.133" fill="#fafcf1" d="M 2841.5,1072.5 C 2840.62,1075.51 2839.62,1075.84 2838.5,1073.5C 2839.39,1072.89 2840.39,1072.56 2841.5,1072.5 Z"/></g>
<g><path style="opacity:0.133" fill="#fafdf0" d="M 2842.5,1074.5 C 2843.53,1074.9 2843.69,1075.56 2843,1076.5C 2842.54,1075.91 2842.37,1075.24 2842.5,1074.5 Z"/></g>
<g><path style="opacity:0.565" fill="#f4f0eb" d="M 203.5,1070.5 C 205.614,1072.02 207.28,1074.02 208.5,1076.5C 207.178,1076.67 206.011,1076.34 205,1075.5C 204.648,1073.75 204.148,1072.09 203.5,1070.5 Z"/></g>
<g><path style="opacity:1" fill="#f8f4ec" d="M 2848.5,1056.5 C 2849.17,1056.5 2849.5,1056.83 2849.5,1057.5C 2849.24,1059.78 2847.91,1060.94 2845.5,1061C 2844.07,1063.18 2842.4,1065.18 2840.5,1067C 2841.96,1067.42 2842.46,1068.26 2842,1069.5C 2840.31,1069.68 2838.81,1070.18 2837.5,1071C 2838.25,1071.67 2838.59,1072.5 2838.5,1073.5C 2836.74,1075.43 2835.08,1076.76 2833.5,1077.5C 2835.55,1079.39 2835.89,1081.39 2834.5,1083.5C 2834.17,1082.17 2833.83,1082.17 2833.5,1083.5C 2832.06,1083.75 2830.56,1084.09 2829,1084.5C 2828.58,1083.24 2827.75,1082.58 2826.5,1082.5C 2828.09,1079.24 2830.43,1076.57 2833.5,1074.5C 2837.78,1067.89 2842.78,1061.89 2848.5,1056.5 Z"/></g>
<g><path style="opacity:0.773" fill="#f8fbf0" d="M 208.5,1076.5 C 210.89,1077.89 212.557,1079.89 213.5,1082.5C 211.14,1081.13 209.473,1079.13 208.5,1076.5 Z"/></g>
<g><path style="opacity:0.133" fill="#fafdf0" d="M 2833.5,1083.5 C 2833.83,1083.5 2834.17,1083.5 2834.5,1083.5C 2834.31,1084.17 2833.98,1084.17 2833.5,1083.5 Z"/></g>
<g><path style="opacity:0.329" fill="#f6f7ef" d="M 213.5,1082.5 C 215.89,1083.89 217.557,1085.89 218.5,1088.5C 217.542,1088.95 216.708,1089.62 216,1090.5C 215.682,1088.94 214.849,1087.77 213.5,1087C 213.833,1086.67 214.167,1086.33 214.5,1086C 213.5,1085.67 212.5,1085.33 211.5,1085C 212.381,1084.29 213.047,1083.46 213.5,1082.5 Z"/></g>
<g><path style="opacity:1" fill="#f7e8e3" d="M 2826.5,1082.5 C 2826.8,1083.15 2827.14,1083.82 2827.5,1084.5C 2826.37,1085.62 2825.7,1086.96 2825.5,1088.5C 2824.17,1088.5 2823.5,1089.17 2823.5,1090.5C 2822.39,1090.56 2821.39,1090.89 2820.5,1091.5C 2820.17,1090.17 2819.83,1090.17 2819.5,1091.5C 2818.5,1091.41 2817.67,1091.75 2817,1092.5C 2816.6,1096.43 2814.76,1097.43 2811.5,1095.5C 2816.73,1091.62 2821.73,1087.29 2826.5,1082.5 Z"/></g>
<g><path style="opacity:0.133" fill="#fafdf0" d="M 2825.5,1088.5 C 2826.83,1089.17 2826.83,1089.17 2825.5,1088.5 Z"/></g>
<g><path style="opacity:0.133" fill="#fafdf0" d="M 2823.5,1090.5 C 2824.83,1091.17 2824.83,1091.17 2823.5,1090.5 Z"/></g>
<g><path style="opacity:0.133" fill="#fafdf0" d="M 2825.5,1090.5 C 2828,1090.51 2828.17,1091.18 2826,1092.5C 2825.54,1091.91 2825.37,1091.24 2825.5,1090.5 Z"/></g>
<g><path style="opacity:0.133" fill="#fafdf0" d="M 2819.5,1091.5 C 2819.83,1091.5 2820.17,1091.5 2820.5,1091.5C 2820.31,1092.17 2819.98,1092.17 2819.5,1091.5 Z"/></g>
<g><path style="opacity:0.133" fill="#fafdf0" d="M 2818.5,1094.5 C 2817.83,1093.17 2817.83,1093.17 2818.5,1094.5 Z"/></g>
<g><path style="opacity:0.133" fill="#fafdf0" d="M 2818.5,1094.5 C 2819.53,1094.9 2819.69,1095.56 2819,1096.5C 2818.54,1095.91 2818.37,1095.24 2818.5,1094.5 Z"/></g>
<g><path style="opacity:1" fill="#e90d29" d="M 2800.5,1097.5 C 1942.83,1097.67 1085.17,1097.5 227.5,1097C 1083.5,1096.67 1939.5,1096.33 2795.5,1096C 2798.03,1094.91 2800.53,1093.74 2803,1092.5C 2804.17,1093.01 2805,1093.84 2805.5,1095C 2803.69,1095.76 2802.02,1096.59 2800.5,1097.5 Z"/></g>
<g><path style="opacity:0.133" fill="#fafdf0" d="M 2816.5,1096.5 C 2817.53,1096.9 2817.69,1097.56 2817,1098.5C 2816.54,1097.91 2816.37,1097.24 2816.5,1096.5 Z"/></g>
<g><path style="opacity:0.133" fill="#f7f8ef" d="M 2811.5,1095.5 C 2812.94,1097.08 2814.6,1098.58 2816.5,1100C 2811.27,1099.13 2805.93,1098.63 2800.5,1098.5C 2800.5,1098.17 2800.5,1097.83 2800.5,1097.5C 2804.25,1097.25 2807.92,1096.58 2811.5,1095.5 Z"/></g>
<g><path style="opacity:0.329" fill="#f6f9f0" d="M 218.5,1088.5 C 221.645,1091.46 224.312,1094.79 226.5,1098.5C 225.883,1098.39 225.383,1098.06 225,1097.5C 224.632,1098.91 223.799,1099.91 222.5,1100.5C 221.268,1099.86 219.935,1099.69 218.5,1100C 219.833,1099 219.833,1098 218.5,1097C 219.313,1095.69 220.313,1094.52 221.5,1093.5C 220.048,1092.06 219.048,1090.39 218.5,1088.5 Z"/></g>
<g><path style="opacity:0.133" fill="#fafdf0" d="M 2818.5,1098.5 C 2819.83,1099.17 2819.83,1099.17 2818.5,1098.5 Z"/></g>
<g><path style="opacity:0.133" fill="#fafdf0" d="M 226.5,1098.5 C 1084.17,1098.5 1941.83,1098.5 2799.5,1098.5C 2798.74,1099.27 2797.74,1099.77 2796.5,1100C 2368.33,1100.17 1940.17,1100.33 1512,1100.5C 1083.83,1100.33 655.667,1100.17 227.5,1100C 226.944,1099.62 226.611,1099.12 226.5,1098.5 Z"/></g>
<g><path style="opacity:0.133" fill="#f9fbf1" d="M 225.5,1106.5 C 227.337,1106.64 227.67,1107.31 226.5,1108.5C 225.702,1108.04 225.369,1107.38 225.5,1106.5 Z"/></g>
</svg>
