<?xml version="1.0" encoding="UTF-8"?>
<!DOCTYPE svg PUBLIC "-//W3C//DTD SVG 1.1//EN" "http://www.w3.org/Graphics/SVG/1.1/DTD/svg11.dtd">
<svg xmlns="http://www.w3.org/2000/svg" version="1.1" width="2249px" height="658px" style="shape-rendering:geometricPrecision; text-rendering:geometricPrecision; image-rendering:optimizeQuality; fill-rule:evenodd; clip-rule:evenodd" xmlns:xlink="http://www.w3.org/1999/xlink">
<g><path style="opacity:0.995" fill="#ec1c23" d="M 168.5,657.5 C 142.5,657.5 116.5,657.5 90.5,657.5C 51.7119,653.555 26.5452,632.888 15,595.5C 12.143,585.358 10.4763,575.025 10,564.5C 9.33333,507.5 9.33333,450.5 10,393.5C 62.7617,392.503 115.595,392.169 168.5,392.5C 168.788,411.019 168.455,429.519 167.5,448C 169.214,478.381 185.214,495.047 215.5,498C 293.5,498.667 371.5,498.667 449.5,498C 463.682,495.48 471.182,486.98 472,472.5C 472.5,316.834 472.667,161.167 472.5,5.5C 524.833,5.5 577.167,5.5 629.5,5.5C 629.537,180.835 629.703,356.168 630,531.5C 626.871,561.223 617.205,588.556 601,613.5C 583.461,638.024 559.628,651.858 529.5,655C 408.829,654.835 288.496,655.668 168.5,657.5 Z"/></g>
<g><path style="opacity:0.995" fill="#ec1c23" d="M 2248.5,149.5 C 2248.5,187.167 2248.5,224.833 2248.5,262.5C 2191.5,262.5 2134.5,262.5 2077.5,262.5C 2077.87,243.469 2077.37,224.469 2076,205.5C 2072.42,192.259 2063.92,184.092 2050.5,181C 1963.16,180.603 1875.82,180.436 1788.5,180.5C 1768.83,180.995 1757.33,190.995 1754,210.5C 1752.86,252.313 1752.36,294.146 1752.5,336C 1752.35,376.861 1752.85,417.694 1754,458.5C 1756.14,470.29 1762.98,477.79 1774.5,481C 1867.5,481.667 1960.5,481.667 2053.5,481C 2065.83,477.881 2073.33,470.048 2076,457.5C 2077.4,439.204 2077.9,420.871 2077.5,402.5C 2134.5,402.5 2191.5,402.5 2248.5,402.5C 2248.5,438.5 2248.5,474.5 2248.5,510.5C 2241.98,552.715 2222.98,588.215 2191.5,617C 2162.46,639.461 2129.46,651.461 2092.5,653C 1973.16,653.192 1853.83,653.692 1734.5,654.5C 1646.88,650.72 1596.72,605.387 1584,518.5C 1583.17,511.516 1582.5,504.516 1582,497.5C 1581.8,387.33 1581.3,277.163 1580.5,167C 1579.86,124.92 1592.36,87.4203 1618,54.5C 1646,25.9285 1680.16,11.0952 1720.5,10C 1848.5,9.8155 1976.5,9.3155 2104.5,8.5C 2139.93,8.14336 2171.6,18.6434 2199.5,40C 2222.11,60.3627 2236.61,85.5293 2243,115.5C 2245.36,126.896 2247.2,138.23 2248.5,149.5 Z"/></g>
<g><path style="opacity:0.997" fill="#ec1c23" d="M 701.5,12.5 C 784.169,12.1667 866.836,12.5 949.5,13.5C 1003.33,129.833 1057.17,246.167 1111,362.5C 1165.96,246.076 1220.8,129.576 1275.5,13C 1356.17,12.5 1436.83,12.3333 1517.5,12.5C 1517.5,226.167 1517.5,439.833 1517.5,653.5C 1458.83,653.5 1400.17,653.5 1341.5,653.5C 1341.67,536.833 1341.5,420.166 1341,303.5C 1286.56,415.378 1232.39,527.378 1178.5,639.5C 1129.5,640.833 1080.5,640.833 1031.5,639.5C 980.333,525.167 929.167,410.833 878,296.5C 877.5,415.5 877.333,534.5 877.5,653.5C 818.833,653.5 760.167,653.5 701.5,653.5C 701.5,439.833 701.5,226.167 701.5,12.5 Z"/></g>
</svg>
