<?xml version="1.0" encoding="UTF-8"?>
<!DOCTYPE svg PUBLIC "-//W3C//DTD SVG 1.1//EN" "http://www.w3.org/Graphics/SVG/1.1/DTD/svg11.dtd">
<svg xmlns="http://www.w3.org/2000/svg" version="1.1" width="3840px" height="2159px" style="shape-rendering:geometricPrecision; text-rendering:geometricPrecision; image-rendering:optimizeQuality; fill-rule:evenodd; clip-rule:evenodd" xmlns:xlink="http://www.w3.org/1999/xlink">
<g><path style="opacity:0.974" fill="#221814" d="M 99.5,844.5 C 159.168,844.333 218.834,844.5 278.5,845C 416.733,880.045 554.9,915.212 693,950.5C 831.147,915.287 968.98,880.121 1106.5,845C 1166.5,844.167 1226.5,844.333 1286.5,845.5C 1180.85,903.659 1074.85,961.326 968.5,1018.5C 968.167,1018.83 967.833,1019.17 967.5,1019.5C 968.167,1019.83 968.833,1020.17 969.5,1020.5C 998.179,1027.51 1026.85,1034.51 1055.5,1041.5C 1055.65,1042.55 1055.48,1043.55 1055,1044.5C 934.392,1132.55 813.559,1220.21 692.5,1307.5C 571.325,1219.75 450.325,1131.75 329.5,1043.5C 358.708,1034.61 388.375,1026.78 418.5,1020C 318.89,965.396 219.223,911.396 119.5,858C 113.314,854.332 106.98,850.832 100.5,847.5C 99.6143,846.675 99.281,845.675 99.5,844.5 Z M 221.5,873.5 C 249.33,872.336 277.33,872.17 305.5,873C 434.173,912.6 563.173,952.1 692.5,991.5C 820.902,952.524 948.902,913.357 1076.5,874C 1105.45,872.366 1134.45,872.033 1163.5,873C 1040.38,922.54 917.38,972.373 794.5,1022.5C 829.208,1033.34 863.875,1044.17 898.5,1055C 829.96,1092.37 761.293,1129.53 692.5,1166.5C 624.167,1129.33 555.833,1092.17 487.5,1055C 521.89,1044.26 556.223,1033.43 590.5,1022.5C 590.167,1022.17 589.833,1021.83 589.5,1021.5C 467.057,971.612 344.391,922.279 221.5,873.5 Z"/></g>
<g><path style="opacity:0.983" fill="#221814" d="M 1388.5,947.5 C 1420.17,947.5 1451.83,947.5 1483.5,947.5C 1483.33,1022.5 1483.5,1097.5 1484,1172.5C 1587.57,1097.3 1691.4,1022.47 1795.5,948C 1847.83,947.333 1900.17,947.333 1952.5,948C 1919.08,999.521 1885.41,1050.85 1851.5,1102C 1851.76,1103.26 1852.43,1104.26 1853.5,1105C 1916.89,1150.02 1979.89,1195.52 2042.5,1241.5C 1995.17,1242.67 1947.84,1242.83 1900.5,1242C 1851.68,1206.42 1802.68,1171.09 1753.5,1136C 1787.45,1093.04 1821.79,1050.38 1856.5,1008C 1747.4,1085.06 1638.73,1163.06 1530.5,1242C 1483.17,1242.5 1435.83,1242.67 1388.5,1242.5C 1388.5,1144.17 1388.5,1045.83 1388.5,947.5 Z"/></g>
<g><path style="opacity:0.984" fill="#221814" d="M 2404.5,947.5 C 2454.5,947.333 2504.5,947.5 2554.5,948C 2643.54,1045.72 2733.37,1142.88 2824,1239.5C 2824.48,1240.45 2824.65,1241.45 2824.5,1242.5C 2782.41,1242.99 2740.41,1242.49 2698.5,1241C 2623.27,1164.52 2548.1,1087.68 2473,1010.5C 2401.83,1087.67 2330.67,1164.83 2259.5,1242C 2212.17,1242.67 2164.83,1242.67 2117.5,1242C 2213.17,1143.5 2308.84,1045.33 2404.5,947.5 Z"/></g>
<g><path style="opacity:0.978" fill="#221814" d="M 2899.5,947.5 C 2931.5,947.5 2963.5,947.5 2995.5,947.5C 2995.67,1045.5 2995.5,1143.5 2995,1241.5C 2979.24,1242.16 2963.41,1242.5 2947.5,1242.5C 2931.59,1242.5 2915.76,1242.16 2900,1241.5C 2899.5,1143.5 2899.33,1045.5 2899.5,947.5 Z"/></g>
<g><path style="opacity:0.981" fill="#221814" d="M 3091.5,948.5 C 3138.66,947.335 3186,947.168 3233.5,948C 3282.68,983.088 3331.68,1018.42 3380.5,1054C 3347,1095.5 3313.5,1137 3280,1178.5C 3279.31,1179.33 3279.48,1180 3280.5,1180.5C 3388.17,1103 3495.83,1025.5 3603.5,948C 3650.83,947.333 3698.17,947.333 3745.5,948C 3744.31,949.353 3742.98,950.52 3741.5,951.5C 3740.5,1048.5 3740.17,1145.5 3740.5,1242.5C 3708.59,1242.83 3676.76,1242.5 3645,1241.5C 3644.67,1168.17 3644.33,1094.83 3644,1021.5C 3542.08,1094.88 3440.24,1168.38 3338.5,1242C 3286.5,1242.5 3234.5,1242.67 3182.5,1242.5C 3182.49,1240.69 3182.99,1239.02 3184,1237.5C 3217.04,1187.25 3250.21,1137.08 3283.5,1087C 3219.34,1041 3155.34,994.836 3091.5,948.5 Z"/></g>
</svg>
