<?xml version="1.0" encoding="UTF-8"?>
<!DOCTYPE svg PUBLIC "-//W3C//DTD SVG 1.1//EN" "http://www.w3.org/Graphics/SVG/1.1/DTD/svg11.dtd">
<svg xmlns="http://www.w3.org/2000/svg" version="1.1" width="3840px" height="2160px" style="shape-rendering:geometricPrecision; text-rendering:geometricPrecision; image-rendering:optimizeQuality; fill-rule:evenodd; clip-rule:evenodd" xmlns:xlink="http://www.w3.org/1999/xlink">
<g><path style="opacity:0.997" fill="#000000" d="M 1906.5,56.5 C 1913.62,55.8954 1920.45,56.562 1927,58.5C 1928,58.1667 1929,57.8333 1930,57.5C 1936.32,59.8219 1941.98,63.1552 1947,67.5C 1947.33,67.1667 1947.67,66.8333 1948,66.5C 2031.75,117.087 2115.58,166.587 2199.5,215C 2389.17,327.059 2577.83,438.059 2765.5,548C 2777.16,555.935 2784.33,566.435 2787,579.5C 2787.67,910.167 2787.67,1240.83 2787,1571.5C 2784.55,1582.66 2778.72,1591.82 2769.5,1599C 2608.99,1693.31 2448.16,1788.15 2287,1883.5C 2286.67,1883.17 2286.33,1882.83 2286,1882.5C 2283.21,1884.8 2280.37,1886.97 2277.5,1889C 2265.84,1894.99 2255,1892.49 2245,1881.5C 2244.2,1878.78 2243.04,1876.28 2241.5,1874C 2241.94,1716.88 2241.94,1559.88 2241.5,1403C 2243.41,1396.67 2246.91,1391.5 2252,1387.5C 2252.33,1387.83 2252.67,1388.17 2253,1388.5C 2259.64,1383.34 2266.64,1378.68 2274,1374.5C 2277.45,1373.84 2280.62,1372.01 2283.5,1369C 2340.37,1336.15 2396.04,1303.48 2450.5,1271C 2453.04,1268.8 2455.21,1266.3 2457,1263.5C 2457.71,1259.44 2458.88,1255.6 2460.5,1252C 2459.67,1090.57 2459.17,929.07 2459,767.5C 2457.86,760.024 2454.53,753.691 2449,748.5C 2448.67,748.833 2448.33,749.167 2448,749.5C 2334.07,682.085 2220.41,615.085 2107,548.5C 2103.27,548.745 2099.44,548.745 2095.5,548.5C 2092.91,550.38 2090.41,552.38 2088,554.5C 2087.67,554.167 2087.33,553.833 2087,553.5C 2086.16,555.844 2084.83,557.844 2083,559.5C 2082.18,561.788 2081.51,564.122 2081,566.5C 2080.83,1045.83 2080.33,1525.17 2079.5,2004.5C 2030.27,2034.41 1980.1,2063.75 1929,2092.5C 1912.57,2096 1897.91,2092.66 1885,2082.5C 1841.4,2057.63 1797.4,2031.63 1753,2004.5C 1752.33,1384.5 1752.33,764.5 1753,144.5C 1796.24,118.723 1839.4,93.556 1882.5,69C 1888.49,64.5415 1895.33,60.7082 1903,57.5C 1904,57.8333 1905,58.1667 1906,58.5C 1906.46,57.9056 1906.63,57.2389 1906.5,56.5 Z"/></g>
<g><path style="opacity:0.998" fill="#000000" d="M 1342.5,386.5 C 1349.04,385.989 1355.38,386.822 1361.5,389C 1366.62,392.766 1370.12,397.599 1372,403.5C 1372.33,688.167 1372.67,972.833 1373,1257.5C 1375.49,1265.96 1380.49,1271.63 1388,1274.5C 1390.72,1277.35 1393.72,1279.02 1397,1279.5C 1419.84,1294.06 1442.5,1307.39 1465,1319.5C 1503.38,1343.41 1541.88,1366.24 1580.5,1388C 1583.7,1390.87 1586.54,1394.04 1589,1397.5C 1590.66,1556.8 1590.99,1716.13 1590,1875.5C 1586.14,1884.03 1579.81,1889.7 1571,1892.5C 1568.33,1892.5 1565.67,1892.5 1563,1892.5C 1529.56,1874.61 1497.06,1855.77 1465.5,1836C 1376.1,1784.12 1286.77,1731.46 1197.5,1678C 1150.09,1651.35 1103.42,1623.85 1057.5,1595.5C 1057.65,1594.45 1057.48,1593.45 1057,1592.5C 1051.25,1586.92 1047.42,1580.26 1045.5,1572.5C 1044.17,1240.83 1044.17,909.167 1045.5,577.5C 1047.47,569.714 1051.3,563.047 1057,557.5C 1057.48,556.552 1057.65,555.552 1057.5,554.5C 1152.02,497.738 1247.02,441.738 1342.5,386.5 Z"/></g>
</svg>
