<?xml version="1.0" encoding="utf-8"?>
<!-- Generator: Adobe Illustrator 27.6.1, SVG Export Plug-In . SVG Version: 6.00 Build 0)  -->
<svg version="1.1" id="Ebene_1" xmlns="http://www.w3.org/2000/svg" xmlns:xlink="http://www.w3.org/1999/xlink" x="0px" y="0px"
	 viewBox="0 0 165.4 117.7" style="enable-background:new 0 0 165.4 117.7;" xml:space="preserve">
<style type="text/css">
	.st0{fill:#00275E;}
</style>
<g>
	<g>
		<polygon class="st0" points="78.3,104.7 85.1,98.6 91.8,104.7 98.3,104.7 89.7,97.2 98.1,90.3 91.8,90.3 85.1,95.7 78.3,90.3 
			72,90.3 80.4,97.2 71.8,104.7 		"/>
		<path class="st0" d="M35.8,90.4h-8.4c-1.2,0-2.3,0.6-2.9,1.5c-0.6-0.9-1.7-1.5-3-1.5H9.5v14.4H15V94.2c0-0.5,0.4-0.9,1-0.9h4.8
			c0.6,0,1,0.4,1,0.9v10.6h4.9V94.2c0-0.5,0.5-0.9,1-0.9h4.8c0.6,0,1.1,0.4,1.1,0.9v10.6h5.5V93.5C39.2,91.8,37.7,90.4,35.8,90.4"/>
		<path class="st0" d="M121,100.9c0,0.5-0.5,1-1,1h-11.8c-0.6,0-1.1-0.4-1.1-1V90.4h-6v11.3c0,1.7,1.6,3.1,3.5,3.1h19.1
			c1.9,0,3.5-1.4,3.5-3.1V90.4h-6V100.9z"/>
		<path class="st0" d="M137.9,93.3h18v-2.9H134c-1.9,0-3.4,1.4-3.4,3.1v2.1c0,1.7,1.5,3.1,3.4,3.1h14.5c0.8,0,1.4,0.6,1.4,1.3v0.3
			c0,0.7-0.6,1.3-1.4,1.3h-18.1v2.9h22c1.9,0,3.5-1.4,3.5-3.1v-2.4c0-1.7-1.6-3.1-3.5-3.1h-14.4c-0.8,0-1.4-0.6-1.4-1.2v0v-0.1v0
			C136.5,93.8,137.1,93.3,137.9,93.3"/>
		<path class="st0" d="M63,104.7h6.1V93.4c0-1.7-1.5-3.1-3.5-3.1H46.4c-1.9,0-3.4,1.4-3.4,3.1v11.3h6.1v-5.6h14V104.7z M49.1,96.2
			v-2c0-0.5,0.5-0.9,1.1-0.9H62c0.6,0,1,0.4,1,0.9v2H49.1z"/>
	</g>
	<path class="st0" d="M82.7,12.9c-27.7,0-50.1,12.9-50.1,30.5c0,17.1,22.4,31.3,50.1,31.3s50.1-14.3,50.1-31.3
		C132.9,25.9,110.4,12.9,82.7,12.9 M82.7,31.3c0.3,0,0.5,0.1,0.7,0.2c7.3,4.9,12,9.1,14.7,11.8c0.1,0.1,0.2,0.3,0.2,0.4
		c0,0.1,0,0.2-0.2,0.4c-2.7,2.3-7.4,5.9-14.7,9.9c-0.2,0.1-0.5,0.2-0.8,0.2c-0.3,0-0.5-0.1-0.8-0.2c-7.3-4-12-7.6-14.7-9.9
		c-0.2-0.1-0.2-0.3-0.2-0.4c0-0.1,0-0.3,0.2-0.4c2.7-2.7,7.5-6.9,14.7-11.8C82.2,31.4,82.5,31.3,82.7,31.3 M39.6,43.5
		c0-3.5,1.1-6.9,3.3-10.1c2.1-3.1,5.2-5.8,9.1-8.1c8-4.8,18.9-7.4,30.6-7.4l-0.6,0.5c-6,4.7-19,15.7-38,36.8
		C41.1,51.6,39.6,47.6,39.6,43.5 M115.8,60.5c-8.2,6-20.3,9.4-33.1,9.4s-24.8-3.4-33.1-9.4c0,0,0,0,0-0.1c0,0,0-0.1,0-0.1
		c2.2-2.5,6.7-7.3,11.4-11.1c0.1-0.1,0.2-0.1,0.4-0.1c0.1,0,0.2,0,0.3,0.1c2.6,1.5,4.6,2.8,6.6,4.1c3.3,2.1,6.6,4.2,12.8,7.6
		c0.5,0.3,1,0.4,1.5,0.4s1-0.1,1.5-0.4c6.2-3.4,9.6-5.5,12.8-7.6c2.1-1.3,4-2.6,6.6-4.1c0.1-0.1,0.2-0.1,0.3-0.1
		c0.1,0,0.3,0,0.4,0.1c4.7,3.8,9.1,8.6,11.4,11.1C115.8,60.4,115.8,60.4,115.8,60.5C115.8,60.4,115.8,60.5,115.8,60.5 M121.4,55.2
		c-19-21-32-32.1-38-36.8l-0.6-0.5c11.7,0,22.6,2.6,30.6,7.4c3.9,2.3,7,5.1,9.1,8.1c2.2,3.1,3.3,6.5,3.3,10.1
		C125.8,47.6,124.3,51.6,121.4,55.2"/>
</g>
</svg>
