<svg xmlns="http://www.w3.org/2000/svg" viewBox="0 0 318.63 278.99"><title>Opel Automobile logo</title><path d="M671.5,627.13v-8.38H645.65V585.21h-9.78v42.62H671.5Zm-129.27,0h36.33v-8.38H552v-9.08h24.46V602H552v-8.38h26.55v-8.38H542.23Zm-79.66-21V592.89h14c2.1,0,3.49,0,4.89.7s2.1,1.4,2.1,2.1c.7.7.7,2.1.7,3.49,0,2.1-.7,4.19-2.1,4.89a13.16,13.16,0,0,1-5.59,1.4h-14Zm-9.78-21v42.62h9.78V614.56h14.67c5.59,0,9.78-1.4,12.58-3.49s4.19-6.29,4.19-11.18c0-3.49-.7-7-2.1-9.08a13,13,0,0,0-5.59-4.89,31,31,0,0,0-9.08-1.4H452.79ZM369.64,618a9.39,9.39,0,0,1-4.89-4.19,21.57,21.57,0,0,1-1.4-7.69,25.12,25.12,0,0,1,1.4-7.69,6.3,6.3,0,0,1,4.19-4.19,26.06,26.06,0,0,1,8.38-1.4,31,31,0,0,1,9.08,1.4,6.3,6.3,0,0,1,4.19,4.19,21.84,21.84,0,0,1,0,15.37c-.7,2.1-2.1,3.49-4.89,4.19-.7,1.4-4.19,1.4-7.69,1.4s-6.29,0-8.38-1.4M392,625.74a17.78,17.78,0,0,0,8.38-7.69c2.1-3.49,2.79-7.69,2.79-12.58s-.7-9.08-2.79-12.58a18.06,18.06,0,0,0-8.38-7.69c-3.49-1.4-8.38-2.1-14-2.1s-10.48.7-14,2.1a17.78,17.78,0,0,0-8.38,7.69c-2.1,3.49-2.79,7.69-2.79,12.58s.7,9.08,2.79,12.58a18.06,18.06,0,0,0,8.38,7.69c3.49,1.4,8.38,2.1,14,2.1a28.13,28.13,0,0,0,14-2.1" transform="translate(-352.87 -349.03)" style="fill:#1d1d1b"/><path d="M632.37,454.54l-23.06-1.4h-2.8v-7.69A96.62,96.62,0,0,0,510.09,349c-45.42,0-83.85,32.14-93.63,74.77h-21a3.63,3.63,0,0,0-2.79,1.4l-5.59,7.69a2.44,2.44,0,0,0-.7,1.4,2.23,2.23,0,0,0,2.1,2.1l23.06,1.4h2.79v7.69a96.62,96.62,0,0,0,96.43,96.43c45.42,0,83.85-32.14,93.63-74.77h21a3.63,3.63,0,0,0,2.79-1.4l5.59-7.69a2.44,2.44,0,0,0,.7-1.4A1.85,1.85,0,0,0,632.37,454.54Zm-121.58-95c46.82,0,85.25,38.43,85.25,85.25v7h0l-71.27-4.19,30.74-21c.7,0,.7-.7.7-1.4a1.5,1.5,0,0,0-1.4-1.4H429A84,84,0,0,1,510.79,359.51Zm0,170.49c-46.82,0-85.25-38.43-85.25-85.25v-7L496.81,442l-30.74,21c-.7,0-.7.7-.7,1.4a1.5,1.5,0,0,0,1.4,1.4H592.54C583.46,502.76,549.92,530,510.79,530Z" transform="translate(-352.87 -349.03)" style="fill:#1d1d1b"/></svg>