<?xml version="1.0" encoding="utf-8"?>
<!-- Generator: Adobe Illustrator 27.3.1, SVG Export Plug-In . SVG Version: 6.00 Build 0)  -->
<svg version="1.1" id="Layer_1" xmlns="http://www.w3.org/2000/svg" xmlns:xlink="http://www.w3.org/1999/xlink" x="0px" y="0px"
	 viewBox="0 0 1080 1080" style="enable-background:new 0 0 1080 1080;" xml:space="preserve">
<style type="text/css">
	.st0{fill:url(#SVGID_1_);}
	.st1{fill:#EB382E;}
	.st2{fill:url(#SVGID_00000095329120229594821420000005806502703604681136_);}
	.st3{fill:url(#SVGID_00000008121768192415184970000013184454519303345315_);}
	.st4{fill:#FFFFFF;}
	.st5{fill:url(#SVGID_00000064353539164743451230000017823432044774272140_);}
	.st6{fill:url(#SVGID_00000052093625471195458930000015936730965238816130_);}
	.st7{fill:url(#SVGID_00000137130646867128674120000010533197714082133656_);}
	.st8{fill:url(#SVGID_00000089547018407485711560000010883232859132133032_);}
	.st9{fill:url(#SVGID_00000065050012313324702750000005857762926862827173_);}
	.st10{fill:url(#SVGID_00000041256998663737061240000012591873598283199903_);}
	.st11{fill:url(#SVGID_00000166643838224310761820000001120617278314666428_);}
	.st12{fill:url(#SVGID_00000041987875069565203950000015353542054061467549_);}
	.st13{fill:url(#SVGID_00000165918316811995254910000002217754101137666739_);}
	.st14{fill:url(#SVGID_00000167367855640284034540000007264915154429726652_);}
	.st15{fill:url(#SVGID_00000072243998724924081430000008768699241755025552_);}
	.st16{fill:url(#SVGID_00000091717360641787237610000005298103530063695803_);}
	.st17{fill:url(#SVGID_00000067926718700424403330000002656297050588778418_);}
	.st18{fill:url(#SVGID_00000131354234357441785540000007389162954876312736_);}
	.st19{fill:url(#SVGID_00000119803121382010046390000013237847939472998277_);}
	.st20{fill:url(#SVGID_00000046312489707669642700000014156362120049022123_);}
	.st21{fill:url(#SVGID_00000080886973739314574160000012529910403391475596_);}
	.st22{fill:url(#SVGID_00000070812991827461653590000007245879613131807372_);}
	.st23{fill:url(#SVGID_00000018920978440563103240000013668180345238015630_);}
	.st24{fill:url(#SVGID_00000134931172653254675950000003930408832622172053_);}
	.st25{fill:url(#SVGID_00000170975823250438754120000001101759107584084642_);}
	.st26{fill:url(#SVGID_00000129186045766629178710000001734109268563580059_);}
</style>
<linearGradient id="SVGID_1_" gradientUnits="userSpaceOnUse" x1="448.9866" y1="474.5598" x2="685.6797" y2="474.5598">
	<stop  offset="0" style="stop-color:#7ECAB6"/>
	<stop  offset="1" style="stop-color:#15818E"/>
</linearGradient>
<path class="st0" d="M590.24,608.12c-15.81,0-31.01,0-46.8,0c0-6.1,0.07-11.91-0.01-17.72c-0.15-11.27-6.34-17.43-17.65-17.54
	c-7.94-0.08-15.88-0.1-23.82,0.01c-10.37,0.15-16.51,6.12-16.88,16.53c-0.22,6.01-0.04,12.04-0.04,18.54c-12.03,0-23.81,0-36.06,0
	c0-88.8,0-177.69,0-266.95c78.82,0,157.54,0,236.69,0c0,88.91,0,177.81,0,267.07c-12.15,0-24.13,0-36.88,0
	c0-5.76,0.07-11.37-0.01-16.98c-0.19-12.11-6.2-18.14-18.17-18.22c-7.75-0.05-15.5-0.09-23.25,0.01
	c-10.57,0.15-16.8,6.32-17.1,16.98C590.1,595.85,590.24,601.85,590.24,608.12z"/>
<path class="st1" d="M567.89,804.09c45.92,0,91.84,0,137.75,0c11.98,0,14.71,2.73,14.72,14.6c0.01,17.27-1.34,18.62-18.71,18.62
	c-90.89,0-181.78,0-272.67,0c-11.87,0-14.7-2.83-14.71-14.67c-0.01-17.29,1.26-18.55,18.7-18.55
	C477.94,804.08,522.92,804.08,567.89,804.09z"/>
<path class="st1" d="M501.07,589.03c9.1,0,17.36,0,26.37,0c0,22.49,0,44.85,0,67.52c26.53,0,52.31,0,78.64,0
	c0-22.42,0-44.62,0-67.28c9.06,0,17.59,0,26.52,0c0.1,1.97,0.27,3.81,0.29,5.66c0.14,22.49,0.28,44.98,0.36,67.47
	c0.05,14.1-7.52,21.66-21.7,21.68c-29.48,0.03-58.97,0.04-88.45,0c-13.7-0.02-21.43-7.74-21.54-21.4
	c-0.18-22.68-0.32-45.36-0.48-68.04C501.06,592.95,501.07,591.27,501.07,589.03z"/>
<linearGradient id="SVGID_00000088840745130864336390000004435629712572368568_" gradientUnits="userSpaceOnUse" x1="448.3994" y1="309.7675" x2="686.1126" y2="309.7675">
	<stop  offset="0" style="stop-color:#7ECAB6"/>
	<stop  offset="1" style="stop-color:#15818E"/>
</linearGradient>
<path style="fill:url(#SVGID_00000088840745130864336390000004435629712572368568_);" d="M686.11,329.06c-79.49,0-158.08,0-236.65,0
	c-5.53-26.2,11.5-38.73,28.82-38.59c58.58,0.49,117.18,0.19,175.77,0.19c22.15,0,32.12,10.03,32.06,32.27
	C686.11,324.78,686.11,326.63,686.11,329.06z M589.58,318.77c9.62,0,19.25,0.08,28.87-0.03c6.61-0.08,10.8-3.65,10.95-8.99
	c0.15-5.62-4.02-9.17-11.12-9.19c-19.25-0.05-38.49-0.05-57.74,0c-6.79,0.02-10.81,3.37-10.93,8.8c-0.12,5.58,4.16,9.32,11.1,9.39
	C570.34,318.84,579.96,318.77,589.58,318.77z M528.59,321.4c6.65,0.07,11.93-4.97,12.11-11.57c0.18-6.68-5.4-12.37-12.07-12.29
	c-6.47,0.07-11.83,5.49-11.84,11.97C516.77,316.08,521.98,321.33,528.59,321.4z"/>
<path class="st1" d="M688.03,787.88c-80.7,0-160.77,0-241.51,0c0.72-1.47,1.09-2.64,1.78-3.57c13.26-17.91,30.74-28.53,53.28-28.7
	c44.21-0.34,88.43-0.42,132.64,0.09c22.81,0.26,40.1,11.73,53.14,30.02C687.66,786.12,687.69,786.73,688.03,787.88z"/>
<path class="st1" d="M606.73,739.13c-26.54,0-52.51,0-78.82,0c0-14.89,0-29.5,0-44.45c26.24,0,52.36,0,78.82,0
	C606.73,709.43,606.73,724.05,606.73,739.13z"/>
<linearGradient id="SVGID_00000150820516553984519820000007826044534020051343_" gradientUnits="userSpaceOnUse" x1="415.8707" y1="474.5493" x2="436.8343" y2="474.5493">
	<stop  offset="0" style="stop-color:#7ECAB6"/>
	<stop  offset="1" style="stop-color:#15818E"/>
</linearGradient>
<path style="fill:url(#SVGID_00000150820516553984519820000007826044534020051343_);" d="M436.83,392c0,55.27,0,110.2,0,165.51
	c-4.39,0-8.53,0.37-12.58-0.1c-4.91-0.57-7.64-3.81-8.08-8.77c-0.19-2.06-0.15-4.15-0.15-6.23c-0.01-44.22,0.28-88.44-0.15-132.66
	C415.71,392.16,419.5,390.17,436.83,392z"/>
<linearGradient id="SVGID_00000040543596891636056320000009249928372370478527_" gradientUnits="userSpaceOnUse" x1="697.8049" y1="474.59" x2="718.7903" y2="474.59">
	<stop  offset="0" style="stop-color:#7ECAB6"/>
	<stop  offset="1" style="stop-color:#15818E"/>
</linearGradient>
<path style="fill:url(#SVGID_00000040543596891636056320000009249928372370478527_);" d="M697.8,557.09c0-54.89,0-109.82,0-165.4
	c4.46,0,9.22-0.98,13.25,0.33c2.94,0.96,5.35,4.65,7.15,7.64c1.02,1.7,0.41,4.42,0.41,6.69c0.01,44.79-0.22,89.58,0.15,134.36
	C718.87,554.59,716.78,559.95,697.8,557.09z"/>
<linearGradient id="SVGID_00000061469892588558957950000008823539709572568982_" gradientUnits="userSpaceOnUse" x1="448.5483" y1="639.3474" x2="485.1234" y2="639.3474">
	<stop  offset="0" style="stop-color:#7ECAB6"/>
	<stop  offset="1" style="stop-color:#15818E"/>
</linearGradient>
<path style="fill:url(#SVGID_00000061469892588558957950000008823539709572568982_);" d="M485.12,657.86
	c-25.43,3.7-39.37-10.69-36.11-37.6c11.83,0,23.73,0,36.11,0C485.12,632.74,485.12,645.09,485.12,657.86z"/>
<linearGradient id="SVGID_00000096737948356963129530000004474520178992976552_" gradientUnits="userSpaceOnUse" x1="649.3904" y1="639.3293" x2="686.2038" y2="639.3293">
	<stop  offset="0" style="stop-color:#7ECAB6"/>
	<stop  offset="1" style="stop-color:#15818E"/>
</linearGradient>
<path style="fill:url(#SVGID_00000096737948356963129530000004474520178992976552_);" d="M649.39,657.69c0-12.3,0-24.68,0-37.49
	c11.88,0,23.84,0,35.81,0C690.38,644.53,675.12,662.45,649.39,657.69z"/>
<linearGradient id="SVGID_00000078028599557163995070000005485909588987511425_" gradientUnits="userSpaceOnUse" x1="543.7424" y1="630.342" x2="589.887" y2="630.342">
	<stop  offset="0" style="stop-color:#7ECAB6"/>
	<stop  offset="1" style="stop-color:#15818E"/>
</linearGradient>
<path style="fill:url(#SVGID_00000078028599557163995070000005485909588987511425_);" d="M543.74,640.56c0-7.02,0-13.55,0-20.43
	c15.39,0,30.54,0,46.14,0c0,6.79,0,13.43,0,20.43C574.58,640.56,559.43,640.56,543.74,640.56z"/>
</svg>
