<?xml version="1.0" encoding="utf-8"?>
<!-- Generator: Adobe Illustrator 27.3.1, SVG Export Plug-In . SVG Version: 6.00 Build 0)  -->
<svg version="1.1" id="Layer_1" xmlns="http://www.w3.org/2000/svg" xmlns:xlink="http://www.w3.org/1999/xlink" x="0px" y="0px"
	 viewBox="0 0 1080 1080" style="enable-background:new 0 0 1080 1080;" xml:space="preserve">
<style type="text/css">
	.st0{fill:#EB382E;}
	.st1{fill:url(#SVGID_1_);}
	.st2{fill:url(#SVGID_00000034802653166785436040000009778583380604260765_);}
	.st3{fill:url(#SVGID_00000147924352768492732750000014912829155567189897_);}
	.st4{fill:url(#SVGID_00000111900073579971049750000015729402016426699937_);}
	.st5{fill:url(#SVGID_00000116194927229789428870000006521104085949802131_);}
	.st6{fill:#FFFFFF;}
	.st7{fill:url(#SVGID_00000152240056004111396620000012142934016836796342_);}
	.st8{fill:url(#SVGID_00000012467581604179761690000001597032805582574781_);}
	.st9{fill:url(#SVGID_00000115481219880805832460000006244628429326177921_);}
	.st10{fill:url(#SVGID_00000111186323768845000150000004816587476446055813_);}
	.st11{fill:url(#SVGID_00000096031818747450301130000000964570297042531739_);}
	.st12{fill:url(#SVGID_00000096044528266119728070000006130902873725110973_);}
	.st13{fill:url(#SVGID_00000029038789660365629830000011792890993103159208_);}
	.st14{fill:url(#SVGID_00000049208248765197285400000017844636438834017177_);}
	.st15{fill:url(#SVGID_00000135673493812805550980000014697517666634314891_);}
	.st16{fill:url(#SVGID_00000137119306521552378670000016828261586037820064_);}
	.st17{fill:url(#SVGID_00000009588348764816682370000009102732673005585800_);}
	.st18{fill:url(#SVGID_00000043449422804878449740000011263312037930600633_);}
	.st19{fill:url(#SVGID_00000052789394898294924110000001252888243686747058_);}
	.st20{fill:url(#SVGID_00000095307940218833045260000005223201682816835248_);}
	.st21{fill:url(#SVGID_00000143610261745351434020000008197914929336621726_);}
	.st22{fill:url(#SVGID_00000182519016092965224710000009177429202277931451_);}
	.st23{fill:url(#SVGID_00000168104280305716258720000011828078443665475979_);}
	.st24{fill:url(#SVGID_00000132080602970059119460000017632176786349870209_);}
	.st25{fill:url(#SVGID_00000152254786818418237790000002456900816488664478_);}
	.st26{fill:url(#SVGID_00000021078095290298429180000012283843359237187004_);}
	.st27{fill:url(#SVGID_00000074405473435704029830000016679494770713855416_);}
	.st28{fill:url(#SVGID_00000050631358768526532140000000506070458282200992_);}
	.st29{fill:url(#SVGID_00000005232771744697901300000009603234456851449474_);}
	.st30{fill:url(#SVGID_00000003804600489680066340000009766556174736223929_);}
	.st31{fill:url(#SVGID_00000002379039438290477190000005770431072215463844_);}
	.st32{fill:url(#SVGID_00000111169467396059732100000012604246403804048042_);}
	.st33{fill:url(#SVGID_00000062167973153498644910000017599785508033095319_);}
	.st34{fill:url(#SVGID_00000008107075384427204960000004654748685560693177_);}
	.st35{fill:url(#SVGID_00000084505181641125038890000015556563915141423281_);}
	.st36{fill:url(#SVGID_00000097472106733896241630000007082938909392843695_);}
	.st37{fill:url(#SVGID_00000080904529234939445470000011528986510679502007_);}
	.st38{fill:url(#SVGID_00000058549276504898296150000010647801892499686016_);}
	.st39{fill:url(#SVGID_00000077291701011433048850000016646276386724127897_);}
	.st40{fill:url(#SVGID_00000150801485201337410660000011585720702863646393_);}
	.st41{fill:url(#SVGID_00000038413151293974475570000001293680700757420958_);}
	.st42{fill:url(#SVGID_00000108293980041326534150000008522953533086947772_);}
	.st43{fill:url(#SVGID_00000057836892206878731990000004983727851235573901_);}
	.st44{fill:url(#SVGID_00000115474132790461473790000016097921965016521901_);}
	.st45{fill:url(#SVGID_00000085224750213310580250000009585284945139771010_);}
	.st46{fill:url(#SVGID_00000088132203899650918790000003840229760971596418_);}
	.st47{fill:url(#SVGID_00000051353572751651747340000005145561819671481741_);}
	.st48{fill:url(#SVGID_00000119118925374410459060000012817270589818706859_);}
	.st49{fill:url(#SVGID_00000031186133127693150290000001660404989876561321_);}
	.st50{fill:url(#SVGID_00000129178049881290756800000003426153093404636606_);}
	.st51{fill:url(#SVGID_00000006693844054694366960000003571218563841497492_);}
</style>
<path class="st0" d="M272.02,660.17c1.22-5.45,2.28-10.95,3.7-16.35c12.77-48.58,60.28-83.3,109.1-79.79
	c54.01,3.88,96.18,43.01,102.2,94.83c6.74,58.05-34.66,112.17-91.55,119.66c-60.13,7.92-114.07-32.65-122.37-92.03
	c-0.16-1.15-0.71-2.24-1.07-3.36C272.02,675.48,272.02,667.83,272.02,660.17z M323.71,671.55c-0.09,31.06,24.75,56.25,55.63,56.41
	c31.23,0.16,56.68-24.9,56.86-55.99c0.17-30.89-25.4-56.48-56.44-56.47C348.89,615.51,323.81,640.6,323.71,671.55z"/>
<linearGradient id="SVGID_1_" gradientUnits="userSpaceOnUse" x1="318.9362" y1="558.1074" x2="715.7499" y2="558.1074">
	<stop  offset="0" style="stop-color:#7ECAB6"/>
	<stop  offset="1" style="stop-color:#15818E"/>
</linearGradient>
<path class="st1" d="M650.49,692.11c-15.1,2.06-18.35,0.48-25.29-11.96c-4.9-8.78-9.92-17.5-14.65-26.38
	c-1.61-3.02-3.45-4.31-7.01-4.27c-16.92,0.19-33.84,0.19-50.75,0c-3.53-0.04-5.42,1.18-7,4.24c-5.36,10.36-10.9,20.63-16.52,30.86
	c-3.81,6.94-8.32,8.85-16.59,7.41c0-11.59,0.78-23.26-0.13-34.79c-4.72-59.73-56.93-112.43-116.68-117.92
	c-7.87-0.72-14.38-3.36-20.95-7.73c-19.12-12.72-35.52-27.72-45.47-48.86c-6.51-13.83-10.25-28.31-10.49-43.66
	c-0.2-12.95,7.27-18.54,19.51-14.3c45.78,15.85,91.53,31.77,137.29,47.66c78.05,27.1,156.09,54.2,234.14,81.3
	c1.68,0.58,3.35,1.22,5.87,2.14C666.3,588.28,644.65,633.53,650.49,692.11z"/>
<path class="st0" d="M675.32,671.85c-0.1-59.38,47.98-107.74,107.35-107.98c59.49-0.25,108.25,48.28,108.28,107.77
	c0.03,59.26-48.31,107.87-107.45,108.05C723.98,779.87,675.42,731.47,675.32,671.85z M839.21,671.87
	c0.06-30.94-24.9-56.18-55.76-56.37c-31.04-0.2-56.69,25.18-56.73,56.15c-0.05,30.79,25.17,56.19,55.91,56.31
	C813.97,728.07,839.15,703.12,839.21,671.87z"/>
<linearGradient id="SVGID_00000024703118782985799290000011204824457403016092_" gradientUnits="userSpaceOnUse" x1="547.0915" y1="459.9734" x2="773.7874" y2="459.9734">
	<stop  offset="0" style="stop-color:#7ECAB6"/>
	<stop  offset="1" style="stop-color:#15818E"/>
</linearGradient>
<path style="fill:url(#SVGID_00000024703118782985799290000011204824457403016092_);" d="M547.09,469.89
	c20.12-26.34,47.91-26.47,77.02-24.64c-0.77-2.37-1.07-3.86-1.71-5.18c-5.48-11.2-10.84-22.46-16.69-33.46
	c-1.18-2.21-4.09-4.33-6.56-4.87c-9.22-2.02-18.64-3.14-27.88-5.06c-6.21-1.29-10.14-6.8-9.93-12.71
	c0.22-6.02,4.57-11.08,10.63-12.25c1.17-0.23,2.43-0.35,3.6-0.16c13.09,2.16,26.29,3.89,39.19,6.9c3.83,0.9,7.91,4.81,9.98,8.42
	c5.57,9.75,10.12,20.08,14.69,29.4c7.61-2.68,14.69-6.18,22.15-7.59c13.36-2.52,25.32,1.88,34.6,11.6
	c22.81,23.87,45.3,48.05,67.73,72.28c6.51,7.03,9.69,15.71,9.81,25.33c0.13,9.84,0.03,19.69,0.03,30.58
	C697.99,522.21,622.89,496.17,547.09,469.89z"/>
<path class="st0" d="M410.23,671.76c-0.03,16.8-13.52,30.43-30.24,30.55c-16.8,0.12-30.7-13.9-30.59-30.85
	c0.11-16.64,14-30.35,30.59-30.2C396.8,641.43,410.25,654.99,410.23,671.76z"/>
<path class="st0" d="M752.68,671.88c-0.09-16.81,13.3-30.43,30.11-30.61c16.59-0.18,30.58,13.49,30.76,30.08
	c0.18,16.88-13.69,30.95-30.52,30.96C766.37,702.32,752.78,688.69,752.68,671.88z"/>
</svg>
