<?xml version="1.0" encoding="utf-8"?>
<!-- Generator: Adobe Illustrator 27.3.1, SVG Export Plug-In . SVG Version: 6.00 Build 0)  -->
<svg version="1.1" id="Layer_1" xmlns="http://www.w3.org/2000/svg" xmlns:xlink="http://www.w3.org/1999/xlink" x="0px" y="0px"
	 viewBox="0 0 1080 1080" style="enable-background:new 0 0 1080 1080;" xml:space="preserve">
<style type="text/css">
	.st0{fill:#EB382E;}
	.st1{fill:url(#SVGID_1_);}
	.st2{fill:url(#SVGID_00000052813516630425514570000007041618023755336578_);}
	.st3{fill:url(#SVGID_00000169528341810073632920000011228331317447313854_);}
	.st4{fill:url(#SVGID_00000043431929696301895690000003858722011093286826_);}
	.st5{fill:url(#SVGID_00000054262497796160401640000013891023594703457182_);}
	.st6{fill:url(#SVGID_00000088129824039481574680000012931240496918813608_);}
	.st7{fill:url(#SVGID_00000088104819528758352440000006778621973231269816_);}
	.st8{fill:url(#SVGID_00000158745943771537487490000000567141292197113761_);}
	.st9{fill:url(#SVGID_00000023258968765800329950000005211327408778775938_);}
	.st10{fill:url(#SVGID_00000046336028774036224000000002911638856401366940_);}
	.st11{fill:url(#SVGID_00000118356971460679853630000011417917336957967488_);}
	.st12{fill:url(#SVGID_00000123413293897625268300000015459431166933195709_);}
	.st13{fill:url(#SVGID_00000172427683706351725170000012813775629444011698_);}
	.st14{fill:url(#SVGID_00000105426220023403894600000016259519534303999406_);}
	.st15{fill:url(#SVGID_00000160192617950049168230000003148294685077875637_);}
	.st16{fill:url(#SVGID_00000139973321283831888870000004241394805597116827_);}
	.st17{fill:url(#SVGID_00000181802858451673953480000011215332878425130372_);}
	.st18{fill:url(#SVGID_00000039126732383997200590000014579065629017002624_);}
	.st19{fill:url(#SVGID_00000180357205501725613350000006961044919381042344_);}
	.st20{fill:url(#SVGID_00000162315731192688652670000011359776663180648114_);}
	.st21{fill:url(#SVGID_00000158733588523268242810000014981818116449462974_);}
	.st22{fill:url(#SVGID_00000170958777486406105720000001097027663154907532_);}
	.st23{fill:url(#SVGID_00000068676537509234109560000007868307007216784052_);}
	.st24{fill:url(#SVGID_00000073695472647794416180000008006106676262475187_);}
	.st25{fill:url(#SVGID_00000101821780517642982070000000515261289712555413_);}
	.st26{fill:url(#SVGID_00000083771883589145379810000000794794662145750934_);}
	.st27{fill:url(#SVGID_00000178896140526894770160000003655913671359342497_);}
	.st28{fill:url(#SVGID_00000083053550109906100440000012712491247317628347_);}
	.st29{fill:url(#SVGID_00000150083298186895678910000003241747844199372185_);}
	.st30{fill:url(#SVGID_00000166642341751515120330000016024169634672881342_);}
	.st31{fill:url(#SVGID_00000041984505396789375700000013974641166035201177_);}
	.st32{fill:url(#SVGID_00000093875468050864673500000002424985458220046986_);}
	.st33{fill:url(#SVGID_00000159432073163327361730000010938630842447524266_);}
	.st34{fill:url(#SVGID_00000000215084258085803620000012329336770914607770_);}
	.st35{fill:url(#SVGID_00000153685882659020353950000001831151932117478304_);}
	.st36{fill:url(#SVGID_00000067947375122051072280000004883103545589105337_);}
	.st37{fill:#FFFFFF;}
	.st38{stroke:#000000;stroke-width:6;stroke-miterlimit:10;}
	.st39{fill:url(#SVGID_00000124868036313901410610000007774511204688089728_);}
	.st40{fill:url(#SVGID_00000128468677093087847500000010749775975991394176_);}
	.st41{fill:url(#SVGID_00000017498482341262094760000006369547320947659937_);}
</style>
<g>
	<linearGradient id="SVGID_1_" gradientUnits="userSpaceOnUse" x1="179.3039" y1="664.1084" x2="938.6116" y2="664.1084">
		<stop  offset="0" style="stop-color:#7ECAB6"/>
		<stop  offset="1" style="stop-color:#15818E"/>
	</linearGradient>
	<path class="st1" d="M938.61,789.49c-11.21,0-22.42,0-34.16,0c0.15-30.69-10.31-55.31-32.51-74.36
		c-16.55-14.21-36.04-21.51-57.86-21.68c-25.5-0.19-47.56,8.83-65.61,26.84c-18.02,17.97-26.64,40.12-26.92,65.68
		c-18.53,0-36.5,0.17-54.47-0.03c-77.66-0.86-155.32-1.93-232.98-2.57c-7.93-0.07-10.74-1.51-11.6-10.36
		c-4.2-43.08-42.63-77.99-86.27-79.6c-45.33-1.66-85.68,30.19-93.61,73.92c-0.75,4.16-1.33,8.35-2.02,12.74
		c-15.05,0-30.05,0.54-44.97-0.2c-9.11-0.45-15.27-7.87-16.04-17.11c-0.33-3.96-0.06-7.98-0.06-13.21c11.21,0,22.12,0,33.04,0
		c15.66-0.01,17.9-2.22,17.9-17.65c0-13.53,0.06-27.06-0.02-40.59c-0.06-9.5-3.72-13.19-13.15-13.25
		c-12.24-0.09-24.49-0.02-36.59-0.02c-4.81-18.95,2.84-29.73,21.51-31.2c23.22-1.83,46.44-3.63,69.63-5.8
		c2.72-0.26,6.38-2.11,7.68-4.34c30.52-52.19,77.29-80.86,135.27-92.13c73.02-14.2,142.94-1.58,210.33,27.78
		c36.11,15.73,68.68,36.97,96.93,64.71c3,2.94,8.29,4.3,12.72,4.91c44.87,6.25,89.97,11.12,134.64,18.58
		c34.94,5.84,60.38,24.65,68.28,61.66c0.09,0.42,0.6,0.75,0.92,1.13C938.61,745.39,938.61,767.44,938.61,789.49z M353.22,648.51
		c51.43,0,102.09,0,152.94,0c0-22.84,0-45.17,0-67.96c-20.83,0-41.13-1.16-61.24,0.27c-30.21,2.15-58.99,10.53-85.54,25.53
		c-2.5,1.41-5.77,4.27-5.89,6.6C352.9,624.63,353.22,636.37,353.22,648.51z M681.43,648.52c-45.33-34.91-96.69-54.96-152.9-64.79
		c0,21.89,0,43.09,0,64.79C579.69,648.52,630.56,648.52,681.43,648.52z"/>
	<path class="st0" d="M216.02,323.83c14.6-13.93,28.95-27.81,43.64-41.31c1.45-1.34,5.6-1.36,7.55-0.28
		c10.94,6.07,21.67,12.53,32.29,19.14c3.37,2.1,5.75,1.91,9.45,0.23c15.45-7,31.02-13.81,46.95-19.6c5.08-1.85,7.14-4.18,8.26-8.91
		c2.76-11.68,5.62-23.36,8.97-34.88c0.61-2.09,3.69-4.89,5.68-4.94c17.98-0.43,35.98-0.21,53.97-0.44c4.95-0.06,6.91,2.12,7.96,6.7
		c2.75,11.94,5.67,23.86,9.11,35.62c0.71,2.45,3.57,5,6.06,6.08c16.02,6.95,32.31,13.27,48.26,20.36c3.67,1.63,6,1.95,9.45-0.21
		c11.88-7.41,24.02-14.43,36.34-21.76c16.67,12.38,31.19,26.8,43.73,43.17c1.12,1.46,0.72,5.14-0.34,7.03
		c-6.14,10.9-12.52,21.68-19.19,32.27c-2.19,3.48-1.72,5.85-0.08,9.46c6.79,15,13.48,30.09,19.07,45.55
		c2.06,5.69,4.27,9.01,10.27,9.77c3.18,0.4,6.27,1.55,10.13,2.55c-1.32,2.53-2.36,4.73-3.57,6.83
		c-16.24,28.2-32.61,56.32-48.66,84.63c-2.65,4.68-5.23,6.57-10.61,4.72c-4.2-1.44-8.76-1.85-14.21-2.93
		c17.26-48.37,13.11-94.17-16.9-136.24c-18.5-25.95-43.69-43.03-74.23-52.12c-58.91-17.52-123.78,7.07-157.16,59.71
		c-33.19,52.34-29.85,124.07,20.28,175.35c-2.53,2.25-5.32,4.26-7.51,6.78c-11.16,12.8-22.42,25.54-33.08,38.76
		c-2.95,3.66-5.6,5.82-10.31,5.99c-6.75,0.24-13.48,1.15-20.23,1.55c-12.51,0.74-12.51,0.67-20.1-10.23
		c7.07-11.86,14.44-23.78,21.22-36.02c1.36-2.46,1.45-6.58,0.4-9.26c-6.39-16.25-13.12-32.36-20.14-48.34
		c-1.17-2.67-3.92-5.71-6.56-6.49c-11.98-3.54-24.26-6.1-36.25-9.62c-2.27-0.67-5.26-4.06-5.31-6.26
		c-0.44-17.99-0.16-35.99-0.34-53.98c-0.05-4.83,2.48-6.38,6.56-7.35c11.92-2.84,23.86-5.67,35.63-9.07
		c2.47-0.71,5.1-3.49,6.18-5.95c7.09-16.22,13.92-32.57,20.43-49.03c0.99-2.49,0.91-6.35-0.36-8.63
		C231.88,350.01,224.51,338.08,216.02,323.83z"/>
	<path class="st0" d="M737.82,267.41c-12.3,21.34-23.78,41.56-35.63,61.56c-2.73,4.61-3.37,8.16-0.22,12.87
		c5.81,8.69,9.02,21.13,16.96,25.81c7.67,4.52,19.97,0.93,30.2,1.47c5.5,0.29,8.47-1.65,11.15-6.47
		c10.19-18.38,20.88-36.48,31.4-54.68c1.22-2.12,2.61-4.14,4.31-6.83c9.38,12.04,14.39,25.19,16.12,39.43
		c6.37,52.43-31.73,96.2-84.36,96.85c-5.07,0.06-6.88,2.43-8.98,6.07c-20.95,36.45-42,72.83-63.03,109.23
		c-1.36,2.36-2.82,4.66-4.09,6.75c-23.74-9.26-47.14-18.4-71.36-27.85c0.92-1.74,2.07-4.07,3.37-6.31
		c23.12-40.1,46.19-80.23,69.49-120.23c2.45-4.21,2.37-7.08,0.01-11.43c-15.43-28.44-15.56-57.25,1.1-85.02
		c16.95-28.26,42.96-41.65,75.76-42.05C732.18,266.56,734.36,267.03,737.82,267.41z"/>
	
		<linearGradient id="SVGID_00000059291123987732335660000002993002396417507488_" gradientUnits="userSpaceOnUse" x1="743.2642" y1="784.7405" x2="882.8021" y2="784.7405">
		<stop  offset="0" style="stop-color:#7ECAB6"/>
		<stop  offset="1" style="stop-color:#15818E"/>
	</linearGradient>
	<path style="fill:url(#SVGID_00000059291123987732335660000002993002396417507488_);" d="M813.41,715.16
		c39.13,0.53,70.05,32.15,69.39,70.94c-0.66,38.35-32.46,68.78-71.28,68.21c-37.99-0.56-68.69-32.27-68.24-70.5
		C743.72,745.73,775.47,714.65,813.41,715.16z M785,784.43c-0.12,15.66,12.03,28.17,27.7,28.53c15.29,0.34,28.26-12.42,28.34-27.89
		c0.07-15.67-12.24-28.34-27.72-28.53C797.82,756.35,785.12,768.86,785,784.43z"/>
	
		<linearGradient id="SVGID_00000065764913191327111950000001527310464526601378_" gradientUnits="userSpaceOnUse" x1="262.4601" y1="784.7203" x2="401.8624" y2="784.7203">
		<stop  offset="0" style="stop-color:#7ECAB6"/>
		<stop  offset="1" style="stop-color:#15818E"/>
	</linearGradient>
	<path style="fill:url(#SVGID_00000065764913191327111950000001527310464526601378_);" d="M332.01,854.28
		c-38.59-0.15-69.9-31.64-69.55-69.93c0.35-38.25,31.64-69.36,69.6-69.19c39.15,0.17,69.98,31.25,69.8,70.38
		C401.69,823.55,370.31,854.44,332.01,854.28z M360.26,785.08c0.09-15.72-12.16-28.34-27.71-28.54
		c-15.38-0.2-28.28,12.45-28.43,27.87c-0.15,15.81,12.75,28.72,28.53,28.53C347.81,812.77,360.17,800.29,360.26,785.08z"/>
	
		<linearGradient id="SVGID_00000014627642528578443580000006526115637538922148_" gradientUnits="userSpaceOnUse" x1="179.6752" y1="713.696" x2="208.3562" y2="713.696">
		<stop  offset="0" style="stop-color:#7ECAB6"/>
		<stop  offset="1" style="stop-color:#15818E"/>
	</linearGradient>
	<path style="fill:url(#SVGID_00000014627642528578443580000006526115637538922148_);" d="M179.68,727.3c0-9.18,0-17.88,0-27.2
		c9.45,0,18.78,0,28.68,0c0,8.84,0,17.71,0,27.2C199.08,727.3,189.76,727.3,179.68,727.3z"/>
</g>
</svg>
