<?xml version="1.0" encoding="utf-8"?>
<!-- Generator: Adobe Illustrator 27.3.1, SVG Export Plug-In . SVG Version: 6.00 Build 0)  -->
<svg version="1.1" id="Layer_1" xmlns="http://www.w3.org/2000/svg" xmlns:xlink="http://www.w3.org/1999/xlink" x="0px" y="0px"
	 viewBox="0 0 1080 1080" style="enable-background:new 0 0 1080 1080;" xml:space="preserve">
<style type="text/css">
	.st0{fill:#EB382E;}
	.st1{fill:url(#SVGID_1_);}
	.st2{fill:url(#SVGID_00000067232695294687479770000008502691595201071283_);}
	.st3{fill:url(#SVGID_00000092431454220354605080000016547474705894565010_);}
	.st4{fill:url(#SVGID_00000087387601489915836260000012113082534140339865_);}
	.st5{fill:url(#SVGID_00000075147617310983252750000010618160709337922961_);}
	.st6{fill:#FFFFFF;}
	.st7{fill:url(#SVGID_00000108310109666254153180000002587803298896764603_);}
	.st8{fill:url(#SVGID_00000162344727662409230950000003867831566237086858_);}
	.st9{fill:url(#SVGID_00000155830407064468170740000015705517381244405932_);}
	.st10{fill:url(#SVGID_00000160184197765273543450000000306831189743364998_);}
	.st11{fill:url(#SVGID_00000039822255275197502010000004508244166709548209_);}
	.st12{fill:url(#SVGID_00000036212465510964361560000010872947442649117875_);}
	.st13{fill:url(#SVGID_00000070816227643767972930000013104393225519229611_);}
	.st14{fill:url(#SVGID_00000158721896405832514970000001058647570949426865_);}
	.st15{fill:url(#SVGID_00000149379326236781410460000010347623929434909070_);}
	.st16{fill:url(#SVGID_00000144295887598530371090000004407566224226199183_);}
	.st17{fill:url(#SVGID_00000120534536262478389950000012576538027416135859_);}
	.st18{fill:url(#SVGID_00000061468157867374904610000007944531666643661224_);}
	.st19{fill:url(#SVGID_00000182489420765437106820000011834867837995970991_);}
	.st20{fill:url(#SVGID_00000023260803997153809280000008490075951713181340_);}
	.st21{fill:url(#SVGID_00000034060972806908961730000005202026371155501750_);}
	.st22{fill:url(#SVGID_00000040557154395332962120000015226536778632467586_);}
	.st23{fill:url(#SVGID_00000055665866260484488400000010868057417675914423_);}
	.st24{fill:url(#SVGID_00000115517322863572212620000014114762505347285385_);}
	.st25{fill:url(#SVGID_00000152960484642026724380000011139834382614984111_);}
	.st26{fill:url(#SVGID_00000024692918730633432740000006962617295037446323_);}
	.st27{fill:url(#SVGID_00000011733184261117119860000015570064543907275649_);}
	.st28{fill:url(#SVGID_00000026146518653679185910000004934723866830785203_);}
	.st29{fill:url(#SVGID_00000058563176553217224830000018190747071262856327_);}
	.st30{fill:url(#SVGID_00000073719071366526824930000010635369973704384651_);}
	.st31{fill:url(#SVGID_00000057862310917482724140000011945970805197595301_);}
	.st32{fill:url(#SVGID_00000051381055272252307160000012116949497928812204_);}
	.st33{fill:url(#SVGID_00000148624133219155315460000001216741125982920080_);}
	.st34{fill:url(#SVGID_00000052799870537162360350000005084323624640811680_);}
	.st35{fill:url(#SVGID_00000159457793900287716450000014040789251078266542_);}
	.st36{fill:url(#SVGID_00000067936098161479085070000000804133456821402006_);}
	.st37{fill:url(#SVGID_00000124147307229337918880000018402108347198500774_);}
	.st38{fill:url(#SVGID_00000143617742223550947350000005834149198141678992_);}
	.st39{fill:url(#SVGID_00000072966835050084983660000002242785697527785634_);}
	.st40{fill:url(#SVGID_00000036229357687946369730000015549123696287873681_);}
	.st41{fill:url(#SVGID_00000155835705804667248380000018092207490407333303_);}
	.st42{fill:url(#SVGID_00000155841845218135670710000017148998831828515742_);}
	.st43{fill:url(#SVGID_00000120528584296653392190000017600083970677674894_);}
	.st44{fill:url(#SVGID_00000059267562870038557620000007756385647972313498_);}
	.st45{fill:url(#SVGID_00000042004392399768800530000006641177264166554245_);}
	.st46{fill:url(#SVGID_00000055693383628020764670000008653858341424851611_);}
	.st47{fill:url(#SVGID_00000074403248174058001180000001253830807333515442_);}
	.st48{fill:url(#SVGID_00000120553420158942724900000013270445471530950322_);}
	.st49{fill:url(#SVGID_00000026139163582825665920000005425285701401700501_);}
	.st50{fill:url(#SVGID_00000175316223331456561380000001293790576890678408_);}
	.st51{fill:url(#SVGID_00000031911678652882734860000009375268263298261170_);}
</style>
<path class="st0" d="M831.87,670.66c-2.93,0-4.87,0-6.81,0c-166.14,0-332.29-0.15-498.43,0.2c-19.01,0.04-29.67-13.95-28.7-27.49
	c1.06-14.87,13.5-25.74,28.43-23.63c14.89,2.11,29.6,5.46,44.48,7.64c44.58,6.54,89.35,7.56,133.91,0.86
	c25.83-3.89,51.3-10.21,76.94-15.39c2.66-0.54,5.38-1.04,8.08-1.04c67.32-0.06,134.64-0.07,201.95-0.03
	c23.88,0.01,39.8,15.72,40.12,39.5C831.94,657.48,831.87,663.7,831.87,670.66z"/>
<linearGradient id="SVGID_1_" gradientUnits="userSpaceOnUse" x1="592.9554" y1="532.7067" x2="799.5931" y2="532.7067">
	<stop  offset="0" style="stop-color:#7ECAB6"/>
	<stop  offset="1" style="stop-color:#15818E"/>
</linearGradient>
<path class="st1" d="M799.46,593.95c-69.09,0-137.34,0-205.99,0c-0.16-1.63-0.42-3.12-0.43-4.61c-0.03-22.5,0.04-45-0.09-67.5
	c-0.02-3.37,0.86-5.14,4.21-6.45c36.19-14.18,72.2-28.82,108.55-42.58c5.55-2.1,12.75-1.4,18.85-0.21
	c43.19,8.4,73.14,43.99,74.83,88.58C799.8,571.88,799.46,582.61,799.46,593.95z"/>
<path class="st0" d="M841.86,688.28c-2.92,18.57-19.35,32.2-39.3,33.3c-1.56,0.09-3.13,0.06-4.69,0.06
	c-169.03,0-338.07,0.01-507.1-0.07c-3.22,0-6.89-0.23-9.58-1.73c-6.16-3.44-5.9-26.32,0.12-29.93c1.6-0.96,3.66-1.28,5.55-1.56
	c1.72-0.26,3.51-0.07,5.27-0.07c180.77,0,361.54,0,542.32,0C836.78,688.28,839.11,688.28,841.86,688.28z"/>
<linearGradient id="SVGID_00000067948123815611515240000002495644850051185338_" gradientUnits="userSpaceOnUse" x1="320.9312" y1="567.4174" x2="575.3749" y2="567.4174">
	<stop  offset="0" style="stop-color:#7ECAB6"/>
	<stop  offset="1" style="stop-color:#15818E"/>
</linearGradient>
<path style="fill:url(#SVGID_00000067948123815611515240000002495644850051185338_);" d="M575.07,520.08
	c0.1,2.02,0.22,3.35,0.22,4.68c0.01,22.3-0.07,44.6,0.09,66.9c0.03,3.57-1.07,5.06-4.55,5.99c-55.67,14.9-112.21,20.9-169.64,15.25
	c-22.52-2.22-44.82-6.52-67.23-9.86c-4.04-0.6-8.08-1.18-12.67-1.85c-0.11-1.86-0.33-3.73-0.33-5.6c-0.03-16.24-0.05-32.47,0-48.71
	c0.06-19.15,12.6-29.43,31.53-26.16c10.34,1.78,19.44,6.08,27.01,13.19c16.77,15.75,36.48,22.87,59.41,21.42
	c13.42-0.85,26.96-0.71,40.26-2.44c11.02-1.43,20.83-7.1,28.68-14.98c13.14-13.2,28.64-19.12,47.16-17.89
	C561.42,520.43,567.9,520.08,575.07,520.08z"/>
<linearGradient id="SVGID_00000023963634771704352880000004744964029473860261_" gradientUnits="userSpaceOnUse" x1="635.1693" y1="449.8715" x2="693.2805" y2="449.8715">
	<stop  offset="0" style="stop-color:#7ECAB6"/>
	<stop  offset="1" style="stop-color:#15818E"/>
</linearGradient>
<path style="fill:url(#SVGID_00000023963634771704352880000004744964029473860261_);" d="M635.17,418.23
	c26.64,3.16,43.69,19.15,58.11,40.24c-19.37,7.69-38.45,15.25-58.11,23.05C635.17,460.15,635.17,439.52,635.17,418.23z"/>
<linearGradient id="SVGID_00000150782567660625642800000014068542325112862359_" gradientUnits="userSpaceOnUse" x1="552.9589" y1="426.3152" x2="616.847" y2="426.3152">
	<stop  offset="0" style="stop-color:#7ECAB6"/>
	<stop  offset="1" style="stop-color:#15818E"/>
</linearGradient>
<path style="fill:url(#SVGID_00000150782567660625642800000014068542325112862359_);" d="M616.85,417.2c0,6.34,0,11.92,0,18.24
	c-7.62,0-14.98,0-22.34,0c-10.73,0-21.47,0.13-32.19-0.07c-5.87-0.11-9.34-3.75-9.36-9.07c-0.01-5.09,3.22-8.94,8.76-9.01
	C579.83,417.05,597.95,417.2,616.85,417.2z"/>
</svg>
