<?xml version="1.0" encoding="utf-8"?>
<!-- Generator: Adobe Illustrator 27.3.1, SVG Export Plug-In . SVG Version: 6.00 Build 0)  -->
<svg version="1.1" id="Layer_1" xmlns="http://www.w3.org/2000/svg" xmlns:xlink="http://www.w3.org/1999/xlink" x="0px" y="0px"
	 viewBox="0 0 1080 1080" style="enable-background:new 0 0 1080 1080;" xml:space="preserve">
<style type="text/css">
	.st0{fill:#EB382E;}
	.st1{fill:url(#SVGID_1_);}
	.st2{fill:url(#SVGID_00000129182644115252229250000017390016963428793531_);}
	.st3{fill:url(#SVGID_00000165940929357309013010000003222069207380511415_);}
	.st4{fill:url(#SVGID_00000183934353055862250030000012883883752469868446_);}
	.st5{fill:url(#SVGID_00000122682854069184603460000016286116059147411102_);}
	.st6{fill:#FFFFFF;}
	.st7{fill:url(#SVGID_00000175280681540311711280000007665588760619993507_);}
	.st8{fill:url(#SVGID_00000038399806471442041610000010028610661888692116_);}
	.st9{fill:url(#SVGID_00000059283227165693789240000012032962227710033075_);}
	.st10{fill:url(#SVGID_00000014594088838466664330000009529445096465964184_);}
	.st11{fill:url(#SVGID_00000182513031614410168580000017765946794728631716_);}
	.st12{fill:url(#SVGID_00000140703385696618914890000005369992516380503430_);}
	.st13{fill:url(#SVGID_00000013159365214610774860000001248729393358216088_);}
	.st14{fill:url(#SVGID_00000060735627989137753030000010780721702062806417_);}
	.st15{fill:url(#SVGID_00000139996958426681407130000010348770394078980501_);}
	.st16{fill:url(#SVGID_00000181075142099043653410000002736529858316562564_);}
	.st17{fill:url(#SVGID_00000088832356683513693750000011924287764500309378_);}
	.st18{fill:url(#SVGID_00000132068605283309879970000007834263782960352422_);}
	.st19{fill:url(#SVGID_00000017510665295588867640000015263924632794615201_);}
	.st20{fill:url(#SVGID_00000113319085631349351450000008822962831007875505_);}
	.st21{fill:url(#SVGID_00000125573632488302977570000008646000609146697141_);}
	.st22{fill:url(#SVGID_00000106863291877415150710000018339379740904029627_);}
	.st23{fill:url(#SVGID_00000126305166125871167980000016596762189960475571_);}
	.st24{fill:url(#SVGID_00000116208907190043350940000002164504265470981024_);}
	.st25{fill:url(#SVGID_00000015317076575251073010000011395770746130176674_);}
	.st26{fill:url(#SVGID_00000136388587371251588060000015148026031114845325_);}
	.st27{fill:url(#SVGID_00000137819755563165768200000000741506903368882840_);}
	.st28{fill:url(#SVGID_00000103962916433633601710000009847183961626214591_);}
	.st29{fill:url(#SVGID_00000078736245447598884190000010708871063567862705_);}
	.st30{fill:url(#SVGID_00000071520368660296611410000013428408597470543288_);}
	.st31{fill:url(#SVGID_00000028295831060670375590000006011655361307149707_);}
	.st32{fill:url(#SVGID_00000178906438586721734100000015985437150814476712_);}
	.st33{fill:url(#SVGID_00000126282079450966692330000017447824109391100557_);}
	.st34{fill:url(#SVGID_00000054958829542729237460000008951358626213603247_);}
	.st35{fill:url(#SVGID_00000011745556558077108260000006334650573278407560_);}
	.st36{fill:url(#SVGID_00000111171191829806983640000017627263672549122189_);}
	.st37{fill:url(#SVGID_00000089576105553960762940000006386963490218547354_);}
	.st38{fill:url(#SVGID_00000090288094524511350290000005156866498000558761_);}
	.st39{fill:url(#SVGID_00000095310428800571448780000012644824019001975483_);}
	.st40{fill:url(#SVGID_00000073001587913907272540000008816658132686808996_);}
	.st41{fill:url(#SVGID_00000036940793179673521450000012015761719526556319_);}
	.st42{fill:url(#SVGID_00000160152691725147508270000017088812157397341089_);}
	.st43{fill:url(#SVGID_00000024706414133092336480000005854093528633632391_);}
	.st44{fill:url(#SVGID_00000131360969341189489360000001202125181942135440_);}
	.st45{fill:url(#SVGID_00000060020713184070617990000004270787866753012919_);}
	.st46{fill:url(#SVGID_00000130638374910276815460000002076623400144164769_);}
	.st47{fill:url(#SVGID_00000079467923682406159210000008122925370415872689_);}
	.st48{fill:url(#SVGID_00000127017568872564660620000010446219399373286321_);}
	.st49{fill:url(#SVGID_00000178174114552030324140000016876094016107687853_);}
	.st50{fill:url(#SVGID_00000006687927889705930620000015553903357106837399_);}
	.st51{fill:url(#SVGID_00000080191580847093415860000017294822470458132621_);}
</style>
<linearGradient id="SVGID_1_" gradientUnits="userSpaceOnUse" x1="319.5157" y1="619.514" x2="792.7855" y2="619.514">
	<stop  offset="0" style="stop-color:#7ECAB6"/>
	<stop  offset="1" style="stop-color:#15818E"/>
</linearGradient>
<path class="st1" d="M494.93,800.36c-6.56-2.87-13.82-4.75-19.54-8.8c-16.75-11.87-21.29-34.88-11.33-52.89
	c9.93-17.95,31.22-26.02,50.37-18.88c2.85,1.06,4.58,0.95,6.77-1.38c9.41-9.96,19.05-19.7,29.08-30c-5.5-5.47-11.4-10.3-15.99-16.15
	c-7.41-9.43-16.3-12.63-28.26-11.86c-14.4,0.92-29.06,0.86-43.38-0.75c-32.92-3.7-58.82-33.31-59.22-66.59
	c-0.26-21.89-0.06-43.78-0.07-65.67c0-1.66,0-3.32,0-5.31c-9.29,0-18.17,0-27.4,0c0-9.33,0-18.32,0-27.89c13.78,0,27.59,0,41.41,0
	c13.68,0,27.36,0,41.34,0c0-5.63,0.46-10.87-0.11-16c-0.79-7.07-6.76-11.69-14.35-11.73c-12.95-0.07-25.9-0.02-38.85-0.02
	c-26.82,0-53.65,0-80.47,0c-1.68,0-3.37,0-5.39,0c0-9.2,0-18.19,0-27.75c1.62,0,3.26,0,4.9,0c39.31,0,78.62-0.01,117.94,0
	c26.73,0.01,44.22,17.56,44.25,44.36c0,3.52,0,7.04,0,11.02c14.57,0,28.83,0,43.21,0c-4.97,26.91,3.2,48.17,26.51,61.95
	c19.49,11.52,39.85,10.62,58.46-2.23c20.59-14.22,27.69-34.52,22.78-59.6c51.78,0,103.5,0,155.22,0c0,9.25,0,18.5,0,27.75
	c-9.48,0-18.97,0-28.68,0c0,22.83,0.01,45,0,67.17c-0.03,41.29-30.18,71.54-71.37,71.58c-23.88,0.02-47.76-0.06-71.64,0.12
	c-2.15,0.02-4.73,1.14-6.34,2.6c-5.24,4.76-10.07,9.96-15.14,14.92c-3.37,3.3-6.87,6.46-10.44,9.8
	c10.68,10.98,20.51,21.18,30.51,31.21c0.86,0.86,2.95,1,4.33,0.75c4.37-0.79,8.63-2.56,13.01-2.82
	c20.38-1.21,38.84,13.03,42.85,32.64c4.25,20.73-6.99,40.95-26.75,48c-2.73,0.97-5.57,1.64-8.35,2.45c-3.7,0-7.4,0-11.1,0
	c-0.26-0.16-0.51-0.42-0.78-0.47c-28.28-4.6-42.46-34.87-32.04-56.97c0.4-0.85,0.17-2.59-0.47-3.23
	c-10.03-10.17-20.17-20.22-30.66-30.67c-9.77,9.82-19.23,19.47-28.89,28.91c-2.21,2.16-2.54,3.85-1.45,6.76
	c8.1,21.78-3.44,45.86-25.43,53.4c-2.6,0.89-5.28,1.52-7.93,2.27C502.33,800.36,498.63,800.36,494.93,800.36z M576.97,661.11
	c-4.97,0-9.54,0-13.12,0c1.81,2.32,3.84,4.93,5.66,7.26C572.27,665.68,574.53,663.48,576.97,661.11z"/>
<path class="st0" d="M763.58,466.42c-5.07,0-9.99,0-14.91,0c-41.47,0-82.94,0.02-124.41-0.05c-1.89,0-4.22-0.19-5.6-1.25
	c-14.43-11.14-30.39-15.11-48.71-10.72c0-33.28,0-66.33,0-99.71c-9.34,0-18.22,0-27.47,0c0-9.33,0-18.32,0-27.94
	c1.53,0,3.15,0,4.78,0c39.31,0,78.62-0.03,117.94,0.01c49.28,0.04,88.4,32.55,97.54,81.03c0.4,2.12,0.8,4.27,0.81,6.41
	C763.61,431.42,763.58,448.64,763.58,466.42z"/>
<linearGradient id="SVGID_00000074414610518712884970000016407044008829618865_" gradientUnits="userSpaceOnUse" x1="555.9927" y1="508.0482" x2="611.4611" y2="508.0482">
	<stop  offset="0" style="stop-color:#7ECAB6"/>
	<stop  offset="1" style="stop-color:#15818E"/>
</linearGradient>
<path style="fill:url(#SVGID_00000074414610518712884970000016407044008829618865_);" d="M611.46,508.26
	c-0.09,15.17-12.63,27.56-27.84,27.52c-15.37-0.04-27.83-12.75-27.63-28.19c0.2-15.15,12.82-27.43,28.06-27.28
	C599.23,480.46,611.56,493.03,611.46,508.26z"/>
<linearGradient id="SVGID_00000106109651528443188780000011692794401562594473_" gradientUnits="userSpaceOnUse" x1="563.8536" y1="664.7361" x2="576.9694" y2="664.7361">
	<stop  offset="0" style="stop-color:#7ECAB6"/>
	<stop  offset="1" style="stop-color:#15818E"/>
</linearGradient>
<path style="fill:url(#SVGID_00000106109651528443188780000011692794401562594473_);" d="M576.97,661.11
	c-2.43,2.37-4.7,4.58-7.46,7.26c-1.81-2.33-3.85-4.94-5.66-7.26C567.43,661.11,572,661.11,576.97,661.11z"/>
</svg>
