<?xml version="1.0" encoding="utf-8"?>
<!-- Generator: Adobe Illustrator 27.3.1, SVG Export Plug-In . SVG Version: 6.00 Build 0)  -->
<svg version="1.1" id="Layer_1" xmlns="http://www.w3.org/2000/svg" xmlns:xlink="http://www.w3.org/1999/xlink" x="0px" y="0px"
	 viewBox="0 0 1080 1080" style="enable-background:new 0 0 1080 1080;" xml:space="preserve">
<style type="text/css">
	.st0{fill:#EB382E;}
	.st1{fill:url(#SVGID_1_);}
	.st2{fill:url(#SVGID_00000132063963810516607380000006192334600488675217_);}
	.st3{fill:url(#SVGID_00000118356179231897197190000017883122425513190077_);}
	.st4{fill:url(#SVGID_00000124128196472336056750000009645263422620926597_);}
	.st5{fill:url(#SVGID_00000170265599885043612630000000672580265110914738_);}
	.st6{fill:#FFFFFF;}
	.st7{fill:url(#SVGID_00000022545633077744841400000012530317583262519180_);}
	.st8{fill:url(#SVGID_00000065063450779389054130000003668917711612528270_);}
	.st9{fill:url(#SVGID_00000021806231443481285020000009144591334529494413_);}
	.st10{fill:url(#SVGID_00000042720849587672661750000000811964082908918182_);}
	.st11{fill:url(#SVGID_00000129912110232756747650000007877385552484530339_);}
	.st12{fill:url(#SVGID_00000111901291468587963630000006360463525262196879_);}
	.st13{fill:url(#SVGID_00000111164372429369836520000001593781020254924985_);}
	.st14{fill:url(#SVGID_00000121970191908401964530000013045386644133561738_);}
	.st15{fill:url(#SVGID_00000088124720422553653340000003455364138880301711_);}
	.st16{fill:url(#SVGID_00000079478529607354562840000001916739998529232792_);}
	.st17{fill:url(#SVGID_00000178899941756172756870000000759255218033889445_);}
	.st18{fill:url(#SVGID_00000080901513461166860140000001590347865067984288_);}
	.st19{fill:url(#SVGID_00000027596967714601247990000011714851450207673221_);}
	.st20{fill:url(#SVGID_00000023252531046879835920000007039167287421172375_);}
	.st21{fill:url(#SVGID_00000078754139341528899480000000490753363246683294_);}
	.st22{fill:url(#SVGID_00000178195567980653864180000003177750004377655969_);}
	.st23{fill:url(#SVGID_00000019661754340939534940000008436998799198530700_);}
	.st24{fill:url(#SVGID_00000108308111535380609530000011575673139893067937_);}
	.st25{fill:url(#SVGID_00000010304248541604028450000014086395523433815431_);}
	.st26{fill:url(#SVGID_00000075122032928111334180000005064277777810731917_);}
	.st27{fill:url(#SVGID_00000100350609879830963150000014775126652143773831_);}
	.st28{fill:url(#SVGID_00000112594662476807848880000018052726274181476767_);}
	.st29{fill:url(#SVGID_00000135684444172003386500000005127049499554604955_);}
	.st30{fill:url(#SVGID_00000168825658772227755210000009767517855743638940_);}
	.st31{fill:url(#SVGID_00000036230446225240179400000018079845777075424938_);}
	.st32{fill:url(#SVGID_00000119089508415033638830000017425712107256475054_);}
	.st33{fill:url(#SVGID_00000142141653027961791270000012436002022300986788_);}
	.st34{fill:url(#SVGID_00000140731380868428393340000010465894972739969972_);}
	.st35{fill:url(#SVGID_00000173845063211233750620000009222539589229857951_);}
	.st36{fill:url(#SVGID_00000107573910135430774990000010953734703024989570_);}
	.st37{fill:url(#SVGID_00000154391314379352044630000000636920507115316879_);}
	.st38{fill:url(#SVGID_00000119806024576155421300000007156846242673983915_);}
	.st39{fill:url(#SVGID_00000137101061636334019480000007334268497867400881_);}
	.st40{fill:url(#SVGID_00000165207838905051381640000013865305681064776088_);}
	.st41{fill:url(#SVGID_00000150079270020475957940000013323512354355500686_);}
	.st42{fill:url(#SVGID_00000033354784843078995080000010506079359252410756_);}
	.st43{fill:url(#SVGID_00000070117766369047258570000010296489695601640117_);}
	.st44{fill:url(#SVGID_00000049206696823595036240000009147629458711591102_);}
	.st45{fill:url(#SVGID_00000057141265679635423420000015360960381689409966_);}
	.st46{fill:url(#SVGID_00000057146290279326805360000001326338833424635014_);}
	.st47{fill:url(#SVGID_00000113353615387769077890000012347069061644002235_);}
	.st48{fill:url(#SVGID_00000085969801275097768280000002641182214738274492_);}
	.st49{fill:url(#SVGID_00000153702310051676106320000016680395126453672880_);}
	.st50{fill:url(#SVGID_00000173127441432515971360000011147310696511203214_);}
	.st51{fill:url(#SVGID_00000041278865610824614310000016326850924299921024_);}
</style>
<linearGradient id="SVGID_1_" gradientUnits="userSpaceOnUse" x1="209.0946" y1="558.6088" x2="909.2646" y2="558.6088">
	<stop  offset="0" style="stop-color:#7ECAB6"/>
	<stop  offset="1" style="stop-color:#15818E"/>
</linearGradient>
<path class="st1" d="M857.95,696.82c9.34-58.32-35.21-105.36-88.26-105.02c-51.94,0.33-96.26,46.59-87.02,105.01
	c-74.84,0-149.58,0-224.35,0c9.62-61.79-39.92-107.3-91.59-104.99c-50.56,2.26-93.18,47.73-84.07,104.71
	c-36.21,7.24-72.03-20.55-73.12-57.32c-0.65-21.96-0.51-43.95-0.05-65.92c0.54-26.01,22.13-47.31,48.21-47.96
	c14.34-0.35,28.69-0.24,43.03-0.01c4.3,0.07,7.17-1.12,10.03-4.5c20.87-24.76,42.38-48.98,62.87-74.05
	c15.34-18.76,34.12-27.55,58.46-27.24c50.66,0.64,101.34,0.34,152.01,0.11c17.21-0.08,32.04,5.17,45.24,16.22
	c33.52,28.06,67.5,55.57,100.76,83.94c8.63,7.36,18.67,7.41,28.38,9.27c36.31,6.95,72.74,13.23,109.1,19.95
	c24.91,4.6,41.37,24.46,41.55,49.89c0.11,16.65,0.3,33.32-0.09,49.96C908.39,676.25,884.36,698.87,857.95,696.82z M588.2,525.26
	c0,0.08,0,0.15,0,0.23c25.65,0,51.3-0.03,76.95,0.03c4.62,0.01,9-0.31,10.72-5.53c1.66-5.03-1.14-8.27-4.83-11.17
	c-23.43-18.41-46.7-37.02-70.35-55.14c-3.56-2.73-8.79-4.51-13.29-4.58c-25.41-0.43-50.83-0.27-76.25-0.18
	c-11.86,0.04-18.44,6.64-18.54,18.45c-0.1,12.47-0.05,24.95-0.02,37.43c0.03,14.28,5.94,20.4,20.04,20.45
	C537.82,525.32,563.01,525.26,588.2,525.26z M401.65,525.22c11.56,0,23.11,0.15,34.67-0.04c10.27-0.17,17.14-6.74,17.31-16.83
	c0.25-14.32,0.27-28.65-0.02-42.97c-0.19-9.41-6.93-15.98-16.3-16.41c-5.77-0.26-11.55,0.01-17.33-0.1
	c-6.23-0.11-11.11,2.39-15.1,7.08c-15.27,17.95-30.74,35.73-45.73,53.92c-2.09,2.54-3.51,7.74-2.29,10.31
	c1.24,2.6,6.08,4.68,9.44,4.85C378.06,525.59,389.86,525.24,401.65,525.22z M525.84,553.05c-3.92,0-7.85-0.21-11.76,0.04
	c-9.22,0.61-16.02,7.92-15.89,16.8c0.13,8.61,6.77,15.83,15.68,16.27c8.05,0.39,16.16,0.41,24.2-0.01c8.88-0.47,15.5-7.8,15.55-16.4
	c0.06-8.87-6.79-16.1-16.03-16.67C533.7,552.85,529.76,553.05,525.84,553.05z"/>
<path class="st0" d="M441.99,681.94c-0.14,39.42-32.85,71.69-72.48,71.51c-39.96-0.18-72.09-32.71-71.9-72.79
	c0.19-39.46,32.94-71.79,72.47-71.53C410.07,609.4,442.13,641.86,441.99,681.94z M370.05,648.03c-18.17-0.1-33.25,14.6-33.53,32.69
	c-0.28,18.44,14.59,33.67,33.06,33.87c18.08,0.2,33.32-14.67,33.52-32.69C403.31,663.37,388.44,648.14,370.05,648.03z"/>
<path class="st0" d="M770.12,609.14c39.97,0.33,71.97,32.86,71.76,72.96c-0.21,39.7-33.2,71.81-73.32,71.35
	c-39.5-0.45-71.31-33.09-71.06-72.93C697.76,641.08,730.59,608.81,770.12,609.14z M803,681.42c-0.03-18.51-15.09-33.51-33.54-33.39
	c-18.13,0.12-33,15.04-33.04,33.17c-0.05,18.42,15.03,33.43,33.54,33.39C788.01,714.56,803.03,699.49,803,681.42z"/>
</svg>
