<?xml version="1.0" encoding="utf-8"?>
<!-- Generator: Adobe Illustrator 27.3.1, SVG Export Plug-In . SVG Version: 6.00 Build 0)  -->
<svg version="1.1" id="Layer_1" xmlns="http://www.w3.org/2000/svg" xmlns:xlink="http://www.w3.org/1999/xlink" x="0px" y="0px"
	 viewBox="0 0 1080 1080" style="enable-background:new 0 0 1080 1080;" xml:space="preserve">
<style type="text/css">
	.st0{fill:url(#SVGID_1_);}
	.st1{fill:#EB382E;}
	.st2{fill:url(#SVGID_00000108305117574803173230000008570720292058879622_);}
	.st3{fill:url(#SVGID_00000157305053101765330840000007100163225603388085_);}
	.st4{fill:#FFFFFF;}
	.st5{fill:url(#SVGID_00000000935340184453107800000001357826673691684740_);}
	.st6{fill:url(#SVGID_00000064327171358951174100000013860782167773227167_);}
	.st7{fill:url(#SVGID_00000030469337919517751470000002980752124532969111_);}
	.st8{fill:url(#SVGID_00000173139481213967437170000007417553843251081129_);}
	.st9{fill:url(#SVGID_00000130647945982539976600000009511752407030064515_);}
	.st10{fill:url(#SVGID_00000065058060247702655330000007734574464996760965_);}
	.st11{fill:url(#SVGID_00000106139147259046932070000002940546172989499041_);}
	.st12{fill:url(#SVGID_00000160187192951735607420000004539428774720578213_);}
	.st13{fill:url(#SVGID_00000180358983239160430430000007564856821230175641_);}
	.st14{fill:url(#SVGID_00000042722290844557436570000004210563571103741584_);}
	.st15{fill:url(#SVGID_00000085946386071548208940000016587898679265507461_);}
	.st16{fill:url(#SVGID_00000126283320340525574600000014857066599263431060_);}
	.st17{fill:url(#SVGID_00000139286475362014186240000000827961562896140171_);}
	.st18{fill:url(#SVGID_00000036223906103928573790000017749654808792380039_);}
	.st19{fill:url(#SVGID_00000138544340656032711440000004463361611925447297_);}
	.st20{fill:url(#SVGID_00000043446615335297044480000015865602335415251852_);}
	.st21{fill:url(#SVGID_00000131333082024108948600000010736971802473248444_);}
	.st22{fill:url(#SVGID_00000138565330067688297370000014889218397238826385_);}
	.st23{fill:url(#SVGID_00000000944354941469507280000001307756283765484695_);}
	.st24{fill:url(#SVGID_00000115490371761050537350000005590647730203908284_);}
	.st25{fill:url(#SVGID_00000150078167494458901480000001075317441332522115_);}
	.st26{fill:url(#SVGID_00000054258605561034621630000002581491478862640512_);}
</style>
<linearGradient id="SVGID_1_" gradientUnits="userSpaceOnUse" x1="307.0243" y1="610.2731" x2="613.4719" y2="610.2731">
	<stop  offset="0" style="stop-color:#7ECAB6"/>
	<stop  offset="1" style="stop-color:#15818E"/>
</linearGradient>
<path class="st0" d="M460.31,477.62c43.97,0,87.94-0.01,131.91,0c15.01,0,21.23,6.16,21.23,21.09
	c0.02,63.12,0.05,126.23-0.01,189.35c-0.03,27.65-15.84,48.3-41.13,53.7c-4.42,0.94-9.07,1.1-13.62,1.11
	c-65.67,0.07-131.33,0.09-197,0.03c-27.18-0.02-47.46-15.33-53.17-40.2c-1.1-4.78-1.42-9.82-1.43-14.75
	c-0.09-63.12-0.07-126.23-0.05-189.35c0-14.57,6.34-20.97,20.8-20.97C371.99,477.61,416.15,477.62,460.31,477.62z M441.81,711.56
	c0.31,0.14,0.61,0.28,0.92,0.42c22.42-39.67,44.85-79.33,67.96-120.22c-13.75,0-25.95,0-38.68,0c10.38-23.03,20.4-45.25,30.83-68.38
	c-14.07,0-26.79,0.15-39.5-0.09c-3.83-0.07-5.66,1.25-7.27,4.7c-14.51,31.01-29.23,61.92-43.86,92.87c-0.69,1.46-1.18,3.02-2.05,5.3
	c14.64,0,28.47,0,42.93,0C449.27,655.04,445.54,683.3,441.81,711.56z"/>
<path class="st1" d="M436.22,760.12c11.06,0,21.47-0.15,31.88,0.18c1.33,0.04,3.15,2.31,3.8,3.93
	c9.23,22.96,25.95,36.54,50.31,40.58c3.17,0.52,6.44,0.56,9.67,0.57c40.72,0.04,81.44,0.07,122.15,0.01
	c37.42-0.06,64.13-27.13,64.11-64.73c-0.03-58.14-0.01-116.27-0.01-174.41c0-2.07,0-4.13,0-6.6c11.39,0,22.29,0,33.63,0
	c0.09,1.9,0.25,3.75,0.25,5.6c0.01,58.52,0.06,117.04,0,175.55c-0.05,49.48-32.68,88.52-81.22,97.13c-5.4,0.96-10.98,1.19-16.48,1.2
	c-40.91,0.1-81.82,0.14-122.72,0.03c-45.04-0.12-82.73-29.18-94.02-72.31C437.05,764.88,436.76,762.85,436.22,760.12z"/>
<path class="st1" d="M684.47,418.85c34.13,0,67.38,0,101.37,0c0.09,1.87,0.24,3.68,0.24,5.49c0.01,32.4,0.03,64.8,0,97.2
	c-0.01,13.68-6.73,20.41-20.3,20.43c-20.55,0.02-41.09,0.03-61.64,0c-12.95-0.02-19.65-6.73-19.66-19.73
	c-0.04-32.59-0.01-65.18-0.01-97.77C684.47,422.78,684.47,421.09,684.47,418.85z"/>
<linearGradient id="SVGID_00000130610531707289808380000016324011589028412578_" gradientUnits="userSpaceOnUse" x1="338.5338" y1="445.676" x2="582.0414" y2="445.676">
	<stop  offset="0" style="stop-color:#7ECAB6"/>
	<stop  offset="1" style="stop-color:#15818E"/>
</linearGradient>
<path style="fill:url(#SVGID_00000130610531707289808380000016324011589028412578_);" d="M338.63,459.98
	c0-4.57-0.24-8.76,0.05-12.92c0.49-7.07,6.04-13.35,13.07-14.77c2.95-0.6,6.05-0.67,9.07-0.67c65.09-0.04,130.18,0.34,195.27-0.24
	c20.69-0.19,28.02,7.79,25.45,28.61C500.85,459.98,420.1,459.98,338.63,459.98z"/>
<linearGradient id="SVGID_00000132071434960843270110000004601392394622581141_" gradientUnits="userSpaceOnUse" x1="370.8699" y1="351.3982" x2="417.3019" y2="351.3982">
	<stop  offset="0" style="stop-color:#7ECAB6"/>
	<stop  offset="1" style="stop-color:#15818E"/>
</linearGradient>
<path style="fill:url(#SVGID_00000132071434960843270110000004601392394622581141_);" d="M417.22,414.07c-15.59,0-30.56,0-45.98,0
	c-0.12-1.88-0.33-3.54-0.33-5.19c-0.02-32.01-0.1-64.02,0.02-96.03c0.06-16.25,12.02-26.31,27.76-23.72
	c10.04,1.65,18.23,9.68,18.36,20.38C417.49,344.15,417.22,378.8,417.22,414.07z"/>
<linearGradient id="SVGID_00000147197991390726552360000016509796599623609264_" gradientUnits="userSpaceOnUse" x1="503.2556" y1="351.3022" x2="549.7819" y2="351.3022">
	<stop  offset="0" style="stop-color:#7ECAB6"/>
	<stop  offset="1" style="stop-color:#15818E"/>
</linearGradient>
<path style="fill:url(#SVGID_00000147197991390726552360000016509796599623609264_);" d="M549.2,414.05c-15.13,0-30.1,0-45.33,0
	c-0.21-1.18-0.56-2.25-0.56-3.33c-0.03-32.96-0.09-65.93,0.02-98.89c0.03-10.37,5.67-18.36,14.7-21.7
	c9.27-3.43,20.3-1.27,25.87,6.47c3.05,4.23,5.54,9.97,5.61,15.07c0.48,33.53,0.23,67.07,0.2,100.6
	C549.69,412.63,549.5,412.98,549.2,414.05z"/>
<path class="st1" d="M763.54,360.48c0,13.62,0,27.01,0,40.7c-19,0-37.71,0-56.79,0c0-13.48,0-26.88,0-40.7
	C725.57,360.48,744.4,360.48,763.54,360.48z"/>
</svg>
