<?xml version="1.0" encoding="utf-8"?>
<!-- Generator: Adobe Illustrator 27.3.1, SVG Export Plug-In . SVG Version: 6.00 Build 0)  -->
<svg version="1.1" id="Layer_1" xmlns="http://www.w3.org/2000/svg" xmlns:xlink="http://www.w3.org/1999/xlink" x="0px" y="0px"
	 viewBox="0 0 1080 1080" style="enable-background:new 0 0 1080 1080;" xml:space="preserve">
<style type="text/css">
	.st0{fill:#EB382E;}
	.st1{fill:url(#SVGID_1_);}
	.st2{fill:url(#SVGID_00000181080098277985731060000008030625098656661925_);}
	.st3{fill:url(#SVGID_00000076579800248669098510000005131660687987172788_);}
	.st4{fill:url(#SVGID_00000082358793203532707180000006501668006257180065_);}
	.st5{fill:url(#SVGID_00000048479397835992018980000003567603938498455198_);}
	.st6{fill:#FFFFFF;}
	.st7{fill:url(#SVGID_00000106837657652690514080000008454648685614434952_);}
	.st8{fill:url(#SVGID_00000040564498911006721730000014874366293853907085_);}
	.st9{fill:url(#SVGID_00000066503222740480377710000017082197962006086283_);}
	.st10{fill:url(#SVGID_00000038410382804238561330000011000349396258454681_);}
	.st11{fill:url(#SVGID_00000088092270785797521930000009205973720588318363_);}
	.st12{fill:url(#SVGID_00000150796859274103897830000018390697751437743238_);}
	.st13{fill:url(#SVGID_00000170260243714468681380000017404583342959571851_);}
	.st14{fill:url(#SVGID_00000072962797442448344560000001238029829084102797_);}
	.st15{fill:url(#SVGID_00000168796414096805127440000000482952969456564894_);}
	.st16{fill:url(#SVGID_00000028324970242376752510000013491407509668225200_);}
	.st17{fill:url(#SVGID_00000127727340867013246140000018346299529148545946_);}
	.st18{fill:url(#SVGID_00000049198878913636023440000000680861817747613579_);}
	.st19{fill:url(#SVGID_00000155855903961146910700000010749669038825250480_);}
	.st20{fill:url(#SVGID_00000136406560131952415000000000247194021567175325_);}
	.st21{fill:url(#SVGID_00000114046203541344156130000012523746505914875548_);}
	.st22{fill:url(#SVGID_00000068647665856936848450000000110342009394025857_);}
	.st23{fill:url(#SVGID_00000121269833270248649010000003243229375830329782_);}
	.st24{fill:url(#SVGID_00000073716190945321658210000007146420957655948421_);}
	.st25{fill:url(#SVGID_00000070811455615132158360000005438508667258377106_);}
	.st26{fill:url(#SVGID_00000125590238233927936460000008024353321909597620_);}
	.st27{fill:url(#SVGID_00000153672982636612331120000009005173324356820904_);}
	.st28{fill:url(#SVGID_00000075127688046914892730000002381713344218685869_);}
	.st29{fill:url(#SVGID_00000103251348265237301730000009718466491584365757_);}
	.st30{fill:url(#SVGID_00000170261844005201260650000009247325203268721341_);}
	.st31{fill:url(#SVGID_00000149376418293614699970000000584223494956064946_);}
	.st32{fill:url(#SVGID_00000062902303519765436310000016122686042015249571_);}
	.st33{fill:url(#SVGID_00000090980843110203493630000016831077677943594170_);}
	.st34{fill:url(#SVGID_00000147222169279537294260000001708554145886941083_);}
	.st35{fill:url(#SVGID_00000162341618899229646790000017963334888128758959_);}
	.st36{fill:url(#SVGID_00000036223011087695808870000000745696026699309487_);}
	.st37{fill:url(#SVGID_00000016036921909151430850000015555002670813941387_);}
	.st38{fill:url(#SVGID_00000180361681729801257350000001430074689437593255_);}
	.st39{fill:url(#SVGID_00000158015441502979327810000004312351104601452716_);}
	.st40{fill:url(#SVGID_00000098218714218278248180000001555677477407693759_);}
	.st41{fill:url(#SVGID_00000066495417090836886370000015573517103380818606_);}
	.st42{fill:url(#SVGID_00000003069997526341634250000001912973605181751457_);}
	.st43{fill:url(#SVGID_00000170974869300206892260000014630044844215906988_);}
	.st44{fill:url(#SVGID_00000022538129025790982120000017159331248192477065_);}
	.st45{fill:url(#SVGID_00000050651580495366279840000012240562764981654420_);}
	.st46{fill:url(#SVGID_00000156561954513713004540000003544428999412759469_);}
	.st47{fill:url(#SVGID_00000132057024872134175790000016224375699351968679_);}
	.st48{fill:url(#SVGID_00000162349540698362330360000013708525347293585087_);}
	.st49{fill:url(#SVGID_00000177453768951521135470000006452709011288428699_);}
	.st50{fill:url(#SVGID_00000132800587878440234140000012700939178226624130_);}
	.st51{fill:url(#SVGID_00000119108463815200804900000011978122168350495884_);}
</style>
<linearGradient id="SVGID_1_" gradientUnits="userSpaceOnUse" x1="324.9611" y1="578.7051" x2="808.9958" y2="578.7051">
	<stop  offset="0" style="stop-color:#7ECAB6"/>
	<stop  offset="1" style="stop-color:#15818E"/>
</linearGradient>
<path class="st1" d="M809,493.53c-5.99,7.91-11.86,15.92-18.03,23.69c-3.31,4.17-7.22,4.06-12.46,0.27
	c-25.68-18.56-51.55-36.86-76.92-55.83c-7.76-5.81-15.48-8.3-25.14-8.06c-23.01,0.58-46.05,0.18-69.07,0.19
	c-8.03,0-10.36,2.36-10.37,10.44c-0.01,73.81,0,147.62,0,221.43c0,7.05,1.08,8.54,7.89,11.02c27.21,9.93,54.43,19.84,81.64,29.78
	c8.21,3,8.89,4.02,8.9,12.71c0,5.2,0.03,10.41-0.01,15.61c-0.06,6.75-2.7,9.39-9.52,9.4c-33.28,0.02-66.56,0.01-99.83,0.01
	c-45.74,0-91.47,0-137.21,0c-8.65,0-10.82-2.2-10.83-10.94c-0.01-5.36-0.02-10.72,0-16.09c0.02-6.26,1.21-7.95,7.1-10.1
	c27.51-10.03,55.02-20.04,82.52-30.08c8.26-3.02,8.8-3.87,8.8-12.75c0-73.02,0-146.04,0-219.06c0-9.36-2.02-11.39-11.32-11.39
	c-24.92,0-49.84,0.1-74.76-0.09c-4.99-0.04-9.02,1.21-13.07,4.18c-26.94,19.77-54.03,39.35-81.08,58.97
	c-7.58,5.5-10.33,5.07-15.95-2.4c-4.26-5.67-8.56-11.32-12.76-17.03c-3.76-5.1-3.41-8.81,1.4-12.66
	c37.03-29.68,74.09-59.34,111.23-88.88c1.82-1.45,4.52-2.53,6.81-2.54c36.59-0.15,73.18-0.11,109.77-0.1c0.61,0,1.22,0.11,2.44,0.22
	c0,2.04,0,4.03,0,6.01c0,94.47,0,188.94,0,283.41c0,1.1-0.01,2.21,0,3.31c0.04,6.46,2.66,9.87,7.57,9.87c4.91,0,7.57-3.42,7.57-9.88
	c0.01-95.42,0.01-190.83,0.01-286.25c0-2.02,0-4.05,0-6.44c1.83-0.09,3.35-0.23,4.87-0.23c35.17-0.01,70.34-0.11,105.51,0.15
	c3.45,0.03,7.54,1.42,10.24,3.56c36.59,28.96,73,58.16,109.43,87.34c1.67,1.34,3.1,2.99,4.65,4.49C809,490.38,809,491.95,809,493.53
	z"/>
<path class="st0" d="M612.15,468.93c24.21,0,47.7-0.04,71.19,0.08c1.56,0.01,3.34,0.85,4.65,1.8c26.94,19.5,53.84,39.05,80.71,58.64
	c6.49,4.73,6.89,8.14,1.89,14.51c-5.06,6.45-10.12,12.9-15.25,19.29c-3.8,4.74-7.05,5.32-12.27,2.09
	c-11.38-7.05-22.73-14.17-34.06-21.3c-3.07-1.93-6.13-3.32-9.69-1.3c-3.54,2.01-3.92,5.34-3.92,8.98c0.03,49.2,0.03,98.4,0.02,147.6
	c0,10.07-3.94,12.84-13.33,9.41c-22.03-8.05-44.04-16.13-66.1-24.09c-2.67-0.96-3.93-2.07-3.93-5.25
	c0.11-68.91,0.08-137.82,0.08-206.73C612.15,471.59,612.15,470.52,612.15,468.93z"/>
<path class="st0" d="M521.3,468.93c0,2.16,0,3.71,0,5.26c0,67.97-0.04,135.95,0.1,203.92c0.01,4.03-1.3,5.63-4.96,6.93
	c-21.96,7.78-43.82,15.84-65.72,23.78c-8.45,3.06-12.69,0.08-12.69-8.92c-0.01-49.36,0.03-98.73-0.1-148.09
	c-0.01-2.65-0.64-5.87-2.22-7.83c-2.94-3.66-6.89-2.88-10.62-0.53c-11.21,7.04-22.44,14.04-33.68,21.04
	c-6.67,4.15-9.2,3.72-14.01-2.37c-5.09-6.43-10.18-12.86-15.17-19.36c-4.01-5.22-3.5-9.01,1.78-12.85
	c27.15-19.75,54.33-39.46,81.54-59.14c1.21-0.87,2.78-1.76,4.19-1.76C473.38,468.9,497.01,468.93,521.3,468.93z"/>
<linearGradient id="SVGID_00000015341967466799838870000005733240354623357590_" gradientUnits="userSpaceOnUse" x1="513.701" y1="370.391" x2="558.9197" y2="370.391">
	<stop  offset="0" style="stop-color:#7ECAB6"/>
	<stop  offset="1" style="stop-color:#15818E"/>
</linearGradient>
<path style="fill:url(#SVGID_00000015341967466799838870000005733240354623357590_);" d="M558.92,362.98c0,5.3,0,9.97,0,14.86
	c-14.99,0-29.75,0-45.11,0c0-2.76-0.29-5.56,0.07-8.27c0.51-3.89,3.01-6.46,6.94-6.52C533.4,362.86,545.99,362.98,558.92,362.98z"/>
<linearGradient id="SVGID_00000040575622121705493010000016338573775645151935_" gradientUnits="userSpaceOnUse" x1="574.6523" y1="370.376" x2="619.728" y2="370.376">
	<stop  offset="0" style="stop-color:#7ECAB6"/>
	<stop  offset="1" style="stop-color:#15818E"/>
</linearGradient>
<path style="fill:url(#SVGID_00000040575622121705493010000016338573775645151935_);" d="M619.72,377.83c-15.18,0-29.95,0-45.07,0
	c0-4.74,0-9.52,0-14.9c8.57,0,17.18,0,25.79,0c3.31,0,6.62-0.03,9.93,0.01c6.53,0.07,9.23,2.71,9.33,9.11
	C619.74,373.9,619.72,375.75,619.72,377.83z"/>
</svg>
