<?xml version="1.0" encoding="utf-8"?>
<!-- Generator: Adobe Illustrator 27.3.1, SVG Export Plug-In . SVG Version: 6.00 Build 0)  -->
<svg version="1.1" id="Layer_1" xmlns="http://www.w3.org/2000/svg" xmlns:xlink="http://www.w3.org/1999/xlink" x="0px" y="0px"
	 viewBox="0 0 1080 1080" style="enable-background:new 0 0 1080 1080;" xml:space="preserve">
<style type="text/css">
	.st0{fill:#EB382E;}
	.st1{fill:url(#SVGID_1_);}
	.st2{fill:url(#SVGID_00000111193021570290390070000016079284940574498218_);}
	.st3{fill:url(#SVGID_00000128485546119833032910000005274100976181127559_);}
	.st4{fill:url(#SVGID_00000163059434416066689180000018196593700038992306_);}
	.st5{fill:url(#SVGID_00000029753801086735138240000011239304430003734181_);}
	.st6{fill:url(#SVGID_00000124845788809776545030000000631003664134255036_);}
	.st7{fill:url(#SVGID_00000111875050667971295210000010174628978272692126_);}
	.st8{fill:url(#SVGID_00000070083060012562241270000007408478467307176353_);}
	.st9{fill:url(#SVGID_00000155838506828226799110000010755917601484710534_);}
	.st10{fill:url(#SVGID_00000010295263039849230900000014506441301733572229_);}
	.st11{fill:url(#SVGID_00000155864590014649312950000007062398946130101179_);}
	.st12{fill:url(#SVGID_00000135658126237856479080000011584100086270725548_);}
	.st13{fill:url(#SVGID_00000157306057160353483440000017087918113939490467_);}
	.st14{fill:url(#SVGID_00000088092876341334142200000013586513642142598574_);}
	.st15{fill:url(#SVGID_00000028284323177603950710000014032393606122049949_);}
	.st16{fill:url(#SVGID_00000073711653972732063370000013985850851781782920_);}
	.st17{fill:url(#SVGID_00000011745555882740748650000007740348246979133617_);}
	.st18{fill:url(#SVGID_00000078736513966821155170000016808096595882132405_);}
	.st19{fill:url(#SVGID_00000057832448855901303940000004706288364261501322_);}
	.st20{fill:url(#SVGID_00000048468316598989969370000013635273212919095998_);}
	.st21{fill:url(#SVGID_00000037662667744908757960000012737090010759972766_);}
	.st22{fill:url(#SVGID_00000062903635788455819000000004877892497885876646_);}
	.st23{fill:url(#SVGID_00000176744178638798434900000016337912919999426238_);}
	.st24{fill:url(#SVGID_00000088113340792452386430000007528267735715534763_);}
	.st25{fill:url(#SVGID_00000013898040184191401370000010579973805205583766_);}
	.st26{fill:url(#SVGID_00000129920282569308295170000013743166534173513114_);}
	.st27{fill:url(#SVGID_00000111892711775473172700000007011190754993867695_);}
	.st28{fill:url(#SVGID_00000129884394721144594740000016985862600146880955_);}
	.st29{fill:url(#SVGID_00000036955953434318803660000002307171921422819468_);}
	.st30{fill:url(#SVGID_00000175307647960673175970000007681672244394936467_);}
	.st31{fill:url(#SVGID_00000064346508675712494800000012647119036827671473_);}
	.st32{fill:url(#SVGID_00000136396119904139802880000010781030716098498977_);}
	.st33{fill:url(#SVGID_00000009580446744458219660000003308971850522074777_);}
	.st34{fill:url(#SVGID_00000087412853792534166360000003541750081427504826_);}
	.st35{fill:url(#SVGID_00000086682578111662945790000013401887064060356254_);}
	.st36{fill:url(#SVGID_00000142869288080386850340000002545765226174695089_);}
	.st37{fill:#FFFFFF;}
	.st38{stroke:#000000;stroke-width:6;stroke-miterlimit:10;}
	.st39{fill:url(#SVGID_00000143608074736229425980000007415373124196324786_);}
	.st40{fill:url(#SVGID_00000082352350538893727960000000662211551006201778_);}
	.st41{fill:url(#SVGID_00000103953163844121040730000010016103180482456214_);}
</style>
<path class="st0" d="M653.39,335.22c7.68,3.32,10.73,9.13,10.24,17.46c-0.44,7.44-0.04,14.93-0.11,22.4
	c-0.08,8.24-5.86,14.26-13.54,14.25c-7.67-0.02-13.39-6.06-13.49-14.31c-0.05-4.06-0.01-8.13-0.01-12.46c-49.65,0-99.02,0-148.61,0
	c0,35.84,0,71.58,0,107.98c3.38,0,6.83,0,10.28,0c4.51,0,9.02,0,13.53,0c11.73,0,16.55,4.88,16.55,16.76c0,3.09,0,6.19,0,10.15
	c1.7-1.21,2.9-2.03,4.06-2.89c9.02-6.76,17.85-13.78,27.15-20.14c3.16-2.16,7.44-3.65,11.24-3.71c20.29-0.36,40.58-0.17,60.88-0.17
	c1.51,0,3.03,0,4.92,0c0-1.93,0-3.44,0-4.95c0-16.07-0.03-32.13,0.01-48.2c0.03-8.54,5.82-14.6,13.7-14.49
	c7.66,0.1,13.31,6.14,13.33,14.46c0.05,21.98,0.06,43.97-0.01,65.95c-0.02,8.66-5.66,14.25-14.36,14.26
	c-23.82,0.05-47.63-0.06-71.45,0.13c-2.57,0.02-5.55,0.98-7.62,2.49c-15.46,11.32-30.74,22.87-46.05,34.38
	c-3.66,2.75-7.59,4.33-12.21,3.28c-6.32-1.44-10.56-6.74-10.63-13.49c-0.09-8.72-0.02-17.45-0.02-26.78c-6.9,0-13.63-0.36-20.3,0.07
	c-15.55,1.02-20.65-5.22-20.47-20.29c0.5-41.57,0.31-83.14,0.06-124.71c-0.05-8.28,2.52-14.16,10.26-17.43
	C531.61,335.22,592.5,335.22,653.39,335.22z"/>
<linearGradient id="SVGID_1_" gradientUnits="userSpaceOnUse" x1="582.3661" y1="680.2515" x2="785.3099" y2="680.2515">
	<stop  offset="0" style="stop-color:#7ECAB6"/>
	<stop  offset="1" style="stop-color:#15818E"/>
</linearGradient>
<path class="st1" d="M785.31,758.05c-0.53,0.96-1.06,1.92-1.59,2.89c-2.93,5.36-8.89,8.23-14.57,7.01
	c-6.15-1.31-10.69-6.53-10.84-12.89c-0.16-6.9-0.05-13.81-0.05-20.71c0-32.98,0-65.95,0-98.93c0-10.94-5.09-16.05-15.99-16.06
	c-12.68-0.01-25.37,0.15-38.05-0.07c-5.63-0.1-9.98,1.83-13.87,5.83c-9.53,9.79-19.37,19.29-28.91,29.08
	c-3.9,4-8.24,5.95-13.88,5.82c-9.86-0.24-19.73-0.08-29.59-0.06c-5.39,0.01-8.45,2.45-8.52,6.66c-0.07,4.24,3.03,6.85,8.32,6.86
	c16.91,0.03,33.82,0.07,50.73-0.08c1.72-0.02,3.71-0.99,5.07-2.12c2.7-2.24,4.97-4.99,7.56-7.38c5.5-5.06,13.51-4.98,18.72,0.06
	c5.31,5.14,5.45,13.33,0.32,19.04c-0.19,0.21-0.36,0.45-0.59,0.61c-8.19,5.46-10.07,13.23-9.12,22.6c0.69,6.84,0.19,13.8,0.12,20.7
	c-0.09,8.22-5.9,14.24-13.58,14.21c-7.67-0.04-13.39-6.08-13.44-14.35c-0.06-8.57-0.01-17.14-0.01-26.23c-2.77,0-5.26,0-7.75,0
	c-12.82,0-25.65,0.04-38.47-0.01c-19.92-0.08-35.06-14.86-34.95-34.07c0.1-18.96,15.24-33.48,35.03-33.56
	c7.89-0.03,15.79,0.16,23.67-0.12c1.97-0.07,4.34-1.08,5.76-2.45c8.52-8.21,16.87-16.6,25.18-25.04
	c8.67-8.81,19.08-13.12,31.44-13.01c12.96,0.11,25.93,0.02,38.89,0.03c22.23,0.02,37.2,11.93,42.32,33.65
	c0.09,0.37,0.43,0.68,0.66,1.02C785.31,670.67,785.31,714.36,785.31,758.05z"/>
<linearGradient id="SVGID_00000156585105595099330200000002191219570613155986_" gradientUnits="userSpaceOnUse" x1="352.3242" y1="680.2391" x2="555.2732" y2="680.2391">
	<stop  offset="0" style="stop-color:#7ECAB6"/>
	<stop  offset="1" style="stop-color:#15818E"/>
</linearGradient>
<path style="fill:url(#SVGID_00000156585105595099330200000002191219570613155986_);" d="M474.09,700.54
	c0,9.42,0.14,18.41-0.04,27.39c-0.16,7.56-6.34,13.32-13.71,13.19c-7.18-0.12-12.95-5.88-13.27-13.25
	c-0.06-1.41-0.02-2.82-0.02-4.23c0-9.16,0.16-18.32-0.12-27.48c-0.06-2.09-1.28-4.4-2.6-6.13c-1.86-2.45-4.34-4.41-6.48-6.66
	c-5.49-5.79-5.53-13.99-0.14-19.33c5.4-5.34,14.17-5.76,19.17,0.47c6.26,7.81,13.68,9.65,23.14,9.14
	c13.21-0.7,26.48-0.16,39.73-0.19c5.32-0.01,8.43-2.55,8.44-6.75c0-4.22-3.09-6.75-8.42-6.76c-10.29-0.03-20.58-0.08-30.86,0.02
	c-4.66,0.05-8.44-1.54-11.71-4.84c-10.11-10.22-20.37-20.29-30.45-30.54c-3.59-3.65-7.67-5.36-12.81-5.3
	c-12.96,0.15-25.93,0.04-38.89,0.05c-10.43,0.01-15.66,5.17-15.66,15.51c-0.01,39.04,0.01,78.07-0.03,117.11
	c0,2.23-0.09,4.55-0.71,6.66c-1.81,6.25-7.9,10.18-14.25,9.48c-6.3-0.69-11.44-5.94-12.01-12.3c-0.11-1.26-0.06-2.53-0.06-3.8
	c0-38.89-0.01-77.79,0-116.68c0.01-25.75,17.2-43,42.85-43.03c12.96-0.01,25.93,0.1,38.89-0.03c12.53-0.13,23.03,4.25,31.78,13.21
	c8.27,8.47,16.65,16.83,25.16,25.06c1.33,1.28,3.58,2.19,5.43,2.25c8.31,0.24,16.63,0.03,24.94,0.13
	c19.01,0.23,33.9,15.15,33.88,33.85c-0.02,18.69-14.93,33.59-33.99,33.75C505.79,700.64,490.29,700.54,474.09,700.54z"/>
<linearGradient id="SVGID_00000085250536126409531150000018284181414450384012_" gradientUnits="userSpaceOnUse" x1="365.7425" y1="524.7115" x2="460.4989" y2="524.7115">
	<stop  offset="0" style="stop-color:#7ECAB6"/>
	<stop  offset="1" style="stop-color:#15818E"/>
</linearGradient>
<path style="fill:url(#SVGID_00000085250536126409531150000018284181414450384012_);" d="M365.89,523.02
	c-0.92-13.17,2.52-26.12,12.37-37.02c12.7-14.05,33.11-19.14,50.98-12.69c18.08,6.53,30.85,23.61,31.17,42.67
	c0.15,8.95,0.34,18.18-1.57,26.83c-5.09,23.04-27.56,38.47-50.36,35.75c-24.24-2.89-42.06-22.26-42.59-46.3
	C365.84,529.58,365.89,526.91,365.89,523.02z M392.94,524.49c0,2.53-0.08,5.07,0.01,7.6c0.4,10.96,9.41,19.63,20.32,19.6
	c10.91-0.03,19.87-8.7,20.2-19.72c0.15-4.92,0.16-9.86-0.01-14.78c-0.36-10.99-9.38-19.63-20.31-19.6
	c-10.91,0.03-19.84,8.72-20.21,19.72C392.87,519.7,392.94,522.1,392.94,524.49z"/>
<linearGradient id="SVGID_00000120530551368467204470000000944350757423990696_" gradientUnits="userSpaceOnUse" x1="676.9928" y1="524.6362" x2="771.8864" y2="524.6362">
	<stop  offset="0" style="stop-color:#7ECAB6"/>
	<stop  offset="1" style="stop-color:#15818E"/>
</linearGradient>
<path style="fill:url(#SVGID_00000120530551368467204470000000944350757423990696_);" d="M771.73,525.82
	c0.95,13.58-2.51,26.67-12.52,37.65c-12.54,13.76-32.81,19.1-50.21,12.61c-19.07-7.1-30.04-21.08-31.62-41.34
	c-0.74-9.43-0.53-19.31,1.48-28.49c4.98-22.76,27.36-38.05,50.11-35.53c23.96,2.64,42.05,21.98,42.74,45.72
	C771.81,519.25,771.73,522.06,771.73,525.82z M745.06,524.59c-0.12-0.01-0.24-0.02-0.37-0.03c0-2.53,0.1-5.07-0.02-7.6
	c-0.49-10.77-9.39-19.31-20.13-19.36c-10.92-0.05-20.01,8.59-20.37,19.54c-0.17,5.06-0.18,10.14,0.01,15.2
	c0.36,9.92,8.16,18.16,18.01,19.27c9.86,1.11,19.33-5.18,21.67-14.9C744.8,532.8,744.69,528.64,745.06,524.59z"/>
<linearGradient id="SVGID_00000093176920264583109370000010465000162561384606_" gradientUnits="userSpaceOnUse" x1="487.6539" y1="727.6089" x2="595.8643" y2="727.6089">
	<stop  offset="0" style="stop-color:#7ECAB6"/>
	<stop  offset="1" style="stop-color:#15818E"/>
</linearGradient>
<path style="fill:url(#SVGID_00000093176920264583109370000010465000162561384606_);" d="M541.6,741.14
	c-12.96,0-25.93,0.02-38.89-0.01c-8.93-0.02-15.09-5.61-15.05-13.59c0.04-8,6.14-13.45,15.16-13.46c25.93-0.02,51.85-0.01,77.78,0
	c9.05,0,15.19,5.4,15.27,13.36c0.09,8.13-6.11,13.67-15.38,13.68C567.52,741.15,554.56,741.14,541.6,741.14z"/>
<linearGradient id="SVGID_00000162325166293729817730000004877423296834406294_" gradientUnits="userSpaceOnUse" x1="609.4289" y1="727.5618" x2="649.9874" y2="727.5618">
	<stop  offset="0" style="stop-color:#7ECAB6"/>
	<stop  offset="1" style="stop-color:#15818E"/>
</linearGradient>
<path style="fill:url(#SVGID_00000162325166293729817730000004877423296834406294_);" d="M629.63,741.1c-2.53,0-5.08,0.15-7.6-0.03
	c-7.08-0.49-12.59-6.44-12.6-13.45c-0.01-7.06,5.42-13.09,12.53-13.46c5.2-0.27,10.43-0.28,15.63,0.01
	c6.89,0.39,12.28,6.34,12.4,13.18c0.12,7.02-5.27,13.1-12.33,13.69c-2.66,0.22-5.35,0.04-8.02,0.04
	C629.63,741.09,629.63,741.1,629.63,741.1z"/>
</svg>
