<?xml version="1.0" encoding="utf-8"?>
<!-- Generator: Adobe Illustrator 27.3.1, SVG Export Plug-In . SVG Version: 6.00 Build 0)  -->
<svg version="1.1" id="Layer_1" xmlns="http://www.w3.org/2000/svg" xmlns:xlink="http://www.w3.org/1999/xlink" x="0px" y="0px"
	 viewBox="0 0 1080 1080" style="enable-background:new 0 0 1080 1080;" xml:space="preserve">
<style type="text/css">
	.st0{fill:url(#SVGID_1_);}
	.st1{fill:#EB382E;}
	.st2{fill:url(#SVGID_00000129890302645221109640000007087359045406884502_);}
	.st3{fill:url(#SVGID_00000089534145832936137060000011403968686779928766_);}
	.st4{fill:#FFFFFF;}
	.st5{fill:url(#SVGID_00000073702308507809939060000003152086468699230390_);}
	.st6{fill:url(#SVGID_00000168817508737100894090000012306138568567313334_);}
	.st7{fill:url(#SVGID_00000096750386956072306530000014578806216343393413_);}
	.st8{fill:url(#SVGID_00000150078573361144713550000013957231573933644210_);}
	.st9{fill:url(#SVGID_00000108996617579989653640000005047177891910158490_);}
	.st10{fill:url(#SVGID_00000153676537726086613330000006434461597652515233_);}
	.st11{fill:url(#SVGID_00000109001142726712418600000001251596610275994515_);}
	.st12{fill:url(#SVGID_00000118355295542078990990000007698074748120480922_);}
	.st13{fill:url(#SVGID_00000070825035518612556990000017730411124955811485_);}
	.st14{fill:url(#SVGID_00000163058749221890670620000004069679632132137603_);}
	.st15{fill:url(#SVGID_00000067950130712751180420000005496520191720343978_);}
	.st16{fill:url(#SVGID_00000132075070265353316600000000349294196879118499_);}
	.st17{fill:url(#SVGID_00000031885918612602566120000012910068491141912195_);}
	.st18{fill:url(#SVGID_00000159429439747813397360000001924884086233248685_);}
	.st19{fill:url(#SVGID_00000096034905433690385120000005318435420611194293_);}
	.st20{fill:url(#SVGID_00000037668498576416737190000015869197301392903856_);}
	.st21{fill:url(#SVGID_00000064314105388920961440000010607338448104569990_);}
	.st22{fill:url(#SVGID_00000054235721762724180860000012841788087350085277_);}
	.st23{fill:url(#SVGID_00000020389143835693648170000011172865765116598416_);}
	.st24{fill:url(#SVGID_00000128460597171643839050000008069720247728939398_);}
	.st25{fill:url(#SVGID_00000083811057124972052260000002972319739988553866_);}
	.st26{fill:url(#SVGID_00000099653809627083739250000009032459731817564580_);}
</style>
<linearGradient id="SVGID_1_" gradientUnits="userSpaceOnUse" x1="266.2188" y1="552.0319" x2="627.9857" y2="552.0319">
	<stop  offset="0" style="stop-color:#7ECAB6"/>
	<stop  offset="1" style="stop-color:#15818E"/>
</linearGradient>
<path class="st0" d="M335.06,276.64c74.57,0,149.15,0,223.72,0c0.63,0.29,1.24,0.73,1.9,0.86c35.82,6.84,58.3,33.93,58.33,70.38
	c0.02,19.9-0.09,39.79,0.13,59.69c0.03,2.3,1.72,4.61,2.72,6.88c1.89,4.3,5.03,8.45,5.49,12.88c0.88,8.51,0.56,17.2,0.1,25.78
	c-0.18,3.4-1.07,7.95-3.38,9.8c-5.77,4.63-5.13,10.41-5.07,16.4c0.05,4.84-0.3,9.71,0.14,14.51c0.22,2.34,1.87,4.55,2.86,6.82
	c1.87,4.31,4.89,8.5,5.35,12.95c0.87,8.33,0.81,16.88,0.01,25.23c-0.41,4.31-2.48,9.03-5.24,12.37c-2.29,2.77-3.16,5.12-3.16,8.46
	c0.06,66.32,0.16,132.65-0.01,198.97c-0.09,37.71-30.33,68.49-67.75,68.63c-69.55,0.26-139.1,0.22-208.65,0.01
	c-31.29-0.09-59.14-22.08-65.45-52.8c-2.63-12.8-2.17-26.34-2.2-39.55c-0.19-68.65-0.08-137.31-0.15-205.96
	c0-1.99-0.38-4.27-1.39-5.91c-2.1-3.43-4.74-6.53-7.16-9.76c0-20.08,0-40.16,0-60.23c1.73-2.65,2.99-5.89,5.32-7.81
	c2.93-2.41,3.34-5,3.33-8.37c-0.08-30.78-0.41-61.58,0.08-92.35c0.39-24.68,11.32-44.29,32.45-57.05
	C315.75,282.41,325.79,280.16,335.06,276.64z M326.82,371.54c0,120.56,0,240.71,0,360.73c80.37,0,160.37,0,240.28,0
	c0-120.44,0-240.46,0-360.73C486.96,371.54,407.09,371.54,326.82,371.54z M567.01,353.88c2.57-17-5.68-26-22.77-25.85
	c-65.77,0.57-131.55,0.22-197.32,0.25c-2.49,0-5.07-0.02-7.46,0.59c-10.29,2.61-14.83,11.85-12.34,25.01
	C406.96,353.88,486.83,353.88,567.01,353.88z M326.8,750.09c-2.56,17.49,6.08,25.99,22.82,25.85c65.58-0.54,131.18-0.47,196.76-0.01
	c13.41,0.09,24.14-8.55,20.28-25.83C486.84,750.09,406.98,750.09,326.8,750.09z"/>
<path class="st1" d="M601.8,276.64c48.76,0,97.52,0,146.28,0c0.63,0.29,1.23,0.73,1.9,0.86c35.83,6.84,58.3,33.92,58.33,70.38
	c0.02,19.9-0.09,39.8,0.13,59.69c0.03,2.3,1.72,4.61,2.72,6.88c1.89,4.3,5.03,8.45,5.49,12.89c0.88,8.51,0.56,17.2,0.1,25.78
	c-0.18,3.4-1.07,7.95-3.38,9.8c-5.78,4.63-5.12,10.42-5.07,16.4c0.04,4.84-0.31,9.71,0.14,14.51c0.22,2.34,1.87,4.54,2.86,6.82
	c1.87,4.31,4.89,8.5,5.35,12.96c0.87,8.34,0.72,16.86,0.04,25.23c-0.32,4.02-1.87,8.74-4.54,11.56c-3.23,3.41-3.92,6.63-3.91,10.88
	c0.09,65.79,0.17,131.57,0.02,197.36c-0.1,39.98-34.2,75.93-85.77,67.95c0-128.64,0-257.28,0-386.44c8.06,0,15.9,0.03,23.74-0.01
	c12.09-0.06,19.01-6.93,19.04-19.02c0.04-20.26,0.04-40.51,0-60.77c-0.03-14.62-8.83-23.43-23.4-23.46
	c-20.08-0.03-40.15-0.02-60.23,0c-12.87,0.01-19.6,6.69-19.61,19.5c-0.02,21.33-0.02,42.66,0,63.99
	c0.01,13.11,6.71,19.74,19.92,19.76c7.63,0.01,15.27,0,22.87,0c0,129.39,0,258.03,0,386.79c-34.07,0-67.91,0-102.52,0
	c25.01-20.33,34.44-46.22,34.1-77.23c-0.66-60.94-0.23-121.89-0.09-182.84c0.01-2.8,1.57-5.6,2.45-8.38c2-6.4,4.95-12.67,5.8-19.22
	c1.02-7.75,0.13-15.75,0.28-23.63c0.16-8.53-3.18-15.72-6.67-23.35c-2.34-5.12-2.42-13.05-0.07-18.12
	c3.62-7.79,6.93-15.16,6.74-23.87c-0.17-7.7,0.77-15.53-0.29-23.09c-0.94-6.71-3.94-13.13-6.03-19.69
	c-0.78-2.46-2.19-4.91-2.22-7.38c-0.2-16.49-0.38-32.99-0.04-49.47C636.9,320.25,625.58,295.58,601.8,276.64z"/>
</svg>
