<?xml version="1.0" encoding="utf-8"?>
<!-- Generator: Adobe Illustrator 27.3.1, SVG Export Plug-In . SVG Version: 6.00 Build 0)  -->
<svg version="1.1" id="Layer_1" xmlns="http://www.w3.org/2000/svg" xmlns:xlink="http://www.w3.org/1999/xlink" x="0px" y="0px"
	 viewBox="0 0 1080 1080" style="enable-background:new 0 0 1080 1080;" xml:space="preserve">
<style type="text/css">
	.st0{fill:#EB382E;}
	.st1{fill:url(#SVGID_1_);}
	.st2{fill:url(#SVGID_00000046309626772020480010000011177110918262693525_);}
	.st3{fill:url(#SVGID_00000070839638418014264540000013944262963981704331_);}
	.st4{fill:url(#SVGID_00000050660142375602031800000006030216937243489163_);}
	.st5{fill:url(#SVGID_00000013894995239811054460000007686199308737101243_);}
	.st6{fill:url(#SVGID_00000090976770413137911820000010697735443657195953_);}
	.st7{fill:url(#SVGID_00000048489193133763075170000013155479203721544110_);}
	.st8{fill:url(#SVGID_00000146463383345792914400000011930016330190575016_);}
	.st9{fill:url(#SVGID_00000116215171278661496030000001621148046488180354_);}
	.st10{fill:url(#SVGID_00000119116632604701892680000001986465019900432311_);}
	.st11{fill:url(#SVGID_00000127010968409627214920000006630791290260366743_);}
	.st12{fill:url(#SVGID_00000050636465680788936020000016935338830340014209_);}
	.st13{fill:url(#SVGID_00000172410160183139098050000015390873777552496805_);}
	.st14{fill:url(#SVGID_00000032626530927429844010000010504964962223725198_);}
	.st15{fill:url(#SVGID_00000155129372146993090150000000388907192143710889_);}
	.st16{fill:url(#SVGID_00000043457634972794120530000012934256458064150403_);}
	.st17{fill:url(#SVGID_00000173867286927114980520000006140312928187487679_);}
	.st18{fill:url(#SVGID_00000056418983760937716990000008627559498953933724_);}
	.st19{fill:url(#SVGID_00000001626152917168647640000002111467708546487225_);}
	.st20{fill:url(#SVGID_00000115497626358059463870000002924929892632444032_);}
	.st21{fill:url(#SVGID_00000058576453633138615530000000785856704267798163_);}
	.st22{fill:url(#SVGID_00000181048202580453582290000015165060819320045700_);}
	.st23{fill:url(#SVGID_00000104704988880518260990000006221807549779981747_);}
	.st24{fill:url(#SVGID_00000136410944625862679520000000452181876145245085_);}
	.st25{fill:url(#SVGID_00000069398107613803147700000008102390012531575482_);}
	.st26{fill:url(#SVGID_00000156577505036213230460000010911756452663913123_);}
	.st27{fill:url(#SVGID_00000158751588191037465340000005443704904861243520_);}
	.st28{fill:url(#SVGID_00000068662115465865315370000013925398576937234088_);}
	.st29{fill:url(#SVGID_00000064351554289676218190000014882143759207919036_);}
	.st30{fill:url(#SVGID_00000133486884358999707320000008454569150795274685_);}
	.st31{fill:url(#SVGID_00000046337739045588810310000017204416687494471857_);}
	.st32{fill:url(#SVGID_00000095308141794552351210000016615358465753788313_);}
	.st33{fill:url(#SVGID_00000067959097531116284920000005239582302978129539_);}
	.st34{fill:url(#SVGID_00000067924267923765556790000010293692680141162903_);}
	.st35{fill:url(#SVGID_00000018921410857626154510000017709404185603785394_);}
	.st36{fill:url(#SVGID_00000091704891864137376890000016566352296806355590_);}
	.st37{fill:#FFFFFF;}
	.st38{stroke:#000000;stroke-width:6;stroke-miterlimit:10;}
	.st39{fill:url(#SVGID_00000038378308104715091590000003013064661768918438_);}
	.st40{fill:url(#SVGID_00000101812556907878284170000007169806252275417487_);}
	.st41{fill:url(#SVGID_00000176045321688821496870000006666281228376543138_);}
</style>
<path class="st0" d="M571.93,330.48c2.7,0.82,5.44,1.52,8.09,2.48c17.72,6.44,28.51,25.06,25.17,43.31
	c-3.5,19.07-19.84,32.8-38.87,32.65c-18.9-0.15-35.3-14.12-38.42-32.72c-3.35-19.99,9.11-39.16,28.79-44.31
	c1.55-0.41,3.06-0.94,4.59-1.42C564.83,330.48,568.38,330.48,571.93,330.48z"/>
<linearGradient id="SVGID_1_" gradientUnits="userSpaceOnUse" x1="364.0599" y1="594.8061" x2="534" y2="594.8061">
	<stop  offset="0" style="stop-color:#7ECAB6"/>
	<stop  offset="1" style="stop-color:#15818E"/>
</linearGradient>
<path class="st1" d="M460.34,646.19c-5.21-18.46-10.41-36.91-15.62-55.37c-1.66-5.9-3.49-11.76-4.97-17.7
	c-4.63-18.59,11.97-35,30.21-29.78c2,0.57,4.35,2.56,5.1,4.46c16.29,41.44,32.53,82.9,48.31,124.53c2.36,6.23,2.48,13.33,3.42,20.06
	c2.4,17.14,4.67,34.3,7.02,51.44c0.61,4.48-0.32,5.67-4.9,5.68c-32.33,0.02-64.66,0.02-96.98,0c-4.6,0-5.44-0.84-5.48-5.52
	c-0.09-11.05-0.04-22.1-0.25-33.14c-0.04-2.21-0.61-4.61-1.62-6.56c-13.64-26.23-26.95-52.64-41.32-78.46
	c-7.74-13.9-11.15-28.27-11.95-43.97c-1.94-38.27-4.57-76.5-7.13-114.73c-0.62-9.21,0.49-17.47,8.59-23.28
	c11.5-8.25,27.95-2.24,30.47,11.69c2.08,11.51,2.87,23.25,4.16,34.9c3.18,28.86,6.3,57.73,9.49,86.58
	c0.49,4.46,0.79,9.02,1.99,13.31c1.16,4.13,2.67,8.51,5.25,11.85c11.58,14.98,23.59,29.62,35.45,44.38
	C459.84,646.43,460.09,646.31,460.34,646.19z"/>
<linearGradient id="SVGID_00000089569344790515595090000011989408696176436877_" gradientUnits="userSpaceOnUse" x1="601.6478" y1="594.8127" x2="771.5623" y2="594.8127">
	<stop  offset="0" style="stop-color:#7ECAB6"/>
	<stop  offset="1" style="stop-color:#15818E"/>
</linearGradient>
<path style="fill:url(#SVGID_00000089569344790515595090000011989408696176436877_);" d="M675.05,647.66
	c9.14-11.27,17.55-21.63,25.96-31.99c0.77-0.95,1.46-1.99,2.32-2.85c10.69-10.69,14.62-23.85,16.01-38.69
	c3.62-38.54,8.1-76.99,12.3-115.47c1.26-11.58,10.32-19.27,21.46-18.5c10.43,0.72,18.96,10.12,18.44,21.3
	c-0.9,19.48-2.28,38.93-3.5,58.39c-1.5,23.95-3.16,47.89-4.49,71.85c-0.5,9.02-2.61,17.42-6.83,25.41
	c-15.26,28.91-30.45,57.86-45.55,86.85c-1.07,2.06-1.66,4.61-1.7,6.94c-0.23,11.04-0.17,22.09-0.27,33.14
	c-0.04,4.64-0.9,5.47-5.53,5.47c-32.19,0.01-64.38,0.01-96.56,0c-5.12,0-5.93-1.06-5.24-6.09c2.9-21.06,5.57-42.15,8.72-63.17
	c0.8-5.3,2.76-10.5,4.7-15.55c14.9-38.76,29.97-77.45,44.85-116.22c1.23-3.2,3.06-4.75,6.29-5.52
	c18.29-4.33,34.31,12.09,29.31,30.52c-6.27,23.13-12.97,46.14-19.48,69.2C675.9,643.96,675.63,645.24,675.05,647.66z"/>
<path class="st0" d="M526.38,461.08c-5.99,0.59-10.7,3.07-13.88,7.15c-4.65,5.97-8.58,12.52-12.55,18.98
	c-2.06,3.35-3.32,7.18-5.33,10.57c-3.82,6.47-11.68,8.87-18.53,5.94c-6.65-2.84-10.85-10.66-8.4-17.57
	c12.18-34.33,33.8-59.03,70.64-67.71c2.5-0.59,5.12-0.88,7.69-0.89c13.77-0.09,27.55-0.38,41.31,0.04
	c22.86,0.7,41.08,11.53,56.57,27.5c10.79,11.12,18.17,24.44,23.42,38.94c3,8.27-0.56,16.73-8.06,19.81
	c-7.55,3.09-15.45-0.15-19.49-7.98c-3.18-6.17-5.83-12.71-9.73-18.39c-3.47-5.05-8.11-9.4-12.69-13.55
	c-1.93-1.74-5.05-2.17-8.27-3.45c0.34,5.09,0.62,9.26,0.93,13.77c-28.17,0-56.27,0-84.63,0C525.71,470,526.02,465.84,526.38,461.08z
	"/>
<path class="st0" d="M566.36,530.82c-4.24,7-8.22,13.33-11.93,19.82c-1.61,2.81-3.57,3.65-6.7,3.09
	c-14.08-2.5-28.17-4.89-42.28-7.22c-3.47-0.57-5.03-2.16-4.49-5.82c2.23-15.04,6.63-29.18,16.35-41.26c0.78-0.97,1.2-2.4,1.38-3.68
	c0.51-3.5,0.81-7.04,1.2-10.56c0.3-2.74,1.72-4.08,4.58-4.08c28.22,0.03,56.44,0.03,84.65,0.01c2.76,0,4.5,1.05,4.63,3.95
	c0.37,8.4,3.75,15.43,8.41,22.42c6.67,9.99,9.4,21.63,11.04,33.47c0.44,3.17-0.84,4.91-3.99,5.44c-14.5,2.44-29,4.87-43.49,7.4
	c-2.76,0.48-4.29-0.76-5.7-2.88C575.66,544.36,571.17,537.87,566.36,530.82z"/>
<path class="st0" d="M594.28,558.87c10.8-1.81,22.19-3.72,34.37-5.77c-0.42,3.61-0.64,6.92-1.22,10.17
	c-1.86,10.4-5.32,20.26-10.48,29.49c-4.53,8.09-13.02,10.89-20.86,6.89c-7.67-3.91-9.87-12.07-6.72-20.62
	C591.69,572.74,592.62,565.93,594.28,558.87z"/>
<path class="st0" d="M507.4,553.44c11.71,1.97,22.71,3.77,33.68,5.79c0.85,0.16,1.79,1.79,2.05,2.88
	c1.56,6.58,2.68,13.28,4.44,19.81c1.99,7.38-1.14,14.84-8.13,18.07c-7.23,3.34-15.61,0.79-19.83-6.38
	c-6.15-10.45-9.95-21.75-11.56-33.78C507.81,557.98,507.67,556.11,507.4,553.44z"/>
</svg>
