<?xml version="1.0" encoding="utf-8"?>
<!-- Generator: Adobe Illustrator 27.3.1, SVG Export Plug-In . SVG Version: 6.00 Build 0)  -->
<svg version="1.1" id="Layer_1" xmlns="http://www.w3.org/2000/svg" xmlns:xlink="http://www.w3.org/1999/xlink" x="0px" y="0px"
	 viewBox="0 0 1080 1080" style="enable-background:new 0 0 1080 1080;" xml:space="preserve">
<style type="text/css">
	.st0{fill:#EB382E;}
	.st1{fill:url(#SVGID_1_);}
	.st2{fill:url(#SVGID_00000132087690923326143280000013063101529248217762_);}
	.st3{fill:url(#SVGID_00000172433083844885971370000006857138503390031758_);}
	.st4{fill:url(#SVGID_00000054230773326946039720000011336708916689758613_);}
	.st5{fill:url(#SVGID_00000053522239772823031520000011475907064429103282_);}
	.st6{fill:url(#SVGID_00000029019035971324975470000009320868920146358146_);}
	.st7{fill:url(#SVGID_00000053533839737998710580000003049939538573944223_);}
	.st8{fill:url(#SVGID_00000161603479121814259270000018248256663874206895_);}
	.st9{fill:url(#SVGID_00000083786873194270274210000007407646964867609751_);}
	.st10{fill:url(#SVGID_00000100376985149262537060000001234270785991435687_);}
	.st11{fill:url(#SVGID_00000183936082613556185920000017005707033678856337_);}
	.st12{fill:url(#SVGID_00000074405875542798714930000004581505431694428860_);}
	.st13{fill:url(#SVGID_00000098943061556480809370000015356568039491267732_);}
	.st14{fill:url(#SVGID_00000152242173105792788630000008286845787100205487_);}
	.st15{fill:url(#SVGID_00000142167866854614188160000014714424815307453366_);}
	.st16{fill:url(#SVGID_00000131347887643618582980000006898837490278637711_);}
	.st17{fill:url(#SVGID_00000037674669690918641080000003447514014909669288_);}
	.st18{fill:url(#SVGID_00000164472197467370220510000007980628975104499094_);}
	.st19{fill:url(#SVGID_00000152946470586190454460000017167528329044528566_);}
	.st20{fill:url(#SVGID_00000039107799393913852950000007599565204868579762_);}
	.st21{fill:url(#SVGID_00000064343525343849216470000014535309456867583934_);}
	.st22{fill:url(#SVGID_00000125593137285750770420000017739371021075185315_);}
	.st23{fill:url(#SVGID_00000095322325101550983430000013375628967677397899_);}
	.st24{fill:url(#SVGID_00000170992416311157249700000002950183316971702703_);}
	.st25{fill:url(#SVGID_00000036935936991058419440000008040125217556874638_);}
	.st26{fill:url(#SVGID_00000158730391115786798070000015552449112160248962_);}
	.st27{fill:url(#SVGID_00000107579478051162051800000006024822759337297326_);}
	.st28{fill:url(#SVGID_00000172441640068598023180000016143345772587165099_);}
	.st29{fill:url(#SVGID_00000120526594613610050850000012358457941251181703_);}
	.st30{fill:url(#SVGID_00000026864715049615308970000013651079844204007858_);}
	.st31{fill:url(#SVGID_00000043427302833801064700000003889728316379460000_);}
	.st32{fill:url(#SVGID_00000134248188375299799570000014193055846445842084_);}
	.st33{fill:url(#SVGID_00000099624664259609296660000013294993717620176272_);}
	.st34{fill:url(#SVGID_00000118375369004102973250000015818463337442394532_);}
	.st35{fill:url(#SVGID_00000054964081065298339660000014033561105951259295_);}
	.st36{fill:url(#SVGID_00000011744792105756063970000008625166323632942218_);}
	.st37{fill:#FFFFFF;}
	.st38{stroke:#000000;stroke-width:6;stroke-miterlimit:10;}
	.st39{fill:url(#SVGID_00000003093056044742865630000010672505917935865225_);}
	.st40{fill:url(#SVGID_00000023255818424888235610000014690013385035620015_);}
	.st41{fill:url(#SVGID_00000121984583609695222590000009274570746203439242_);}
</style>
<linearGradient id="SVGID_1_" gradientUnits="userSpaceOnUse" x1="280.2229" y1="588.1276" x2="832.2037" y2="588.1276">
	<stop  offset="0" style="stop-color:#7ECAB6"/>
	<stop  offset="1" style="stop-color:#15818E"/>
</linearGradient>
<path class="st1" d="M312,736.34c0-1.97,0-3.54,0-5.12c0.01-53.55,0.03-107.11,0.04-160.66c0-0.64-0.07-1.29,0.01-1.92
	c0.35-2.91-0.95-4.71-3.45-6.18c-10.61-6.27-15.07-18.03-10.81-31.26c0.1-0.3,0.23-0.6,0.34-0.9c0.76-2.08,2.1-4.15,2.12-6.24
	c0.03-2.11-1.36-4.21-1.92-6.37c-0.76-2.92-1.61-5.87-1.93-8.86c-0.75-7.05,1.41-13.27,6.2-18.5c1.4-1.52,2.86-3.14,4.62-4.14
	c3.58-2.03,5.12-5.02,5.38-8.96c0.31-4.76,1.52-9.45,1.34-14.31c-1.37-1.43-2.71-2.79-4-4.2c-5-5.48-9.08-11.54-11.6-18.58
	c-4.47-12.46-3.02-24.25,4.26-35.23c6.44-9.72,15.26-16.24,26.78-18.78c23.07-5.09,46.21,8.29,51.61,32.72
	c3.41,15.4-0.84,28.76-11.95,39.92c-1.57,1.58-3.28,3.03-5.1,4.71c0.43,4.04,0.83,8.15,1.33,12.26c0.28,2.37,0.15,5.03,1.24,6.99
	c1.09,1.95,3.46,3.19,5.28,4.73c2.7,2.29,5.12,4.83,6.99,7.85c3.91,6.3,4.12,12.98,1.83,19.83c-0.96,2.87-2.23,5.63-3.48,8.73
	c0.62,1.22,1.33,2.62,2.04,4.02c3.74,7.3,4,14.65,0.42,22.12c-2.25,4.68-4.87,9.02-9.54,11.69c-2.6,1.49-3.78,3.81-4.04,6.68
	c-0.1,1.11-0.11,2.23-0.11,3.35c0.01,44.44,0.03,88.88,0.06,133.32c0,0.92,0.08,1.84,0.12,2.61c1.06,0.61,1.39-0.06,1.74-0.54
	c0.56-0.78,1.06-1.6,1.57-2.41c17.42-27.56,34.79-55.15,52.3-82.65c2.43-3.82,3.53-7.69,3.47-12.17
	c-0.14-11.67-0.04-23.34-0.04-35.01c0-1.75,0-3.5,0-5.46c1.1-0.23,1.99-0.57,2.88-0.57c5.44-0.05,10.87-0.01,16.31-0.04
	c1.4-0.01,2.79-0.16,4.48-0.27c0.39-3.39,0.18-6.57,0.21-9.73c0.04-3.2,0.01-6.39,0.01-9.59c0-3.2,0-6.39,0-9.59
	c0-3.19,0-6.37,0-9.82c1.28-0.19,2.34-0.47,3.39-0.48c5.44-0.05,10.87-0.01,16.31-0.04c1.23-0.01,2.47-0.18,3.98-0.3
	c0.49-4.5,0.18-8.8,0.23-13.07c0.06-4.48-0.03-8.95,0.02-13.43c0.05-4.27-0.24-8.56,0.21-12.95c0.89-0.15,1.49-0.35,2.09-0.35
	c16.93-0.02,33.86-0.01,50.93-0.01c1.29,3.61,0.48,7.13,0.63,10.56c0.14,3.34,0.03,6.69,0.03,9.74c-1.22,1.48-2.58,1.17-3.8,1.18
	c-7.51,0.03-15.03,0-22.54,0.04c-1.55,0.01-3.2-0.38-4.61,0.63c-0.69,3.62-0.75,11.93-0.09,16.96c0.79,0.13,1.68,0.34,2.58,0.4
	c1.11,0.08,2.24,0.03,3.36,0.03c36.29,0,72.58,0,108.87-0.01c1.88,0,3.81,0.28,5.59-0.39c0.83-3.8,0.84-12.74,0.02-16.9
	c-5.15-0.6-10.4-0.19-15.63-0.27c-5.11-0.07-10.23-0.02-15.35-0.02c-5.28,0-10.55,0-15.83,0c-5.12,0-10.23,0-15.35,0
	c-5.26,0-10.52,0-15.89,0c-1.26-3.65-0.49-7.17-0.63-10.61c-0.14-3.5-0.03-7.01-0.03-10.74c1.09-0.23,1.98-0.56,2.87-0.57
	c3.84-0.06,7.67-0.03,11.51-0.03c27.02,0,54.04,0,81.06,0c1.74,0,3.48,0,4.93,0c1.38,1.57,0.98,3.07,0.98,4.46
	c0.04,9.91,0.01,19.82,0.03,29.73c0,1.57,0.11,3.14,0.18,4.99c1.24,0.16,2.29,0.41,3.35,0.42c5.12,0.04,10.23,0.01,15.35,0.04
	c1.57,0.01,3.14,0.13,5.01,0.22c0.12,1.64,0.3,3.02,0.31,4.4c0.03,9.91,0.01,19.82,0.01,29.73c0,1.59,0,3.17,0,5.03
	c1.26,0.19,2.31,0.48,3.36,0.49c5.28,0.05,10.55,0.01,15.83,0.03c1.41,0.01,2.82,0.12,4.5,0.19c0.13,1.1,0.31,2.01,0.32,2.92
	c0.15,8.79,0.38,17.57-0.32,26.36c-0.68,8.45,1.04,16.58,4.6,24.24c1.95,4.19,4.13,8.33,6.72,12.14
	c15.44,22.76,29.85,46.17,44.46,69.45c0.88,1.4,1.41,3.16,3.45,4.22c0.49-1.82,0.31-3.39,0.31-4.92c0.01-20.46,0-40.92,0.01-61.39
	c0.01-23.18,0.04-46.36,0.06-69.54c0-1.12-0.1-2.25,0.02-3.36c0.31-3.05-0.91-4.94-3.58-6.61c-8.69-5.46-12.87-13.5-12.54-23.79
	c0.12-3.73,1.14-7.26,2.85-10.56c2.18-4.21,2.63-3.43,0.1-8.26c-2.91-5.55-3.77-11.48-2.4-17.68c1.49-6.72,5.17-11.95,10.69-15.95
	c0.9-0.65,1.86-1.24,2.82-1.82c1.18-0.72,1.83-1.78,1.98-3.12c0.67-6.02,1.31-12.05,1.98-18.23c-1.04-1.14-2.1-2.32-3.17-3.5
	c-3.67-4.04-6.87-8.41-9.46-13.23c-12.95-24.1-1.46-44.75,15.01-54.9c25.3-15.6,60.22-1.73,65.1,30.62
	c2.13,14.14-2.28,26.15-12.11,36.31c-1.66,1.71-3.5,3.25-5.43,5.04c0.33,5.98,1.18,11.98,1.99,17.98c0.16,1.2,0.81,2.05,1.76,2.73
	c1.3,0.93,2.65,1.8,3.88,2.81c5.8,4.77,9.43,10.76,10.23,18.33c0.45,4.23-0.39,8.27-1.75,12.23c-0.41,1.2-0.9,2.41-1.56,3.5
	c-1.2,1.99-1.16,3.82-0.03,5.85c1.56,2.8,2.51,5.84,3.04,9.03c1.33,7.93-0.71,14.92-5.85,20.97c-1.74,2.05-3.72,4.09-6,5.45
	c-3.07,1.83-3.76,4.23-3.72,7.55c0.14,11.51,0.02,23.02,0.02,34.53c0,42.04,0,84.09,0,126.13c0,1.89,0.09,3.78,0.15,5.92
	c1.17,0.13,2.07,0.26,2.98,0.33c0.96,0.07,1.92,0.05,2.87,0.12c11.18,0.87,19.14,6.3,23.9,16.56c1.39,2.99,2.08,5.91,2.03,9.19
	c-0.13,7.83-0.03,15.67-0.05,23.5c0,1.56-0.13,3.12-0.2,4.68c-0.7,0.2-1.14,0.45-1.58,0.44c-16.62-0.12-33.25-0.27-49.87-0.43
	c-0.45,0-0.89-0.26-1.58-0.47c-0.77-2.25-0.32-4.65-0.39-6.99c-0.07-2.24-0.07-4.48,0-6.71c0.08-2.36-0.38-4.76,0.53-7.4
	c5.11-0.3,10.2-0.05,15.28-0.15c5.08-0.1,10.18,0.31,15.25-0.25c0.24-0.61,0.53-1.03,0.56-1.46c0.34-6.8-1.07-8.59-8.05-8.55
	c-19.66,0.13-39.33,0.09-58.99,0.03c-4.92-0.01-6.82,1.58-6.92,6.92c-0.01,0.78,0.12,1.56,0.22,2.65c1.33,0.14,2.55,0.38,3.78,0.38
	c7.51,0.04,15.03,0,22.54,0.03c1.55,0.01,3.11,0.16,4.57,0.24c0.76,4.02,0.84,16.06,0.16,21c-0.83,0.1-1.74,0.28-2.65,0.31
	c-1.44,0.06-2.88,0.02-4.32,0.02c-157.63,0-315.27,0-472.9,0c-2.22,0-4.43,0-6.6,0c-0.31-0.72-0.64-1.14-0.64-1.56
	c-0.05-8.79-0.14-17.58-0.07-26.37c0.12-14.8,12.02-23.93,22.6-25.17C305.69,736.99,308.54,736.71,312,736.34z M736.86,736.64
	c-1.04-1.71-1.84-3.07-2.69-4.41c-9.73-15.39-19.48-30.77-29.21-46.16c-10.49-16.61-20.96-33.24-31.44-49.85
	c-3.71-5.88-2.76-5.09-9.02-5.12c-9.43-0.04-18.86-0.01-28.28-0.01c-62.8-0.01-125.6,0.01-188.4-0.11c-4.17-0.01-7.13,1.08-8.89,4.9
	c-0.13,0.29-0.33,0.55-0.5,0.82c-9.97,15.8-19.94,31.62-29.92,47.41c-10.24,16.2-20.53,32.38-30.75,48.59
	c-0.88,1.4-2.18,2.66-2.25,4.45c3.32,1.39,6.46,2.56,9.48,3.99c5.34,2.53,8.94,6.68,10.51,12.38c0.85,3.07,1.34,6.23,1.94,9.36
	c0.33,1.7,0.54,3.43,0.85,5.44c2.31,0.02,4.37,0.06,6.43,0.06c100.83,0,201.66,0,302.49,0c1.28,0,2.56,0.04,3.83-0.02
	c0.92-0.05,1.83-0.24,2.69-0.36C716.04,748.05,719.1,743.88,736.86,736.64z M447.47,608.11c2.21,0.89,4.14,0.59,6.02,0.59
	c68.43,0.02,136.85,0.01,205.28,0.01c0.96,0,1.92,0.06,2.88-0.03c0.91-0.08,1.81-0.3,2.8-0.47c0.6-2.89,0.35-5.61,0.31-8.29
	c-0.05-2.8,0.5-5.69-0.54-8.73c-2.07-0.04-3.97-0.12-5.86-0.12c-68.11-0.01-136.21,0-204.32,0c-1.28,0-2.56-0.07-3.83,0.04
	c-0.89,0.08-1.76,0.4-2.72,0.64C447.47,597.25,447.47,602.5,447.47,608.11z M640.21,551.43c-2.1,0-4,0-5.91,0
	c-52.08,0-104.16,0-156.24,0c-1.28,0-2.56-0.06-3.83,0.03c-0.89,0.07-1.77,0.35-2.57,0.51c-0.68,7.42-0.5,13.21,0.45,16.32
	c4.25,0.52,150.23,0.83,165.75,0.34c0.77-0.02,1.53-0.18,2.22-0.26C640.92,564.74,641,556.86,640.21,551.43z M334.19,568.01
	c0,2.08,0,3.82,0,5.55c0,52.25,0,104.5,0,156.75c0,1.12-0.07,2.24,0.03,3.35c0.08,0.89,0.37,1.77,0.58,2.7
	c3.05,0.03,5.88,0.67,8.89-0.52c0-55.22,0-110.33-0.01-165.44c0-0.77-0.14-1.53-0.25-2.63
	C340.42,567.53,337.63,567.27,334.19,568.01z M768.49,567.85c0,2.2,0,3.94,0,5.68c0,52.4,0,104.8,0,157.2
	c0,0.96-0.06,1.92,0.03,2.87c0.08,0.9,0.33,1.79,0.52,2.75c3.05,0.09,5.86,0.56,8.52-0.27c0.65-5.22,0.96-141.38,0.4-165.15
	c-0.02-0.93-0.17-1.86-0.27-2.94C774.71,567.28,771.92,567.49,768.49,567.85z M773.28,448.89c9.42,0.43,20.99-7.73,20.93-21.1
	c-0.04-11.31-8.71-20.47-20.77-20.73c-11.62-0.25-21.09,9.2-21.18,20.81C752.17,439.66,762.36,449.15,773.28,448.89z M359.98,428.03
	c0.07-11.61-9.3-21.06-21.01-20.96c-11.84,0.1-20.77,9.01-20.94,20.56c-0.19,13.54,11.48,21.28,20.77,21.34
	C349.51,449.04,359.95,440.01,359.98,428.03z M375.72,768.15c0.54-1.77,0.45-3.34,0.13-4.89c-0.59-2.89-1.87-4.02-4.89-4.32
	c-0.95-0.09-1.91-0.06-2.87-0.06c-19.46,0-38.92,0.07-58.38-0.04c-6.34-0.04-7.89,1.8-7.58,8.01c0.02,0.43,0.3,0.85,0.43,1.21
	c3.98,0.61,59.4,0.97,70.85,0.46C374.17,768.48,374.92,768.28,375.72,768.15z M773.6,503.13c-4.61,0-9.23-0.02-13.84,0.02
	c-1.27,0.01-2.55,0.1-3.79,0.35c-2.12,0.44-3.39,1.89-3.61,3.89c-0.23,2.05,0.61,3.86,2.53,4.68c1.28,0.55,2.74,0.94,4.12,0.95
	c9.55,0.08,19.09,0.07,28.64,0c1.23-0.01,2.52-0.37,3.68-0.83c1.9-0.76,2.98-2.65,2.85-4.52c-0.13-1.93-1.45-3.62-3.44-4.1
	c-1.22-0.3-2.52-0.4-3.78-0.41C782.51,503.1,778.06,503.13,773.6,503.13z M339.23,544.84c0-0.03,0-0.06,0-0.09
	c5.42,0,10.85,0.11,16.27-0.04c2.71-0.08,4.4-2.11,4.42-4.69c0.02-2.3-1.54-4.25-3.95-4.71c-1.08-0.21-2.22-0.19-3.34-0.19
	c-9.25-0.01-18.5-0.01-27.76,0.01c-0.96,0-1.93-0.02-2.86,0.13c-2.28,0.37-3.82,2.3-3.93,4.75c-0.1,2.25,1.58,4.3,3.93,4.7
	c0.78,0.13,1.59,0.13,2.39,0.13C329.34,544.85,334.28,544.84,339.23,544.84z M339.25,503.13c-4.61,0-9.23-0.04-13.84,0.02
	c-1.42,0.02-2.89,0.13-4.24,0.51c-1.84,0.52-2.89,1.96-3.06,3.87c-0.17,1.89,0.53,3.54,2.26,4.38c1.25,0.6,2.71,1.08,4.08,1.09
	c9.7,0.09,19.41,0.11,29.11-0.01c1.5-0.02,3.13-0.61,4.46-1.37c1.66-0.94,2.16-2.7,1.82-4.58c-0.31-1.7-1.35-2.95-2.99-3.39
	c-1.36-0.37-2.82-0.48-4.24-0.5C348.16,503.09,343.7,503.13,339.25,503.13z M773.25,535.12c-4.63,0-9.27-0.02-13.9,0.01
	c-1.11,0.01-2.26,0.04-3.32,0.31c-2.33,0.58-3.65,2.27-3.69,4.42c-0.04,2.17,1.21,4.03,3.45,4.61c1.52,0.4,3.16,0.49,4.74,0.5
	c8.47,0.05,16.94,0.03,25.41,0.02c1.12,0,2.25-0.02,3.34-0.21c0.92-0.16,1.86-0.48,2.67-0.94c1.7-0.96,2.39-2.55,2.18-4.45
	c-0.19-1.71-1.1-3.07-2.77-3.58c-1.35-0.41-2.8-0.64-4.21-0.66C782.52,535.07,777.89,535.12,773.25,535.12z M768.45,480.51
	c3.5,0.34,6.46,0.47,9.64-0.09c0.06-1.66,0.23-3.07,0.12-4.45c-0.23-2.86-1.83-4.26-4.68-4.3c-3.26-0.04-5.13,1.53-5.39,4.74
	C768.04,477.62,768.31,478.88,768.45,480.51z M343.52,480.58c0.77-2.26,0.65-4.13,0.17-5.99c-0.34-1.32-1.23-2.21-2.51-2.65
	c-3.91-1.36-7.1,0.77-7.24,4.9c-0.04,1.19,0.28,2.4,0.45,3.74C337.54,480.58,340.36,480.58,343.52,480.58z"/>
<path class="st0" d="M504.79,439.32c0.47-3.99,0.83-7.46,1.29-10.92c1.45-10.92,2.94-21.84,4.42-32.75
	c0.38-2.85,0.66-5.72,1.18-8.54c0.54-2.96-0.4-5.17-2.49-7.3c-7.5-7.64-14.85-15.41-22.26-23.15c-3.87-4.04-7.73-8.08-11.57-12.15
	c-0.63-0.66-1.14-1.44-1.63-2.07c0.67-1.32,1.77-0.96,2.61-1.2c0.92-0.26,1.86-0.46,2.8-0.63c12.71-2.38,25.41-4.76,38.13-7.11
	c2.82-0.52,5.66-0.98,8.51-1.38c2.06-0.29,3.55-1.36,4.57-3.11c0.73-1.24,1.4-2.51,2.07-3.78c7.17-13.37,14.33-26.74,21.52-40.1
	c0.59-1.1,1.32-2.13,2.21-3.56c0.93,1.54,1.71,2.72,2.37,3.96c7.11,13.22,14.2,26.45,21.3,39.67c0.3,0.56,0.64,1.11,0.89,1.7
	c1.44,3.43,4.11,5.06,7.71,5.62c6.15,0.95,12.29,2.02,18.41,3.13c9.27,1.68,18.52,3.42,27.77,5.16c1.08,0.2,2.14,0.53,3.51,0.88
	c-0.49,0.84-0.78,1.57-1.26,2.14c-2.26,2.68-4.49,5.41-6.9,7.97c-8.22,8.72-16.5,17.38-24.76,26.06c-0.88,0.93-1.74,1.88-2.6,2.82
	c-1.49,1.62-2.15,3.52-1.9,5.72c0.42,3.65,0.78,7.3,1.26,10.94c1.72,12.98,3.49,25.95,5.23,38.93c0.06,0.46-0.04,0.93-0.06,1.35
	c-0.76,0.83-1.5,0.38-2.19,0.1c-3.4-1.36-6.87-2.6-10.18-4.15c-10.4-4.89-20.74-9.89-31.11-14.86c-7.61-3.64-7.39-3.63-15.17,0.1
	c-12.81,6.14-25.63,12.26-38.46,18.36C508.48,437.9,506.86,438.47,504.79,439.32z M517.22,356.02c1.29,1.5,1.97,2.35,2.71,3.15
	c3.16,3.4,6.25,6.86,9.52,10.14c4.31,4.32,5.74,9.38,4.78,15.34c-0.78,4.89-1.27,9.82-1.86,14.74c-0.09,0.71-0.52,1.57,0.72,2.19
	c0.85-0.41,1.84-0.88,2.83-1.35c4.04-1.91,8.14-3.72,12.11-5.76c5.57-2.87,10.99-2.73,16.53,0.1c3.98,2.04,8.07,3.85,12.12,5.74
	c0.98,0.46,1.98,0.86,3.36,1.46c0-1.02,0.07-1.62-0.01-2.2c-0.68-4.91-1.25-9.83-2.11-14.71c-1.11-6.3,0.17-11.59,5.17-16
	c3.58-3.16,6.72-6.83,10.02-10.31c0.62-0.65,1.07-1.45,1.77-2.41c-0.99-0.25-1.58-0.44-2.17-0.54c-5.19-0.93-10.35-2.01-15.57-2.72
	c-5.7-0.77-9.74-3.42-12.19-8.77c-2.06-4.49-4.57-8.79-6.92-13.15c-0.51-0.94-1.18-1.79-1.93-2.92c-0.76,1.19-1.42,2.08-1.94,3.05
	c-2.26,4.23-4.7,8.38-6.66,12.74c-2.49,5.51-6.6,8.29-12.49,9.1C529.3,353.72,523.66,354.89,517.22,356.02z"/>
<path class="st0" d="M667.61,352.18c9.78,0,19.01,0,28.18,0c0.99,3.21,1.15,15.22,0.28,20.62c-0.52,0.1-1.11,0.32-1.71,0.32
	c-8.76,0.02-17.53,0.02-26.39,0.02c-1.27-3.65-0.53-7.16-0.63-10.6C667.25,359.23,667.08,355.88,667.61,352.18z"/>
<path class="st0" d="M415.73,352.42c4.49-0.59,23.65-0.63,28.49-0.11c1,1.98,0.42,4.23,0.51,6.38c0.1,2.38,0.02,4.77,0.02,7.16
	c0,2.21,0,4.43,0,6.71c-3.36,1.18-6.55,0.51-9.67,0.63c-3.02,0.12-6.05,0.03-9.07,0.03c-3.17,0-6.35,0-9.62,0
	c-1.27-3.65-0.49-7.15-0.63-10.58C415.62,359.32,415.73,356,415.73,352.42z"/>
<path class="st0" d="M448.12,343.06c-6.68-6.79-13.08-13.37-19.71-20.18c4.84-4.96,9.45-9.52,14.24-14.28
	c3.9,3.09,7,6.67,10.36,9.97c3.28,3.22,6.46,6.54,9.65,9.78C460.59,331.27,452.29,339.68,448.12,343.06z"/>
<path class="st0" d="M649.45,329c6.96-6.9,13.73-13.61,20.72-20.53c4.83,4.61,9.26,9.11,13.59,13.63
	c-2.24,3.07-15.47,16.39-19.97,20.17C660.94,340.7,655.48,335.68,649.45,329z"/>
<path class="st0" d="M669.87,416.66c-6.95-7-13.43-13.53-20.16-20.3c4.49-4.83,9.01-9.26,13.62-13.92c4.12,3.11,7.3,6.86,10.74,10.3
	c3.35,3.35,7,6.43,10.13,10.44C679.47,407.65,674.86,411.98,669.87,416.66z"/>
<path class="st0" d="M442.04,416.07c-4.46-4.79-8.66-9.3-12.81-13.76c2.45-3.36,16.23-17.2,19.69-19.84
	c0.39,0.19,0.89,0.31,1.21,0.63c4.05,4.05,8.07,8.13,12.25,12.36c-2.92,3.97-6.64,6.96-9.92,10.34
	C449.13,409.21,445.74,412.55,442.04,416.07z"/>
<linearGradient id="SVGID_00000060746996809634555630000011322225631124766125_" gradientUnits="userSpaceOnUse" x1="647.0927" y1="656.9401" x2="676.3223" y2="656.9401">
	<stop  offset="0" style="stop-color:#7ECAB6"/>
	<stop  offset="1" style="stop-color:#15818E"/>
</linearGradient>
<path style="fill:url(#SVGID_00000060746996809634555630000011322225631124766125_);" d="M664.73,642.47
	c2.42,2.56,8.36,11.46,11.59,17.37c-2.12,2.33-12.17,8.88-17.74,11.57c-2.36-2.2-9.47-13.23-11.49-17.82
	C650.57,650.73,661.36,643.92,664.73,642.47z"/>
<linearGradient id="SVGID_00000026856507716593626850000008804056672241652665_" gradientUnits="userSpaceOnUse" x1="664.2324" y1="683.6995" x2="693.6309" y2="683.6995">
	<stop  offset="0" style="stop-color:#7ECAB6"/>
	<stop  offset="1" style="stop-color:#15818E"/>
</linearGradient>
<path style="fill:url(#SVGID_00000026856507716593626850000008804056672241652665_);" d="M682.04,669.11
	c0.58,0.7,1.04,1.14,1.37,1.66c3.43,5.37,6.83,10.74,10.22,16.08c-2.65,2.59-14.26,9.9-18.1,11.45c-2.46-2.63-9.22-13.09-11.3-17.48
	C666.86,678.42,676.33,672.17,682.04,669.11z"/>
</svg>
