<?xml version="1.0" encoding="utf-8"?>
<!-- Generator: Adobe Illustrator 27.3.1, SVG Export Plug-In . SVG Version: 6.00 Build 0)  -->
<svg version="1.1" id="Layer_1" xmlns="http://www.w3.org/2000/svg" xmlns:xlink="http://www.w3.org/1999/xlink" x="0px" y="0px"
	 viewBox="0 0 1080 1080" style="enable-background:new 0 0 1080 1080;" xml:space="preserve">
<style type="text/css">
	.st0{fill:#EB382E;}
	.st1{fill:url(#SVGID_1_);}
	.st2{fill:url(#SVGID_00000078027902213006837740000013592911765412462243_);}
	.st3{fill:url(#SVGID_00000054962267174977619570000015697873432815636665_);}
	.st4{fill:url(#SVGID_00000090985663255625672360000009330345394750878392_);}
	.st5{fill:url(#SVGID_00000104707916076724439330000013817979620317528204_);}
	.st6{fill:url(#SVGID_00000102530411945810917000000006592585090083982221_);}
	.st7{fill:url(#SVGID_00000173877697142949812560000012319126896048766080_);}
	.st8{fill:url(#SVGID_00000030459813816352554350000006277752844665955760_);}
	.st9{fill:url(#SVGID_00000048469162273424558450000003042978377739645341_);}
	.st10{fill:url(#SVGID_00000073693558588485969800000008210499573405754248_);}
	.st11{fill:url(#SVGID_00000005969749114630431790000002208250860779412412_);}
	.st12{fill:url(#SVGID_00000098188608378424177520000017111734722369095042_);}
	.st13{fill:url(#SVGID_00000075121080060175157330000015775228311703531453_);}
	.st14{fill:url(#SVGID_00000035515985620417042020000009527705630773100447_);}
	.st15{fill:url(#SVGID_00000128479714905585231730000011373030306255028867_);}
	.st16{fill:url(#SVGID_00000085236815702534285840000004960619660712536963_);}
	.st17{fill:url(#SVGID_00000088830752859813038080000008534934030331540652_);}
	.st18{fill:url(#SVGID_00000065042622954279956420000015526317365888634298_);}
	.st19{fill:url(#SVGID_00000075883541753435532070000005529066100758000790_);}
	.st20{fill:url(#SVGID_00000016034437061458563860000009237780968288724157_);}
	.st21{fill:url(#SVGID_00000132768585193105250010000005379727490705024172_);}
	.st22{fill:url(#SVGID_00000090994913603312111900000016485466037101387709_);}
	.st23{fill:url(#SVGID_00000039824978227061400680000009994660193299266220_);}
	.st24{fill:url(#SVGID_00000039832839673540610220000003934777250583737234_);}
	.st25{fill:url(#SVGID_00000021835595354059442810000006334415673947254427_);}
	.st26{fill:url(#SVGID_00000121986785677687508700000003751312688039772824_);}
	.st27{fill:url(#SVGID_00000158016230760414050030000001664578238132039102_);}
	.st28{fill:url(#SVGID_00000135666482633063525180000014738901609923788439_);}
	.st29{fill:url(#SVGID_00000091696808722166670180000004567821164571848375_);}
	.st30{fill:url(#SVGID_00000002374867440305081990000006080061524034084031_);}
	.st31{fill:url(#SVGID_00000000944039093167126240000013840298676133305474_);}
	.st32{fill:url(#SVGID_00000152968764713359515720000003584661212190159280_);}
	.st33{fill:url(#SVGID_00000088842297757566927050000004404963199313467520_);}
	.st34{fill:url(#SVGID_00000107550934404852881790000008934753624922776195_);}
	.st35{fill:url(#SVGID_00000157293821779799739360000010594021366617961407_);}
	.st36{fill:url(#SVGID_00000179626204760599892930000001509888946223252903_);}
	.st37{fill:#FFFFFF;}
	.st38{stroke:#000000;stroke-width:6;stroke-miterlimit:10;}
	.st39{fill:url(#SVGID_00000183932690451141996610000010732131036772743068_);}
	.st40{fill:url(#SVGID_00000173132155026243034050000013334138856961797029_);}
	.st41{fill:url(#SVGID_00000165218686724292526620000010518790551636565673_);}
</style>
<path class="st0" d="M322.8,582.5c85.11,0,169.7,0,254.64,0c13.44,58.1,26.85,116.1,40.37,174.53c-85.14,0-169.73,0-254.62,0
	C349.73,698.93,336.31,640.92,322.8,582.5z"/>
<linearGradient id="SVGID_1_" gradientUnits="userSpaceOnUse" x1="504.9614" y1="641.1536" x2="760.3213" y2="641.1536">
	<stop  offset="0" style="stop-color:#7ECAB6"/>
	<stop  offset="1" style="stop-color:#15818E"/>
</linearGradient>
<path class="st1" d="M504.96,566.48c8.78-10.72,18.29-18.75,29.13-25.21c17.77-10.58,36.99-16.23,57.73-16.31
	c19.12-0.07,38.25-0.26,57.36,0.07c52.43,0.91,100.37,42.05,108.85,93.79c1.79,10.89,1.83,22.11,2.09,33.19
	c0.34,14.22,0.14,28.45,0.07,42.67c-0.19,34.66-26.97,62.03-61.61,62.61c-20.26,0.34-40.53,0.12-60.8-0.04
	c-1.45-0.01-3.89-1.34-4.18-2.48c-3.78-15.19-7.25-30.45-10.93-46.27c9.23,0,18.01,0,26.78,0c5.72,0,11.44,0.02,17.16,0
	c18.43-0.09,32.02-13.04,32.53-31.47c0.34-12.25,0.15-24.52,0.06-36.79c-0.04-5.58-3.46-9.26-8.09-9.13
	c-4.57,0.13-7.52,3.53-7.55,9.02c-0.07,11.44,0.01,22.89-0.03,34.34c-0.05,12.19-6.25,18.32-18.45,18.33
	c-15.19,0.01-30.37,0-45.99,0c-3.02-12.99-6-25.82-8.97-38.66c-6.03-26.08-12.03-52.17-18.09-78.25c-1.82-7.86-3.79-9.41-11.77-9.41
	c-23.04-0.02-46.09-0.01-69.13-0.01C509.43,566.48,507.72,566.48,504.96,566.48z"/>
<linearGradient id="SVGID_00000071537807594405279780000004967929085734607802_" gradientUnits="userSpaceOnUse" x1="537.321" y1="400.9978" x2="698.6841" y2="400.9978">
	<stop  offset="0" style="stop-color:#7ECAB6"/>
	<stop  offset="1" style="stop-color:#15818E"/>
</linearGradient>
<path style="fill:url(#SVGID_00000071537807594405279780000004967929085734607802_);" d="M698.68,401.16
	c-0.05,44.62-36.21,80.71-80.82,80.67c-44.53-0.04-80.62-36.31-80.55-80.94c0.08-44.6,36.37-80.85,80.81-80.74
	C662.67,320.28,698.74,356.54,698.68,401.16z"/>
</svg>
