<?xml version="1.0" encoding="utf-8"?>
<!-- Generator: Adobe Illustrator 27.3.1, SVG Export Plug-In . SVG Version: 6.00 Build 0)  -->
<svg version="1.1" id="Layer_1" xmlns="http://www.w3.org/2000/svg" xmlns:xlink="http://www.w3.org/1999/xlink" x="0px" y="0px"
	 viewBox="0 0 1080 1080" style="enable-background:new 0 0 1080 1080;" xml:space="preserve">
<style type="text/css">
	.st0{fill:url(#SVGID_1_);}
	.st1{fill:#EB382E;}
	.st2{fill:url(#SVGID_00000074401003543159418120000011843881453590105763_);}
	.st3{fill:url(#SVGID_00000016038132727357155130000006590608911498029716_);}
	.st4{fill:#FFFFFF;}
	.st5{fill:url(#SVGID_00000085936157305660410250000000984506725159534007_);}
	.st6{fill:url(#SVGID_00000084528676063191867090000000585026102181583538_);}
	.st7{fill:url(#SVGID_00000066484032970550478980000000857477856755642268_);}
	.st8{fill:url(#SVGID_00000116914324274238839120000014630495307072601783_);}
	.st9{fill:url(#SVGID_00000119107022577153859720000005197336200471972536_);}
	.st10{fill:url(#SVGID_00000154407931683875905040000012828383636400552862_);}
	.st11{fill:url(#SVGID_00000002369444932642341830000016269500437945771673_);}
	.st12{fill:url(#SVGID_00000028316235554051013600000013702899087932577172_);}
	.st13{fill:url(#SVGID_00000150804305365690169040000005492527502518345371_);}
	.st14{fill:url(#SVGID_00000111175660394405779950000006897405167013357699_);}
	.st15{fill:url(#SVGID_00000170254465082396964390000000771237824203776153_);}
	.st16{fill:url(#SVGID_00000026132116697673015470000015122564901954736311_);}
	.st17{fill:url(#SVGID_00000117660251725121161150000000869634787723145646_);}
	.st18{fill:url(#SVGID_00000016762309123340277010000003492828322240691636_);}
	.st19{fill:url(#SVGID_00000048498632751320847880000015276490133041983132_);}
	.st20{fill:url(#SVGID_00000041987403736507773780000016578877004551445906_);}
	.st21{fill:url(#SVGID_00000003792520402392085190000007953691895777035671_);}
	.st22{fill:url(#SVGID_00000078030175875192538660000012791985833881895096_);}
	.st23{fill:url(#SVGID_00000039107483993363811280000003383283464625769366_);}
	.st24{fill:url(#SVGID_00000147914823864723308180000015158871278409222315_);}
	.st25{fill:url(#SVGID_00000049201788287992118210000017133793176568343473_);}
	.st26{fill:url(#SVGID_00000179635120213972989550000004906098795852576395_);}
</style>
<linearGradient id="SVGID_1_" gradientUnits="userSpaceOnUse" x1="280.332" y1="442.7061" x2="844.3665" y2="442.7061">
	<stop  offset="0" style="stop-color:#7ECAB6"/>
	<stop  offset="1" style="stop-color:#15818E"/>
</linearGradient>
<path class="st0" d="M831.23,623.9c-5.91-5.68-6.93-12.68-8.3-19.47c-2.41-11.93-4.44-23.94-7.11-35.82
	c-1.04-4.62-2.46-9.63-5.24-13.31c-8.82-11.7-8.39-25.24-9.34-38.71c-1.89-26.83-8.24-52.44-21.63-76.07
	c-3.03-5.35-6.74-8-13.11-8.69c-14.83-1.59-27.29-7.87-37.07-19.76c-27.92-33.96-61.9-59.75-105.49-68.95
	c-52.51-11.08-104.97-11.21-155.39,10.88C439.95,366.53,416.4,386,396.79,410c-10.98,13.44-24.52,20.46-41.48,22.46
	c-3.32,0.39-7.33,3.4-9.18,6.35c-12.53,20-18.75,42.25-21.79,65.47c-0.72,5.55-1.32,11.14-1.44,16.73
	c-0.26,11.85-2.2,22.79-8.58,33.44c-8.99,15-10.32,32.57-12.88,49.59c-1.04,6.97-2.2,14.13-9.07,20.57
	c-3.07-13.95-6.7-26.63-8.58-39.56c-12.35-84.83,8.29-160.93,63.08-226.87c43.46-52.3,100-82.85,167-93.27
	c73.29-11.39,142.58,0.38,205.12,41.44c66.5,43.67,105.67,106.17,120.61,183.91c8.22,42.76,5.56,85.22-6.12,127.14
	C832.92,619.45,832.1,621.42,831.23,623.9z"/>
<path class="st1" d="M349.08,529.53c13.77-5.76,26.61-11.89,39.96-16.54c15.67-5.45,31.88,2.64,38.8,18.62
	c11.91,27.51,23.52,55.14,35.23,82.73c19.99,47.09,39.97,94.18,59.93,141.29c8.45,19.95,1.61,37.08-18.26,45.67
	c-11.15,4.82-22.35,9.5-34.12,14.5C430.08,720.31,389.74,625.29,349.08,529.53z"/>
<path class="st1" d="M653.76,815.79c-13.42-5.73-26.31-10.65-38.68-16.65c-15.75-7.64-21.39-25.44-14.13-42.64
	c15.09-35.71,30.28-71.38,45.44-107.06c16.33-38.44,32.64-76.89,49.01-115.32c8.85-20.77,25.61-27.55,46.36-18.8
	c11.01,4.64,21.99,9.36,33.5,14.27C734.74,625.05,694.39,720.08,653.76,815.79z"/>
<linearGradient id="SVGID_00000117653237826870859490000004444891934379711408_" gradientUnits="userSpaceOnUse" x1="299.3308" y1="677.8366" x2="456.6091" y2="677.8366">
	<stop  offset="0" style="stop-color:#7ECAB6"/>
	<stop  offset="1" style="stop-color:#15818E"/>
</linearGradient>
<path style="fill:url(#SVGID_00000117653237826870859490000004444891934379711408_);" d="M339.6,540.01
	c39.15,92.23,77.68,183,117.01,275.66c-6.93-0.88-12.39-1.12-17.63-2.32c-12.42-2.86-23.7-8.33-34.06-15.78
	c-6.49-4.67-12.77-9.84-19.83-13.44c-6.25-3.18-13.32-5.19-20.26-6.44c-5.97-1.08-9.83-3.48-12.19-9.06
	c-17.1-40.51-34.29-80.97-51.52-121.42c-1.83-4.31-3.01-8.94,0.31-12.47c11.12-11.8,12.67-26.75,14.61-41.64
	c1.94-14.87,6.23-28.92,14.49-41.55C332.9,547.89,335.9,544.67,339.6,540.01z"/>
<linearGradient id="SVGID_00000175294575131347273770000001588975408673839517_" gradientUnits="userSpaceOnUse" x1="668.0688" y1="677.2538" x2="824.9479" y2="677.2538">
	<stop  offset="0" style="stop-color:#7ECAB6"/>
	<stop  offset="1" style="stop-color:#15818E"/>
</linearGradient>
<path style="fill:url(#SVGID_00000175294575131347273770000001588975408673839517_);" d="M668.07,814.92
	c39.06-92.01,77.6-182.79,116.96-275.48c4.82,7.04,9.11,12.48,12.5,18.43c7.67,13.48,10.04,28.53,12.02,43.66
	c1.54,11.82,4.2,23.14,12.83,32.29c4.14,4.39,2.53,9.62,0.39,14.64c-13.41,31.43-26.75,62.9-40.12,94.35
	c-3.75,8.83-7.56,17.63-11.26,26.49c-1.84,4.41-4.78,7.8-9.66,7.84c-12.79,0.11-22.7,6.64-32.76,13.37
	c-9.6,6.43-19.3,12.87-29.57,18.11C690.18,813.32,680.01,815.73,668.07,814.92z"/>
</svg>
