<?xml version="1.0" encoding="utf-8"?>
<!-- Generator: Adobe Illustrator 27.3.1, SVG Export Plug-In . SVG Version: 6.00 Build 0)  -->
<svg version="1.1" id="Layer_1" xmlns="http://www.w3.org/2000/svg" xmlns:xlink="http://www.w3.org/1999/xlink" x="0px" y="0px"
	 viewBox="0 0 1080 1080" style="enable-background:new 0 0 1080 1080;" xml:space="preserve">
<style type="text/css">
	.st0{fill:#EB382E;}
	.st1{fill:url(#SVGID_1_);}
	.st2{fill:url(#SVGID_00000181049580328815461330000014974210083643803019_);}
	.st3{fill:url(#SVGID_00000157284992152557339330000003723757003593247670_);}
	.st4{fill:url(#SVGID_00000137849480462864958410000017383346270703626912_);}
	.st5{fill:url(#SVGID_00000085233686733087792580000003652865961902601145_);}
	.st6{fill:url(#SVGID_00000008842601005850750270000001869764857533356427_);}
	.st7{fill:url(#SVGID_00000136391961225344903820000011964722837878828953_);}
	.st8{fill:url(#SVGID_00000081625860830749102020000000867499235813787026_);}
	.st9{fill:url(#SVGID_00000163071628263628202980000003180443190011768249_);}
	.st10{fill:url(#SVGID_00000047760764377815073680000001320910236061503162_);}
	.st11{fill:url(#SVGID_00000078754412244382539290000001931802714865902720_);}
	.st12{fill:url(#SVGID_00000044855901698913631010000006163157412471710901_);}
	.st13{fill:url(#SVGID_00000089549400981159926290000005165006159552782985_);}
	.st14{fill:url(#SVGID_00000000924407884086720250000016357775533412512162_);}
	.st15{fill:url(#SVGID_00000003802659982870009790000008206372288785394336_);}
	.st16{fill:url(#SVGID_00000178191103698926709370000014819670227165841065_);}
	.st17{fill:url(#SVGID_00000155128490506316512100000003180767994863125172_);}
	.st18{fill:url(#SVGID_00000090282170320555374210000010585445442339105944_);}
	.st19{fill:url(#SVGID_00000109005634769055236920000006649713424715246780_);}
	.st20{fill:url(#SVGID_00000011032712289202017510000011372314775622768522_);}
	.st21{fill:url(#SVGID_00000095307917289099011270000000063458973866909588_);}
	.st22{fill:url(#SVGID_00000176721450730216080290000015744398285398717608_);}
	.st23{fill:url(#SVGID_00000146457491735378333100000015478465600116605063_);}
	.st24{fill:url(#SVGID_00000114046690167125646260000018056185159184526245_);}
	.st25{fill:url(#SVGID_00000083053139728420590840000007910765837424673180_);}
	.st26{fill:url(#SVGID_00000035493513239402721130000010932357948654739637_);}
	.st27{fill:url(#SVGID_00000037688721801645459300000006101769364990537880_);}
	.st28{fill:url(#SVGID_00000170275374321567131000000002595326392761061036_);}
	.st29{fill:url(#SVGID_00000178192715859036967690000016678630849089537684_);}
	.st30{fill:url(#SVGID_00000161616589202891644830000003998986195039204026_);}
	.st31{fill:url(#SVGID_00000134250879151055783910000016336215459909145236_);}
	.st32{fill:url(#SVGID_00000037655352667541985460000009566583279194028698_);}
	.st33{fill:url(#SVGID_00000178901858759069133280000011225987679652464273_);}
	.st34{fill:url(#SVGID_00000018206603742563532440000013761461515956500899_);}
	.st35{fill:url(#SVGID_00000043417530785503755550000000134682913500053676_);}
	.st36{fill:url(#SVGID_00000111878309025974219680000010872480496895976334_);}
	.st37{fill:#FFFFFF;}
	.st38{stroke:#000000;stroke-width:6;stroke-miterlimit:10;}
	.st39{fill:url(#SVGID_00000046337156329344778970000015268646587447513238_);}
	.st40{fill:url(#SVGID_00000147190066643621374250000005582560883428554167_);}
	.st41{fill:url(#SVGID_00000093857148730164795240000018324501797252003465_);}
</style>
<path class="st0" d="M584.25,577.53c-0.08,1.78-0.21,3.26-0.21,4.74c-0.02,8.82,0,17.63-0.02,26.45c0,1.67,0.03,3.36-0.19,5.01
	c-0.84,6.4-5.39,10.72-11.81,11.32c-0.91,0.08-1.82,0.1-2.73,0.1c-14.9,0.01-29.79,0.01-44.69,0c-1.06,0-2.13-0.01-3.19-0.13
	c-6.22-0.68-10.61-4.95-11.41-11.17c-0.23-1.8-0.24-3.64-0.24-5.46c-0.02-8.67,0-17.33-0.02-26c0-1.49-0.12-2.98-0.18-4.29
	c-1.65-1.16-3.21-0.77-4.69-0.78c-8.51-0.04-17.03,0.02-25.54-0.05c-2.42-0.02-4.88-0.17-7.25-0.62c-5.09-0.95-8.47-3.95-9.66-9.09
	c-0.41-1.76-0.7-3.6-0.71-5.4c-0.06-14.75-0.06-29.49,0-44.24c0.01-1.95,0.31-3.95,0.8-5.84c1.16-4.5,4.1-7.42,8.63-8.46
	c2.2-0.51,4.5-0.77,6.76-0.79c8.97-0.1,17.94-0.05,26.91-0.08c1.48,0,2.96-0.12,4.71-0.19c0.08-1.77,0.2-3.25,0.2-4.74
	c0.02-8.36-0.01-16.72,0.03-25.08c0.01-2.28,0.03-4.58,0.35-6.82c0.87-6.14,4.63-9.84,10.74-10.65c2.25-0.3,4.55-0.43,6.82-0.44
	c13.07-0.04,26.15-0.03,39.22-0.01c1.82,0,3.65,0.11,5.46,0.33c6.47,0.79,10.49,4.68,11.42,11.12c0.26,1.79,0.23,3.64,0.23,5.46
	c0.02,8.97,0,17.94,0.02,26.91c0,1.18,0.1,2.37,0.17,3.84c1.39,0.1,2.55,0.26,3.72,0.26c9.42,0.03,18.85-0.01,28.27,0.08
	c2.11,0.02,4.26,0.27,6.3,0.76c4.9,1.17,7.88,4.38,8.95,9.28c0.39,1.77,0.62,3.61,0.62,5.42c0.05,14.44,0.04,28.88,0.01,43.33
	c0,1.66-0.19,3.34-0.51,4.97c-1.11,5.7-4.59,9.19-10.25,10.15c-2.23,0.38-4.53,0.51-6.8,0.53c-8.51,0.06-17.03,0.01-25.54,0.03
	C587.51,577.32,586.03,577.45,584.25,577.53z M604.7,529.24c-1.77,0-3.27,0-4.77,0c-8.52,0-17.03,0.04-25.55-0.03
	c-2.26-0.02-4.56-0.23-6.78-0.68c-5.15-1.04-8.32-4.26-9.27-9.42c-0.44-2.38-0.66-4.82-0.68-7.24c-0.08-8.82-0.02-17.64-0.05-26.46
	c0-1.16-0.23-2.31-0.34-3.4c-5.5-0.64-17.44-0.51-20.91,0.25c-0.06,1.41-0.18,2.9-0.19,4.38c-0.02,8.52,0.03,17.03-0.04,25.55
	c-0.02,2.27-0.13,4.58-0.57,6.8c-0.92,4.7-3.71,7.99-8.37,9.31c-2.16,0.61-4.48,0.87-6.73,0.89c-8.97,0.1-17.95,0.04-26.92,0.05
	c-1.49,0-2.99,0.08-4.44,0.12c-0.24,0.66-0.52,1.08-0.52,1.5c-0.03,6.08-0.05,12.16,0,18.25c0,0.53,0.43,1.06,0.75,1.78
	c1.58,0,3.1,0,4.61,0c8.21,0,16.42-0.01,24.64,0.01c1.97,0.01,3.96,0.02,5.92,0.25c6.36,0.76,10.25,4.5,11.14,10.79
	c0.34,2.4,0.47,4.85,0.49,7.27c0.06,8.36,0.01,16.73,0.04,25.1c0.01,1.31-0.33,2.73,0.54,3.87c4.76,0.61,16.96,0.53,20.71-0.16
	c0.07-1.41,0.19-2.89,0.2-4.38c0.02-8.82-0.03-17.64,0.04-26.46c0.02-2.11,0.18-4.27,0.64-6.32c1.24-5.54,5.1-8.99,10.7-9.73
	c1.5-0.2,3.03-0.22,4.55-0.23c9.12-0.02,18.25,0.01,27.37-0.03c1.32-0.01,2.75,0.37,3.91-0.66
	C605.33,546.31,605.31,533.54,604.7,529.24z"/>
<linearGradient id="SVGID_1_" gradientUnits="userSpaceOnUse" x1="424.0977" y1="356.3591" x2="791.9818" y2="356.3591">
	<stop  offset="0" style="stop-color:#7ECAB6"/>
	<stop  offset="1" style="stop-color:#15818E"/>
</linearGradient>
<path class="st1" d="M449.73,364.36c0.54,6.79,3.32,9.8,9.45,10.65c5.98,0.83,11.86,0.13,17.61-1.44c7.32-2,14.6-4.2,21.86-6.41
	c2.93-0.89,5.84-1.67,8.94-1.48c5.44,0.32,9.1,3.1,11.07,8.1c2.05,5.2,0.83,10.71-3.03,14.25c-1.83,1.68-3.98,2.77-6.37,3.42
	c-13.05,3.53-26.05,7.29-39.39,9.61c-6.05,1.05-12.1,1.33-18.13-0.03c-14.17-3.19-25.87-13.66-27.44-31.77
	c-0.29-3.32-0.2-6.69-0.16-10.03c0.08-7.13,3.42-12.48,9.29-16.31c1.64-1.07,3.45-1.93,5.27-2.68c21.64-8.91,43.3-17.76,64.92-26.69
	c4.14-1.71,8.36-2.63,12.85-2.61c13.99,0.06,28.01-0.52,41.98,0.13c15.5,0.72,30.99-0.05,46.48,0.51
	c11.59,0.42,22.59,2.81,33.11,7.5c6.94,3.1,13.76,6.44,20.61,9.73c13.56,6.52,27.15,12.98,40.63,19.66
	c14.31,7.09,29.4,10.49,45.35,10.34c10.04-0.09,20.08-0.05,30.12,0.01c2.27,0.01,4.58,0.18,6.79,0.63
	c6.53,1.34,10.64,6.6,10.43,13.06c-0.21,6.41-4.74,11.44-11.26,12.41c-1.5,0.22-3.03,0.22-4.55,0.21
	c-8.37-0.07-16.74,0.02-25.09-0.31c-9.57-0.38-19.14-0.94-28.67-1.83c-7.6-0.7-14.88-3.01-22-5.72
	c-10.66-4.06-21.01-8.83-31.27-13.8c-11.77-5.69-23.52-11.41-35.23-17.21c-12.21-6.05-25.07-9-38.72-8.93
	c-24.95,0.12-49.89,0.09-74.84,0.05c-3.4,0-6.58,0.55-9.75,1.86c-19.52,8.07-39.08,16.03-58.62,24.04
	C451.28,363.56,450.62,363.93,449.73,364.36z"/>
<linearGradient id="SVGID_00000167374905129278194240000003691054015995562931_" gradientUnits="userSpaceOnUse" x1="301.8017" y1="723.6816" x2="669.9066" y2="723.6816">
	<stop  offset="0" style="stop-color:#7ECAB6"/>
	<stop  offset="1" style="stop-color:#15818E"/>
</linearGradient>
<path style="fill:url(#SVGID_00000167374905129278194240000003691054015995562931_);" d="M644.02,715.74
	c-0.52-6.53-2.92-9.27-8.57-10.51c-5.35-1.17-10.6-0.43-15.82,0.65c-7.45,1.55-14.72,3.74-21.93,6.13
	c-2.16,0.72-4.34,1.39-6.53,2.02c-2.38,0.68-4.83,0.73-7.22,0.13c-5.66-1.42-8.66-5.33-9.7-10.88c-0.94-5.04,1.4-10.09,5.98-12.8
	c1.42-0.84,3.01-1.48,4.61-1.9c10.57-2.78,21.15-5.56,31.77-8.15c3.97-0.97,8.06-1.62,12.13-2.05c8.71-0.92,17.03,0.64,24.52,5.28
	c10.44,6.46,15.99,15.97,16.59,28.26c0.2,4.11-0.18,8.19-0.84,12.26c-0.95,5.8-3.96,10.11-8.89,13.14
	c-1.54,0.95-3.21,1.73-4.89,2.42c-22.05,9.09-44.11,18.14-66.15,27.25c-3.72,1.54-7.53,2.24-11.54,2.23
	c-14.3-0.03-28.59,0.03-42.89-0.01c-1.65,0-3.29-0.4-4.94-0.54c-1.36-0.12-2.72-0.16-4.09-0.16c-11.71-0.03-23.42-0.13-35.13-0.02
	c-11.76,0.1-22.91-2.51-33.67-7.04c-4.06-1.71-8.05-3.58-12.02-5.49c-16.28-7.87-32.55-15.74-48.79-23.7
	c-10.04-4.92-20.48-8.54-31.58-9.97c-5.11-0.66-10.29-1.02-15.45-1.11c-9.73-0.16-19.46,0-29.2-0.01c-2.13,0-4.28,0.04-6.37-0.29
	c-10.61-1.65-13.35-11.01-10.65-17.88c1.63-4.16,4.79-6.61,9.03-7.59c1.9-0.44,3.92-0.55,5.88-0.53c8.21,0.08,16.42,0.33,24.63,0.41
	c10.05,0.1,20.06,0.66,30.03,1.9c7.74,0.96,15.12,3.29,22.36,6.1c11.63,4.51,22.88,9.85,34.09,15.29
	c9.98,4.84,19.91,9.77,29.85,14.7c13.03,6.46,26.76,9.65,41.34,9.56c23.88-0.15,47.75-0.1,71.63-0.03
	c4.49,0.01,8.67-0.79,12.83-2.52c18.79-7.82,37.66-15.47,56.49-23.18C641.91,716.71,642.86,716.25,644.02,715.74z"/>
<linearGradient id="SVGID_00000093163249913991446340000001250153190826833291_" gradientUnits="userSpaceOnUse" x1="301.8354" y1="661.4137" x2="569.9888" y2="661.4137">
	<stop  offset="0" style="stop-color:#7ECAB6"/>
	<stop  offset="1" style="stop-color:#15818E"/>
</linearGradient>
<path style="fill:url(#SVGID_00000093163249913991446340000001250153190826833291_);" d="M542.62,699.22
	c0.85-2.13,0.29-3.86-0.26-5.57c-1.3-4.05-3.87-7.19-7.14-9.81c-4.77-3.82-9.97-6.94-15.53-9.47c-3.46-1.57-6.93-3.11-10.43-4.58
	c-10.93-4.57-21.88-9.1-32.82-13.64c-1.26-0.52-2.52-1.07-3.76-1.64c-3.57-1.64-6.34-4.1-8.08-7.69c-0.79-1.64-1.7-3.23-2.66-4.78
	c-7.93-12.83-19.53-20.01-34.29-22.51c-9.31-1.58-18.46-0.82-27.6,1.17c-5.79,1.26-11.59,2.48-17.4,3.58
	c-2.37,0.45-4.81,0.8-7.22,0.81c-19.31,0.08-38.62,0.06-57.93,0.08c-2.44,0-4.85-0.14-7.17-1.03c-5.54-2.12-8.7-6.84-8.46-12.72
	c0.24-5.81,3.87-10.46,9.59-11.86c2.33-0.57,4.81-0.77,7.22-0.78c12.92-0.07,25.85-0.03,38.78-0.04c4.87,0,9.73-0.07,14.6-0.03
	c3.38,0.03,6.63-0.48,9.85-1.53c9.43-3.09,19.1-5.15,29.03-5.42c25.38-0.7,47.63,6.81,65.33,25.65c3,3.2,5.62,6.8,8.09,10.44
	c1.87,2.77,4.17,4.71,7.23,5.97c12.07,4.98,24.12,10.04,36.17,15.08c5.47,2.29,10.85,4.75,15.88,7.94
	c5.7,3.61,10.82,7.87,15.08,13.11c10.64,13.09,13.81,27.8,9.33,44.07c-0.84,3.07-1.92,6.1-3.18,9.02c-2.91,6.74-8.52,9.39-15.6,7.49
	c-1.61-0.43-3.18-1.03-4.72-1.67c-28.33-11.77-56.66-23.56-84.98-35.35c-2.53-1.05-5.01-2.21-7.06-4.09
	c-5.86-5.37-5.84-14.09,0.1-19.34c3.62-3.2,7.91-3.68,12.42-2.61c1.9,0.45,3.73,1.27,5.56,2.02c22.59,9.35,45.18,18.73,67.77,28.09
	C539.69,698.14,541.1,698.64,542.62,699.22z"/>
<linearGradient id="SVGID_00000114790831956994694480000016510073120385654204_" gradientUnits="userSpaceOnUse" x1="523.7304" y1="418.7521" x2="791.4835" y2="418.7521">
	<stop  offset="0" style="stop-color:#7ECAB6"/>
	<stop  offset="1" style="stop-color:#15818E"/>
</linearGradient>
<path style="fill:url(#SVGID_00000114790831956994694480000016510073120385654204_);" d="M550.41,380.57
	c0.21,6.43,2.76,10.75,6.74,14.33c4.67,4.2,9.88,7.59,15.6,10.17c5.54,2.49,11.12,4.91,16.71,7.27c9.38,3.95,18.78,7.83,28.17,11.76
	c1.4,0.59,2.8,1.19,4.15,1.88c3.2,1.63,5.75,3.95,7.32,7.24c0.26,0.55,0.55,1.08,0.84,1.62c7.17,13.45,18.35,21.56,33.1,24.99
	c13.69,3.18,27.2,2.45,40.42-2.16c5.7-1.99,11.41-2.83,17.42-2.78c17.94,0.15,35.88,0.08,53.82,0.14c1.97,0.01,3.98,0.02,5.91,0.38
	c9.16,1.69,13.76,12.24,8.89,20.23c-1.86,3.06-4.68,4.74-8.15,5.25c-2.1,0.31-4.24,0.41-6.36,0.41c-11.4,0.01-22.81-0.07-34.21-0.07
	c-6.23,0-12.47,0.13-18.7,0.14c-3.83,0.01-7.52,0.65-11.19,1.8c-11.83,3.7-23.92,5.64-36.37,5.21c-14.46-0.5-27.77-4.67-40.1-12.15
	c-6.7-4.06-12.55-9.06-17.48-15.17c-2.67-3.31-5.45-6.54-8.2-9.79c-2.1-2.49-4.66-4.22-7.7-5.48c-12.77-5.28-25.49-10.7-38.22-16.07
	c-4.91-2.07-9.67-4.43-14.12-7.37c-6.15-4.06-11.51-8.96-15.8-14.98c-8.52-11.96-11.24-25.1-7.6-39.38
	c1.01-3.96,2.33-7.88,3.96-11.62c2.35-5.4,6.61-7.62,12.46-7.21c2.95,0.21,5.6,1.33,8.27,2.43c17.68,7.33,35.35,14.68,53.02,22.03
	c10.52,4.37,21.03,8.76,31.56,13.11c2.69,1.11,5.27,2.39,7.3,4.53c3.01,3.17,4.39,6.85,3.51,11.26
	c-1.52,7.57-7.98,11.96-15.56,10.33c-2.5-0.54-4.94-1.49-7.32-2.47c-22.18-9.17-44.33-18.38-66.5-27.58
	C554.35,382.08,552.66,381.45,550.41,380.57z"/>
<path class="st0" d="M373.95,538.28c0.38-35.84,10.71-68.51,31.32-97.87c1.64-2.34,3.45-4.72,5.66-6.49
	c6.92-5.55,17.44-2.36,20.13,5.99c1.22,3.79,0.79,7.53-1.12,11.03c-0.73,1.33-1.59,2.59-2.47,3.82
	c-12.3,17.37-20.58,36.45-24.65,57.36c-2.84,14.59-3.36,29.27-1.66,44.02c0.45,3.92,1.24,7.8,1.7,11.72
	c0.29,2.4,0.52,4.87,0.31,7.26c-0.54,5.99-4.76,10.2-10.86,11.19c-5.9,0.96-11.4-1.93-13.75-7.41c-0.71-1.65-1.2-3.47-1.43-5.25
	c-1.13-8.74-2.22-17.49-3.13-26.25C373.69,544.39,373.95,541.32,373.95,538.28z"/>
<path class="st0" d="M693.55,541.27c0.12-9.83-0.89-18.88-2.46-27.89c-0.39-2.23-0.57-4.54-0.46-6.8
	c0.32-6.87,5.11-11.78,11.74-12.27c6.93-0.5,12.63,3.64,13.9,10.45c0.84,4.47,1.28,9.03,1.82,13.55c0.56,4.68,1.12,9.36,1.48,14.05
	c0.28,3.63,0.41,7.29,0.33,10.93c-0.81,35.32-11.08,67.55-31.61,96.41c-1.4,1.97-2.98,3.86-4.72,5.53
	c-1.99,1.91-4.41,3.25-7.25,3.55c-7.75,0.84-13.99-4.86-13.9-12.65c0.03-3.12,0.85-6.01,2.43-8.67c2.01-3.4,3.96-6.84,6.15-10.13
	c11.49-17.27,18.2-36.33,21.25-56.74C693.26,553.98,693.78,547.31,693.55,541.27z"/>
<path class="st0" d="M457.27,420.6c-0.13,4.54-2.84,8.74-7.7,11.41c-4.44,2.45-9.03,2.27-13.43-0.36
	c-4.56-2.72-8.57-9.71-4.61-17.13c3.05-5.71,9.22-8.97,15.08-7.91C452.99,407.78,457.28,412.95,457.27,420.6z"/>
<path class="st0" d="M651.05,673.62c-5.36,0-10.14-3.16-12.16-8.03c-2.07-4.97-1.04-10.43,2.91-14.24c3.72-3.6,8.14-5.26,13.32-3.79
	c5.09,1.44,8.34,4.82,9.57,9.96c0.34,1.43,0.42,3.04,0.17,4.49C663.71,668.76,657.22,673.83,651.05,673.62z"/>
</svg>
