<?xml version="1.0" encoding="utf-8"?>
<!-- Generator: Adobe Illustrator 27.3.1, SVG Export Plug-In . SVG Version: 6.00 Build 0)  -->
<svg version="1.1" id="Layer_1" xmlns="http://www.w3.org/2000/svg" xmlns:xlink="http://www.w3.org/1999/xlink" x="0px" y="0px"
	 viewBox="0 0 1080 1080" style="enable-background:new 0 0 1080 1080;" xml:space="preserve">
<style type="text/css">
	.st0{fill:#EB382E;}
	.st1{fill:url(#SVGID_1_);}
	.st2{fill:url(#SVGID_00000135673313729877638960000003873979190328845206_);}
	.st3{fill:url(#SVGID_00000052095976478776152040000005035222499076985219_);}
	.st4{fill:url(#SVGID_00000026848242566713608770000004575676116300945563_);}
	.st5{fill:url(#SVGID_00000083057713085714623970000004286869933486555301_);}
	.st6{fill:#FFFFFF;}
	.st7{fill:url(#SVGID_00000067215645193741895870000018370478496580744846_);}
	.st8{fill:url(#SVGID_00000119115267120430577310000010901374172350037407_);}
	.st9{fill:url(#SVGID_00000081649091166988445240000017618248153310755506_);}
	.st10{fill:url(#SVGID_00000056413079333185076090000012222261400925031094_);}
	.st11{fill:url(#SVGID_00000045611728659034379280000008692769058739393408_);}
	.st12{fill:url(#SVGID_00000021812513848422343790000000594795651076256429_);}
	.st13{fill:url(#SVGID_00000148634327619957642090000014320254544071850912_);}
	.st14{fill:url(#SVGID_00000016073464691584121000000006180930246051705998_);}
	.st15{fill:url(#SVGID_00000121970058498231719010000003444262544648280238_);}
	.st16{fill:url(#SVGID_00000060747302336654201230000012402724573624353927_);}
	.st17{fill:url(#SVGID_00000161629461525518096990000009708080833123300488_);}
	.st18{fill:url(#SVGID_00000181071908919056066140000017097990797865410992_);}
	.st19{fill:url(#SVGID_00000156581653099818228050000001075305931427587003_);}
	.st20{fill:url(#SVGID_00000142157187704794195270000002450632486552867262_);}
	.st21{fill:url(#SVGID_00000005259144017366237450000002096029646153799315_);}
	.st22{fill:url(#SVGID_00000034070766597494039570000012766594523682241205_);}
	.st23{fill:url(#SVGID_00000154422525861344497060000010027898783625135234_);}
	.st24{fill:url(#SVGID_00000031908837834392306960000006423519844290815667_);}
	.st25{fill:url(#SVGID_00000116209480301523667630000003137439278632133774_);}
	.st26{fill:url(#SVGID_00000073691048484125299040000012612807496027281289_);}
	.st27{fill:url(#SVGID_00000017488408373542503290000015208716717201602728_);}
	.st28{fill:url(#SVGID_00000099660287167051367650000000236481995859095182_);}
	.st29{fill:url(#SVGID_00000084519255895629685110000004615439623099492254_);}
	.st30{fill:url(#SVGID_00000009567041282178871800000008530718396954031541_);}
	.st31{fill:url(#SVGID_00000030460959272822273900000017882421222194723998_);}
	.st32{fill:url(#SVGID_00000161605979836503749020000010118062732047218588_);}
	.st33{fill:url(#SVGID_00000103252197408961938400000016306799797331099317_);}
	.st34{fill:url(#SVGID_00000065076936249769024930000007803885079556783236_);}
	.st35{fill:url(#SVGID_00000135680735479637614900000002166055677569323137_);}
	.st36{fill:url(#SVGID_00000147186291225902829850000001824841344505601920_);}
	.st37{fill:url(#SVGID_00000078728923141342955820000014312758300342220434_);}
	.st38{fill:url(#SVGID_00000160877700177637752490000012751394075061387433_);}
	.st39{fill:url(#SVGID_00000094577683188419995630000006290349246361180034_);}
	.st40{fill:url(#SVGID_00000162336280526240468480000016635369070017706401_);}
	.st41{fill:url(#SVGID_00000183935701492630492970000004482974282913455515_);}
	.st42{fill:url(#SVGID_00000128467966845589619190000017234549638735325097_);}
	.st43{fill:url(#SVGID_00000093145926569369543830000009842898491248415877_);}
	.st44{fill:url(#SVGID_00000062153436012123600680000005768600638494100866_);}
	.st45{fill:url(#SVGID_00000106834689127586523250000013640387362029965193_);}
	.st46{fill:url(#SVGID_00000111189418585805930070000017535597819065871239_);}
	.st47{fill:url(#SVGID_00000026871397473881515270000015366844582028670868_);}
	.st48{fill:url(#SVGID_00000017500636741891872050000000810176369769881757_);}
	.st49{fill:url(#SVGID_00000147180509259045661370000006445229224549341833_);}
	.st50{fill:url(#SVGID_00000134231271295585327970000018344343361284848274_);}
	.st51{fill:url(#SVGID_00000093866939095071628010000002267522350777325213_);}
</style>
<linearGradient id="SVGID_1_" gradientUnits="userSpaceOnUse" x1="342.8907" y1="592.8972" x2="785.2925" y2="592.8972">
	<stop  offset="0" style="stop-color:#7ECAB6"/>
	<stop  offset="1" style="stop-color:#15818E"/>
</linearGradient>
<path class="st1" d="M342.89,660.58c0-25.71,0-51.42,0-77.13c0.23-1.39,0.6-2.78,0.68-4.18c1.23-19.71,5.61-38.78,12.45-57.23
	c14.02-37.83,35.88-70.48,65.75-97.69c30.7-27.96,66.34-45.43,107.71-50.74c6.55-0.84,13.11-1.66,19.66-2.49c8.67,0,17.33,0,26,0
	c1.26,0.26,2.51,0.59,3.78,0.76c8.72,1.15,17.56,1.69,26.14,3.49c84.4,17.65,141.69,66.91,171.2,148.01
	c3.75,10.31,5.92,21.2,9.03,32.55c-2.96-0.26-4.66-0.35-6.34-0.56c-24.19-3.03-48.38-6.11-72.58-9.13
	c-35.79-4.47-71.61-8.71-107.37-13.41c-25.72-3.38-46.31,14.07-46.38,39.95c-0.05,17.62,0.25,35.24-0.08,52.85
	c-0.36,19.32,8.22,32.44,25.45,40.98c58,28.75,115.85,57.82,173.75,86.78c1.27,0.64,2.5,1.35,4.08,2.2c-1,2.82-1.92,5.51-2.9,8.18
	c-15.57,42.38-59.25,61.86-101.05,44.69c-94.54-38.83-189-77.85-283.48-116.8c-9.57-3.94-17.01-10.32-21.47-19.75
	C345.21,668.29,344.21,664.36,342.89,660.58z M447.87,554.82c-28.69-0.05-52.09,23.28-52.11,51.94
	c-0.02,28.61,23.49,52.09,52.08,52.02c28.44-0.06,51.78-23.35,51.89-51.78C499.85,578.33,476.53,554.87,447.87,554.82z"/>
<path class="st6" d="M549.15,371.12c-6.56,0.83-13.11,1.65-19.66,2.49c-41.37,5.31-77.01,22.78-107.71,50.74
	c-29.87,27.21-51.73,59.86-65.75,97.69c-6.84,18.44-11.22,37.51-12.45,57.23c-0.09,1.4-0.45,2.79-0.68,4.18
	c0-70.78,0-141.55,0-212.33C411.64,371.12,480.4,371.12,549.15,371.12z"/>
<path class="st0" d="M786.44,582.48c0.08,1.15,0.16,1.72,0.16,2.29c0.01,44.9,0.05,89.79-0.02,134.69
	c-0.02,11.4-9.47,17.4-19.68,12.33c-44.66-22.19-89.25-44.53-133.82-66.91c-1.11-0.56-2.35-2.25-2.36-3.41
	c-0.1-32.48-0.04-64.96-0.01-97.44c0-0.12,0.13-0.24,0.52-0.93C682.72,569.52,734.46,575.98,786.44,582.48z"/>
<path class="st0" d="M604.44,650.8c-7.3-3.84-14.13-7.15-20.66-10.98c-3.72-2.19-5.13-6.17-5.14-10.43
	c-0.04-19.34-0.11-38.69,0.03-58.03c0.06-7.86,5.84-13.25,13.7-12.97c4,0.15,7.97,0.88,12.07,1.36
	C604.44,590,604.44,619.85,604.44,650.8z"/>
<linearGradient id="SVGID_00000078006791625431427410000008095860088795494073_" gradientUnits="userSpaceOnUse" x1="421.7897" y1="606.799" x2="473.718" y2="606.799">
	<stop  offset="0" style="stop-color:#7ECAB6"/>
	<stop  offset="1" style="stop-color:#15818E"/>
</linearGradient>
<path style="fill:url(#SVGID_00000078006791625431427410000008095860088795494073_);" d="M473.72,606.61
	c0.12,14.07-11.52,25.92-25.68,26.15c-14.16,0.23-26.27-11.78-26.24-26.03c0.03-14.14,11.76-25.86,25.9-25.89
	C461.83,580.8,473.6,592.46,473.72,606.61z"/>
</svg>
