<?xml version="1.0" encoding="utf-8"?>
<!-- Generator: Adobe Illustrator 27.3.1, SVG Export Plug-In . SVG Version: 6.00 Build 0)  -->
<svg version="1.1" id="Layer_1" xmlns="http://www.w3.org/2000/svg" xmlns:xlink="http://www.w3.org/1999/xlink" x="0px" y="0px"
	 viewBox="0 0 1080 1080" style="enable-background:new 0 0 1080 1080;" xml:space="preserve">
<style type="text/css">
	.st0{fill:#EB382E;}
	.st1{fill:url(#SVGID_1_);}
	.st2{fill:url(#SVGID_00000036244077681549526300000000117105774261641633_);}
	.st3{fill:url(#SVGID_00000003821845283183080320000011002736638624061835_);}
	.st4{fill:url(#SVGID_00000137832205346006216140000003139743267773992605_);}
	.st5{fill:url(#SVGID_00000128466448326540921200000000741184659861951164_);}
	.st6{fill:url(#SVGID_00000179623872852232665370000016371599032220543413_);}
	.st7{fill:url(#SVGID_00000134212233196492507110000007001899503702732988_);}
	.st8{fill:url(#SVGID_00000100350530009026825250000003731019191636552874_);}
	.st9{fill:url(#SVGID_00000105427698636263701330000015783644372653391525_);}
	.st10{fill:url(#SVGID_00000060725314579683824150000008879688236151226038_);}
	.st11{fill:url(#SVGID_00000043458772657957925480000012553184683907926953_);}
	.st12{fill:url(#SVGID_00000065036495411077348840000000876582880484836238_);}
	.st13{fill:url(#SVGID_00000142896503028326490910000000325497953010092175_);}
	.st14{fill:url(#SVGID_00000074430421022290419620000008529902363880417683_);}
	.st15{fill:url(#SVGID_00000129891392236090974880000014712246548122710459_);}
	.st16{fill:url(#SVGID_00000021800801316001178990000015775193796040264356_);}
	.st17{fill:url(#SVGID_00000137851816349837740710000005303716422160660670_);}
	.st18{fill:url(#SVGID_00000165957636949893748700000013695434619417785274_);}
	.st19{fill:url(#SVGID_00000057130625721282421290000016731315590197579446_);}
	.st20{fill:url(#SVGID_00000169533033724818545440000008037330198835502721_);}
	.st21{fill:url(#SVGID_00000065044783421730797280000004248184439364023696_);}
	.st22{fill:url(#SVGID_00000152255911653395794960000007811965906808379535_);}
	.st23{fill:url(#SVGID_00000147933866525080218960000016851828493859513738_);}
	.st24{fill:url(#SVGID_00000089544704419841399330000012979890208350464911_);}
	.st25{fill:url(#SVGID_00000129174141883021381160000009706805657647917202_);}
	.st26{fill:url(#SVGID_00000065784717582853349230000004858968847797538711_);}
	.st27{fill:url(#SVGID_00000155105585188959750840000004725333484346058409_);}
	.st28{fill:url(#SVGID_00000109023217448232225230000005611789757713658546_);}
	.st29{fill:url(#SVGID_00000044888173388698803850000002555820492635993985_);}
	.st30{fill:url(#SVGID_00000003790787549451019470000015615359787003370120_);}
	.st31{fill:url(#SVGID_00000021090496510284166420000005435768005092033708_);}
	.st32{fill:url(#SVGID_00000174577015963020700800000011977085849556307874_);}
	.st33{fill:url(#SVGID_00000078741043490829551520000001680468423354732974_);}
	.st34{fill:url(#SVGID_00000021114217351335381620000016856147744254939824_);}
	.st35{fill:url(#SVGID_00000134209750501355069910000005966914606923290041_);}
	.st36{fill:url(#SVGID_00000078754851871355176230000001552821981578112148_);}
	.st37{fill:#FFFFFF;}
	.st38{stroke:#000000;stroke-width:6;stroke-miterlimit:10;}
	.st39{fill:url(#SVGID_00000127762768978818421440000006719862312025509782_);}
	.st40{fill:url(#SVGID_00000050639429849543478540000004657227529363112604_);}
	.st41{fill:url(#SVGID_00000005245565274657624120000006307552668134589839_);}
</style>
<path class="st0" d="M829.34,580.29c-9.31-8.31-18.93-13.48-29.99-15.7c-14.3-2.87-27.8-0.51-40.59,6.38
	c-15.87,8.55-31.76,17.08-47.65,25.6c-1.56,0.84-3.21,1.53-5.48,2.6c0-35.76,0-70.84,0-106.21c-82.73,0-164.95,0-247.58,0
	c0,23.39,0,46.53,0,70.03c-1.77,0.17-3.17,0.41-4.57,0.41c-16.39,0.03-32.79-0.05-49.18,0.08c-3.07,0.03-4.9-0.93-6.76-3.44
	c-7.04-9.47-16.67-14.21-28.49-14.29c-11.4-0.08-22.79-0.02-34.93-0.02c0-4.66,0-9.01,0-13.36c0-12.71-0.04-25.43,0.01-38.14
	c0.05-12.11,7.16-19.2,19.26-19.27c8.1-0.05,16.21-0.15,24.31,0.06c3.1,0.08,4.59-0.94,5.58-3.87c1.53-4.52,3.33-8.99,5.46-13.25
	c1.44-2.87,0.79-4.57-1.38-6.64c-5.99-5.73-11.83-11.62-17.61-17.56c-7.81-8.03-7.94-18.15-0.1-26.02
	c24.68-24.82,49.43-49.58,74.25-74.25c7.64-7.59,17.79-7.49,25.62,0.03c5.85,5.61,11.7,11.25,17.14,17.24
	c2.77,3.05,5.18,3.32,8.5,1.43c2.07-1.17,4.33-2.04,6.55-2.92c9.28-3.68,9.28-3.66,9.28-13.34c0-6.63-0.1-13.27,0.03-19.9
	c0.21-10.37,7.48-17.86,17.81-17.89c35.18-0.11,70.37-0.1,105.55-0.01c10.59,0.03,17.93,7.55,18.08,18.22
	c0.12,8.1,0.28,16.22-0.08,24.31c-0.18,4.07,1.21,6.07,5.02,7.04c2.48,0.63,4.85,1.71,7.22,2.72c8.68,3.7,8.67,3.72,15.47-3.07
	c4.69-4.69,9.3-9.46,14.1-14.04c7.58-7.23,17.75-7.39,25.22,0.01c24.98,24.78,49.86,49.67,74.64,74.64
	c7.6,7.66,7.4,17.81-0.14,25.63c-5.75,5.97-11.6,11.85-17.61,17.56c-2.34,2.22-3.14,4.15-1.38,7.08c1.22,2.03,1.98,4.35,2.88,6.56
	c4.19,10.21,4.18,10.22,15.49,10.22c6.26,0,12.53-0.15,18.79,0.05c9.21,0.29,17.04,7.23,17.13,16.25
	C829.53,520.51,829.34,549.77,829.34,580.29z M581.78,474.95c45.85,0,91.69,0.01,137.54-0.02c2.57,0,5.21,0.08,7.68-0.49
	c7.56-1.75,12.33-6.67,13.62-14.25c1.43-8.4-2.41-14.51-9.49-18.93c-46.19-28.84-92.37-57.7-138.52-86.61
	c-7.56-4.73-14.69-4.42-22.2,0.31c-29.41,18.55-58.94,36.91-88.42,55.34c-16.85,10.53-33.72,21.02-50.53,31.62
	c-6.7,4.22-9.83,10.39-8.61,18.31c1.13,7.31,6.91,13.06,14.23,14.38c2.33,0.42,4.77,0.32,7.16,0.33
	C490.09,474.95,535.93,474.95,581.78,474.95z"/>
<linearGradient id="SVGID_1_" gradientUnits="userSpaceOnUse" x1="405.0781" y1="687.1876" x2="829.3198" y2="687.1876">
	<stop  offset="0" style="stop-color:#7ECAB6"/>
	<stop  offset="1" style="stop-color:#15818E"/>
</linearGradient>
<path class="st1" d="M405.08,758.05c0-59.24,0-117.76,0-176.64c1.77-0.11,3.36-0.3,4.95-0.3c21-0.02,42,0.09,62.99-0.07
	c6.7-0.05,12.1,2.05,16.77,6.87c8.33,8.6,16.78,17.1,25.47,25.32c1.87,1.77,5,3.1,7.56,3.12c28.36,0.23,56.73,0.09,85.09,0.22
	c12.05,0.05,22.13,7.46,25.61,18.34c3.49,10.89,0.02,23.08-9.73,29.28c-4.71,2.99-10.86,4.99-16.42,5.14
	c-21.72,0.58-43.46,0.24-65.2,0.24c-1.47,0-2.95-0.05-4.42,0.02c-5.73,0.3-9.25,3.68-9.25,8.84c0,5.16,3.53,8.72,9.25,8.79
	c11.23,0.14,22.47,0.05,33.71,0.05c12.16,0,24.31,0.08,36.47-0.02c21.26-0.16,38.58-14.21,43.49-34.82c0.51-2.15,2.21-4.7,4.09-5.72
	c37.51-20.37,75.05-40.66,112.74-60.67c14.37-7.63,28.9-6.76,42.45,2.16c13.19,8.69,19.5,21.39,18.5,37.18
	c-0.92,14.64-8.51,25.42-20.66,33.41c-36.44,23.99-72.79,48.1-109.14,72.21c-20.86,13.84-41.69,27.72-62.48,41.67
	c-31.51,21.15-65.79,25.87-101.86,15.79c-30.09-8.41-59.85-18.02-89.58-27.65c-8.34-2.7-16.59-2.71-25.02-2.75
	C415.53,758.04,410.58,758.05,405.08,758.05z"/>
<linearGradient id="SVGID_00000024703305857668862640000011330798486763144343_" gradientUnits="userSpaceOnUse" x1="334.2247" y1="669.5677" x2="387.1976" y2="669.5677">
	<stop  offset="0" style="stop-color:#7ECAB6"/>
	<stop  offset="1" style="stop-color:#15818E"/>
</linearGradient>
<path style="fill:url(#SVGID_00000024703305857668862640000011330798486763144343_);" d="M334.22,775.6c0-70.94,0-141.12,0-212.19
	c4.92,0,9.8,0,14.69,0c6.63,0,13.26-0.07,19.89,0.02c10.67,0.15,18.32,7.43,18.33,17.96c0.09,58.77,0.08,117.53,0.01,176.3
	c-0.01,9.43-6.59,17.35-15.55,17.77C359.32,776.03,347.01,775.6,334.22,775.6z"/>
<path class="st0" d="M617.14,598.52c-23.66,0-46.8,0-70.75,0c0-1.73,0-3.48,0-5.23c0-21-0.02-41.99,0.01-62.99
	c0.02-12.88,6.97-19.91,19.68-19.95c10.68-0.03,21.36-0.06,32.04,0.01c11.65,0.07,18.96,7.33,19,18.98
	c0.07,21.73,0.02,43.47,0.02,65.2C617.14,595.77,617.14,597.01,617.14,598.52z"/>
</svg>
