<?xml version="1.0" encoding="utf-8"?>
<!-- Generator: Adobe Illustrator 24.0.0, SVG Export Plug-In . SVG Version: 6.00 Build 0)  -->
<svg version="1.1" id="Layer_1" xmlns="http://www.w3.org/2000/svg" xmlns:xlink="http://www.w3.org/1999/xlink" x="0px" y="0px"
	 viewBox="0 0 1080 1080" style="enable-background:new 0 0 1080 1080;" xml:space="preserve">
<style type="text/css">
	.st0{fill:url(#SVGID_1_);}
	.st1{fill:#EA372F;}
	.st2{fill:url(#SVGID_2_);}
	.st3{fill:url(#SVGID_3_);}
	.st4{fill:url(#SVGID_4_);}
	.st5{fill:url(#SVGID_5_);}
	.st6{fill:url(#SVGID_6_);}
	.st7{fill:url(#SVGID_7_);}
	.st8{fill:url(#SVGID_8_);}
	.st9{fill:url(#SVGID_9_);}
	.st10{fill:url(#SVGID_10_);}
	.st11{fill:url(#SVGID_11_);}
	.st12{fill:url(#SVGID_12_);}
	.st13{fill:url(#SVGID_13_);}
	.st14{fill:url(#SVGID_14_);}
	.st15{fill:url(#SVGID_15_);}
	.st16{fill:url(#SVGID_16_);}
	.st17{fill:url(#SVGID_17_);}
	.st18{fill:url(#SVGID_18_);}
	.st19{fill:url(#SVGID_19_);}
	.st20{fill:url(#SVGID_20_);}
	.st21{fill:#FFFFFF;}
	.st22{fill:url(#SVGID_21_);}
	.st23{fill:url(#SVGID_22_);}
	.st24{fill:url(#SVGID_23_);}
	.st25{fill:url(#SVGID_24_);}
	.st26{fill:url(#SVGID_25_);}
	.st27{fill:url(#SVGID_26_);}
	.st28{fill:url(#SVGID_27_);}
	.st29{fill:url(#SVGID_28_);}
	.st30{fill:url(#SVGID_29_);}
	.st31{fill:url(#SVGID_30_);}
	.st32{fill:url(#SVGID_31_);}
	.st33{fill:url(#SVGID_32_);}
	.st34{fill:url(#SVGID_33_);}
	.st35{fill:url(#SVGID_34_);}
	.st36{fill:url(#SVGID_35_);}
	.st37{fill:url(#SVGID_36_);}
	.st38{fill:url(#SVGID_37_);}
	.st39{fill:url(#SVGID_38_);}
	.st40{fill:url(#SVGID_39_);}
	.st41{fill:url(#SVGID_40_);}
	.st42{fill:url(#SVGID_41_);}
	.st43{fill:url(#SVGID_42_);}
	.st44{fill:url(#SVGID_43_);}
	.st45{fill:url(#SVGID_44_);}
	.st46{fill:url(#SVGID_45_);}
	.st47{fill:url(#SVGID_46_);}
	.st48{fill:url(#SVGID_47_);}
	.st49{fill:url(#SVGID_48_);}
	.st50{fill:url(#SVGID_49_);}
	.st51{fill:url(#SVGID_50_);}
	.st52{fill:url(#SVGID_51_);}
	.st53{fill:url(#SVGID_52_);}
	.st54{fill:url(#SVGID_53_);}
	.st55{fill:url(#SVGID_54_);}
	.st56{fill:url(#SVGID_55_);}
	.st57{fill:url(#SVGID_56_);}
	.st58{fill:url(#SVGID_57_);}
	.st59{fill:url(#SVGID_58_);}
	.st60{fill:url(#SVGID_59_);}
	.st61{fill:url(#SVGID_60_);}
	.st62{fill:url(#SVGID_61_);}
	.st63{fill:url(#SVGID_62_);}
	.st64{fill:url(#SVGID_63_);}
	.st65{fill:url(#SVGID_64_);}
	.st66{fill:url(#SVGID_65_);}
	.st67{fill:url(#SVGID_66_);}
	.st68{fill:url(#SVGID_67_);}
	.st69{fill:url(#SVGID_68_);}
	.st70{fill:none;}
	.st71{fill:url(#SVGID_69_);}
	.st72{fill:url(#SVGID_70_);}
	.st73{fill:url(#SVGID_71_);}
</style>
<linearGradient id="SVGID_1_" gradientUnits="userSpaceOnUse" x1="256.5482" y1="621.2631" x2="850.5" y2="621.2631">
	<stop  offset="0" style="stop-color:#15818E"/>
	<stop  offset="0.9944" style="stop-color:#7ECAB6"/>
</linearGradient>
<path class="st0" d="M386.15,842.91c-0.78-1.92-0.38-4.29-0.42-6.6c-0.19-11.39-0.29-22.77-0.49-34.16
	c-0.53-30.51-20.06-71.06-67.41-83.99c-8.56-2.34-17.3-3.49-26.18-3.54c-9.43-0.05-18.85-0.16-28.27-0.27
	c-1.94-0.02-3.87-0.15-6.14-0.24c-0.24-1.29-0.54-2.37-0.62-3.47c-0.1-1.37-0.03-2.75-0.03-4.12c0-56.75,0-113.51,0-170.26
	c0-2.34,0-4.67,0-7.4c1.82-0.18,3.32-0.45,4.81-0.46c11.39-0.08,22.79,0.15,34.17-0.2c23.48-0.73,44.11-8.88,61.25-25.06
	c17.49-16.51,26.84-36.95,28.22-60.98c0.7-12.15,1.29-24.32,0.73-36.5c-0.09-1.93,0.1-3.86,0.17-6.07c1.39-0.29,2.48-0.66,3.59-0.73
	c1.96-0.12,3.92-0.09,5.89-0.09c89.15-0.02,178.3-0.03,267.45-0.05c16.69,0,33.38-0.03,50.07-0.03c1.57,0,3.15-0.04,4.71,0.13
	c2.31,0.26,3.49,1.4,3.83,3.77c0.22,1.54,0.16,3.13,0.17,4.69c0.08,10.99,0.23,21.99,0.19,32.98
	c-0.15,36.97,30.28,78.27,73.32,85.91c6.78,1.2,13.58,2.08,20.47,2.1c9.23,0.03,18.46,0,27.69,0.01c2.13,0,4.26,0.06,6.65,0.1
	c0.21,1.45,0.46,2.56,0.52,3.68c0.08,1.37,0.03,2.75,0.03,4.12c0,56.95,0,113.9-0.01,170.85c0,2.33-0.1,4.65-0.16,7.06
	c-2.22,1.27-4.41,0.89-6.5,0.88c-8.64-0.03-17.28-0.28-25.92-0.2c-9.63,0.09-19.2,0.79-28.59,3.24
	c-33.62,8.78-59.74,36.74-65.55,70.77c-2.09,12.21-2.47,24.61-2.44,36.99c0.01,4.71,0.19,9.42,0.22,14.14
	c0.01,1.12-0.27,2.24-0.38,3c-0.52,0.44-0.66,0.6-0.82,0.68c-0.17,0.08-0.38,0.11-0.58,0.11c-109.57,0.04-219.14,0.08-328.71,0.11
	c-0.98,0-1.96-0.02-2.94-0.07c-0.39-0.02-0.77-0.13-1.15-0.24C386.78,843.47,386.65,843.3,386.15,842.91z"/>
<path class="st1" d="M478.05,324.52c-0.32,6.96-0.11,13.21-0.18,19.45c-0.07,6.25,0.17,12.5-0.18,19.02
	c-5.9,1.18-11.56,0.47-17.17,0.58c-5.47,0.1-10.95,0.14-16.66-0.08c-0.32-1.65-0.78-2.95-0.78-4.26
	c-0.05-17.08-0.05-34.17-0.02-51.25c0-1.36,0.21-2.74,0.48-4.08c1.64-8.23,6.18-12.68,14.47-14.1c1.73-0.3,3.51-0.43,5.27-0.43
	c59.89-0.02,119.77-0.03,179.66,0.02c2.92,0,5.91,0.26,8.74,0.95c6.01,1.47,9.92,5.39,11.55,11.37c0.56,2.06,0.98,4.25,0.98,6.37
	c0.08,17.48,0.05,34.95,0.03,52.43c0,0.75-0.2,1.49-0.31,2.25c-0.74,0.26-1.27,0.61-1.8,0.61c-10.21,0.03-20.42,0.03-30.63,0
	c-0.54,0-1.07-0.34-1.99-0.65c-0.42-4.01-0.17-8.1-0.21-12.18c-0.04-4.32,0.01-8.64-0.01-12.96c-0.02-4.1-0.08-8.19-0.12-12.63
	c-1.83-0.17-3.34-0.43-4.85-0.43c-12.37-0.03-24.74-0.02-37.11-0.02c-33.97,0-67.94,0-101.9,0
	C483.18,324.52,481.04,324.52,478.05,324.52z"/>
<linearGradient id="SVGID_2_" gradientUnits="userSpaceOnUse" x1="256.5345" y1="446.4321" x2="351.7527" y2="446.4321">
	<stop  offset="0" style="stop-color:#15818E"/>
	<stop  offset="0.9944" style="stop-color:#7ECAB6"/>
</linearGradient>
<path class="st2" d="M351.53,399.85c0.08,1.44,0.25,2.77,0.21,4.1c-0.25,8.24-0.36,16.5-0.87,24.73
	c-0.41,6.65-1.03,13.32-2.07,19.89c-3.18,20.07-15.09,33.14-33.51,40.68c-5.65,2.31-11.59,3.8-17.74,3.91
	c-12.56,0.24-25.13,0.36-37.7,0.49c-0.94,0.01-1.87-0.34-3.01-0.56c-0.1-1.71-0.26-3.25-0.26-4.79c-0.02-12.77,0.04-25.53-0.05-38.3
	c-0.02-2.81,0.44-5.43,1.49-8.02c1.93-4.72,3.46-9.63,5.7-14.19c7.19-14.61,18.63-24.08,34.74-27.39c3.82-0.78,7.8-1.1,11.71-1.14
	c12.96-0.1,25.92,0.01,38.87,0.08C349.8,399.34,350.55,399.64,351.53,399.85z"/>
<linearGradient id="SVGID_3_" gradientUnits="userSpaceOnUse" x1="756.3903" y1="446.2236" x2="850.4934" y2="446.2236">
	<stop  offset="0" style="stop-color:#15818E"/>
	<stop  offset="0.9944" style="stop-color:#7ECAB6"/>
</linearGradient>
<path class="st3" d="M849.58,493.89c-6.01,0-11.28,0.14-16.55-0.03c-9.79-0.31-19.57-0.74-29.32-1.98
	c-26.98-3.44-42.61-24.09-46.16-44.53c-0.67-3.85-1.02-7.79-1.07-11.69c-0.15-10.59-0.07-21.18-0.05-31.77
	c0-1.53,0.19-3.05,0.3-4.73c1.07-0.17,1.81-0.38,2.55-0.39c10.59-0.11,21.17-0.21,31.76-0.27c9.52-0.05,18.76,1.53,27.52,5.3
	c18.56,7.99,28.9,22.05,31.07,42.21c1.25,11.56,0.87,23.11,0.5,34.67C850,484.96,849.78,489.24,849.58,493.89z"/>
<linearGradient id="SVGID_4_" gradientUnits="userSpaceOnUse" x1="256.5761" y1="796.8076" x2="350.843" y2="796.8076">
	<stop  offset="0" style="stop-color:#15818E"/>
	<stop  offset="0.9944" style="stop-color:#7ECAB6"/>
</linearGradient>
<path class="st4" d="M350.82,844.39c-1.81,0.13-2.94,0.3-4.07,0.28c-8.24-0.14-16.49-0.32-24.73-0.48
	c-7.86-0.15-15.67-0.88-23.41-2.28c-15.69-2.84-27.33-11.24-34.92-25.3c-3.2-5.93-5.09-12.31-6.79-18.77
	c-0.3-1.12-0.31-2.33-0.31-3.5c-0.02-13.94-0.02-27.88,0-41.82c0-0.95,0.18-1.91,0.31-3.15c1.24-0.17,2.36-0.46,3.47-0.44
	c11.58,0.21,23.16,0.34,34.74,0.78c4.29,0.16,8.63,0.7,12.81,1.67c21.88,5.07,38.99,24.07,41.98,46.47
	c0.49,3.69,0.84,7.42,0.88,11.14C350.89,820.56,350.82,832.14,350.82,844.39z"/>
<linearGradient id="SVGID_5_" gradientUnits="userSpaceOnUse" x1="756.4829" y1="796.972" x2="850.4706" y2="796.972">
	<stop  offset="0" style="stop-color:#15818E"/>
	<stop  offset="0.9944" style="stop-color:#7ECAB6"/>
</linearGradient>
<path class="st5" d="M849.57,750.19c0.2,1.18,0.42,1.93,0.43,2.69c0.19,11.37,0.6,22.75,0.43,34.11
	c-0.09,5.64-0.79,11.37-2.01,16.89c-4.59,20.78-21.45,36.03-43.46,39.15c-5.03,0.71-10.15,1.04-15.24,1.09
	c-9.61,0.1-19.22-0.11-28.83-0.22c-1.13-0.01-2.26-0.22-3.66-0.37c-0.19-1.35-0.47-2.47-0.49-3.59
	c-0.13-10.39-0.32-20.79-0.24-31.18c0.03-4.5,0.49-9.01,1.06-13.47c0.73-5.69,2.63-11.08,5.51-16.03
	c10.66-18.33,26.39-28.65,47.8-29.29c11.95-0.36,23.92-0.06,35.88-0.03C847.54,749.93,848.31,750.07,849.57,750.19z"/>
</svg>
