<?xml version="1.0" encoding="utf-8"?>
<!-- Generator: Adobe Illustrator 24.0.0, SVG Export Plug-In . SVG Version: 6.00 Build 0)  -->
<svg version="1.1" id="Layer_1" xmlns="http://www.w3.org/2000/svg" xmlns:xlink="http://www.w3.org/1999/xlink" x="0px" y="0px"
	 viewBox="0 0 1080 1080" style="enable-background:new 0 0 1080 1080;" xml:space="preserve">
<style type="text/css">
	.st0{fill:url(#SVGID_1_);}
	.st1{fill:#EA372F;}
	.st2{fill:url(#SVGID_2_);}
	.st3{fill:url(#SVGID_3_);}
	.st4{fill:url(#SVGID_4_);}
	.st5{fill:url(#SVGID_5_);}
	.st6{fill:url(#SVGID_6_);}
	.st7{fill:url(#SVGID_7_);}
	.st8{fill:url(#SVGID_8_);}
	.st9{fill:url(#SVGID_9_);}
	.st10{fill:url(#SVGID_10_);}
	.st11{fill:url(#SVGID_11_);}
	.st12{fill:url(#SVGID_12_);}
	.st13{fill:url(#SVGID_13_);}
	.st14{fill:url(#SVGID_14_);}
	.st15{fill:url(#SVGID_15_);}
	.st16{fill:url(#SVGID_16_);}
	.st17{fill:url(#SVGID_17_);}
	.st18{fill:url(#SVGID_18_);}
	.st19{fill:url(#SVGID_19_);}
	.st20{fill:url(#SVGID_20_);}
	.st21{fill:#FFFFFF;}
	.st22{fill:url(#SVGID_21_);}
	.st23{fill:url(#SVGID_22_);}
	.st24{fill:url(#SVGID_23_);}
	.st25{fill:url(#SVGID_24_);}
	.st26{fill:url(#SVGID_25_);}
	.st27{fill:url(#SVGID_26_);}
	.st28{fill:url(#SVGID_27_);}
	.st29{fill:url(#SVGID_28_);}
	.st30{fill:url(#SVGID_29_);}
	.st31{fill:url(#SVGID_30_);}
	.st32{fill:url(#SVGID_31_);}
	.st33{fill:url(#SVGID_32_);}
	.st34{fill:url(#SVGID_33_);}
	.st35{fill:url(#SVGID_34_);}
	.st36{fill:url(#SVGID_35_);}
	.st37{fill:url(#SVGID_36_);}
	.st38{fill:url(#SVGID_37_);}
	.st39{fill:url(#SVGID_38_);}
	.st40{fill:url(#SVGID_39_);}
	.st41{fill:url(#SVGID_40_);}
	.st42{fill:url(#SVGID_41_);}
	.st43{fill:url(#SVGID_42_);}
	.st44{fill:url(#SVGID_43_);}
	.st45{fill:url(#SVGID_44_);}
	.st46{fill:url(#SVGID_45_);}
	.st47{fill:url(#SVGID_46_);}
	.st48{fill:url(#SVGID_47_);}
	.st49{fill:url(#SVGID_48_);}
	.st50{fill:url(#SVGID_49_);}
	.st51{fill:url(#SVGID_50_);}
	.st52{fill:url(#SVGID_51_);}
	.st53{fill:url(#SVGID_52_);}
	.st54{fill:url(#SVGID_53_);}
	.st55{fill:url(#SVGID_54_);}
	.st56{fill:url(#SVGID_55_);}
	.st57{fill:url(#SVGID_56_);}
	.st58{fill:url(#SVGID_57_);}
	.st59{fill:url(#SVGID_58_);}
	.st60{fill:url(#SVGID_59_);}
	.st61{fill:url(#SVGID_60_);}
	.st62{fill:url(#SVGID_61_);}
	.st63{fill:url(#SVGID_62_);}
	.st64{fill:url(#SVGID_63_);}
	.st65{fill:url(#SVGID_64_);}
	.st66{fill:url(#SVGID_65_);}
	.st67{fill:url(#SVGID_66_);}
	.st68{fill:url(#SVGID_67_);}
	.st69{fill:url(#SVGID_68_);}
	.st70{fill:none;}
	.st71{fill:url(#SVGID_69_);}
	.st72{fill:url(#SVGID_70_);}
	.st73{fill:url(#SVGID_71_);}
</style>
<linearGradient id="SVGID_1_" gradientUnits="userSpaceOnUse" x1="375.3335" y1="787.3663" x2="711.8798" y2="787.3663">
	<stop  offset="0" style="stop-color:#15818E"/>
	<stop  offset="0.9944" style="stop-color:#7ECAB6"/>
</linearGradient>
<path class="st0" d="M508.05,833c-10.29-0.79-20.59-1.59-30.88-2.38c-27.89-2.15-55.66-5.17-82.74-12.53
	c-6.5-1.77-12.77-4.37-19.09-7.57c26.46-12.51,54.68-15.66,83.94-18.96c-1.09,5.62-1.93,10.22-2.88,14.8
	c-1.56,7.51,1.64,13.39,8.24,14.99c6.15,1.49,11.79-2.28,13.71-9.42c5.61-20.84,5.26-41.67-0.28-62.47
	c-0.47-1.75-0.93-3.49-2.06-7.74c44.9,24.29,88.71,24.55,133.21,0.08c-1.8,8.85-3.46,15.6-4.51,22.43
	c-2.41,15.71-1.71,31.32,2.44,46.7c2.13,7.92,7.27,11.68,13.7,10.26c6.87-1.51,9.97-7.32,8.33-15.41c-0.89-4.39-1.65-8.8-2.47-13.24
	c16.57-1.8,69.4,9.36,85.17,18.36c-7.56,2.67-13.93,5.39-20.55,7.16c-33.39,8.92-67.61,11.85-101.97,13.71
	c-3.9,0.21-7.77,0.8-11.66,1.21C554.49,833,531.27,833,508.05,833z"/>
<linearGradient id="SVGID_2_" gradientUnits="userSpaceOnUse" x1="270.6529" y1="549.3131" x2="816.4435" y2="549.3131">
	<stop  offset="0" style="stop-color:#15818E"/>
	<stop  offset="0.9944" style="stop-color:#7ECAB6"/>
</linearGradient>
<path class="st2" d="M270.65,388.83c20.11-9.52,39.12-18.52,57.85-27.39c6.47,2.32,13.39,4.81,21.28,7.64
	c-0.92,11.35,2.14,22.86,11.3,32.03c9.01,9.01,20.11,12.68,33.58,11.59c1.29,14.06,6.03,26.67,17.71,35.76
	c11.7,9.11,24.85,11.55,39.67,8.53c3.3,21.99,14.62,37.84,36.15,44.44c21.36,6.55,39.45-0.24,54.67-16.53
	c15.22,16.4,33.54,23.18,55.06,16.43c21.23-6.66,32.49-22.37,35.71-44.34c14.66,3.01,27.87,0.7,39.56-8.4
	c11.54-8.98,16.64-21.23,17.66-35.84c13.13,1.08,24.55-2.32,33.65-11.5c8.95-9.03,12.56-20.17,11.39-31.79
	c7.1-2.96,13.62-5.75,20.21-8.36c0.94-0.37,2.41-0.23,3.32,0.25c9.12,4.87,17.98,10.27,27.3,14.7c9.1,4.33,18.66,7.72,29.73,12.22
	c-4.92,24.61-8.89,49.71-15.04,74.26c-14.87,59.35-39.52,114.29-77.68,162.65c-39.59,50.18-89.64,85.9-149.96,107.17
	c-21.51,7.58-43,6.95-64.45-0.92c-82.81-30.36-143.03-86.04-184.21-163.2c-30.06-56.33-47.44-116.47-54.31-179.77
	C270.77,388.31,270.92,388.1,270.65,388.83z"/>
<linearGradient id="SVGID_3_" gradientUnits="userSpaceOnUse" x1="380.1629" y1="331.8992" x2="705.3403" y2="331.8992">
	<stop  offset="0" style="stop-color:#15818E"/>
	<stop  offset="0.9944" style="stop-color:#7ECAB6"/>
</linearGradient>
<path class="st3" d="M654.08,243.18c4.9,8.49,9.22,17.48,14.92,25.5c10.75,15.16,22.18,29.85,33.61,44.52
	c2.39,3.06,3.69,5.36,1.91,9.26c-1.52,3.31-1.92,7.13-2.92,11.18c-24.16-0.6-39.46,10.91-44.77,34.9
	c-34.66-0.19-46.28,7.18-56.6,36.19c-22.14-6.64-41.43-1.85-57.26,16.07c-15.84-17.52-34.99-22.9-57.31-16
	c-6.91-25.87-28.61-41.18-56.53-36.02c-5.44-23.46-19.96-35.66-44.67-35.03c-1.43-4.82-3.01-9.64-4.21-14.56
	c-0.27-1.12,0.4-2.87,1.23-3.79c19.98-21.78,36.42-45.99,49.95-72.4c35.24,18.38,73.14,22.44,111.62,22.42
	C581.34,265.42,619.05,261.31,654.08,243.18z"/>
<linearGradient id="SVGID_4_" gradientUnits="userSpaceOnUse" x1="439.1023" y1="220.1284" x2="646.5254" y2="220.1284">
	<stop  offset="0" style="stop-color:#15818E"/>
	<stop  offset="0.9944" style="stop-color:#7ECAB6"/>
</linearGradient>
<path class="st4" d="M646.53,220.22c-4.69,2.95-7.91,5.42-11.49,7.15c-16.25,7.82-33.77,11.12-51.46,13.03
	c-33.89,3.67-67.81,3.65-101.33-3.3c-11.05-2.29-21.75-6.35-32.45-10.07c-3.34-1.16-6.16-3.82-10.69-6.76
	c4.56-2.97,7.68-5.57,11.25-7.24c18.22-8.55,37.77-11.86,57.59-13.76c36.5-3.49,72.77-2.48,108.44,6.84
	c6.75,1.76,13.29,4.51,19.71,7.29C639.35,214.81,642.15,217.31,646.53,220.22z"/>
<linearGradient id="SVGID_5_" gradientUnits="userSpaceOnUse" x1="474.6172" y1="452.7886" x2="531.5129" y2="452.7886">
	<stop  offset="0" style="stop-color:#15818E"/>
	<stop  offset="0.9944" style="stop-color:#7ECAB6"/>
</linearGradient>
<path class="st5" d="M503.16,481.04c-15.57,0.08-28.59-12.85-28.54-28.32c0.05-15.26,12.75-28.02,28.06-28.18
	c15.7-0.17,28.65,12.4,28.84,28C531.7,468.01,518.81,480.97,503.16,481.04z"/>
<linearGradient id="SVGID_6_" gradientUnits="userSpaceOnUse" x1="554.2212" y1="452.7886" x2="611.1136" y2="452.7886">
	<stop  offset="0" style="stop-color:#15818E"/>
	<stop  offset="0.9944" style="stop-color:#7ECAB6"/>
</linearGradient>
<path class="st6" d="M582.81,481.04c-15.56,0.11-28.6-12.79-28.58-28.28c0.02-15.25,12.71-28.04,28.01-28.23
	c15.7-0.19,28.65,12.35,28.88,27.96C611.33,467.94,598.46,480.93,582.81,481.04z"/>
<linearGradient id="SVGID_7_" gradientUnits="userSpaceOnUse" x1="417.8913" y1="413.0906" x2="463.2298" y2="413.0906">
	<stop  offset="0" style="stop-color:#15818E"/>
	<stop  offset="0.9944" style="stop-color:#7ECAB6"/>
</linearGradient>
<path class="st7" d="M440.45,435.72c-12.35-0.04-22.55-10.25-22.56-22.58c-0.01-12.46,9.98-22.56,22.43-22.69
	c12.6-0.13,23.05,10.31,22.9,22.87C463.08,425.63,452.77,435.77,440.45,435.72z"/>
<linearGradient id="SVGID_8_" gradientUnits="userSpaceOnUse" x1="622.529" y1="413.0969" x2="667.8707" y2="413.0969">
	<stop  offset="0" style="stop-color:#15818E"/>
	<stop  offset="0.9944" style="stop-color:#7ECAB6"/>
</linearGradient>
<path class="st8" d="M645.51,435.72c-12.32,0.16-22.72-9.89-22.98-22.19c-0.27-12.58,10.03-23.05,22.69-23.06
	c12.43-0.01,22.57,10.05,22.65,22.47C667.94,425.29,657.86,435.57,645.51,435.72z"/>
<linearGradient id="SVGID_9_" gradientUnits="userSpaceOnUse" x1="679.5251" y1="373.2708" x2="713.3165" y2="373.2708">
	<stop  offset="0" style="stop-color:#15818E"/>
	<stop  offset="0.9944" style="stop-color:#7ECAB6"/>
</linearGradient>
<path class="st9" d="M679.53,372.91c0.18-9.38,7.91-16.78,17.29-16.55c9.31,0.24,16.68,8,16.5,17.38
	c-0.18,9.41-7.8,16.64-17.33,16.44C686.48,389.98,679.35,382.49,679.53,372.91z"/>
<linearGradient id="SVGID_10_" gradientUnits="userSpaceOnUse" x1="372.4151" y1="373.2793" x2="406.2294" y2="373.2793">
	<stop  offset="0" style="stop-color:#15818E"/>
	<stop  offset="0.9944" style="stop-color:#7ECAB6"/>
</linearGradient>
<path class="st10" d="M389.45,356.35c9.34,0.05,16.82,7.67,16.78,17.08c-0.05,9.49-7.47,16.82-16.99,16.77
	c-9.47-0.05-16.88-7.52-16.83-16.97C372.46,363.94,380.18,356.3,389.45,356.35z"/>
<linearGradient id="SVGID_11_" gradientUnits="userSpaceOnUse" x1="338.4041" y1="333.6961" x2="360.8315" y2="333.6961">
	<stop  offset="0" style="stop-color:#15818E"/>
	<stop  offset="0.9944" style="stop-color:#7ECAB6"/>
</linearGradient>
<path class="st11" d="M349.36,322.51c6.32-0.09,11.55,5.02,11.48,11.21c-0.07,5.83-5.2,11.01-11.06,11.16
	c-6.11,0.16-11.41-5.14-11.37-11.37C338.45,327.41,343.24,322.6,349.36,322.51z"/>
<linearGradient id="SVGID_12_" gradientUnits="userSpaceOnUse" x1="724.9354" y1="333.6951" x2="747.3155" y2="333.6951">
	<stop  offset="0" style="stop-color:#15818E"/>
	<stop  offset="0.9944" style="stop-color:#7ECAB6"/>
</linearGradient>
<path class="st12" d="M736.06,344.89c-6.07-0.1-11.39-5.7-11.11-11.7c0.27-6.01,5.31-10.74,11.37-10.69
	c6.32,0.06,11.24,5.22,10.99,11.55C747.08,340.02,741.92,344.98,736.06,344.89z"/>
<path class="st1" d="M782.5,786.23c-3.27,0-6.07,0-9.14,0c0-5.33-0.13-10.54,0.03-15.73c0.33-11.21-3.43-20.65-11.05-28.92
	c-16.68-18.07-24.64-39.64-23.97-64.18c0.59-21.97,8.16-41.48,23.06-57.65c8.4-9.12,12.59-19.28,11.98-31.6
	c-0.23-4.64-0.04-9.3-0.04-14.08c3.09,0,5.89,0,9.13,0c0,1.2-0.06,2.36,0.01,3.5c0.3,4.68,0.63,9.36,0.96,14.04
	c4.69,0.29,9.38,0.82,14.07,0.84c21.05,0.09,42.09,0.14,63.14-0.04c4.64-0.04,9.47,1.35,13.96-1.04c0.27-4.61,0.56-9.22,0.81-13.83
	c0.06-1.08,0.01-2.17,0.01-3.43c3.08,0,5.94,0,9.1,0c0,5.71,0.02,11.28-0.01,16.85c-0.04,7.3,1.39,14.23,5.38,20.43
	c1.53,2.37,3.32,4.62,5.23,6.7c32.69,35.64,32.68,88.78-0.19,124.22c-7.11,7.67-10.48,16.58-10.44,26.93c0.02,5.59,0,11.17,0,16.95
	c-3.03,0-5.91,0-9.08,0c0-4.62,0.02-9.17-0.01-13.72c-0.02-3.59-0.98-4.59-4.57-4.6c-27.91-0.02-55.82-0.02-83.73,0
	c-3.76,0-4.62,0.91-4.64,4.77C782.49,777.1,782.5,781.57,782.5,786.23z M899.34,680.18c0.03-38.99-31.19-70.38-70.19-70.58
	c-38.91-0.2-70.58,31.41-70.61,70.45c-0.03,39.05,31.5,70.63,70.48,70.59C867.9,750.62,899.31,719.15,899.34,680.18z"/>
<path class="st1" d="M788.86,586.08c0-15.28,0-30.36,0-45.59c26.8,0,53.46,0,80.29,0c0,15.22,0,30.3,0,45.59
	C842.41,586.08,815.75,586.08,788.86,586.08z"/>
<path class="st1" d="M788.89,774.33c26.83,0,53.48,0,80.28,0c0,15.24,0,30.31,0,45.56c-26.8,0-53.46,0-80.28,0
	C788.89,804.75,788.89,789.67,788.89,774.33z"/>
<path class="st1" d="M925.3,694.61c0-9.77,0-19.32,0-28.88c6.38-0.05,12.52,6.47,12.78,13.87
	C938.36,687.3,932.51,694.08,925.3,694.61z"/>
<path class="st1" d="M832.07,744.48c0-2.43,0.02-4.52-0.01-6.61c-0.02-2.02-0.97-3.48-3.05-3.5c-2.08-0.03-3.07,1.35-3.07,3.42
	c0.01,2.09,0,4.19,0,6.65c-15.41-0.89-28.55-6.38-40.4-16.83c1.7-1.57,3.32-2.99,4.85-4.5c1.44-1.41,1.78-3.08,0.27-4.6
	c-1.51-1.53-3.17-1.2-4.57,0.27c-1.44,1.52-2.79,3.14-4.39,4.96c-10.51-11.81-15.96-24.99-16.95-40.56c2.32,0,4.39,0,6.46,0
	c2.14,0,3.7-0.9,3.63-3.16c-0.06-2.08-1.57-2.97-3.58-2.98c-2.08-0.01-4.16,0-6.49,0c0.91-15.51,6.42-28.67,16.96-40.55
	c1.47,1.72,2.75,3.27,4.09,4.76c1.4,1.55,3.08,2.22,4.76,0.59c1.78-1.74,1.09-3.49-0.49-5c-1.38-1.33-2.81-2.62-4.48-4.19
	c11.63-10.41,24.83-15.87,40.34-16.83c0,2.49-0.02,4.68,0.01,6.86c0.03,1.94,0.97,3.18,2.98,3.19c2.01,0.02,3-1.25,3.09-3.14
	c0.1-2.18,0.02-4.37,0.02-6.52c10.13-1.59,31.03,6.98,40.18,16.61c-1.56,1.44-3.17,2.87-4.72,4.37c-1.46,1.41-1.8,3.06-0.28,4.59
	c1.52,1.53,3.18,1.2,4.58-0.26c1.45-1.51,2.79-3.14,4.13-4.65c8.74,6.73,17.86,28.55,16.92,40.17c-2.03,0-4.11-0.04-6.19,0.01
	c-2.09,0.05-3.63,0.87-3.55,3.23c0.07,2.24,1.62,2.89,3.57,2.9c2,0.01,4.01,0,6.42,0c-0.82,15.42-6.36,28.55-16.78,40.46
	c-1.5-1.65-2.87-3.19-4.29-4.68c-1.44-1.52-3.14-2.1-4.8-0.48c-1.66,1.63-1.13,3.32,0.41,4.78c1.46,1.38,2.96,2.73,4.71,4.34
	C860.75,737.96,847.6,743.45,832.07,744.48z M832.06,658.33c0-3.3,0.02-6.6-0.01-9.9c-0.02-2.81-1.15-4.4-3.14-4.26
	c-2.7,0.19-3.03,2.13-3.02,4.33c0.03,6.6-0.02,13.19,0.03,19.79c0.01,1.5-0.33,2.42-1.79,3.25c-4.63,2.62-6.33,7.83-4.34,12.5
	c1.99,4.68,6.93,7.06,11.99,5.56c1.5-0.44,2.32-0.02,3.29,0.98c3.31,3.42,6.71,6.76,10.07,10.12c2.2,2.2,4.38,4.43,6.61,6.59
	c1.39,1.34,3,1.5,4.39,0.12c1.4-1.39,1.16-2.98-0.07-4.42c-0.47-0.56-1.02-1.05-1.54-1.57c-4.98-4.99-9.94-10-14.96-14.95
	c-1.14-1.12-1.61-2.05-1.1-3.79c1.31-4.51-0.59-8.92-4.76-11.21c-1.38-0.76-1.72-1.58-1.68-2.99
	C832.11,665.11,832.06,661.72,832.06,658.33z"/>
<path class="st1" d="M832.7,680.03c0.05,2.09-1.68,3.9-3.74,3.92c-2.04,0.01-3.85-1.81-3.84-3.86c0.02-1.94,1.68-3.65,3.64-3.74
	C830.88,676.26,832.65,677.92,832.7,680.03z"/>
</svg>
