<?xml version="1.0" encoding="utf-8"?>
<!-- Generator: Adobe Illustrator 24.0.0, SVG Export Plug-In . SVG Version: 6.00 Build 0)  -->
<svg version="1.1" id="Layer_1" xmlns="http://www.w3.org/2000/svg" xmlns:xlink="http://www.w3.org/1999/xlink" x="0px" y="0px"
	 viewBox="0 0 1080 1080" style="enable-background:new 0 0 1080 1080;" xml:space="preserve">
<style type="text/css">
	.st0{fill:url(#SVGID_1_);}
	.st1{fill:#EA372F;}
	.st2{fill:url(#SVGID_2_);}
	.st3{fill:url(#SVGID_3_);}
	.st4{fill:url(#SVGID_4_);}
	.st5{fill:url(#SVGID_5_);}
	.st6{fill:url(#SVGID_6_);}
	.st7{fill:url(#SVGID_7_);}
	.st8{fill:url(#SVGID_8_);}
	.st9{fill:url(#SVGID_9_);}
	.st10{fill:url(#SVGID_10_);}
	.st11{fill:url(#SVGID_11_);}
	.st12{fill:url(#SVGID_12_);}
	.st13{fill:url(#SVGID_13_);}
	.st14{fill:url(#SVGID_14_);}
	.st15{fill:url(#SVGID_15_);}
	.st16{fill:url(#SVGID_16_);}
	.st17{fill:url(#SVGID_17_);}
	.st18{fill:url(#SVGID_18_);}
	.st19{fill:url(#SVGID_19_);}
	.st20{fill:url(#SVGID_20_);}
	.st21{fill:#FFFFFF;}
	.st22{fill:url(#SVGID_21_);}
	.st23{fill:url(#SVGID_22_);}
	.st24{fill:url(#SVGID_23_);}
	.st25{fill:url(#SVGID_24_);}
	.st26{fill:url(#SVGID_25_);}
	.st27{fill:url(#SVGID_26_);}
	.st28{fill:url(#SVGID_27_);}
	.st29{fill:url(#SVGID_28_);}
	.st30{fill:url(#SVGID_29_);}
	.st31{fill:url(#SVGID_30_);}
	.st32{fill:url(#SVGID_31_);}
	.st33{fill:url(#SVGID_32_);}
	.st34{fill:url(#SVGID_33_);}
	.st35{fill:url(#SVGID_34_);}
	.st36{fill:url(#SVGID_35_);}
	.st37{fill:url(#SVGID_36_);}
	.st38{fill:url(#SVGID_37_);}
	.st39{fill:url(#SVGID_38_);}
	.st40{fill:url(#SVGID_39_);}
	.st41{fill:url(#SVGID_40_);}
	.st42{fill:url(#SVGID_41_);}
	.st43{fill:url(#SVGID_42_);}
	.st44{fill:url(#SVGID_43_);}
	.st45{fill:url(#SVGID_44_);}
	.st46{fill:url(#SVGID_45_);}
	.st47{fill:url(#SVGID_46_);}
	.st48{fill:url(#SVGID_47_);}
	.st49{fill:url(#SVGID_48_);}
	.st50{fill:url(#SVGID_49_);}
	.st51{fill:url(#SVGID_50_);}
	.st52{fill:url(#SVGID_51_);}
	.st53{fill:url(#SVGID_52_);}
	.st54{fill:url(#SVGID_53_);}
	.st55{fill:url(#SVGID_54_);}
	.st56{fill:url(#SVGID_55_);}
	.st57{fill:url(#SVGID_56_);}
	.st58{fill:url(#SVGID_57_);}
	.st59{fill:url(#SVGID_58_);}
	.st60{fill:url(#SVGID_59_);}
	.st61{fill:url(#SVGID_60_);}
	.st62{fill:url(#SVGID_61_);}
	.st63{fill:url(#SVGID_62_);}
	.st64{fill:url(#SVGID_63_);}
	.st65{fill:url(#SVGID_64_);}
	.st66{fill:url(#SVGID_65_);}
	.st67{fill:url(#SVGID_66_);}
	.st68{fill:url(#SVGID_67_);}
	.st69{fill:url(#SVGID_68_);}
	.st70{fill:none;}
	.st71{fill:url(#SVGID_69_);}
	.st72{fill:url(#SVGID_70_);}
	.st73{fill:url(#SVGID_71_);}
</style>
<linearGradient id="SVGID_1_" gradientUnits="userSpaceOnUse" x1="231.2911" y1="523.5367" x2="841.6976" y2="523.5367">
	<stop  offset="0" style="stop-color:#15818E"/>
	<stop  offset="0.9944" style="stop-color:#7ECAB6"/>
</linearGradient>
<path class="st0" d="M841.7,441.18c0,105.71,0,211.41,0,317.12c-0.43,1.29-0.91,2.57-1.3,3.88c-5.17,17.43-19.34,28.28-37.52,28.28
	c-177.59,0.04-355.18,0.05-532.77-0.01c-22.21-0.01-38.75-16.61-38.77-38.91c-0.07-101.31-0.06-202.62,0-303.93
	c0.01-16.99,10.64-31.04,26.83-36.09c2.08-0.65,4.2-1.2,6.24-1.97c109.52-41.69,219.04-83.39,328.55-125.1
	c23.16-8.82,46.26-17.81,69.48-26.47c14.51-5.41,28.81,5.61,26.46,20.23c-1.42,8.8-7.34,13.4-15.38,16.45
	c-88.98,33.76-177.9,67.67-266.84,101.55c-10.25,3.91-20.48,7.89-30.71,11.84c0.08,0.32,0.17,0.63,0.25,0.95c2.36,0,4.71,0,7.07,0
	c138.06,0,276.12,0,414.18,0c2.58,0,5.17-0.04,7.75,0.07c15.53,0.67,29.01,10.7,34.22,25.41
	C840.21,436.7,840.94,438.95,841.7,441.18z M421.66,714.19c63.14,0.14,114.67-51.03,114.84-114.04
	c0.17-63.1-51.06-114.69-114.05-114.84c-63.11-0.15-114.7,51.08-114.84,114.05C307.47,662.48,358.68,714.05,421.66,714.19z
	 M764.9,561.48c0-12.57,0-25.08,0-37.64c-50.73,0-101.24,0-151.64,0c0,12.78,0,25.16,0,37.64
	C663.96,561.48,714.18,561.48,764.9,561.48z M765.14,600.16c-51.02,0-101.52,0-151.85,0c0,12.81,0,25.18,0,37.41
	c50.86,0,101.22,0,151.85,0C765.14,625.02,765.14,612.79,765.14,600.16z M765.12,676.44c-50.96,0-101.46,0-151.85,0
	c0,12.79,0,25.17,0,37.45c50.84,0,101.2,0,151.85,0C765.12,701.36,765.12,689.13,765.12,676.44z"/>
<path class="st1" d="M421.88,676.03c-41.96-0.06-76.12-34.31-76.12-76.31c0.01-42.25,34.39-76.41,76.75-76.26
	c41.88,0.15,75.94,34.56,75.83,76.61C498.23,642.01,463.92,676.09,421.88,676.03z"/>
</svg>
