<?xml version="1.0" encoding="utf-8"?>
<!-- Generator: Adobe Illustrator 24.0.0, SVG Export Plug-In . SVG Version: 6.00 Build 0)  -->
<svg version="1.1" id="Layer_1" xmlns="http://www.w3.org/2000/svg" xmlns:xlink="http://www.w3.org/1999/xlink" x="0px" y="0px"
	 viewBox="0 0 1080 1080" style="enable-background:new 0 0 1080 1080;" xml:space="preserve">
<style type="text/css">
	.st0{fill:url(#SVGID_1_);}
	.st1{fill:#EA372F;}
	.st2{fill:url(#SVGID_2_);}
	.st3{fill:url(#SVGID_3_);}
	.st4{fill:url(#SVGID_4_);}
	.st5{fill:url(#SVGID_5_);}
	.st6{fill:url(#SVGID_6_);}
	.st7{fill:url(#SVGID_7_);}
	.st8{fill:url(#SVGID_8_);}
	.st9{fill:url(#SVGID_9_);}
	.st10{fill:url(#SVGID_10_);}
	.st11{fill:url(#SVGID_11_);}
	.st12{fill:url(#SVGID_12_);}
	.st13{fill:url(#SVGID_13_);}
	.st14{fill:url(#SVGID_14_);}
	.st15{fill:url(#SVGID_15_);}
	.st16{fill:url(#SVGID_16_);}
	.st17{fill:url(#SVGID_17_);}
	.st18{fill:url(#SVGID_18_);}
	.st19{fill:url(#SVGID_19_);}
	.st20{fill:url(#SVGID_20_);}
	.st21{fill:#FFFFFF;}
	.st22{fill:url(#SVGID_21_);}
	.st23{fill:url(#SVGID_22_);}
	.st24{fill:url(#SVGID_23_);}
	.st25{fill:url(#SVGID_24_);}
	.st26{fill:url(#SVGID_25_);}
	.st27{fill:url(#SVGID_26_);}
	.st28{fill:url(#SVGID_27_);}
	.st29{fill:url(#SVGID_28_);}
	.st30{fill:url(#SVGID_29_);}
	.st31{fill:url(#SVGID_30_);}
	.st32{fill:url(#SVGID_31_);}
	.st33{fill:url(#SVGID_32_);}
	.st34{fill:url(#SVGID_33_);}
	.st35{fill:url(#SVGID_34_);}
	.st36{fill:url(#SVGID_35_);}
	.st37{fill:url(#SVGID_36_);}
	.st38{fill:url(#SVGID_37_);}
	.st39{fill:url(#SVGID_38_);}
	.st40{fill:url(#SVGID_39_);}
	.st41{fill:url(#SVGID_40_);}
	.st42{fill:url(#SVGID_41_);}
	.st43{fill:url(#SVGID_42_);}
	.st44{fill:url(#SVGID_43_);}
	.st45{fill:url(#SVGID_44_);}
	.st46{fill:url(#SVGID_45_);}
	.st47{fill:url(#SVGID_46_);}
	.st48{fill:url(#SVGID_47_);}
	.st49{fill:url(#SVGID_48_);}
	.st50{fill:url(#SVGID_49_);}
	.st51{fill:url(#SVGID_50_);}
	.st52{fill:url(#SVGID_51_);}
	.st53{fill:url(#SVGID_52_);}
	.st54{fill:url(#SVGID_53_);}
	.st55{fill:url(#SVGID_54_);}
	.st56{fill:url(#SVGID_55_);}
	.st57{fill:url(#SVGID_56_);}
	.st58{fill:url(#SVGID_57_);}
	.st59{fill:url(#SVGID_58_);}
	.st60{fill:url(#SVGID_59_);}
	.st61{fill:url(#SVGID_60_);}
	.st62{fill:url(#SVGID_61_);}
	.st63{fill:url(#SVGID_62_);}
	.st64{fill:url(#SVGID_63_);}
	.st65{fill:url(#SVGID_64_);}
	.st66{fill:url(#SVGID_65_);}
	.st67{fill:url(#SVGID_66_);}
	.st68{fill:url(#SVGID_67_);}
	.st69{fill:url(#SVGID_68_);}
	.st70{fill:none;}
	.st71{fill:url(#SVGID_69_);}
	.st72{fill:url(#SVGID_70_);}
	.st73{fill:url(#SVGID_71_);}
</style>
<linearGradient id="SVGID_1_" gradientUnits="userSpaceOnUse" x1="543.6629" y1="694.4421" x2="830.7902" y2="694.4421">
	<stop  offset="0" style="stop-color:#15818E"/>
	<stop  offset="0.9944" style="stop-color:#7ECAB6"/>
</linearGradient>
<path class="st0" d="M830.78,694.35c0,37.42,0.02,74.85-0.01,112.27c-0.02,20.29-11.02,31.36-31.22,31.36
	c-74.83,0.03-149.67,0.02-224.5,0c-20.32-0.01-31.35-10.96-31.36-31.22c-0.03-74.85-0.03-149.69,0-224.54
	c0.01-20.37,10.93-31.32,31.22-31.32c74.83-0.02,149.67-0.02,224.5,0c20.39,0.01,31.34,10.89,31.36,31.18
	C830.81,619.5,830.78,656.93,830.78,694.35z M687.04,769.47c17.59,0,35.17,0.08,52.76-0.03c12.74-0.08,18.81-8.99,13.7-20.64
	c-17.55-39.97-35.36-79.83-53.05-119.74c-2.59-5.84-6.6-9.65-13.34-9.59c-6.74,0.06-10.62,4-13.2,9.82
	c-17.58,39.69-35.28,79.33-52.77,119.07c-5.29,12.02,0.75,21.02,13.88,21.08C652.35,769.53,669.69,769.47,687.04,769.47z"/>
<path class="st1" d="M530.14,236.63c37.42,0,74.84-0.02,112.25,0.01c20.29,0.02,31.34,10.99,31.35,31.22
	c0.03,74.85,0.03,149.69,0,224.54c-0.01,20.33-10.96,31.32-31.23,31.33c-74.84,0.02-149.67,0.02-224.51,0
	c-20.35-0.01-31.34-10.92-31.35-31.21c-0.03-74.85-0.03-149.69,0-224.54c0.01-20.35,10.97-31.32,31.23-31.34
	C455.31,236.61,492.72,236.63,530.14,236.63z M479.79,414.88c0,3.58,0.23,5.57-0.04,7.49c-2.93,21.02,7.7,29.9,27.03,19.96
	c15.93-8.2,31.24-8,47.14,0.15c19.52,10.01,29.76,0.07,26.53-19.72c-2.79-17.06,1.29-31.63,13.98-43.64
	c1.93-1.82,3.35-4.2,4.94-6.36c7.79-10.6,4.9-21.79-7.97-23.99c-22.61-3.88-38.19-15.27-48.83-35.54
	c-5.87-11.18-18.07-10.41-25.44,0.2c-5.02,7.22-9.67,14.71-14.96,21.72c-1.89,2.5-4.92,4.69-7.88,5.71
	c-8.99,3.09-18.28,5.28-27.3,8.3c-10.49,3.51-13.48,13.12-7.13,22.12c2.95,4.19,5.91,8.46,9.43,12.16
	C478.19,392.82,483.29,403.25,479.79,414.88z"/>
<linearGradient id="SVGID_2_" gradientUnits="userSpaceOnUse" x1="229.5009" y1="694.4423" x2="516.6283" y2="694.4423">
	<stop  offset="0" style="stop-color:#15818E"/>
	<stop  offset="0.9944" style="stop-color:#7ECAB6"/>
</linearGradient>
<path class="st2" d="M373.87,550.89c37.17,0,74.35-0.02,111.52,0.01c20.26,0.02,31.21,10.97,31.22,31.34
	c0.03,74.85,0.04,149.69,0,224.54c-0.01,20.23-11.08,31.2-31.39,31.21c-74.83,0.02-149.67,0.02-224.51,0
	c-20.21-0.01-31.18-11.05-31.19-31.38c-0.02-74.85-0.02-149.69,0-224.54c0.01-20.3,10.95-31.15,31.36-31.16
	C298.54,550.87,336.2,550.89,373.87,550.89z M373.14,776.42c45.14-0.1,82.19-37.29,81.95-82.27c-0.24-45.13-37.55-82.11-82.5-81.77
	c-44.84,0.34-81.45,37.15-81.52,81.95C290.99,739.41,328.09,776.52,373.14,776.42z"/>
</svg>
