<?xml version="1.0" encoding="utf-8"?>
<!-- Generator: Adobe Illustrator 24.0.0, SVG Export Plug-In . SVG Version: 6.00 Build 0)  -->
<svg version="1.1" id="Layer_1" xmlns="http://www.w3.org/2000/svg" xmlns:xlink="http://www.w3.org/1999/xlink" x="0px" y="0px"
	 viewBox="0 0 1080 1080" style="enable-background:new 0 0 1080 1080;" xml:space="preserve">
<style type="text/css">
	.st0{fill:url(#SVGID_1_);}
	.st1{fill:#EA372F;}
	.st2{fill:url(#SVGID_2_);}
	.st3{fill:url(#SVGID_3_);}
	.st4{fill:url(#SVGID_4_);}
	.st5{fill:url(#SVGID_5_);}
	.st6{fill:url(#SVGID_6_);}
	.st7{fill:url(#SVGID_7_);}
	.st8{fill:url(#SVGID_8_);}
	.st9{fill:url(#SVGID_9_);}
	.st10{fill:url(#SVGID_10_);}
	.st11{fill:url(#SVGID_11_);}
	.st12{fill:url(#SVGID_12_);}
	.st13{fill:url(#SVGID_13_);}
	.st14{fill:url(#SVGID_14_);}
	.st15{fill:url(#SVGID_15_);}
	.st16{fill:url(#SVGID_16_);}
	.st17{fill:url(#SVGID_17_);}
	.st18{fill:url(#SVGID_18_);}
	.st19{fill:url(#SVGID_19_);}
	.st20{fill:url(#SVGID_20_);}
	.st21{fill:#FFFFFF;}
	.st22{fill:url(#SVGID_21_);}
	.st23{fill:url(#SVGID_22_);}
	.st24{fill:url(#SVGID_23_);}
	.st25{fill:url(#SVGID_24_);}
	.st26{fill:url(#SVGID_25_);}
	.st27{fill:url(#SVGID_26_);}
	.st28{fill:url(#SVGID_27_);}
	.st29{fill:url(#SVGID_28_);}
	.st30{fill:url(#SVGID_29_);}
	.st31{fill:url(#SVGID_30_);}
	.st32{fill:url(#SVGID_31_);}
	.st33{fill:url(#SVGID_32_);}
	.st34{fill:url(#SVGID_33_);}
	.st35{fill:url(#SVGID_34_);}
	.st36{fill:url(#SVGID_35_);}
	.st37{fill:url(#SVGID_36_);}
	.st38{fill:url(#SVGID_37_);}
	.st39{fill:url(#SVGID_38_);}
	.st40{fill:url(#SVGID_39_);}
	.st41{fill:url(#SVGID_40_);}
	.st42{fill:url(#SVGID_41_);}
	.st43{fill:url(#SVGID_42_);}
	.st44{fill:url(#SVGID_43_);}
	.st45{fill:url(#SVGID_44_);}
	.st46{fill:url(#SVGID_45_);}
	.st47{fill:url(#SVGID_46_);}
	.st48{fill:url(#SVGID_47_);}
	.st49{fill:url(#SVGID_48_);}
	.st50{fill:url(#SVGID_49_);}
	.st51{fill:url(#SVGID_50_);}
	.st52{fill:url(#SVGID_51_);}
	.st53{fill:url(#SVGID_52_);}
	.st54{fill:url(#SVGID_53_);}
	.st55{fill:url(#SVGID_54_);}
	.st56{fill:url(#SVGID_55_);}
	.st57{fill:url(#SVGID_56_);}
	.st58{fill:url(#SVGID_57_);}
	.st59{fill:url(#SVGID_58_);}
	.st60{fill:url(#SVGID_59_);}
	.st61{fill:url(#SVGID_60_);}
	.st62{fill:url(#SVGID_61_);}
	.st63{fill:url(#SVGID_62_);}
	.st64{fill:url(#SVGID_63_);}
	.st65{fill:url(#SVGID_64_);}
	.st66{fill:url(#SVGID_65_);}
	.st67{fill:url(#SVGID_66_);}
	.st68{fill:url(#SVGID_67_);}
	.st69{fill:url(#SVGID_68_);}
	.st70{fill:none;}
	.st71{fill:url(#SVGID_69_);}
	.st72{fill:url(#SVGID_70_);}
	.st73{fill:url(#SVGID_71_);}
</style>
<linearGradient id="SVGID_1_" gradientUnits="userSpaceOnUse" x1="323.2764" y1="537.7426" x2="907.6315" y2="537.7426">
	<stop  offset="0" style="stop-color:#15818E"/>
	<stop  offset="0.9944" style="stop-color:#7ECAB6"/>
</linearGradient>
<path class="st0" d="M323.28,502.7c80.1,0,160.19,0,240.72,0c0,22.81,0,45.19,0,68.04c11.51,0,22.62,0,34.12,0
	c0-33.78,0-67.71,0-102.07c-22.44,0-44.83,0-67.67,0c0-11.51,0-22.61,0-34.35c16.7,0,33.52,0,50.75,0c0-11.59,0-22.55,0-33.95
	c22.94,0,45.46,0,68.61,0c0,11.04,0,22.15,0,33.67c17.3,0,33.98,0,51.07,0c0,11.52,0,22.61,0,34.15c-22.39,0-44.78,0-67.64,0
	c0,34.36,0,68.29,0,102.63c10.94,0,22.04,0,33.57,0c0-22.44,0-44.82,0-67.66c80.43,0,160.43,0,240.82,0c0,57.05,0,114.2,0,171.66
	c-79.99,0-159.86,0-240.36,0c0-22.83,0-45.73,0-68.99c-34.57,0-68.51,0-102.88,0c0,22.94,0,45.7,0,69.3c-80.66,0-160.89,0-241.12,0
	C323.28,617.64,323.28,560.17,323.28,502.7z"/>
<path class="st1" d="M357.54,777.88c0-11.19,0-22.38,0-34.18c17.22,0,34.03,0,51.26,0c0-11.58,0-22.54,0-33.91
	c23.31,0,46.21,0,69.73,0c0,11.09,0,22.2,0,33.71c17.29,0,33.97,0,51.46,0c0,11.73,0,23.06,0,34.39
	C472.51,777.88,415.02,777.88,357.54,777.88z"/>
<path class="st1" d="M701.3,777.88c0-11.19,0-22.38,0-34.18c17.22,0,34.03,0,51.26,0c0-11.58,0-22.54,0-33.91
	c22.93,0,45.45,0,68.59,0c0,11.09,0,22.2,0,33.71c17.29,0,33.97,0,51.46,0c0,11.73,0,23.06,0,34.39
	C815.51,777.88,758.4,777.88,701.3,777.88z"/>
<linearGradient id="SVGID_2_" gradientUnits="userSpaceOnUse" x1="496.0857" y1="279.4157" x2="735.3048" y2="279.4157">
	<stop  offset="0" style="stop-color:#15818E"/>
	<stop  offset="0.9944" style="stop-color:#7ECAB6"/>
</linearGradient>
<path class="st2" d="M735.3,193.56c0,57.3,0,114.31,0,171.71c-79.66,0-159.26,0-239.22,0c0-57.14,0-114.27,0-171.71
	C575.71,193.56,655.18,193.56,735.3,193.56z"/>
<path class="st70" d="M599.18,616.52c-15.75,0.23-23.98-13.21-17.85-24.21c1.87-3.35,4.65-6.3,7.4-9.05
	c51.98-52.07,104.02-104.09,156.09-156.07c2.75-2.75,5.68-5.56,9.04-7.41c6.69-3.7,13.45-2.83,18.95,2.43
	c5.83,5.57,6.98,12.49,3.1,19.68c-1.52,2.81-3.82,5.3-6.11,7.59c-52.92,52.99-105.84,105.97-158.93,158.78
	C606.9,612.19,601.63,614.82,599.18,616.52z"/>
<path class="st70" d="M610.3,349.93c-10.47,0-20.95,0.25-31.41-0.07c-10.76-0.33-17.39-6.43-17.84-15.68
	c-0.47-9.6,6.14-17.18,17.16-17.45c21.91-0.55,43.85-0.55,65.76,0.03c10.55,0.28,16.99,7.56,16.91,16.74
	c-0.09,9.64-6.94,16.07-18.18,16.38C631.9,350.18,621.1,349.94,610.3,349.93z"/>
<path class="st70" d="M415.58,799.86c-3.43,5.9-5.1,10.7-8.32,13.98c-22.4,22.86-45.02,45.49-67.78,67.99
	c-8.25,8.16-18.33,8.56-25.2,1.71c-7.04-7.01-6.8-16.69,1.55-25.18c22.44-22.81,45.13-45.38,67.82-67.95
	c5.79-5.76,13.14-8.72,20.35-4.16C408.66,789.2,411.55,794.95,415.58,799.86z"/>
<path class="st70" d="M309.08,808.32c-0.75,1.33-1.94,5.13-4.42,7.65c-21.75,22.09-43.65,44.05-65.69,65.84
	c-8.23,8.14-18.37,8.58-25.23,1.78c-7.14-7.07-6.92-16.65,1.51-25.2c22.44-22.79,45.12-45.35,67.86-67.84
	c2.46-2.43,5.73-4.45,8.99-5.59c9.52-3.33,15.5,1.04,15.92,11.01C308.15,799.23,308.56,802.48,309.08,808.32z"/>
<path class="st70" d="M1038.56,845.26c-3.65,6.07-5.57,11.11-9.02,14.69c-14.3,14.85-28.92,29.39-43.69,43.77
	c-8.28,8.05-18.41,8.26-25.25,1.22c-6.56-6.76-6.34-16.51,1.42-24.49c14.83-15.25,30-30.16,45.11-45.13
	c5.64-5.58,12.85-7.97,19.61-3.74C1031.47,834.53,1034.44,840.29,1038.56,845.26z"/>
<path class="st70" d="M611.62,852.51c-9.15,0.19-16.32-6.46-16.73-15.52c-0.43-9.43,6.67-17.16,15.99-17.41
	c9.03-0.25,17.06,7.63,16.99,16.67C627.81,845.04,620.52,852.33,611.62,852.51z"/>
</svg>
