<?xml version="1.0" encoding="utf-8"?>
<!-- Generator: Adobe Illustrator 24.0.0, SVG Export Plug-In . SVG Version: 6.00 Build 0)  -->
<svg version="1.1" id="Layer_1" xmlns="http://www.w3.org/2000/svg" xmlns:xlink="http://www.w3.org/1999/xlink" x="0px" y="0px"
	 viewBox="0 0 1080 1080" style="enable-background:new 0 0 1080 1080;" xml:space="preserve">
<style type="text/css">
	.st0{fill:url(#SVGID_1_);}
	.st1{fill:#EA372F;}
	.st2{fill:url(#SVGID_2_);}
	.st3{fill:url(#SVGID_3_);}
	.st4{fill:url(#SVGID_4_);}
	.st5{fill:url(#SVGID_5_);}
	.st6{fill:url(#SVGID_6_);}
	.st7{fill:url(#SVGID_7_);}
	.st8{fill:url(#SVGID_8_);}
	.st9{fill:url(#SVGID_9_);}
	.st10{fill:url(#SVGID_10_);}
	.st11{fill:url(#SVGID_11_);}
	.st12{fill:url(#SVGID_12_);}
	.st13{fill:url(#SVGID_13_);}
	.st14{fill:url(#SVGID_14_);}
	.st15{fill:url(#SVGID_15_);}
	.st16{fill:url(#SVGID_16_);}
	.st17{fill:url(#SVGID_17_);}
	.st18{fill:url(#SVGID_18_);}
	.st19{fill:url(#SVGID_19_);}
	.st20{fill:url(#SVGID_20_);}
	.st21{fill:#FFFFFF;}
	.st22{fill:url(#SVGID_21_);}
	.st23{fill:url(#SVGID_22_);}
	.st24{fill:url(#SVGID_23_);}
	.st25{fill:url(#SVGID_24_);}
	.st26{fill:url(#SVGID_25_);}
	.st27{fill:url(#SVGID_26_);}
	.st28{fill:url(#SVGID_27_);}
	.st29{fill:url(#SVGID_28_);}
	.st30{fill:url(#SVGID_29_);}
	.st31{fill:url(#SVGID_30_);}
	.st32{fill:url(#SVGID_31_);}
	.st33{fill:url(#SVGID_32_);}
	.st34{fill:url(#SVGID_33_);}
	.st35{fill:url(#SVGID_34_);}
	.st36{fill:url(#SVGID_35_);}
	.st37{fill:url(#SVGID_36_);}
	.st38{fill:url(#SVGID_37_);}
	.st39{fill:url(#SVGID_38_);}
	.st40{fill:url(#SVGID_39_);}
	.st41{fill:url(#SVGID_40_);}
	.st42{fill:url(#SVGID_41_);}
	.st43{fill:url(#SVGID_42_);}
	.st44{fill:url(#SVGID_43_);}
	.st45{fill:url(#SVGID_44_);}
	.st46{fill:url(#SVGID_45_);}
	.st47{fill:url(#SVGID_46_);}
	.st48{fill:url(#SVGID_47_);}
	.st49{fill:url(#SVGID_48_);}
	.st50{fill:url(#SVGID_49_);}
	.st51{fill:url(#SVGID_50_);}
	.st52{fill:url(#SVGID_51_);}
	.st53{fill:url(#SVGID_52_);}
	.st54{fill:url(#SVGID_53_);}
	.st55{fill:url(#SVGID_54_);}
	.st56{fill:url(#SVGID_55_);}
	.st57{fill:url(#SVGID_56_);}
	.st58{fill:url(#SVGID_57_);}
	.st59{fill:url(#SVGID_58_);}
	.st60{fill:url(#SVGID_59_);}
	.st61{fill:url(#SVGID_60_);}
	.st62{fill:url(#SVGID_61_);}
	.st63{fill:url(#SVGID_62_);}
	.st64{fill:url(#SVGID_63_);}
	.st65{fill:url(#SVGID_64_);}
	.st66{fill:url(#SVGID_65_);}
	.st67{fill:url(#SVGID_66_);}
	.st68{fill:url(#SVGID_67_);}
	.st69{fill:url(#SVGID_68_);}
	.st70{fill:none;}
	.st71{fill:url(#SVGID_69_);}
	.st72{fill:url(#SVGID_70_);}
	.st73{fill:url(#SVGID_71_);}
</style>
<linearGradient id="SVGID_1_" gradientUnits="userSpaceOnUse" x1="239.6443" y1="554.0092" x2="912.3095" y2="554.0092">
	<stop  offset="0" style="stop-color:#15818E"/>
	<stop  offset="0.9944" style="stop-color:#7ECAB6"/>
</linearGradient>
<path class="st0" d="M575.86,329.75c88.26,0,176.53-0.01,264.79,0c43.16,0.01,71.63,28.36,71.64,71.39
	c0.02,102.06,0.03,204.12,0,306.18c-0.01,42.17-28.67,70.93-70.7,70.93c-176.99,0.03-353.99,0.02-530.98,0
	c-42.11,0-70.93-28.72-70.94-70.7c-0.03-102.29-0.03-204.59,0-306.88c0.01-42.13,28.69-70.9,70.71-70.92
	C398.87,329.73,487.37,329.75,575.86,329.75z M732.92,554.09c0.04-86.45-70.29-156.94-156.68-157.06
	c-86.45-0.12-157.02,70.15-157.21,156.53c-0.2,86.73,70.36,157.47,157.03,157.43C662.46,710.95,732.89,640.51,732.92,554.09z
	 M351.99,464.28c12.18-0.12,22.19-10.27,22.17-22.47c-0.03-12.18-10.11-22.29-22.3-22.34c-12.54-0.06-22.71,10.25-22.5,22.8
	C329.56,454.43,339.82,464.41,351.99,464.28z"/>
<path class="st1" d="M451.96,307c4.65-18.08,8.61-35.82,13.93-53.14c2.76-8.97,10.59-13.69,20.09-13.71c60-0.14,120-0.14,180,0
	c9.5,0.02,17.32,4.72,20.08,13.72c5.31,17.33,9.28,35.07,13.93,53.13C617.02,307,534.94,307,451.96,307z"/>
<path class="st1" d="M576.33,441.89c61.83,0.12,112.02,50.79,111.75,112.81c-0.27,61.49-50.8,111.56-112.46,111.43
	c-61.82-0.13-111.99-50.8-111.74-112.84C464.13,491.78,514.61,441.77,576.33,441.89z M665.62,550.99
	c-0.95-46.03-40.18-85.49-86.13-86.64c-14.95-0.37-25.4,8.28-25.91,21.44c-0.51,13.23,9.21,22.67,24.08,23.4
	c23.69,1.16,41.96,19.5,43.11,43.28c0.71,14.77,10.34,24.55,23.56,23.92C657.19,575.79,665.92,565.37,665.62,550.99z"/>
</svg>
