<?xml version="1.0" encoding="utf-8"?>
<!-- Generator: Adobe Illustrator 24.0.0, SVG Export Plug-In . SVG Version: 6.00 Build 0)  -->
<svg version="1.1" id="Layer_1" xmlns="http://www.w3.org/2000/svg" xmlns:xlink="http://www.w3.org/1999/xlink" x="0px" y="0px"
	 viewBox="0 0 1080 1080" style="enable-background:new 0 0 1080 1080;" xml:space="preserve">
<style type="text/css">
	.st0{fill:url(#SVGID_1_);}
	.st1{fill:#EA372F;}
	.st2{fill:url(#SVGID_2_);}
	.st3{fill:url(#SVGID_3_);}
	.st4{fill:url(#SVGID_4_);}
	.st5{fill:url(#SVGID_5_);}
	.st6{fill:url(#SVGID_6_);}
	.st7{fill:url(#SVGID_7_);}
	.st8{fill:url(#SVGID_8_);}
	.st9{fill:url(#SVGID_9_);}
	.st10{fill:url(#SVGID_10_);}
	.st11{fill:url(#SVGID_11_);}
	.st12{fill:url(#SVGID_12_);}
	.st13{fill:url(#SVGID_13_);}
	.st14{fill:url(#SVGID_14_);}
	.st15{fill:url(#SVGID_15_);}
	.st16{fill:url(#SVGID_16_);}
	.st17{fill:url(#SVGID_17_);}
	.st18{fill:url(#SVGID_18_);}
	.st19{fill:url(#SVGID_19_);}
	.st20{fill:url(#SVGID_20_);}
	.st21{fill:#FFFFFF;}
	.st22{fill:url(#SVGID_21_);}
	.st23{fill:url(#SVGID_22_);}
	.st24{fill:url(#SVGID_23_);}
	.st25{fill:url(#SVGID_24_);}
	.st26{fill:url(#SVGID_25_);}
	.st27{fill:url(#SVGID_26_);}
	.st28{fill:url(#SVGID_27_);}
	.st29{fill:url(#SVGID_28_);}
	.st30{fill:url(#SVGID_29_);}
	.st31{fill:url(#SVGID_30_);}
	.st32{fill:url(#SVGID_31_);}
	.st33{fill:url(#SVGID_32_);}
	.st34{fill:url(#SVGID_33_);}
	.st35{fill:url(#SVGID_34_);}
	.st36{fill:url(#SVGID_35_);}
	.st37{fill:url(#SVGID_36_);}
	.st38{fill:url(#SVGID_37_);}
	.st39{fill:url(#SVGID_38_);}
	.st40{fill:url(#SVGID_39_);}
	.st41{fill:url(#SVGID_40_);}
	.st42{fill:url(#SVGID_41_);}
	.st43{fill:url(#SVGID_42_);}
	.st44{fill:url(#SVGID_43_);}
	.st45{fill:url(#SVGID_44_);}
	.st46{fill:url(#SVGID_45_);}
	.st47{fill:url(#SVGID_46_);}
	.st48{fill:url(#SVGID_47_);}
	.st49{fill:url(#SVGID_48_);}
	.st50{fill:url(#SVGID_49_);}
	.st51{fill:url(#SVGID_50_);}
	.st52{fill:url(#SVGID_51_);}
	.st53{fill:url(#SVGID_52_);}
	.st54{fill:url(#SVGID_53_);}
	.st55{fill:url(#SVGID_54_);}
	.st56{fill:url(#SVGID_55_);}
	.st57{fill:url(#SVGID_56_);}
	.st58{fill:url(#SVGID_57_);}
	.st59{fill:url(#SVGID_58_);}
	.st60{fill:url(#SVGID_59_);}
	.st61{fill:url(#SVGID_60_);}
	.st62{fill:url(#SVGID_61_);}
	.st63{fill:url(#SVGID_62_);}
	.st64{fill:url(#SVGID_63_);}
	.st65{fill:url(#SVGID_64_);}
	.st66{fill:url(#SVGID_65_);}
	.st67{fill:url(#SVGID_66_);}
	.st68{fill:url(#SVGID_67_);}
	.st69{fill:url(#SVGID_68_);}
	.st70{fill:none;}
	.st71{fill:url(#SVGID_69_);}
	.st72{fill:url(#SVGID_70_);}
	.st73{fill:url(#SVGID_71_);}
</style>
<linearGradient id="SVGID_1_" gradientUnits="userSpaceOnUse" x1="366.276" y1="509.3248" x2="744.2186" y2="509.3248">
	<stop  offset="0" style="stop-color:#15818E"/>
	<stop  offset="0.9944" style="stop-color:#7ECAB6"/>
</linearGradient>
<path class="st0" d="M743.93,713.01c-33.37,0-66.15,0-99.35,0c-0.68-7.1-1.53-12.59,6.83-17.12c11.69-6.33,16.45-18.13,14.66-31.43
	c-1.86-13.87-10.12-23.03-23.37-27.55c-1.94-0.66-3.97-1.09-6.78-1.84c7.58-8.59,14.72-16.69,21.88-24.77
	c15.99-18.04,31.94-36.1,48.01-54.06c4.17-4.66,7-9.48,3.41-15.59c-3.36-5.72-8.71-6.01-14.61-5.02
	c-9.35,1.56-18.79,2.61-28.13,4.22c-18.2,3.14-34.01,11.35-49.02,24.84c1.28-8.84,2.34-16,3.36-23.17
	c3.96-27.93,4.03-55.92,1.24-83.96c-0.57-5.72-3.13-9.81-8.72-11.18c-5.69-1.4-9.69,1.39-12.74,6.16
	c-13.77,21.54-25.24,44.22-34.18,68.19c-0.78,2.09-1.65,4.14-2.33,5.82c-5.64-16.97-10.9-34.04-17.03-50.79
	c-4.05-11.07-9.4-21.65-14.11-32.48c-2.23-5.12-5.73-8.57-11.57-8.3c-5.86,0.28-8.72,4.16-10.64,9.42
	c-13.49,36.84-23.06,74.36-20.62,114.08c0.04,0.64-0.21,1.3-0.37,2.19c-0.72-0.2-1.46-0.2-1.9-0.57
	c-16.24-13.49-35.23-19.94-55.92-22.17c-5.29-0.57-10.56-1.31-15.79-2.26c-6.14-1.11-11.67-0.75-15.02,5.45
	c-3.23,5.96-0.42,10.55,3.54,14.99c21.89,24.57,43.7,49.21,65.53,73.84c1.37,1.54,2.67,3.14,4.36,5.14
	c-2.47,0.67-4.47,1.12-6.41,1.77c-13.29,4.42-21.59,13.53-23.57,27.38c-1.9,13.31,2.84,25.05,14.43,31.55
	c8.02,4.49,7.98,9.82,6.97,17.16c-32.95,0-65.74,0-99.58,0c0-2.37,0-4.81,0-7.24c0-82.59,0.04-165.17-0.1-247.76
	c-0.01-4.62,1.33-7.6,5-10.45c59.83-46.43,119.58-92.96,179.24-139.61c3.51-2.74,5.68-3.12,9.4-0.2
	c59.82,46.83,119.79,93.45,179.59,140.3c2.32,1.82,4.52,5.5,4.52,8.33c0.24,84.44,0.19,168.88,0.18,253.33
	C744.21,710.52,744.06,711.43,743.93,713.01z"/>
<linearGradient id="SVGID_2_" gradientUnits="userSpaceOnUse" x1="260.595" y1="785.5261" x2="850.1939" y2="785.5261">
	<stop  offset="0" style="stop-color:#15818E"/>
	<stop  offset="0.9944" style="stop-color:#7ECAB6"/>
</linearGradient>
<path class="st2" d="M850.19,835.5c-197.04,0-392.73,0-589.6,0c1.98-2.16,3.24-3.64,4.62-5.02c30.11-30.19,60.19-60.42,90.45-90.46
	c2.2-2.19,5.75-4.23,8.69-4.26c32.64-0.3,65.28-0.19,97.92-0.18c1.11,0,2.23,0.14,4.12,0.26c0,3.67,0.11,7.07-0.02,10.47
	c-2.35,62.19,5.04,69.34,67.42,67.35c24.74-0.79,49.54-0.1,74.31-0.14c22.2-0.04,36.02-13.82,36.1-35.94
	c0.05-13.67,0.01-27.33,0.01-41.67c2.52-0.12,4.74-0.32,6.95-0.32c31.25-0.02,62.5-0.07,93.75,0.09c2.73,0.01,6.28,0.67,8.06,2.44
	C785.19,770.12,817.18,802.35,850.19,835.5z"/>
<linearGradient id="SVGID_3_" gradientUnits="userSpaceOnUse" x1="244.7144" y1="638.4301" x2="344.2265" y2="638.4301">
	<stop  offset="0" style="stop-color:#15818E"/>
	<stop  offset="0.9944" style="stop-color:#7ECAB6"/>
</linearGradient>
<path class="st3" d="M244.71,457.4c33.06,0,65.83,0,99.09,0c0.12,2.47,0.32,4.71,0.32,6.95c0.02,83.01-0.02,166.02,0.1,249.02
	c0.01,4.49-1.19,7.71-4.43,10.93c-31.52,31.35-62.88,62.88-95.08,95.15C244.71,698.33,244.71,578.22,244.71,457.4z"/>
<linearGradient id="SVGID_4_" gradientUnits="userSpaceOnUse" x1="766.4716" y1="638.6509" x2="866.0025" y2="638.6509">
	<stop  offset="0" style="stop-color:#15818E"/>
	<stop  offset="0.9944" style="stop-color:#7ECAB6"/>
</linearGradient>
<path class="st4" d="M866,819.63c-19.55-19.63-38.16-38.32-56.78-57c-13.08-13.12-26.26-26.15-39.16-39.44
	c-1.86-1.91-3.45-5.07-3.45-7.66c-0.17-85.09-0.13-170.18-0.12-255.27c0-0.68,0.14-1.37,0.27-2.58c32.91,0,65.84,0,99.25,0
	C866,577.72,866,697.89,866,819.63z"/>
<linearGradient id="SVGID_5_" gradientUnits="userSpaceOnUse" x1="266.1084" y1="324.9779" x2="844.5714" y2="324.9779">
	<stop  offset="0" style="stop-color:#15818E"/>
	<stop  offset="0.9944" style="stop-color:#7ECAB6"/>
</linearGradient>
<path class="st5" d="M555.33,214.97c96.01,72.99,191.77,145.79,289.24,219.89c-4.21,0-6.39,0-8.57,0c-23.61,0-47.22,0.15-70.83-0.16
	c-3.56-0.05-7.73-1.46-10.54-3.64c-62.23-48.24-124.3-96.68-186.4-145.08c-12.26-9.56-13.45-9.59-25.68-0.06
	c-61.56,47.98-123.13,95.93-184.59,144.03c-4.43,3.47-8.73,5.12-14.43,5.04c-22.91-0.31-45.83-0.13-68.75-0.13c-2.2,0-4.4,0-8.67,0
	C363.5,360.81,459.24,288.03,555.33,214.97z"/>
<path class="st1" d="M621.94,702.63c0,26.18,0.12,51.88-0.08,77.57c-0.05,6.56-4.49,10.93-11.08,10.95c-37,0.15-73.99,0.15-110.99,0
	c-6.6-0.03-11-4.4-11.05-10.98c-0.19-25.69-0.08-51.38-0.08-77.54C533.05,702.63,577.07,702.63,621.94,702.63z"/>
<path class="st1" d="M554.6,679.88c-25,0-50,0.04-75-0.02c-7.61-0.02-12.27-3.61-13.08-9.72c-0.92-6.93,4.33-12.41,12.39-12.48
	c16.2-0.13,32.41-0.04,48.61-0.04c34.26,0,68.52-0.02,102.78,0.01c8.21,0.01,12.94,3.43,13.78,9.73c0.95,7.14-4.49,12.48-13.09,12.5
	C605.53,679.92,580.06,679.88,554.6,679.88z"/>
<path class="st1" d="M523.45,477.24c12.21,25.72,18.53,51.19,20.49,77.75c1.91,25.91-1.35,51.36-7.97,76.4
	c-0.38,1.45-1.9,2.6-2.89,3.89c-1.42-1.16-3.57-2.03-4.14-3.51c-18.33-47.67-22.72-96.19-8.37-145.76
	C521.26,483.63,522.11,481.29,523.45,477.24z"/>
<path class="st1" d="M601.58,497.42c2.14,42.17-20.89,133.87-34.22,137.52C562.98,606.87,583.59,523.2,601.58,497.42z"/>
<path class="st1" d="M504.83,635.42c-21.66-24.43-42.83-48.29-64.28-72.48C468.33,562.66,498.89,597.13,504.83,635.42z"/>
<path class="st1" d="M606.45,634.69c5.22-16.36,8.8-33.36,19.95-46.96c11.22-13.7,25.45-22.29,44.8-26.08
	C648.77,586.95,627.61,610.82,606.45,634.69z"/>
</svg>
