<?xml version="1.0" encoding="utf-8"?>
<!-- Generator: Adobe Illustrator 24.0.0, SVG Export Plug-In . SVG Version: 6.00 Build 0)  -->
<svg version="1.1" id="Layer_1" xmlns="http://www.w3.org/2000/svg" xmlns:xlink="http://www.w3.org/1999/xlink" x="0px" y="0px"
	 viewBox="0 0 1080 1080" style="enable-background:new 0 0 1080 1080;" xml:space="preserve">
<style type="text/css">
	.st0{fill:url(#SVGID_1_);}
	.st1{fill:#EA372F;}
	.st2{fill:url(#SVGID_2_);}
	.st3{fill:url(#SVGID_3_);}
	.st4{fill:url(#SVGID_4_);}
	.st5{fill:url(#SVGID_5_);}
	.st6{fill:url(#SVGID_6_);}
	.st7{fill:url(#SVGID_7_);}
	.st8{fill:url(#SVGID_8_);}
	.st9{fill:url(#SVGID_9_);}
	.st10{fill:url(#SVGID_10_);}
	.st11{fill:url(#SVGID_11_);}
	.st12{fill:url(#SVGID_12_);}
	.st13{fill:url(#SVGID_13_);}
	.st14{fill:url(#SVGID_14_);}
	.st15{fill:url(#SVGID_15_);}
	.st16{fill:url(#SVGID_16_);}
	.st17{fill:url(#SVGID_17_);}
	.st18{fill:url(#SVGID_18_);}
	.st19{fill:url(#SVGID_19_);}
	.st20{fill:url(#SVGID_20_);}
	.st21{fill:#FFFFFF;}
	.st22{fill:url(#SVGID_21_);}
	.st23{fill:url(#SVGID_22_);}
	.st24{fill:url(#SVGID_23_);}
	.st25{fill:url(#SVGID_24_);}
	.st26{fill:url(#SVGID_25_);}
	.st27{fill:url(#SVGID_26_);}
	.st28{fill:url(#SVGID_27_);}
	.st29{fill:url(#SVGID_28_);}
	.st30{fill:url(#SVGID_29_);}
	.st31{fill:url(#SVGID_30_);}
	.st32{fill:url(#SVGID_31_);}
	.st33{fill:url(#SVGID_32_);}
	.st34{fill:url(#SVGID_33_);}
	.st35{fill:url(#SVGID_34_);}
	.st36{fill:url(#SVGID_35_);}
	.st37{fill:url(#SVGID_36_);}
	.st38{fill:url(#SVGID_37_);}
	.st39{fill:url(#SVGID_38_);}
	.st40{fill:url(#SVGID_39_);}
	.st41{fill:url(#SVGID_40_);}
	.st42{fill:url(#SVGID_41_);}
	.st43{fill:url(#SVGID_42_);}
	.st44{fill:url(#SVGID_43_);}
	.st45{fill:url(#SVGID_44_);}
	.st46{fill:url(#SVGID_45_);}
	.st47{fill:url(#SVGID_46_);}
	.st48{fill:url(#SVGID_47_);}
	.st49{fill:url(#SVGID_48_);}
	.st50{fill:url(#SVGID_49_);}
	.st51{fill:url(#SVGID_50_);}
	.st52{fill:url(#SVGID_51_);}
	.st53{fill:url(#SVGID_52_);}
	.st54{fill:url(#SVGID_53_);}
	.st55{fill:url(#SVGID_54_);}
	.st56{fill:url(#SVGID_55_);}
	.st57{fill:url(#SVGID_56_);}
	.st58{fill:url(#SVGID_57_);}
	.st59{fill:url(#SVGID_58_);}
	.st60{fill:url(#SVGID_59_);}
	.st61{fill:url(#SVGID_60_);}
	.st62{fill:url(#SVGID_61_);}
	.st63{fill:url(#SVGID_62_);}
	.st64{fill:url(#SVGID_63_);}
	.st65{fill:url(#SVGID_64_);}
	.st66{fill:url(#SVGID_65_);}
	.st67{fill:url(#SVGID_66_);}
	.st68{fill:url(#SVGID_67_);}
	.st69{fill:url(#SVGID_68_);}
	.st70{fill:none;}
	.st71{fill:url(#SVGID_69_);}
	.st72{fill:url(#SVGID_70_);}
	.st73{fill:url(#SVGID_71_);}
</style>
<linearGradient id="SVGID_1_" gradientUnits="userSpaceOnUse" x1="407.1032" y1="554.3428" x2="464.1322" y2="554.3428">
	<stop  offset="0" style="stop-color:#15818E"/>
	<stop  offset="0.9944" style="stop-color:#7ECAB6"/>
</linearGradient>
<path class="st0" d="M440.97,247.79c5.83,3.9,12.76,6.87,17.15,12.01c3.52,4.12,5.02,10.78,5.54,16.49
	c0.87,9.5,0.25,19.13,0.25,28.71c0,173.97,0,347.94-0.02,521.91c0,3.78,0.11,7.64-0.59,11.33c-2.68,14.19-14.99,23.5-29.43,22.61
	c-14.71-0.91-25.66-11.92-26.46-26.67c-0.15-2.79-0.1-5.58-0.1-8.38c0-180.75,0.13-361.51-0.22-542.26
	c-0.03-17.85,5.88-29.96,23.09-35.74C433.78,247.79,437.38,247.79,440.97,247.79z"/>
<linearGradient id="SVGID_2_" gradientUnits="userSpaceOnUse" x1="221.8085" y1="554.2743" x2="278.6452" y2="554.2743">
	<stop  offset="0" style="stop-color:#15818E"/>
	<stop  offset="0.9944" style="stop-color:#7ECAB6"/>
</linearGradient>
<path class="st2" d="M221.81,530.42c3.45-5.45,5.99-11.9,10.56-16.15c8.24-7.66,18.57-8.84,28.98-4.33
	c10.37,4.49,16.49,12.64,16.92,24.01c0.5,13.13,0.48,26.3,0.09,39.44c-0.45,15.03-10.16,25.78-24.04,27.57
	c-14.76,1.91-26.77-5.98-31.42-20.6c-0.23-0.72-0.72-1.36-1.09-2.03C221.81,562.36,221.81,546.39,221.81,530.42z"/>
<linearGradient id="SVGID_3_" gradientUnits="userSpaceOnUse" x1="499.8519" y1="554.3978" x2="557.0007" y2="554.3978">
	<stop  offset="0" style="stop-color:#15818E"/>
	<stop  offset="0.9944" style="stop-color:#7ECAB6"/>
</linearGradient>
<path class="st3" d="M556.94,554.21c0,57.07,0.02,114.14-0.01,171.21c-0.01,15.22-6.49,25.58-18.46,29.85
	c-18.66,6.65-36.75-5.3-38.5-25.47c-0.14-1.59-0.11-3.19-0.11-4.79c0-113.94-0.01-227.88,0-341.81c0-14.54,6.45-24.91,18.2-29.5
	c18.99-7.42,38.58,6.33,38.82,27.5c0.22,19.75,0.05,39.51,0.05,59.26C556.94,478.39,556.94,516.3,556.94,554.21z"/>
<path class="st1" d="M685.41,553.75c0-57.26-0.04-114.51,0.02-171.77c0.02-18.36,12.96-31,30.48-30.07
	c12.51,0.66,23.62,10.45,25.71,22.86c0.53,3.13,0.69,6.35,0.69,9.53c0.03,113.32,0.03,226.63,0.02,339.95
	c0,16.29-6.24,26.7-18.45,31.04c-19.63,6.96-38.26-6.44-38.42-27.96c-0.21-27.53-0.05-55.06-0.05-82.59
	C685.41,614.4,685.41,584.08,685.41,553.75z"/>
<linearGradient id="SVGID_4_" gradientUnits="userSpaceOnUse" x1="314.4506" y1="554.4308" x2="371.4087" y2="554.4308">
	<stop  offset="0" style="stop-color:#15818E"/>
	<stop  offset="0.9944" style="stop-color:#7ECAB6"/>
</linearGradient>
<path class="st4" d="M371.38,554.54c0,39.9,0.04,79.8-0.02,119.7c-0.03,16.98-8.94,28.04-24.35,30.56
	c-15.18,2.48-29.47-7.79-31.84-22.99c-0.46-2.94-0.68-5.95-0.68-8.93c-0.04-79.2-0.04-158.41-0.02-237.61
	c0.01-16.04,7.94-27.26,21.46-30.65c18.64-4.67,35.37,8.9,35.43,29.02C371.46,473.93,371.38,514.23,371.38,554.54z"/>
<path class="st1" d="M649.44,555.01c0,23.33,0.26,46.67-0.08,70c-0.29,20.54-19.44,33.35-38.59,26.27
	c-10.92-4.04-17.7-13.77-17.83-26.49c-0.2-18.94-0.08-37.89-0.07-56.84c0.01-28.32-0.11-56.64,0.11-84.96
	c0.1-12.86,9.55-24.05,21.73-26.69c12.89-2.79,26.08,3.09,31.56,14.92c2.02,4.35,3,9.55,3.06,14.38c0.31,23.13,0.14,46.27,0.14,69.4
	C649.46,555.01,649.45,555.01,649.44,555.01z"/>
<path class="st1" d="M834.97,553.91c0,6.18,0.11,12.37-0.02,18.54c-0.36,16.57-11.71,28.35-27.51,28.68
	c-16.43,0.34-28.41-10.75-28.99-27.58c-0.45-12.95-0.43-25.93,0-38.88c0.52-15.65,13.01-27.21,28.48-27.07
	c15.27,0.14,27.56,12.25,28,27.76C835.1,541.54,834.96,547.72,834.97,553.91z"/>
</svg>
