<?xml version="1.0" encoding="utf-8"?>
<!-- Generator: Adobe Illustrator 24.0.0, SVG Export Plug-In . SVG Version: 6.00 Build 0)  -->
<svg version="1.1" id="Layer_1" xmlns="http://www.w3.org/2000/svg" xmlns:xlink="http://www.w3.org/1999/xlink" x="0px" y="0px"
	 viewBox="0 0 1080 1080" style="enable-background:new 0 0 1080 1080;" xml:space="preserve">
<style type="text/css">
	.st0{fill:url(#SVGID_1_);}
	.st1{fill:#EA372F;}
	.st2{fill:url(#SVGID_2_);}
	.st3{fill:url(#SVGID_3_);}
	.st4{fill:url(#SVGID_4_);}
	.st5{fill:url(#SVGID_5_);}
	.st6{fill:url(#SVGID_6_);}
	.st7{fill:url(#SVGID_7_);}
	.st8{fill:url(#SVGID_8_);}
	.st9{fill:url(#SVGID_9_);}
	.st10{fill:url(#SVGID_10_);}
	.st11{fill:url(#SVGID_11_);}
	.st12{fill:url(#SVGID_12_);}
	.st13{fill:url(#SVGID_13_);}
	.st14{fill:url(#SVGID_14_);}
	.st15{fill:url(#SVGID_15_);}
	.st16{fill:url(#SVGID_16_);}
	.st17{fill:url(#SVGID_17_);}
	.st18{fill:url(#SVGID_18_);}
	.st19{fill:url(#SVGID_19_);}
	.st20{fill:url(#SVGID_20_);}
	.st21{fill:#FFFFFF;}
	.st22{fill:url(#SVGID_21_);}
	.st23{fill:url(#SVGID_22_);}
	.st24{fill:url(#SVGID_23_);}
	.st25{fill:url(#SVGID_24_);}
	.st26{fill:url(#SVGID_25_);}
	.st27{fill:url(#SVGID_26_);}
	.st28{fill:url(#SVGID_27_);}
	.st29{fill:url(#SVGID_28_);}
	.st30{fill:url(#SVGID_29_);}
	.st31{fill:url(#SVGID_30_);}
	.st32{fill:url(#SVGID_31_);}
	.st33{fill:url(#SVGID_32_);}
	.st34{fill:url(#SVGID_33_);}
	.st35{fill:url(#SVGID_34_);}
	.st36{fill:url(#SVGID_35_);}
	.st37{fill:url(#SVGID_36_);}
	.st38{fill:url(#SVGID_37_);}
	.st39{fill:url(#SVGID_38_);}
	.st40{fill:url(#SVGID_39_);}
	.st41{fill:url(#SVGID_40_);}
	.st42{fill:url(#SVGID_41_);}
	.st43{fill:url(#SVGID_42_);}
	.st44{fill:url(#SVGID_43_);}
	.st45{fill:url(#SVGID_44_);}
	.st46{fill:url(#SVGID_45_);}
	.st47{fill:url(#SVGID_46_);}
	.st48{fill:url(#SVGID_47_);}
	.st49{fill:url(#SVGID_48_);}
	.st50{fill:url(#SVGID_49_);}
	.st51{fill:url(#SVGID_50_);}
	.st52{fill:url(#SVGID_51_);}
	.st53{fill:url(#SVGID_52_);}
	.st54{fill:url(#SVGID_53_);}
	.st55{fill:url(#SVGID_54_);}
	.st56{fill:url(#SVGID_55_);}
	.st57{fill:url(#SVGID_56_);}
	.st58{fill:url(#SVGID_57_);}
	.st59{fill:url(#SVGID_58_);}
	.st60{fill:url(#SVGID_59_);}
	.st61{fill:url(#SVGID_60_);}
	.st62{fill:url(#SVGID_61_);}
	.st63{fill:url(#SVGID_62_);}
	.st64{fill:url(#SVGID_63_);}
	.st65{fill:url(#SVGID_64_);}
	.st66{fill:url(#SVGID_65_);}
	.st67{fill:url(#SVGID_66_);}
	.st68{fill:url(#SVGID_67_);}
	.st69{fill:url(#SVGID_68_);}
	.st70{fill:none;}
	.st71{fill:url(#SVGID_69_);}
	.st72{fill:url(#SVGID_70_);}
	.st73{fill:url(#SVGID_71_);}
</style>
<linearGradient id="SVGID_1_" gradientUnits="userSpaceOnUse" x1="260.9474" y1="517.2741" x2="939" y2="517.2741">
	<stop  offset="0" style="stop-color:#15818E"/>
	<stop  offset="0.9944" style="stop-color:#7ECAB6"/>
</linearGradient>
<path class="st0" d="M260.95,477.45c4.16-13.45,11.78-23.78,26.23-26.95c5.73-1.26,11.8-1.01,18.88-1.53c0-2.3,0-4.82,0-7.34
	c0-52.75-0.01-105.5,0.01-158.26c0.01-19.92,6.97-36.57,23.17-48.82c11.43-8.64,24.58-11.33,38.57-11.33
	c121.37,0.02,242.74,0.01,364.11,0.01c33.98,0,67.97-0.1,101.95,0.03c24.35,0.1,43.5,10.02,53.85,32.5c4,8.68,5.77,19.11,5.83,28.76
	c0.46,74.6,0.25,149.2,0.25,223.81c0,2.63,0,5.26,0,8.85c3.76,0,7.19-0.08,10.62,0.01c19.93,0.52,34.36,14.52,34.41,34.44
	c0.19,75.04,0.2,150.09-0.01,225.13c-0.05,19.55-14.22,33.89-33.94,34.19c-30,0.46-60.03,0.47-90.03,0
	c-20.74-0.32-33.92-14.89-34.05-36.75c-0.18-30.02-0.05-60.04-0.05-90.05c0-2.6,0-5.2,0-8.29c-45.51,0-90.37,0-135.47,0
	c0,22.43,0,44.44,0,67.45c8.71,0,17.24,0.13,25.76-0.03c12.74-0.24,25.11,0.95,36.3,7.85c17.66,10.9,27.1,26.64,27.87,47.41
	c0.27,7.2-3.71,11.6-10.89,12.43c-2.4,0.28-4.85,0.13-7.27,0.13c-137.7,0-275.4-0.19-413.1,0.21c-21.29,0.06-36.35-6.79-43.03-27.93
	C260.95,681.42,260.95,579.44,260.95,477.45z M780.83,562.02c0-3.87-0.14-7.15,0.02-10.42c1.04-21.02,14.72-34.17,35.76-34.4
	c6.4-0.07,12.8-0.01,19.2-0.01c11.62,0,23.24,0,35.45,0c0-2.72,0-4.66,0-6.59c0-75.7,0.03-151.41-0.02-227.11
	c-0.02-23.75-14.11-37.65-38.11-37.66c-155.35-0.02-310.7-0.02-466.04,0c-24.68,0-38.43,13.85-38.44,38.66
	c-0.02,52.53-0.01,105.06-0.01,157.59c0,2.32,0,4.65,0,7.41c3.66,0,6.28,0,8.9,0c51.86,0,103.71-0.01,155.57,0.03
	c3.96,0,8.39-0.65,11.77,0.87c5.92,2.65,9.07,0.17,12.93-3.7c34.84-35.06,69.83-69.99,104.82-104.91c6.19-6.18,13.2-6.7,17.99-1.65
	c4.69,4.95,3.99,11.31-1.95,17.51c-1.07,1.12-2.18,2.19-3.27,3.28c-34.33,34.33-68.62,68.7-103.04,102.94
	c-2.8,2.79-3.82,4.97-2.45,9.07c1.57,4.7,2.2,9.9,2.25,14.89c0.23,22.29,0.1,44.58,0.1,66.87c0,2.35,0,4.7,0,7.33
	C615.28,562.02,697.52,562.02,780.83,562.02z M283.5,742.87c75.7,0,150.58,0,226.14,0c0-2.82,0-5.2,0-7.57
	c0-82.09,0-164.18,0-246.27c0-13.82-3.22-16.97-17.29-16.97c-63.76,0-127.52,0-191.28,0c-14.52,0-17.57,2.99-17.57,17.3
	c0,81.87,0,163.74,0,245.61C283.5,737.39,283.5,739.8,283.5,742.87z M916.08,742.92c0.14-1.62,0.29-2.49,0.29-3.37
	c0.01-61.97,0.05-123.94-0.02-185.9c-0.01-9.76-4.35-13.86-14.42-13.89c-27.34-0.06-54.68-0.03-82.02-0.02
	c-13.07,0-16.48,3.37-16.49,16.38c-0.02,59.98-0.01,119.97-0.01,179.95c0,2.15,0,4.3,0,6.85
	C841.33,742.92,878.47,742.92,916.08,742.92z M780.33,585.36c-82.84,0-165.23,0-247.57,0c0,22.65,0,44.82,0,67
	c82.75,0,165,0,247.57,0C780.33,629.81,780.33,607.64,780.33,585.36z M283.93,766.31c-1.61,18.75,1.56,22.24,19.55,22.24
	c62.62,0,125.24,0,187.86,0c2.2,0,4.43,0.13,6.61-0.1c6.99-0.72,10.81-4.4,11.52-11.38c0.35-3.43,0.06-6.92,0.06-10.76
	C434.04,766.31,359.19,766.31,283.93,766.31z M710.55,788.33c-0.75-2.06-1.04-3.35-1.66-4.45c-7.09-12.51-17.99-18.02-32.22-17.99
	c-46.28,0.1-92.56,0.03-138.84,0.06c-1.69,0-3.38,0.27-5.09,0.42c-0.58,7.52-1.12,14.63-1.69,21.97
	C590.8,788.33,650.26,788.33,710.55,788.33z M622.17,675.79c-14.97,0-29.61,0-44.42,0c0,22.54,0,44.67,0,67.12
	c14.97,0,29.58,0,44.42,0C622.17,720.36,622.17,698.23,622.17,675.79z M916.39,766.32c-37.96,0-75.12,0-112.95,0
	c0,3.19-0.08,6,0.01,8.81c0.31,9.13,4.32,13.33,13.53,13.38c28.67,0.13,57.34,0.14,86.01-0.01c9.04-0.05,13.15-4.54,13.39-13.64
	C916.45,772.24,916.39,769.61,916.39,766.32z M554.55,743c0-22.76,0-44.75,0-67.18c-7.43,0-14.59,0-21.86,0c0,22.55,0,44.7,0,67.18
	C540.06,743,547.01,743,554.55,743z"/>
<linearGradient id="SVGID_2_" gradientUnits="userSpaceOnUse" x1="578.6049" y1="403.6982" x2="712.7234" y2="403.6982">
	<stop  offset="0" style="stop-color:#15818E"/>
	<stop  offset="0.9944" style="stop-color:#7ECAB6"/>
</linearGradient>
<path class="st2" d="M592.02,470.8c-10.62,0.16-16.17-8.91-12.04-16.33c1.26-2.26,3.14-4.25,4.99-6.1
	c35.06-35.12,70.15-70.2,105.27-105.25c1.86-1.85,3.83-3.75,6.09-5c4.51-2.49,9.07-1.91,12.78,1.64c3.93,3.75,4.71,8.42,2.09,13.27
	c-1.02,1.9-2.58,3.57-4.12,5.12c-35.69,35.73-71.37,71.47-107.18,107.08C597.22,467.88,593.67,469.65,592.02,470.8z"/>
<path class="st1" d="M599.51,291.01c-7.06,0-14.13,0.17-21.18-0.05c-7.26-0.22-11.72-4.33-12.03-10.57
	c-0.32-6.47,4.14-11.58,11.57-11.77c14.78-0.37,29.57-0.37,44.35,0.02c7.12,0.19,11.46,5.1,11.4,11.29
	c-0.06,6.5-4.68,10.84-12.26,11.05C614.08,291.18,606.8,291.03,599.51,291.01z"/>
<path class="st1" d="M468.19,594.45c-2.31,3.98-3.44,7.21-5.61,9.43c-15.1,15.41-30.36,30.68-45.71,45.85
	c-5.57,5.51-12.36,5.77-17,1.16c-4.75-4.73-4.59-11.26,1.05-16.98c15.13-15.39,30.44-30.6,45.73-45.82c3.9-3.89,8.86-5.88,13.73-2.8
	C463.53,587.26,465.48,591.14,468.19,594.45z"/>
<path class="st1" d="M396.37,600.15c-0.5,0.9-1.31,3.46-2.98,5.16c-14.67,14.9-29.43,29.71-44.3,44.41
	c-5.55,5.49-12.39,5.78-17.02,1.2c-4.82-4.77-4.67-11.23,1.01-16.99c15.13-15.37,30.43-30.58,45.76-45.75
	c1.66-1.64,3.86-3,6.07-3.77c6.42-2.24,10.45,0.7,10.74,7.42C395.74,594.02,396.02,596.21,396.37,600.15z"/>
<path class="st1" d="M606.33,455.06c-2.46,4.09-3.76,7.49-6.08,9.9c-9.64,10.01-19.5,19.82-29.46,29.52
	c-5.58,5.43-12.41,5.57-17.03,0.82c-4.43-4.56-4.28-11.13,0.96-16.52c10-10.28,20.23-20.34,30.42-30.44
	c3.8-3.77,8.67-5.37,13.23-2.52C601.55,447.83,603.55,451.71,606.33,455.06z"/>
<linearGradient id="SVGID_3_" gradientUnits="userSpaceOnUse" x1="589.1118" y1="618.8469" x2="611.3673" y2="618.8469">
	<stop  offset="0" style="stop-color:#15818E"/>
	<stop  offset="0.9944" style="stop-color:#7ECAB6"/>
</linearGradient>
<path class="st3" d="M600.41,629.95c-6.17,0.13-11-4.36-11.28-10.47c-0.29-6.36,4.5-11.57,10.78-11.74
	c6.09-0.17,11.51,5.15,11.46,11.24C611.32,624.91,606.41,629.83,600.41,629.95z"/>
</svg>
