<?xml version="1.0" encoding="utf-8"?>
<!-- Generator: Adobe Illustrator 24.0.0, SVG Export Plug-In . SVG Version: 6.00 Build 0)  -->
<svg version="1.1" id="Layer_1" xmlns="http://www.w3.org/2000/svg" xmlns:xlink="http://www.w3.org/1999/xlink" x="0px" y="0px"
	 viewBox="0 0 1080 1080" style="enable-background:new 0 0 1080 1080;" xml:space="preserve">
<style type="text/css">
	.st0{fill:url(#SVGID_1_);}
	.st1{fill:#EA372F;}
	.st2{fill:url(#SVGID_2_);}
	.st3{fill:url(#SVGID_3_);}
	.st4{fill:url(#SVGID_4_);}
	.st5{fill:url(#SVGID_5_);}
	.st6{fill:url(#SVGID_6_);}
	.st7{fill:url(#SVGID_7_);}
	.st8{fill:url(#SVGID_8_);}
	.st9{fill:url(#SVGID_9_);}
	.st10{fill:url(#SVGID_10_);}
	.st11{fill:url(#SVGID_11_);}
	.st12{fill:url(#SVGID_12_);}
	.st13{fill:url(#SVGID_13_);}
	.st14{fill:url(#SVGID_14_);}
	.st15{fill:url(#SVGID_15_);}
	.st16{fill:url(#SVGID_16_);}
	.st17{fill:url(#SVGID_17_);}
	.st18{fill:url(#SVGID_18_);}
	.st19{fill:url(#SVGID_19_);}
	.st20{fill:url(#SVGID_20_);}
	.st21{fill:#FFFFFF;}
	.st22{fill:url(#SVGID_21_);}
	.st23{fill:url(#SVGID_22_);}
	.st24{fill:url(#SVGID_23_);}
	.st25{fill:url(#SVGID_24_);}
	.st26{fill:url(#SVGID_25_);}
	.st27{fill:url(#SVGID_26_);}
	.st28{fill:url(#SVGID_27_);}
	.st29{fill:url(#SVGID_28_);}
	.st30{fill:url(#SVGID_29_);}
	.st31{fill:url(#SVGID_30_);}
	.st32{fill:url(#SVGID_31_);}
	.st33{fill:url(#SVGID_32_);}
	.st34{fill:url(#SVGID_33_);}
	.st35{fill:url(#SVGID_34_);}
	.st36{fill:url(#SVGID_35_);}
	.st37{fill:url(#SVGID_36_);}
	.st38{fill:url(#SVGID_37_);}
	.st39{fill:url(#SVGID_38_);}
	.st40{fill:url(#SVGID_39_);}
	.st41{fill:url(#SVGID_40_);}
	.st42{fill:url(#SVGID_41_);}
	.st43{fill:url(#SVGID_42_);}
	.st44{fill:url(#SVGID_43_);}
	.st45{fill:url(#SVGID_44_);}
	.st46{fill:url(#SVGID_45_);}
	.st47{fill:url(#SVGID_46_);}
	.st48{fill:url(#SVGID_47_);}
	.st49{fill:url(#SVGID_48_);}
	.st50{fill:url(#SVGID_49_);}
	.st51{fill:url(#SVGID_50_);}
	.st52{fill:url(#SVGID_51_);}
	.st53{fill:url(#SVGID_52_);}
	.st54{fill:url(#SVGID_53_);}
	.st55{fill:url(#SVGID_54_);}
	.st56{fill:url(#SVGID_55_);}
	.st57{fill:url(#SVGID_56_);}
	.st58{fill:url(#SVGID_57_);}
	.st59{fill:url(#SVGID_58_);}
	.st60{fill:url(#SVGID_59_);}
	.st61{fill:url(#SVGID_60_);}
	.st62{fill:url(#SVGID_61_);}
	.st63{fill:url(#SVGID_62_);}
	.st64{fill:url(#SVGID_63_);}
	.st65{fill:url(#SVGID_64_);}
	.st66{fill:url(#SVGID_65_);}
	.st67{fill:url(#SVGID_66_);}
	.st68{fill:url(#SVGID_67_);}
	.st69{fill:url(#SVGID_68_);}
	.st70{fill:none;}
	.st71{fill:url(#SVGID_69_);}
	.st72{fill:url(#SVGID_70_);}
	.st73{fill:url(#SVGID_71_);}
</style>
<path class="st1" d="M340.45,624.39c0-9.75,0-18.77,0-28.19c36.95,0,73.59,0,110.77,0c4.02,35.76,20.11,64.75,49.57,85.76
	c20.52,14.63,43.66,21.47,68.77,21.26c56.86-0.48,110.43-45.4,115.12-107.05c36.6,0,73.24,0,110.72,0c0,8.58,0.27,16.94-0.25,25.26
	c-0.09,1.48-3.23,3.55-5.26,4c-9.68,2.17-19.45,4-29.23,5.69c-3.78,0.66-5.93,2.36-7.39,6.04c-5.97,15.04-12.44,29.88-18.28,44.97
	c-0.95,2.46-0.6,6.37,0.77,8.63c5.37,8.85,11.55,17.22,17.04,26.01c0.98,1.58,1.07,5.23-0.03,6.36
	c-16.59,17.02-33.44,33.77-50.72,51.08c-9.95-6.66-19.86-13.07-29.5-19.86c-3.25-2.29-5.85-2.4-9.41-0.86
	c-14.86,6.4-29.81,12.6-44.83,18.62c-3.36,1.35-5.07,3.06-5.73,6.77c-2.05,11.65-4.56,23.22-6.95,35.12
	c-24.48,0-48.45,0.08-72.42-0.19c-1.43-0.02-3.71-2.55-4.1-4.25c-2.35-10.31-4.02-20.77-6.49-31.05c-0.57-2.38-2.95-5.16-5.2-6.15
	c-15.01-6.59-30.28-12.6-45.32-19.13c-3.5-1.52-5.91-0.96-8.82,1.05c-9.58,6.62-19.32,13.02-28.4,19.11
	c-17.92-17.97-35.56-35.65-53.94-54.09c5.54-8.27,11.71-17.84,18.29-27.12c2.64-3.73,3.2-6.81,1.29-11.18
	c-6.4-14.62-12.14-29.54-18.6-44.14c-1.07-2.42-4.18-4.91-6.78-5.52C363.81,628.68,352.33,626.71,340.45,624.39z"/>
<linearGradient id="SVGID_1_" gradientUnits="userSpaceOnUse" x1="443.9329" y1="404.4595" x2="596.8954" y2="404.4595">
	<stop  offset="0" style="stop-color:#15818E"/>
	<stop  offset="0.9944" style="stop-color:#7ECAB6"/>
</linearGradient>
<path class="st0" d="M596.9,538.16c-14.04,0-27.58,0-41.76,0c-0.11-2.47-0.29-4.75-0.29-7.03c-0.02-25.5,0.01-51-0.02-76.5
	c-0.02-12.49-5.7-18.15-18.24-18.21c-11.02-0.05-22.04-0.08-33.06,0.01c-11.56,0.09-17.41,6.04-17.43,17.73
	c-0.05,25.5-0.02,51-0.02,76.5c0,2.33,0,4.67,0,7.4c-14.27,0-27.98,0-42.13,0c0-89.21,0-178.08,0-267.3c51.02,0,101.73,0,152.96,0
	C596.9,359.66,596.9,448.56,596.9,538.16z M511,312.81c-9.56,0-18.33,0-27.3,0c0,9.45,0,18.53,0,27.63c9.35,0,18.13,0,27.3,0
	C511,331.19,511,322.26,511,312.81z M510.81,386.95c0-9.41,0-18.52,0-27.67c-9.35,0-18.12,0-27.12,0c0,9.46,0,18.55,0,27.67
	C493.05,386.95,501.84,386.95,510.81,386.95z M557.26,340.46c0-9.65,0-18.56,0-27.43c-9.41,0-18.29,0-27.17,0
	c0,9.48,0,18.36,0,27.43C539.4,340.46,548.14,340.46,557.26,340.46z M557.25,386.94c0-9.64,0-18.57,0-27.68c-9.28,0-18.02,0-27.15,0
	c0,9.42,0,18.48,0,27.68C539.41,386.94,548.17,386.94,557.25,386.94z"/>
<linearGradient id="SVGID_2_" gradientUnits="userSpaceOnUse" x1="767.7888" y1="421.7027" x2="845.0474" y2="421.7027">
	<stop  offset="0" style="stop-color:#15818E"/>
	<stop  offset="0.9944" style="stop-color:#7ECAB6"/>
</linearGradient>
<path class="st2" d="M767.9,538.11c0-2.99,0-5.13,0-7.28c0-62.21,0.06-124.43-0.11-186.64c-0.01-4.98,1.17-7.54,6.12-9.56
	c23.34-9.51,46.46-19.56,70.66-29.84c0.14,2.96,0.35,5.18,0.35,7.41c0.02,73.01-0.05,146.03,0.13,219.04
	c0.01,5.53-1.18,7.46-7.1,7.36c-20.95-0.37-41.9-0.14-62.86-0.16C772.98,538.44,770.87,538.25,767.9,538.11z"/>
<linearGradient id="SVGID_3_" gradientUnits="userSpaceOnUse" x1="357.5068" y1="423.5306" x2="424.9839" y2="423.5306">
	<stop  offset="0" style="stop-color:#15818E"/>
	<stop  offset="0.9944" style="stop-color:#7ECAB6"/>
</linearGradient>
<path class="st3" d="M424.98,309c0,76.7,0,152.69,0,229.06c-22.48,0-44.63,0-67.33,0c0-2.51,0-4.63,0-6.75
	c0-62.47,0.08-124.95-0.14-187.42c-0.02-5.21,1.61-7.45,6.3-9.35c18.4-7.45,36.61-15.38,54.9-23.11
	C420.63,310.61,422.6,309.92,424.98,309z"/>
<linearGradient id="SVGID_4_" gradientUnits="userSpaceOnUse" x1="615.9283" y1="475.6945" x2="749.2468" y2="475.6945">
	<stop  offset="0" style="stop-color:#15818E"/>
	<stop  offset="0.9944" style="stop-color:#7ECAB6"/>
</linearGradient>
<path class="st4" d="M749.25,538.07c-44.64,0-88.81,0-133.32,0c0-41.73,0-83.07,0-124.76c44.49,0,88.66,0,133.32,0
	C749.25,454.75,749.25,496.08,749.25,538.07z M723.33,440.96c-27.53,0-54.39,0-81.18,0c0,11.41,0,22.31,0,33.29
	c27.27,0,54.13,0,81.18,0C723.33,462.97,723.33,452.2,723.33,440.96z"/>
<linearGradient id="SVGID_5_" gradientUnits="userSpaceOnUse" x1="250.5131" y1="567.205" x2="885.3099" y2="567.205">
	<stop  offset="0" style="stop-color:#15818E"/>
	<stop  offset="0.9944" style="stop-color:#7ECAB6"/>
</linearGradient>
<path class="st5" d="M885.31,557.15c0,6.93,0,13.33,0,20.12c-211.62,0-422.94,0-634.8,0c0-6.48,0-13.04,0-20.12
	C461.86,557.15,673.33,557.15,885.31,557.15z"/>
<linearGradient id="SVGID_6_" gradientUnits="userSpaceOnUse" x1="645.6418" y1="307.298" x2="719.6807" y2="307.298">
	<stop  offset="0" style="stop-color:#15818E"/>
	<stop  offset="0.9944" style="stop-color:#7ECAB6"/>
</linearGradient>
<path class="st6" d="M657.04,220.24c17.49,0,33.85,0,51.22,0c3.8,57.98,7.6,115.8,11.43,174.11c-24.71,0-48.98,0-74.04,0
	C649.44,336.37,653.22,278.54,657.04,220.24z"/>
<linearGradient id="SVGID_7_" gradientUnits="userSpaceOnUse" x1="290.6429" y1="461.8804" x2="339.1087" y2="461.8804">
	<stop  offset="0" style="stop-color:#15818E"/>
	<stop  offset="0.9944" style="stop-color:#7ECAB6"/>
</linearGradient>
<path class="st7" d="M339.11,538.44c-15.14,0-29.8-0.08-44.45,0.05c-4.45,0.04-4-2.85-4-5.68c0-20.96,0-41.92,0-62.88
	c0-25.71,0-51.43,0-77.14c0-2.34,0-4.68,0-7.51c16.43,0,32.25,0,48.45,0C339.11,436.1,339.11,486.79,339.11,538.44z"/>
<linearGradient id="SVGID_8_" gradientUnits="userSpaceOnUse" x1="460.0429" y1="240.5145" x2="580.6409" y2="240.5145">
	<stop  offset="0" style="stop-color:#15818E"/>
	<stop  offset="0.9944" style="stop-color:#7ECAB6"/>
</linearGradient>
<path class="st8" d="M460.04,251.73c0-7.67,0-14.79,0-22.44c40.17,0,80.2,0,120.6,0c0,7.37,0,14.64,0,22.44
	C540.7,251.73,500.66,251.73,460.04,251.73z"/>
<linearGradient id="SVGID_9_" gradientUnits="userSpaceOnUse" x1="652.1168" y1="189.994" x2="713.2407" y2="189.994">
	<stop  offset="0" style="stop-color:#15818E"/>
	<stop  offset="0.9944" style="stop-color:#7ECAB6"/>
</linearGradient>
<path class="st9" d="M682.42,178.18c7.34,0,14.68,0.15,22.02-0.05c5.95-0.15,8.64,2.33,8.75,8.41c0.27,14.87-0.03,15.32-14.77,15.32
	c-12.09,0-24.17,0.03-36.26-0.01c-8.58-0.03-9.99-1.52-10.03-10.32c-0.01-1.94-0.02-3.89,0.01-5.83c0.07-5,2.54-7.55,7.62-7.52
	C667.31,178.21,674.87,178.18,682.42,178.18z"/>
</svg>
