<?xml version="1.0" encoding="utf-8"?>
<!-- Generator: Adobe Illustrator 24.0.0, SVG Export Plug-In . SVG Version: 6.00 Build 0)  -->
<svg version="1.1" id="Layer_1" xmlns="http://www.w3.org/2000/svg" xmlns:xlink="http://www.w3.org/1999/xlink" x="0px" y="0px"
	 viewBox="0 0 1080 1080" style="enable-background:new 0 0 1080 1080;" xml:space="preserve">
<style type="text/css">
	.st0{fill:url(#SVGID_1_);}
	.st1{fill:#EA372F;}
	.st2{fill:url(#SVGID_2_);}
	.st3{fill:url(#SVGID_3_);}
	.st4{fill:url(#SVGID_4_);}
	.st5{fill:url(#SVGID_5_);}
	.st6{fill:url(#SVGID_6_);}
	.st7{fill:url(#SVGID_7_);}
	.st8{fill:url(#SVGID_8_);}
	.st9{fill:url(#SVGID_9_);}
	.st10{fill:url(#SVGID_10_);}
	.st11{fill:url(#SVGID_11_);}
	.st12{fill:url(#SVGID_12_);}
	.st13{fill:url(#SVGID_13_);}
	.st14{fill:url(#SVGID_14_);}
	.st15{fill:url(#SVGID_15_);}
	.st16{fill:url(#SVGID_16_);}
	.st17{fill:url(#SVGID_17_);}
	.st18{fill:url(#SVGID_18_);}
	.st19{fill:url(#SVGID_19_);}
	.st20{fill:url(#SVGID_20_);}
	.st21{fill:#FFFFFF;}
	.st22{fill:url(#SVGID_21_);}
	.st23{fill:url(#SVGID_22_);}
	.st24{fill:url(#SVGID_23_);}
	.st25{fill:url(#SVGID_24_);}
	.st26{fill:url(#SVGID_25_);}
	.st27{fill:url(#SVGID_26_);}
	.st28{fill:url(#SVGID_27_);}
	.st29{fill:url(#SVGID_28_);}
	.st30{fill:url(#SVGID_29_);}
	.st31{fill:url(#SVGID_30_);}
	.st32{fill:url(#SVGID_31_);}
	.st33{fill:url(#SVGID_32_);}
	.st34{fill:url(#SVGID_33_);}
	.st35{fill:url(#SVGID_34_);}
	.st36{fill:url(#SVGID_35_);}
	.st37{fill:url(#SVGID_36_);}
	.st38{fill:url(#SVGID_37_);}
	.st39{fill:url(#SVGID_38_);}
	.st40{fill:url(#SVGID_39_);}
	.st41{fill:url(#SVGID_40_);}
	.st42{fill:url(#SVGID_41_);}
	.st43{fill:url(#SVGID_42_);}
	.st44{fill:url(#SVGID_43_);}
	.st45{fill:url(#SVGID_44_);}
	.st46{fill:url(#SVGID_45_);}
	.st47{fill:url(#SVGID_46_);}
	.st48{fill:url(#SVGID_47_);}
	.st49{fill:url(#SVGID_48_);}
	.st50{fill:url(#SVGID_49_);}
	.st51{fill:url(#SVGID_50_);}
	.st52{fill:url(#SVGID_51_);}
	.st53{fill:url(#SVGID_52_);}
	.st54{fill:url(#SVGID_53_);}
	.st55{fill:url(#SVGID_54_);}
	.st56{fill:url(#SVGID_55_);}
	.st57{fill:url(#SVGID_56_);}
	.st58{fill:url(#SVGID_57_);}
	.st59{fill:url(#SVGID_58_);}
	.st60{fill:url(#SVGID_59_);}
	.st61{fill:url(#SVGID_60_);}
	.st62{fill:url(#SVGID_61_);}
	.st63{fill:url(#SVGID_62_);}
	.st64{fill:url(#SVGID_63_);}
	.st65{fill:url(#SVGID_64_);}
	.st66{fill:url(#SVGID_65_);}
	.st67{fill:url(#SVGID_66_);}
	.st68{fill:url(#SVGID_67_);}
	.st69{fill:url(#SVGID_68_);}
	.st70{fill:none;}
	.st71{fill:url(#SVGID_69_);}
	.st72{fill:url(#SVGID_70_);}
	.st73{fill:url(#SVGID_71_);}
</style>
<linearGradient id="SVGID_1_" gradientUnits="userSpaceOnUse" x1="245.1864" y1="631.3312" x2="733.9813" y2="631.3312">
	<stop  offset="0" style="stop-color:#15818E"/>
	<stop  offset="0.9944" style="stop-color:#7ECAB6"/>
</linearGradient>
<path class="st0" d="M245.19,630.64c1.71-7.52,2.86-15.22,5.22-22.54c12.22-37.97,38.44-62.88,74.88-77
	c14.09-5.46,29.14-9.14,44.08-11.57c40.82-6.65,72.54-25.51,91.66-63.37c8.96-17.73,21.22-33.17,35.06-47.42
	c17.55-18.06,38.43-24.87,63.36-21.07c26.8,4.08,50.99,13.88,73.13,30.44c-1.51,1.74-2.73,3.32-4.12,4.71
	c-30.73,30.75-61.42,61.55-92.36,92.1c-2.52,2.49-6.64,4.36-10.19,4.68c-36.72,3.3-64.81,30.76-66.6,65.59
	c-1.91,37.12,21.8,67.46,58.14,74.4c40.43,7.72,79.48-21.43,83.17-62.4c0.52-5.8,2.54-9.95,6.63-14
	c30.07-29.75,59.94-59.71,89.82-89.65c1.65-1.65,2.88-3.73,5.12-6.67c21.02,32.99,37.82,65.21,29.7,104.54
	c-2.38,11.55-8.22,21.36-16.5,29.77c-15.28,15.51-31.99,29.44-51.63,38.74c-30.92,14.65-48.26,39.19-56.26,71.47
	c-4.28,17.29-7.4,34.96-12.99,51.83c-10,30.21-25.61,56.96-53.42,74.68c-14.26,9.09-29.76,14.84-46.59,16.9
	c-1.35,0.17-2.65,0.79-3.98,1.2c-7.52,0-15.04,0-22.56,0c-25.45-4.69-48.67-15.12-70.86-27.98
	c-47.33-27.44-83.01-67.17-115.11-110.44c-14.34-19.33-25.37-40.6-31.67-64.03c-2.05-7.63-3.45-15.44-5.15-23.17
	C245.19,643.8,245.19,637.22,245.19,630.64z M368.37,655.5c-3.44,2.97-8.06,5.08-8.97,8.25c-1.01,3.51,0,9.33,2.47,11.86
	c27.35,28.07,55.1,55.75,82.88,83.4c5.32,5.29,11.65,5.14,16.24,0.4c4.38-4.52,4.05-10.84-1.27-16.19
	c-27.13-27.3-54.3-54.56-81.61-81.69C375.79,659.21,372.42,657.95,368.37,655.5z"/>
<path class="st1" d="M892.34,334.21c-6.23,7.89-6.63,7.83-20.26-3.36c-5.02,5.35-10.06,10.73-15.34,16.35
	c1.9,5.26,14.23,8.79,5.92,17.05c-7.97,7.92-11.49-3.67-17.95-6.51c-9.64,14.81-24.92,7.26-38.19,8.71
	c-1.6,0.18-3.74-1.63-5.14-3.01c-13.84-13.71-27.58-27.53-41.34-41.32c-0.83-0.83-2.27-1.66-2.32-2.55
	c-0.41-6.75-0.54-13.52-0.78-20.28c-0.24-6.8-0.92-13.72,6.12-18.09c0.95-0.59,1.6-1.68,2.46-2.61c-2.01-6.28-14.9-10.15-5.8-18.4
	c7.66-6.94,11.14,4.02,17.03,6.7c5.05-5.21,10.18-10.51,15.32-15.82c-10.26-13.47-10.26-13.47-4.08-19.8c1.88,0,3.76,0,5.64,0
	c3.34,3.03,6.68,6.07,10.45,9.49c2.96-3.57,5.42-6.53,7.88-9.49c10.81,0,21.62,0,32.43,0c15.98,15.98,31.96,31.96,47.94,47.94
	c0,10.34,0,20.68,0,31.02c-3.15,2.98-6.3,5.97-9.67,9.16c3.51,3.84,6.59,7.21,9.67,10.59C892.34,331.39,892.34,332.8,892.34,334.21z
	"/>
<path class="st21" d="M892.34,279.21c-15.98-15.98-31.96-31.96-47.94-47.94c15.98,0,31.96,0,47.94,0
	C892.34,247.25,892.34,263.23,892.34,279.21z"/>
<path class="st21" d="M892.34,329.98c-3.08-3.37-6.16-6.74-9.67-10.59c3.37-3.19,6.52-6.17,9.67-9.16
	C892.34,316.81,892.34,323.39,892.34,329.98z"/>
<path class="st21" d="M811.96,231.27c-2.46,2.96-4.92,5.92-7.88,9.49c-3.77-3.42-7.11-6.45-10.45-9.49
	C799.74,231.27,805.85,231.27,811.96,231.27z"/>
<path class="st1" d="M746.76,341.02c11.57,11.48,24.04,23.87,35.65,35.4c-87.06,87.4-174.29,174.97-261.75,262.76
	c-7.59-16.63-19.73-29.14-36.27-36.55C571.92,515.36,659.28,428.25,746.76,341.02z"/>
<path class="st1" d="M504.59,667.29c-0.03,26.61-21.58,48.18-48.37,48.41c-26.82,0.23-48.96-21.89-48.77-48.73
	c0.18-26.59,21.99-48.07,48.72-48C482.82,619.05,504.62,640.81,504.59,667.29z"/>
</svg>
