<?xml version="1.0" encoding="utf-8"?>
<!-- Generator: Adobe Illustrator 24.0.0, SVG Export Plug-In . SVG Version: 6.00 Build 0)  -->
<svg version="1.1" id="Layer_1" xmlns="http://www.w3.org/2000/svg" xmlns:xlink="http://www.w3.org/1999/xlink" x="0px" y="0px"
	 viewBox="0 0 1080 1080" style="enable-background:new 0 0 1080 1080;" xml:space="preserve">
<style type="text/css">
	.st0{fill:url(#SVGID_1_);}
	.st1{fill:#EA372F;}
	.st2{fill:url(#SVGID_2_);}
	.st3{fill:url(#SVGID_3_);}
	.st4{fill:url(#SVGID_4_);}
	.st5{fill:url(#SVGID_5_);}
	.st6{fill:url(#SVGID_6_);}
	.st7{fill:url(#SVGID_7_);}
	.st8{fill:url(#SVGID_8_);}
	.st9{fill:url(#SVGID_9_);}
	.st10{fill:url(#SVGID_10_);}
	.st11{fill:url(#SVGID_11_);}
	.st12{fill:url(#SVGID_12_);}
	.st13{fill:url(#SVGID_13_);}
	.st14{fill:url(#SVGID_14_);}
	.st15{fill:url(#SVGID_15_);}
	.st16{fill:url(#SVGID_16_);}
	.st17{fill:url(#SVGID_17_);}
	.st18{fill:url(#SVGID_18_);}
	.st19{fill:url(#SVGID_19_);}
	.st20{fill:url(#SVGID_20_);}
	.st21{fill:#FFFFFF;}
	.st22{fill:url(#SVGID_21_);}
	.st23{fill:url(#SVGID_22_);}
	.st24{fill:url(#SVGID_23_);}
	.st25{fill:url(#SVGID_24_);}
	.st26{fill:url(#SVGID_25_);}
	.st27{fill:url(#SVGID_26_);}
	.st28{fill:url(#SVGID_27_);}
	.st29{fill:url(#SVGID_28_);}
	.st30{fill:url(#SVGID_29_);}
	.st31{fill:url(#SVGID_30_);}
	.st32{fill:url(#SVGID_31_);}
	.st33{fill:url(#SVGID_32_);}
	.st34{fill:url(#SVGID_33_);}
	.st35{fill:url(#SVGID_34_);}
	.st36{fill:url(#SVGID_35_);}
	.st37{fill:url(#SVGID_36_);}
	.st38{fill:url(#SVGID_37_);}
	.st39{fill:url(#SVGID_38_);}
	.st40{fill:url(#SVGID_39_);}
	.st41{fill:url(#SVGID_40_);}
	.st42{fill:url(#SVGID_41_);}
	.st43{fill:url(#SVGID_42_);}
	.st44{fill:url(#SVGID_43_);}
	.st45{fill:url(#SVGID_44_);}
	.st46{fill:url(#SVGID_45_);}
	.st47{fill:url(#SVGID_46_);}
	.st48{fill:url(#SVGID_47_);}
	.st49{fill:url(#SVGID_48_);}
	.st50{fill:url(#SVGID_49_);}
	.st51{fill:url(#SVGID_50_);}
	.st52{fill:url(#SVGID_51_);}
	.st53{fill:url(#SVGID_52_);}
	.st54{fill:url(#SVGID_53_);}
	.st55{fill:url(#SVGID_54_);}
	.st56{fill:url(#SVGID_55_);}
	.st57{fill:url(#SVGID_56_);}
	.st58{fill:url(#SVGID_57_);}
	.st59{fill:url(#SVGID_58_);}
	.st60{fill:url(#SVGID_59_);}
	.st61{fill:url(#SVGID_60_);}
	.st62{fill:url(#SVGID_61_);}
	.st63{fill:url(#SVGID_62_);}
	.st64{fill:url(#SVGID_63_);}
	.st65{fill:url(#SVGID_64_);}
	.st66{fill:url(#SVGID_65_);}
	.st67{fill:url(#SVGID_66_);}
	.st68{fill:url(#SVGID_67_);}
	.st69{fill:url(#SVGID_68_);}
	.st70{fill:none;}
	.st71{fill:url(#SVGID_69_);}
	.st72{fill:url(#SVGID_70_);}
	.st73{fill:url(#SVGID_71_);}
</style>
<path class="st1" d="M681.63,269.9c8.2,1.74,16.55,2.94,24.56,5.31c55.69,16.5,92.79,69.53,89.23,127.13
	c-3.6,58.24-46.02,106.06-103.18,116.11c-15.13,2.66-30.59,3.87-45.49,7.43c-23.42,5.61-43.7,17.62-61.17,34.23
	c-10.76,10.23-17.83,10.19-28.36-0.34c-18-18-36-35.98-53.98-54c-9.51-9.53-9.48-17.17,0.07-26.8
	c25.54-25.77,39.22-56.94,41.78-92.97c4.25-59.61,50.75-108.25,110.37-115.18c1.22-0.14,2.39-0.61,3.59-0.92
	C666.58,269.9,674.1,269.9,681.63,269.9z"/>
<linearGradient id="SVGID_1_" gradientUnits="userSpaceOnUse" x1="245.0187" y1="656.6912" x2="573.097" y2="656.6912">
	<stop  offset="0" style="stop-color:#15818E"/>
	<stop  offset="0.9944" style="stop-color:#7ECAB6"/>
</linearGradient>
<path class="st0" d="M245.02,631.23c2.16-11.57,3.48-23.38,6.62-34.68c12.25-44.18,38.31-78.31,76.88-102.96
	c0.6-0.38,1.23-0.74,1.87-1.05c0.31-0.15,0.69-0.17,0.68-0.17c9.57,18.04,19.1,36,28.84,54.34c-30.57,23.7-47.11,55.06-46.45,94.52
	c0.53,31.61,12.76,58.42,35.63,80.23c47.43,45.23,128.36,41.15,169.71-15.89c17.99,9.55,35.95,19.09,54.29,28.82
	c-6.44,11.38-14.41,22.14-23.94,31.56c-50.81,50.23-111.44,67.19-179.49,46.25c-66.95-20.6-107.26-67.91-121.63-136.75
	c-1.27-6.09-2.02-12.28-3.02-18.42C245.02,648.44,245.02,639.84,245.02,631.23z"/>
<linearGradient id="SVGID_2_" gradientUnits="userSpaceOnUse" x1="345.9716" y1="537.3834" x2="710.1476" y2="537.3834">
	<stop  offset="0" style="stop-color:#15818E"/>
	<stop  offset="0.9944" style="stop-color:#7ECAB6"/>
</linearGradient>
<path class="st2" d="M710.15,653.63c-0.37,25.78-6.97,45.27-27.63,57.38c-14.01,8.21-29.47,9.53-45.26,7.86
	c-30.7-3.26-58.47-15.12-84.74-30.46c-78.89-46.09-140.54-109.04-183.27-190.02c-11.5-21.79-20.04-44.78-22.61-69.53
	c-1.94-18.64-0.18-36.7,11.85-52.06c13.77-17.58,33.05-22.38,54.19-21.41c26.45,1.21,50.64,10.5,74.07,22.01
	c7.54,3.7,14.74,8.1,22.27,11.85c3.57,1.78,4.21,4.08,3.49,7.74c-4.62,23.48-14.81,43.98-32.07,60.75
	c-9.39,9.13-14.87,19.99-15.22,33.27c-0.33,12.61,3.44,23.85,12.22,32.82c20.56,20.99,41.11,42.01,62.35,62.31
	c18.71,17.88,45.97,17.13,64.83-1.19c17.37-16.87,37.85-27.28,61.5-31.92c5.16-1.01,8.21-0.12,11.02,4.99
	c13.44,24.4,25.44,49.32,30.64,76.94C709.14,642.14,709.64,649.49,710.15,653.63z"/>
</svg>
