<?xml version="1.0" encoding="utf-8"?>
<!-- Generator: Adobe Illustrator 24.0.0, SVG Export Plug-In . SVG Version: 6.00 Build 0)  -->
<svg version="1.1" id="Layer_1" xmlns="http://www.w3.org/2000/svg" xmlns:xlink="http://www.w3.org/1999/xlink" x="0px" y="0px"
	 viewBox="0 0 1080 1080" style="enable-background:new 0 0 1080 1080;" xml:space="preserve">
<style type="text/css">
	.st0{fill:#EB382E;}
	.st1{fill:url(#SVGID_1_);}
	.st2{fill:url(#SVGID_2_);}
	.st3{fill:url(#SVGID_3_);}
	.st4{fill:url(#SVGID_4_);}
	.st5{fill:url(#SVGID_5_);}
	.st6{fill:url(#SVGID_6_);}
	.st7{fill:url(#SVGID_7_);}
	.st8{fill:url(#SVGID_8_);}
	.st9{fill:url(#SVGID_9_);}
	.st10{fill:url(#SVGID_10_);}
	.st11{fill:url(#SVGID_11_);}
	.st12{fill:url(#SVGID_12_);}
	.st13{fill:url(#SVGID_13_);}
	.st14{fill:url(#SVGID_14_);}
	.st15{fill:url(#SVGID_15_);}
	.st16{fill:url(#SVGID_16_);}
	.st17{fill:url(#SVGID_17_);}
	.st18{fill:url(#SVGID_18_);}
	.st19{fill:url(#SVGID_19_);}
	.st20{fill:url(#SVGID_20_);}
	.st21{fill:url(#SVGID_21_);}
	.st22{fill:url(#SVGID_22_);}
	.st23{fill:url(#SVGID_23_);}
	.st24{fill:url(#SVGID_24_);}
	.st25{fill:url(#SVGID_25_);}
	.st26{fill:url(#SVGID_26_);}
	.st27{fill:url(#SVGID_27_);}
	.st28{fill:url(#SVGID_28_);}
	.st29{fill:url(#SVGID_29_);}
	.st30{fill:url(#SVGID_30_);}
	.st31{fill:url(#SVGID_31_);}
	.st32{fill:url(#SVGID_32_);}
	.st33{fill:url(#SVGID_33_);}
	.st34{fill:url(#SVGID_34_);}
	.st35{fill:url(#SVGID_35_);}
	.st36{fill:url(#SVGID_36_);}
	.st37{fill:#FFFFFF;}
	.st38{stroke:#000000;stroke-width:6;stroke-miterlimit:10;}
	.st39{fill:url(#SVGID_37_);}
	.st40{fill:url(#SVGID_38_);}
	.st41{fill:url(#SVGID_39_);}
</style>
<path class="st0" d="M545.58,296.91c3.66,1.11,7.38,2.06,10.97,3.37c24.02,8.73,38.65,33.97,34.11,58.71
	c-4.74,25.85-26.89,44.46-52.68,44.25c-25.62-0.21-47.85-19.14-52.07-44.35c-4.54-27.09,12.35-53.07,39.02-60.06
	c2.1-0.55,4.15-1.28,6.23-1.92C535.96,296.91,540.77,296.91,545.58,296.91z"/>
<linearGradient id="SVGID_1_" gradientUnits="userSpaceOnUse" x1="263.8418" y1="655.173" x2="494.1734" y2="655.173">
	<stop  offset="0" style="stop-color:#7ECAB6"/>
	<stop  offset="1" style="stop-color:#15818E"/>
</linearGradient>
<path class="st1" d="M394.34,724.82c-7.06-25.01-14.11-50.03-21.17-75.04c-2.26-7.99-4.73-15.93-6.73-23.99
	c-6.27-25.19,16.22-47.44,40.95-40.36c2.71,0.78,5.9,3.47,6.91,6.04c22.07,56.16,44.09,112.35,65.48,168.78
	c3.2,8.44,3.36,18.07,4.64,27.19c3.26,23.23,6.33,46.48,9.52,69.72c0.83,6.07-0.44,7.69-6.64,7.69c-43.82,0.02-87.63,0.02-131.45,0
	c-6.23,0-7.38-1.14-7.43-7.48c-0.12-14.97-0.05-29.95-0.34-44.92c-0.06-2.99-0.82-6.24-2.2-8.89c-18.49-35.55-36.52-71.35-56-106.35
	c-10.49-18.84-15.12-38.32-16.19-59.6c-2.62-51.87-6.19-103.68-9.66-155.5c-0.83-12.48,0.66-23.68,11.64-31.56
	c15.59-11.19,37.88-3.04,41.3,15.84c2.82,15.6,3.89,31.52,5.63,47.3c4.31,39.12,8.54,78.24,12.86,117.35
	c0.67,6.05,1.07,12.23,2.7,18.04c1.57,5.6,3.62,11.54,7.11,16.05c15.69,20.3,31.97,40.14,48.04,60.15
	C393.66,725.14,394,724.98,394.34,724.82z"/>
<linearGradient id="SVGID_2_" gradientUnits="userSpaceOnUse" x1="585.8611" y1="655.1821" x2="816.1582" y2="655.1821">
	<stop  offset="0" style="stop-color:#7ECAB6"/>
	<stop  offset="1" style="stop-color:#15818E"/>
</linearGradient>
<path class="st2" d="M685.34,726.81c12.39-15.27,23.79-29.32,35.18-43.36c1.05-1.29,1.98-2.7,3.15-3.87
	c14.5-14.49,19.81-32.33,21.7-52.43c4.91-52.23,10.97-104.35,16.67-156.51c1.71-15.69,13.98-26.12,29.08-25.07
	c14.14,0.98,25.69,13.72,24.99,28.87c-1.22,26.4-3.09,52.76-4.74,79.14c-2.03,32.46-4.29,64.91-6.09,97.39
	c-0.68,12.23-3.54,23.61-9.25,34.44c-20.68,39.19-41.27,78.42-61.73,117.72c-1.46,2.8-2.24,6.24-2.31,9.41
	c-0.31,14.97-0.23,29.95-0.37,44.92c-0.06,6.29-1.21,7.41-7.5,7.42c-43.63,0.02-87.25,0.02-130.88,0c-6.94,0-8.04-1.44-7.1-8.25
	c3.92-28.54,7.55-57.13,11.82-85.62c1.08-7.19,3.73-14.23,6.36-21.07c20.2-52.53,40.62-104.98,60.79-157.52
	c1.66-4.34,4.15-6.44,8.53-7.48c24.78-5.87,46.5,16.39,39.73,41.37c-8.5,31.34-17.58,62.53-26.4,93.79
	C686.51,721.79,686.14,723.53,685.34,726.81z"/>
<path class="st0" d="M483.85,473.92c-8.11,0.8-14.5,4.16-18.81,9.69c-6.3,8.09-11.63,16.96-17.01,25.73
	c-2.79,4.54-4.51,9.73-7.22,14.32c-5.18,8.77-15.83,12.02-25.11,8.06c-9.02-3.85-14.71-14.45-11.39-23.81
	c16.51-46.53,45.81-80.01,95.74-91.77c3.39-0.8,6.94-1.19,10.43-1.21c18.66-0.12,37.34-0.52,55.99,0.05
	c30.99,0.95,55.68,15.63,76.67,37.27c14.63,15.07,24.63,33.12,31.75,52.78c4.06,11.21-0.75,22.68-10.92,26.85
	c-10.23,4.19-20.95-0.2-26.41-10.81c-4.31-8.36-7.9-17.23-13.18-24.92c-4.7-6.85-10.99-12.74-17.21-18.36
	c-2.62-2.36-6.85-2.94-11.21-4.67c0.46,6.9,0.84,12.55,1.25,18.66c-38.17,0-76.26,0-114.71,0
	C482.94,486.01,483.36,480.37,483.85,473.92z"/>
<path class="st0" d="M538.04,568.45c-5.75,9.49-11.14,18.07-16.17,26.86c-2.18,3.81-4.83,4.95-9.08,4.19
	c-19.08-3.39-38.18-6.63-57.3-9.79c-4.7-0.78-6.82-2.93-6.09-7.88c3.02-20.38,8.98-39.55,22.16-55.92c1.06-1.32,1.62-3.25,1.88-4.98
	c0.7-4.75,1.1-9.54,1.63-14.31c0.41-3.71,2.33-5.53,6.21-5.53c38.25,0.05,76.49,0.04,114.74,0.01c3.74,0,6.1,1.43,6.27,5.36
	c0.51,11.38,5.08,20.92,11.4,30.38c9.04,13.54,12.73,29.32,14.96,45.37c0.6,4.3-1.14,6.66-5.41,7.38
	c-19.65,3.3-39.31,6.6-58.94,10.02c-3.74,0.65-5.82-1.04-7.73-3.9C550.63,586.8,544.55,578,538.04,568.45z"/>
<path class="st0" d="M575.88,606.47c14.64-2.46,30.08-5.05,46.58-7.82c-0.57,4.89-0.87,9.38-1.65,13.78
	c-2.52,14.1-7.2,27.46-14.21,39.97c-6.14,10.97-17.65,14.76-28.28,9.34c-10.39-5.29-13.38-16.36-9.1-27.95
	C572.37,625.26,573.62,616.04,575.88,606.47z"/>
<path class="st0" d="M458.12,599.11c15.87,2.67,30.79,5.11,45.65,7.85c1.15,0.21,2.43,2.42,2.78,3.91c2.12,8.92,3.64,18,6.02,26.85
	c2.7,10-1.54,20.11-11.01,24.49c-9.79,4.53-21.16,1.06-26.88-8.65c-8.34-14.16-13.49-29.48-15.66-45.78
	C458.68,605.26,458.49,602.73,458.12,599.11z"/>
</svg>
