<?xml version="1.0" encoding="utf-8"?>
<!-- Generator: Adobe Illustrator 24.0.0, SVG Export Plug-In . SVG Version: 6.00 Build 0)  -->
<svg version="1.1" id="Layer_1" xmlns="http://www.w3.org/2000/svg" xmlns:xlink="http://www.w3.org/1999/xlink" x="0px" y="0px"
	 viewBox="0 0 1080 1080" style="enable-background:new 0 0 1080 1080;" xml:space="preserve">
<style type="text/css">
	.st0{fill:url(#SVGID_1_);}
	.st1{fill:#EA372F;}
	.st2{fill:url(#SVGID_2_);}
	.st3{fill:url(#SVGID_3_);}
	.st4{fill:url(#SVGID_4_);}
	.st5{fill:url(#SVGID_5_);}
	.st6{fill:url(#SVGID_6_);}
	.st7{fill:url(#SVGID_7_);}
	.st8{fill:url(#SVGID_8_);}
	.st9{fill:url(#SVGID_9_);}
	.st10{fill:url(#SVGID_10_);}
	.st11{fill:url(#SVGID_11_);}
	.st12{fill:url(#SVGID_12_);}
	.st13{fill:url(#SVGID_13_);}
	.st14{fill:url(#SVGID_14_);}
	.st15{fill:url(#SVGID_15_);}
	.st16{fill:url(#SVGID_16_);}
	.st17{fill:url(#SVGID_17_);}
	.st18{fill:url(#SVGID_18_);}
	.st19{fill:url(#SVGID_19_);}
	.st20{fill:url(#SVGID_20_);}
	.st21{fill:#FFFFFF;}
	.st22{fill:url(#SVGID_21_);}
	.st23{fill:url(#SVGID_22_);}
	.st24{fill:url(#SVGID_23_);}
	.st25{fill:url(#SVGID_24_);}
	.st26{fill:url(#SVGID_25_);}
	.st27{fill:url(#SVGID_26_);}
	.st28{fill:url(#SVGID_27_);}
	.st29{fill:url(#SVGID_28_);}
	.st30{fill:url(#SVGID_29_);}
	.st31{fill:url(#SVGID_30_);}
	.st32{fill:url(#SVGID_31_);}
	.st33{fill:url(#SVGID_32_);}
	.st34{fill:url(#SVGID_33_);}
	.st35{fill:url(#SVGID_34_);}
	.st36{fill:url(#SVGID_35_);}
	.st37{fill:url(#SVGID_36_);}
	.st38{fill:url(#SVGID_37_);}
	.st39{fill:url(#SVGID_38_);}
	.st40{fill:url(#SVGID_39_);}
	.st41{fill:url(#SVGID_40_);}
	.st42{fill:url(#SVGID_41_);}
	.st43{fill:url(#SVGID_42_);}
	.st44{fill:url(#SVGID_43_);}
	.st45{fill:url(#SVGID_44_);}
	.st46{fill:url(#SVGID_45_);}
	.st47{fill:url(#SVGID_46_);}
	.st48{fill:url(#SVGID_47_);}
	.st49{fill:url(#SVGID_48_);}
	.st50{fill:url(#SVGID_49_);}
	.st51{fill:url(#SVGID_50_);}
	.st52{fill:url(#SVGID_51_);}
	.st53{fill:url(#SVGID_52_);}
	.st54{fill:url(#SVGID_53_);}
	.st55{fill:url(#SVGID_54_);}
	.st56{fill:url(#SVGID_55_);}
	.st57{fill:url(#SVGID_56_);}
	.st58{fill:url(#SVGID_57_);}
	.st59{fill:url(#SVGID_58_);}
	.st60{fill:url(#SVGID_59_);}
	.st61{fill:url(#SVGID_60_);}
	.st62{fill:url(#SVGID_61_);}
	.st63{fill:url(#SVGID_62_);}
	.st64{fill:url(#SVGID_63_);}
	.st65{fill:url(#SVGID_64_);}
	.st66{fill:url(#SVGID_65_);}
	.st67{fill:url(#SVGID_66_);}
	.st68{fill:url(#SVGID_67_);}
	.st69{fill:url(#SVGID_68_);}
	.st70{fill:none;}
	.st71{fill:url(#SVGID_69_);}
	.st72{fill:url(#SVGID_70_);}
	.st73{fill:url(#SVGID_71_);}
</style>
<linearGradient id="SVGID_1_" gradientUnits="userSpaceOnUse" x1="371.1781" y1="667.3587" x2="896.4378" y2="667.3587">
	<stop  offset="0" style="stop-color:#15818E"/>
	<stop  offset="0.9944" style="stop-color:#7ECAB6"/>
</linearGradient>
<path class="st0" d="M371.79,759.82c-0.14-1.71-0.5-4.06-0.5-6.41c-0.03-39.52,0.05-79.03-0.11-118.55
	c-0.02-5.29,0.76-8.76,7.07-8.72c44.05,0.3,83.78-14.99,122.48-34.02c5.4-2.66,11.08-4.72,16.56-7.22
	c20.71-9.46,42.02-12.18,64.33-6.54c27.42,6.93,55,13.19,82.35,20.37c6.55,1.72,12.8,5.38,18.58,9.09
	c11.44,7.33,13.3,20.1,4.19,30.13c-7.67,8.44-17.36,12.87-29.22,10.59c-26.03-5.01-51.9-11.93-78.18-14.25
	c-16.56-1.46-33.84,3.45-50.51,6.86c-2.75,0.56-6.01,8.39-5.44,12.34c0.48,3.32,5.88,6.45,9.71,8.57c1.98,1.09,5.43,0.29,7.95-0.51
	c22.11-7.04,43.92-3.92,65.89,1.02c15.57,3.5,31.42,5.76,47.05,8.99c12.16,2.51,23.46,0.32,34.05-5.53
	c55.38-30.57,110.76-61.13,165.91-92.12c8.01-4.5,15.76-7.22,24.83-5.98c17.11,2.35,22.82,13.47,12.52,27.23
	c-7.11,9.5-15.73,18.73-25.58,25.16c-49.73,32.44-99.68,64.57-150.37,95.47c-26.95,16.43-55.14,30.99-83.61,44.63
	c-10.37,4.97-23.29,7.16-34.86,6.6c-49.09-2.37-98.06-7.07-147.15-9.24C424.24,756.64,398.61,759,371.79,759.82z"/>
<path class="st1" d="M373.89,197.59c8.93,21.93,19.83,40.22,45.26,41.4c18.48,0.86,30.59-10.34,46.31-41.34
	c7.91,2.91,16.08,5.65,23.98,9.04c1.48,0.63,2.77,3.86,2.64,5.79c-5,73.07-10.18,146.12-15.36,219.17
	c-0.04,0.54-0.44,1.05-0.92,2.15c-37.32,0-74.86,0-113.54,0c-0.93-11.75-1.94-23.34-2.75-34.95
	c-4.29-61.64-8.49-123.28-12.87-184.91c-0.33-4.69,0.83-7.14,5.53-8.55C359.31,203.25,366.23,200.38,373.89,197.59z"/>
<linearGradient id="SVGID_2_" gradientUnits="userSpaceOnUse" x1="249.6635" y1="700.3766" x2="347.8421" y2="700.3766">
	<stop  offset="0" style="stop-color:#15818E"/>
	<stop  offset="0.9944" style="stop-color:#7ECAB6"/>
</linearGradient>
<path class="st2" d="M249.68,700.83c0-27.76-0.04-55.53,0.02-83.29c0.02-12.68,4.04-16.68,16.89-16.73
	c21.43-0.08,42.86-0.07,64.29,0c13.04,0.04,16.93,3.8,16.94,16.54c0.05,55.53,0.05,111.05,0,166.58
	c-0.01,12.58-3.52,15.98-16.28,16.02c-22.03,0.07-44.07,0.08-66.1-0.01c-11.69-0.05-15.69-4.09-15.72-15.82
	C249.63,756.35,249.68,728.59,249.68,700.83z"/>
<path class="st1" d="M878.61,291.36c12.33,12.33,24.2,24.2,37.02,37.03c-46.92,74.57-94.65,150.43-142.8,226.95
	c-17.15-11.23-33.65-22.04-50.62-33.14c2.13-3.87,3.8-7.01,5.56-10.09c29.07-50.69,58.02-101.44,87.36-151.97
	c4.47-7.69,10.16-14.9,16.32-21.34C847.06,322.47,863.26,306.72,878.61,291.36z"/>
<path class="st1" d="M827.1,239.86c12.71,12.69,24.58,24.54,37.31,37.26c-26.17,22.08-46.22,51.66-77.99,69.24
	c-48.5,26.83-96.07,55.36-145.11,83.79c-10.97-16.68-21.82-33.17-33.36-50.71C681.51,332.58,754.62,286.02,827.1,239.86z"/>
<path class="st1" d="M928.37,310.17c-26.17-26.08-53.03-52.85-80.4-80.13c7.4-6.36,15.05-12.93,21.92-18.83
	c25.4,25.43,52.36,52.41,79.03,79.12C942.99,296.06,935.74,303.05,928.37,310.17z"/>
<linearGradient id="SVGID_3_" gradientUnits="userSpaceOnUse" x1="405.6935" y1="523.5168" x2="508.6983" y2="523.5168">
	<stop  offset="0" style="stop-color:#15818E"/>
	<stop  offset="0.9944" style="stop-color:#7ECAB6"/>
</linearGradient>
<path class="st3" d="M485.02,571.43c0-15.23,0.03-28.75-0.01-42.28c-0.03-11-1.08-12.06-11.77-12.11
	c-12.66-0.05-25.33,0.21-37.98-0.12c-14.96-0.39-26.46-10.4-29.2-24.79c-1.56-8.21,1.95-15.19,8.87-16.29
	c7.92-1.26,12.69,2.7,13.98,10.51c0.93,5.64,4.34,7.3,9.56,7.25c12.96-0.12,25.92-0.16,38.88,0c18.16,0.21,30.66,12.5,31.08,30.58
	c0.23,9.64-0.42,19.32,0.21,28.92c0.44,6.57-1.98,9.96-7.96,11.92C495.9,566.59,491.32,568.82,485.02,571.43z"/>
<linearGradient id="SVGID_4_" gradientUnits="userSpaceOnUse" x1="608.0947" y1="519.3199" x2="710.7132" y2="519.3199">
	<stop  offset="0" style="stop-color:#15818E"/>
	<stop  offset="0.9944" style="stop-color:#7ECAB6"/>
</linearGradient>
<path class="st4" d="M631.57,563.1c-8.56-1.79-15.56-3.26-23.14-4.85c0-13.42-0.91-26.71,0.25-39.82c1.25-14.16,14.13-24.49,29-24.8
	c12.97-0.27,25.95-0.26,38.92,0.01c6.37,0.13,10.18-1.66,11.31-8.6c1.15-7.05,6.28-10.5,13.16-9.24c7.38,1.36,10.23,6.86,9.55,14.14
	c-1.39,14.94-13.58,26.5-29.12,26.96c-13.26,0.39-26.55,0.33-39.82,0.05c-7.38-0.16-10.39,2.79-10.19,10.17
	C631.8,538.52,631.57,549.95,631.57,563.1z"/>
<linearGradient id="SVGID_5_" gradientUnits="userSpaceOnUse" x1="550.1204" y1="483.8574" x2="573.5874" y2="483.8574">
	<stop  offset="0" style="stop-color:#15818E"/>
	<stop  offset="0.9944" style="stop-color:#7ECAB6"/>
</linearGradient>
<path class="st5" d="M573.2,549.46c-7.91,0-14.79,0-22.48,0c-0.2-2.74-0.56-5.33-0.56-7.92c-0.04-36.49-0.05-72.98-0.01-109.47
	c0.01-10.25,2.79-13.6,11.13-13.81c8.82-0.22,12.27,3.51,12.29,13.75c0.05,36.79,0.03,73.58,0.01,110.37
	C573.56,544.45,573.35,546.51,573.2,549.46z"/>
<path class="st1" d="M512.19,219.35c16.22,17.96,32.44,35.91,47.81,52.94c-12.37,12.62-24.26,24.76-36.64,37.39
	c-4.28-2.99-9.81-6.59-14.98-10.64c-1.64-1.28-3.37-3.85-3.27-5.73c1.38-24.23,3.08-48.45,4.7-72.66
	C510.6,220.21,511.39,219.78,512.19,219.35z"/>
<path class="st1" d="M328.57,217.16c1.07,13.29,1.98,23.63,2.72,33.98c0.85,12,1.14,24.06,2.47,36c0.81,7.23-1.19,11.96-7.65,15.34
	c-3.96,2.07-7.43,5.07-10.44,7.18c-12.17-12.32-24.09-24.39-36.79-37.24C294.03,255.58,310.34,237.44,328.57,217.16z"/>
</svg>
