<?xml version="1.0" encoding="utf-8"?>
<!-- Generator: Adobe Illustrator 24.0.0, SVG Export Plug-In . SVG Version: 6.00 Build 0)  -->
<svg version="1.1" id="Layer_1" xmlns="http://www.w3.org/2000/svg" xmlns:xlink="http://www.w3.org/1999/xlink" x="0px" y="0px"
	 viewBox="0 0 1080 1080" style="enable-background:new 0 0 1080 1080;" xml:space="preserve">
<style type="text/css">
	.st0{fill:url(#SVGID_1_);}
	.st1{fill:#EA372F;}
	.st2{fill:url(#SVGID_2_);}
	.st3{fill:url(#SVGID_3_);}
	.st4{fill:url(#SVGID_4_);}
	.st5{fill:url(#SVGID_5_);}
	.st6{fill:url(#SVGID_6_);}
	.st7{fill:url(#SVGID_7_);}
	.st8{fill:url(#SVGID_8_);}
	.st9{fill:url(#SVGID_9_);}
	.st10{fill:url(#SVGID_10_);}
	.st11{fill:url(#SVGID_11_);}
	.st12{fill:url(#SVGID_12_);}
	.st13{fill:url(#SVGID_13_);}
	.st14{fill:url(#SVGID_14_);}
	.st15{fill:url(#SVGID_15_);}
	.st16{fill:url(#SVGID_16_);}
	.st17{fill:url(#SVGID_17_);}
	.st18{fill:url(#SVGID_18_);}
	.st19{fill:url(#SVGID_19_);}
	.st20{fill:url(#SVGID_20_);}
	.st21{fill:#FFFFFF;}
	.st22{fill:url(#SVGID_21_);}
	.st23{fill:url(#SVGID_22_);}
	.st24{fill:url(#SVGID_23_);}
	.st25{fill:url(#SVGID_24_);}
	.st26{fill:url(#SVGID_25_);}
	.st27{fill:url(#SVGID_26_);}
	.st28{fill:url(#SVGID_27_);}
	.st29{fill:url(#SVGID_28_);}
	.st30{fill:url(#SVGID_29_);}
	.st31{fill:url(#SVGID_30_);}
	.st32{fill:url(#SVGID_31_);}
	.st33{fill:url(#SVGID_32_);}
	.st34{fill:url(#SVGID_33_);}
	.st35{fill:url(#SVGID_34_);}
	.st36{fill:url(#SVGID_35_);}
	.st37{fill:url(#SVGID_36_);}
	.st38{fill:url(#SVGID_37_);}
	.st39{fill:url(#SVGID_38_);}
	.st40{fill:url(#SVGID_39_);}
	.st41{fill:url(#SVGID_40_);}
	.st42{fill:url(#SVGID_41_);}
	.st43{fill:url(#SVGID_42_);}
	.st44{fill:url(#SVGID_43_);}
	.st45{fill:url(#SVGID_44_);}
	.st46{fill:url(#SVGID_45_);}
	.st47{fill:url(#SVGID_46_);}
	.st48{fill:url(#SVGID_47_);}
	.st49{fill:url(#SVGID_48_);}
	.st50{fill:url(#SVGID_49_);}
	.st51{fill:url(#SVGID_50_);}
	.st52{fill:url(#SVGID_51_);}
	.st53{fill:url(#SVGID_52_);}
	.st54{fill:url(#SVGID_53_);}
	.st55{fill:url(#SVGID_54_);}
	.st56{fill:url(#SVGID_55_);}
	.st57{fill:url(#SVGID_56_);}
	.st58{fill:url(#SVGID_57_);}
	.st59{fill:url(#SVGID_58_);}
	.st60{fill:url(#SVGID_59_);}
	.st61{fill:url(#SVGID_60_);}
	.st62{fill:url(#SVGID_61_);}
	.st63{fill:url(#SVGID_62_);}
	.st64{fill:url(#SVGID_63_);}
	.st65{fill:url(#SVGID_64_);}
	.st66{fill:url(#SVGID_65_);}
	.st67{fill:url(#SVGID_66_);}
	.st68{fill:url(#SVGID_67_);}
	.st69{fill:url(#SVGID_68_);}
	.st70{fill:none;}
	.st71{fill:url(#SVGID_69_);}
	.st72{fill:url(#SVGID_70_);}
	.st73{fill:url(#SVGID_71_);}
</style>
<linearGradient id="SVGID_1_" gradientUnits="userSpaceOnUse" x1="536.551" y1="552.0339" x2="888.6263" y2="552.0339">
	<stop  offset="0" style="stop-color:#15818E"/>
	<stop  offset="0.9944" style="stop-color:#7ECAB6"/>
</linearGradient>
<path class="st0" d="M888.63,481.92c-2.15,4.86-3.63,10.18-6.6,14.48c-6.97,10.11-17.35,13.91-29.39,13.9
	c-43.27-0.04-86.53,0.12-129.8-0.07c-22.42-0.1-35.86-13.98-35.93-36.34c-0.02-5,0-9.99,0-13.91c-16.78,16.74-33.99,33.92-52.7,52.6
	c0.37,0.19,2.58,0.73,3.97,2.11c23.19,22.99,46.29,46.07,69.38,69.15c17.08,17.07,17.12,36.03,0.08,53.05
	c-37.41,37.37-74.8,74.75-112.28,112.04c-16.12,16.04-38.87,15.21-52.03-1.66c-9.07-11.62-9.04-28.7,0.16-40.26
	c1.96-2.46,4.15-4.75,6.37-6.98c28.34-28.33,56.7-56.64,85.1-84.91c1.43-1.43,3.3-2.42,4.97-3.61c0.18-0.82,0.35-1.64,0.53-2.45
	c-1.77-1.04-3.85-1.77-5.27-3.17c-23.18-23-46.28-46.08-69.37-69.16c-16.83-16.82-16.93-35.96-0.23-52.65
	c43.18-43.14,86.6-86.05,129.52-129.44c18.05-18.25,44.51-12.17,54.02,5.75c2.82,5.33,4.27,11.93,4.44,18.01
	c0.55,19.45,0.2,38.92,0.2,58.38c0,2,0,4.01,0,6.75c2.63,0,4.79,0,6.94,0c30.45,0,60.91,0.05,91.36-0.02
	c14.82-0.04,26.31,5.53,33.15,19.09c1.48,2.93,2.29,6.19,3.41,9.3C888.63,475.25,888.63,478.59,888.63,481.92z"/>
<path class="st1" d="M318,372.9c3.91-9.72,11.23-13.08,21.5-12.92c25.24,0.38,50.48,0.09,75.73,0.17c3.3,0.01,6.76,0.17,9.88,1.14
	c7.08,2.21,11.58,9.56,10.94,16.88c-0.68,7.67-6.47,13.99-14.16,14.87c-4.4,0.5-8.89,0.4-13.34,0.41
	c-23.02,0.03-46.04-0.26-69.04,0.14c-10.27,0.18-17.6-3.2-21.5-12.92C318,378.09,318,375.5,318,372.9z"/>
<linearGradient id="SVGID_2_" gradientUnits="userSpaceOnUse" x1="335.9418" y1="644.1086" x2="562.9881" y2="644.1086">
	<stop  offset="0" style="stop-color:#15818E"/>
	<stop  offset="0.9944" style="stop-color:#7ECAB6"/>
</linearGradient>
<path class="st2" d="M522.21,527.77c3.54,11.35,8.67,21.1,16.58,29.11c7.8,7.91,15.87,15.55,24.2,23.68c-1.63,1.81-2.75,3.18-4,4.43
	c-54.59,54.52-109.17,109.05-163.8,163.53c-16.43,16.39-39.11,15.81-52.43-1.18c-9.1-11.6-9.1-28.67,0.05-40.25
	c1.6-2.03,3.36-3.97,5.19-5.8c56.56-56.49,113.13-112.95,169.72-169.42C518.97,530.61,520.34,529.46,522.21,527.77z"/>
<linearGradient id="SVGID_3_" gradientUnits="userSpaceOnUse" x1="486.4091" y1="347.5283" x2="691.6925" y2="347.5283">
	<stop  offset="0" style="stop-color:#15818E"/>
	<stop  offset="0.9944" style="stop-color:#7ECAB6"/>
</linearGradient>
<path class="st3" d="M691.69,316.67c-21.29,11-34.03,30.53-51.62,45.26c-7.87-5.61-15.83-11.29-25.41-18.12
	c-1,1.65-1.77,3.72-3.18,5.14c-22.11,22.21-44.24,44.39-66.49,66.45c-14.33,14.21-33.94,15.12-47.9,2.48
	c-12.68-11.47-14.32-31.43-3.64-44.78c1.73-2.16,3.64-4.21,5.6-6.17c28.72-28.7,57.45-57.39,86.21-86.06
	c15.13-15.09,30.98-16.57,48.42-4.55c17.85,12.31,35.68,24.66,53.52,37C688.56,314.27,689.85,315.3,691.69,316.67z"/>
<linearGradient id="SVGID_4_" gradientUnits="userSpaceOnUse" x1="720.3696" y1="293.3596" x2="820.607" y2="293.3596">
	<stop  offset="0" style="stop-color:#15818E"/>
	<stop  offset="0.9944" style="stop-color:#7ECAB6"/>
</linearGradient>
<path class="st4" d="M770.47,343.27c-27.44-0.02-49.98-22.41-50.1-49.79c-0.13-27.43,22.97-50.36,50.41-50.03
	c27.59,0.33,49.98,22.82,49.82,50.06C820.45,320.89,797.87,343.3,770.47,343.27z"/>
<path class="st1" d="M409.95,326.69c-13.74,0-27.48,0.29-41.21-0.08c-12.71-0.35-20.45-11.45-16.08-22.51
	c2.27-5.74,6.54-9.37,12.76-10.31c2.19-0.33,4.44-0.4,6.66-0.41c25.62-0.03,51.24-0.06,76.86,0.04c3.3,0.01,6.77,0.22,9.85,1.25
	c7.28,2.43,11.69,10.16,10.61,17.6c-1.1,7.63-7,13.85-14.91,14.08c-14.84,0.43-29.69,0.13-44.54,0.13
	C409.95,326.55,409.95,326.62,409.95,326.69z"/>
<path class="st1" d="M410.5,426.9c13.92,0,27.85-0.29,41.77,0.08c12.71,0.34,20.46,11.44,16.09,22.51
	c-2.27,5.75-6.53,9.37-12.76,10.32c-2.19,0.33-4.44,0.4-6.66,0.41c-25.62,0.03-51.24,0.06-76.86-0.04c-3.3-0.01-6.77-0.22-9.85-1.25
	c-7.28-2.43-11.69-10.15-10.62-17.6c1.1-7.64,7-13.85,14.91-14.09c14.65-0.44,29.32-0.13,43.98-0.13
	C410.5,427.04,410.5,426.97,410.5,426.9z"/>
</svg>
