<?xml version="1.0" encoding="utf-8"?>
<!-- Generator: Adobe Illustrator 24.0.0, SVG Export Plug-In . SVG Version: 6.00 Build 0)  -->
<svg version="1.1" id="Layer_1" xmlns="http://www.w3.org/2000/svg" xmlns:xlink="http://www.w3.org/1999/xlink" x="0px" y="0px"
	 viewBox="0 0 1080 1080" style="enable-background:new 0 0 1080 1080;" xml:space="preserve">
<style type="text/css">
	.st0{fill:url(#SVGID_1_);}
	.st1{fill:#EA372F;}
	.st2{fill:url(#SVGID_2_);}
	.st3{fill:url(#SVGID_3_);}
	.st4{fill:url(#SVGID_4_);}
	.st5{fill:url(#SVGID_5_);}
	.st6{fill:url(#SVGID_6_);}
	.st7{fill:url(#SVGID_7_);}
	.st8{fill:url(#SVGID_8_);}
	.st9{fill:url(#SVGID_9_);}
	.st10{fill:url(#SVGID_10_);}
	.st11{fill:url(#SVGID_11_);}
	.st12{fill:url(#SVGID_12_);}
	.st13{fill:url(#SVGID_13_);}
	.st14{fill:url(#SVGID_14_);}
	.st15{fill:url(#SVGID_15_);}
	.st16{fill:url(#SVGID_16_);}
	.st17{fill:url(#SVGID_17_);}
	.st18{fill:url(#SVGID_18_);}
	.st19{fill:url(#SVGID_19_);}
	.st20{fill:url(#SVGID_20_);}
	.st21{fill:#FFFFFF;}
	.st22{fill:url(#SVGID_21_);}
	.st23{fill:url(#SVGID_22_);}
	.st24{fill:url(#SVGID_23_);}
	.st25{fill:url(#SVGID_24_);}
	.st26{fill:url(#SVGID_25_);}
	.st27{fill:url(#SVGID_26_);}
	.st28{fill:url(#SVGID_27_);}
	.st29{fill:url(#SVGID_28_);}
	.st30{fill:url(#SVGID_29_);}
	.st31{fill:url(#SVGID_30_);}
	.st32{fill:url(#SVGID_31_);}
	.st33{fill:url(#SVGID_32_);}
	.st34{fill:url(#SVGID_33_);}
	.st35{fill:url(#SVGID_34_);}
	.st36{fill:url(#SVGID_35_);}
	.st37{fill:url(#SVGID_36_);}
	.st38{fill:url(#SVGID_37_);}
	.st39{fill:url(#SVGID_38_);}
	.st40{fill:url(#SVGID_39_);}
	.st41{fill:url(#SVGID_40_);}
	.st42{fill:url(#SVGID_41_);}
	.st43{fill:url(#SVGID_42_);}
	.st44{fill:url(#SVGID_43_);}
	.st45{fill:url(#SVGID_44_);}
	.st46{fill:url(#SVGID_45_);}
	.st47{fill:url(#SVGID_46_);}
	.st48{fill:url(#SVGID_47_);}
	.st49{fill:url(#SVGID_48_);}
	.st50{fill:url(#SVGID_49_);}
	.st51{fill:url(#SVGID_50_);}
	.st52{fill:url(#SVGID_51_);}
	.st53{fill:url(#SVGID_52_);}
	.st54{fill:url(#SVGID_53_);}
	.st55{fill:url(#SVGID_54_);}
	.st56{fill:url(#SVGID_55_);}
	.st57{fill:url(#SVGID_56_);}
	.st58{fill:url(#SVGID_57_);}
	.st59{fill:url(#SVGID_58_);}
	.st60{fill:url(#SVGID_59_);}
	.st61{fill:url(#SVGID_60_);}
	.st62{fill:url(#SVGID_61_);}
	.st63{fill:url(#SVGID_62_);}
	.st64{fill:url(#SVGID_63_);}
	.st65{fill:url(#SVGID_64_);}
	.st66{fill:url(#SVGID_65_);}
	.st67{fill:url(#SVGID_66_);}
	.st68{fill:url(#SVGID_67_);}
	.st69{fill:url(#SVGID_68_);}
	.st70{fill:none;}
	.st71{fill:url(#SVGID_69_);}
	.st72{fill:url(#SVGID_70_);}
	.st73{fill:url(#SVGID_71_);}
</style>
<linearGradient id="SVGID_1_" gradientUnits="userSpaceOnUse" x1="260.0027" y1="567.1888" x2="706.8433" y2="567.1888">
	<stop  offset="0" style="stop-color:#15818E"/>
	<stop  offset="0.9944" style="stop-color:#7ECAB6"/>
</linearGradient>
<path class="st0" d="M325.11,269.61c64.7,0,129.4,0,194.1,0c-7.58,14.54-10.87,29.98-10.82,46.4c0.18,60.04,0.05,120.08,0.11,180.13
	c0.01,5.41,0.05,10.9,0.93,16.21c7.88,47.51,45.25,79.3,93.42,79.49c32.15,0.13,64.3,0.02,96.45,0.03c2.26,0,4.52,0,7.34,0
	c0,2.86,0,4.96,0,7.05c0,45.9-0.43,91.81,0.21,137.71c0.26,18.58-12.01,29.45-29.56,29.18c-37.37-0.58-74.76-0.18-112.14-0.18
	c-2.24,0-4.49,0-7.29,0c0,2.93,0,5.01,0,7.1c0,23.63-0.13,47.26,0.06,70.89c0.07,8.78-2.76,15.64-10.98,19.36
	c-8.49,3.84-15.68,1.19-22.24-4.92c-8.5-7.92-17.28-15.54-25.96-23.26c-5.01-4.46-10.06-8.86-15.17-13.37
	c-2.17,1.9-3.91,3.41-5.64,4.94c-12.59,11.2-25.02,22.58-37.82,33.54c-10.02,8.57-24.82,5.12-29.36-6.71
	c-1.28-3.32-1.57-7.18-1.59-10.8c-0.13-23.43-0.07-46.87-0.07-70.31c0-2.03,0-4.07,0-6.46c-24.16,0-47.38-0.15-70.6,0.05
	c-18.74,0.16-35.49-5.4-50.12-16.95c-18.03-14.24-29.15-31.55-28.32-56.04c1.09-32.11,0.27-64.29,0.27-96.45
	c0-83.28-0.05-166.57,0.03-249.85c0.03-29.81,12.94-52.67,38.87-67.33C307.1,274.59,316.44,272.69,325.11,269.61z M558.14,715.61
	c33.28,0,65.9,0,98.71,0c0-16.46,0-32.58,0-48.85c-33.12,0-65.84,0-98.71,0C558.14,683.26,558.14,699.24,558.14,715.61z
	 M408.66,715.86c0-16.77,0-32.92,0-49.31c-1.34-0.12-2.27-0.28-3.21-0.28c-23.24-0.01-46.48-0.03-69.72,0.02
	c-1.92,0-3.86,0.29-5.75,0.66c-12.12,2.37-20.57,13.25-19.93,25.59c0.62,12.12,10.46,22.95,22.67,23.18
	C357.85,716.19,383.01,715.86,408.66,715.86z"/>
<path class="st1" d="M769.11,269.61c7.22,3.51,15.19,6.01,21.48,10.75c10.84,8.16,15.36,20.17,15.38,33.63
	c0.08,61.38,0.21,122.76-0.05,184.14c-0.11,25.51-18.6,44.07-44.1,44.22c-53.25,0.31-106.5,0.31-159.75,0
	c-25.52-0.15-44.01-18.74-44.11-44.22c-0.25-61.38-0.2-122.76-0.02-184.14c0.07-22.05,13.27-38.08,34.76-43.44
	c0.72-0.18,1.38-0.62,2.07-0.94C652.88,269.61,710.99,269.61,769.11,269.61z M632.25,405.82c0,18.01,0.01,36.03-0.01,54.04
	c-0.01,8.47,3.08,15.25,11.1,18.76c7.92,3.47,15.04,1.6,21.4-4.15c19.67-17.8,39.48-35.46,59.13-53.29
	c10.44-9.48,10.33-21.01-0.18-30.52c-19.24-17.41-38.63-34.67-57.82-52.14c-6.74-6.14-13.95-9.09-22.71-5.04
	c-8.51,3.94-11.02,11.22-10.95,20.05C632.34,370.95,632.24,388.38,632.25,405.82z"/>
</svg>
