<?xml version="1.0" encoding="utf-8"?>
<!-- Generator: Adobe Illustrator 24.0.0, SVG Export Plug-In . SVG Version: 6.00 Build 0)  -->
<svg version="1.1" id="Layer_1" xmlns="http://www.w3.org/2000/svg" xmlns:xlink="http://www.w3.org/1999/xlink" x="0px" y="0px"
	 viewBox="0 0 1080 1080" style="enable-background:new 0 0 1080 1080;" xml:space="preserve">
<style type="text/css">
	.st0{fill:url(#SVGID_1_);}
	.st1{fill:#EA372F;}
	.st2{fill:url(#SVGID_2_);}
	.st3{fill:url(#SVGID_3_);}
	.st4{fill:url(#SVGID_4_);}
	.st5{fill:url(#SVGID_5_);}
	.st6{fill:url(#SVGID_6_);}
	.st7{fill:url(#SVGID_7_);}
	.st8{fill:url(#SVGID_8_);}
	.st9{fill:url(#SVGID_9_);}
	.st10{fill:url(#SVGID_10_);}
	.st11{fill:url(#SVGID_11_);}
	.st12{fill:url(#SVGID_12_);}
	.st13{fill:url(#SVGID_13_);}
	.st14{fill:url(#SVGID_14_);}
	.st15{fill:url(#SVGID_15_);}
	.st16{fill:url(#SVGID_16_);}
	.st17{fill:url(#SVGID_17_);}
	.st18{fill:url(#SVGID_18_);}
	.st19{fill:url(#SVGID_19_);}
	.st20{fill:url(#SVGID_20_);}
	.st21{fill:#FFFFFF;}
	.st22{fill:url(#SVGID_21_);}
	.st23{fill:url(#SVGID_22_);}
	.st24{fill:url(#SVGID_23_);}
	.st25{fill:url(#SVGID_24_);}
	.st26{fill:url(#SVGID_25_);}
	.st27{fill:url(#SVGID_26_);}
	.st28{fill:url(#SVGID_27_);}
	.st29{fill:url(#SVGID_28_);}
	.st30{fill:url(#SVGID_29_);}
	.st31{fill:url(#SVGID_30_);}
	.st32{fill:url(#SVGID_31_);}
	.st33{fill:url(#SVGID_32_);}
	.st34{fill:url(#SVGID_33_);}
	.st35{fill:url(#SVGID_34_);}
	.st36{fill:url(#SVGID_35_);}
	.st37{fill:url(#SVGID_36_);}
	.st38{fill:url(#SVGID_37_);}
	.st39{fill:url(#SVGID_38_);}
	.st40{fill:url(#SVGID_39_);}
	.st41{fill:url(#SVGID_40_);}
	.st42{fill:url(#SVGID_41_);}
	.st43{fill:url(#SVGID_42_);}
	.st44{fill:url(#SVGID_43_);}
	.st45{fill:url(#SVGID_44_);}
	.st46{fill:url(#SVGID_45_);}
	.st47{fill:url(#SVGID_46_);}
	.st48{fill:url(#SVGID_47_);}
	.st49{fill:url(#SVGID_48_);}
	.st50{fill:url(#SVGID_49_);}
	.st51{fill:url(#SVGID_50_);}
	.st52{fill:url(#SVGID_51_);}
	.st53{fill:url(#SVGID_52_);}
	.st54{fill:url(#SVGID_53_);}
	.st55{fill:url(#SVGID_54_);}
	.st56{fill:url(#SVGID_55_);}
	.st57{fill:url(#SVGID_56_);}
	.st58{fill:url(#SVGID_57_);}
	.st59{fill:url(#SVGID_58_);}
	.st60{fill:url(#SVGID_59_);}
	.st61{fill:url(#SVGID_60_);}
	.st62{fill:url(#SVGID_61_);}
	.st63{fill:url(#SVGID_62_);}
	.st64{fill:url(#SVGID_63_);}
	.st65{fill:url(#SVGID_64_);}
	.st66{fill:url(#SVGID_65_);}
	.st67{fill:url(#SVGID_66_);}
	.st68{fill:url(#SVGID_67_);}
	.st69{fill:url(#SVGID_68_);}
	.st70{fill:none;}
	.st71{fill:url(#SVGID_69_);}
	.st72{fill:url(#SVGID_70_);}
	.st73{fill:url(#SVGID_71_);}
</style>
<linearGradient id="SVGID_1_" gradientUnits="userSpaceOnUse" x1="234" y1="457.5899" x2="398.7045" y2="457.5899">
	<stop  offset="0" style="stop-color:#15818E"/>
	<stop  offset="0.9944" style="stop-color:#7ECAB6"/>
</linearGradient>
<path class="st0" d="M234,440.03c2-7.63,3.34-15.51,6.12-22.85c17.52-46.4,68.16-63.77,110.68-38.21
	c43.91,26.4,60.91,85.77,37.17,129.78c-20.42,37.85-67.19,50.55-104.17,28.34c-27.74-16.66-43.47-41.26-48.67-72.94
	c-0.16-0.97-0.73-1.87-1.12-2.8C234,454.25,234,447.14,234,440.03z"/>
<path class="st1" d="M533.03,471.11c53.08,2.07,97.07,23.69,127.69,68.6c25.76,37.79,50.46,76.36,74.1,115.5
	c34.64,57.36,2.82,131.1-62.34,146.45c-19.37,4.56-38.7,3.88-57.23-3.72c-29.34-12.03-59.45-19.35-91.43-17.94
	c-25.17,1.11-48.96,7.42-72.18,16.83c-56.9,23.07-119.46-8.87-133.92-68.45c-5.79-23.84-4.12-47.71,8.71-68.6
	c26.55-43.24,52.97-86.75,82.67-127.82C438.65,491.04,481.77,472.67,533.03,471.11z"/>
<linearGradient id="SVGID_2_" gradientUnits="userSpaceOnUse" x1="390.0737" y1="350.4568" x2="578.653" y2="350.4568">
	<stop  offset="0" style="stop-color:#15818E"/>
	<stop  offset="0.9944" style="stop-color:#7ECAB6"/>
</linearGradient>
<path class="st2" d="M390.07,351.99c0.71-33.92,11.08-62.53,35.25-84.97c37.31-34.64,90.73-31.36,125.51,7.28
	c37.58,41.75,37,112.8-1.26,153.88c-40.64,43.64-105.5,38.52-139.03-10.97C397.14,397.4,390.07,374.43,390.07,351.99z"/>
<linearGradient id="SVGID_3_" gradientUnits="userSpaceOnUse" x1="590.5636" y1="391.0016" x2="766.8736" y2="391.0016">
	<stop  offset="0" style="stop-color:#15818E"/>
	<stop  offset="0.9944" style="stop-color:#7ECAB6"/>
</linearGradient>
<path class="st3" d="M766.87,378.44c-2.09,42.67-16.25,73.57-47.76,94.71c-46.97,31.51-103.53,12.36-122.73-40.99
	c-17.57-48.83,6.01-107.33,52.41-130.04c43.58-21.33,94.05-1.12,110.7,45.01C763.69,358.73,765.24,371.29,766.87,378.44z"/>
<linearGradient id="SVGID_4_" gradientUnits="userSpaceOnUse" x1="706.9005" y1="546.103" x2="876.5228" y2="546.103">
	<stop  offset="0" style="stop-color:#15818E"/>
	<stop  offset="0.9944" style="stop-color:#7ECAB6"/>
</linearGradient>
<path class="st4" d="M781.68,634.35c-41.03-0.72-73.49-32.22-74.73-73.16c-1.4-46.48,28.37-88.04,71.73-100.11
	c54.76-15.25,103.22,25.67,97.36,82.2c-4.24,40.94-31.95,75-71.08,86.73C797.44,632.25,789.45,632.94,781.68,634.35z"/>
</svg>
