<?xml version="1.0" encoding="utf-8"?>
<!-- Generator: Adobe Illustrator 24.0.0, SVG Export Plug-In . SVG Version: 6.00 Build 0)  -->
<svg version="1.1" id="Layer_1" xmlns="http://www.w3.org/2000/svg" xmlns:xlink="http://www.w3.org/1999/xlink" x="0px" y="0px"
	 viewBox="0 0 1080 1080" style="enable-background:new 0 0 1080 1080;" xml:space="preserve">
<style type="text/css">
	.st0{fill:url(#SVGID_1_);}
	.st1{fill:#EA372F;}
	.st2{fill:url(#SVGID_2_);}
	.st3{fill:url(#SVGID_3_);}
	.st4{fill:url(#SVGID_4_);}
	.st5{fill:url(#SVGID_5_);}
	.st6{fill:url(#SVGID_6_);}
	.st7{fill:url(#SVGID_7_);}
	.st8{fill:url(#SVGID_8_);}
	.st9{fill:url(#SVGID_9_);}
	.st10{fill:url(#SVGID_10_);}
	.st11{fill:url(#SVGID_11_);}
	.st12{fill:url(#SVGID_12_);}
	.st13{fill:url(#SVGID_13_);}
	.st14{fill:url(#SVGID_14_);}
	.st15{fill:url(#SVGID_15_);}
	.st16{fill:url(#SVGID_16_);}
	.st17{fill:url(#SVGID_17_);}
	.st18{fill:url(#SVGID_18_);}
	.st19{fill:url(#SVGID_19_);}
	.st20{fill:url(#SVGID_20_);}
	.st21{fill:#FFFFFF;}
	.st22{fill:url(#SVGID_21_);}
	.st23{fill:url(#SVGID_22_);}
	.st24{fill:url(#SVGID_23_);}
	.st25{fill:url(#SVGID_24_);}
	.st26{fill:url(#SVGID_25_);}
	.st27{fill:url(#SVGID_26_);}
	.st28{fill:url(#SVGID_27_);}
	.st29{fill:url(#SVGID_28_);}
	.st30{fill:url(#SVGID_29_);}
	.st31{fill:url(#SVGID_30_);}
	.st32{fill:url(#SVGID_31_);}
	.st33{fill:url(#SVGID_32_);}
	.st34{fill:url(#SVGID_33_);}
	.st35{fill:url(#SVGID_34_);}
	.st36{fill:url(#SVGID_35_);}
	.st37{fill:url(#SVGID_36_);}
	.st38{fill:url(#SVGID_37_);}
	.st39{fill:url(#SVGID_38_);}
	.st40{fill:url(#SVGID_39_);}
	.st41{fill:url(#SVGID_40_);}
	.st42{fill:url(#SVGID_41_);}
	.st43{fill:url(#SVGID_42_);}
	.st44{fill:url(#SVGID_43_);}
	.st45{fill:url(#SVGID_44_);}
	.st46{fill:url(#SVGID_45_);}
	.st47{fill:url(#SVGID_46_);}
	.st48{fill:url(#SVGID_47_);}
	.st49{fill:url(#SVGID_48_);}
	.st50{fill:url(#SVGID_49_);}
	.st51{fill:url(#SVGID_50_);}
	.st52{fill:url(#SVGID_51_);}
	.st53{fill:url(#SVGID_52_);}
	.st54{fill:url(#SVGID_53_);}
	.st55{fill:url(#SVGID_54_);}
	.st56{fill:url(#SVGID_55_);}
	.st57{fill:url(#SVGID_56_);}
	.st58{fill:url(#SVGID_57_);}
	.st59{fill:url(#SVGID_58_);}
	.st60{fill:url(#SVGID_59_);}
	.st61{fill:url(#SVGID_60_);}
	.st62{fill:url(#SVGID_61_);}
	.st63{fill:url(#SVGID_62_);}
	.st64{fill:url(#SVGID_63_);}
	.st65{fill:url(#SVGID_64_);}
	.st66{fill:url(#SVGID_65_);}
	.st67{fill:url(#SVGID_66_);}
	.st68{fill:url(#SVGID_67_);}
	.st69{fill:url(#SVGID_68_);}
	.st70{fill:none;}
	.st71{fill:url(#SVGID_69_);}
	.st72{fill:url(#SVGID_70_);}
	.st73{fill:url(#SVGID_71_);}
</style>
<linearGradient id="SVGID_1_" gradientUnits="userSpaceOnUse" x1="210" y1="543.8589" x2="890.3731" y2="543.8589">
	<stop  offset="0" style="stop-color:#15818E"/>
	<stop  offset="0.9944" style="stop-color:#7ECAB6"/>
</linearGradient>
<path class="st0" d="M210,698.13c0-11.08,0-22.15,0-33.23c0.36-3.04,0.87-6.08,1.07-9.14c1.53-23.64,2.48-47.33,4.6-70.92
	c5.04-56.01,13.26-111.6,23.65-166.87c13.93-74.06,83.01-127.63,158.05-122.98c19.9,1.23,37.95,7.93,55.83,15.74
	c17.34,7.57,35.15,13.62,54.23,14.18c21.02,0.62,42.07,0.34,63.09,0.9c27.93,0.75,54.27-5.03,79.98-16.03
	c14.5-6.2,29.91-12.09,45.39-13.84c78.13-8.83,151.09,45.71,165.26,123.07c6.85,37.41,12.51,75.06,17.71,112.75
	c7.23,52.46,10.81,105.26,11.51,158.22c0.08,6.35-0.61,12.9-2.12,19.06c-8.48,34.54-31.33,57.07-61.91,72.96
	c-30.69,15.95-60.25,14.35-89.03-5.08c-21.88-14.77-39.56-33.97-57.6-52.88c-16.18-16.97-32.51-33.83-49.4-50.08
	c-9.58-9.21-21.62-12.76-35.29-12.5c-29.89,0.58-59.8,0.56-89.68,0c-13.18-0.25-24.34,3.63-34.3,11.74
	c-4.63,3.77-9.33,7.55-13.44,11.85c-17.12,17.94-33.92,36.19-51.05,54.12c-15.32,16.04-31.33,31.34-50.88,42.32
	c-13.55,7.62-27.9,12.34-43.69,11.35c-41.89-2.62-86.17-38.42-98.11-79.37C212.37,708.43,211.27,703.26,210,698.13z M427.58,513.97
	c3.93,0,6.78,0.03,9.62,0c9.95-0.1,19.95,0.33,29.85-0.47c16.1-1.31,27.18-17.06,23.76-32.79c-2.82-12.98-13.07-21.72-26.32-21.98
	c-12.09-0.23-24.2-0.05-36.91-0.05c0-12.16,0.03-23.41-0.01-34.66c-0.03-11.26-4.38-20.29-14.35-25.94
	c-17.91-10.16-40.41,2.39-41.04,22.98c-0.38,12.3-0.07,24.63-0.07,37.65c-13.19,0-25.54-0.25-37.87,0.07
	c-13.43,0.35-24.6,10.94-25.93,23.96c-1.45,14.22,6.98,27.07,20.31,30.22c4.24,1,8.79,0.92,13.2,0.98
	c9.9,0.13,19.81,0.04,30.27,0.04c0,12.75-0.14,24.66,0.04,36.57c0.2,13.48,9.43,24.42,22.26,26.8c17.7,3.29,32.63-9.17,33.12-27.97
	C427.83,537.9,427.58,526.42,427.58,513.97z M725.95,538.35c-0.1-21.72-17.82-39.27-39.47-39.08c-21.58,0.18-39.24,18.1-39.07,39.65
	c0.17,21.58,18.13,39.29,39.64,39.07C708.8,577.78,726.05,560.2,725.95,538.35z M752.25,394.67c-21.79,0.04-39.41,17.54-39.43,39.15
	c-0.01,21.54,17.79,39.38,39.34,39.43c21.51,0.05,39.37-17.78,39.39-39.35C791.58,412.19,773.99,394.63,752.25,394.67z"/>
<path class="st1" d="M427.58,513.97c0,12.44,0.24,23.93-0.06,35.4c-0.49,18.8-15.42,31.26-33.12,27.97
	c-12.83-2.38-22.06-13.32-22.26-26.8c-0.18-11.91-0.04-23.82-0.04-36.57c-10.46,0-20.37,0.09-30.27-0.04
	c-4.41-0.06-8.95,0.02-13.2-0.98c-13.34-3.15-21.76-16-20.31-30.22c1.33-13.02,12.5-23.61,25.93-23.96
	c12.33-0.32,24.68-0.07,37.87-0.07c0-13.02-0.31-25.35,0.07-37.65c0.64-20.59,23.13-33.14,41.04-22.98
	c9.96,5.65,14.31,14.69,14.35,25.94c0.03,11.25,0.01,22.5,0.01,34.66c12.72,0,24.82-0.18,36.91,0.05c13.25,0.25,23.49,9,26.32,21.98
	c3.42,15.74-7.66,31.49-23.76,32.79c-9.9,0.81-19.9,0.37-29.85,0.47C434.36,514,431.52,513.97,427.58,513.97z"/>
<path class="st1" d="M725.95,538.35c0.1,21.85-17.14,39.42-38.9,39.64c-21.51,0.21-39.47-17.49-39.64-39.07
	c-0.17-21.55,17.49-39.47,39.07-39.65C708.12,499.09,725.85,516.63,725.95,538.35z"/>
<path class="st1" d="M752.25,394.67c21.74-0.04,39.33,17.52,39.31,39.23c-0.03,21.56-17.88,39.4-39.39,39.35
	c-21.55-0.05-39.35-17.89-39.34-39.43C712.84,412.21,730.46,394.71,752.25,394.67z"/>
</svg>
