<?xml version="1.0" encoding="utf-8"?>
<!-- Generator: Adobe Illustrator 24.0.0, SVG Export Plug-In . SVG Version: 6.00 Build 0)  -->
<svg version="1.1" id="Layer_1" xmlns="http://www.w3.org/2000/svg" xmlns:xlink="http://www.w3.org/1999/xlink" x="0px" y="0px"
	 viewBox="0 0 1080 1080" style="enable-background:new 0 0 1080 1080;" xml:space="preserve">
<style type="text/css">
	.st0{fill:url(#SVGID_1_);}
	.st1{fill:#EA372F;}
	.st2{fill:url(#SVGID_2_);}
	.st3{fill:url(#SVGID_3_);}
	.st4{fill:url(#SVGID_4_);}
	.st5{fill:url(#SVGID_5_);}
	.st6{fill:url(#SVGID_6_);}
	.st7{fill:url(#SVGID_7_);}
	.st8{fill:url(#SVGID_8_);}
	.st9{fill:url(#SVGID_9_);}
	.st10{fill:url(#SVGID_10_);}
	.st11{fill:url(#SVGID_11_);}
	.st12{fill:url(#SVGID_12_);}
	.st13{fill:url(#SVGID_13_);}
	.st14{fill:url(#SVGID_14_);}
	.st15{fill:url(#SVGID_15_);}
	.st16{fill:url(#SVGID_16_);}
	.st17{fill:url(#SVGID_17_);}
	.st18{fill:url(#SVGID_18_);}
	.st19{fill:url(#SVGID_19_);}
	.st20{fill:url(#SVGID_20_);}
	.st21{fill:#FFFFFF;}
	.st22{fill:url(#SVGID_21_);}
	.st23{fill:url(#SVGID_22_);}
	.st24{fill:url(#SVGID_23_);}
	.st25{fill:url(#SVGID_24_);}
	.st26{fill:url(#SVGID_25_);}
	.st27{fill:url(#SVGID_26_);}
	.st28{fill:url(#SVGID_27_);}
	.st29{fill:url(#SVGID_28_);}
	.st30{fill:url(#SVGID_29_);}
	.st31{fill:url(#SVGID_30_);}
	.st32{fill:url(#SVGID_31_);}
	.st33{fill:url(#SVGID_32_);}
	.st34{fill:url(#SVGID_33_);}
	.st35{fill:url(#SVGID_34_);}
	.st36{fill:url(#SVGID_35_);}
	.st37{fill:url(#SVGID_36_);}
	.st38{fill:url(#SVGID_37_);}
	.st39{fill:url(#SVGID_38_);}
	.st40{fill:url(#SVGID_39_);}
	.st41{fill:url(#SVGID_40_);}
	.st42{fill:url(#SVGID_41_);}
	.st43{fill:url(#SVGID_42_);}
	.st44{fill:url(#SVGID_43_);}
	.st45{fill:url(#SVGID_44_);}
	.st46{fill:url(#SVGID_45_);}
	.st47{fill:url(#SVGID_46_);}
	.st48{fill:url(#SVGID_47_);}
	.st49{fill:url(#SVGID_48_);}
	.st50{fill:url(#SVGID_49_);}
	.st51{fill:url(#SVGID_50_);}
	.st52{fill:url(#SVGID_51_);}
	.st53{fill:url(#SVGID_52_);}
	.st54{fill:url(#SVGID_53_);}
	.st55{fill:url(#SVGID_54_);}
	.st56{fill:url(#SVGID_55_);}
	.st57{fill:url(#SVGID_56_);}
	.st58{fill:url(#SVGID_57_);}
	.st59{fill:url(#SVGID_58_);}
	.st60{fill:url(#SVGID_59_);}
	.st61{fill:url(#SVGID_60_);}
	.st62{fill:url(#SVGID_61_);}
	.st63{fill:url(#SVGID_62_);}
	.st64{fill:url(#SVGID_63_);}
	.st65{fill:url(#SVGID_64_);}
	.st66{fill:url(#SVGID_65_);}
	.st67{fill:url(#SVGID_66_);}
	.st68{fill:url(#SVGID_67_);}
	.st69{fill:url(#SVGID_68_);}
	.st70{fill:none;}
	.st71{fill:url(#SVGID_69_);}
	.st72{fill:url(#SVGID_70_);}
	.st73{fill:url(#SVGID_71_);}
</style>
<g>
	<g>
		<path class="st1" d="M363.53,396.98c-1.79,46.14-1.81,92.32-1.46,138.48c0.17,22.58-0.6,45.42,2.32,67.85
			c1.63,12.49,3.92,24.82,6.14,37.21c0.44,2.45,0.87,4.9,1.27,7.36c0.26,1.57,2.36,10.6,0.59,3.33c1.26,5.16,1.21,11.18,1.35,16.47
			c0.07,2.73,0.06,5.47-0.06,8.2c-0.05,1.21-0.12,2.42-0.22,3.63c-0.06,0.91-0.15,1.82-0.24,2.72c0.51-3.46,0.62-4.21,0.32-2.25
			c-1.03,5.52-2.41,10.88-3.84,16.32c-4.32,16.46-5.03,31.66,2.55,47.26c5.84,12.03,23.93,16.22,34.89,9.15
			c12.34-7.95,15.4-22.02,9.15-34.89c2.68,5.51,1.09,3.11,0.77,1.53c-0.92-4.47,0.25,1.69,0.12,2.03c0.18-0.48,0.3-6.45,0.19-6.55
			c1.13,0.97-1.07,5.47-0.1,1.76c0.37-1.39,0.62-2.81,0.97-4.21c0.63-2.53,1.34-5.04,2-7.56c3.04-11.47,4.7-23.44,4.54-35.32
			c-0.3-22.76-5.98-45.06-9.49-67.44c-0.17-1.07-0.18-2.74-0.56-3.69c0.24,0.61,0.69,5.98,0.18,1.24c-0.27-2.5-0.55-5-0.75-7.51
			c-0.47-5.93-0.65-11.88-0.75-17.83c-0.18-11.28-0.23-22.56-0.31-33.84c-0.18-22.25-0.29-44.51-0.17-66.76
			c0.14-25.57,0.6-51.14,1.59-76.7c0.52-13.34-12.1-26.1-25.5-25.5C374.77,372.12,364.09,382.69,363.53,396.98L363.53,396.98z"/>
	</g>
</g>
<linearGradient id="SVGID_1_" gradientUnits="userSpaceOnUse" x1="180.8518" y1="562.3484" x2="920.4167" y2="562.3484">
	<stop  offset="0" style="stop-color:#15818E"/>
	<stop  offset="0.9944" style="stop-color:#7ECAB6"/>
</linearGradient>
<path class="st0" d="M549.72,766c-116.7,0-233.39,0-350.09,0c-15.89,0-18.56-2.71-18.57-18.81c0-2-0.02-4,0.01-6
	c0.15-10.16,2.07-12.8,11.83-15.17c8.62-2.1,14.25-7.09,15.85-15.89c1.99-10.97-4.3-20.25-15.28-23.13
	c-10.65-2.79-12.3-4.77-12.38-15.35c-0.07-9.24,0.12-18.49-0.05-27.73c-0.14-7.67,3.31-12.06,10.79-13.88
	c11.43-2.78,17.19-9.48,17.29-19.41c0.1-10.26-5.85-17.14-17.58-19.94c-6.74-1.61-10.44-5.49-10.44-12.57
	c0-10.49,0.01-20.99-0.01-31.48c-0.01-7.09,3.72-10.93,10.42-12.61c11.84-2.96,17.69-9.72,17.6-19.94
	c-0.09-9.97-5.97-16.75-17.27-19.42c-7.07-1.67-10.83-5.68-10.78-13.1c0.07-10.24,0.04-20.49,0.02-30.73
	c-0.02-7.4,3.72-11.37,10.86-12.98c11.11-2.51,17.11-9.58,17.17-19.55c0.05-10.03-5.81-17.07-16.96-19.66
	c-7.42-1.72-10.92-5.87-11.15-13.61c-0.75-24.96,0.38-26.27,25.38-26.27c230.89,0,461.78,0,692.68,0c2.5,0,5.02-0.19,7.49,0.09
	c2.45,0.27,5.27,0.38,7.21,1.66c10.51,6.89,5.28,17.66,5.91,26.84c0.45,6.44-4.18,9.67-10.13,11.11
	c-12.63,3.05-18.64,9.5-18.63,19.82c0.01,10.36,6.12,16.93,18.64,19.81c6.78,1.56,10.38,5.58,10.38,12.62
	c0.01,10.49,0.02,20.99-0.02,31.48c-0.02,7.11-3.88,10.93-10.6,12.43c-12.28,2.74-18.52,9.6-18.4,20
	c0.11,10.08,6.32,16.87,18.14,19.46c7.1,1.56,10.93,5.56,10.91,12.98c-0.03,10.24-0.02,20.49-0.01,30.73
	c0.01,7.38-3.68,11.48-10.87,12.96c-11.69,2.41-18.04,9.35-18.17,19.47c-0.13,10.15,6.18,17.28,17.63,19.93
	c8.66,2.01,11.25,5.04,11.39,14.01c0.14,9.74,0.16,19.49-0.01,29.23c-0.14,8.42-2.98,11.65-11.1,13.39
	c-11.34,2.43-17.89,9.68-17.91,19.79c-0.01,9.85,6.27,17.03,17.15,19.6c9.36,2.21,11.65,4.96,11.9,14.35
	c0.66,24.4-0.38,25.48-24.65,25.48C780.11,766,664.92,766,549.72,766z M404.04,562.92c0-5.99,0.2-11.98-0.05-17.95
	c-0.3-7.43-5.01-12.22-11.47-12.15c-6.42,0.07-11.22,5.01-11.35,12.36c-0.2,11.47-0.22,22.95,0.01,34.42
	c0.15,7.27,5.14,12.21,11.56,12.14c6.46-0.07,10.97-4.85,11.27-12.36C404.23,573.9,404.05,568.4,404.04,562.92z M403.98,469.24
	c0-6.23,0.26-12.48-0.07-18.7c-0.35-6.51-4.95-10.91-10.87-11.11c-6.26-0.22-11.57,4.28-11.77,11.04
	c-0.36,12.21-0.36,24.44-0.02,36.65c0.19,6.84,5.27,11.14,11.73,10.97c6.23-0.16,10.53-4.16,10.93-10.91
	C404.26,481.22,403.98,475.22,403.98,469.24z M404.04,655.41c0-5.74,0.21-11.48-0.05-17.2c-0.35-7.6-4.82-11.92-11.66-11.75
	c-6.37,0.15-10.97,4.6-11.12,11.63c-0.26,11.71-0.26,23.44-0.01,35.16c0.16,7.25,5.26,12.07,11.75,11.9
	c6.18-0.16,10.72-4.78,11.04-11.78C404.25,667.39,404.03,661.4,404.04,655.41z M381.24,383.47c0,3.75-0.36,7.53,0.08,11.23
	c0.74,6.26,5.92,10.61,11.89,10.07c6.27-0.56,10.28-4.11,10.64-10.5c0.39-6.97,0.44-14-0.01-20.96c-0.4-6.31-4.32-9.96-10.68-10.44
	c-5.99-0.45-11.07,3.83-11.84,10.12C380.89,376.43,381.24,379.97,381.24,383.47z M403.94,740.8c0-3.5,0.25-7.01-0.05-10.48
	c-0.56-6.38-4.35-9.95-10.64-10.52c-5.99-0.54-11.41,3.76-11.87,10.03c-0.53,7.2-0.53,14.5-0.02,21.71
	c0.44,6.28,5.8,10.6,11.78,10.15c6.35-0.47,10.09-4.09,10.74-10.41C404.21,747.82,403.92,744.3,403.94,740.8z"/>
</svg>
