<?xml version="1.0" encoding="utf-8"?>
<!-- Generator: Adobe Illustrator 24.0.0, SVG Export Plug-In . SVG Version: 6.00 Build 0)  -->
<svg version="1.1" id="Layer_1" xmlns="http://www.w3.org/2000/svg" xmlns:xlink="http://www.w3.org/1999/xlink" x="0px" y="0px"
	 viewBox="0 0 1080 1080" style="enable-background:new 0 0 1080 1080;" xml:space="preserve">
<style type="text/css">
	.st0{fill:url(#SVGID_1_);}
	.st1{fill:#EA372F;}
	.st2{fill:url(#SVGID_2_);}
	.st3{fill:url(#SVGID_3_);}
	.st4{fill:url(#SVGID_4_);}
	.st5{fill:url(#SVGID_5_);}
	.st6{fill:url(#SVGID_6_);}
	.st7{fill:url(#SVGID_7_);}
	.st8{fill:url(#SVGID_8_);}
	.st9{fill:url(#SVGID_9_);}
	.st10{fill:url(#SVGID_10_);}
	.st11{fill:url(#SVGID_11_);}
	.st12{fill:url(#SVGID_12_);}
	.st13{fill:url(#SVGID_13_);}
	.st14{fill:url(#SVGID_14_);}
	.st15{fill:url(#SVGID_15_);}
	.st16{fill:url(#SVGID_16_);}
	.st17{fill:url(#SVGID_17_);}
	.st18{fill:url(#SVGID_18_);}
	.st19{fill:url(#SVGID_19_);}
	.st20{fill:url(#SVGID_20_);}
	.st21{fill:#FFFFFF;}
	.st22{fill:url(#SVGID_21_);}
	.st23{fill:url(#SVGID_22_);}
	.st24{fill:url(#SVGID_23_);}
	.st25{fill:url(#SVGID_24_);}
	.st26{fill:url(#SVGID_25_);}
	.st27{fill:url(#SVGID_26_);}
	.st28{fill:url(#SVGID_27_);}
	.st29{fill:url(#SVGID_28_);}
	.st30{fill:url(#SVGID_29_);}
	.st31{fill:url(#SVGID_30_);}
	.st32{fill:url(#SVGID_31_);}
	.st33{fill:url(#SVGID_32_);}
	.st34{fill:url(#SVGID_33_);}
	.st35{fill:url(#SVGID_34_);}
	.st36{fill:url(#SVGID_35_);}
	.st37{fill:url(#SVGID_36_);}
	.st38{fill:url(#SVGID_37_);}
	.st39{fill:url(#SVGID_38_);}
	.st40{fill:url(#SVGID_39_);}
	.st41{fill:url(#SVGID_40_);}
	.st42{fill:url(#SVGID_41_);}
	.st43{fill:url(#SVGID_42_);}
	.st44{fill:url(#SVGID_43_);}
	.st45{fill:url(#SVGID_44_);}
	.st46{fill:url(#SVGID_45_);}
	.st47{fill:url(#SVGID_46_);}
	.st48{fill:url(#SVGID_47_);}
	.st49{fill:url(#SVGID_48_);}
	.st50{fill:url(#SVGID_49_);}
	.st51{fill:url(#SVGID_50_);}
	.st52{fill:url(#SVGID_51_);}
	.st53{fill:url(#SVGID_52_);}
	.st54{fill:url(#SVGID_53_);}
	.st55{fill:url(#SVGID_54_);}
	.st56{fill:url(#SVGID_55_);}
	.st57{fill:url(#SVGID_56_);}
	.st58{fill:url(#SVGID_57_);}
	.st59{fill:url(#SVGID_58_);}
	.st60{fill:url(#SVGID_59_);}
	.st61{fill:url(#SVGID_60_);}
	.st62{fill:url(#SVGID_61_);}
	.st63{fill:url(#SVGID_62_);}
	.st64{fill:url(#SVGID_63_);}
	.st65{fill:url(#SVGID_64_);}
	.st66{fill:url(#SVGID_65_);}
	.st67{fill:url(#SVGID_66_);}
	.st68{fill:url(#SVGID_67_);}
	.st69{fill:url(#SVGID_68_);}
	.st70{fill:none;}
	.st71{fill:url(#SVGID_69_);}
	.st72{fill:url(#SVGID_70_);}
	.st73{fill:url(#SVGID_71_);}
</style>
<path class="st1" d="M794.97,375.26c0,52.02,0,103.24,0,155.53c-80.09,0-159.57,0-239.7,0c0-1.6,0-3.97,0-6.34
	c0-22.8,0.1-45.61-0.03-68.41c-0.14-24.46-16.98-41.26-41.46-41.29c-56.36-0.08-112.72-0.02-169.08-0.03c-2.57,0-5.14,0-8.34,0
	c0-13.3,0-25.92,0-39.47c-10.6,0-20.6,0-30.59,0c-1.97,0-4.06,0.39-5.89-0.14c-1.64-0.48-3.62-1.69-4.25-3.1
	c-0.43-0.98,0.92-3.09,1.96-4.28c0.96-1.1,2.56-1.64,3.88-2.41c85.39-49.67,170.81-99.31,256.14-149.1
	c5.57-3.25,10.23-3.39,15.85-0.12c85.71,50.01,171.51,99.86,257.19,149.9c2.19,1.28,3.33,4.33,4.97,6.56
	c-2.46,0.9-4.9,2.51-7.39,2.57C817.51,375.42,806.77,375.26,794.97,375.26z"/>
<linearGradient id="SVGID_1_" gradientUnits="userSpaceOnUse" x1="300.933" y1="721.0623" x2="534.2103" y2="721.0623">
	<stop  offset="0" style="stop-color:#15818E"/>
	<stop  offset="0.9944" style="stop-color:#7ECAB6"/>
</linearGradient>
<path class="st0" d="M300.94,602.12c78.08,0,155.17,0,232.94,0c0.12,2.53,0.32,4.85,0.32,7.17c0.02,69.49,0.02,138.98,0.01,208.47
	c0,15.48-6.88,22.23-22.56,22.23c-62.7,0.01-125.41,0.01-188.11,0c-15.71,0-22.57-6.72-22.58-22.22
	c-0.02-69.71-0.01-139.42-0.01-209.13C300.94,606.7,300.94,604.75,300.94,602.12z M320.79,645.03c0,7.87-0.11,15.73,0.03,23.6
	c0.12,6.72,4.26,11.25,10.12,11.45c6.04,0.2,10.77-4.51,10.85-11.46c0.16-15.29,0.18-30.59-0.01-45.88
	c-0.08-6.78-4.4-10.95-10.51-10.96c-6.11,0-10.28,4.21-10.43,10.97C320.66,630.17,320.79,637.6,320.79,645.03z"/>
<linearGradient id="SVGID_2_" gradientUnits="userSpaceOnUse" x1="552.8299" y1="737.9866" x2="817.1222" y2="737.9866">
	<stop  offset="0" style="stop-color:#15818E"/>
	<stop  offset="0.9944" style="stop-color:#7ECAB6"/>
</linearGradient>
<path class="st2" d="M552.83,840c0.87-9.3,2.3-17.7,2.33-26.1c0.2-56.57,0.11-113.13,0.11-169.7c0-2.59,0-5.17,0-8.23
	c87.32,0,174.05,0,261.85,0c0,2.14,0,4.45,0,6.75c0,62.05,0,124.1,0,186.14c0,10.12-0.96,11.12-10.73,11.12
	C723.5,840,640.61,840,557.72,840C555.77,840,553.82,840,552.83,840z M760.44,728.64c0.1-42.94-34.66-78.12-77.39-78.34
	c-43.2-0.22-79.1,35.07-78.94,77.61c0.16,43.42,34.89,78.54,77.88,78.78C724.96,806.93,760.34,771.73,760.44,728.64z"/>
<linearGradient id="SVGID_3_" gradientUnits="userSpaceOnUse" x1="300.9359" y1="508.0575" x2="534.2131" y2="508.0575">
	<stop  offset="0" style="stop-color:#15818E"/>
	<stop  offset="0.9944" style="stop-color:#7ECAB6"/>
</linearGradient>
<path class="st3" d="M300.94,580.35c0-2.36,0-4.29,0-6.22c0-38.79-0.01-77.58,0.01-116.37c0.01-14.11,7.66-21.91,21.92-21.93
	c63.13-0.07,126.26-0.07,189.38,0c14.27,0.02,21.94,7.81,21.95,21.9c0.03,38.79,0.01,77.58,0.01,116.37c0,1.94,0,3.87,0,6.25
	C456.44,580.35,379.18,580.35,300.94,580.35z M341.84,518.51c0-7.43,0.07-14.86-0.02-22.29c-0.09-7.61-4.2-12.46-10.44-12.54
	c-6.31-0.08-10.54,4.71-10.57,12.3c-0.07,14.64-0.08,29.28,0,43.92c0.04,7.7,4.13,12.19,10.67,12.07
	c6.28-0.11,10.2-4.48,10.33-11.83C341.94,532.94,341.83,525.72,341.84,518.51z"/>
<linearGradient id="SVGID_4_" gradientUnits="userSpaceOnUse" x1="555.0634" y1="582.8444" x2="816.8997" y2="582.8444">
	<stop  offset="0" style="stop-color:#15818E"/>
	<stop  offset="0.9944" style="stop-color:#7ECAB6"/>
</linearGradient>
<path class="st4" d="M816.88,614.12c-87.33,0-174.01,0-261.61,0c0-8.1,0-15.9,0-23.7c0-9.2,0.48-18.44-0.16-27.59
	c-0.46-6.56,2.74-9.29,8.15-10.52c2.94-0.67,6.08-0.71,9.12-0.71c73.41-0.04,146.82-0.03,220.22-0.02
	c15.66,0,24.19,8.55,24.27,24.37C816.93,588.42,816.88,600.89,816.88,614.12z M681.54,572.53c-8.11,0-16.23-0.14-24.34,0.04
	c-6.73,0.15-11.18,4.5-11.16,10.42c0.02,5.8,4.6,10.42,11.22,10.49c16.22,0.18,32.45,0.18,48.68,0.01
	c7.17-0.07,11.52-4.53,11.35-10.88c-0.17-6.02-4.44-9.94-11.41-10.06C697.77,572.41,689.66,572.52,681.54,572.53z M761.99,582.62
	c-0.16-5.84-4.82-10.21-10.69-10.03c-5.78,0.18-10.31,4.99-10.09,10.72c0.21,5.67,5.23,10.39,10.8,10.18
	C757.72,593.27,762.14,588.46,761.99,582.62z M779.96,593.49c5.6-0.2,10.35-5.26,10.17-10.85c-0.18-5.71-5.03-10.22-10.82-10.06
	c-5.86,0.16-10.17,4.78-10,10.71C769.48,589.1,774.27,593.7,779.96,593.49z"/>
<path class="st1" d="M390.68,289.08c0-13.66,0-26.06,0-38.47c0-4.35,2.58-5.54,6.43-5.52c11.83,0.06,23.66-0.16,35.48,0.17
	c2.34,0.07,6.47,1.94,6.58,3.26c0.38,4.28,0.86,11.11-1.51,12.66C422.75,270.93,407.07,279.53,390.68,289.08z"/>
<linearGradient id="SVGID_5_" gradientUnits="userSpaceOnUse" x1="625.1739" y1="728.488" x2="739.368" y2="728.488">
	<stop  offset="0" style="stop-color:#15818E"/>
	<stop  offset="0.9944" style="stop-color:#7ECAB6"/>
</linearGradient>
<path class="st5" d="M739.37,728.32c0.05,31.63-25.75,57.45-57.24,57.3c-31.18-0.15-56.84-25.86-56.96-57.07
	c-0.12-31.44,25.78-57.24,57.39-57.18C713.89,671.42,739.32,696.92,739.37,728.32z"/>
</svg>
