<?xml version="1.0" encoding="utf-8"?>
<!-- Generator: Adobe Illustrator 27.3.1, SVG Export Plug-In . SVG Version: 6.00 Build 0)  -->
<svg version="1.1" id="Layer_1" xmlns="http://www.w3.org/2000/svg" xmlns:xlink="http://www.w3.org/1999/xlink" x="0px" y="0px"
	 viewBox="0 0 1080 1080" style="enable-background:new 0 0 1080 1080;" xml:space="preserve">
<style type="text/css">
	.st0{fill:#EB382E;}
	.st1{fill:url(#SVGID_1_);}
	.st2{fill:url(#SVGID_00000018940540328980628970000005605870179378169985_);}
	.st3{fill:url(#SVGID_00000170265738884472938160000001264278383268648843_);}
	.st4{fill:url(#SVGID_00000059290316605264242220000001117355512235087235_);}
	.st5{fill:url(#SVGID_00000013164250552083840090000003517530547438389890_);}
	.st6{fill:#FFFFFF;}
	.st7{fill:url(#SVGID_00000146473542881086760960000014411134648041859764_);}
	.st8{fill:url(#SVGID_00000131336982758475209930000003554356546795859633_);}
	.st9{fill:url(#SVGID_00000120522537055361377240000016358981269003665815_);}
	.st10{fill:url(#SVGID_00000160912632922271932770000001060232388082137527_);}
	.st11{fill:url(#SVGID_00000096778960522924000310000002209589798737184134_);}
	.st12{fill:url(#SVGID_00000080902300183769833320000000731810568042214555_);}
	.st13{fill:url(#SVGID_00000101078020308574362070000016041296435341227164_);}
	.st14{fill:url(#SVGID_00000060722933826779185480000016700931816150808733_);}
	.st15{fill:url(#SVGID_00000049201870392815955290000015893164087418781359_);}
	.st16{fill:url(#SVGID_00000044892662477262318710000001158788428897853330_);}
	.st17{fill:url(#SVGID_00000106108773600762723040000014757950941887222958_);}
	.st18{fill:url(#SVGID_00000099634170871243744290000018309578943099773349_);}
	.st19{fill:url(#SVGID_00000140713310794054389800000003622337580574914180_);}
	.st20{fill:url(#SVGID_00000168798937881450515940000005897087357089255077_);}
	.st21{fill:url(#SVGID_00000183248938212919498940000007085402460973578415_);}
	.st22{fill:url(#SVGID_00000011711569212401705950000008836875997616135095_);}
	.st23{fill:url(#SVGID_00000178169869266471338260000014230948292705818775_);}
	.st24{fill:url(#SVGID_00000003103729047673345950000012703016821908157369_);}
	.st25{fill:url(#SVGID_00000132807655345793421240000013555043286044887719_);}
	.st26{fill:url(#SVGID_00000152964152269834988100000017044823272173620361_);}
	.st27{fill:url(#SVGID_00000119113292688811475360000017897546965231953329_);}
	.st28{fill:url(#SVGID_00000183957628621272210360000013440585325670103977_);}
	.st29{fill:url(#SVGID_00000021115369282101502170000013062289027165902475_);}
	.st30{fill:url(#SVGID_00000057115737658867869430000006550912069824481464_);}
	.st31{fill:url(#SVGID_00000149381820336731926100000016495513875396434087_);}
	.st32{fill:url(#SVGID_00000119110090166871843090000016355983598778702747_);}
	.st33{fill:url(#SVGID_00000043456192206089198650000010410225185081923727_);}
	.st34{fill:url(#SVGID_00000013877071468137430230000017962824626448681348_);}
	.st35{fill:url(#SVGID_00000147901780469740306920000000050629615652071593_);}
	.st36{fill:url(#SVGID_00000181045191076388908130000009823956333084977061_);}
	.st37{fill:url(#SVGID_00000134211629036777787650000009845120970807514543_);}
	.st38{fill:url(#SVGID_00000002376371871284489300000004397248690711621823_);}
	.st39{fill:url(#SVGID_00000034067847367904142830000000611276243866873984_);}
	.st40{fill:url(#SVGID_00000177484830157852926400000010687965282282989713_);}
	.st41{fill:url(#SVGID_00000152243142323928658520000016955193676791596166_);}
	.st42{fill:url(#SVGID_00000021108256227960126400000015461803187294240947_);}
	.st43{fill:url(#SVGID_00000004531747626552471160000014113026854046195585_);}
	.st44{fill:url(#SVGID_00000106867684073747117690000014738517520708603568_);}
	.st45{fill:url(#SVGID_00000013879770540112961110000017973091387071658425_);}
	.st46{fill:url(#SVGID_00000151504039780124682640000003689502443954319493_);}
	.st47{fill:url(#SVGID_00000148626831399114541460000002875812541098125218_);}
	.st48{fill:url(#SVGID_00000133530375443950738530000017361778571648153789_);}
	.st49{fill:url(#SVGID_00000014635150864891253140000006384946355104390563_);}
	.st50{fill:url(#SVGID_00000080887333933379969080000009332588600004602533_);}
	.st51{fill:url(#SVGID_00000171693334104059037000000005058155823988905403_);}
</style>
<linearGradient id="SVGID_1_" gradientUnits="userSpaceOnUse" x1="296.11" y1="554.5216" x2="820.8088" y2="554.5216">
	<stop  offset="0" style="stop-color:#7ECAB6"/>
	<stop  offset="1" style="stop-color:#15818E"/>
</linearGradient>
<path class="st1" d="M488.69,667.5c-11.46,52.43-58.66,76.49-98.97,69.13c-43.95-8.03-72.72-45.1-70.59-90.5
	c1.89-40.35,36.18-75.25,77.46-78.82c36.82-3.19,78.39,21.92,85.43,52.15c-12.79,0-25.44-0.13-38.08,0.05
	c-6.52,0.09-12.14-0.94-18.08-4.65c-20.68-12.88-48.1-4.95-59.93,16.48c-11.79,21.36-3.72,48.39,17.85,59.82
	c21.51,11.4,48.71,2.74,59.47-18.96c0.64-1.29,0.99-2.72,1.7-4.71c-10.27,0-19.91,0.01-29.56,0c-10.8-0.01-16.46-5-16.38-14.4
	c0.08-9.39,5.66-14.15,16.59-14.25c30.02-0.27,60.04-0.56,90.05-0.86c1.3-0.01,2.6-0.11,4.4-0.19
	c-2.07-17.07-8.24-32.17-17.62-45.95c-37.78-55.51-115.87-62.42-164.39-14.65c-0.81,0.8-1.6,1.62-2.4,2.44
	c-7.99,8.16-15.42,8.96-22.93,2.47c-7.8-6.74-9.05-17.62-1.85-25.35c6.31-6.77,13.71-12.52,20.68-18.67
	c1.41-1.24,3.03-2.25,4.87-3.6c-14.52-13.76-9.9-31.2-8.6-47.39c0.93-11.56,11.64-19.21,23.4-19.29c23.75-0.16,47.5-0.03,71.25,0.06
	c10,0.04,19.23,3.15,27.18,8.95c14.02,10.22,29.41,14.34,46.62,12.88c7.36-0.63,14.83,0.07,22.22-0.32
	c10.36-0.54,13.99-3.61,17.15-13.49c6.97-21.79,22.96-33.58,45.93-33.67c19.95-0.08,39.9-0.02,59.86-0.02c2.06,0,4.12,0,7.1,0
	c-5.6-14.31-10.89-27.83-16.28-41.6c-7.4,0-14.6,0.06-21.81-0.01c-9.38-0.09-15.4-5.78-15.51-14.53
	c-0.11-8.94,6.04-14.83,15.74-14.89c10.07-0.07,20.14,0.06,30.21-0.04c7.81-0.08,12.8,3.46,15.62,10.76
	c8.61,22.3,17.4,44.53,26.14,66.78c0.68,1.73,1.47,3.42,2.47,5.73c10.63-12.34,24.19-13.29,38.43-11.62
	c8.01,0.94,11.67,4.53,11.87,12.58c0.34,13.48,0.33,26.99,0.1,40.47c-0.16,9.38-4.11,13.36-13.56,14.11
	c-4.71,0.37-9.47,0.07-15.3,0.07c7.81,19.9,15.31,39.01,22.9,58.37c26.9-4.17,50.84,1.89,71.47,19.39
	c15.33,13.01,24.77,29.68,28.37,49.4c7.41,40.56-15.36,80.74-53.62,95.16c-38.79,14.62-82.28-0.45-103.61-35.92
	c-20.25-33.67-14.38-79.82,13.54-104.35c0.58,0.91,1.29,1.71,1.66,2.64c5.26,13.22,10.58,26.42,15.59,39.73
	c0.78,2.07,0.57,4.79,0.03,7.02c-5.82,24.1,8.4,47.89,32.15,53.52c23.95,5.68,47.32-8.89,52.95-33
	c6.2-26.53-14.94-53.55-42.16-52.71c0.79,2.25,1.45,4.28,2.22,6.27c3.66,9.37,7.41,18.7,11.01,28.08c3.59,9.36,0.7,16.94-7.57,20.3
	c-8.49,3.45-16.1-0.18-19.84-9.69c-16.04-40.78-32.03-81.59-48.04-122.38c-0.54-1.37-1.16-2.72-2.21-5.16
	c-1.38,3-2.43,5.08-3.31,7.24c-13.36,32.46-26.68,64.93-40.06,97.38c-1.37,3.33-3.01,6.55-4.52,9.82
	c-7.43,16.1-20.49,23.88-37.71,25.24c-7.75,0.62-15.54,1.04-23.32,1.09c-22.61,0.14-45.22,0.05-67.84,0.05
	C492.7,667.5,490.63,667.5,488.69,667.5z"/>
<path class="st0" d="M397.97,736.92c-0.3-0.23-0.57-0.61-0.9-0.66c-3.74-0.58-7.52-0.93-11.22-1.71c-3.46-0.73-6.85-1.83-10.22-2.94
	c-2.41-0.79-4.78-1.75-7.08-2.81c-2.41-1.11-4.79-2.33-7.08-3.66c-6.38-3.69-12.2-8.14-17.43-13.33c-4.84-4.81-9.2-10.03-12.6-15.96
	c-2.31-4.04-4.58-8.15-6.37-12.44c-1.66-4-2.76-8.25-3.93-12.43c-2.6-9.33-2.7-18.87-1.99-28.42c0.26-3.49,1.07-6.94,1.74-10.38
	c0.43-2.19,0.99-4.37,1.65-6.5c0.74-2.39,1.55-4.77,2.55-7.06c1.22-2.83,2.6-5.59,4.03-8.32c2.2-4.22,4.88-8.12,7.8-11.88
	c3.24-4.17,6.84-7.98,10.79-11.46c4.32-3.81,8.93-7.27,14.02-9.99c3.46-1.85,6.97-3.65,10.57-5.19c2.79-1.19,5.76-1.95,8.65-2.88
	c5.32-1.72,10.82-2.64,16.37-3c6.44-0.42,12.91-0.58,19.3,0.71c4.23,0.86,8.54,1.51,12.64,2.8c4.39,1.38,8.62,3.3,12.83,5.18
	c6.03,2.69,11.43,6.42,16.5,10.61c4.99,4.12,9.6,8.65,13.35,13.95c2.69,3.81,5.14,7.78,7.6,11.74c0.99,1.6,1.74,3.35,2.52,5.07
	c0.74,1.63,0.34,2.14-1.5,2.14c-15.23-0.01-30.46-0.03-45.69,0.02c-1.6,0.01-2.79-0.53-3.98-1.49c-2.74-2.21-5.68-4.14-8.98-5.39
	c-2.91-1.1-5.83-2.34-8.85-2.98c-4.38-0.93-8.88-1.35-13.37-0.64c-2.89,0.46-5.84,0.82-8.61,1.69c-4.95,1.55-9.55,3.92-13.65,7.16
	c-4.56,3.61-8.42,7.85-11.28,12.93c-2.53,4.5-4.31,9.27-5.1,14.42c-0.5,3.26-0.9,6.52-0.61,9.81c0.39,4.35,1.2,8.6,2.73,12.75
	c2.72,7.36,7.09,13.53,13.13,18.45c2.61,2.12,5.61,3.78,8.53,5.48c3.36,1.96,7.08,3.05,10.89,3.77c5.75,1.08,11.5,1.11,17.27-0.06
	c4.09-0.83,7.96-2.22,11.63-4.14c4.41-2.31,8.3-5.34,11.68-9.01c3.57-3.87,6.35-8.24,8.4-13.08c0.19-0.44,0.21-0.95,0.33-1.52
	c14.34,0,28.78,0,43.4,0c-0.99,3.76-1.86,7.49-2.98,11.15c-0.78,2.53-1.79,5.01-2.89,7.43c-1.49,3.25-3.01,6.52-4.81,9.61
	c-4.26,7.32-9.46,13.94-15.84,19.54c-3.56,3.12-7.32,6.05-11.22,8.74c-2.93,2.03-6.15,3.68-9.36,5.25
	c-3.11,1.52-6.31,2.91-9.58,4.01c-5.49,1.85-11.08,3.37-16.89,3.87c-1.15,0.1-2.31,0.21-3.45,0.41c-0.33,0.06-0.6,0.43-0.9,0.66
	C406.32,736.92,402.14,736.92,397.97,736.92z"/>
<path class="st0" d="M729.44,736.92c-0.34-0.23-0.66-0.62-1.02-0.67c-3.85-0.6-7.75-0.97-11.56-1.78c-3.34-0.71-6.63-1.78-9.86-2.92
	c-3.04-1.08-6.09-2.24-8.93-3.76c-4.24-2.27-8.42-4.7-12.39-7.41c-5.9-4.02-11-8.99-15.59-14.46c-3.33-3.97-6.38-8.16-8.78-12.76
	c-1.85-3.55-3.66-7.14-5.22-10.82c-1.14-2.69-1.91-5.54-2.74-8.35c-0.54-1.81-0.91-3.67-1.32-5.51c-1.44-6.6-2.15-13.28-1.85-20.03
	c0.29-6.49,1.02-12.95,2.93-19.2c1.19-3.9,2.4-7.82,3.93-11.6c1.91-4.68,4.39-9.09,7.18-13.32c3.1-4.69,6.64-9.01,10.54-13.04
	c1.06-1.1,1.8-0.98,2.36,0.48c1.67,4.31,3.3,8.64,4.99,12.94c1.71,4.34,3.49,8.65,5.2,12.98c1.33,3.37,2.59,6.77,3.91,10.14
	c0.93,2.37,1.98,4.69,2.83,7.08c0.26,0.74,0.22,1.66,0.07,2.45c-0.6,3.02-1.66,5.99-1.89,9.02c-0.29,3.83-0.28,7.75,0.2,11.56
	c0.76,5.95,2.98,11.46,6.2,16.56c3.27,5.18,7.47,9.45,12.48,12.9c3.28,2.26,6.87,3.91,10.65,5.23c6.58,2.3,13.32,2.67,20.13,1.83
	c4.49-0.55,8.77-1.97,12.88-3.98c5.6-2.75,10.41-6.45,14.41-11.23c2.66-3.18,4.79-6.69,6.53-10.47c2.56-5.59,3.67-11.47,3.69-17.54
	c0.01-3.61-0.35-7.22-1.28-10.78c-0.95-3.66-2.26-7.14-4.05-10.42c-2.45-4.46-5.59-8.42-9.45-11.78c-3.31-2.88-6.95-5.23-10.95-7.05
	c-4.91-2.24-10.05-3.45-15.41-3.77c-0.68-0.04-1.37-0.01-2.34-0.01c-5.49-13.27-11.08-26.77-16.64-40.27
	c-0.06-0.15,0.12-0.41,0.1-0.36c1.04,0,1.95,0.14,2.81-0.02c6.04-1.19,12.16-1.39,18.25-0.96c4.57,0.32,9.12,1.09,13.62,1.95
	c3.36,0.64,6.69,1.58,9.92,2.7c3.19,1.11,6.29,2.51,9.33,4.01c2.87,1.41,5.65,3,8.37,4.68c6.11,3.78,11.59,8.35,16.46,13.63
	c5.13,5.56,9.54,11.62,13.03,18.36c2.22,4.28,4.11,8.69,5.65,13.27c3.78,11.27,5.07,22.82,3.98,34.62
	c-0.46,5.03-1.19,10.05-2.82,14.88c-1.27,3.76-2.37,7.59-3.89,11.24c-1.96,4.7-4.49,9.12-7.31,13.38
	c-4.63,6.98-10.19,13.13-16.66,18.4c-3.4,2.77-7.07,5.23-10.8,7.54c-3.17,1.96-6.54,3.61-9.93,5.19c-2.4,1.11-4.94,1.99-7.48,2.74
	c-3.21,0.95-6.47,1.81-9.75,2.47c-3.06,0.61-6.18,0.9-9.27,1.38c-0.41,0.06-0.77,0.44-1.16,0.67
	C737.63,736.92,733.54,736.92,729.44,736.92z"/>
</svg>
