<?xml version="1.0" encoding="utf-8"?>
<!-- Generator: Adobe Illustrator 27.3.1, SVG Export Plug-In . SVG Version: 6.00 Build 0)  -->
<svg version="1.1" id="Layer_1" xmlns="http://www.w3.org/2000/svg" xmlns:xlink="http://www.w3.org/1999/xlink" x="0px" y="0px"
	 viewBox="0 0 1080 1080" style="enable-background:new 0 0 1080 1080;" xml:space="preserve">
<style type="text/css">
	.st0{fill:#EB382E;}
	.st1{fill:url(#SVGID_1_);}
	.st2{fill:url(#SVGID_00000109009108869585052560000006962587968460748214_);}
	.st3{fill:url(#SVGID_00000120541046453948753460000014745153331137172915_);}
	.st4{fill:url(#SVGID_00000166646619597109027800000012126801629474564745_);}
	.st5{fill:url(#SVGID_00000005265186774436314270000003147883113290424224_);}
	.st6{fill:url(#SVGID_00000034067112865809785850000006888907772349828532_);}
	.st7{fill:url(#SVGID_00000178926324720917537380000008382762652525410472_);}
	.st8{fill:url(#SVGID_00000078043127356971502200000014842697856066697133_);}
	.st9{fill:url(#SVGID_00000168835203938252918430000006067147864008119433_);}
	.st10{fill:url(#SVGID_00000109713722066355609750000001063766758093729946_);}
	.st11{fill:url(#SVGID_00000134949435051308061170000012531973317546867847_);}
	.st12{fill:url(#SVGID_00000132792493822492921030000008012911110761944974_);}
	.st13{fill:url(#SVGID_00000083063621967063107930000012526168353127326378_);}
	.st14{fill:url(#SVGID_00000114058096562107469490000009171565530722506415_);}
	.st15{fill:url(#SVGID_00000085235720854167068460000015788474739746773398_);}
	.st16{fill:url(#SVGID_00000169525466847735610640000004449863952286671249_);}
	.st17{fill:url(#SVGID_00000150100153281834939260000001148481166683666105_);}
	.st18{fill:url(#SVGID_00000066476720643560728190000011179577735705662865_);}
	.st19{fill:url(#SVGID_00000155137476936388625150000009954066582046842001_);}
	.st20{fill:url(#SVGID_00000069372721826133670700000015062346378230163625_);}
	.st21{fill:url(#SVGID_00000078745045518835215040000001346520704948521916_);}
	.st22{fill:url(#SVGID_00000127764298631375817510000014189980304497567374_);}
	.st23{fill:url(#SVGID_00000115493052973615936330000015077214571592873119_);}
	.st24{fill:url(#SVGID_00000128459518915634785540000010308605957567042203_);}
	.st25{fill:url(#SVGID_00000012450454697054914550000012833458745434834872_);}
	.st26{fill:url(#SVGID_00000034770844002993012950000000972790405405410448_);}
	.st27{fill:url(#SVGID_00000165229010811269131020000004451917922579470269_);}
	.st28{fill:url(#SVGID_00000114064984018301838870000009160073025855345845_);}
	.st29{fill:url(#SVGID_00000077307562216711238460000014335541216154744474_);}
	.st30{fill:url(#SVGID_00000163763662765526018130000016318171406040778410_);}
	.st31{fill:url(#SVGID_00000088092554926837418770000004709232941018447236_);}
	.st32{fill:url(#SVGID_00000025441870328164210290000006750274078867296668_);}
	.st33{fill:url(#SVGID_00000036930446945460022580000000872000744536392345_);}
	.st34{fill:url(#SVGID_00000118387159324876932730000003341184599370143422_);}
	.st35{fill:url(#SVGID_00000041986398581322259880000014263667818451147698_);}
	.st36{fill:url(#SVGID_00000075857870140626883910000015039985364313271450_);}
	.st37{fill:#FFFFFF;}
	.st38{stroke:#000000;stroke-width:6;stroke-miterlimit:10;}
	.st39{fill:url(#SVGID_00000176752916513527601310000018289477467802589089_);}
	.st40{fill:url(#SVGID_00000090988261043284228800000017705660546398992273_);}
	.st41{fill:url(#SVGID_00000116193396729313884460000017729909942534135951_);}
</style>
<linearGradient id="SVGID_1_" gradientUnits="userSpaceOnUse" x1="612.1558" y1="607.146" x2="794.413" y2="607.146">
	<stop  offset="0" style="stop-color:#7ECAB6"/>
	<stop  offset="1" style="stop-color:#15818E"/>
</linearGradient>
<path class="st1" d="M716.46,800.49c-2.57-0.81-5.29-1.32-7.69-2.49c-9.3-4.55-14.48-12.02-14.49-22.48
	c-0.07-76.44-0.05-152.87-0.05-229.31c0-0.62,0.12-1.25,0.23-2.33c7.67-1.34,15.36-2.62,23.02-4.03
	c10.29-1.9,17.68-7.38,20.54-17.76c5.06-18.35,9.92-36.75,14.85-55.14c0.11-0.43-0.03-0.92-0.12-2.45
	c-1.19,2.34-1.97,3.82-2.71,5.33c-7.32,14.94-14.75,29.84-21.92,44.86c-3.74,7.83-9.46,12.48-18.15,13.93
	c-24.63,4.13-49.2,8.6-73.81,12.81c-10.92,1.87-21.42-5.26-23.55-15.7c-2.31-11.36,4.09-22.03,15.6-24.29
	c19.79-3.89,39.68-7.23,59.58-10.49c4.83-0.79,7.81-2.45,9.93-7.22c5.3-11.95,11.34-23.57,17.09-35.32
	c-0.34-0.24-0.68-0.47-1.02-0.71c-6.2,8.17-12.4,16.35-19.46,25.66c-0.18-13.5,3.27-24.45,10.18-34.11
	c13.16-18.38,31.14-27.12,53.84-25.17c20.17,1.74,35.75,19.96,35.98,41.9c0.15,14.26,0.03,28.52,0.03,42.79
	c-0.03,91.18-0.1,182.36-0.08,273.54c0,11.35-3.8,20.37-14.44,25.54c-2.4,1.17-5.06,1.78-7.61,2.64c-1.6,0-3.21,0-4.81,0
	c-3.97-1.57-8.34-2.54-11.84-4.84c-8.25-5.41-10.69-13.72-10.66-23.29c0.13-45.63,0.06-91.26,0.06-136.89c0-2.02,0-4.03,0-6.18
	c-5.78,0-10.83,0-16.45,0c0,2.32,0,4.35,0,6.38c0,43.23,0.02,86.45-0.02,129.68c-0.01,10.1-0.39,20.23,5.53,30.22
	c-4.63,1.78-8.71,3.35-12.79,4.92C719.67,800.49,718.06,800.49,716.46,800.49z"/>
<linearGradient id="SVGID_00000023959254645783804640000003515863029971653249_" gradientUnits="userSpaceOnUse" x1="301.9204" y1="607.0284" x2="484.0503" y2="607.0284">
	<stop  offset="0" style="stop-color:#7ECAB6"/>
	<stop  offset="1" style="stop-color:#15818E"/>
</linearGradient>
<path style="fill:url(#SVGID_00000023959254645783804640000003515863029971653249_);" d="M301.92,450.46
	c2.75-6.72,4.34-14.27,8.47-19.99c11.61-16.04,28.23-19.54,46.68-15.19c24.11,5.68,41.59,25.63,44.68,50.22
	c0.21,1.71,0.03,3.47,0.03,6.47c-8.13-11.27-15.63-21.68-23.14-32.09c-0.27,0.13-0.55,0.26-0.82,0.39c0.46,1.18,0.84,2.4,1.39,3.54
	c6.87,14.09,13.85,28.14,20.6,42.29c1.25,2.63,2.84,3.77,5.65,4.24c19.73,3.31,39.43,6.81,59.16,10.18
	c12.67,2.16,20.18,10.69,19.36,22.14c-0.86,11.95-11.39,20.78-23.22,18.82c-25.43-4.21-50.8-8.72-76.18-13.21
	c-7.89-1.4-12.94-6.33-16.36-13.44c-8.53-17.74-17.25-35.38-25.9-53.06c-0.69-1.41-1.47-2.78-2.83-3.97
	c0.29,1.29,0.52,2.61,0.89,3.87c5.74,19.49,11.53,38.96,17.24,58.45c3.35,11.43,10.61,18.22,22.6,19.92
	c7.13,1.01,14.19,2.5,21.85,3.88c0,2.04,0,4.08,0,6.11c-0.01,73.23-0.01,146.46-0.02,219.7c0,18.82-4.55,25.11-22.23,30.74
	c-1.6,0-3.21,0-4.81,0c-4.08-1.57-8.16-3.14-12.79-4.92c5.92-9.99,5.54-20.12,5.53-30.22c-0.04-43.23-0.02-86.45-0.02-129.68
	c0-2.03,0-4.06,0-6.28c-5.73,0-10.87,0-16.45,0c0,2.29,0,4.18,0,6.08c0,45.31,0.02,90.62-0.04,135.92c0,3.49-0.07,7.11-0.92,10.46
	c-2.82,11.06-10.92,16.35-21.49,18.64c-1.6,0-3.21,0-4.81,0c-12.05-2.69-19.52-9.98-22.12-22.12
	C301.92,669.07,301.92,559.76,301.92,450.46z"/>
<path class="st0" d="M678.25,479.97c-17.24,3.02-34.15,5.68-50.95,8.98c-23.24,4.56-34.39,28.53-23.01,48.77
	c7.12,12.67,21.24,18.29,37.77,15.24c11.92-2.2,23.89-4.18,35.91-6.27c0,5.5,0.54,10.65-0.13,15.63
	c-0.94,6.98-7.32,12.16-14.81,12.95c-1.9,0.2-3.84,0.14-5.76,0.14c-72.92,0.01-145.84,0.01-218.76,0
	c-16.35,0-22.06-5.65-22.06-21.84c0-2.21,0-4.43,0-7.2c11.06,1.92,21.58,3.75,32.1,5.56c7.88,1.36,15.74,3.22,23.75,0.89
	c15.11-4.41,24.61-17.46,24.08-33.03c-0.52-15.29-11.36-27.79-27.37-30.86c-16.19-3.1-32.45-5.84-48.72-8.51
	c-3.05-0.5-3.91-1.56-3.9-4.57c0.1-33.01,0.01-66.02,0.09-99.02c0.03-11.05,6.46-17.62,17.44-18.23c1.28-0.07,2.56-0.04,3.85-0.04
	c73.24,0,146.48-0.02,219.72,0.06c3.62,0,7.47,0.32,10.82,1.56c5.63,2.08,8.91,6.59,9.81,12.62c0.24,1.58,0.34,3.19,0.34,4.79
	c0.02,32.85,0.02,65.7,0.01,98.54C678.46,477.25,678.34,478.35,678.25,479.97z"/>
<linearGradient id="SVGID_00000182486506839802787280000012488726967113502606_" gradientUnits="userSpaceOnUse" x1="304.0089" y1="356.3126" x2="399.9908" y2="356.3126">
	<stop  offset="0" style="stop-color:#7ECAB6"/>
	<stop  offset="1" style="stop-color:#15818E"/>
</linearGradient>
<path style="fill:url(#SVGID_00000182486506839802787280000012488726967113502606_);" d="M399.99,356.38
	c-0.02,26.2-21.89,47.97-48.12,47.91c-26.13-0.06-48.04-22.13-47.86-48.2c0.18-25.89,22.04-47.68,47.92-47.75
	C377.99,308.27,400.01,330.28,399.99,356.38z"/>
<linearGradient id="SVGID_00000008141064831803945430000005595086836444021673_" gradientUnits="userSpaceOnUse" x1="696.2972" y1="356.312" x2="792.2784" y2="356.312">
	<stop  offset="0" style="stop-color:#7ECAB6"/>
	<stop  offset="1" style="stop-color:#15818E"/>
</linearGradient>
<path style="fill:url(#SVGID_00000008141064831803945430000005595086836444021673_);" d="M744.22,404.29
	c-26.21-0.02-47.99-21.88-47.93-48.1c0.06-26.07,22.24-48.07,48.25-47.85c25.93,0.22,47.7,22.08,47.73,47.94
	C792.31,382.4,770.38,404.31,744.22,404.29z"/>
</svg>
