<?xml version="1.0" encoding="utf-8"?>
<!-- Generator: Adobe Illustrator 27.3.1, SVG Export Plug-In . SVG Version: 6.00 Build 0)  -->
<svg version="1.1" id="Layer_1" xmlns="http://www.w3.org/2000/svg" xmlns:xlink="http://www.w3.org/1999/xlink" x="0px" y="0px"
	 viewBox="0 0 1080 1080" style="enable-background:new 0 0 1080 1080;" xml:space="preserve">
<style type="text/css">
	.st0{fill:#EB382E;}
	.st1{fill:url(#SVGID_1_);}
	.st2{fill:url(#SVGID_00000152974181563478488760000004247659150997410452_);}
	.st3{fill:url(#SVGID_00000162332828283966039690000010384450652394903974_);}
	.st4{fill:url(#SVGID_00000068650290769182021390000010473124433859588258_);}
	.st5{fill:url(#SVGID_00000004515976421506768690000008377908211470615693_);}
	.st6{fill:url(#SVGID_00000034796728973480053880000004940294740443902908_);}
	.st7{fill:url(#SVGID_00000101821665182760619910000006908037064968094618_);}
	.st8{fill:url(#SVGID_00000005239512496755859020000010170336519552207262_);}
	.st9{fill:url(#SVGID_00000183226141478782559810000013764360695334055059_);}
	.st10{fill:url(#SVGID_00000005978330309451411670000009820418493140691353_);}
	.st11{fill:url(#SVGID_00000171688186659816698090000007746609276670516622_);}
	.st12{fill:url(#SVGID_00000019645301099065753230000009895067378182733211_);}
	.st13{fill:url(#SVGID_00000071543270763292072330000016684793368064335489_);}
	.st14{fill:url(#SVGID_00000049939807875019368450000005381816887426078635_);}
	.st15{fill:url(#SVGID_00000145752617045815414460000006961149119519576469_);}
	.st16{fill:url(#SVGID_00000079451327267048989640000012669620653258381500_);}
	.st17{fill:url(#SVGID_00000179614794379240387640000006265452724820259755_);}
	.st18{fill:url(#SVGID_00000146481272267862619920000007414487598684758198_);}
	.st19{fill:url(#SVGID_00000089574876873844421810000015258187505915620758_);}
	.st20{fill:url(#SVGID_00000143598293586572251770000009335235116584531864_);}
	.st21{fill:url(#SVGID_00000139265070482777429890000010661221669581322922_);}
	.st22{fill:url(#SVGID_00000074416232197650039220000003917759766009867948_);}
	.st23{fill:url(#SVGID_00000005236189832174576160000012530526488043725455_);}
	.st24{fill:url(#SVGID_00000152972520569686899610000005122329026549495970_);}
	.st25{fill:url(#SVGID_00000054227620240826531970000005300427627001351068_);}
	.st26{fill:url(#SVGID_00000118365953473704177890000017262429186175060136_);}
	.st27{fill:url(#SVGID_00000111894597638771403210000009203524416526100639_);}
	.st28{fill:url(#SVGID_00000075129241328640027080000017173922975430106260_);}
	.st29{fill:url(#SVGID_00000067948356220654141450000005893825527805700261_);}
	.st30{fill:url(#SVGID_00000168118248405997641680000007848851147571138946_);}
	.st31{fill:url(#SVGID_00000178905966376469915460000011496459520175661971_);}
	.st32{fill:url(#SVGID_00000082327153402524456960000000844992630726331780_);}
	.st33{fill:url(#SVGID_00000085230225407905302000000011847635589471606717_);}
	.st34{fill:url(#SVGID_00000183931692728620798790000003232321556218244001_);}
	.st35{fill:url(#SVGID_00000025400914665774710990000010415213440659134338_);}
	.st36{fill:url(#SVGID_00000029767677205178707110000006488189871406046627_);}
	.st37{fill:#FFFFFF;}
	.st38{stroke:#000000;stroke-width:6;stroke-miterlimit:10;}
	.st39{fill:url(#SVGID_00000129923433946360520520000012566087433347823754_);}
	.st40{fill:url(#SVGID_00000063598890015912893600000006690420055962431127_);}
	.st41{fill:url(#SVGID_00000121989891300092337220000017643868587670808712_);}
</style>
<linearGradient id="SVGID_1_" gradientUnits="userSpaceOnUse" x1="350.8318" y1="662.2458" x2="835.3275" y2="662.2458">
	<stop  offset="0" style="stop-color:#7ECAB6"/>
	<stop  offset="1" style="stop-color:#15818E"/>
</linearGradient>
<path class="st1" d="M350.83,659.86c10.96-9.71,22.17-18.51,32.04-28.62c24.73-25.36,55.56-36.15,89.76-40.61
	c40.94-5.34,81.74-11.79,122.64-17.46c7.41-1.03,15.14-1.5,22.5-0.56c9.43,1.21,15.74,7.43,17.87,16.82
	c2.2,9.71-2.03,17.28-10.1,22.23c-5.75,3.53-12.17,6.07-18.48,8.59c-28.47,11.38-57.01,22.6-85.53,33.87
	c-0.53,0.21-1.1,0.32-1.61,0.55c-4.07,1.79-6.9,4.47-4.96,9.24c1.87,4.62,5.65,5.15,9.92,3.49c12.35-4.81,25.03-8.94,36.91-14.7
	c10.72-5.19,21.28-5.07,32.54-3.68c25.76,3.18,51.58,5.93,77.41,8.55c3.35,0.34,7.23-0.47,10.28-1.95
	c35.08-17.05,70.06-34.29,105.03-51.57c10.18-5.03,20.8-7.15,31.1-1.8c5.61,2.91,10.73,7.73,14.58,12.81
	c4.52,5.98,3.02,9.35-3.57,13.17c-39.36,22.75-78.72,45.48-118.08,68.22c-1.48,0.85-3.05,1.57-4.42,2.56
	c-20.3,14.73-43.63,20.51-67.93,24.96c-56.27,10.3-112.74,17.16-170.05,15.9c-11.86-0.26-22.25,4.01-31.41,12.53
	C408.5,721.6,379.84,690.92,350.83,659.86z"/>
<path class="st0" d="M494.66,381.74c25.15-4.38,49.33-8.7,73.57-12.7c3.66-0.6,5.6-2.16,7.23-5.3
	c10.48-20.15,21.13-40.22,31.72-60.31c0.88-1.66,1.8-3.3,3.11-5.69c1.25,2.27,2.23,3.97,3.14,5.7
	c10.6,20.09,21.24,40.16,31.73,60.31c1.63,3.12,3.56,4.65,7.24,5.25c24.25,3.97,48.45,8.29,73.63,12.67
	c-1.87,2.02-3.19,3.52-4.58,4.95c-15.58,16.05-31.06,32.19-46.85,48.03c-3.24,3.25-3.91,6.38-3.27,10.6
	c3.36,22.09,6.55,44.2,9.77,66.31c0.24,1.65,0.28,3.34,0.48,5.98c-2.45-1.12-4.25-1.9-6.01-2.76c-20.21-9.93-40.46-19.79-60.6-29.88
	c-3.39-1.7-6.08-1.62-9.42,0.05c-20.31,10.17-40.71,20.15-61.09,30.18c-1.51,0.74-3.07,1.37-5.62,2.49
	c1.01-7.58,1.84-14.4,2.82-21.19c2.47-17.05,4.9-34.11,7.6-51.13c0.72-4.54-0.31-7.71-3.62-11.04
	c-15.64-15.72-30.99-31.72-46.44-47.63C497.91,385.31,496.66,383.91,494.66,381.74z"/>
<path class="st0" d="M726.38,536.47c2.3-16.32,4.56-31.28,6.38-46.29c0.28-2.34-0.75-5.58-2.36-7.3
	c-10.33-11.06-20.98-21.81-32.3-33.46c10.91-1.93,20.84-4.72,30.88-5.2c14.47-0.69,23.46-6.79,28.57-20.51
	c3.41-9.14,8.97-17.49,13.58-26.18c0.17-0.33,0.44-0.61,1.03-1.4c0.96,1.55,1.87,2.87,2.61,4.28c6.19,11.71,12.52,23.36,18.43,35.21
	c1.91,3.84,4.38,5.48,8.56,6.11c13.66,2.07,27.25,4.56,40.86,6.92c0.88,0.15,1.7,0.63,3.2,1.21
	c-10.64,10.94-20.76,21.66-31.27,31.99c-3.13,3.08-3.73,6.02-3.1,10.06c2.28,14.55,4.3,29.14,6.54,44.54
	c-13.97-6.86-27.26-13.22-40.38-19.92c-3.72-1.9-6.62-2.15-10.49-0.14C754.05,523.16,740.73,529.45,726.38,536.47z"/>
<path class="st0" d="M501.68,449.82c-11.02,11.31-21.4,22.08-31.93,32.7c-2.32,2.34-3.23,4.47-2.65,7.96
	c2.18,13.07,3.92,26.22,5.78,39.34c0.26,1.85,0.31,3.73,0.52,6.44c-12.99-6.36-25.53-12.08-37.62-18.63
	c-5.66-3.07-10.06-2.96-15.66,0.06c-12.13,6.53-24.68,12.3-37.96,18.82c1.74-12.35,2.66-24.01,5.2-35.3
	c2.37-10.56,0.94-18.47-7.88-25.81c-8.96-7.45-16.49-16.62-25.51-25.92c8.69-1.57,16.37-2.98,24.06-4.32
	c7.27-1.27,14.62-2.18,21.8-3.85c2.35-0.55,5.04-2.57,6.22-4.67c6.56-11.73,12.69-23.69,18.98-35.57c0.86-1.63,1.81-3.2,3.04-5.36
	c7.24,13.7,14.33,26.64,20.9,39.83c2.06,4.13,4.77,5.58,9.07,6.24c13.66,2.09,27.25,4.6,40.87,6.97
	C499.61,448.85,500.27,449.26,501.68,449.82z"/>
<linearGradient id="SVGID_00000146481877231671445660000016413084540642623105_" gradientUnits="userSpaceOnUse" x1="293.4523" y1="734.8339" x2="440.4268" y2="734.8339">
	<stop  offset="0" style="stop-color:#7ECAB6"/>
	<stop  offset="1" style="stop-color:#15818E"/>
</linearGradient>
<path style="fill:url(#SVGID_00000146481877231671445660000016413084540642623105_);" d="M405.95,811.08
	c-37.63-40.29-74.85-80.15-112.5-120.46c11.16-10.43,21.98-20.66,32.96-30.72c3.18-2.92,5.43-0.38,7.59,1.94
	c15.64,16.78,31.32,33.53,46.97,50.3c18.63,19.96,37.25,39.92,55.86,59.89c4.84,5.19,4.84,5.66-0.29,10.47
	C426.59,791.83,416.61,801.13,405.95,811.08z M416.36,778.3c-0.72-3.88-2.77-6.77-7.32-6.75c-4.53,0.02-7.08,2.83-7.11,7.09
	c-0.03,4.34,2.72,7.08,7.14,7.06C413.48,785.68,415.82,782.95,416.36,778.3z"/>
</svg>
