<?xml version="1.0" encoding="utf-8"?>
<!-- Generator: Adobe Illustrator 27.3.1, SVG Export Plug-In . SVG Version: 6.00 Build 0)  -->
<svg version="1.1" id="Layer_1" xmlns="http://www.w3.org/2000/svg" xmlns:xlink="http://www.w3.org/1999/xlink" x="0px" y="0px"
	 viewBox="0 0 1080 1080" style="enable-background:new 0 0 1080 1080;" xml:space="preserve">
<style type="text/css">
	.st0{fill:url(#SVGID_1_);}
	.st1{fill:#EB382E;}
	.st2{fill:url(#SVGID_00000090294657952359136380000017727945958736827782_);}
	.st3{fill:url(#SVGID_00000145018952549620746750000006715643884038218409_);}
	.st4{fill:#FFFFFF;}
	.st5{fill:url(#SVGID_00000004518210330347810360000009610663270541161350_);}
	.st6{fill:url(#SVGID_00000127005828688224185680000011139913835459355287_);}
	.st7{fill:url(#SVGID_00000067211312389702764990000014216111059702972083_);}
	.st8{fill:url(#SVGID_00000081607781144243595350000007238126036039294341_);}
	.st9{fill:url(#SVGID_00000168836560685586419070000004329824199351775152_);}
	.st10{fill:url(#SVGID_00000115478713465674854200000009174145838409876898_);}
	.st11{fill:url(#SVGID_00000049216575602732296900000002938069483419358359_);}
	.st12{fill:url(#SVGID_00000105416564523643639930000001837417145396157580_);}
	.st13{fill:url(#SVGID_00000156555352703326770910000016104234811594377856_);}
	.st14{fill:url(#SVGID_00000155835765208697285520000016995721792695739321_);}
	.st15{fill:url(#SVGID_00000005951272276788957950000013773693036083210904_);}
	.st16{fill:url(#SVGID_00000161605477169461353090000018079639235803878555_);}
	.st17{fill:url(#SVGID_00000101094903805924571720000006192364308598255288_);}
	.st18{fill:url(#SVGID_00000075857469180070365570000010074902865232380546_);}
	.st19{fill:url(#SVGID_00000171678857918290165020000016450688578983147454_);}
	.st20{fill:url(#SVGID_00000137123909236146873190000017456070739447875260_);}
	.st21{fill:url(#SVGID_00000142877026180921225030000008393932962403832209_);}
	.st22{fill:url(#SVGID_00000180332655462706852770000004923826902075872406_);}
	.st23{fill:url(#SVGID_00000170984448393301899600000015066735096242045860_);}
	.st24{fill:url(#SVGID_00000132774824990935481070000013235004272725915059_);}
	.st25{fill:url(#SVGID_00000053516687695872982120000012998561118514649494_);}
	.st26{fill:url(#SVGID_00000112634968172330633560000012883655472160096920_);}
	.st27{fill:url(#SVGID_00000119080846341376218560000006013866475476904846_);}
	.st28{fill:url(#SVGID_00000094596772857961749740000001567083449191311239_);}
	.st29{fill:url(#SVGID_00000172404587645286925400000006227961380295471290_);}
	.st30{fill:url(#SVGID_00000093895975482845050020000006419618162241222809_);}
	.st31{fill:url(#SVGID_00000162312337815338229260000000260551634577159847_);}
	.st32{fill:url(#SVGID_00000010994670170769368370000005600282599614177679_);}
	.st33{fill:url(#SVGID_00000177485531920838353180000009908206893641793166_);}
	.st34{fill:#494949;}
</style>
<linearGradient id="SVGID_1_" gradientUnits="userSpaceOnUse" x1="402.2037" y1="563.834" x2="714.3314" y2="563.834">
	<stop  offset="0" style="stop-color:#7ECAB6"/>
	<stop  offset="1" style="stop-color:#15818E"/>
</linearGradient>
<path class="st0" d="M411.38,434.81c0-6,0-11.53,0-17.5c-7.43-1.36-9.6-6.41-9.11-13.38c0.25-3.61,0.04-7.26,0.05-10.89
	c0.02-8.5,1.12-10.15,9.18-13.37c0-14.2-0.02-28.53,0.01-42.85c0.06-28.74,19.51-48.3,48.19-48.31c65.75-0.04,131.51-0.04,197.26,0
	c28.67,0.02,48.15,19.57,48.19,48.32c0.05,36.71,0.01,73.41,0.01,110.12c0,2.09,0,4.18,0,6.15c8.03,3.24,9.17,4.92,9.17,13.38
	c0.01,19.12,0.01,38.23,0,57.35c-0.01,8.16-1.23,9.94-9.17,13c0,2.04,0,4.29,0,6.53c0,82.01,0.01,164.03,0,246.04
	c0,30.68-19.04,49.79-49.61,49.79c-64.8,0.01-129.6,0.01-194.4,0c-30.59,0-49.64-19.1-49.65-49.75c-0.01-75.7,0-151.41,0-227.11
	c0-2.29,0-4.57,0-7.28c-7.87-1.47-9.52-6.86-9.26-13.97c0.35-9.74,0.07-19.5,0.09-29.25c0.02-7.92,1.28-9.71,9-12.75
	c0-2.58,0-5.23,0-8.38c-7.79-1.34-9.33-6.81-9.08-13.89c0.33-9.55,0.07-19.11,0.09-28.67C402.33,439.59,403.43,437.95,411.38,434.81
	z M686.8,563.79c0-75.32,0.01-150.64,0-225.96c0-19.95-10.95-30.98-30.75-30.98c-64.8-0.01-129.59-0.01-194.39,0
	c-21.12,0-31.81,10.63-31.81,31.64c0,150.26,0,300.52,0,450.77c0,20.66,10.82,31.57,31.32,31.57c64.61,0.01,129.21,0,193.82,0
	c21.1,0,31.82-10.66,31.82-31.65C686.8,714.05,686.8,638.92,686.8,563.79z"/>
<linearGradient id="SVGID_00000013171590525767391550000002695866879828987571_" gradientUnits="userSpaceOnUse" x1="391.0696" y1="559.9371" x2="725.1237" y2="559.9371">
	<stop  offset="0" style="stop-color:#7ECAB6"/>
	<stop  offset="1" style="stop-color:#15818E"/>
</linearGradient>
<path style="fill:url(#SVGID_00000013171590525767391550000002695866879828987571_);" d="M400.89,429.09c0-6.08,0-11.69,0-17.75
	c-7.96-1.37-10.27-6.51-9.75-13.57c0.27-3.67,0.04-7.36,0.05-11.05c0.02-8.62,1.2-10.29,9.82-13.56c0-14.4-0.03-28.93,0.01-43.46
	c0.06-29.15,20.88-48.98,51.58-49c70.37-0.04,140.75-0.04,211.12,0c30.68,0.02,51.53,19.84,51.57,49
	c0.05,37.22,0.01,74.45,0.01,111.67c0,2.12,0,4.24,0,6.24c8.6,3.29,9.81,4.99,9.82,13.57c0.01,19.39,0.01,38.78,0,58.16
	c-0.01,8.27-1.32,10.08-9.82,13.18c0,2.07,0,4.35,0,6.63c0,83.17,0.01,166.35,0,249.52c0,31.12-20.38,50.49-53.09,50.49
	c-69.35,0.01-138.7,0.01-208.05,0c-32.74,0-53.13-19.37-53.13-50.45c-0.01-76.78,0-153.55,0-230.33c0-2.32,0-4.64,0-7.38
	c-8.42-1.49-10.18-6.96-9.91-14.16c0.37-9.88,0.08-19.77,0.1-29.66c0.02-8.03,1.37-9.84,9.63-12.93c0-2.62,0-5.3,0-8.5
	c-8.33-1.36-9.99-6.9-9.72-14.08c0.36-9.68,0.08-19.39,0.09-29.08C391.2,433.93,392.39,432.27,400.89,429.09z M695.66,559.89
	c0-76.39,0.01-152.77,0-229.16c0-20.23-11.72-31.41-32.91-31.42c-69.35-0.01-138.7-0.01-208.05,0c-22.6,0-34.04,10.78-34.04,32.09
	c0,152.38,0,304.77,0,457.15c0,20.95,11.58,32.01,33.52,32.01c69.14,0.01,138.29,0,207.43,0c22.58,0,34.05-10.81,34.05-32.1
	C695.66,712.28,695.66,636.09,695.66,559.89z"/>
<path class="st1" d="M557.96,343.56c-11.47,0-22.93,0.04-34.4-0.02c-6.82-0.03-10.94-3.43-11.08-8.95
	c-0.15-5.72,4.11-9.36,11.21-9.38c23.12-0.04,46.25-0.04,69.37,0c6.81,0.01,10.95,3.44,11.09,8.94c0.14,5.7-4.14,9.35-11.22,9.39
	C581.28,343.6,569.62,343.56,557.96,343.56z"/>
</svg>
