<?xml version="1.0" encoding="utf-8"?>
<!-- Generator: Adobe Illustrator 27.3.1, SVG Export Plug-In . SVG Version: 6.00 Build 0)  -->
<svg version="1.1" id="Layer_1" xmlns="http://www.w3.org/2000/svg" xmlns:xlink="http://www.w3.org/1999/xlink" x="0px" y="0px"
	 viewBox="0 0 1080 1080" style="enable-background:new 0 0 1080 1080;" xml:space="preserve">
<style type="text/css">
	.st0{fill:#EB382E;}
	.st1{fill:url(#SVGID_1_);}
	.st2{fill:url(#SVGID_00000043447057796845729900000004993643433811135363_);}
	.st3{fill:url(#SVGID_00000140719304632710477990000018304577089875375269_);}
	.st4{fill:url(#SVGID_00000155135650736250329700000008640905197731763368_);}
	.st5{fill:url(#SVGID_00000165928534701225121380000018274510919877121163_);}
	.st6{fill:#FFFFFF;}
	.st7{fill:url(#SVGID_00000173845080828115770760000018292281171124099758_);}
	.st8{fill:url(#SVGID_00000168077167841087367610000008324741670566963607_);}
	.st9{fill:url(#SVGID_00000053508929863783450010000001212408192305924230_);}
	.st10{fill:url(#SVGID_00000033334813991556543190000002154056097332678335_);}
	.st11{fill:url(#SVGID_00000134218364594325884240000010949810160136768659_);}
	.st12{fill:url(#SVGID_00000009558301044691498790000016101013489610654098_);}
	.st13{fill:url(#SVGID_00000003080917095533393470000000639580436453889464_);}
	.st14{fill:url(#SVGID_00000132088006398788110530000007818867758161705911_);}
	.st15{fill:url(#SVGID_00000115487707396533981110000006852398710485259446_);}
	.st16{fill:url(#SVGID_00000083805618351387473420000017419593659084043911_);}
	.st17{fill:url(#SVGID_00000028293284724255279790000009609139593857508750_);}
	.st18{fill:url(#SVGID_00000017495955381777019450000006158192198913373110_);}
	.st19{fill:url(#SVGID_00000008851009573618363010000018376793648123123112_);}
	.st20{fill:url(#SVGID_00000140714876032752368150000002300679949880712637_);}
	.st21{fill:url(#SVGID_00000147178145648862201520000003636935161413936549_);}
	.st22{fill:url(#SVGID_00000015327320516786216250000013123789683074801796_);}
	.st23{fill:url(#SVGID_00000052786765574910146230000013052746421699967892_);}
	.st24{fill:url(#SVGID_00000008832896147863507560000017518060062346722970_);}
	.st25{fill:url(#SVGID_00000122682758147060540050000015652090892952051639_);}
	.st26{fill:url(#SVGID_00000151519107417873342710000008804325650293881482_);}
	.st27{fill:url(#SVGID_00000085229225088616515360000000788976949656321182_);}
	.st28{fill:url(#SVGID_00000059276456953412597090000012681721892691561605_);}
	.st29{fill:url(#SVGID_00000127030719623415760740000011774526668637357192_);}
	.st30{fill:url(#SVGID_00000094584375830275670870000011495328144292243647_);}
	.st31{fill:url(#SVGID_00000168813762092311562930000017832694146947039923_);}
	.st32{fill:url(#SVGID_00000031209696417396428100000006361059402542711168_);}
	.st33{fill:url(#SVGID_00000178179519473463649610000005528712385418032263_);}
	.st34{fill:url(#SVGID_00000145769135043263816550000013736130336199327135_);}
	.st35{fill:url(#SVGID_00000062164343644538314790000017392305428819279529_);}
	.st36{fill:url(#SVGID_00000024720054244375076090000006799012804001221538_);}
	.st37{fill:url(#SVGID_00000078743837209435682290000012479471367475676559_);}
	.st38{fill:url(#SVGID_00000057129443248832297280000017742694846118731682_);}
	.st39{fill:url(#SVGID_00000038391034372793733430000004051362827448589959_);}
	.st40{fill:url(#SVGID_00000106132148909111121250000001492055028330166196_);}
	.st41{fill:url(#SVGID_00000070840268406555638040000018281512543771647886_);}
	.st42{fill:url(#SVGID_00000108287428666990400250000017611526062085859510_);}
	.st43{fill:url(#SVGID_00000021086076338133122990000018426404532843345850_);}
	.st44{fill:url(#SVGID_00000040552898980048662020000009593742202103903383_);}
	.st45{fill:url(#SVGID_00000039110884764208606750000004926215819647601298_);}
	.st46{fill:url(#SVGID_00000045620888872882491060000018429820091597183112_);}
	.st47{fill:url(#SVGID_00000016777843469216049780000013088351562854862770_);}
	.st48{fill:url(#SVGID_00000014592891242343963570000012381913501213511070_);}
	.st49{fill:url(#SVGID_00000017475648115082520410000007906384760417669805_);}
	.st50{fill:url(#SVGID_00000054250469287896882970000010969601123497637273_);}
	.st51{fill:url(#SVGID_00000158027920088589815750000009922942737709037744_);}
</style>
<linearGradient id="SVGID_1_" gradientUnits="userSpaceOnUse" x1="285.4495" y1="525.6635" x2="836.0569" y2="525.6635">
	<stop  offset="0" style="stop-color:#7ECAB6"/>
	<stop  offset="1" style="stop-color:#15818E"/>
</linearGradient>
<path class="st1" d="M285.45,488.71c4.51-9.08,11.81-12.4,21.85-11.83c10.54,0.6,21.14-0.01,31.71,0.22
	c3.55,0.08,5.96-1.11,8.4-3.58c15.21-15.46,30.65-30.69,45.8-46.21c4.72-4.84,10.03-7.08,16.72-7c14.34,0.16,28.68-0.07,43.01,0.13
	c3.59,0.05,5.39-1.16,6.94-4.37c6.62-13.7,13.68-27.18,20.27-40.89c3.75-7.81,9.4-11.59,18.19-11.49
	c19.89,0.23,39.79,0.05,59.68,0.08c8.31,0.01,10.75,2.54,10.84,11c0.04,3.76,0.08,7.53-0.01,11.29
	c-0.18,7.26-2.97,10.03-10.24,10.05c-15.95,0.05-31.9,0.14-47.85-0.08c-3.58-0.05-5.48,1-6.95,4.26
	c-2.91,6.49-6.25,12.78-9.65,19.64c2.05,0.17,3.44,0.5,4.8,0.37c9.34-0.9,15.82,2.98,21.28,10.62
	c12.3,17.19,25.17,33.97,38.07,50.72c1.45,1.88,4.57,3.46,6.93,3.48c29.39,0.23,58.79,0.23,88.18,0.01
	c2.43-0.02,5.53-1.51,7.14-3.34c10.98-12.54,21.71-25.29,32.36-38.11c3.96-4.77,8.73-7.1,14.91-7.09
	c36.92,0.05,73.84-0.04,110.76,0.07c11.13,0.03,17.42,6.68,17.43,17.98c0.03,33.69,0.03,67.39,0,101.08
	c-0.01,12.13-6.32,18.49-18.61,18.51c-33.69,0.06-67.39-0.06-101.08,0.15c-3.35,0.02-7.1,1.11-9.96,2.85
	c-15.91,9.67-31.67,19.6-47.3,29.72c-2.3,1.49-4.42,4.2-5.32,6.79c-6.82,19.79-13.31,39.7-19.91,59.56
	c-3.63,10.91-8.29,14.29-19.76,14.29c-35.67,0.01-71.33,0.01-107,0c-11.04,0-15.92-3.55-19.38-14.07
	c-6.6-20.05-13.07-40.15-19.85-60.14c-0.9-2.64-2.9-5.37-5.15-7.02c-13.71-10.07-27.59-19.93-41.56-29.64
	c-2.04-1.42-4.88-2.35-7.35-2.37c-24.02-0.17-48.03-0.17-72.05-0.02c-2.73,0.02-5.65,0.86-8.15,2.02
	c-7.14,3.31-14.1,7.02-21.14,10.52c-13.04,6.48-20.47,4.01-27-8.93C285.45,548.22,285.45,518.47,285.45,488.71z"/>
<path class="st0" d="M285.45,669.38c1.02-4.31,1.94-8.64,3.08-12.92c11.29-42.39,50.64-69.36,95.58-65.53
	c41.17,3.51,75.3,38.37,79.01,80.7c4.24,48.42-30.22,90.58-78.83,96.45c-46.87,5.66-90.59-28.02-97.84-75.34
	c-0.15-1-0.66-1.95-1-2.93C285.45,683,285.45,676.19,285.45,669.38z M431.13,680.23c0.72-30.61-24.16-56.52-54.96-57.23
	c-31.61-0.74-57.45,23.63-58.33,54.98c-0.87,30.95,24.05,57.4,54.74,58.1C404.78,736.8,430.38,712.38,431.13,680.23z"/>
<path class="st0" d="M746.83,590.53c49.11-0.11,89.07,39.56,89.21,88.55c0.14,49.4-39.59,89.33-88.93,89.36
	c-49.38,0.04-89.34-39.84-89.26-89.08C657.94,630.33,697.69,590.64,746.83,590.53z M746.78,622.95
	c-31.22,0.1-56.25,25.1-56.43,56.36c-0.18,31.24,25.27,56.78,56.58,56.8c31.29,0.01,56.8-25.45,56.77-56.68
	C803.66,648.14,778.18,622.85,746.78,622.95z"/>
</svg>
