<?xml version="1.0" encoding="utf-8"?>
<!-- Generator: Adobe Illustrator 27.3.1, SVG Export Plug-In . SVG Version: 6.00 Build 0)  -->
<svg version="1.1" id="Layer_1" xmlns="http://www.w3.org/2000/svg" xmlns:xlink="http://www.w3.org/1999/xlink" x="0px" y="0px"
	 viewBox="0 0 1080 1080" style="enable-background:new 0 0 1080 1080;" xml:space="preserve">
<style type="text/css">
	.st0{fill:#EB382E;}
	.st1{fill:url(#SVGID_1_);}
	.st2{fill:url(#SVGID_00000001621454924305979400000002763824251512362912_);}
	.st3{fill:url(#SVGID_00000023959665630258947860000007072580725817643695_);}
	.st4{fill:url(#SVGID_00000151502121554451676110000002640109804947616146_);}
	.st5{fill:url(#SVGID_00000050629074929164735430000007583861758374552228_);}
	.st6{fill:url(#SVGID_00000020362242834446050500000000056370770462160041_);}
	.st7{fill:url(#SVGID_00000155104522216139141750000017503583506780338611_);}
	.st8{fill:url(#SVGID_00000156554543490201501250000012128918111388745121_);}
	.st9{fill:url(#SVGID_00000081624004019649293050000005076607080465202346_);}
	.st10{fill:url(#SVGID_00000088827653697109468360000001366394346000894370_);}
	.st11{fill:url(#SVGID_00000178206207484931854390000009956722481122546850_);}
	.st12{fill:url(#SVGID_00000103238507211130322230000015305234420216760451_);}
	.st13{fill:url(#SVGID_00000078036879072169703770000003122567250329104526_);}
	.st14{fill:url(#SVGID_00000144328057622011702330000003712250295837136574_);}
	.st15{fill:url(#SVGID_00000145768367474058042260000014032048334870704552_);}
	.st16{fill:url(#SVGID_00000163761166534903588810000009975929745077117354_);}
	.st17{fill:url(#SVGID_00000081648791478778143520000016719716013327909050_);}
	.st18{fill:url(#SVGID_00000047021341281159551720000016918314034929444784_);}
	.st19{fill:url(#SVGID_00000052822026423721918540000012838730939906737577_);}
	.st20{fill:url(#SVGID_00000063623810065246872020000007103363229931549056_);}
	.st21{fill:url(#SVGID_00000179604098268149115110000008179910394386209419_);}
	.st22{fill:url(#SVGID_00000124146634160482311710000007005584093263819694_);}
	.st23{fill:url(#SVGID_00000130649079477593865390000013255194211883463051_);}
	.st24{fill:url(#SVGID_00000108996593620981102180000008118706644138624925_);}
	.st25{fill:url(#SVGID_00000124134204285604602270000017275122158640414346_);}
	.st26{fill:url(#SVGID_00000008837616836377081820000005963448652072086937_);}
	.st27{fill:url(#SVGID_00000142873365468401813670000009643235037558416261_);}
	.st28{fill:url(#SVGID_00000121957550063158365100000006584654828570003885_);}
	.st29{fill:url(#SVGID_00000091693479398700545600000001217408840375083665_);}
	.st30{fill:url(#SVGID_00000145757772864498123880000008453174020893388688_);}
	.st31{fill:url(#SVGID_00000000223765335727145210000015510430880408991128_);}
	.st32{fill:url(#SVGID_00000016060245318725868540000009617367213675264385_);}
	.st33{fill:url(#SVGID_00000025409375278823218550000013160523294353251218_);}
	.st34{fill:url(#SVGID_00000081622574764653023300000013160892157788598672_);}
	.st35{fill:url(#SVGID_00000094575893298152168940000014138947394517879228_);}
	.st36{fill:url(#SVGID_00000111158001164140596300000003715625952841675957_);}
	.st37{fill:#FFFFFF;}
	.st38{stroke:#000000;stroke-width:6;stroke-miterlimit:10;}
	.st39{fill:url(#SVGID_00000124883261591615210030000010173372163880736391_);}
	.st40{fill:url(#SVGID_00000110430964263756907160000014839895977421492917_);}
	.st41{fill:url(#SVGID_00000033331946846988377790000000385949512905875127_);}
</style>
<path class="st0" d="M764.56,386.2c-12.97-12.96-25.51-25.5-38.37-38.35c-14.91,9.37-30.26,18.95-45.51,28.69
	c-2.49,1.59-4.39,1.74-7.1,0.4c-56.06-27.86-119.31-18.07-164.33,25.32c-0.5,0.48-1.03,0.93-0.87,0.79
	c-8.43-10.32-15.88-21.61-25.5-30.58c-9.67-9.02-21.51-15.71-32.22-23.31c7.14-7.36,15.13-16.04,23.66-24.18
	c3.29-3.14,7.16-1.48,10.19,1.61c6.59,6.72,13.2,13.41,19.96,20.27c20.79-13.66,42.97-22.99,67.54-28.01c0-8.92-0.01-17.77,0-26.61
	c0.01-8.39,2.12-10.53,10.45-10.53c17.79-0.01,35.58-0.02,53.37,0c7.91,0.01,10.16,2.3,10.2,10.35c0.04,7.67-0.12,15.35,0.12,23.02
	c0.05,1.45,1.31,3.89,2.4,4.13c23.16,5.24,44.69,14.29,64.93,27.64c6.52-6.61,12.84-13.08,19.24-19.47
	c5.33-5.33,8.35-5.34,13.69-0.03c12.98,12.92,25.94,25.86,38.84,38.85c4.97,5,4.92,8.26-0.15,13.36
	c-6.38,6.43-12.86,12.75-18.74,18.57c6.21,12.77,12.6,24.71,17.86,37.14c3.58,8.44,5.93,17.47,8.1,26.41
	c0.97,4.02,2.65,4.92,6.34,4.81c7.67-0.22,15.35-0.14,23.02-0.04c6.5,0.09,8.87,2.45,8.88,8.86c0.05,18.66,0.05,37.32,0,55.98
	c-0.02,6.63-2.43,8.91-9.28,8.95c-8.02,0.04-16.05-0.14-24.06,0.15c-1.49,0.06-3.78,1.63-4.24,2.99
	c-3.75,11.02-6.46,22.45-10.86,33.19c-4.4,10.74-10.39,20.84-15.97,31.8c5.92,5.86,12.39,12.2,18.78,18.62
	c5.28,5.3,5.32,8.5,0.11,13.73c-12.92,12.97-25.87,25.92-38.85,38.84c-4.95,4.93-5.89,4.85-11.16,0.06
	c-17.03-15.49-34.09-30.95-51.13-46.42c-1.9-1.73-3.8-3.47-6.04-5.52c14.51-8.4,26.96-18.34,37.7-30.43
	c38.04-42.83,46.4-106.16,20.43-157.22c-1.97-3.87-1.62-6.48,0.59-9.89C746.08,415.53,755.32,400.77,764.56,386.2z"/>
<linearGradient id="SVGID_1_" gradientUnits="userSpaceOnUse" x1="311.2472" y1="464.8528" x2="535.3657" y2="464.8528">
	<stop  offset="0" style="stop-color:#7ECAB6"/>
	<stop  offset="1" style="stop-color:#15818E"/>
</linearGradient>
<path class="st1" d="M462.82,570.88c-7.18-7.9-14.39-15.68-21.4-23.63c-2.07-2.35-3.79-3.11-7.1-2.16
	C375.52,562,318.72,523.98,311.8,463c-1.55-13.63,0.09-27.07,5.65-42.05c2.79,3.52,4.62,6.32,6.92,8.64
	c14.48,14.62,29.12,29.08,43.56,43.73c2.54,2.58,4.87,3.67,8.63,3.16c15.35-2.08,30.75-3.77,46.69-5.68
	c1.45-11.62,1.81-23.41,4.6-34.6c3.28-13.15-1.43-21.52-10.89-30.04c-14.48-13.03-27.78-27.39-42.77-42.38
	c8.22-1.66,15.2-3.65,22.31-4.42c67.47-7.26,120.75,56.72,101.31,121.62c-1.05,3.51-0.58,5.56,2.19,8.02
	c11.88,10.49,23.52,21.25,35.37,32.02c-2.3,2.1-4.42,4.03-6.16,5.62c-4.86-2.72-9.78-6.48-15.34-8.33
	c-8.18-2.73-15.94-0.27-22.22,5.6c-6.11,5.71-11.97,11.7-17.76,17.74c-5.4,5.64-7.77,12.65-6.18,20.19
	C468.68,566.46,467.26,568.73,462.82,570.88z"/>
<linearGradient id="SVGID_00000108293866428316559580000001055391672880143752_" gradientUnits="userSpaceOnUse" x1="537.6708" y1="683.1273" x2="744.9612" y2="683.1273">
	<stop  offset="0" style="stop-color:#7ECAB6"/>
	<stop  offset="1" style="stop-color:#15818E"/>
</linearGradient>
<path style="fill:url(#SVGID_00000108293866428316559580000001055391672880143752_);" d="M537.67,653.08
	c2.16-2.62,3.83-5.12,5.99-7.08c1.15-1.05,3.26-1.88,4.72-1.62c9.13,1.63,16.89-0.72,23.43-7.23c4.82-4.79,9.64-9.59,14.42-14.42
	c11.39-11.49,11.51-25.18,0.38-36.99c-0.69-0.73-1.34-1.51-1.97-2.23c3.02-3.18,5.87-6.18,9.01-9.49
	c7.56,6.83,14.92,13.45,22.25,20.11c36.9,33.51,73.8,67.03,110.68,100.56c17.09,15.54,22.11,34.85,15.69,56.53
	c-6.54,22.07-21.94,35.66-44.63,39.94c-19.82,3.74-36.77-2.18-50.43-17.24c-35.72-39.37-71.49-78.69-107.24-118.04
	C539.28,655.11,538.66,654.28,537.67,653.08z"/>
<linearGradient id="SVGID_00000052809145429661465100000007778423473417034173_" gradientUnits="userSpaceOnUse" x1="330.1751" y1="681.4402" x2="531.5582" y2="681.4402">
	<stop  offset="0" style="stop-color:#7ECAB6"/>
	<stop  offset="1" style="stop-color:#15818E"/>
</linearGradient>
<path style="fill:url(#SVGID_00000052809145429661465100000007778423473417034173_);" d="M531.56,634.04
	c-22.96,27.6-46.02,55.33-69.08,83.05c-12.59,15.14-25.98,29.69-37.63,45.52c-22.54,30.65-71.84,23.75-89.03-11.21
	c-10.25-20.84-6.94-47.36,13.19-63.63c42.68-34.5,84.53-70.04,126.73-105.15c0.91-0.76,1.91-1.42,2.47-1.83
	C496.01,598.57,513.6,616.11,531.56,634.04z"/>
<linearGradient id="SVGID_00000036233570909318809490000001010673538041734037_" gradientUnits="userSpaceOnUse" x1="540.7594" y1="470.3935" x2="742.7722" y2="470.3935">
	<stop  offset="0" style="stop-color:#7ECAB6"/>
	<stop  offset="1" style="stop-color:#15818E"/>
</linearGradient>
<path style="fill:url(#SVGID_00000036233570909318809490000001010673538041734037_);" d="M540.76,538.55
	c1.36-0.91,3.35-1.82,4.8-3.26c37.4-37.3,74.84-74.55,111.97-112.11c5.16-5.23,8.72-12.04,13.06-18.08c1.2-1.67,2.25-3.72,3.89-4.76
	c16.43-10.5,32.97-20.82,48.92-30.84c6.47,6.46,12.7,12.69,19.38,19.35c-0.28,0.48-1.09,1.97-1.99,3.4
	c-6.51,10.31-13.4,20.4-19.45,30.97c-6.1,10.64-13.16,19.93-24.84,24.93c-1.98,0.85-3.54,2.77-5.13,4.37
	c-38.23,38.19-76.45,76.39-114.63,114.63c-1.34,1.35-2.35,3.02-3.22,4.16C562.51,560.31,552.21,550,540.76,538.55z"/>
<linearGradient id="SVGID_00000076600573188252015560000003085761000040537224_" gradientUnits="userSpaceOnUse" x1="483.9618" y1="581.193" x2="578.636" y2="581.193">
	<stop  offset="0" style="stop-color:#7ECAB6"/>
	<stop  offset="1" style="stop-color:#15818E"/>
</linearGradient>
<path style="fill:url(#SVGID_00000076600573188252015560000003085761000040537224_);" d="M578.64,603.93
	c-1.24,2.17-2.01,4.37-3.47,5.92c-4.89,5.19-9.97,10.22-15.1,15.18c-4.36,4.22-8,4.28-12.26,0.05
	c-20.24-20.14-40.42-40.33-60.57-60.56c-4.32-4.34-4.34-7.94-0.21-12.23c4.95-5.14,10-10.19,15.13-15.15
	c4.04-3.91,7.91-4,11.88-0.05c20.37,20.25,40.68,40.57,60.92,60.95C576.47,599.54,577.3,601.73,578.64,603.93z"/>
<path class="st0" d="M432.43,562.69c5.78,6.27,11.55,12.55,17.74,19.27c-2.91,2.45-5.52,4.64-8.92,7.5
	c-3.72-8.81-7.23-17.11-10.73-25.41C431.16,563.59,431.8,563.14,432.43,562.69z"/>
</svg>
