<?xml version="1.0" encoding="utf-8"?>
<!-- Generator: Adobe Illustrator 27.3.1, SVG Export Plug-In . SVG Version: 6.00 Build 0)  -->
<svg version="1.1" id="Layer_1" xmlns="http://www.w3.org/2000/svg" xmlns:xlink="http://www.w3.org/1999/xlink" x="0px" y="0px"
	 viewBox="0 0 1080 1080" style="enable-background:new 0 0 1080 1080;" xml:space="preserve">
<style type="text/css">
	.st0{fill:#EB382E;}
	.st1{fill:url(#SVGID_1_);}
	.st2{fill:url(#SVGID_00000150811629015166128730000016669303952712015550_);}
	.st3{fill:url(#SVGID_00000026125572524663875240000000333976260884701074_);}
	.st4{fill:url(#SVGID_00000107560580050072135880000014689146581606393244_);}
	.st5{fill:url(#SVGID_00000164502903453593698290000007722896350372286643_);}
	.st6{fill:#FFFFFF;}
	.st7{fill:url(#SVGID_00000156574120216232107020000005760803622947186827_);}
	.st8{fill:url(#SVGID_00000054256508568012574640000003626018805042764946_);}
	.st9{fill:url(#SVGID_00000183965388125693738300000013124140069574270910_);}
	.st10{fill:url(#SVGID_00000178926756443380415510000011987112473479388033_);}
	.st11{fill:url(#SVGID_00000078765928685677489890000004610393214616499615_);}
	.st12{fill:url(#SVGID_00000142153665700169673410000014774199531518392457_);}
	.st13{fill:url(#SVGID_00000122697168530297900580000002747682445221999749_);}
	.st14{fill:url(#SVGID_00000044863217414806599060000009921114058221616532_);}
	.st15{fill:url(#SVGID_00000031920980922946851860000003380232048243994507_);}
	.st16{fill:url(#SVGID_00000004521469298408234700000003895978550003098285_);}
	.st17{fill:url(#SVGID_00000106107928912677574250000008972537978501675435_);}
	.st18{fill:url(#SVGID_00000047051967482642008390000008444201641493045889_);}
	.st19{fill:url(#SVGID_00000121970529070511499540000011912474466102674845_);}
	.st20{fill:url(#SVGID_00000088108658611429761060000009949590880165016472_);}
	.st21{fill:url(#SVGID_00000122711502918607075650000001496324311667649677_);}
	.st22{fill:url(#SVGID_00000018938839458481953010000007942252091211993791_);}
	.st23{fill:url(#SVGID_00000174579308215219741610000004605185729544633267_);}
	.st24{fill:url(#SVGID_00000129180425456027313680000009756683541651492522_);}
	.st25{fill:url(#SVGID_00000034064824186412011550000001774004097346592686_);}
	.st26{fill:url(#SVGID_00000072999201625148912070000008918125266810205096_);}
	.st27{fill:url(#SVGID_00000052788502468650595250000009240717076243029376_);}
	.st28{fill:url(#SVGID_00000182514977574331573210000015227427878385397419_);}
	.st29{fill:url(#SVGID_00000114781024646559396060000006556846420310510264_);}
	.st30{fill:url(#SVGID_00000066478652803542525000000007349253827755119532_);}
	.st31{fill:url(#SVGID_00000103969415267958984710000000927014337995564697_);}
	.st32{fill:url(#SVGID_00000038393524175951762050000001296680799546291134_);}
	.st33{fill:url(#SVGID_00000064333624828346148740000008216380777328088488_);}
	.st34{fill:url(#SVGID_00000043450249090101114240000006475344621004732581_);}
	.st35{fill:url(#SVGID_00000093859529697816900680000012477840894138890898_);}
	.st36{fill:url(#SVGID_00000106118079593549282490000007047581421621434502_);}
	.st37{fill:url(#SVGID_00000043439991208966831410000005155937477361548712_);}
	.st38{fill:url(#SVGID_00000044866778749216736190000005831893799591290039_);}
	.st39{fill:url(#SVGID_00000118392053987088404180000011960123813014185136_);}
	.st40{fill:url(#SVGID_00000020396392804149128210000017443979752155358118_);}
	.st41{fill:url(#SVGID_00000042719644738977803520000007905055416261673915_);}
	.st42{fill:url(#SVGID_00000025407936954985961630000001770880165947164077_);}
	.st43{fill:url(#SVGID_00000088811572009255938820000014235213140235437711_);}
	.st44{fill:url(#SVGID_00000007417756384545904470000010479284032310355845_);}
	.st45{fill:url(#SVGID_00000002343738432136730160000001823968209761926570_);}
	.st46{fill:url(#SVGID_00000130619392379188239440000007194810977144338317_);}
	.st47{fill:url(#SVGID_00000178205356562742581750000010395312475601798058_);}
	.st48{fill:url(#SVGID_00000107563119656805989340000009754777648648659116_);}
	.st49{fill:url(#SVGID_00000183247467640159693320000003222822117464491651_);}
	.st50{fill:url(#SVGID_00000063622539640988499650000001529841112302354077_);}
	.st51{fill:url(#SVGID_00000008849946590867485600000005761942045859644080_);}
</style>
<linearGradient id="SVGID_1_" gradientUnits="userSpaceOnUse" x1="310.0958" y1="554.4938" x2="819.221" y2="554.4938">
	<stop  offset="0" style="stop-color:#7ECAB6"/>
	<stop  offset="1" style="stop-color:#15818E"/>
</linearGradient>
<path class="st1" d="M819.22,642.26c-5.63,6.64-9.06,7.04-15.84,1.84c-59.02-45.23-144.08-10.73-155.12,62.92
	c-2.43,16.19-12.4,24.85-28.75,24.86c-35.46,0.02-70.93,0.01-106.39,0c-7.02,0-8.13-1.14-8.03-8.04
	c0.73-50.66-32.89-91.37-83.05-98.89c-29.57-4.43-56.11,3.91-78.62,23.95c-9.23,8.21-14.72,9.67-21.91,5.32
	c-8.74-5.28-13.24-15.88-10.71-25.7c0.65-2.53,1.68-5.03,2.9-7.35c11.53-21.81,27.6-39.57,48-53.43c1.6-1.09,3.2-2.18,4.7-4.37
	c-3.68,0-7.36,0-11.03,0c-20.15,0-28.46-8.86-27.38-29.17c1.2-22.35,18.33-36.93,40.02-33.97c4.59,0.63,9.11,1.74,13.71,2.33
	c17.56,2.25,35.09,4.92,52.71,6.41c17.69,1.5,34.93-1.6,51.76-7.4c15.48-5.33,31.34-8.37,47.84-5.49
	c22.86,3.99,38.19,25.81,33.74,48.2c-1.76,8.84-6.05,15.63-15.24,18.51c-1.31,0.41-2.57,1.95-3.23,3.28
	c-12.68,25.34-17.22,52.5-16.18,80.47c0.86,22.98,21.97,40.62,44.92,39c36.81-2.59,65.96-25.69,74.53-59.09
	c3.5-13.64,3-27.25-0.75-40.75C639,539.46,626.12,493.25,613.36,447c-0.81-2.94-2-4.72-5.26-4.59c-0.8,0.03-1.69-0.17-2.41-0.53
	c-6.42-3.2-12.66-6.13-20.36-5.81c-4.46,0.19-7.36-4.06-7.96-8.85c-0.65-5.21,1.4-9.44,6.16-11.32c4.16-1.64,6.25-4.37,8.52-8.03
	c2.41-3.88,6.28-7.24,10.21-9.72c8.38-5.28,17.69-9.17,25.76-14.85c15.33-10.79,32.76-5.96,43.25,2.76
	c12.31,10.22,17.19,23.84,15.44,39.44c-1.22,10.9-8.04,17.09-20.6,17.64c2.5,2.25,4.15,3.71,5.77,5.19
	c24.86,22.78,46.71,47.91,61.09,78.8c6.06,13.01,10.12,26.56,10.98,41c0.09,1.55,1.5,3.8,2.86,4.37
	c31.05,13.01,54.96,34.02,71.61,63.29c0.13,0.23,0.52,0.32,0.79,0.48C819.22,638.28,819.22,640.27,819.22,642.26z"/>
<path class="st0" d="M408.47,647.16c40.62-0.02,73.64,33.06,73.54,73.69c-0.1,40.32-33.15,73.37-73.45,73.42
	c-40.65,0.06-73.62-32.87-73.67-73.58C334.84,679.94,367.62,647.18,408.47,647.16z"/>
<path class="st0" d="M670.62,720.4c0.18-40.79,33.12-73.42,73.9-73.23c40.55,0.19,73.18,33,73.13,73.5
	c-0.06,40.91-33.26,73.87-74.15,73.6C703.19,794.01,670.44,760.81,670.62,720.4z"/>
</svg>
