<?xml version="1.0" encoding="utf-8"?>
<!-- Generator: Adobe Illustrator 27.3.1, SVG Export Plug-In . SVG Version: 6.00 Build 0)  -->
<svg version="1.1" id="Layer_1" xmlns="http://www.w3.org/2000/svg" xmlns:xlink="http://www.w3.org/1999/xlink" x="0px" y="0px"
	 viewBox="0 0 1080 1080" style="enable-background:new 0 0 1080 1080;" xml:space="preserve">
<style type="text/css">
	.st0{fill:url(#SVGID_1_);}
	.st1{fill:#EB382E;}
	.st2{fill:url(#SVGID_00000071536772128615186260000002598138180872208273_);}
	.st3{fill:url(#SVGID_00000056423810869210213830000015951292533526008480_);}
	.st4{fill:#FFFFFF;}
	.st5{fill:url(#SVGID_00000075123515872168061880000016314974682347466410_);}
	.st6{fill:url(#SVGID_00000057148902067585923410000002183153197851057804_);}
	.st7{fill:url(#SVGID_00000158723473739160297230000001213442030868973699_);}
	.st8{fill:url(#SVGID_00000127027461740288836770000004224052892854897538_);}
	.st9{fill:url(#SVGID_00000021105708922384982050000000965452470070825624_);}
	.st10{fill:url(#SVGID_00000153680117612831333880000017494173268609945747_);}
	.st11{fill:url(#SVGID_00000139265898467095401940000018137326756836755365_);}
	.st12{fill:url(#SVGID_00000174560635143510370050000016184901422362440847_);}
	.st13{fill:url(#SVGID_00000177447081581870867530000000844926845489802911_);}
	.st14{fill:url(#SVGID_00000107559769383948119240000006654494117764177795_);}
	.st15{fill:url(#SVGID_00000080924081182436380590000013986315836067171728_);}
	.st16{fill:url(#SVGID_00000027581908872515417300000001932240818991798177_);}
	.st17{fill:url(#SVGID_00000013878174215773096680000010437452150519502259_);}
	.st18{fill:url(#SVGID_00000029742976540961654360000002825022584788802218_);}
	.st19{fill:url(#SVGID_00000114762598068170829330000007523498855657611454_);}
	.st20{fill:url(#SVGID_00000157290161074010563650000003662956892885307025_);}
	.st21{fill:url(#SVGID_00000163790212464099242290000017981466220274040960_);}
	.st22{fill:url(#SVGID_00000020389709634148174060000005635725072366895036_);}
	.st23{fill:url(#SVGID_00000086690316974586018280000006355745128209530534_);}
	.st24{fill:url(#SVGID_00000182490800810343865300000009875452688902251957_);}
	.st25{fill:url(#SVGID_00000135688162475980092280000009105650590971918993_);}
	.st26{fill:url(#SVGID_00000065062048830412913920000018164697584700003751_);}
</style>
<linearGradient id="SVGID_1_" gradientUnits="userSpaceOnUse" x1="317.6384" y1="570.2396" x2="732.492" y2="570.2396">
	<stop  offset="0" style="stop-color:#7ECAB6"/>
	<stop  offset="1" style="stop-color:#15818E"/>
</linearGradient>
<path class="st0" d="M691.46,846.69c-110.88,0-221.75,0-332.63,0c-0.31-0.17-0.61-0.46-0.94-0.5
	c-23.74-3.25-40.76-23.37-40.23-50.02c0.59-29.68,0.14-59.37,0.14-89.06c0-121.45-0.02-242.9,0.01-364.35
	c0.01-28.48,19.25-48.77,47.07-48.84c79.54-0.21,159.08-0.14,238.62,0.12c3.89,0.01,8.75,1.89,11.49,4.59
	c37.77,37.29,75.32,74.82,112.65,112.55c2.71,2.74,4.65,7.59,4.66,11.47c0.24,125.59,0.22,251.17,0.16,376.76
	c-0.01,11.69-3.57,22.19-11.3,31.24C713.27,839.87,702.95,844.3,691.46,846.69z M525.51,593.22c-41.2,0-82.4-0.02-123.59,0.01
	c-10.81,0.01-15,4.25-15.01,15.02c-0.02,20.15-0.01,40.29-0.01,60.44c0,13.42,3.44,16.82,17.01,16.82
	c50.55,0,101.1-0.01,151.66,0.01c11.9,0,15.71,3.86,15.72,15.89c0.02,20.69-0.04,41.37,0.03,62.06c0.03,9.96,4.22,14.06,14.18,14.1
	c13.13,0.05,26.27,0.02,39.4,0.01c24.38-0.02,38.47-14.12,38.48-38.53c0.01-43.17,0.01-86.34,0-129.51
	c0-12.69-3.65-16.32-16.43-16.32C606.47,593.21,565.99,593.22,525.51,593.22z M426.87,570.26c8.99,0,17.97,0.06,26.96-0.02
	c8.92-0.08,13.57-4.25,13.71-12.99c0.24-14.37,0.24-28.76,0-43.13c-0.14-8.54-4.73-12.84-13.21-12.94
	c-10.78-0.12-21.57-0.2-32.35,0.02c-20.3,0.41-34.66,14.97-35.05,35.37c-0.12,6.47-0.06,12.94-0.01,19.41
	c0.07,9.85,4.35,14.21,14.08,14.27C409.61,570.31,418.24,570.26,426.87,570.26z M622.87,570.26c8.81,0,17.62,0.05,26.42-0.01
	c9.73-0.07,14.01-4.43,14.08-14.27c0.04-6.47,0.11-12.94-0.01-19.41c-0.39-20.6-14.92-35.09-35.58-35.39
	c-10.42-0.15-20.85-0.09-31.27-0.01c-9.13,0.07-13.66,4.37-13.78,13.48c-0.18,14.02-0.18,28.04,0,42.05
	c0.11,9.14,4.63,13.45,13.73,13.54C605.25,570.33,614.06,570.26,622.87,570.26z M559.69,535.5c0-7.19,0.13-14.39-0.03-21.58
	c-0.18-7.96-4.53-12.59-12.33-12.7c-14.74-0.2-29.5-0.19-44.24-0.01c-7.84,0.1-12.36,4.69-12.45,12.58
	c-0.17,14.56-0.17,29.13-0.01,43.69c0.09,8.14,4.66,12.65,12.86,12.73c14.39,0.15,28.78,0.14,43.16,0
	c8.45-0.08,12.87-4.63,13.02-13.14C559.8,549.89,559.7,542.7,559.69,535.5z M548.1,743.47c0-7.19,0.09-14.39-0.02-21.58
	c-0.14-8.94-4.42-13.32-13.25-13.38c-14.21-0.11-28.42-0.12-42.63,0.01c-8.28,0.07-12.92,4.27-13.09,12.5
	c-0.3,14.74-0.31,29.5,0.01,44.24c0.18,7.96,4.81,12.21,12.74,12.29c14.57,0.15,29.14,0.17,43.71-0.01
	c7.94-0.1,12.27-4.52,12.48-12.48C548.23,757.86,548.08,750.66,548.1,743.47z M421.68,708.48c-7.19,0-14.39-0.1-21.58,0.03
	c-8.52,0.14-13.01,4.56-13.17,12.99c-0.14,7.19-0.2,14.39,0.03,21.57c0.62,19.75,15.02,33.97,34.86,34.48
	c6.83,0.18,13.67,0.1,20.5,0.02c9.14-0.1,13.63-4.49,13.68-13.57c0.09-14.02,0.1-28.05,0-42.07c-0.06-8.83-4.52-13.29-13.28-13.43
	C435.7,708.38,428.69,708.47,421.68,708.48z"/>
<path class="st1" d="M624.77,415.93c-13.13,0-25.53,0.02-37.93-0.01c-9.81-0.02-12.04-2.24-12.04-12.14
	c-0.01-53.06-0.01-106.13,0.01-159.19c0-8.62,2.56-11.26,11.02-11.26c86.99-0.02,173.99-0.01,260.98,0.01
	c7.95,0,10.55,2.35,10.56,10.4c0.09,53.9,0.1,107.8,0.04,161.71c-0.01,8.17-2.84,10.57-11.18,10.55
	c-41.95-0.13-83.89-0.26-125.84-0.38c-0.62,0-1.26,0.12-1.87,0.02c-12.24-1.97-20.28,4.2-28.25,12.72
	c-15.91,17.01-32.78,33.11-49.22,49.62c-3.03,3.04-6.11,6.02-10.84,4.21c-4.92-1.89-5.5-6.09-5.47-10.77
	C624.84,453.31,624.77,435.22,624.77,415.93z M840.49,399.79c0.38-1.22,0.72-1.8,0.72-2.37c-0.01-47.02-0.16-94.03,0.05-141.05
	c0.03-6-2.04-7.14-7.51-7.13c-78.45,0.16-156.89,0.17-235.34-0.02c-5.96-0.01-7.73,1.57-7.7,7.61c0.24,42.03,0.13,84.06,0.12,126.1
	c0,5.34,0,10.68,0,16.37c2.35,0.16,3.95,0.36,5.56,0.36c10.81,0.04,21.62,0.06,32.43,0.04c9.29-0.01,12,2.55,12.02,11.63
	c0.03,12.28-0.03,24.55,0.01,36.83c0,1.68,0.31,3.35,0.55,5.75c1.53-1.14,2.25-1.55,2.82-2.11c15.14-15.14,30.36-30.21,45.33-45.52
	c4.52-4.62,9.37-6.77,15.95-6.72c31.79,0.28,63.58,0.19,95.37,0.22C814.11,399.8,827.35,399.79,840.49,399.79z"/>
<path class="st4" d="M840.49,399.79c-13.14,0-26.38,0.01-39.62,0c-31.79-0.03-63.58,0.06-95.37-0.22
	c-6.58-0.06-11.44,2.1-15.95,6.72c-14.97,15.31-30.19,30.37-45.33,45.52c-0.57,0.57-1.29,0.98-2.82,2.11
	c-0.24-2.4-0.55-4.08-0.55-5.75c-0.03-12.28,0.02-24.55-0.01-36.83c-0.02-9.08-2.73-11.64-12.02-11.63
	c-10.81,0.01-21.62,0-32.43-0.04c-1.61-0.01-3.21-0.2-5.56-0.36c0-5.69,0-11.03,0-16.37c0-42.03,0.12-84.06-0.12-126.1
	c-0.04-6.04,1.74-7.62,7.7-7.61c78.45,0.19,156.89,0.17,235.34,0.02c5.48-0.01,7.54,1.13,7.51,7.13
	c-0.21,47.01-0.06,94.03-0.05,141.05C841.21,397.99,840.87,398.57,840.49,399.79z M757.35,332.8c9.04,0,16.93,0.05,24.82-0.01
	c14.39-0.11,25.15-10.66,25.17-24.63c0.02-14.04-10.63-24.73-24.92-24.88c-9.99-0.1-19.98-0.05-29.96,0
	c-8.47,0.04-11.23,2.64-11.29,11.2c-0.12,17.48-0.1,34.96,0.01,52.44c0.02,4.14,0.08,8.41,1.13,12.35c0.6,2.28,2.83,5.03,4.97,5.82
	c6.45,2.39,10.28-1.89,10.11-10.4C757.24,347.69,757.35,340.67,757.35,332.8z M657.98,334.32c-1.2-2.76-1.91-4.23-2.49-5.77
	c-4.99-13.22-9.88-26.48-14.97-39.66c-1.86-4.81-5.72-6.83-10.53-4.91c-4.7,1.88-6.34,5.75-4.48,10.72
	c1.39,3.7,2.77,7.39,4.16,11.09c6.71,17.89,13.21,35.86,20.36,53.57c1.14,2.81,5.03,5.72,8.01,6.17c2.2,0.33,6.35-2.73,7.31-5.19
	c8.51-21.65,16.57-43.48,24.6-65.32c1.97-5.36-0.01-9.66-4.53-11.3c-4.27-1.55-8.62,0.85-10.68,6.04
	c-1.38,3.47-2.54,7.03-3.86,10.52C666.74,311.28,662.56,322.26,657.98,334.32z M724.26,324.9c0-10.41,0.03-20.82-0.01-31.23
	c-0.02-6.57-3.1-10.44-8.12-10.37c-5.04,0.08-7.87,3.42-7.89,9.85c-0.07,21.03-0.07,42.05-0.01,63.08c0.02,6.45,2.86,9.7,7.99,9.61
	c5.15-0.09,7.98-3.42,8.02-9.72C724.3,345.71,724.26,335.3,724.26,324.9z"/>
<path class="st1" d="M757.8,333.25c0,7.87-0.11,14.89,0.03,21.9c0.17,8.51-3.66,12.79-10.11,10.4c-2.14-0.79-4.37-3.55-4.97-5.82
	c-1.04-3.95-1.1-8.22-1.13-12.35c-0.11-17.48-0.13-34.96-0.01-52.44c0.06-8.56,2.82-11.16,11.29-11.2c9.99-0.05,19.98-0.1,29.96,0
	c14.29,0.15,24.94,10.84,24.92,24.88c-0.02,13.97-10.77,24.52-25.17,24.63C774.73,333.29,766.84,333.25,757.8,333.25z
	 M772.24,317.22c0-0.01,0-0.03,0-0.04c3.32,0,6.65,0.15,9.96-0.03c5.91-0.33,9.31-3.59,9.34-8.69c0.03-4.98-3.46-8.36-9.39-8.62
	c-5.39-0.23-10.79-0.09-16.19-0.09c-8.07,0-8.07,0.01-8.08,8.13c-0.01,9.33-0.01,9.33,9.37,9.34
	C768.92,317.23,770.58,317.22,772.24,317.22z"/>
<path class="st1" d="M658.43,334.77c4.58-12.05,8.76-23.04,12.91-34.03c1.32-3.5,2.48-7.05,3.86-10.52
	c2.06-5.18,6.41-7.58,10.68-6.04c4.52,1.64,6.5,5.94,4.53,11.3c-8.03,21.84-16.09,43.67-24.6,65.32c-0.97,2.46-5.11,5.52-7.31,5.19
	c-2.98-0.45-6.88-3.36-8.01-6.17c-7.15-17.71-13.65-35.68-20.36-53.57c-1.39-3.7-2.77-7.39-4.16-11.09
	c-1.86-4.98-0.23-8.84,4.48-10.72c4.81-1.92,8.68,0.1,10.53,4.91c5.09,13.18,9.98,26.44,14.97,39.66
	C656.51,330.53,657.23,332.01,658.43,334.77z"/>
<path class="st1" d="M724.7,325.34c0,10.41,0.05,20.82-0.02,31.23c-0.04,6.29-2.88,9.63-8.02,9.72c-5.13,0.09-7.97-3.16-7.99-9.61
	c-0.06-21.03-0.06-42.05,0.01-63.08c0.02-6.43,2.85-9.77,7.89-9.85c5.01-0.07,8.09,3.8,8.12,10.37
	C724.73,304.52,724.7,314.93,724.7,325.34z"/>
<path class="st4" d="M771.79,316.78c-1.66,0-3.32,0-4.98,0c-9.38-0.01-9.38-0.01-9.37-9.34c0-8.12,0-8.13,8.08-8.13
	c5.4,0,10.8-0.15,16.19,0.09c5.94,0.25,9.42,3.63,9.39,8.62c-0.03,5.1-3.43,8.37-9.34,8.69c-3.31,0.18-6.64,0.03-9.96,0.03
	C771.79,316.75,771.79,316.76,771.79,316.78z"/>
</svg>
