<?xml version="1.0" encoding="utf-8"?>
<!-- Generator: Adobe Illustrator 27.3.1, SVG Export Plug-In . SVG Version: 6.00 Build 0)  -->
<svg version="1.1" id="Layer_1" xmlns="http://www.w3.org/2000/svg" xmlns:xlink="http://www.w3.org/1999/xlink" x="0px" y="0px"
	 viewBox="0 0 1080 1080" style="enable-background:new 0 0 1080 1080;" xml:space="preserve">
<style type="text/css">
	.st0{fill:url(#SVGID_1_);}
	.st1{fill:#EB382E;}
	.st2{fill:url(#SVGID_00000039824730595618644060000017579579752471038859_);}
	.st3{fill:url(#SVGID_00000118372612363977705430000006483879078771736489_);}
	.st4{fill:#FFFFFF;}
	.st5{fill:url(#SVGID_00000021820059012119926120000001962066614788720808_);}
	.st6{fill:url(#SVGID_00000070817860589471500630000001684933896299922594_);}
	.st7{fill:url(#SVGID_00000065046150894878931070000005674663890600973495_);}
	.st8{fill:url(#SVGID_00000080197205948673740910000009957630765418082990_);}
	.st9{fill:url(#SVGID_00000083055747518336237280000009697672808406875276_);}
	.st10{fill:url(#SVGID_00000008836962500683695550000002042538923798602903_);}
	.st11{fill:url(#SVGID_00000046322772551593091060000016783305032172004017_);}
	.st12{fill:url(#SVGID_00000153668667126484221870000016024504096585815172_);}
	.st13{fill:url(#SVGID_00000165232827737992248940000014207921778278028725_);}
	.st14{fill:url(#SVGID_00000127735923463396966750000018055264606195873690_);}
	.st15{fill:url(#SVGID_00000129178118611607074340000014541795059534600871_);}
	.st16{fill:url(#SVGID_00000013886675152455597370000016810009321508473745_);}
	.st17{fill:url(#SVGID_00000106143278369960005590000009502763932008966813_);}
	.st18{fill:url(#SVGID_00000100358514140219553450000016660672734522400437_);}
	.st19{fill:url(#SVGID_00000047762878025495393680000008771959654694963854_);}
	.st20{fill:url(#SVGID_00000160889009848703577800000000138650605944347036_);}
	.st21{fill:url(#SVGID_00000081613993590208913970000010521970142105215388_);}
	.st22{fill:url(#SVGID_00000135662173169362764360000002902532703355293877_);}
	.st23{fill:url(#SVGID_00000036221895556542909060000011215366118876633515_);}
	.st24{fill:url(#SVGID_00000050652586349332984950000003427307879634042033_);}
	.st25{fill:url(#SVGID_00000072989988806305212000000018206834181849654168_);}
	.st26{fill:url(#SVGID_00000016061040138918448450000009609928315636151431_);}
</style>
<rect x="491" y="397.75" class="st1" width="153.19" height="238.83"/>
<linearGradient id="SVGID_1_" gradientUnits="userSpaceOnUse" x1="352.7034" y1="539.9946" x2="743.184" y2="539.9946">
	<stop  offset="0" style="stop-color:#7ECAB6"/>
	<stop  offset="1" style="stop-color:#15818E"/>
</linearGradient>
<path class="st0" d="M548.53,735.18c-37.32,0-74.63,0.04-111.95-0.01c-48.03-0.06-83.82-35.78-83.85-83.74
	c-0.04-74.41-0.05-148.83,0-223.24c0.04-47.53,35.93-83.32,83.59-83.36c74.42-0.05,148.85-0.06,223.27,0
	c47.64,0.04,83.48,35.8,83.53,83.41c0.08,74.41,0.07,148.83,0,223.24c-0.04,47.98-35.84,83.63-83.9,83.69
	C622.33,735.22,585.43,735.18,548.53,735.18z M530.16,485.62c-0.04,0-0.08,0-0.13,0c0,17.51,0.06,35.01-0.03,52.52
	c-0.03,5.93,1.29,11.38,6.06,15.1c21.01,16.42,41.95,32.95,63.36,48.85c9.7,7.2,23.32,1.99,26.93-9.29c2.48-7.75,0-15.05-7.45-20.86
	c-15.77-12.3-31.53-24.62-47.53-36.63c-4.08-3.07-5.63-6.25-5.58-11.4c0.27-29.38,0.16-58.77,0.09-88.15
	c-0.01-3.3-0.09-6.76-1.04-9.87c-2.42-8.01-10.8-13.11-18.98-12.08c-8.63,1.08-15.43,7.87-15.59,16.81
	C529.93,448.94,530.16,467.28,530.16,485.62z"/>
<linearGradient id="SVGID_00000075160730521589104390000005650101570985270198_" gradientUnits="userSpaceOnUse" x1="443.002" y1="286.9031" x2="652.7715" y2="286.9031">
	<stop  offset="0" style="stop-color:#7ECAB6"/>
	<stop  offset="1" style="stop-color:#15818E"/>
</linearGradient>
<path style="fill:url(#SVGID_00000075160730521589104390000005650101570985270198_);" d="M443,314.14
	c1.58-7.88,2.82-15.9,4.82-23.73c4.55-17.86,20.35-30.49,38.76-30.58c40.84-0.21,81.69-0.22,122.54,0
	c20.05,0.1,36.04,14.25,40.02,34.63c1.24,6.33,2.34,12.68,3.63,19.68C582.87,314.14,513.13,314.14,443,314.14z"/>
<linearGradient id="SVGID_00000121266505938393776880000007729801159040621992_" gradientUnits="userSpaceOnUse" x1="442.9376" y1="792.9217" x2="652.9448" y2="792.9217">
	<stop  offset="0" style="stop-color:#7ECAB6"/>
	<stop  offset="1" style="stop-color:#15818E"/>
</linearGradient>
<path style="fill:url(#SVGID_00000121266505938393776880000007729801159040621992_);" d="M442.94,765.51c70.13,0,139.85,0,210.01,0
	c-1.66,8.31-2.9,16.34-4.91,24.17c-4.61,17.88-20.37,30.4-38.84,30.49c-40.84,0.21-81.69,0.21-122.53,0
	c-18.71-0.1-34.42-12.83-38.97-31.11C445.79,781.41,444.55,773.6,442.94,765.51z"/>
</svg>
