<?xml version="1.0" encoding="utf-8"?>
<!-- Generator: Adobe Illustrator 27.3.1, SVG Export Plug-In . SVG Version: 6.00 Build 0)  -->
<svg version="1.1" id="Layer_1" xmlns="http://www.w3.org/2000/svg" xmlns:xlink="http://www.w3.org/1999/xlink" x="0px" y="0px"
	 viewBox="0 0 1080 1080" style="enable-background:new 0 0 1080 1080;" xml:space="preserve">
<style type="text/css">
	.st0{fill:url(#SVGID_1_);}
	.st1{fill:#EB382E;}
	.st2{fill:url(#SVGID_00000137812911042633523530000016384699421689558203_);}
	.st3{fill:url(#SVGID_00000025405182082772172150000015086273610366860948_);}
	.st4{fill:#FFFFFF;}
	.st5{fill:url(#SVGID_00000143603873653463384830000014638281833453394821_);}
	.st6{fill:url(#SVGID_00000025445118346702498480000013502657952969934502_);}
	.st7{fill:url(#SVGID_00000183939050061389270950000013415990443874426024_);}
	.st8{fill:url(#SVGID_00000032623023746336754250000007144084256739798929_);}
	.st9{fill:url(#SVGID_00000111160150312029555610000006986953368178976157_);}
	.st10{fill:url(#SVGID_00000030476124908805046580000010298359618592649110_);}
	.st11{fill:url(#SVGID_00000158711460878672451010000008263495357724086688_);}
	.st12{fill:url(#SVGID_00000045585576507506305080000003094556581544311225_);}
	.st13{fill:url(#SVGID_00000028327078564455620290000006754725390484783233_);}
	.st14{fill:url(#SVGID_00000094601264221636823210000008300976802771197630_);}
	.st15{fill:url(#SVGID_00000144316811012095264820000012845438480253281938_);}
	.st16{fill:url(#SVGID_00000060020012584123526020000017287750258351456940_);}
	.st17{fill:url(#SVGID_00000106835190498683877220000012589306891792514722_);}
	.st18{fill:url(#SVGID_00000127757417451420121100000010654639534293467292_);}
	.st19{fill:url(#SVGID_00000099642437451130165870000009615232286573937337_);}
	.st20{fill:url(#SVGID_00000000220867050200932880000004451059279419127448_);}
	.st21{fill:url(#SVGID_00000139276966505136991450000004990535024996499587_);}
	.st22{fill:url(#SVGID_00000053532578051676261460000003724491229191515826_);}
	.st23{fill:url(#SVGID_00000146495877815552510540000017895602385113781399_);}
	.st24{fill:url(#SVGID_00000025418673372633854370000010294879529920129445_);}
	.st25{fill:url(#SVGID_00000021119688403586870220000015304874447483721658_);}
	.st26{fill:url(#SVGID_00000026156307872707779280000016717866909173659782_);}
</style>
<linearGradient id="SVGID_1_" gradientUnits="userSpaceOnUse" x1="354.2936" y1="552.166" x2="680.809" y2="552.166">
	<stop  offset="0" style="stop-color:#7ECAB6"/>
	<stop  offset="1" style="stop-color:#15818E"/>
</linearGradient>
<path class="st0" d="M382.23,732.27c90.37,0,180.13,0,270.29,0c0.11-1.84,0.3-3.48,0.31-5.13c0.02-10.24,0.03-20.48-0.03-30.73
	c-0.01-2.19,0.26-4.09,2.54-5c2.6-1.03,4.06,0.89,5.6,2.36c2.73,2.61,5.37,5.31,8.57,8.5c3.59-4,6.77-7.53,10.72-11.93
	c0.21,2.4,0.4,3.63,0.4,4.86c0.02,33.17-0.21,66.34,0.17,99.5c0.12,10.32-6.08,15.41-13.65,19.45c-8.52,4.54-17.71,7.56-27.31,9.16
	c-8.28,1.38-16.49,3.19-24.8,4.26c-10.29,1.32-20.64,2.26-31,3.01c-10.4,0.75-20.84,1.24-31.26,1.51
	c-18.73,0.48-37.47,0.98-56.2,0.96c-13.37-0.02-26.75-0.67-40.11-1.45c-10.5-0.61-21.02-1.48-31.44-2.9
	c-10.82-1.48-21.61-3.4-32.26-5.8c-9.22-2.08-18.26-5.06-26.46-10.01c-7.59-4.59-12.03-10.67-12.02-20.25
	c0.14-156.81,0.1-313.63,0.07-470.44c0-9.83,5.73-16.25,13.01-21.24c10.2-6.99,21.52-11.86,33.52-15.04
	c8.74-2.32,17.4-5.03,26.24-6.92c7.53-1.61,15.23-2.45,22.88-3.38c12.23-1.49,24.45-3.59,36.72-3.95c21.67-0.63,43.37-0.44,65.05,0
	c10.26,0.21,20.52,1.58,30.72,2.86c8.82,1.11,17.65,2.45,26.32,4.37c16.97,3.75,33.9,7.81,49.47,15.92
	c7.36,3.84,14.52,8.04,19.28,15.26c1.25,1.89,2.02,2.77-1.03,4.03c-5.62,2.32-10.94,5.42-16.29,8.36c-2.15,1.18-3.95,1.08-5.59-0.61
	c-3.88-4-7.68-8.08-11.53-12.1c-1.85-1.93-3.54-2.85-5.99-0.39c-11.35,11.42-22.86,22.68-35.31,35.77
	c4.24,3.13,8.49,6.26,12.73,9.38c-0.33,0.51-0.67,1.02-1,1.53c-1.25,0.06-2.5,0.17-3.75,0.17c-73.84,0.01-147.68,0-221.51,0.02
	c-6.69,0-6.05-0.64-6.05,6.08c0.01,121.69-0.01,243.39-0.02,365.08C382.23,728.86,382.23,730.3,382.23,732.27z M520.07,764.77
	c0-0.01,0-0.02,0-0.03c-5.72,0-11.48-0.36-17.16,0.09c-6.98,0.55-11.68,3.43-12.47,9.12c-0.78,5.65-0.75,11.53-0.21,17.22
	c0.68,7.17,5.2,11.07,12.34,11.17c11.57,0.17,23.15,0.26,34.7-0.08c5.15-0.15,11.05-3.54,11.68-9.57
	c0.54-5.15,1.23-10.36,0.93-15.49c-0.42-7.17-6.59-12.38-13.74-12.43C530.78,764.74,525.43,764.77,520.07,764.77z M518.09,310.78
	c0-0.01,0-0.02,0-0.03c-1.34,0-2.68,0-4.02,0c-10.71,0-21.42-0.05-32.13,0.1c-1.12,0.02-2.23,1.25-3.34,1.91
	c0.8,0.98,1.41,2.3,2.44,2.86c1.18,0.65,2.72,0.87,4.11,0.87c21.91,0.05,43.82,0.05,65.73,0.01c1.29,0,2.75-0.13,3.82-0.74
	c1.1-0.62,1.82-1.91,2.7-2.9c-1.17-0.71-2.31-1.5-3.54-2.09c-0.49-0.23-1.2,0-1.81,0C540.73,310.78,529.41,310.78,518.09,310.78z
	 M424.05,788.02c0-0.01,0-0.01,0-0.02c2.79,0,5.59-0.06,8.38,0.02c3.26,0.09,4.24-2.12,4.25-4.64c0.02-2.54-1.42-4.21-4.3-4.18
	c-5.47,0.05-10.93,0.02-16.4,0.01c-3.08,0-4.46,1.81-4.38,4.6c0.07,2.65,1.64,4.2,4.42,4.21
	C418.7,788.03,421.37,788.02,424.05,788.02z M609.59,779.19c0,0.02,0,0.04,0,0.06c-3.03,0-6.07-0.03-9.1,0.01
	c-2.88,0.04-3.49,1.9-3.5,4.37c-0.02,2.53,0.81,4.29,3.57,4.33c5.7,0.08,11.41,0.16,17.11,0.02c2.76-0.07,4.29-1.54,4.21-4.64
	c-0.07-3.01-1.72-4.02-4.28-4.12C614.94,779.11,612.26,779.19,609.59,779.19z"/>
<path class="st1" d="M818.12,493.64c4.37,4.27,8.91,8.92,13.7,13.28c2.16,1.97,2.53,3.28,0.28,5.48
	c-8.01,7.78-15.94,15.65-23.72,23.66c-2.31,2.38-3.94,2-5.95-0.1c-3.63-3.78-7.38-7.46-11.03-11.23c-1.86-1.93-3.29-2.07-5.84-0.47
	c-9.37,5.88-19.19,10.92-30.04,13.66c-3.93,0.99-7.79,2.25-12.14,3.51c0,7.08,0,14.59,0,22.46c-13.78,0-27.21,0-41.08,0
	c0-7.52,0-15.14,0-22.81c-15.75-2.85-29.91-8.73-43.07-16.96c-2.11-1.32-3.39-1.28-4.98,0.28c-3.63,3.57-7.3,7.1-10.91,10.69
	c-3.85,3.83-4.06,3.26-7.17,0c-7.29-7.63-14.89-14.97-22.51-22.27c-2.5-2.39-2.61-3.77,0.22-6.15c3.95-3.31,7.14-7.52,11.01-10.94
	c2.31-2.03,2.04-3.76,0.59-5.74c-6.17-8.45-9.99-18.07-13.54-27.76c-1.71-4.69-2.39-9.76-3.61-14.95c-7.46,0-14.98,0-22.8,0
	c0-13.74,0-27.18,0-41.05c7.56,0,15.05,0,22.09,0c2.87-8.63,5.15-16.91,8.38-24.81c2.54-6.21,6.15-12,9.48-17.87
	c1.2-2.11,1.27-3.67-0.51-5.39c-3.45-3.33-6.78-6.78-10.2-10.14c-3.66-3.6-3.9-3.8-0.43-7.4c8.26-8.58,16.74-16.94,25.29-25.55
	c5.42,5.76,10.61,11.26,15.46,16.41c7.71-4.03,14.2-7.96,21.11-10.89c6.64-2.81,13.63-4.93,20.62-6.71
	c4.91-1.25,5.38-1.12,5.39-6.12c0.02-6.08,0-12.15,0-18.45c1.23-0.13,2.15-0.31,3.08-0.31c11.33-0.02,22.66,0.07,33.99-0.08
	c3.04-0.04,4.05,0.95,3.96,3.98c-0.19,6.33-0.06,12.66-0.06,19.2c5.13,1.53,10.13,3.01,15.12,4.52
	c10.04,3.04,19.57,7.29,28.11,13.38c2.49,1.77,3.46,0.67,4.91-0.71c4.76-4.51,9.51-9.04,14.57-13.86
	c9.15,9.21,18.59,18.72,28.17,28.36c-5.54,5.79-10.93,11.41-16.28,16.99c9.93,13.89,15.58,29.03,19.04,45.31
	c6.85,0,13.41,0.02,19.97-0.01c1.83-0.01,3.44-0.04,3.43,2.53c-0.04,12.66-0.02,25.32-0.02,38.51c-6.16,0-12.08-0.01-18,0
	c-5.63,0.02-5.76,0.86-6.99,6.27c-1.54,6.76-3.77,13.46-6.52,19.83C825.83,480.01,821.95,486.39,818.12,493.64z M643.79,426.89
	c-0.75,42.88,35.77,79.03,78.85,78.91c43.98-0.12,79.17-36.11,79-78.89c-0.18-44.06-35.05-78.99-78.85-79.21
	C679.77,347.49,643.32,382.51,643.79,426.89z"/>
<path class="st1" d="M705.04,606.77c0,9.35,0,18.29,0,27.61c-4.32,0-8.55,0.05-12.78-0.02c-1.9-0.03-2.74,0.55-3.05,2.62
	c-1.17,7.84-4.28,15.03-8.1,21.91c-1.07,1.93-2.34,3.75-3.56,5.69c3.44,3.75,6.81,7.44,10.59,11.57
	c-4.61,4.64-9.16,9.21-13.71,13.77c-0.33,0.34-0.78,0.56-1.11,0.9c-4.57,4.78-3.53,5.34-8.91,0.06c-6.09-5.98-5.87-5.78-13.41-2.38
	c-6.44,2.9-13.22,5.09-19.89,7.46c-2.28,0.81-3.77,1.76-3.48,4.57c0.26,2.53-0.12,5.13,0.1,7.67c0.26,2.94-0.66,4.16-3.79,4.08
	c-6.82-0.18-13.64-0.13-20.46-0.04c-2.59,0.03-3.8-0.74-3.53-3.57c0.24-2.54-0.24-5.16,0.13-7.67c0.45-3.03-1.25-4.4-3.54-4.83
	c-9.28-1.71-17.42-5.96-25.45-10.63c-0.72-0.42-2.51,0.2-3.33,0.9c-2.32,1.98-4.42,4.22-6.55,6.41c-1.53,1.57-2.85,2.27-4.76,0.33
	c-5.12-5.2-10.4-10.24-15.59-15.36c-1.73-1.71-0.72-3.02,0.71-4.26c3.1-2.69,6.17-5.4,9.06-7.94c-6.14-9.49-10.57-18.38-12.36-28.47
	c-0.19-1.1-2.16-2.57-3.41-2.68c-3.97-0.34-8-0.13-12.28-0.13c0-9.27,0-18.29,0-27.6c4.34,0,8.34,0.17,12.31-0.1
	c1.21-0.08,3.2-1.23,3.36-2.15c1.8-10.15,6.16-19.16,11.9-27.78c-2.77-2.79-5.46-5.66-8.34-8.34c-2.06-1.92-2.24-3.46-0.15-5.56
	c5.43-5.46,10.69-11.08,16.29-16.94c3.77,3.49,7.02,6.64,10.46,9.56c0.73,0.62,2.53,0.92,3.23,0.45c8.53-5.63,17.8-9.38,28.29-11.33
	c0-5.02,0-10.08,0-15.39c9.4,0,18.32,0,27.75,0c0,5.27,0,10.32,0,15.31c10.48,2.2,19.93,5.63,28.36,11.59
	c0.6,0.43,2.17,0.3,2.75-0.2c2.81-2.42,5.68-4.85,8.04-7.68c1.67-2,2.74-1.85,4.29-0.24c5.04,5.22,10.03,10.47,15.17,15.58
	c1.52,1.51,1.8,2.36,0.04,3.96c-2.69,2.43-5.14,5.15-7.47,7.93c-0.56,0.67-0.73,2.38-0.27,3.09c5.2,8.07,8.81,16.75,10.8,26.15
	c0.18,0.87,1.96,1.92,3.06,1.99C696.45,606.91,700.48,606.77,705.04,606.77z M561.62,620.48c-1.01,30.93,24.73,52.79,51.23,53.05
	c28.94,0.28,52.7-22.44,53.34-51.73c0.66-30.11-25.09-53.29-51.7-53.67C585.62,567.72,560.17,592.88,561.62,620.48z"/>
<path class="st1" d="M455.23,477.78c3.99,0,7.6,0,10.08,0c3.53-7.45,6.75-14.13,9.81-20.89c0.3-0.67-0.35-1.78-0.58-2.68
	c-0.02-0.09-0.19-0.15-0.27-0.24c-6.42-6.89-6.43-6.91,0.22-13.48c2.28-2.25,4.52-5.89,7.05-6.15c2.2-0.22,4.79,3.44,7.22,5.37
	c0.56,0.45,1.17,0.83,0.91,0.65c7.68-3.15,14.74-6.04,22.44-9.19c0-2.68,0-6.3,0-10.42c6.51,0,12.66-0.07,18.81,0.12
	c0.58,0.02,1.51,1.67,1.58,2.62c0.21,2.77,0.08,5.56,0.08,7.71c7.6,3.16,14.66,6.1,22.18,9.23c1.54-1.44,3.72-3.3,5.65-5.38
	c1.43-1.54,2.39-1.46,3.79,0.03c3.22,3.43,6.51,6.8,9.92,10.03c1.84,1.74,1.66,2.98,0.03,4.74c-5.11,5.5-4.93,5.5-1.81,12.53
	c1.71,3.86,2.98,7.92,4.32,11.94c0.71,2.12,1.55,3.41,4.21,3.4c8.55-0.06,8.55,0.06,8.54,8.8c0,2.56,0.03,5.12,0,7.68
	c-0.03,2.32-0.81,3.68-3.54,3.09c-1.4-0.3-2.91-0.18-4.37-0.13c-2.8,0.11-4.04,1.66-4.97,4.34c-1.86,5.34-4.15,10.55-6.56,15.68
	c-0.89,1.9-1.05,3.01,0.57,4.6c6.2,6.08,6.14,6.15-0.17,12.39c-1.87,1.85-3.79,3.65-5.62,5.54c-1.57,1.61-3.2,1.85-4.53-0.03
	c-3.7-5.24-7.66-5.28-12.99-1.98c-3.73,2.31-8.44,2.99-12.6,4.66c-0.91,0.36-1.84,1.8-1.94,2.83c-0.27,2.65-0.09,5.34-0.09,8.45
	c-6.77,0-13.36,0-20.43,0c0-2.79,0.18-5.69-0.1-8.55c-0.1-0.99-1.19-2.56-2.03-2.71c-6.2-1.08-11.82-3.54-17.11-6.8
	c-1.99-1.23-3.36-0.97-5.02,0.6c-6.24,5.9-6.27,5.84-12.22-0.49c-2.02-2.14-4.25-4.1-6.07-6.39c-0.56-0.7-0.56-2.66,0.01-3.28
	c1.99-2.16,4.34-3.99,5.81-5.29c-3.4-8.21-6.36-15.37-9.62-23.24c-1.92,0-4.62-0.17-7.29,0.05c-2.42,0.2-3.3-0.78-3.29-3.05
	C455.25,489.13,455.23,483.77,455.23,477.78z M484.29,487.34c-0.65,22.02,17.93,38.49,37.82,38.44
	c20.91-0.06,38.07-16.07,38.29-38.24c0.19-19.82-16.19-37.91-38.02-38.11C501.34,449.24,483.23,467.99,484.29,487.34z"/>
<linearGradient id="SVGID_00000018227331548546682020000018127566084188915877_" gradientUnits="userSpaceOnUse" x1="652.6389" y1="540.9349" x2="680.8293" y2="540.9349">
	<stop  offset="0" style="stop-color:#77C3B1"/>
	<stop  offset="1" style="stop-color:#14808C"/>
</linearGradient>
<path style="fill:url(#SVGID_00000018227331548546682020000018127566084188915877_);" d="M680.68,551.12
	c-3.92-3.69-6.99-6.42-9.87-9.36c-1.61-1.65-2.59-1.41-4.04,0.22c-2.33,2.6-4.88,5.03-7.49,7.36c-0.84,0.74-2.53,1.6-3.19,1.24
	c-1.32-0.72-2.98-2.17-3.11-3.46c-0.4-4.09-0.46-8.27-0.09-12.37c0.34-3.81,4.18-4.98,7.6-3.14c5.21,2.8,10.6,5.29,16.03,7.65
	c2.72,1.18,4.82,2.33,4.22,5.85C680.45,546.72,680.68,548.42,680.68,551.12z"/>
<path class="st4" d="M520.07,764.77c5.36,0,10.72-0.03,16.08,0.01c7.16,0.05,13.33,5.26,13.74,12.43c0.3,5.13-0.39,10.34-0.93,15.49
	c-0.63,6.03-6.53,9.41-11.68,9.57c-11.56,0.34-23.14,0.25-34.7,0.08c-7.15-0.1-11.67-4-12.34-11.17c-0.54-5.7-0.57-11.57,0.21-17.22
	c0.78-5.69,5.49-8.57,12.47-9.12c5.69-0.45,11.44-0.09,17.16-0.09C520.07,764.75,520.07,764.76,520.07,764.77z"/>
<linearGradient id="SVGID_00000180347188249725600710000015661675794723672235_" gradientUnits="userSpaceOnUse" x1="478.5952" y1="313.6005" x2="557.3947" y2="313.6005">
	<stop  offset="0" style="stop-color:#77C3B1"/>
	<stop  offset="1" style="stop-color:#14808C"/>
</linearGradient>
<path style="fill:url(#SVGID_00000180347188249725600710000015661675794723672235_);" d="M518.09,310.78c11.32,0,22.64,0,33.96,0
	c0.61,0,1.32-0.24,1.81,0c1.23,0.59,2.37,1.38,3.54,2.09c-0.88,1-1.6,2.28-2.7,2.9c-1.07,0.61-2.53,0.74-3.82,0.74
	c-21.91,0.04-43.82,0.04-65.73-0.01c-1.39,0-2.93-0.22-4.11-0.87c-1.03-0.56-1.64-1.88-2.44-2.86c1.11-0.67,2.22-1.9,3.34-1.91
	c10.71-0.15,21.42-0.09,32.13-0.1c1.34,0,2.68,0,4.02,0C518.09,310.76,518.09,310.77,518.09,310.78z"/>
<path class="st4" d="M424.05,788.02c-2.67,0-5.35,0.01-8.02,0c-2.79-0.01-4.35-1.56-4.42-4.21c-0.07-2.79,1.3-4.6,4.38-4.6
	c5.47,0.01,10.93,0.04,16.4-0.01c2.88-0.02,4.32,1.64,4.3,4.18c-0.02,2.52-1,4.73-4.25,4.64c-2.79-0.08-5.59-0.02-8.38-0.02
	C424.05,788,424.05,788.01,424.05,788.02z"/>
<path class="st4" d="M609.59,779.19c2.67,0,5.34-0.08,8.01,0.02c2.56,0.1,4.21,1.12,4.28,4.12c0.08,3.1-1.45,4.57-4.21,4.64
	c-5.7,0.14-11.41,0.06-17.11-0.02c-2.77-0.04-3.59-1.79-3.57-4.33c0.02-2.47,0.62-4.32,3.5-4.37c3.03-0.04,6.07-0.01,9.1-0.01
	C609.59,779.23,609.59,779.21,609.59,779.19z"/>
<linearGradient id="SVGID_00000096748369881963059670000005576243700939186099_" gradientUnits="userSpaceOnUse" x1="652.6448" y1="426.9858" x2="680.3347" y2="426.9858">
	<stop  offset="0" style="stop-color:#77C3B1"/>
	<stop  offset="1" style="stop-color:#14808C"/>
</linearGradient>
<path style="fill:url(#SVGID_00000096748369881963059670000005576243700939186099_);" d="M680.33,367.3c0,40.22,0,79.5,0,119.37
	c-10.46-7.77-18.21-16.82-23.71-28.09c-3.15-6.45-4.01-12.93-3.86-19.87c0.18-8.41,0.45-16.85-0.05-25.23
	c-0.59-9.91,2.8-18.5,8.31-26.12c4.65-6.43,10.5-11.98,15.89-17.86C677.64,368.7,678.78,368.28,680.33,367.3z"/>
</svg>
