<?xml version="1.0" encoding="utf-8"?>
<!-- Generator: Adobe Illustrator 27.3.1, SVG Export Plug-In . SVG Version: 6.00 Build 0)  -->
<svg version="1.1" id="Layer_1" xmlns="http://www.w3.org/2000/svg" xmlns:xlink="http://www.w3.org/1999/xlink" x="0px" y="0px"
	 viewBox="0 0 1080 1080" style="enable-background:new 0 0 1080 1080;" xml:space="preserve">
<style type="text/css">
	.st0{fill:url(#SVGID_1_);}
	.st1{fill:#EB382E;}
	.st2{fill:url(#SVGID_00000152240449004009429130000013533471150198800288_);}
	.st3{fill:url(#SVGID_00000059988931506671291890000007963160049611344540_);}
	.st4{fill:#FFFFFF;}
	.st5{fill:url(#SVGID_00000148634868484685036720000014534074461997597577_);}
	.st6{fill:url(#SVGID_00000056408729377480167330000018240748130169564314_);}
	.st7{fill:url(#SVGID_00000078022341326963091480000016299086764951175603_);}
	.st8{fill:url(#SVGID_00000063614252232608559640000016781878615913845925_);}
	.st9{fill:url(#SVGID_00000098211185804601681270000012973584270009772191_);}
	.st10{fill:url(#SVGID_00000044896005814716530630000016604823935826859432_);}
	.st11{fill:url(#SVGID_00000025424892586732210850000018087502108484293054_);}
	.st12{fill:url(#SVGID_00000062895372030686543130000012350781336632878469_);}
	.st13{fill:url(#SVGID_00000000941206784849227940000003726138292443770246_);}
	.st14{fill:url(#SVGID_00000178886752826698573770000011180950780424911234_);}
	.st15{fill:url(#SVGID_00000010285399233989445740000001712905726965102245_);}
	.st16{fill:url(#SVGID_00000104686520814218310830000010627060199946117819_);}
	.st17{fill:url(#SVGID_00000142161497354554560180000013255231313136623294_);}
	.st18{fill:url(#SVGID_00000021106940838375964470000018113704120271716224_);}
	.st19{fill:url(#SVGID_00000005954272711070320750000010456205832237551238_);}
	.st20{fill:url(#SVGID_00000028303639330425601240000016555561517033668257_);}
	.st21{fill:url(#SVGID_00000018227527618764560330000017214643355313780360_);}
	.st22{fill:url(#SVGID_00000072973770615903882770000003668747505172537015_);}
	.st23{fill:url(#SVGID_00000101066994917593107760000007593394962540423824_);}
	.st24{fill:url(#SVGID_00000177444534093225008730000010062340355235046021_);}
	.st25{fill:url(#SVGID_00000105399212758986037880000007674782663644429440_);}
	.st26{fill:url(#SVGID_00000103948446781593025290000011145081322177221510_);}
</style>
<rect x="410.5" y="752.77" class="st1" width="349.86" height="49.96"/>
<linearGradient id="SVGID_1_" gradientUnits="userSpaceOnUse" x1="378.6454" y1="536.9564" x2="779.1688" y2="536.9564">
	<stop  offset="0" style="stop-color:#7ECAB6"/>
	<stop  offset="1" style="stop-color:#15818E"/>
</linearGradient>
<path class="st0" d="M746.83,263.21c12.36,2.84,23.03,8.54,28.07,20.68c2.64,6.36,4.03,13.72,4.05,20.63
	c0.26,86.06,0.17,172.12,0.17,258.18c0,69.13-0.07,138.27,0.05,207.4c0.03,16.42-5.95,29.32-21.07,36.51
	c-5.28,2.51-11.62,3.89-17.48,3.9c-107.82,0.23-215.64,0.22-323.45,0.12c-22.41-0.02-37.94-15.52-38.39-37.88
	c-0.22-10.86-0.05-21.74-0.05-32.61c0-145.22,0.05-290.43-0.08-435.65c-0.01-13.68,3.56-25.57,15.01-33.57
	c5.09-3.56,11.53-5.2,17.36-7.71C522.95,263.21,634.89,263.21,746.83,263.21z M416.67,308.17c0,141.95,0,283.32,0,424.74
	c108.44,0,216.5,0,324.52,0c0-141.81,0-283.19,0-424.74C632.88,308.17,524.94,308.17,416.67,308.17z M578.89,752.77
	c-12.22,0.02-22.19,9.99-22.06,22.08c0.13,11.9,9.97,21.75,21.86,21.88c12.08,0.13,22.24-9.86,22.32-21.95
	C601.09,762.67,591.12,752.75,578.89,752.77z"/>
</svg>
