<?xml version="1.0" encoding="utf-8"?>
<!-- Generator: Adobe Illustrator 27.3.1, SVG Export Plug-In . SVG Version: 6.00 Build 0)  -->
<svg version="1.1" id="Layer_1" xmlns="http://www.w3.org/2000/svg" xmlns:xlink="http://www.w3.org/1999/xlink" x="0px" y="0px"
	 viewBox="0 0 1080 1080" style="enable-background:new 0 0 1080 1080;" xml:space="preserve">
<style type="text/css">
	.st0{fill:#EB382E;}
	.st1{fill:url(#SVGID_1_);}
	.st2{fill:url(#SVGID_00000072253966507089163050000008054744735138115242_);}
	.st3{fill:url(#SVGID_00000093862835213492185150000002206777116441620612_);}
	.st4{fill:url(#SVGID_00000016758546798704693130000003930365116840414875_);}
	.st5{fill:url(#SVGID_00000085954359784195671230000000970119208373949083_);}
	.st6{fill:url(#SVGID_00000039840267572265650940000017530968451534661764_);}
	.st7{fill:url(#SVGID_00000120527159609750703880000018063977217844017076_);}
	.st8{fill:url(#SVGID_00000024695579678546816320000016368782352271575999_);}
	.st9{fill:url(#SVGID_00000083060041186916129860000017276920344716583822_);}
	.st10{fill:url(#SVGID_00000035521995619797875390000003805279034555608747_);}
	.st11{fill:url(#SVGID_00000035505253125164594450000017883624477108480926_);}
	.st12{fill:url(#SVGID_00000177459539403914736610000010187274353887180957_);}
	.st13{fill:url(#SVGID_00000096750199997658276990000003011856481400616376_);}
	.st14{fill:url(#SVGID_00000173126096262987925680000006388864036893635723_);}
	.st15{fill:url(#SVGID_00000181060843358189404030000015993003061380487609_);}
	.st16{fill:url(#SVGID_00000091713535861167315630000013094042185074801551_);}
	.st17{fill:url(#SVGID_00000110467755997783620680000006851393097572450210_);}
	.st18{fill:url(#SVGID_00000105399669644391206360000007490112027389114258_);}
	.st19{fill:url(#SVGID_00000114787263300385568650000001435566226557269638_);}
	.st20{fill:url(#SVGID_00000066509592672879139770000016602289543603022764_);}
	.st21{fill:url(#SVGID_00000170275944512146093240000011612374918857246861_);}
	.st22{fill:url(#SVGID_00000021818132104910339250000008133195750717465516_);}
	.st23{fill:url(#SVGID_00000015323440641618082070000010655768124162670500_);}
	.st24{fill:url(#SVGID_00000168804630777955731980000016196132339199134131_);}
	.st25{fill:url(#SVGID_00000180362917202648282710000010252653749096434843_);}
	.st26{fill:url(#SVGID_00000183935181264250323120000001019854432550074534_);}
	.st27{fill:url(#SVGID_00000041974723635490825950000009501978314742246075_);}
	.st28{fill:url(#SVGID_00000116213011249278189930000008532794809868372362_);}
	.st29{fill:url(#SVGID_00000125590125874598669080000000440994121362157698_);}
	.st30{fill:url(#SVGID_00000058574912253802471060000012054668170544899250_);}
	.st31{fill:url(#SVGID_00000067221877659513486780000000311854694631338630_);}
	.st32{fill:url(#SVGID_00000057842123452018551850000010870354417070320023_);}
	.st33{fill:url(#SVGID_00000139992424863128555970000013206544219666687900_);}
	.st34{fill:url(#SVGID_00000078727655148996798340000011941092513832835762_);}
	.st35{fill:url(#SVGID_00000070102938122743514090000002985215234206488746_);}
	.st36{fill:url(#SVGID_00000134243288466948253690000000268392333062066341_);}
	.st37{fill:#FFFFFF;}
	.st38{stroke:#000000;stroke-width:6;stroke-miterlimit:10;}
	.st39{fill:url(#SVGID_00000072997838445644569910000002114824211375853976_);}
	.st40{fill:url(#SVGID_00000150063954363511775300000002596167090367856036_);}
	.st41{fill:url(#SVGID_00000126311043083007737000000004286223738503685017_);}
</style>
<linearGradient id="SVGID_1_" gradientUnits="userSpaceOnUse" x1="501.2873" y1="556.4736" x2="775.9193" y2="556.4736">
	<stop  offset="0" style="stop-color:#7ECAB6"/>
	<stop  offset="1" style="stop-color:#15818E"/>
</linearGradient>
<path class="st1" d="M501.29,349.73c91.82,0,183.01,0,274.63,0c0,103.02,0,205.9,0,309.42c-25.03,0-50.12,0-76.09,0
	c8.32,34.76,16.46,68.73,24.82,103.65c-7.09,0-13.53,0.06-19.97-0.02c-5.01-0.06-11.44,1.52-14.61-0.97
	c-3.15-2.47-3.15-9.1-4.33-13.95c-6.74-27.88-13.52-55.76-20.02-83.7c-0.93-4.01-2.62-4.86-6.42-4.85
	c-50.4,0.12-100.8,0.08-151.2,0.08c-2.14,0-4.29,0-6.74,0c0-34.52,0-68.55,0-103.04c39.8,0,79.53,0,119.62,0
	c0-34.48,0-68.49,0-103.25c-39.78,0-79.63,0-119.69,0C501.29,418.29,501.29,384.25,501.29,349.73z"/>
<path class="st0" d="M363.68,487.69c74.42,0,148.6,0,223.03,0c0,11.29,0,22.32,0,34.02c-39.85,0-79.7,0-120.07,0
	c0,80.56,0,160.45,0,240.72c-11.64,0-22.77,0-34.46,0c0-34.18,0-68.22,0-102.65c-11.68,0-22.8,0-34.45,0c0,34.29,0,68.32,0,102.68
	c-11.54,0-22.56,0-34.04,0C363.68,671.11,363.68,579.66,363.68,487.69z"/>
<path class="st0" d="M466.54,400.71c0.65,28.06-22.32,51.55-51.07,52.2c-27.83,0.63-51.46-22.27-52.2-50.58
	c-0.73-28.19,22.07-51.94,50.58-52.71C442.27,348.87,465.87,371.74,466.54,400.71z"/>
</svg>
