<?xml version="1.0" encoding="utf-8"?>
<!-- Generator: Adobe Illustrator 27.3.1, SVG Export Plug-In . SVG Version: 6.00 Build 0)  -->
<svg version="1.1" id="Layer_1" xmlns="http://www.w3.org/2000/svg" xmlns:xlink="http://www.w3.org/1999/xlink" x="0px" y="0px"
	 viewBox="0 0 1080 1080" style="enable-background:new 0 0 1080 1080;" xml:space="preserve">
<style type="text/css">
	.st0{fill:#EB382E;}
	.st1{fill:url(#SVGID_1_);}
	.st2{fill:url(#SVGID_00000132787649928151912090000011136915727186955908_);}
	.st3{fill:url(#SVGID_00000176003716209223071240000002797389535975243441_);}
	.st4{fill:url(#SVGID_00000052798951404827851640000007808193335150367160_);}
	.st5{fill:url(#SVGID_00000168087888786353279270000011644404889069547424_);}
	.st6{fill:url(#SVGID_00000125605300325325609150000017386222156963636925_);}
	.st7{fill:url(#SVGID_00000102523237694885882940000010876006425048363199_);}
	.st8{fill:url(#SVGID_00000011722463985766383510000005153040699197590444_);}
	.st9{fill:url(#SVGID_00000122722426697780598090000017147623798040044723_);}
	.st10{fill:url(#SVGID_00000029030418209777560910000005379178982179114899_);}
	.st11{fill:url(#SVGID_00000080175489562837979190000013982214706939700926_);}
	.st12{fill:url(#SVGID_00000111187253167643671260000004840377946101547187_);}
	.st13{fill:url(#SVGID_00000126323374930428992320000007710538108235610506_);}
	.st14{fill:url(#SVGID_00000089541135614494596070000009049160532291002529_);}
	.st15{fill:url(#SVGID_00000002357738555260221420000003307070755743787152_);}
	.st16{fill:url(#SVGID_00000175320739814890307800000017489099671578650285_);}
	.st17{fill:url(#SVGID_00000168828387492901204100000002639605087566782649_);}
	.st18{fill:url(#SVGID_00000033358433201065082240000017881400556972445334_);}
	.st19{fill:url(#SVGID_00000042721455036570760040000000159802454020022919_);}
	.st20{fill:url(#SVGID_00000165938318152521421610000009891577897236429446_);}
	.st21{fill:url(#SVGID_00000050644799608637238590000014301981529262310018_);}
	.st22{fill:url(#SVGID_00000165192139700815691400000001412721936029904575_);}
	.st23{fill:url(#SVGID_00000117666877588204271780000008094574287055066295_);}
	.st24{fill:url(#SVGID_00000171704480976585175190000017844524623144374429_);}
	.st25{fill:url(#SVGID_00000003078228439786810050000012318463560663496074_);}
	.st26{fill:url(#SVGID_00000147180352877009917150000007824032772887356325_);}
	.st27{fill:url(#SVGID_00000016766092238386514820000011425875101787842433_);}
	.st28{fill:url(#SVGID_00000116213479220523497740000014792778462066893955_);}
	.st29{fill:url(#SVGID_00000125565165277900360610000004901049973786219446_);}
	.st30{fill:url(#SVGID_00000080172828289244788840000017121441891246619275_);}
	.st31{fill:url(#SVGID_00000119796745734895490250000018175080665714371497_);}
	.st32{fill:url(#SVGID_00000143593836868623506120000008003742271163301526_);}
	.st33{fill:url(#SVGID_00000073719393946457740780000013852418346011168393_);}
	.st34{fill:url(#SVGID_00000086658752452574547950000004826041947725653897_);}
	.st35{fill:url(#SVGID_00000102531955330774819630000017614922755543812239_);}
	.st36{fill:url(#SVGID_00000168835378094010481980000016021573251993907615_);}
	.st37{fill:#FFFFFF;}
	.st38{stroke:#000000;stroke-width:6;stroke-miterlimit:10;}
	.st39{fill:url(#SVGID_00000118391621970707156720000006858368643440177025_);}
	.st40{fill:url(#SVGID_00000062889288345290983690000000498241633879430069_);}
	.st41{fill:url(#SVGID_00000018213669604366296730000018266468136806180795_);}
</style>
<linearGradient id="SVGID_1_" gradientUnits="userSpaceOnUse" x1="333.1093" y1="556.0002" x2="747.8977" y2="556.0002">
	<stop  offset="0" style="stop-color:#7ECAB6"/>
	<stop  offset="1" style="stop-color:#15818E"/>
</linearGradient>
<path class="st1" d="M717.58,570.83c-8.63,0-16.48,0.04-24.34-0.01c-9.45-0.05-16.05-6.17-16.05-14.81
	c-0.01-8.7,6.51-14.76,16.02-14.81c7.99-0.04,15.97-0.01,24.46-0.01c-3.64-40.65-19.22-75.36-46.08-105.32
	c-10.25,4.89-20.35,9.7-30.77,14.67c0.19,0.76,0.32,1.78,0.68,2.72c8.23,21.42,13.32,43.59,16.16,66.32
	c1.02,8.2-4.41,15.79-12.21,16.94c-8.36,1.23-15.33-4.15-17.09-12.57c-3.49-16.72-7.14-33.41-11.03-50.04
	c-1.11-4.75-3.26-9.26-4.76-13.41c-19.14,3.12-37.92,6.19-57.28,9.35c0,0.92,0,2.58,0,4.25c0,26.55,0.01,53.1,0,79.65
	c-0.01,11.37-5.71,17.07-17.09,17.07c-27.48,0.01-54.95,0-82.43,0c-1.66,0-3.31,0-5.48,0c1.66,28.4,6.93,55.42,17.8,81.53
	c7.9-1.71,15.47-3.78,23.18-4.91c12.19-1.79,24.45-3.29,36.73-4.26c8.96-0.71,15.79,5.82,16.06,14.23
	c0.26,8.3-6.26,14.86-15.27,15.27c-15.9,0.73-31.53,3.13-47.38,7.16c0.62,1.36,1.04,2.45,1.6,3.47
	c9.21,16.68,20.07,32.2,32.84,46.34c1.47,1.62,4.04,2.74,6.26,3.07c4.87,0.73,9.83,0.84,14.75,1.13c8.34,0.48,14.7,6.95,14.61,14.95
	c-0.09,8.23-6.74,14.83-15.36,14.63c-32.6-0.76-63.6-8.3-92.23-23.97c-58.91-32.25-96.61-81.21-107.44-147.57
	c-13.52-82.85,14.35-151.27,80.88-202.51c42.38-32.64,91.45-44.6,144.62-39.79c85.77,7.76,160.97,73.77,180.42,158.22
	c5.85,25.39,7.08,50.96,3.66,76.78c-1.1,8.33-8,14.2-15.93,13.56c-8.3-0.66-14.07-7.48-13.59-16.22
	C716.69,578.42,717.17,574.92,717.58,570.83z M467.88,460.35c-10.43,25.3-15.88,52.36-17.56,80.51c25.37,0,50.23,0,75.05,0
	c0-24.17,0-48.01,0-71.07C506.17,466.64,487.38,463.55,467.88,460.35z M439.96,662.06c-11.91-29.34-17.54-59.78-19.44-90.98
	c-19.24,0-37.99,0-56.73,0c-1.95,28.42,23.36,85.72,46.32,105.19C419.96,671.58,429.8,666.9,439.96,662.06z M409.58,435.92
	c-27.34,29.77-42.56,64.66-46.34,105.07c19.4,0,38.15,0,57.32,0c1.79-31.34,7.85-61.65,19.23-90.69
	C429.68,445.48,419.97,440.86,409.58,435.92z M525.41,439.72c0-20.89,0-40.68,0-60.44c-4.71-0.77-8.2,0.53-11.02,4.31
	c-5.79,7.77-12.15,15.13-17.7,23.06c-5.58,7.99-10.45,16.47-16.41,25.96C496.03,435.1,510.39,437.36,525.41,439.72z M555.51,379.26
	c0,20.06,0,39.76,0,60.46c14.72-2.28,29.05-4.5,44.24-6.84c-1.4-2.79-2.02-4.51-3.04-5.96c-10.03-14.4-20.18-28.72-30.19-43.14
	C563.83,379.88,560.29,378.56,555.51,379.26z M612.47,392.62c-0.25,0.42-0.51,0.85-0.76,1.27c5.56,9.51,11.11,19.01,16.9,28.9
	c6.22-2.75,12.36-5.47,18.51-8.18c0.04-0.55,0.07-1.1,0.11-1.65C635.63,406.18,624.05,399.4,612.47,392.62z M433.6,413.09
	c0.1,0.53,0.19,1.05,0.29,1.58c6.09,2.65,12.19,5.31,18.22,7.94c5.85-9.89,11.43-19.34,17.02-28.78c-0.28-0.38-0.56-0.76-0.83-1.13
	C456.73,399.49,445.16,406.29,433.6,413.09z M469.55,718.8c-6.13-10.34-11.67-19.67-17.44-29.41c-6.08,2.67-12.12,5.33-18.81,8.27
	C444.88,706.29,456.17,713.25,469.55,718.8z"/>
<path class="st0" d="M622.63,719.05c-3.01,3.33-5.41,6.15-7.98,8.8c-8.16,8.42-19.76,10.6-30.15,5.75
	c-10.31-4.81-15.92-15.25-14.88-26.87c3.35-37.49,6.55-74.99,9.83-112.48c0.44-5.07,0.75-10.17,1.56-15.18
	c3.18-19.81,24.22-28.94,40.96-17.61c15.07,10.2,29.86,20.81,44.77,31.24c19.71,13.8,39.46,27.55,59.11,41.43
	c9.85,6.96,13.66,17.16,10.91,28.29c-2.76,11.19-12.44,19.13-24.05,19.6c-3.63,0.15-7.27,0.02-11.87,0.02
	c4.74,10.21,8.91,19.25,13.13,28.27c2.54,5.43,3.91,10.97,2.74,17.03c-1.64,8.42-6,14.89-13.69,18.67
	c-10.78,5.3-21.63,10.5-32.65,15.27c-13.19,5.71-27.58,0.11-33.96-12.93C631.74,738.81,627.36,729.14,622.63,719.05z M600.01,699.76
	c5.39-6.07,9.81-11.13,14.32-16.1c8.9-9.82,20.69-8.02,26.38,4.04c6.44,13.66,12.79,27.36,19.2,41.03c0.57,1.21,1.27,2.36,2.08,3.83
	c8.19-3.82,16.09-7.5,24.24-11.3c-0.77-1.75-1.34-3.15-1.98-4.52c-6.04-13-11.52-26.29-18.29-38.89
	c-6.82-12.69,0.75-25.64,15.3-24.64c5.93,0.41,11.91,0.07,17.86,0.07c0.11-0.5,0.22-1,0.33-1.5
	c-29.69-20.79-59.38-41.59-89.76-62.87C606.46,625.96,603.3,662.14,600.01,699.76z"/>
<path class="st37" d="M629.83,869.95c-13.38-5.55-24.67-12.5-36.25-21.13c6.69-2.94,12.74-5.6,18.81-8.27
	C618.16,850.28,623.7,859.61,629.83,869.95z"/>
</svg>
