<?xml version="1.0" encoding="utf-8"?>
<!-- Generator: Adobe Illustrator 27.3.1, SVG Export Plug-In . SVG Version: 6.00 Build 0)  -->
<svg version="1.1" id="Layer_1" xmlns="http://www.w3.org/2000/svg" xmlns:xlink="http://www.w3.org/1999/xlink" x="0px" y="0px"
	 viewBox="0 0 1080 1080" style="enable-background:new 0 0 1080 1080;" xml:space="preserve">
<style type="text/css">
	.st0{fill:#EB382E;}
	.st1{fill:url(#SVGID_1_);}
	.st2{fill:url(#SVGID_00000080901654474677988570000011073923382590902165_);}
	.st3{fill:url(#SVGID_00000098941879576964387520000006657646784369014438_);}
	.st4{fill:url(#SVGID_00000151521853320543521720000017107246806008774330_);}
	.st5{fill:url(#SVGID_00000168102212389437451380000017668696188530840203_);}
	.st6{fill:#FFFFFF;}
	.st7{fill:url(#SVGID_00000023275828899093951340000008271396158964849076_);}
	.st8{fill:url(#SVGID_00000110439899046988839500000001268229608493902480_);}
	.st9{fill:url(#SVGID_00000016038435037435458450000017078035211400604603_);}
	.st10{fill:url(#SVGID_00000108287441442270495530000008818899999115267770_);}
	.st11{fill:url(#SVGID_00000128445560297950974260000015628373380052339095_);}
	.st12{fill:url(#SVGID_00000158709093006705453290000004638377992998810032_);}
	.st13{fill:url(#SVGID_00000090974261594563943590000001703623918674970553_);}
	.st14{fill:url(#SVGID_00000096048065514747684100000014320022189891880350_);}
	.st15{fill:url(#SVGID_00000140011758307078579490000004263285109711814562_);}
	.st16{fill:url(#SVGID_00000115480234127587959180000011076841681312663187_);}
	.st17{fill:url(#SVGID_00000105408199879256225080000010466375902347631034_);}
	.st18{fill:url(#SVGID_00000023980719121888718970000006475075384924549018_);}
	.st19{fill:url(#SVGID_00000023974188599916641950000014109107966806353828_);}
	.st20{fill:url(#SVGID_00000154410140400584809650000002447951328516686989_);}
	.st21{fill:url(#SVGID_00000172438618075358653380000005363437155356957318_);}
	.st22{fill:url(#SVGID_00000001665076986456755340000016616774041058301094_);}
	.st23{fill:url(#SVGID_00000098915513279863075910000000298007765336160652_);}
	.st24{fill:url(#SVGID_00000056400889886252907360000008937994239842765972_);}
	.st25{fill:url(#SVGID_00000181059079774376721720000015476574115007829433_);}
	.st26{fill:url(#SVGID_00000126300506193529799870000001054958582731541929_);}
	.st27{fill:url(#SVGID_00000125565574039259174520000006128815649637893811_);}
	.st28{fill:url(#SVGID_00000155134381902941927510000001983182561748536451_);}
	.st29{fill:url(#SVGID_00000182500135469830464860000014883702618882814096_);}
	.st30{fill:url(#SVGID_00000073686531561203679670000017185427413205649824_);}
	.st31{fill:url(#SVGID_00000047776923622868703420000007755535059734192522_);}
	.st32{fill:url(#SVGID_00000152973934570475109380000015394855658670796673_);}
	.st33{fill:url(#SVGID_00000178188479755169461390000009995082325197572794_);}
	.st34{fill:url(#SVGID_00000039831754016456055290000008817206478279071679_);}
	.st35{fill:url(#SVGID_00000059279554750003663110000007730974353781267591_);}
	.st36{fill:url(#SVGID_00000109728557001405592430000004484183128094611113_);}
	.st37{fill:url(#SVGID_00000161629087262235733470000015167396538479151282_);}
	.st38{fill:url(#SVGID_00000104680651578332123770000012969965572640604298_);}
	.st39{fill:url(#SVGID_00000070093945883604471520000007067698025525626291_);}
	.st40{fill:url(#SVGID_00000122693050451017894320000011210739778163316355_);}
	.st41{fill:url(#SVGID_00000049201355710255320850000007957227423388034178_);}
	.st42{fill:url(#SVGID_00000065752915717290639990000006579900478393176466_);}
	.st43{fill:url(#SVGID_00000115512067249034374120000012767284234708906157_);}
	.st44{fill:url(#SVGID_00000023999764741518808880000007089699851324644006_);}
	.st45{fill:url(#SVGID_00000075162674943568184170000011196751711588536242_);}
	.st46{fill:url(#SVGID_00000017504439615280735550000015084402845940331933_);}
	.st47{fill:url(#SVGID_00000005987389116528239030000008753380047989709232_);}
	.st48{fill:url(#SVGID_00000088107510681560733680000006108634883232286626_);}
	.st49{fill:url(#SVGID_00000021838770580171508390000010784926219678752139_);}
	.st50{fill:url(#SVGID_00000001646078755934527960000013283412778988944270_);}
	.st51{fill:url(#SVGID_00000042729214406858757490000007758331832099600557_);}
</style>
<linearGradient id="SVGID_1_" gradientUnits="userSpaceOnUse" x1="228.5228" y1="582.9839" x2="900.7941" y2="582.9839">
	<stop  offset="0" style="stop-color:#7ECAB6"/>
	<stop  offset="1" style="stop-color:#15818E"/>
</linearGradient>
<path class="st1" d="M806.27,723.9c-13.05-50.26-35.38-70.57-75.32-68.98c-34.94,1.39-58.85,25.9-66.4,68.48
	c-66.44,0-132.98,0-199.48,0c-9.93-46.07-33.42-68.7-71.06-68.6c-37.32,0.1-60.53,22.53-70.83,69.79
	c-17.54-0.78-35.67,0.1-53.19-2.79c-23.55-3.88-40.86-25.93-41.07-50.72c-0.48-59.01-0.59-118.04,0.02-177.05
	c0.3-29.26,23.17-51.3,52.32-52.56c2.18-0.09,4.37-0.11,6.56-0.11c184.74,0,369.47-0.02,554.21,0.01c28.55,0,49,13.95,56.1,38.59
	c1.71,5.94,2.49,12.36,2.51,18.56c0.19,56.01,0.19,112.02,0.08,168.03c-0.06,34.47-23.16,57.24-57.84,57.34
	C830.62,723.93,818.36,723.9,806.27,723.9z M874.87,528.61c-39.93,0-79.36,0-119.22,0c0,16.82,0,33.26,0,50.51
	c3.5,0,6.46,0.2,9.39-0.03c18.29-1.44,32.94,5.52,44.93,19.01c7.43,8.36,14.98,16.63,22.68,24.75c11.3,11.93,25.02,18.7,42.22,19.39
	C874.87,604.1,874.87,566.61,874.87,528.61z M626.41,528.1c0,17.46,0,33.86,0,50.99c30.59,0,60.53-0.05,90.47,0.05
	c4.99,0.02,4.87-3.09,4.86-6.54c-0.04-12.26-0.33-24.54,0.12-36.79c0.23-6.19-1.83-7.91-7.89-7.84c-24.26,0.3-48.52,0.12-72.78,0.12
	C636.35,528.1,631.53,528.1,626.41,528.1z M371.6,578.54c31.87,0,63.14,0,94.35,0c0-17.05,0-33.53,0-50.02c-31.79,0-62.84,0-94.35,0
	C371.6,545.23,371.6,561.52,371.6,578.54z M501.12,528.57c0,16.92,0,33.36,0,49.78c30.69,0,60.78,0,90.7,0c0-17.04,0-33.29,0-49.78
	C561.29,528.57,531.37,528.57,501.12,528.57z M254.1,528.62c0,15.74-0.18,30.46,0.23,45.16c0.05,1.82,3.21,5.07,4.97,5.1
	c24.28,0.34,48.56,0.32,72.84,0.04c1.78-0.02,5.02-2.71,5.06-4.22c0.38-15.18,0.23-30.38,0.23-46.07
	C309.36,528.62,282.25,528.62,254.1,528.62z M874.56,494.07c0.03-15.43-11.73-27.35-27.73-27.51c-29.24-0.29-58.48-0.1-87.72-0.06
	c-1.25,0-2.49,0.55-3.54,0.8c0,9.13,0,17.76,0,26.76C795.54,494.07,835.05,494.07,874.56,494.07z M626.36,466.69
	c0,9.6,0,18.44,0,27.26c31.92,0,63.23,0,94.75,0c0-9.35,0-18.18,0-27.26C689.36,466.69,658.23,466.69,626.36,466.69z M371.46,493.95
	c32.03,0,63.27,0,94.62,0c0-9.32,0-18.13,0-27.01c-31.83,0-63.07,0-94.62,0C371.46,476.07,371.46,484.7,371.46,493.95z
	 M592.02,466.92c-30.51,0-60.61,0-90.97,0c0,9.25,0,18.07,0,26.92c30.62,0,60.72,0,90.97,0C592.02,484.62,592.02,476,592.02,466.92z
	 M254.77,493.92c27.7,0,54.88,0,82.01,0c0-9.35,0-18.16,0-27.35c-19.22,0-37.77-0.48-56.28,0.15
	C266.03,467.21,255.27,479.05,254.77,493.92z"/>
<path class="st0" d="M394.47,776.9c-29.57,0.13-53.16-23.26-53.28-52.81c-0.11-29.52,23.34-53.21,52.82-53.37
	c29.39-0.15,53.18,23.44,53.35,52.91C447.54,753.05,423.98,776.77,394.47,776.9z"/>
<path class="st0" d="M788.26,723.74c0.07,29.6-23.33,53.1-52.93,53.16c-29.52,0.06-53.19-23.46-53.26-52.92
	c-0.07-29.39,23.6-53.16,53.03-53.25C764.55,670.63,788.19,694.21,788.26,723.74z"/>
</svg>
