<?xml version="1.0" encoding="utf-8"?>
<!-- Generator: Adobe Illustrator 27.3.1, SVG Export Plug-In . SVG Version: 6.00 Build 0)  -->
<svg version="1.1" id="Layer_1" xmlns="http://www.w3.org/2000/svg" xmlns:xlink="http://www.w3.org/1999/xlink" x="0px" y="0px"
	 viewBox="0 0 1080 1080" style="enable-background:new 0 0 1080 1080;" xml:space="preserve">
<style type="text/css">
	.st0{fill:#EB382E;}
	.st1{fill:url(#SVGID_1_);}
	.st2{fill:url(#SVGID_00000115508761356206315570000013964696546016012455_);}
	.st3{fill:url(#SVGID_00000162347613980674172170000003495860779916282558_);}
	.st4{fill:url(#SVGID_00000118396991952766797010000003425558855459077012_);}
	.st5{fill:url(#SVGID_00000003098164014932699190000013529892197014726784_);}
	.st6{fill:#FFFFFF;}
	.st7{fill:url(#SVGID_00000143594045752886957760000006776217946655754130_);}
	.st8{fill:url(#SVGID_00000067934259037248450140000000444504683752485779_);}
	.st9{fill:url(#SVGID_00000043426833530774981510000007114809307392022207_);}
	.st10{fill:url(#SVGID_00000082350848908205661800000002947450182730415025_);}
	.st11{fill:url(#SVGID_00000082334282317770663900000016412382221051398020_);}
	.st12{fill:url(#SVGID_00000032609467624538707370000013155335740942242466_);}
	.st13{fill:url(#SVGID_00000164515458423342699660000015259793704186493357_);}
	.st14{fill:url(#SVGID_00000067917512694993502320000013042997174418988698_);}
	.st15{fill:url(#SVGID_00000177467273673057220080000010389215130960185735_);}
	.st16{fill:url(#SVGID_00000137099197959792663870000012919471386363094955_);}
	.st17{fill:url(#SVGID_00000010306174250769053650000006596371526751173821_);}
	.st18{fill:url(#SVGID_00000086677313788794081660000014500946607681665700_);}
	.st19{fill:url(#SVGID_00000087398371523690174090000004578627813179686559_);}
	.st20{fill:url(#SVGID_00000023973437000617569130000004855954050056103828_);}
	.st21{fill:url(#SVGID_00000183248069158676889600000001791623049347510715_);}
	.st22{fill:url(#SVGID_00000140016196895739143060000003663683578379390341_);}
	.st23{fill:url(#SVGID_00000070117966575722355080000000420824305247134379_);}
	.st24{fill:url(#SVGID_00000073720519585840860710000009130019087370869180_);}
	.st25{fill:url(#SVGID_00000084502794631485997340000016784591146199795376_);}
	.st26{fill:url(#SVGID_00000160185555756844222700000013298015527280129459_);}
	.st27{fill:url(#SVGID_00000005961529303344845730000014475046431912263349_);}
	.st28{fill:url(#SVGID_00000124856255716521465060000014451938870444323982_);}
	.st29{fill:url(#SVGID_00000011010033303148163790000006259022978481799825_);}
	.st30{fill:url(#SVGID_00000102528652794714551310000011763131958804262549_);}
	.st31{fill:url(#SVGID_00000124869986262428966710000013523112819553836716_);}
	.st32{fill:url(#SVGID_00000154411172502358073970000007112526632317986432_);}
	.st33{fill:url(#SVGID_00000173163107704323625270000007640850879553167492_);}
	.st34{fill:url(#SVGID_00000180358029214104774990000001616147209799987635_);}
	.st35{fill:url(#SVGID_00000114044476286360526420000007632025517968998284_);}
	.st36{fill:url(#SVGID_00000026847657018654528390000008862266871365417148_);}
	.st37{fill:url(#SVGID_00000130640675563478739700000013499356294484097172_);}
	.st38{fill:url(#SVGID_00000075860909001862892000000005384273608824807050_);}
	.st39{fill:url(#SVGID_00000110446389801885399240000003371051472493522304_);}
	.st40{fill:url(#SVGID_00000004543023486249969320000008916684319856570272_);}
	.st41{fill:url(#SVGID_00000144313943082761067770000012143749442048915901_);}
	.st42{fill:url(#SVGID_00000016769111473481703300000004653633222730868614_);}
	.st43{fill:url(#SVGID_00000180350907625776336090000013633228277752873348_);}
	.st44{fill:url(#SVGID_00000064344353048337120050000016043744111181748653_);}
	.st45{fill:url(#SVGID_00000159453646454163120530000011628097700304540579_);}
	.st46{fill:url(#SVGID_00000049202396440543776270000000384942396987218093_);}
	.st47{fill:url(#SVGID_00000029015206939509267940000014562994411030007682_);}
	.st48{fill:url(#SVGID_00000158003203494526213330000012084013273261767054_);}
	.st49{fill:url(#SVGID_00000173882693171567160580000014084340180653312409_);}
	.st50{fill:url(#SVGID_00000062189493869364923620000004110259214432506780_);}
	.st51{fill:url(#SVGID_00000160900208612535522120000002728859117770451350_);}
</style>
<linearGradient id="SVGID_1_" gradientUnits="userSpaceOnUse" x1="283.7563" y1="685.3145" x2="639.508" y2="685.3145">
	<stop  offset="0" style="stop-color:#7ECAB6"/>
	<stop  offset="1" style="stop-color:#15818E"/>
</linearGradient>
<path class="st1" d="M283.76,653.74c2.03-4.14,5.52-5.14,9.86-5.1c15.16,0.13,30.33,0.05,45.49,0.05c1.95,0,3.89,0,6.13,0
	c0-4.96,0-9.39,0-14.72c-6.55,0-13.13,0.03-19.72-0.01c-7.4-0.05-9.32-1.95-9.34-9.24c-0.03-10.47-0.05-20.94,0.01-31.41
	c0.04-6.11,1.98-8.22,8.09-8.24c34.48-0.07,68.96-0.07,103.43,0c5.88,0.01,7.86,2.08,7.91,7.85c0.09,11.01,0.09,22.02,0,33.03
	c-0.04,5.7-2.17,7.87-7.84,7.97c-7.35,0.13-14.7,0.03-22.33,0.03c0,5.02,0,9.45,0,14.3c42.76,0,85.42,0,128.86,0c0-3.01,0-6.01,0-9
	c0-10.29,0-20.58,0.01-30.87c0.01-4.85,1.93-8.07,7.26-8.07c31.95,0,63.9,0.02,95.85,0.05c0.5,0,1,0.28,2.09,0.61
	c0,45.15,0,90.38,0,136.44c-1.32,0-3.22,0-5.12,0c-21.48,0-42.96,0.1-64.44-0.09c-4.04-0.03-5.87,0.77-6.85,5.19
	c-5.61,25.19-28.45,43.19-54.07,43.09c-25.71-0.09-48.2-18.1-54.07-43.26c-0.36-1.55-0.78-3.1-1.19-4.74c-4.62,0-8.92,0-13.56,0
	c-0.48,1.69-1.02,3.36-1.43,5.06c-6.06,25.24-28.69,43.16-54.28,42.95c-25.78-0.21-48.17-18.07-53.87-43.39
	c-0.86-3.81-2.14-4.98-5.96-4.89c-10.46,0.25-20.94-0.06-31.41,0.16c-4.17,0.09-7.39-0.97-9.5-4.67
	C283.76,706.46,283.76,680.1,283.76,653.74z M508.89,759.96c16.56,0.08,30.07-13.11,30.35-29.61c0.27-16.57-13.41-30.32-30.15-30.3
	c-16.53,0.02-30.01,13.38-30.08,29.83C478.94,746.28,492.45,759.88,508.89,759.96z M384.53,700.05c-16.59,0.1-29.91,13.48-29.85,30
	c0.06,16.73,13.69,30.09,30.52,29.91c16.41-0.17,29.76-13.85,29.59-30.32C414.62,713.14,401.12,699.95,384.53,700.05z"/>
<linearGradient id="SVGID_00000067203740727648245620000018283651289678673597_" gradientUnits="userSpaceOnUse" x1="652.5697" y1="655.7314" x2="838.3046" y2="655.7314">
	<stop  offset="0" style="stop-color:#7ECAB6"/>
	<stop  offset="1" style="stop-color:#15818E"/>
</linearGradient>
<path style="fill:url(#SVGID_00000067203740727648245620000018283651289678673597_);" d="M823.93,642.02
	c-8.54,0-15.72-0.05-22.91,0.01c-6.59,0.06-8.71,2.15-8.76,8.84c-0.04,5.77-0.25,11.59,0.37,17.3
	c1.28,11.77,10.27,20.02,22.13,20.48c7.69,0.29,15.4,0.06,23.49,0.06c0,14.7,0.16,28.57-0.09,42.43c-0.08,4.57-3.34,6.36-7.81,6.32
	c-9.73-0.09-19.47-0.03-29.4-0.03c-0.52,1.78-1.03,3.28-1.39,4.82c-6,25.4-28.14,43.22-53.92,43.38
	c-25.77,0.16-48.68-18-54.32-43.48c-0.87-3.91-2.33-4.91-6.05-4.79c-8.29,0.25-16.6,0.15-24.9,0.05c-5.54-0.07-7.42-1.99-7.74-7.49
	c-0.07-1.26-0.03-2.53-0.03-3.79c-0.01-62.98-0.01-125.96-0.01-188.94c0-9.95,1.28-11.22,11.21-11.22c19.13,0,38.26,0.15,57.39-0.1
	c5.16-0.07,8.3,1.72,10.86,6.18c16.34,28.46,32.91,56.78,49.31,85.2c1.81,3.15,3.67,4.95,7.68,5.52
	C802.45,624.65,813.87,630.71,823.93,642.02z M666.05,538.94c0,27.74,0,55.16,0,82.51c34.29,0,68.08,0,102.04,0
	c-0.18-0.93-0.15-1.51-0.39-1.93c-15.08-26.02-30.15-52.05-45.38-77.97c-0.78-1.32-3.05-2.48-4.64-2.5
	C700.73,538.87,683.79,538.94,666.05,538.94z M745.55,700.05c-16.59-0.06-29.99,13.1-30.21,29.67
	c-0.22,16.38,13.26,30.12,29.68,30.24c16.79,0.13,30.49-13.35,30.49-29.99C775.51,713.51,762.09,700.11,745.55,700.05z"/>
<path class="st0" d="M410.01,569.03c-8.13-20.55-16.18-40.91-24.48-61.91c11.23-6.5,23.65-13.7,36.08-20.88
	c46.05-26.59,92.1-53.17,138.16-79.76c8.04-4.64,9.83-4.17,14.49,3.9c7.86,13.57,15.74,27.13,23.53,40.74
	c3.21,5.61,2.51,8.47-2.98,11.64c-60.72,35.07-121.46,70.1-182.2,105.12C411.84,568.31,410.99,568.6,410.01,569.03z"/>
<path class="st0" d="M776.57,474.97c-3.11,0-5.6,0.06-8.09-0.01c-8.33-0.25-13.48-5.29-13.55-13.62
	c-0.12-14.08-0.09-28.17-0.02-42.25c0.05-9.35,5.05-14.31,14.37-14.48c2.16-0.04,4.32-0.01,6.89-0.01c0-16.7,0-33.14,0-50.49
	c-6.1,3.52-11.66,6.72-17.22,9.92c-7.35,4.23-14.67,8.5-22.05,12.66c-10.67,6.01-20.65,3.39-26.82-7.04
	c-3.58-6.05-7.14-12.13-10.53-18.28c-5.47-9.92-2.86-19.87,6.89-25.6c16.33-9.58,32.74-19.04,49.2-28.4
	c10.12-5.76,20.06-3.1,26.05,6.83c3.73,6.17,7.28,12.46,10.82,18.74c4.02,7.15,3.63,14.09-1.12,20.84c-0.88,1.24-1.74,2.85-1.75,4.3
	c-0.12,18.58-0.08,37.15-0.08,56.55c3.08,0,5.9-0.13,8.7,0.03c7.4,0.41,12.72,5.31,12.86,12.73c0.27,14.98,0.28,29.97-0.01,44.95
	c-0.15,7.41-5.54,12.26-12.96,12.6c-2.66,0.12-5.33,0.02-8.6,0.02c0,9.64,0.16,18.79-0.04,27.94
	c-0.32,14.24-13.46,23.52-26.22,18.57c-7.18-2.79-11.23-8.26-12.39-15.8c-0.66-4.3,0.85-7.8,5.41-8.52
	c4.22-0.67,6.82,1.74,7.39,6.03c0.56,4.19,2.69,6.86,7.09,6.42c4.45-0.45,5.78-3.73,5.78-7.77
	C776.56,493.16,776.57,484.51,776.57,474.97z"/>
<path class="st0" d="M609.08,444.6c-8.17-14.15-16.18-28-24.54-42.48c32.92-19.02,65.62-37.91,98.56-56.94
	c5.72,15.44,13.54,29.39,24.59,42.44C675.08,406.47,642.27,425.43,609.08,444.6z"/>
<path class="st0" d="M338.04,571.59c0-16.44-0.08-32.46,0.05-48.48c0.03-4.28,2.77-6.66,6.94-6.74c8.46-0.17,16.95-0.33,25.39,0.13
	c2.25,0.12,5.57,2.01,6.36,3.93c6.89,16.74,13.33,33.68,20.13,51.16C377.05,571.59,357.91,571.59,338.04,571.59z"/>
<linearGradient id="SVGID_00000045583370525243608930000007357723378411279509_" gradientUnits="userSpaceOnUse" x1="805.4327" y1="665.2741" x2="838.6695" y2="665.2741">
	<stop  offset="0" style="stop-color:#7ECAB6"/>
	<stop  offset="1" style="stop-color:#15818E"/>
</linearGradient>
<path style="fill:url(#SVGID_00000045583370525243608930000007357723378411279509_);" d="M805.55,655.04
	c8.58,0,16.65-0.14,24.72,0.14c1.27,0.04,3.17,1.72,3.6,3.02c1.78,5.42,3.11,10.98,4.8,17.21c-9.19,0-17.41,0.4-25.57-0.16
	c-4.27-0.29-7-3.78-7.46-8.12C805.24,663.42,805.55,659.64,805.55,655.04z"/>
<linearGradient id="SVGID_00000002354171971130774420000009050180833635385009_" gradientUnits="userSpaceOnUse" x1="491.9999" y1="730.0027" x2="526.2361" y2="730.0027">
	<stop  offset="0" style="stop-color:#7ECAB6"/>
	<stop  offset="1" style="stop-color:#15818E"/>
</linearGradient>
<path style="fill:url(#SVGID_00000002354171971130774420000009050180833635385009_);" d="M509.23,713.05
	c9.24,0.05,16.9,7.61,17,16.77c0.1,9.33-7.79,17.18-17.22,17.14c-9.2-0.04-16.89-7.65-17.01-16.81
	C491.88,720.83,499.78,713,509.23,713.05z"/>
<linearGradient id="SVGID_00000128450956873825960620000011227583984377517184_" gradientUnits="userSpaceOnUse" x1="367.6709" y1="729.9991" x2="401.7897" y2="729.9991">
	<stop  offset="0" style="stop-color:#7ECAB6"/>
	<stop  offset="1" style="stop-color:#15818E"/>
</linearGradient>
<path style="fill:url(#SVGID_00000128450956873825960620000011227583984377517184_);" d="M384.54,746.96
	c-9.23-0.08-16.81-7.67-16.87-16.89c-0.06-9.43,7.71-17.09,17.25-17.02c9.25,0.07,16.83,7.64,16.87,16.85
	C401.83,739.27,393.98,747.03,384.54,746.96z"/>
<linearGradient id="SVGID_00000015352843309611764320000017505757756856829350_" gradientUnits="userSpaceOnUse" x1="728.3314" y1="730.0015" x2="762.5004" y2="730.0015">
	<stop  offset="0" style="stop-color:#7ECAB6"/>
	<stop  offset="1" style="stop-color:#15818E"/>
</linearGradient>
<path style="fill:url(#SVGID_00000015352843309611764320000017505757756856829350_);" d="M745.6,713.05
	c9.24,0.08,16.86,7.66,16.9,16.84c0.05,9.36-7.82,17.14-17.26,17.07c-9.19-0.07-16.84-7.7-16.91-16.88
	C728.26,720.71,736.12,712.97,745.6,713.05z"/>
</svg>
