<?xml version="1.0" encoding="utf-8"?>
<!-- Generator: Adobe Illustrator 27.3.1, SVG Export Plug-In . SVG Version: 6.00 Build 0)  -->
<svg version="1.1" id="Layer_1" xmlns="http://www.w3.org/2000/svg" xmlns:xlink="http://www.w3.org/1999/xlink" x="0px" y="0px"
	 viewBox="0 0 1080 1080" style="enable-background:new 0 0 1080 1080;" xml:space="preserve">
<style type="text/css">
	.st0{fill:#EB382E;}
	.st1{fill:url(#SVGID_1_);}
	.st2{fill:url(#SVGID_00000039842767410989818630000007766071476751532478_);}
	.st3{fill:url(#SVGID_00000133524082404958773620000013655327154594937732_);}
	.st4{fill:url(#SVGID_00000097492886269420464170000007712551907788047789_);}
	.st5{fill:url(#SVGID_00000004510702566757941310000016127127917117042839_);}
	.st6{fill:#FFFFFF;}
	.st7{fill:url(#SVGID_00000123431070349683904620000008443375763644255372_);}
	.st8{fill:url(#SVGID_00000134214103792281284350000010073747765948226971_);}
	.st9{fill:url(#SVGID_00000050625459818746743020000013500288863844413087_);}
	.st10{fill:url(#SVGID_00000179627969404215544830000013967572116649531791_);}
	.st11{fill:url(#SVGID_00000156575067392269068970000007650852426276979132_);}
	.st12{fill:url(#SVGID_00000023247123370266506430000017009532593614778525_);}
	.st13{fill:url(#SVGID_00000182525588934813706540000010785078257653099924_);}
	.st14{fill:url(#SVGID_00000008842540165046710160000015505212331839105428_);}
	.st15{fill:url(#SVGID_00000054948687079907419070000017492928760077744300_);}
	.st16{fill:url(#SVGID_00000183242181760150046310000016715485789452094886_);}
	.st17{fill:url(#SVGID_00000053515149350517972110000005369304000386398135_);}
	.st18{fill:url(#SVGID_00000124121468179611643510000016047354442115173271_);}
	.st19{fill:url(#SVGID_00000173847647337687223830000012519081949502714021_);}
	.st20{fill:url(#SVGID_00000003821539321752879480000015916925773454042501_);}
	.st21{fill:url(#SVGID_00000063594008400007775900000005735903823138902453_);}
	.st22{fill:url(#SVGID_00000132062477072589692450000017437870337620371129_);}
	.st23{fill:url(#SVGID_00000177473898797974322360000004998276285717600642_);}
	.st24{fill:url(#SVGID_00000082340494958810374610000007806546441435946915_);}
	.st25{fill:url(#SVGID_00000052069663633219050560000016125630957713667257_);}
	.st26{fill:url(#SVGID_00000111155308817892995440000000858837111420726154_);}
	.st27{fill:url(#SVGID_00000057840549891784342060000006162056690865065648_);}
	.st28{fill:url(#SVGID_00000172400714839191082810000006176894551046222739_);}
	.st29{fill:url(#SVGID_00000064336175336744216140000017219730280656315269_);}
	.st30{fill:url(#SVGID_00000005958598869269355000000000074165739431971236_);}
	.st31{fill:url(#SVGID_00000176031882791414137590000014439660553134757034_);}
	.st32{fill:url(#SVGID_00000163049824187978861090000012085538217982932388_);}
	.st33{fill:url(#SVGID_00000038407354168444446080000005309432876204107416_);}
	.st34{fill:url(#SVGID_00000024706037798985534410000000175881903332105635_);}
	.st35{fill:url(#SVGID_00000102538348436775088480000009124444883235214494_);}
	.st36{fill:url(#SVGID_00000090285540069683945680000006970892326286333845_);}
	.st37{fill:url(#SVGID_00000070812852465185624920000008510255853492592821_);}
	.st38{fill:url(#SVGID_00000133489418851868593960000015576966106086481064_);}
	.st39{fill:url(#SVGID_00000061464008425302296260000015466121202122350989_);}
	.st40{fill:url(#SVGID_00000051351172544399113260000010414828442589992887_);}
	.st41{fill:url(#SVGID_00000001658589365304164150000001534724783703018157_);}
	.st42{fill:url(#SVGID_00000064316696461361624900000018094028282829552558_);}
	.st43{fill:url(#SVGID_00000018215297620578295160000010030350850894449554_);}
	.st44{fill:url(#SVGID_00000074410283906252475340000017797365176534033342_);}
	.st45{fill:url(#SVGID_00000183950050545347955050000008745083548988066186_);}
	.st46{fill:url(#SVGID_00000121255297512006655710000000544104445881078434_);}
	.st47{fill:url(#SVGID_00000163775175090418539750000000990190803019003286_);}
	.st48{fill:url(#SVGID_00000159443846628555710730000006780837475559858091_);}
	.st49{fill:url(#SVGID_00000081617476310633099410000005159189578037128624_);}
	.st50{fill:url(#SVGID_00000139978608293416176820000006549826129340152448_);}
	.st51{fill:url(#SVGID_00000040536274496085272380000010063883074097847476_);}
</style>
<linearGradient id="SVGID_1_" gradientUnits="userSpaceOnUse" x1="261.6246" y1="547.9122" x2="666.5468" y2="547.9122">
	<stop  offset="0" style="stop-color:#7ECAB6"/>
	<stop  offset="1" style="stop-color:#15818E"/>
</linearGradient>
<path class="st1" d="M261.62,433.61c134.86,0,269.71,0,404.92,0c0,76.05,0,151.54,0,227.72c-2.62,0.13-5.22,0.36-7.82,0.36
	c-129.69,0.02-259.37,0.01-389.06,0.04c-2.68,0-5.36,0.32-8.05,0.49C261.62,586.01,261.62,509.81,261.62,433.61z"/>
<path class="st0" d="M693.9,719.16c-36.85,0-73.68,0-111,0c0.83,16.84-3.7,31.41-16.92,42.45c-9.02,7.53-19.47,11.13-31.05,10.64
	c-24.3-1.03-46.41-20.58-44.61-52.9c-15.32,0-30.62,0-45.92,0c1.84,36.94-25.38,53.11-46.41,53.01
	c-22.76-0.11-48.24-18.15-46.13-53.42c-13.59,0-27.17,0-41.05,0c0-13.67,0-26.53,0-39.96c124.65,0,249.09,0,374.19,0
	c0-58.66,0-116.76,0-175.27c2.51-0.12,4.38-0.3,6.25-0.3c39.06-0.02,78.12,0.04,117.18-0.09c3.98-0.01,6.12,1,7.82,4.88
	c12.4,28.29,25.11,56.45,37.64,84.68c0.91,2.06,1.69,4.4,1.7,6.61c0.1,38.87,0.06,77.74,0.04,116.62c0,0.57-0.14,1.14-0.31,2.43
	c-22.8,0-45.67,0-69.21,0c1.42,18.14-3.81,33.02-17.86,44.09c-8.69,6.85-18.72,9.97-29.68,9.65
	C717.27,771.65,691.88,754.58,693.9,719.16z M715.09,529.52c0,22.41,0,43.73,0,65.12c37.21,0,73.86,0,110.98,0
	c-0.73-1.99-1.24-3.62-1.92-5.18c-7.79-17.87-15.77-35.67-23.32-53.64c-2.06-4.91-4.96-6.45-10.12-6.4c-23.2,0.23-46.4,0.1-69.6,0.1
	C719.21,529.52,717.31,529.52,715.09,529.52z M416.08,725.63c0.02-9.95-8.04-18.13-17.9-18.18c-9.78-0.06-18.12,8.18-18.21,17.98
	c-0.09,10.3,8.04,18.46,18.29,18.36C408.34,743.7,416.06,735.82,416.08,725.63z M536.34,743.78c10.21,0.13,18.49-8.07,18.44-18.27
	c-0.05-9.79-8.38-18.06-18.18-18.06c-9.79,0.01-18.13,8.3-18.16,18.08C518.4,735.48,526.42,743.66,536.34,743.78z M739.89,743.79
	c10.07,0.11,18.09-7.65,18.32-17.72c0.22-10.09-8.09-18.64-18.11-18.62c-9.83,0.02-17.98,8.23-17.99,18.12
	C722.09,735.73,729.85,743.68,739.89,743.79z"/>
</svg>
