<?xml version="1.0" encoding="utf-8"?>
<!-- Generator: Adobe Illustrator 27.3.1, SVG Export Plug-In . SVG Version: 6.00 Build 0)  -->
<svg version="1.1" id="Layer_1" xmlns="http://www.w3.org/2000/svg" xmlns:xlink="http://www.w3.org/1999/xlink" x="0px" y="0px"
	 viewBox="0 0 1080 1080" style="enable-background:new 0 0 1080 1080;" xml:space="preserve">
<style type="text/css">
	.st0{fill:#EB382E;}
	.st1{fill:url(#SVGID_1_);}
	.st2{fill:url(#SVGID_00000070080060559519114040000007015473050711428511_);}
	.st3{fill:url(#SVGID_00000115481167640234742840000016088504833487749283_);}
	.st4{fill:url(#SVGID_00000123409781306590701010000013553384071518727857_);}
	.st5{fill:url(#SVGID_00000072980961023639698760000000020544575684465845_);}
	.st6{fill:#FFFFFF;}
	.st7{fill:url(#SVGID_00000014592657833307709060000006648632909912918430_);}
	.st8{fill:url(#SVGID_00000149376188049476137260000004535489660237845686_);}
	.st9{fill:url(#SVGID_00000028285096232430600140000017672964332565935794_);}
	.st10{fill:url(#SVGID_00000049202356610066681340000014823025728961987761_);}
	.st11{fill:url(#SVGID_00000032621838250835560770000009022575463041922951_);}
	.st12{fill:url(#SVGID_00000032649273908761859500000006322412575321924269_);}
	.st13{fill:url(#SVGID_00000080180291592820728080000008504771129884892074_);}
	.st14{fill:url(#SVGID_00000150794792869142002220000009625344081826485385_);}
	.st15{fill:url(#SVGID_00000144331923223576926960000013485411036849830804_);}
	.st16{fill:url(#SVGID_00000008856296385237677780000012668012524777112503_);}
	.st17{fill:url(#SVGID_00000025425367376929160960000001612699228046709647_);}
	.st18{fill:url(#SVGID_00000129921513395409212690000015982142813954970793_);}
	.st19{fill:url(#SVGID_00000057851167891390534140000009734658428245169068_);}
	.st20{fill:url(#SVGID_00000164515142134838152290000009438726413762228614_);}
	.st21{fill:url(#SVGID_00000145039205317999122250000008215286135365516193_);}
	.st22{fill:url(#SVGID_00000129174881164775808500000012099514676665564326_);}
	.st23{fill:url(#SVGID_00000178186301844406107320000000829451441786151339_);}
	.st24{fill:url(#SVGID_00000172411736317848398170000016740978224978175368_);}
	.st25{fill:url(#SVGID_00000131332429305466228880000000593074313462464176_);}
	.st26{fill:url(#SVGID_00000047048009044560734230000008434303009274405781_);}
	.st27{fill:url(#SVGID_00000036932244214369070880000016611541767988552588_);}
	.st28{fill:url(#SVGID_00000070808511254514517550000010975002085564506015_);}
	.st29{fill:url(#SVGID_00000150795456058772971350000003610421706238122884_);}
	.st30{fill:url(#SVGID_00000012439655257640692520000010646053407298477218_);}
	.st31{fill:url(#SVGID_00000165956534433389486090000016783746936719910036_);}
	.st32{fill:url(#SVGID_00000033334472835630144260000000822342546842084742_);}
	.st33{fill:url(#SVGID_00000135692575407344020800000018412980896151618961_);}
	.st34{fill:url(#SVGID_00000176008153518977996320000003550845289624459668_);}
	.st35{fill:url(#SVGID_00000168820241881999640710000017436947361706657670_);}
	.st36{fill:url(#SVGID_00000013871760607155096890000012101445988835680183_);}
	.st37{fill:url(#SVGID_00000048484943703383201760000001640879354886613382_);}
	.st38{fill:url(#SVGID_00000098214727566533907760000013111522519130482066_);}
	.st39{fill:url(#SVGID_00000125578935888503563680000012904877969163517589_);}
	.st40{fill:url(#SVGID_00000011750735792618063250000004136144183376009915_);}
	.st41{fill:url(#SVGID_00000027600046642307341010000010605640084779964293_);}
	.st42{fill:url(#SVGID_00000029022495534045559760000000505897211322190213_);}
	.st43{fill:url(#SVGID_00000059273154795474419570000009932141444508919227_);}
	.st44{fill:url(#SVGID_00000132054850224845261680000005618771576257083823_);}
	.st45{fill:url(#SVGID_00000033353416726562491260000009913963596156584349_);}
	.st46{fill:url(#SVGID_00000053532101812073936180000005726938490113605519_);}
	.st47{fill:url(#SVGID_00000173876285318286790690000003850665381152278415_);}
	.st48{fill:url(#SVGID_00000123422028813448472800000015706188390646699689_);}
	.st49{fill:url(#SVGID_00000166657266592005130550000014243769452924770176_);}
	.st50{fill:url(#SVGID_00000172416623017360963690000008186580891467755690_);}
	.st51{fill:url(#SVGID_00000168812085059862477430000002746873600385568912_);}
</style>
<path class="st0" d="M863.46,672.54c-2.74,5.42-7.25,8.27-12.99,10.14c-42.08,13.7-84.07,27.66-126.14,41.37
	c-3.2,1.04-6.95,1.52-10.23,0.98c-5.84-0.96-8.08-5.85-9.78-10.98c-14.11-42.52-28.26-85.02-42.42-127.53
	c-21.29-63.93-42.61-127.85-63.88-191.79c-0.87-2.62-1.67-5.32-2.06-8.04c-0.83-5.81,2.53-11.11,8-13.1
	c5.29-1.92,11.6,0.16,14.52,5.15c1.48,2.52,2.48,5.37,3.41,8.16c33.87,101.72,67.71,203.46,101.57,305.19
	c0.52,1.56,1.17,3.07,1.97,5.14c9.78-3.18,19.41-6.28,29.02-9.44c29.2-9.6,58.39-19.23,87.58-28.83
	c11.76-3.87,14.81-2.88,21.43,6.88C863.46,668.08,863.46,670.31,863.46,672.54z"/>
<linearGradient id="SVGID_1_" gradientUnits="userSpaceOnUse" x1="293.721" y1="552.8254" x2="694.1712" y2="552.8254">
	<stop  offset="0" style="stop-color:#7ECAB6"/>
	<stop  offset="1" style="stop-color:#15818E"/>
</linearGradient>
<path class="st1" d="M333.6,722.55c-7.69,0-15.08,0-23.31,0c-2.41-10.06-5.03-20.21-7.24-30.44c-4.99-23.21-9.72-46.51-9.31-70.38
	c0.13-7.66,1.67-15.45,3.62-22.9c2.05-7.79,8.03-10.93,16.11-10.76c11.3,0.25,22.61,0.06,34.74,0.06c0-72.08,0-143.89,0-216.29
	c3,0,5.18,0,7.36,0c44.34,0,88.69,0.78,133-0.29c26.84-0.65,46.19,10.77,61.76,31.04c15.55,20.25,25.48,43.38,33.87,67.21
	c15.34,43.54,24,88.61,30,134.25c1.26,9.57,6.9,14.83,16.51,14.09c4.7-0.36,9.36-1.97,13.9-3.44c3.3-1.07,6.36-2.85,10.07-4.56
	c13.18,41.4,26.24,82.41,39.48,123.99c-8.01,0-15.45,0-23.36,0c3.27-23.27-2.69-43.6-19.35-60.16
	c-12.03-11.95-26.81-18.2-43.8-19.21c-32.32-1.92-69.11,22.43-70.84,67.59c-25.3,0-50.61,0-76.46,0
	c-1.73-20.53-11.06-36.93-27.98-48.79c-10.97-7.7-23.36-10.99-36.69-10.91C370.11,662.81,337.55,682.63,333.6,722.55z
	 M383.79,553.22c2.54,0,4.54,0,6.54,0c21.51,0,43.02,0.09,64.52-0.09c3.64-0.03,5.59,1.1,7.38,4.28
	c9.94,17.78,20.21,35.39,30.18,53.15c1.65,2.94,3.42,4.16,6.89,4.14c23.36-0.16,46.73-0.07,70.09-0.1c1.48,0,2.95-0.31,5.66-0.61
	c-7.69-37.43-15.23-74.05-22.72-110.68c-4.81-23.47-10.95-46.5-22.74-67.61c-10.5-18.8-24.7-30.19-48.09-29.23
	c-30.36,1.25-60.8,0.31-91.21,0.31c-2.12,0-4.23,0-6.49,0C383.79,455.94,383.79,504.13,383.79,553.22z"/>
<linearGradient id="SVGID_00000075884440163692086920000003870284476282840999_" gradientUnits="userSpaceOnUse" x1="546.3549" y1="720.8846" x2="663.1064" y2="720.8846">
	<stop  offset="0" style="stop-color:#7ECAB6"/>
	<stop  offset="1" style="stop-color:#15818E"/>
</linearGradient>
<path style="fill:url(#SVGID_00000075884440163692086920000003870284476282840999_);" d="M663.11,721.13
	c-0.11,31.81-27.03,58.43-58.78,58.12c-31.64-0.31-57.98-26.86-57.98-58.44c0-31.84,26.66-58.37,58.57-58.3
	C636.9,662.58,663.22,689.1,663.11,721.13z M638.56,720.78c-0.07-18.34-15.42-33.67-33.76-33.71
	c-18.32-0.03-33.69,15.22-33.88,33.62c-0.19,18.36,15.74,34.27,34.07,34.03C623.4,754.48,638.63,739.09,638.56,720.78z"/>
<linearGradient id="SVGID_00000058565218770623367500000014063651678539038597_" gradientUnits="userSpaceOnUse" x1="340.1502" y1="728.6044" x2="450.8458" y2="728.6044">
	<stop  offset="0" style="stop-color:#7ECAB6"/>
	<stop  offset="1" style="stop-color:#15818E"/>
</linearGradient>
<path style="fill:url(#SVGID_00000058565218770623367500000014063651678539038597_);" d="M395.69,673.24
	c30.46,0.15,55.49,25.51,55.15,55.88c-0.34,30.33-25.27,54.94-55.57,54.85c-30.49-0.09-55.33-25.26-55.12-55.84
	C340.36,697.93,365.49,673.09,395.69,673.24z M395.49,760.61c17.57,0,31.82-14.12,32-31.73c0.19-17.71-14.27-32.34-31.99-32.36
	c-17.7-0.02-32.11,14.56-31.98,32.35C363.65,746.46,377.91,760.62,395.49,760.61z"/>
</svg>
