<?xml version="1.0" encoding="utf-8"?>
<!-- Generator: Adobe Illustrator 27.3.1, SVG Export Plug-In . SVG Version: 6.00 Build 0)  -->
<svg version="1.1" id="Layer_1" xmlns="http://www.w3.org/2000/svg" xmlns:xlink="http://www.w3.org/1999/xlink" x="0px" y="0px"
	 viewBox="0 0 1080 1080" style="enable-background:new 0 0 1080 1080;" xml:space="preserve">
<style type="text/css">
	.st0{fill:#EB382E;}
	.st1{fill:url(#SVGID_1_);}
	.st2{fill:url(#SVGID_00000002371216922702446690000012199417206204710590_);}
	.st3{fill:url(#SVGID_00000136411046695037102910000013482914691854366365_);}
	.st4{fill:url(#SVGID_00000103227528381992984960000013383909753020872858_);}
	.st5{fill:url(#SVGID_00000117669756943130593550000009044404037688877712_);}
	.st6{fill:#FFFFFF;}
	.st7{fill:url(#SVGID_00000120531814739131631730000006450888359413477809_);}
	.st8{fill:url(#SVGID_00000098922432018949783190000006966787243985297310_);}
	.st9{fill:url(#SVGID_00000034088374877617484130000012878696078171793287_);}
	.st10{fill:url(#SVGID_00000182524895559000449140000017092066299479738247_);}
	.st11{fill:url(#SVGID_00000055698208688417897330000014050737324424927395_);}
	.st12{fill:url(#SVGID_00000165230581257014585980000002793287036105521539_);}
	.st13{fill:url(#SVGID_00000120553321462898941960000009761875391600817034_);}
	.st14{fill:url(#SVGID_00000120535540908953173720000014678361243613329829_);}
	.st15{fill:url(#SVGID_00000153697160127927483700000002988307879904471427_);}
	.st16{fill:url(#SVGID_00000072983933129506218320000005174232930229236897_);}
	.st17{fill:url(#SVGID_00000070083101214330741480000015346054390974016131_);}
	.st18{fill:url(#SVGID_00000062907574339176407880000005992460875453886141_);}
	.st19{fill:url(#SVGID_00000057144535021666163210000006863707095949482386_);}
	.st20{fill:url(#SVGID_00000027577901062778143050000003659949405377482162_);}
	.st21{fill:url(#SVGID_00000165939416779029015900000017759189761141741964_);}
	.st22{fill:url(#SVGID_00000044893710813524650080000006077848556181146752_);}
	.st23{fill:url(#SVGID_00000174601651738669400590000004948402076152717963_);}
	.st24{fill:url(#SVGID_00000124140677758930802120000004949607906243820209_);}
	.st25{fill:url(#SVGID_00000057857369272585127100000007881300174020659848_);}
	.st26{fill:url(#SVGID_00000049222560129549619450000002678628752912651449_);}
	.st27{fill:url(#SVGID_00000033343448357311750690000017052151404243653540_);}
	.st28{fill:url(#SVGID_00000175309654973836460720000009518485643149135030_);}
	.st29{fill:url(#SVGID_00000129204339197771084020000003645696852234917275_);}
	.st30{fill:url(#SVGID_00000173844320788740124980000002656114715464212879_);}
	.st31{fill:url(#SVGID_00000105395325902454607550000017105233398081770120_);}
	.st32{fill:url(#SVGID_00000154425928524428754340000006267200463586031490_);}
	.st33{fill:url(#SVGID_00000158024668402999228580000016642161622618058929_);}
	.st34{fill:url(#SVGID_00000065033161427509097720000003476318990789440160_);}
	.st35{fill:url(#SVGID_00000124844909142272921370000000180869755583700655_);}
	.st36{fill:url(#SVGID_00000148648209529987585740000011988814681703794090_);}
	.st37{fill:url(#SVGID_00000031166007848480694660000001062271152801222571_);}
	.st38{fill:url(#SVGID_00000062165084686229542390000007061445502021244822_);}
	.st39{fill:url(#SVGID_00000070801642814743678950000015405062765291145368_);}
	.st40{fill:url(#SVGID_00000178911265922566770830000015250787050764249517_);}
	.st41{fill:url(#SVGID_00000155146978774530258160000002695638150678641835_);}
	.st42{fill:url(#SVGID_00000091697756226176267920000011641444793529643153_);}
	.st43{fill:url(#SVGID_00000078035660494360543850000007606049038690923184_);}
	.st44{fill:url(#SVGID_00000092428975222989017490000006153861232346525081_);}
	.st45{fill:url(#SVGID_00000086658996581922388340000010283008757935794873_);}
	.st46{fill:url(#SVGID_00000029738867249940811520000007254428916658481076_);}
	.st47{fill:url(#SVGID_00000027566017165417448930000014125427060583957127_);}
	.st48{fill:url(#SVGID_00000011020663801725976120000005127449172661609401_);}
	.st49{fill:url(#SVGID_00000137825850814962536720000015077478087106458512_);}
	.st50{fill:url(#SVGID_00000102540010840581720220000000250860659766545583_);}
	.st51{fill:url(#SVGID_00000158740717272122205040000010403334755979592619_);}
</style>
<path class="st0" d="M227.74,492.88c0.85-2.84,1.72-5.67,2.54-8.52c7.11-24.57,29.69-42.41,55.23-43.31
	c9.43-0.33,18.87-0.05,28.78-0.05c-0.19-6.28,3.33-12.49-4.61-15.96c-1.11-0.48-1.85-4.2-1.18-5.72c0.78-1.76,3.3-3.85,5.1-3.88
	c17.66-0.31,35.34-0.36,53-0.08c2.01,0.03,4.67,2.12,5.75,4c0.75,1.31-0.14,5.2-1.25,5.67c-8.05,3.39-4.21,9.74-4.73,15.46
	c76.68,0,152.89,0,229.7,0c-0.52-5.52,3.6-11.74-4.48-15.28c-1.22-0.54-2.21-4.89-1.36-6.12c1.33-1.91,4.31-3.66,6.64-3.73
	c12.28-0.36,24.57-0.18,36.85-0.18c4.96,0,9.97-0.38,14.85,0.26c2.07,0.27,4.54,2.38,5.51,4.31c0.67,1.33-0.4,5.03-1.62,5.56
	c-7.81,3.42-3.65,9.62-4.56,15.52c7.7,0,14.76-0.02,21.82,0c39.59,0.15,64.86,25.57,64.89,65.3c0.02,19.83,0.03,39.66,0,59.49
	c-0.06,36.47-22.42,61.18-59.53,64.77c0,6.99,0,14.17,0,22.01c-3.14,0-5.25,0-7.35,0c-47.21,0-94.41-0.04-141.62,0.08
	c-4.19,0.01-7.09-1.2-10.09-4.25c-25.63-26.11-67-25.85-92.63,0.37c-4.96,5.07-16.71,5.53-21.38,0.84
	c-24.41-24.49-56.78-27.49-85.74-7.95c-0.53,0.35-1.15,0.56-2.46,1.19c-0.28-4.18-0.55-8.06-0.85-12.53c-7.2,0-14.05,0.01-20.9,0
	c-33.45-0.07-55.73-17.77-63.34-50.3c-0.13-0.58-0.65-1.06-0.98-1.59C227.74,549.79,227.74,521.34,227.74,492.88z"/>
<linearGradient id="SVGID_1_" gradientUnits="userSpaceOnUse" x1="529.9281" y1="591.6744" x2="889.9916" y2="591.6744">
	<stop  offset="0" style="stop-color:#7ECAB6"/>
	<stop  offset="1" style="stop-color:#15818E"/>
</linearGradient>
<path class="st1" d="M873.44,693.03c-3.03-40.95-33.78-61.22-62.32-61.21c-29.47,0-59.74,21.38-62.3,61.27
	c-71.16,0-142.36,0-213.24,0c-1.89-8.83-3.71-17.34-5.65-26.37c71.68,0,143.55,0,216.42,0c0-3.04,0-5.52,0-8.01
	c0-50.64,0-101.29,0-151.93c0-13.06,3.92-17.03,16.88-17.04c33.4-0.02,66.81-0.01,100.21-0.01c1.29,0,2.59-0.05,3.88,0.06
	c5.67,0.48,9.2,3.92,8.88,8.99c-0.34,5.3-3.34,8.26-8.69,8.53c-3.15,0.16-6.31,0.03-10.46,0.03c3.63,11.88,6.93,22.72,10.25,33.55
	c6.37,20.77,13,41.47,18.99,62.35c2,6.96,3.15,14.35,3.36,21.59c0.52,18.08,0.26,36.19,0.33,54.29
	C890.04,693.83,889.1,694.65,873.44,693.03z M867.77,581.87c-4.64-15.13-8.75-28.86-13.19-42.49c-0.38-1.16-2.97-2.24-4.55-2.26
	c-13.12-0.18-26.25-0.04-39.38-0.13c-5.13-0.04-7.46,2.12-7.36,7.37c0.17,9.9,0.33,19.81-0.06,29.69c-0.23,5.84,2.63,7.78,7.67,7.8
	C829.37,581.9,847.84,581.87,867.77,581.87z"/>
<linearGradient id="SVGID_00000178899403630796611400000001503002924690783362_" gradientUnits="userSpaceOnUse" x1="419.1287" y1="693.5296" x2="520.604" y2="693.5296">
	<stop  offset="0" style="stop-color:#7ECAB6"/>
	<stop  offset="1" style="stop-color:#15818E"/>
</linearGradient>
<path style="fill:url(#SVGID_00000178899403630796611400000001503002924690783362_);" d="M469.66,744.18
	c-28.32-0.12-50.69-22.76-50.53-51.15c0.16-27.83,22.84-50.18,50.91-50.14c27.89,0.03,50.47,22.6,50.56,50.54
	C520.7,721.61,497.93,744.29,469.66,744.18z M470.19,671.15c-12.78-0.13-22.69,9.46-22.8,22.07c-0.11,12.57,9.7,22.71,22.17,22.93
	c12.25,0.21,22.74-9.95,23.01-22.29C492.84,681.57,482.69,671.28,470.19,671.15z"/>
<linearGradient id="SVGID_00000089542591035606489540000005943690454961953726_" gradientUnits="userSpaceOnUse" x1="760.5248" y1="693.4589" x2="861.7695" y2="693.4589">
	<stop  offset="0" style="stop-color:#7ECAB6"/>
	<stop  offset="1" style="stop-color:#15818E"/>
</linearGradient>
<path style="fill:url(#SVGID_00000089542591035606489540000005943690454961953726_);" d="M861.77,693.77
	c-0.12,28.1-22.56,50.33-50.73,50.26c-28.4-0.07-50.74-22.7-50.51-51.16c0.22-27.92,22.89-50.1,51.09-49.99
	C839.57,642.99,861.89,665.63,861.77,693.77z M788.74,693.36c-0.05,12.59,9.86,22.7,22.34,22.79c12.34,0.08,22.68-10.13,22.8-22.5
	c0.12-12.39-9.99-22.56-22.5-22.64C798.72,670.93,788.79,680.73,788.74,693.36z"/>
<linearGradient id="SVGID_00000106850582899327309430000000892009501306297525_" gradientUnits="userSpaceOnUse" x1="304.0092" y1="693.459" x2="405.3022" y2="693.459">
	<stop  offset="0" style="stop-color:#7ECAB6"/>
	<stop  offset="1" style="stop-color:#15818E"/>
</linearGradient>
<path style="fill:url(#SVGID_00000106850582899327309430000000892009501306297525_);" d="M405.3,693.63
	c-0.08,28.14-22.44,50.43-50.59,50.41c-28.39-0.02-50.87-22.63-50.71-51.01c0.16-27.86,22.87-50.2,50.99-50.14
	C382.97,642.94,405.38,665.55,405.3,693.63z M354.45,671.01c-12.63,0.15-22.31,10.1-22.18,22.81c0.13,12.52,10.39,22.58,22.78,22.34
	c12.37-0.24,22.6-10.73,22.39-22.97C377.23,680.77,366.96,670.86,354.45,671.01z"/>
<linearGradient id="SVGID_00000041999840847060118270000001488339233718090153_" gradientUnits="userSpaceOnUse" x1="256.3143" y1="679.892" x2="294.6745" y2="679.892">
	<stop  offset="0" style="stop-color:#7ECAB6"/>
	<stop  offset="1" style="stop-color:#15818E"/>
</linearGradient>
<path style="fill:url(#SVGID_00000041999840847060118270000001488339233718090153_);" d="M294.67,666.6
	c-2.02,9.15-3.85,17.45-5.83,26.46c-7.01,0-14.91,0.66-22.65-0.21c-6.18-0.7-10.45-7.87-9.82-14.04c0.68-6.66,5.74-11.8,12.91-12.12
	C277.64,666.31,286.01,666.6,294.67,666.6z"/>
</svg>
