<?xml version="1.0" encoding="utf-8"?>
<!-- Generator: Adobe Illustrator 27.3.1, SVG Export Plug-In . SVG Version: 6.00 Build 0)  -->
<svg version="1.1" id="Layer_1" xmlns="http://www.w3.org/2000/svg" xmlns:xlink="http://www.w3.org/1999/xlink" x="0px" y="0px"
	 viewBox="0 0 1080 1080" style="enable-background:new 0 0 1080 1080;" xml:space="preserve">
<style type="text/css">
	.st0{fill:#EB382E;}
	.st1{fill:url(#SVGID_1_);}
	.st2{fill:url(#SVGID_00000013155759292855606850000015060860509920771227_);}
	.st3{fill:url(#SVGID_00000173883713854857195160000015358431355527033226_);}
	.st4{fill:url(#SVGID_00000161597852337444572960000011635733496397549235_);}
	.st5{fill:url(#SVGID_00000121999719810623635850000001232985152349690772_);}
	.st6{fill:#FFFFFF;}
	.st7{fill:url(#SVGID_00000096773977355887860530000006968171025266154424_);}
	.st8{fill:url(#SVGID_00000150080203907312510200000002175114798971677331_);}
	.st9{fill:url(#SVGID_00000042737011953106053930000010262902191111605404_);}
	.st10{fill:url(#SVGID_00000061435651932724120450000003414945086851316656_);}
	.st11{fill:url(#SVGID_00000003784384639926654150000006373997391841152700_);}
	.st12{fill:url(#SVGID_00000004523594208287500860000004035572554341254842_);}
	.st13{fill:url(#SVGID_00000006703624862729020850000013373482371775922075_);}
	.st14{fill:url(#SVGID_00000145022055561558933150000000983133215727644598_);}
	.st15{fill:url(#SVGID_00000091005544073540212150000011959531882544143756_);}
	.st16{fill:url(#SVGID_00000152261870235960879990000017660841478534067385_);}
	.st17{fill:url(#SVGID_00000129899146796660360910000011498835220477477270_);}
	.st18{fill:url(#SVGID_00000006691299332280538580000006676316058683098246_);}
	.st19{fill:url(#SVGID_00000135656308387610153350000014310827652474397569_);}
	.st20{fill:url(#SVGID_00000031913609826560565450000002680243763825920659_);}
	.st21{fill:url(#SVGID_00000021818530172807529050000011312837921497886368_);}
	.st22{fill:url(#SVGID_00000117666323726939013590000008340707223341141401_);}
	.st23{fill:url(#SVGID_00000114061878338633825770000004684506417643318415_);}
	.st24{fill:url(#SVGID_00000035501136783839137930000007228337024431340986_);}
	.st25{fill:url(#SVGID_00000169539594966558476570000006309995039429094548_);}
	.st26{fill:url(#SVGID_00000098180204179444270130000001072852530326717372_);}
	.st27{fill:url(#SVGID_00000137816287656065595920000013948619854776387729_);}
	.st28{fill:url(#SVGID_00000013151586393121618070000013473000314971731072_);}
	.st29{fill:url(#SVGID_00000148630580406890805540000017511163499881486250_);}
	.st30{fill:url(#SVGID_00000176764542526461917880000012819962878116367238_);}
	.st31{fill:url(#SVGID_00000176738897811013579370000000605323193420898695_);}
	.st32{fill:url(#SVGID_00000151504774953053290410000015392847718809186480_);}
	.st33{fill:url(#SVGID_00000046311235166489409690000008197776383383402642_);}
	.st34{fill:url(#SVGID_00000125585211964752433250000013278193904713681798_);}
	.st35{fill:url(#SVGID_00000030457636227376930770000004947911821396715429_);}
	.st36{fill:url(#SVGID_00000109719658496504744580000001280046707786266001_);}
	.st37{fill:url(#SVGID_00000034049807827064314230000009922877391191328400_);}
	.st38{fill:url(#SVGID_00000149379396741716279040000004000064740658762679_);}
	.st39{fill:url(#SVGID_00000106837548879239014440000009390989274631938203_);}
	.st40{fill:url(#SVGID_00000155119804113760326960000009763730537475153570_);}
	.st41{fill:url(#SVGID_00000121252210064693527380000018328381736425534360_);}
	.st42{fill:url(#SVGID_00000042716483221187406130000011684847611704713860_);}
	.st43{fill:url(#SVGID_00000125601319815352174920000013701512615099901887_);}
	.st44{fill:url(#SVGID_00000172436797090188050540000018215647721222158237_);}
	.st45{fill:url(#SVGID_00000103261181401941533600000005833475600363732871_);}
	.st46{fill:url(#SVGID_00000093162528944401541930000006919992890344209059_);}
	.st47{fill:url(#SVGID_00000145019914956662045020000003003125488016934566_);}
	.st48{fill:url(#SVGID_00000055700079177841752690000005527020372105365692_);}
	.st49{fill:url(#SVGID_00000041272361072981682430000002377496920052020887_);}
	.st50{fill:url(#SVGID_00000157297387615453547750000015469517133514776233_);}
	.st51{fill:url(#SVGID_00000045620942610892984300000004756487683605507474_);}
</style>
<linearGradient id="SVGID_1_" gradientUnits="userSpaceOnUse" x1="261.1546" y1="528.9146" x2="852.1041" y2="528.9146">
	<stop  offset="0" style="stop-color:#7ECAB6"/>
	<stop  offset="1" style="stop-color:#15818E"/>
</linearGradient>
<path class="st1" d="M261.15,399.79c4.77-9.81,12.63-12.79,23.39-12.77c181.74,0.23,363.49,0.17,545.23,0.17
	c16.27,0,22.32,6.01,22.32,22.15c0,63.48,0,126.95,0,190.43c0,16.21-5.9,22.03-22.31,22.05c-2.43,0-4.86,0-8.6,0
	c4.84,8.47,9.09,15.88,13.31,23.3c5.59,9.83,4.8,12.68-5.11,18.36c-3,1.72-5.99,3.47-9.02,5.12c-6.99,3.81-10.81,2.82-14.79-4.06
	c-7.4-12.81-14.79-25.63-21.97-38.56c-1.71-3.08-3.7-4.23-7.24-4.23c-76.93,0.1-153.86,0.11-230.79-0.02
	c-3.89-0.01-5.78,1.41-7.56,4.63c-6.98,12.6-14.23,25.06-21.42,37.55c-4.38,7.61-8.06,8.67-15.51,4.51
	c-4.02-2.25-8.07-4.48-11.99-6.9c-5.44-3.36-6.62-7.61-3.53-13.23c4.7-8.53,9.6-16.94,14.79-26.06c-56.84,0-112.87,0-169.79,0
	c0,7.7,0.03,15.3-0.01,22.9c-0.04,8.75-2.63,11.43-11.24,11.57c-4.42,0.07-8.85,0.13-13.27-0.03c-7.07-0.26-10.1-3.37-10.18-10.44
	c-0.09-7.87-0.02-15.74-0.02-24.21c-13.07-0.98-28.29,3.76-34.71-13.28C261.15,539.08,261.15,469.44,261.15,399.79z"/>
<path class="st0" d="M592.09,639.35c33.99,0.77,60.77,28.21,60.16,61.62c-0.62,33.84-28.82,60.94-62.42,60
	c-33.09-0.93-59.85-28.65-59.28-61.39C531.15,665.73,558.88,638.6,592.09,639.35z M565.42,700.18
	c0.03,14.39,11.74,26.12,26.02,26.07c14.2-0.05,26.1-12,26.07-26.17c-0.03-14.3-11.76-25.91-26.17-25.91
	C576.85,674.17,565.39,685.67,565.42,700.18z"/>
<path class="st0" d="M791.13,700.34c-0.12,33.68-27.49,60.88-61.05,60.66c-33.53-0.22-60.54-27.66-60.39-61.36
	c0.15-33.28,27.45-60.37,60.8-60.32C764.16,639.36,791.25,666.62,791.13,700.34z M756.4,700.78c0.25-14.65-10.84-26.28-25.32-26.58
	c-14.53-0.31-26.39,10.94-26.69,25.3c-0.3,14.58,11.48,26.71,25.98,26.76C744.43,726.3,756.16,714.82,756.4,700.78z"/>
</svg>
