<?xml version="1.0" encoding="utf-8"?>
<!-- Generator: Adobe Illustrator 27.3.1, SVG Export Plug-In . SVG Version: 6.00 Build 0)  -->
<svg version="1.1" id="Layer_1" xmlns="http://www.w3.org/2000/svg" xmlns:xlink="http://www.w3.org/1999/xlink" x="0px" y="0px"
	 viewBox="0 0 1080 1080" style="enable-background:new 0 0 1080 1080;" xml:space="preserve">
<style type="text/css">
	.st0{fill:#EB382E;}
	.st1{fill:url(#SVGID_1_);}
	.st2{fill:url(#SVGID_00000027586364592103174210000016849568606231248514_);}
	.st3{fill:url(#SVGID_00000099634813269220890430000013811780477015861172_);}
	.st4{fill:url(#SVGID_00000093884195631229737000000005028958381277253533_);}
	.st5{fill:url(#SVGID_00000092445420396867163150000000773613364569349795_);}
	.st6{fill:#FFFFFF;}
	.st7{fill:url(#SVGID_00000017479636556196008280000007799488865332449960_);}
	.st8{fill:url(#SVGID_00000049909166170643588040000007120710732212519611_);}
	.st9{fill:url(#SVGID_00000052065388266280342470000009371640919659765942_);}
	.st10{fill:url(#SVGID_00000078731793065738269600000015938503505043868327_);}
	.st11{fill:url(#SVGID_00000079479504163261557420000013300104416234334907_);}
	.st12{fill:url(#SVGID_00000147910415821559061000000007807714702863288764_);}
	.st13{fill:url(#SVGID_00000153665677989435019660000009480405609307308455_);}
	.st14{fill:url(#SVGID_00000081644451522864919030000004402175918834890921_);}
	.st15{fill:url(#SVGID_00000116220956409447046220000007579624953356422799_);}
	.st16{fill:url(#SVGID_00000095337793086181974940000006373934404392198799_);}
	.st17{fill:url(#SVGID_00000183951292792454399390000007623150103681671846_);}
	.st18{fill:url(#SVGID_00000097465322732539906460000009407209484751366294_);}
	.st19{fill:url(#SVGID_00000077300624451915438780000003893239501722246584_);}
	.st20{fill:url(#SVGID_00000059288816944708557470000001419395612085601931_);}
	.st21{fill:url(#SVGID_00000167393994703963650000000009860214857559797669_);}
	.st22{fill:url(#SVGID_00000040567422104072015580000008062876119130905789_);}
	.st23{fill:url(#SVGID_00000012467745563768934530000002765029230095255936_);}
	.st24{fill:url(#SVGID_00000119827895233592339770000013406490948961111187_);}
	.st25{fill:url(#SVGID_00000125563448715199459740000003891262096658998403_);}
	.st26{fill:url(#SVGID_00000048500877536386211010000017299077704698031537_);}
	.st27{fill:url(#SVGID_00000116928912161747598640000012690763736820144268_);}
	.st28{fill:url(#SVGID_00000129905913811098883720000009507823790755550871_);}
	.st29{fill:url(#SVGID_00000014617602693296472880000015345014156320559757_);}
	.st30{fill:url(#SVGID_00000007413425916783410180000003082975895846689418_);}
	.st31{fill:url(#SVGID_00000151518950785877116870000015242283189209071795_);}
	.st32{fill:url(#SVGID_00000132048405617313266410000002479538004162828202_);}
	.st33{fill:url(#SVGID_00000095337929551697735510000018329106187238296249_);}
	.st34{fill:url(#SVGID_00000079486307452913521910000000418809710640109729_);}
	.st35{fill:url(#SVGID_00000133512129505893831140000008511117101615749768_);}
	.st36{fill:url(#SVGID_00000063591320129595737580000012954650692385021609_);}
	.st37{fill:url(#SVGID_00000161623166807196902390000007537964118801397923_);}
	.st38{fill:url(#SVGID_00000178895244934064183980000000090430284381222038_);}
	.st39{fill:url(#SVGID_00000163753191964123044310000002500627677537362063_);}
	.st40{fill:url(#SVGID_00000169515579215467817490000011541514307028717223_);}
	.st41{fill:url(#SVGID_00000025425386096778715430000015070728007708524954_);}
	.st42{fill:url(#SVGID_00000159460967055679362030000000359842196789925012_);}
	.st43{fill:url(#SVGID_00000049925279416515724380000011008928739877707912_);}
	.st44{fill:url(#SVGID_00000142866253485752140350000002496278890607352991_);}
	.st45{fill:url(#SVGID_00000125583529923759359170000010393030329686585486_);}
	.st46{fill:url(#SVGID_00000090991385886858143460000014960557456525402523_);}
	.st47{fill:url(#SVGID_00000161628695505997276380000013320033826993772477_);}
	.st48{fill:url(#SVGID_00000141454346141566542710000001404652892008908687_);}
	.st49{fill:url(#SVGID_00000077296504690188758430000003135937771785861542_);}
	.st50{fill:url(#SVGID_00000109025772131446343540000004041448167411119519_);}
	.st51{fill:url(#SVGID_00000124857686761049402680000001517177318996288410_);}
</style>
<path class="st0" d="M359.92,554.9h23.64v63.77h-23.87c0,9.42,0.03,18.75-0.01,28.08c-0.05,9.88-3.58,13.41-13.42,13.48
	c-5.24,0.04-10.49,0.05-15.74-0.01c-9.02-0.1-12.78-3.76-12.8-12.75c-0.05-31.07-0.02-62.13-0.02-93.19
	c0-12.91-0.05-25.81,0.02-38.72c0.05-9.06,3.72-12.74,12.7-12.85c5.46-0.06,10.93-0.06,16.39,0c9.05,0.09,12.8,3.74,12.86,12.7
	c0.08,11.81,0.02,23.63,0.03,35.44C359.7,552.1,359.83,553.36,359.92,554.9z"/>
<linearGradient id="SVGID_1_" gradientUnits="userSpaceOnUse" x1="391.1497" y1="581.4906" x2="758.0999" y2="581.4906">
	<stop  offset="0" style="stop-color:#7ECAB6"/>
	<stop  offset="1" style="stop-color:#15818E"/>
</linearGradient>
<path class="st1" d="M737.64,660.04v35.26c0,8.31,0.03,16.63-0.01,24.94c-0.05,9.87-3.61,13.5-13.41,13.5
	c-46.79,0.03-93.58,0.02-140.37,0.02c-17.71,0-35.44,0.33-53.13-0.25c-4.3-0.14-9.42-2.29-12.59-5.22
	c-11.39-10.54-21.96-21.95-33.19-32.67c-2.21-2.11-5.93-3.67-8.97-3.71c-22.96-0.3-45.92-0.16-68.88-0.17
	c-13.05,0-15.89-2.79-15.9-15.61c-0.01-9.69-0.02-19.38-0.04-29.07h0.01V554.9h0.03v-6.94c0-21.22-0.03-42.44,0.02-63.66
	c0.02-9.4,3.7-13.04,13.12-13.1c8.97-0.05,17.95-0.31,26.89,0.11c4.72,0.22,6.93-1.54,8.83-5.66c4.47-9.72,9.61-19.13,14.24-28.77
	c2.57-5.35,6.4-7.77,12.39-7.76c65.16,0.09,130.32,0.1,195.48,0c6.02-0.01,9.82,2.5,12.38,7.8c4.75,9.83,9.88,19.49,14.54,29.36
	c1.71,3.62,3.76,5.17,7.92,5.02c9.39-0.34,18.8-0.18,28.2-0.09c8.53,0.09,12.38,3.92,12.41,12.5c0.08,21.22,0.03,42.44,0.03,63.66
	v7.8h20.46v104.87H737.64z"/>
<path class="st0" d="M769.14,601.98c0-15.74,1.09-31.56-0.23-47.19c-2.55-30.16,28.64-44.7,52.47-35.06
	c13.82,5.6,21.23,16.46,21.24,31.42c0.03,34.31,0.05,68.62-0.01,102.93c-0.03,19.95-15.42,34.07-36.89,34
	c-21.47-0.07-36.53-14.18-36.57-34.32C769.11,636.51,769.14,619.24,769.14,601.98z"/>
<path class="st0" d="M590.95,418.36c-28.41,0-55.87,0-84.04,0c0-6.64,0-13.28,0-20.7c-14.83,0-28.96,0-43.09,0
	c-18.93,0-20.13-1.19-20.13-19.88c0-21.69,0.43-22.12,21.82-22.12c57.71,0,115.41,0,173.12,0c12.01,0,15.01,3.05,15.03,15.14
	c0.01,5.03,0.1,10.06-0.03,15.09c-0.2,7.74-4.06,11.67-11.83,11.73c-14.43,0.13-28.85,0.04-43.28,0.04c-2.37,0-4.73,0-7.57,0
	C590.95,404.63,590.95,411.11,590.95,418.36z"/>
</svg>
