<?xml version="1.0" encoding="utf-8"?>
<!-- Generator: Adobe Illustrator 27.3.1, SVG Export Plug-In . SVG Version: 6.00 Build 0)  -->
<svg version="1.1" id="Layer_1" xmlns="http://www.w3.org/2000/svg" xmlns:xlink="http://www.w3.org/1999/xlink" x="0px" y="0px"
	 viewBox="0 0 1080 1080" style="enable-background:new 0 0 1080 1080;" xml:space="preserve">
<style type="text/css">
	.st0{fill:#EB382E;}
	.st1{fill:url(#SVGID_1_);}
	.st2{fill:url(#SVGID_00000079465746167977982970000018225638197073848455_);}
	.st3{fill:url(#SVGID_00000132804534014556061270000007812681467111101594_);}
	.st4{fill:url(#SVGID_00000114770562739073697150000010565184899501205435_);}
	.st5{fill:url(#SVGID_00000067213913064308568340000001231597153769167763_);}
	.st6{fill:#FFFFFF;}
	.st7{fill:url(#SVGID_00000120534920148419797360000006176046092941487505_);}
	.st8{fill:url(#SVGID_00000152253447652723928080000015378328520632346514_);}
	.st9{fill:url(#SVGID_00000100359193112000714260000015351846076549573282_);}
	.st10{fill:url(#SVGID_00000075132117488478861020000005248503641916384423_);}
	.st11{fill:url(#SVGID_00000101075802851405365330000008804542674137798031_);}
	.st12{fill:url(#SVGID_00000163760785242813277040000016300706736376233357_);}
	.st13{fill:url(#SVGID_00000159431932633235244150000005013809406002170024_);}
	.st14{fill:url(#SVGID_00000076600939442985974600000009178710184314307462_);}
	.st15{fill:url(#SVGID_00000122700965137223156090000013602194509164079509_);}
	.st16{fill:url(#SVGID_00000017484907339688894530000018023733569707723661_);}
	.st17{fill:url(#SVGID_00000079474984549054020960000003646550679744032433_);}
	.st18{fill:url(#SVGID_00000044880371117333520770000000198166110198416045_);}
	.st19{fill:url(#SVGID_00000025406016087473753270000010136500078824544388_);}
	.st20{fill:url(#SVGID_00000005945036876432565160000010022933815265947528_);}
	.st21{fill:url(#SVGID_00000026161711619518329430000017050895477621511851_);}
	.st22{fill:url(#SVGID_00000178912446030309335850000003712635610276026808_);}
	.st23{fill:url(#SVGID_00000114753514885023025740000017082822813811700627_);}
	.st24{fill:url(#SVGID_00000145034066864612952130000010373585978882278531_);}
	.st25{fill:url(#SVGID_00000036251378425857015830000014794010471970460809_);}
	.st26{fill:url(#SVGID_00000148620744798746410450000011813822484552803739_);}
	.st27{fill:url(#SVGID_00000057111592229490402750000000868127273693570456_);}
	.st28{fill:url(#SVGID_00000073685120723386218520000011518959636845652116_);}
	.st29{fill:url(#SVGID_00000062167853892240197510000001845713597629819062_);}
	.st30{fill:url(#SVGID_00000135666955482514565810000009088926738225588927_);}
	.st31{fill:url(#SVGID_00000169525322945018257500000010861750705259850145_);}
	.st32{fill:url(#SVGID_00000078031435212198479890000015126523813399606666_);}
	.st33{fill:url(#SVGID_00000062896669813067065010000017699227640873592461_);}
	.st34{fill:url(#SVGID_00000179610575293751499150000017841490883843280021_);}
	.st35{fill:url(#SVGID_00000078011029551067867550000000623842553176410529_);}
	.st36{fill:url(#SVGID_00000153681792489199356160000006892336389386518713_);}
	.st37{fill:url(#SVGID_00000134234242850995967900000001505534022396721047_);}
	.st38{fill:url(#SVGID_00000022542607515960777440000008339380358170655638_);}
	.st39{fill:url(#SVGID_00000170957410950933499990000005359446931737464480_);}
	.st40{fill:url(#SVGID_00000015347691243827719390000016826835073019892368_);}
	.st41{fill:url(#SVGID_00000005236247748213865790000001761851609473281182_);}
	.st42{fill:url(#SVGID_00000160172997605169791320000017446720729691184274_);}
	.st43{fill:url(#SVGID_00000037663374099258359000000018180360495608253119_);}
	.st44{fill:url(#SVGID_00000168819561760087101380000000568407782930247341_);}
	.st45{fill:url(#SVGID_00000086674467948652308730000018309181215721663910_);}
	.st46{fill:url(#SVGID_00000103978735069192329790000001405054764576395158_);}
	.st47{fill:url(#SVGID_00000130631964312750027360000000908805367000101283_);}
	.st48{fill:url(#SVGID_00000126321324411769364820000002615834799403595417_);}
	.st49{fill:url(#SVGID_00000137121864944383067050000013504534176780576657_);}
	.st50{fill:url(#SVGID_00000096754479100551776440000012007667048996670387_);}
	.st51{fill:url(#SVGID_00000127752217863919119850000014658239532097234878_);}
</style>
<linearGradient id="SVGID_1_" gradientUnits="userSpaceOnUse" x1="341.627" y1="560.7324" x2="750.454" y2="560.7324">
	<stop  offset="0" style="stop-color:#7ECAB6"/>
	<stop  offset="1" style="stop-color:#15818E"/>
</linearGradient>
<path class="st1" d="M577.07,424.92c0,14.03,0.19,28.06-0.07,42.08c-0.16,8.87,3.3,15.11,10.78,19.97
	c51.81,33.61,103.47,67.46,155.29,101.06c5.26,3.41,7.7,7.4,7.35,13.67c-0.38,6.92,0,13.87-0.12,20.81
	c-0.14,7.83-5.44,11.79-12.97,9.65c-44.97-12.8-89.93-25.65-134.89-38.47c-13.99-3.99-24.98,4.34-25,19.02
	c-0.04,23.74,0.07,47.48-0.06,71.22c-0.04,7.4,2.76,13.01,8.73,17.34c15.08,10.96,29.99,22.15,45.13,33.03
	c4.43,3.19,6.68,6.94,6.31,12.44c-0.26,3.84,0,7.71-0.06,11.56c-0.14,8.51-6.32,12.63-14.07,9.23
	c-18.89-8.27-37.73-16.65-56.59-24.98c-5.5-2.43-5.85-2.19-5.87,4c-0.02,5.7,0.1,11.41-0.06,17.11c-0.26,9.3-6.75,15.75-15.38,15.54
	c-8.46-0.21-14.33-6.64-14.41-15.9c-0.05-6.01,0.04-12.02-0.03-18.04c-0.05-4.41-0.85-4.93-4.93-3.13
	c-18.59,8.19-37.15,16.43-55.73,24.65c-10.07,4.45-15.92,0.72-15.86-10.23c0.11-20.25-2.08-15.87,14.06-27.83
	c12.13-8.99,24.24-18.01,36.52-26.79c6.57-4.7,9.63-10.68,9.55-18.82c-0.21-23.28-0.52-46.57,0.09-69.83
	c0.39-14.96-12.96-23.49-26.02-19.57c-43.75,13.13-87.79,25.32-131.72,37.87c-10.75,3.07-15.32-0.41-15.32-11.73
	c0-6.47,0.2-12.96-0.06-19.42c-0.22-5.39,2.04-8.88,6.49-11.77c51.37-33.45,102.58-67.13,154.05-100.43
	c8.83-5.71,12.79-12.66,12.59-23.25c-0.48-25.27-0.46-50.57,0.02-75.84c0.16-8.68,1.4-17.55,3.68-25.92
	c5.9-21.67,30.88-27.86,46.83-12.11c7.86,7.76,10.82,17.58,11.15,28.08c0.48,15.24,0.12,30.51,0.12,45.76
	C576.73,424.92,576.9,424.92,577.07,424.92z"/>
<path class="st0" d="M729,562.19c-13.14-8.57-25.4-16.49-37.53-24.6c-0.98-0.65-1.54-2.57-1.56-3.91
	c-0.14-7.39-0.23-14.79-0.01-22.18c0.34-11.65,8.41-19.51,19.64-19.45c11.13,0.06,19.32,8.18,19.43,19.73
	C729.12,528.22,729,544.66,729,562.19z"/>
<path class="st0" d="M663.25,519.25c-8.78-5.7-16.77-10.84-24.7-16.06c-4.75-3.12-11.2-5.41-13.6-9.84
	c-2.41-4.44-0.89-11.09-0.79-16.77c0.06-3.51,0.12-7.17,1.12-10.49c2.67-8.92,11.4-14.1,20.92-12.93
	c9.52,1.17,16.72,8.42,16.96,18.32C663.53,487.02,663.25,502.58,663.25,519.25z"/>
<path class="st0" d="M374.85,554.36c0-15.95-0.44-31.01,0.16-46.04c0.38-9.59,9.46-16.46,19.63-16.27
	c10.13,0.19,18.24,7.6,18.93,17.76c0.39,5.67,0.18,11.38,0.06,17.07c-0.02,1.04-0.65,2.48-1.46,3.02
	C400.03,537.96,387.81,545.9,374.85,554.36z"/>
<path class="st0" d="M440.54,511.47c0-14.52-0.31-27.93,0.1-41.32c0.3-9.77,9.34-17.33,19.46-17.22
	c10.15,0.11,18.42,7.65,19.28,17.59c0.04,0.46,0.04,0.92,0.05,1.39c0.45,13.84,0.45,13.84-11.16,21.43
	C459.29,499.21,450.32,505.07,440.54,511.47z"/>
</svg>
