<?xml version="1.0" encoding="utf-8"?>
<!-- Generator: Adobe Illustrator 27.3.1, SVG Export Plug-In . SVG Version: 6.00 Build 0)  -->
<svg version="1.1" id="Layer_1" xmlns="http://www.w3.org/2000/svg" xmlns:xlink="http://www.w3.org/1999/xlink" x="0px" y="0px"
	 viewBox="0 0 1080 1080" style="enable-background:new 0 0 1080 1080;" xml:space="preserve">
<style type="text/css">
	.st0{fill:#EB382E;}
	.st1{fill:url(#SVGID_1_);}
	.st2{fill:url(#SVGID_00000018928151279399301290000014088353871639240363_);}
	.st3{fill:url(#SVGID_00000083800295274997455440000001301502664949806737_);}
	.st4{fill:url(#SVGID_00000021096888673259605530000002872224005813320593_);}
	.st5{fill:url(#SVGID_00000096764090444105400100000005793052425412978053_);}
	.st6{fill:#FFFFFF;}
	.st7{fill:url(#SVGID_00000161590281888781129380000014968297579920744352_);}
	.st8{fill:url(#SVGID_00000016076979382129914850000008100769055507561094_);}
	.st9{fill:url(#SVGID_00000106121516491427900710000009730877552177882302_);}
	.st10{fill:url(#SVGID_00000082327902249962394220000007121572388272004790_);}
	.st11{fill:url(#SVGID_00000181085648832570440960000014249014142412999585_);}
	.st12{fill:url(#SVGID_00000018237051171446602840000017723128409254444681_);}
	.st13{fill:url(#SVGID_00000032616942348836941990000012560815328183098001_);}
	.st14{fill:url(#SVGID_00000070806743170974652470000012567441644861751191_);}
	.st15{fill:url(#SVGID_00000176023654264496244580000013272859486056734890_);}
	.st16{fill:url(#SVGID_00000114067985106784922010000016750219575937330847_);}
	.st17{fill:url(#SVGID_00000094600024482835925570000005562428504947923852_);}
	.st18{fill:url(#SVGID_00000109005088967331831030000013034885373563942066_);}
	.st19{fill:url(#SVGID_00000141454357996186932770000016207965795489041830_);}
	.st20{fill:url(#SVGID_00000166637186200196533830000011821189744618980257_);}
	.st21{fill:url(#SVGID_00000181082499224601036110000007461454840292232096_);}
	.st22{fill:url(#SVGID_00000166675970460612172830000016043470655043904421_);}
	.st23{fill:url(#SVGID_00000043438170269920933160000016931013819510315156_);}
	.st24{fill:url(#SVGID_00000093139686924374941160000013600594700668969657_);}
	.st25{fill:url(#SVGID_00000089547482131037456490000000849366812107312053_);}
	.st26{fill:url(#SVGID_00000064322979585983559300000011750113348896898992_);}
	.st27{fill:url(#SVGID_00000124161551425082838890000009759006833164958104_);}
	.st28{fill:url(#SVGID_00000168117820585392848300000005918667971660323771_);}
	.st29{fill:url(#SVGID_00000162352281898996143920000004034525790024204705_);}
	.st30{fill:url(#SVGID_00000163761819089770193660000013781606596401954471_);}
	.st31{fill:url(#SVGID_00000177473060448439674930000017146424640549304960_);}
	.st32{fill:url(#SVGID_00000018233373364961207040000002185657395815683249_);}
	.st33{fill:url(#SVGID_00000010287465364336680940000012465447474585587350_);}
	.st34{fill:url(#SVGID_00000150798717172233811450000012974102268377212033_);}
	.st35{fill:url(#SVGID_00000106847007976584071450000016988420871864238507_);}
	.st36{fill:url(#SVGID_00000173883956888109600200000011182280228780970408_);}
	.st37{fill:url(#SVGID_00000179625284714991174210000017530312680602343306_);}
	.st38{fill:url(#SVGID_00000099641211819648359530000011359441106471874744_);}
	.st39{fill:url(#SVGID_00000080914307839597876770000011457799458851539098_);}
	.st40{fill:url(#SVGID_00000054976497911961570560000011245011080294935449_);}
	.st41{fill:url(#SVGID_00000029740117948703612690000014401300911302239367_);}
	.st42{fill:url(#SVGID_00000108990871683819783040000012111986983509626527_);}
	.st43{fill:url(#SVGID_00000054970655854132471640000002329474488333307065_);}
	.st44{fill:url(#SVGID_00000036938076787516860150000001891535288880525210_);}
	.st45{fill:url(#SVGID_00000076596957960726567810000004790654777603225265_);}
	.st46{fill:url(#SVGID_00000108301609214457485380000017876740811312694456_);}
	.st47{fill:url(#SVGID_00000010276594872266437590000018409453780334988443_);}
	.st48{fill:url(#SVGID_00000142893028780260258980000018185023523946516661_);}
	.st49{fill:url(#SVGID_00000151516015092672302380000016363572394614379173_);}
	.st50{fill:url(#SVGID_00000142865982226598336360000002694959444648266635_);}
	.st51{fill:url(#SVGID_00000022522534183050723030000008039680098249272451_);}
</style>
<linearGradient id="SVGID_1_" gradientUnits="userSpaceOnUse" x1="207.7596" y1="571.5394" x2="417.4186" y2="571.5394">
	<stop  offset="0" style="stop-color:#7ECAB6"/>
	<stop  offset="1" style="stop-color:#15818E"/>
</linearGradient>
<path class="st1" d="M207.76,604.16c8.31-6.07,12.55-13.49,11.74-24.54c-1.06-14.38-0.41-28.9-0.13-43.35
	c0.06-2.98,1.03-6.47,2.81-8.79c23.2-30.33,46.58-60.52,70.06-90.63c1.37-1.75,4.06-3.5,6.14-3.51
	c38.63-0.19,77.25-0.11,115.88-0.08c0.4,0,0.8,0.2,1.64,0.43c0,68.79,0,137.69,0,207.21c-13.11,0-25.98,0-38.91,0
	c-1.04,4.88,0.8,6.19,4.96,6.13c11.18-0.18,22.37-0.06,35.47-0.06c-1.77,2.96-2.65,5.99-3.8,6.09c-6.57,0.59-7.62,5.64-8.84,10.31
	c-1.12,4.32-3.29,6.25-7.74,5.45c-0.84-0.15-1.74,0.1-2.58-0.04c-12.17-2.05-19.3,1.51-25.43,13.9
	c-9.63,19.49-28.15,28.29-49.93,27.06c-23.43-1.33-40-13.62-48.9-35.41c-1.78-4.37-3.78-5.72-8.3-5.64
	c-14.64,0.28-29.28,0.1-44.53,0.1c0-7.27,0-14.07,0-21.86c6.45,0,13.26,0,20.08,0c8.42,0,16.84,0.2,25.24-0.17
	c1.81-0.08,3.53-2.24,5.29-3.43c-0.34-0.78-0.68-1.56-1.02-2.35c-6.17,0-12.33,0.06-18.5-0.01c-13.56-0.15-27.13-0.37-40.69-0.56
	C207.76,628.34,207.76,616.25,207.76,604.16z M393.63,456.46c-29.28,0-57.53-0.09-85.77,0.19c-1.93,0.02-4.32,2.38-5.68,4.25
	c-14.7,20.25-29.25,40.62-43.81,60.98c-1.08,1.51-1.97,3.15-3.18,5.11c46.4,0,92.15,0,138.44,0c0-2.7,0-4.83,0-6.96
	C393.63,499.12,393.63,478.2,393.63,456.46z M321.75,680.82c14.75,0.07,26.94-11.95,26.94-26.57c0-14.55-12.36-26.8-26.95-26.71
	c-14.43,0.09-26.27,11.9-26.47,26.4C295.08,668.75,306.9,680.75,321.75,680.82z"/>
<linearGradient id="SVGID_00000071531699182184951640000010074458385320880512_" gradientUnits="userSpaceOnUse" x1="421.7043" y1="515.7822" x2="855.4093" y2="515.7822">
	<stop  offset="0" style="stop-color:#7ECAB6"/>
	<stop  offset="1" style="stop-color:#15818E"/>
</linearGradient>
<path style="fill:url(#SVGID_00000071531699182184951640000010074458385320880512_);" d="M421.98,651.07c0-3.24,0-5.74,0-8.23
	c0-66.91-0.03-133.82,0.08-200.74c0.01-3.38-2.12-8.1,3.92-9.37c0.53-0.11,0.6-3.14,0.61-4.82c0.05-13.6,0.01-27.2,0.04-40.79
	c0-2.1,0.17-4.2,0.28-6.61c142.95,0,285.5,0,428.5,0c0,78.46,0,156.62,0,236.45c-7.47-8.38-14.53-15.27-20.37-23.08
	c-12.73-17.01-29.33-24.3-50.5-25.37c-54.39-2.74-108.66-2.9-163.04,0.5c-27.42,1.71-50.24,11.7-70.26,30.06
	c-10.72,9.83-21.48,20.57-34.19,27c-12.58,6.37-27.64,7.86-41.63,11.44C457.94,641.96,440.44,646.38,421.98,651.07z"/>
<path class="st0" d="M415.75,753.29c-0.24-3.96-0.44-7.13-0.67-10.85c-7.49,1.21-8.07-4.06-8.96-9.24
	c-1.16-6.8-2.71-13.53-3.7-20.35c-0.3-2.08-0.08-5.53,1.19-6.34c8.13-5.18,10.42-13.71,12.47-21.92
	c2.42-9.72,7.58-13.98,17.52-16.25c30.02-6.84,59.75-14.97,89.54-22.82c3.17-0.83,6.32-2.68,8.87-4.79
	c14.95-12.37,29.91-24.76,44.51-37.55c11.9-10.42,26.49-11.83,41.07-13.18c45.41-4.22,90.93-4.06,136.45-2.49
	c11.64,0.4,23.26,1.36,34.87,2.27c8.97,0.7,16.27,4.4,22.31,11.44c14.6,17.03,29.74,33.61,44.46,50.54
	c2.46,2.83,4.16,6.42,5.73,9.88c11.61,25.44,10.21,52.41,9.14,79.77c-1.73,0.32-3.55,0.66-5.96,1.1c-0.2,3.26-0.41,6.59-0.67,10.77
	c-6.18,0-12.17-0.33-18.09,0.17c-2.24,0.19-5.28,1.77-6.33,3.64c-9.62,17.08-26.13,26.29-43.68,23.89
	c-19.64-2.68-33.18-15.04-37.45-34.87c-0.94-4.36-3.4-4.18-6.51-4.18c-21.15,0.02-42.29,0.01-63.44,0.01
	c-48.12,0-96.24,0.07-144.36-0.11c-4.96-0.02-6.9,1.18-8.02,6.36c-3.92,18.1-18.65,30.52-37.87,32.92
	c-16.4,2.05-33.82-7.09-41.75-22.63c-2.13-4.17-4.49-5.41-8.89-5.29C437.21,753.49,426.86,753.29,415.75,753.29z M813.43,646.61
	c-10.48-12.88-20.05-24.81-29.87-36.52c-1.17-1.4-3.64-2.24-5.58-2.39c-14.18-1.08-28.37-2.12-42.58-2.75
	c-9.13-0.4-18.3-0.08-27.43-0.08c0,14.45,0,27.95,0,41.74C742.91,646.61,777.5,646.61,813.43,646.61z M679.83,646.55
	c0-14.03,0-27.66,0-42.28c-24.81,1.66-49.08,3.27-73.33,4.97c-1.17,0.08-2.67,0.62-3.37,1.48c-9.46,11.63-18.8,23.36-28.79,35.83
	C610.07,646.55,644.65,646.55,679.83,646.55z M800.56,754.2c8.4-0.02,16.1-7.92,15.92-16.32c-0.18-8.13-7.83-15.63-15.94-15.63
	c-8.06,0-15.78,7.57-15.97,15.66C784.37,746.18,792.26,754.22,800.56,754.2z M510.14,738.14c-0.03-8.27-7.37-15.75-15.61-15.89
	c-8.44-0.15-16.13,7.51-16.09,16.04c0.04,8.24,7.38,15.72,15.59,15.9C502.43,754.36,510.18,746.65,510.14,738.14z"/>
</svg>
