<?xml version="1.0" encoding="iso-8859-1"?>
<!-- Uploaded to: SVG Repo, www.svgrepo.com, Generator: SVG Repo Mixer Tools -->
<svg fill="#000000" height="800px" width="800px" version="1.1" id="Layer_1" xmlns="http://www.w3.org/2000/svg" xmlns:xlink="http://www.w3.org/1999/xlink" 
	 viewBox="0 0 512.898 512.898" xml:space="preserve">
<g transform="translate(1 1)">
	<g>
		<g>
			<path d="M503.814,269.821l-78.147-86.232c-6.288-6.288-14.372-9.881-22.456-9.881h-82.639c-14.372,0-25.151,11.677-25.151,25.151
				v137.432h-83.808l-32.066-77.249c-0.476-1.111-0.99-2.195-1.533-3.256l84.394-118.493c13.573-3.468,24.912-13.192,30.385-26.104
				l85.266-8.442c0.829-0.166,1.628-0.425,2.379-0.763c9.902,11.446,24.506,18.728,40.737,18.728
				c11.677,0,23.354-3.593,32.337-10.779c3.593-2.695,4.491-8.982,1.796-12.575c-2.695-3.593-8.982-4.491-12.575-1.797
				c-6.288,4.491-13.474,7.186-21.558,7.186c-17.038,0-31.396-12.023-35.032-28.002V58.89c3.636-15.979,17.993-28.002,35.032-28.002
				c8.084,0,15.27,2.695,21.558,7.186c3.593,2.695,9.881,1.796,12.575-1.797c2.695-3.593,1.797-9.881-1.797-12.575
				c-8.982-7.186-20.66-10.779-32.337-10.779c-16.173,0-30.729,7.23-40.63,18.605c-2.026-0.974-4.053-1.315-6.079-0.64
				l-97.598,25.684c-7.196-4.883-15.941-7.719-25.461-7.719c-25.151,0-44.912,19.761-44.912,44.912c0,0.227,0.013,0.449,0.017,0.675
				L101.094,240.804c-5.532,4.862-10.075,11.022-13.168,18.238l-32.066,77.249H-1v86.232c0,11.677,9.881,21.558,21.558,21.558h6.024
				c4.289,30.689,30.266,53.895,62.243,53.895c31.977,0,57.953-23.205,62.243-53.895h189.9
				c4.289,30.689,30.266,53.895,62.243,53.895c31.977,0,57.953-23.205,62.243-53.895h23.989c11.677,0,21.558-9.881,22.456-21.558
				V300.361v-8.982v-0.898C511.898,282.397,509.203,275.211,503.814,269.821z M489.442,282.397H358.298v-89.825h44.912
				c3.593,0,6.288,0.898,8.982,3.593L489.442,282.397z M368.179,57.113c-0.58,3.152-0.898,6.392-0.898,9.705
				c0,3.313,0.319,6.553,0.898,9.705v9.159l-71.86,7.186c-0.008-0.072-0.019-0.142-0.027-0.214
				c-0.183-7.848-2.292-15.141-5.887-21.438l77.774-19.667V57.113z M251.407,66.818c14.372,0,26.947,11.677,26.947,26.947
				c0,15.27-11.677,26.947-26.947,26.947c-0.476,0-0.948-0.011-1.417-0.034c-0.009,0-0.017-0.001-0.026-0.002
				c-14.557-0.71-25.504-12.126-25.504-26.912C224.46,78.495,236.137,66.818,251.407,66.818z M131.042,228.502l80.842-112.281
				c5.389,9.881,15.27,17.067,26.049,20.66l-72.577,103.041c-8.216-6.833-18.473-10.875-29.38-11.364
				c-0.026-0.001-0.051-0.003-0.076-0.004c-0.719-0.031-1.439-0.052-2.163-0.052C132.839,228.502,131.94,228.502,131.042,228.502z
				 M104.993,266.228c1.548-4.333,3.963-8.009,6.96-10.989c0.376-0.212,0.751-0.439,1.125-0.689
				c1.935-1.935,4.106-3.517,6.463-4.758c0.192-0.096,0.379-0.202,0.573-0.294c0.101-0.05,0.203-0.097,0.305-0.146
				c3.401-1.568,7.108-2.521,10.939-2.8c0.029-0.002,0.058-0.004,0.088-0.006c0.76-0.053,1.524-0.082,2.292-0.082
				c0.639,0,1.274,0.031,1.908,0.068c7.769,0.538,15.386,4.317,21.113,10.007c2.424,2.73,4.394,5.966,5.722,9.686l29.642,70.063
				H75.351L104.993,266.228z M88.825,480.011c-25.151,0-44.912-19.761-44.912-44.912s19.761-44.912,44.912-44.912
				s44.912,19.761,44.912,44.912S113.975,480.011,88.825,480.011z M403.211,480.011c-25.151,0-44.912-19.761-44.912-44.912
				s19.761-44.912,44.912-44.912s44.912,19.761,44.912,44.912S428.361,480.011,403.211,480.011z M489.442,426.116h-23.989
				c-4.289-30.689-30.266-53.895-62.243-53.895c-0.146,0-0.288,0.01-0.434,0.011c-0.155-0.001-0.309-0.011-0.465-0.011
				c-31.439,0-57.488,23.354-61.979,53.895H151.068c-4.022-28.778-27.117-50.964-56.346-53.617c-0.212-0.02-0.427-0.03-0.641-0.048
				c-0.737-0.06-1.474-0.12-2.219-0.155c-1.007-0.048-2.019-0.075-3.038-0.075s-2.031,0.027-3.038,0.075
				c-0.745,0.034-1.482,0.095-2.219,0.155c-0.213,0.018-0.428,0.028-0.641,0.048c-29.229,2.653-52.324,24.839-56.346,53.617h-6.024
				c-1.797,0-3.593-1.797-3.593-3.593v-68.267h31.439H219.07h94.316V199.758c0-4.491,3.593-7.186,7.186-7.186h19.761v92.519
				c0,8.084,7.186,15.27,15.27,15.27h137.432v26.947h-44.912c-5.389,0-8.982,3.593-8.982,8.982s3.593,8.982,8.982,8.982h44.912
				v77.249C493.035,424.319,491.239,426.116,489.442,426.116z"/>
			<path d="M88.825,417.133c-9.881,0-17.965,8.084-17.965,17.965s8.084,17.965,17.965,17.965c9.881,0,17.965-8.084,17.965-17.965
				S98.705,417.133,88.825,417.133z"/>
			<path d="M403.211,417.133c-9.881,0-17.965,8.084-17.965,17.965s8.084,17.965,17.965,17.965c9.881,0,17.965-8.084,17.965-17.965
				S413.091,417.133,403.211,417.133z"/>
			<path d="M133.737,273.414c-5.389,0-8.982,3.593-8.982,8.982c0,5.389,3.593,8.982,8.982,8.982c5.39,0,8.982-3.593,8.982-8.982
				C142.719,277.007,139.126,273.414,133.737,273.414z"/>
		</g>
	</g>
</g>
</svg>