<?xml version="1.0" encoding="UTF-8"?>
<svg id="Layer_1" xmlns="http://www.w3.org/2000/svg" version="1.1" viewBox="0 0 17 17">
  <!-- Generator: Adobe Illustrator 29.5.1, SVG Export Plug-In . SVG Version: 2.1.0 Build 141)  -->
  <rect x="6.28" y="9.69" width="1.71" height="1.03"/>
  <rect x="6.28" y="6.96" width="1.71" height="1.03"/>
  <rect x="6.28" y="4.23" width="1.71" height="1.03"/>
  <rect x="2.87" y="12.42" width="1.71" height="1.03"/>
  <rect x="9.01" y="12.42" width="1.71" height="1.03"/>
  <rect x="2.87" y="9.69" width="1.71" height="1.03"/>
  <rect x="6.28" y="12.42" width="1.71" height="1.03"/>
  <rect x="9.01" y="4.23" width="1.71" height="1.03"/>
  <rect x="12.42" y="12.42" width="1.71" height="1.03"/>
  <rect x="12.42" y="9.69" width="1.71" height="1.03"/>
  <rect x="12.42" y="6.96" width="1.71" height="1.03"/>
  <rect x="9.01" y="6.96" width="1.71" height="1.03"/>
  <rect x="9.01" y="9.69" width="1.71" height="1.03"/>
  <path d="M14.98,3.55h-1.53v-1.53c0-1.04-.84-1.88-1.88-1.88h-6.14c-1.04,0-1.88.84-1.88,1.88v4.26h-1.53c-1.04,0-1.88.84-1.88,1.88v8.7h16.73V5.43c0-1.04-.84-1.88-1.88-1.88ZM14.98,4.58c.47,0,.85.38.85.85v10.4H1.17v-7.67c0-.47.38-.85.85-.85h2.56V2.02c0-.47.38-.85.85-.85h6.14c.47,0,.85.38.85.85v2.56h2.56Z"/>
</svg>