<svg width="15" height="17" viewBox="0 0 15 17" fill="none" xmlns="http://www.w3.org/2000/svg">
<path d="M0.821915 16.5976C0.609332 16.5976 0.431249 16.5257 0.287666 16.382C0.144066 16.2383 0.0722656 16.0601 0.0722656 15.8476V1.25151C0.0722656 0.995423 0.15889 0.780764 0.33214 0.607531C0.505374 0.434281 0.720032 0.347656 0.976115 0.347656H7.42029C7.63367 0.347656 7.8242 0.414648 7.99186 0.548631C8.15953 0.682598 8.26516 0.856631 8.30874 1.07073L8.56837 2.34766H13.1684C13.4244 2.34766 13.6391 2.43391 13.8123 2.60643C13.9856 2.77893 14.0722 2.99268 14.0722 3.24768V10.4478C14.0722 10.7028 13.9856 10.9165 13.8123 11.0889C13.6391 11.2614 13.4244 11.3476 13.1684 11.3476H8.72419C8.51081 11.3476 8.32028 11.2806 8.15262 11.1466C7.98495 11.0127 7.87932 10.8386 7.83574 10.6245L7.57612 9.34761H1.57224V15.8476C1.57224 16.0601 1.50033 16.2383 1.35652 16.382C1.21272 16.5257 1.03452 16.5976 0.821915 16.5976ZM9.22224 9.84763H12.5722V3.84763H7.32224L6.92224 1.84763H1.57224V7.84763H8.82224L9.22224 9.84763Z" fill="#1C1B1F"/>
</svg>
