<?xml version="1.0" encoding="UTF-8"?>
<svg id="Layer_1" xmlns="http://www.w3.org/2000/svg" version="1.1" viewBox="0 0 17 17">
  <!-- Generator: Adobe Illustrator 29.5.1, SVG Export Plug-In . SVG Version: 2.1.0 Build 141)  -->
  <path d="M15.98,5.69l-1.29-1.02V1.62h-1.04v2.24L9.64.71c-.67-.53-1.62-.53-2.29,0L1.01,5.69c-.45.35-.71.89-.71,1.46v9.54h5.72v-6.53c0-.45.36-.81.81-.81h3.34c.45,0,.81.36.81.81v6.53h5.71V7.15c0-.57-.26-1.11-.71-1.46ZM4.97,10.15v5.49H1.34V7.15c0-.25.11-.48.31-.64L7.99,1.53c.3-.23.71-.23,1.01,0l6.35,4.98c.2.16.31.39.31.64v8.5h-3.63v-5.5c0-1.03-.84-1.86-1.86-1.86h-3.34c-1.03,0-1.86.84-1.86,1.86Z"/>
</svg>