<svg width="13" height="16" viewBox="0 0 13 16" fill="none" xmlns="http://www.w3.org/2000/svg">
<path fill-rule="evenodd" clip-rule="evenodd" d="M2.12031 6.64477C1.84095 3.57214 4.19291 1.45359 6.76831 1.45359C9.33477 1.45359 11.7066 3.72966 11.4169 6.63878C11.242 8.39491 10.0302 10.2683 8.75897 11.7675C8.13605 12.5022 7.5236 13.1186 7.06666 13.5513C6.96459 13.648 6.87047 13.7353 6.78594 13.8126C6.69346 13.7222 6.58913 13.619 6.47517 13.504C6.00962 13.0345 5.38685 12.3739 4.75592 11.608C4.12352 10.8404 3.49269 9.97881 3.00372 9.10739C2.51046 8.22832 2.18759 7.38477 2.12031 6.64477ZM6.76831 14.7606C7.21417 15.3002 7.2143 15.3001 7.21445 15.3L6.76831 14.7606ZM6.29871 15.2797L6.29766 15.2787L6.2942 15.2756L6.28193 15.2644L6.23676 15.2229C6.19778 15.1869 6.14143 15.1344 6.0701 15.0668C5.92748 14.9315 5.72473 14.7356 5.48103 14.4898C4.99433 13.999 4.34077 13.3059 3.67538 12.4982C3.01147 11.6923 2.32601 10.7606 1.78279 9.79247C1.24386 8.83202 0.818651 7.78986 0.726065 6.77154C0.36596 2.8109 3.43965 0.0535889 6.76831 0.0535889C10.1059 0.0535889 13.1873 2.98885 12.81 6.77753C12.5902 8.98375 11.1295 11.1366 9.82679 12.6729C9.16276 13.4561 8.51293 14.1099 8.02932 14.5679C7.78714 14.7972 7.5857 14.9783 7.44376 15.103C7.37276 15.1654 7.31658 15.2137 7.27755 15.2469L7.23214 15.2852L7.21962 15.2957L7.21599 15.2987L7.21445 15.3L6.7481 15.6853L6.29871 15.2797ZM6.29871 15.2797C6.29884 15.2798 6.2993 15.2802 6.76831 14.7606L6.29871 15.2797ZM6.76788 7.44214C7.54201 7.44214 8.16956 6.81459 8.16956 6.04047C8.16956 5.26634 7.54201 4.63879 6.76788 4.63879C5.99376 4.63879 5.36621 5.26634 5.36621 6.04047C5.36621 6.81459 5.99376 7.44214 6.76788 7.44214Z" fill="black"/>
</svg>
