<?xml version="1.0" encoding="UTF-8"?>
<svg id="Layer_1" xmlns="http://www.w3.org/2000/svg" version="1.1" viewBox="0 0 15.81 17.18">
  <!-- Generator: Adobe Illustrator 29.5.1, SVG Export Plug-In . SVG Version: 2.1.0 Build 141)  -->
  <path d="M4.4,6.36c-.47,0-.86.38-.86.85s.38.86.86.86.85-.38.85-.86-.38-.85-.85-.85Z"/>
  <path d="M14.72,6.48L8.83.65c-.41-.42-1.01-.61-1.6-.54L2.44.77c-.13.02-.25.09-.34.2s-.12.24-.1.37c.04.27.3.47.57.44l4.79-.66c.28-.04.55.06.75.25l5.89,5.83c.86.86.88,2.27.05,3.16-.16-.41-.41-.79-.73-1.1L7.44,3.43c-.42-.41-1.02-.61-1.6-.54l-4.79.65c-.23.03-.41.22-.44.45L.08,8.8c-.06.58.14,1.14.55,1.55l5.85,5.79c.62.62,1.45.96,2.33.96.88,0,1.71-.35,2.33-.98l2.2-2.23c.61-.62.95-1.44.95-2.31l.45-.47c1.27-1.28,1.26-3.36-.02-4.64ZM12.62,13.18l-2.2,2.23c-.43.43-1,.67-1.62.68-.61,0-1.18-.24-1.61-.67L1.34,9.64c-.19-.19-.28-.45-.25-.72l.49-4.41,4.39-.6c.27-.04.55.06.75.25l5.89,5.83c.88.88.89,2.32.01,3.2Z"/>
</svg>